<svg width="16" height="16" viewBox="0 0 16 16" xmlns="http://www.w3.org/2000/svg">
    <g fill="none" fill-rule="evenodd">
        <circle fill="#009FC7" cx="8" cy="8" r="8"/>
        <path d="M7.627 5.809c.147 0 .285-.027.415-.082.13-.055.244-.128.342-.22.098-.092.175-.2.232-.322a.957.957 0 0 0 0-.793 1.057 1.057 0 0 0-.574-.548 1.093 1.093 0 0 0-.816 0 1.058 1.058 0 0 0-.556.548.986.986 0 0 0-.082.4c0 .14.028.27.082.393.055.122.13.23.226.322s.206.165.33.22a.986.986 0 0 0 .401.082zm.87 6.443V6.396h-1.75v5.856h1.75z" fill="#FFF" fill-rule="nonzero"/>
    </g>
</svg>
