<svg width="24" height="24" xmlns="http://www.w3.org/2000/svg">
    <path d="M10.565 21.942a10.05 10.05 0 0 1-8.508-8.507m19.884 0a10.047 10.047 0 0 1-8.506 8.507M2.057 10.565a10.051 10.051 0 0 1 8.508-8.506m2.87 0a10.05 10.05 0 0 1 8.506 8.506M10.565 7.427V1h2.87v6.441m3.124 3.124H23v2.87h-6.457m-3.108 3.124V23h-2.87v-6.441m-3.138-3.124H1v-2.87h6.412M12 16.783a4.783 4.783 0 1 0 0-9.566 4.783 4.783 0 0 0 0 9.566z" stroke="#009FC7" stroke-width=".935" fill="none" fill-rule="evenodd" stroke-linecap="round" stroke-linejoin="round"/>
</svg>
