<svg width="23" height="23" viewBox="0 0 23 23" xmlns="http://www.w3.org/2000/svg">
    <path d="M3.207 2.268a.936.936 0 0 0-.93.939l-.008 15.92 2.21-2.21c.212-.212.5-.331.801-.331h14.513a.94.94 0 0 0 .94-.94V3.207a.94.94 0 0 0-.94-.94H3.207zM1.134 23A1.133 1.133 0 0 1 0 21.866l.01-18.66A3.206 3.206 0 0 1 3.207 0h16.586A3.211 3.211 0 0 1 23 3.207v12.44a3.21 3.21 0 0 1-3.207 3.207H5.75l-3.815 3.814a1.133 1.133 0 0 1-.801.332zM11.5 11.557a1.133 1.133 0 0 1-1.134-1.134V4.907a1.134 1.134 0 1 1 2.268 0v5.516c0 .627-.508 1.134-1.134 1.134m-1.295 2.43a1.295 1.295 0 1 1 2.59 0 1.295 1.295 0 0 1-2.59 0" fill="#006EF2" fill-rule="evenodd"/>
</svg>
