<svg width="22" height="22" viewBox="0 0 22 22" fill="none" xmlns="http://www.w3.org/2000/svg">
    <path fill-rule="evenodd" clip-rule="evenodd" d="M3.789 2.972a.814.814 0 0 0-.809.817l-.007 13.843 1.922-1.921a.985.985 0 0 1 .697-.289h12.62c.45 0 .816-.366.816-.817V3.79a.818.818 0 0 0-.817-.817H3.79zM1.986 21A.985.985 0 0 1 1 20.014l.008-16.226A2.788 2.788 0 0 1 3.788 1h14.423A2.792 2.792 0 0 1 21 3.789v10.817a2.792 2.792 0 0 1-2.789 2.788H6l-3.317 3.317a.985.985 0 0 1-.697.289zm8.028-10.937a.986.986 0 1 0 1.972 0V5.267a.986.986 0 1 0-1.972 0v4.796zM11 12.036a1.126 1.126 0 1 0 0 2.252 1.126 1.126 0 0 0 0-2.252z" fill="#2D6A91"/>
    <path d="M2.98 3.789h.25-.25zm-.007 13.843h-.25v.604l.427-.427-.177-.177zm1.922-1.921.176.177-.176-.177zm-3.287 5.213.096-.23-.096.23zM1 20.014H.75 1zm.008-16.226h.25-.25zM6 17.394v-.25h-.104l-.073.074.177.176zm-3.317 3.317-.177-.177.177.177zm1.106-17.99c-.586 0-1.059.481-1.059 1.068h.5c0-.315.254-.567.559-.567v-.5zM2.73 3.789l-.007 13.844h.5L3.23 3.79h-.5zm.42 14.02 1.921-1.92-.353-.354-1.922 1.921.354.354zm1.921-1.92a.736.736 0 0 1 .52-.216v-.5c-.327 0-.641.13-.873.362l.353.354zm.52-.216h12.62v-.5H5.591v.5zm12.62 0c.588 0 1.067-.478 1.067-1.067h-.5a.568.568 0 0 1-.567.567v.5zm1.067-1.067V3.79h-.5v10.816h.5zm0-10.816c0-.59-.479-1.067-1.067-1.067v.5c.313 0 .567.254.567.567h.5zm-1.067-1.067H3.79v.5H18.21v-.5zM1.986 20.75a.734.734 0 0 1-.282-.056l-.191.461c.153.064.313.095.473.095v-.5zm-.282-.057a.735.735 0 0 1-.454-.68h-.5c0 .5.3.952.763 1.143l.19-.463zm-.454-.68.008-16.225h-.5L.75 20.013h.5zm.008-16.225c0-1.4 1.137-2.538 2.53-2.538v-.5a3.038 3.038 0 0 0-3.03 3.038h.5zm2.53-2.538h14.423v-.5H3.79v.5zm14.423 0c1.4 0 2.539 1.14 2.539 2.539h.5A3.042 3.042 0 0 0 18.211.75v.5zm2.539 2.539v10.817h.5V3.789h-.5zm0 10.817c0 1.4-1.14 2.538-2.539 2.538v.5a3.042 3.042 0 0 0 3.039-3.038h-.5zm-2.539 2.538H6v.5h12.211v-.5zm-12.388.074-3.317 3.316.354.354 3.317-3.317-.354-.353zm-3.317 3.316a.735.735 0 0 1-.52.216v.5c.321 0 .637-.126.874-.362l-.354-.354zM11 10.8a.736.736 0 0 1-.736-.736h-.5c0 .683.553 1.236 1.236 1.236v-.5zm.736-.736c0 .407-.33.736-.736.736v.5c.683 0 1.236-.553 1.236-1.236h-.5zm0-4.796v4.796h.5V5.267h-.5zM11 4.53c.406 0 .736.33.736.736h.5c0-.682-.553-1.236-1.236-1.236v.5zm-.736.736c0-.406.33-.736.736-.736v-.5c-.683 0-1.236.554-1.236 1.236h.5zm0 4.796V5.267h-.5v4.796h.5zm-.14 3.1c0-.485.393-.877.876-.877v-.5c-.76 0-1.376.617-1.376 1.377h.5zm.876.875a.876.876 0 0 1-.876-.876h-.5c0 .76.616 1.376 1.376 1.376v-.5zm.875-.876a.875.875 0 0 1-.875.876v.5c.76 0 1.375-.616 1.375-1.376h-.5zM11 12.287c.483 0 .875.392.875.877h.5c0-.76-.615-1.377-1.375-1.377v.5z" fill="#F0F2F9"/>
</svg>
