<svg xmlns="http://www.w3.org/2000/svg" width="24" height="24" viewBox="0 0 24 24">
    <g fill="none" fill-rule="evenodd">
        <g fill="#437ca0">
            <path d="M66.948 74H49.053c-1.678 0-3.042 1.37-3.042 3.052L46 97.184c0 .33.198.628.503.754.101.042.208.062.313.062.212 0 .42-.083.577-.239l4.234-4.235h15.32c1.684 0 3.053-1.37 3.053-3.052V77.053C70 75.369 68.63 74 66.948 74M58 85.654c.45 0 .816-.365.816-.816v-5.95c0-.451-.366-.817-.816-.817-.45 0-.816.366-.816.816v5.951c0 .45.366.816.816.816m0 1.631c-.772 0-1.397.626-1.397 1.397 0 .772.625 1.398 1.397 1.398s1.397-.626 1.397-1.398c0-.771-.625-1.397-1.397-1.397" transform="translate(-46 -74)"/>
        </g>
    </g>
</svg>
