<svg width="24" height="24" viewBox="0 0 24 24" xmlns="http://www.w3.org/2000/svg">
    <path d="M12 2.022c-5.5 0-9.978 4.476-9.978 9.978S6.5 21.978 12 21.978c5.502 0 9.978-4.476 9.978-9.978S17.502 2.022 12 2.022M12 24C5.383 24 0 18.617 0 12S5.383 0 12 0s12 5.383 12 12-5.383 12-12 12M9.907 8.409v7.183L15.711 12 9.907 8.41zm-.232 9.38c-.28 0-.56-.065-.81-.186a1.716 1.716 0 0 1-.98-1.542V7.939c0-.655.375-1.245.98-1.54a1.864 1.864 0 0 1 1.775.084l6.563 4.062c.516.32.824.863.824 1.455 0 .591-.308 1.135-.823 1.454l-6.562 4.062c-.29.178-.624.272-.967.272z" fill="#1B6C92" fill-rule="evenodd"/>
</svg>
