<svg width="32" height="32" viewBox="0 0 32 32" fill="none" xmlns="http://www.w3.org/2000/svg">
    <path fill-rule="evenodd" clip-rule="evenodd" d="M16 2.375C8.488 2.375 2.375 8.487 2.375 16c0 3.643 1.417 7.065 3.988 9.637A13.538 13.538 0 0 0 16 29.625c7.513 0 13.625-6.112 13.625-13.625 0-3.642-1.416-7.065-3.988-9.637A13.536 13.536 0 0 0 16 2.375zM16 32a15.897 15.897 0 0 1-11.316-4.684A15.896 15.896 0 0 1 0 16C0 7.178 7.178 0 16 0c4.277 0 8.296 1.664 11.316 4.684A15.899 15.899 0 0 1 32 16c0 8.822-7.178 16-16 16zm-.092-9.426a1.188 1.188 0 0 1-1.186-1.143c-.194-5.094 1.623-6.547 2.95-7.608.792-.633 1.115-.923 1.174-1.761a2.689 2.689 0 0 0-.688-1.991 2.887 2.887 0 0 0-1.97-.956c-1.565-.107-2.936 1.037-3.043 2.554a1.187 1.187 0 1 1-2.37-.165c.198-2.823 2.7-4.956 5.578-4.758 1.39.096 2.66.715 3.577 1.743a5.045 5.045 0 0 1 1.285 3.739c-.134 1.91-1.202 2.764-2.06 3.45-1.136.908-2.208 1.766-2.06 5.663a1.188 1.188 0 0 1-1.141 1.232h-.046zM16 26.068c-.376 0-.741-.152-1.007-.418a1.307 1.307 0 0 1-.176-.219 1.491 1.491 0 0 1-.133-.242 1.402 1.402 0 0 1 .133-1.34 1.427 1.427 0 0 1 2.499.247c.038.086.061.176.08.267a1.403 1.403 0 0 1-.213 1.068c-.048.081-.11.152-.176.219a1.394 1.394 0 0 1-.727.39 1.402 1.402 0 0 1-.28.028z" fill="#009FC7"/>
</svg>
