<svg width="54" height="54" viewBox="0 0 54 54" xmlns="http://www.w3.org/2000/svg">
    <g fill="none" fill-rule="evenodd">
        <path d="m31.272 41.815 2.96 7c-4.836 1.649-10.248 1.65-15.084-.001l.176-.417.011-.03 2.773-6.552a15.75 15.75 0 0 0 9.164 0zm17.542-22.667a23.25 23.25 0 0 1 1.243 7.542c0 2.594-.417 5.124-1.242 7.541l-.427-.18c-.004-.002-.009-.003-.013-.006l-6.56-2.774a15.754 15.754 0 0 0 0-9.163zm-44.248 0 .416.175c.01.005.02.01.03.013l6.552 2.772a15.748 15.748 0 0 0 0 9.163l-6.999 2.96a23.273 23.273 0 0 1-1.242-7.542c0-2.594.417-5.123 1.243-7.542zM19.148 4.565c4.837-1.652 10.249-1.651 15.083-.001l-.18.426-.006.013-2.773 6.56a15.76 15.76 0 0 0-9.164 0z" fill="#FFF"/>
        <path d="m48.814 34.231-.426-.18-.012-.006-6.562-2.774a15.726 15.726 0 0 0 .001-9.163l6.999-2.96a23.25 23.25 0 0 1 1.242 7.541c0 2.595-.417 5.125-1.242 7.542M36.432 45.485l-2.101-4.967a15.919 15.919 0 0 0 6.187-6.187l4.968 2.1a21.372 21.372 0 0 1-9.054 9.054m-17.284 3.33.18-.427.006-.013 2.775-6.56a15.754 15.754 0 0 0 9.163 0l2.96 6.999c-4.838 1.651-10.25 1.65-15.084 0M7.894 36.431l4.967-2.1a15.917 15.917 0 0 0 6.188 6.187l-2.101 4.97a21.377 21.377 0 0 1-9.054-9.057m-4.57-9.742c0-2.593.416-5.123 1.242-7.541l.416.176.03.011 6.552 2.773a15.754 15.754 0 0 0 0 9.163l-6.999 2.96a23.265 23.265 0 0 1-1.242-7.542M16.95 7.895l2.1 4.966a15.913 15.913 0 0 0-6.188 6.188l-4.968-2.102a21.367 21.367 0 0 1 9.056-9.052m17.283-3.329-.176.416a.456.456 0 0 0-.013.03l-2.771 6.552a15.754 15.754 0 0 0-9.163 0l-2.96-6.999c4.833-1.65 10.245-1.651 15.083.001M26.69 39.174c-6.884 0-12.485-5.6-12.485-12.485 0-6.883 5.6-12.484 12.485-12.484 6.884 0 12.484 5.6 12.484 12.484 0 6.885-5.6 12.485-12.484 12.485m18.795-22.227-4.966 2.102a15.923 15.923 0 0 0-6.188-6.189l2.102-4.967a21.368 21.368 0 0 1 9.052 9.054m4.891-1.54a1.658 1.658 0 0 0-1.272.01l-.54.228a24.742 24.742 0 0 0-10.83-10.83l.228-.54a1.658 1.658 0 0 0-.882-2.177A26.537 26.537 0 0 0 26.69 0c-3.603 0-7.099.706-10.39 2.098a1.66 1.66 0 0 0-.882 2.177l.228.54a24.74 24.74 0 0 0-10.83 10.83l-.54-.228A1.66 1.66 0 0 0 2.1 16.3 26.523 26.523 0 0 0 0 26.69c0 3.602.706 7.098 2.099 10.389a1.662 1.662 0 0 0 2.177.882l.54-.227a24.75 24.75 0 0 0 10.83 10.83l-.228.54a1.66 1.66 0 0 0 .883 2.177 26.517 26.517 0 0 0 10.39 2.098c3.601 0 7.097-.706 10.389-2.098a1.66 1.66 0 0 0 .882-2.177l-.228-.54a24.742 24.742 0 0 0 10.83-10.83l.54.227a1.665 1.665 0 0 0 2.177-.882 26.516 26.516 0 0 0 2.098-10.39c0-3.602-.705-7.098-2.097-10.39a1.66 1.66 0 0 0-.906-.891" fill="#333940"/>
    </g>
</svg>
