<svg xmlns="http://www.w3.org/2000/svg" width="64" height="48" viewBox="0 0 64 48">
    <g fill="none" fill-rule="evenodd">
        <path fill="#ECECEC" d="M37.818 2.17l-2.902 1.767 22.902 13.846v-3.438zM41.818 38h8V26h-8zM23.25 32.178c0 5.935-6.03 16.01-20.205 8.34.22.344.466.689.786 1.03 2.121 2.267 5.818 3.415 10.987 3.415 5.17 0 8.865-1.148 10.987-3.415 1.963-2.097 1.834-4.41 1.827-4.508-.002-10.522-6.95-15.58-8.335-16.481h-8.96c-.374.244-1.149.794-2.093 1.674H20.23c1.338 1.236 3.02 3.968 3.02 9.945M17.976 18.559h1.17c5.783-5.451 5.765-7.955 5.679-8.46a.464.464 0 0 0-.082-.012c-.537-.043-1.391.317-2.323.846-.81 2.149-2.31 5.478-4.444 7.626"/>
        <path fill="#004262" d="M2.006 36.968c0-7.624 3.697-12.368 6.238-14.735.945-.88 1.72-1.431 2.094-1.674h8.96c1.383.902 8.333 5.959 8.335 16.48.007.099.135 2.412-1.828 4.509-2.121 2.267-5.818 3.415-10.986 3.415-5.17 0-8.866-1.148-10.987-3.415a6.8 6.8 0 0 1-.786-1.03c-1.123-1.761-1.048-3.408-1.04-3.55m2.806-26.87a.451.451 0 0 1 .082-.011c1.229-.1 4.219 1.938 5.945 3.415a.998.998 0 0 0 1.608-.471c1.044-3.46 2.355-3.608 2.375-3.61.013.002 1.324.15 2.368 3.61a1 1 0 0 0 1.608.471c.987-.845 2.376-1.863 3.622-2.57.932-.528 1.787-.888 2.323-.845a.464.464 0 0 1 .082.012c.086.505.104 3.009-5.678 8.46h-8.658c-5.783-5.452-5.764-7.955-5.677-8.46m17.71 10.46h.58a1 1 0 0 0 0-2h-1.11c6.222-6.411 4.843-9.154 4.427-9.72-.371-.438-.895-.696-1.517-.746-1.87-.16-4.677 1.746-6.285 2.983-1.42-3.428-3.314-3.653-3.786-3.653h-.025c-.472 0-2.366.225-3.786 3.653-1.608-1.237-4.421-3.142-6.285-2.983a2.19 2.19 0 0 0-1.562.803c-.375.513-1.751 3.252 4.47 9.663h-1.11a1 1 0 1 0 0 2h.579c-2.836 2.56-7.106 7.82-7.103 16.33-.01.13-.222 3.23 2.322 5.983 2.51 2.715 6.71 4.09 12.488 4.09 5.776 0 9.977-1.375 12.487-4.09 2.544-2.753 2.332-5.852 2.325-5.904 0-8.566-4.273-13.844-7.11-16.41"/>
        <path fill="#004262" d="M13.253 28.697c.076-.203.183-.383.32-.539a1.35 1.35 0 0 1 .429-.332c.106-.05.219-.062.332-.077v3.268c-.113-.015-.226-.026-.332-.077a1.343 1.343 0 0 1-.43-.333 1.716 1.716 0 0 1-.32-.538 1.946 1.946 0 0 1-.121-.685c0-.24.04-.47.122-.687m3.412 4.466c.158.076.303.188.43.332.136.154.243.336.319.537.08.22.122.45.122.687 0 .24-.041.47-.121.686a1.726 1.726 0 0 1-.32.538 1.343 1.343 0 0 1-.43.334c-.106.051-.22.061-.331.077v-3.268c.11.015.225.026.33.077m-4.594-1.235c.305.346.662.621 1.063.813.38.185.786.274 1.2.294v3.32c-.111-.016-.225-.027-.33-.078a1.336 1.336 0 0 1-.431-.334 1.7 1.7 0 0 1-.32-.537 1 1 0 1 0-1.872.7 3.7 3.7 0 0 0 .69 1.158c.304.346.662.621 1.064.815.38.183.785.273 1.2.293v.084a1 1 0 1 0 2 0v-.084a3.08 3.08 0 0 0 1.2-.294c.4-.193.758-.467 1.063-.814.296-.337.528-.725.69-1.16a3.96 3.96 0 0 0 .249-1.385c0-.476-.084-.942-.25-1.386a3.718 3.718 0 0 0-.69-1.159 3.353 3.353 0 0 0-1.062-.812 3.067 3.067 0 0 0-1.2-.294V27.75c.11.015.224.026.33.077.159.076.303.188.43.334.137.153.244.335.32.538a1 1 0 1 0 1.872-.702 3.713 3.713 0 0 0-.69-1.157 3.34 3.34 0 0 0-1.063-.815 3.087 3.087 0 0 0-1.2-.293v-.084a1 1 0 0 0-2 0v.084a3.08 3.08 0 0 0-1.2.294c-.402.194-.76.468-1.061.813a3.69 3.69 0 0 0-.692 1.16 3.942 3.942 0 0 0-.25 1.386c0 .478.085.945.25 1.385.16.433.394.823.69 1.16M41.818 38h8V26h-8v12zm21.227-22.815L38.338.145a.998.998 0 0 0-1.04 0l-9.182 5.59a1 1 0 1 0 1.04 1.709l5.76-3.507 2.902-1.766 20 12.174V38h-6V25a1 1 0 0 0-1-1h-10a1 1 0 0 0-1 1v13h-7a1 1 0 0 0 0 2h26a1 1 0 0 0 1-1V15.562l2.187 1.33a1 1 0 0 0 1.04-1.708z"/>
        <path fill="#004262" d="M34.673 32a1 1 0 0 0 1-1v-6a1 1 0 0 0-1-1h-4.686a1 1 0 1 0 0 2h3.686v4H32.33a1 1 0 1 0 0 2h2.343zM37.818 12c1.103 0 2 .896 2 2 0 1.103-.897 2-2 2s-2-.897-2-2c0-1.104.897-2 2-2m0 6c2.206 0 4-1.795 4-4 0-2.206-1.794-4-4-4s-4 1.794-4 4c0 2.205 1.794 4 4 4M50.818 44a1 1 0 0 0 0-2h-10a1 1 0 1 0 0 2h10zM52.818 46h-14a1 1 0 1 0 0 2h14a1 1 0 0 0 0-2"/>
    </g>
</svg>
