<svg xmlns="http://www.w3.org/2000/svg" width="52" height="57" viewBox="0 0 52 57">
    <g fill="none" fill-rule="evenodd">
        <path fill="#ECECEC" d="M29.491 13.896h10.214V2.986A.986.986 0 0 0 38.719 2H28.43c.566.594 1.061 1.514 1.061 2.925v8.971zM15.896 22.837a.97.97 0 0 1-.126.46v4.86H2v1.621h17.852V15.896H15.77v6.482a.97.97 0 0 1 .126.46M35.749 22.837c0 .168-.053.32-.126.46v4.86h-13.77v1.621h17.852V15.896h-4.082v6.482a.982.982 0 0 1 .126.46M35.749 36.734c0 .039-.018.07-.022.109a10.66 10.66 0 0 1 3.978-1.354v-3.711h-4.082v4.497a.982.982 0 0 1 .126.459M19.852 45.66V31.778H15.77v2.515c.15.288.15.623 0 .911v7.03a.98.98 0 0 1 0 .911v.894H2v.636c0 .543.442.985.985.985h16.867z"/>
        <path fill="#004262" d="M15.77 22.378a.99.99 0 0 0-.874-.541h-2.97v-2.97a1 1 0 0 0-2 0v2.97h-2.97a1 1 0 1 0 0 2h2.97v2.971a1 1 0 0 0 2 0v-2.971h2.97a.989.989 0 0 0 .874-.54.97.97 0 0 0 .126-.46.97.97 0 0 0-.126-.459M14.19 34.041l-3.264 3.264-3.263-3.264a.999.999 0 1 0-1.414 1.415l3.263 3.262-3.263 3.264a.999.999 0 1 0 1.414 1.415l3.263-3.264 3.263 3.264a.997.997 0 0 0 1.414 0 .98.98 0 0 0 .167-.252.98.98 0 0 0 0-.912.98.98 0 0 0-.167-.25l-3.263-3.264 3.263-3.264a.98.98 0 0 0 .167-.25.98.98 0 0 0 0-.913.98.98 0 0 0-.167-.25.999.999 0 0 0-1.414 0M35.623 22.378a.992.992 0 0 0-.874-.541h-7.94a1 1 0 1 0 0 2h7.94a.991.991 0 0 0 .874-.54.986.986 0 0 0 .126-.46.982.982 0 0 0-.126-.459M38.976 42.726c.078-.208.187-.393.326-.55a1.41 1.41 0 0 1 .443-.343c.114-.055.234-.083.356-.098v3.384a1.141 1.141 0 0 1-.357-.1 1.374 1.374 0 0 1-.442-.342 1.714 1.714 0 0 1-.325-.549 1.995 1.995 0 0 1-.125-.7c0-.244.042-.48.124-.702m3.481 4.522c.164.08.312.194.442.341.14.158.25.344.326.551.083.222.125.458.125.702 0 .243-.042.48-.124.7a1.786 1.786 0 0 1-.326.551 1.402 1.402 0 0 1-.444.342 1.14 1.14 0 0 1-.355.1v-3.386c.122.015.242.044.356.1m-5.354-2.42c.164.437.4.832.698 1.17.308.351.67.627 1.072.822.39.188.803.28 1.228.298v3.414a1.125 1.125 0 0 1-.356-.098 1.41 1.41 0 0 1-.443-.342 1.767 1.767 0 0 1-.326-.55 1 1 0 1 0-1.873.701c.164.437.398.831.698 1.17.308.35.67.626 1.072.822.39.187.803.28 1.228.298v.098a1 1 0 1 0 2 0v-.098a3.11 3.11 0 0 0 1.227-.298 3.405 3.405 0 0 0 1.073-.822c.3-.34.535-.735.698-1.172.167-.447.251-.918.251-1.4 0-.483-.084-.954-.25-1.402a3.753 3.753 0 0 0-.699-1.172 3.41 3.41 0 0 0-1.074-.82 3.1 3.1 0 0 0-1.226-.299v-3.414c.122.015.242.043.357.1.163.077.311.192.441.34.14.158.25.343.327.551a1 1 0 1 0 1.873-.7 3.767 3.767 0 0 0-.698-1.172 3.377 3.377 0 0 0-1.073-.82 3.092 3.092 0 0 0-1.227-.299v-.098a1 1 0 1 0-2 0v.098c-.425.018-.839.11-1.226.297a3.402 3.402 0 0 0-1.074.821c-.3.341-.534.735-.698 1.173a3.987 3.987 0 0 0-.25 1.401c0 .483.083.954.25 1.402"/>
        <path fill="#ECECEC" d="M46.47 46.134c0 3.896-2.331 7.237-5.671 8.731.1.004.2.016.302.016 4.824 0 8.747-3.924 8.747-8.747s-3.923-8.747-8.747-8.747c-.103 0-.203.012-.306.016 3.343 1.492 5.676 4.834 5.676 8.731"/>
        <path fill="#004262" d="M2.985 2H38.72c.543 0 .986.442.986.985v10.911H2.001V2.985C2 2.442 2.441 2 2.984 2zm29.37 44.134c0-4.719 3.76-8.568 8.44-8.731.103-.004.203-.015.306-.015 4.823 0 8.747 3.924 8.747 8.746 0 4.823-3.924 8.747-8.747 8.747-.102 0-.2-.012-.302-.016-4.682-.161-8.444-4.011-8.444-8.731zm-10.503-.474V31.778h17.853v3.711a10.665 10.665 0 0 0-3.979 1.354c.005-.038.023-.071.023-.109a.986.986 0 0 0-.126-.46.991.991 0 0 0-.874-.54h-7.94a1 1 0 0 0 0 2h7.61a10.788 10.788 0 0 0-1.908 1.971h-5.703a1 1 0 1 0 0 2h4.513a10.623 10.623 0 0 0-.758 2.334c-.104.527-.16 1.07-.184 1.621h-8.527zM2 44.675V31.778h17.852V45.66H2.985A.986.986 0 0 1 2 44.675zm17.852-28.779v13.882H2V15.896h17.852zm15.771 0h4.082v13.882H21.852V15.896h13.771zm6.082 19.522V2.985A2.99 2.99 0 0 0 38.72 0H2.985A2.988 2.988 0 0 0 0 2.985v41.69a2.988 2.988 0 0 0 2.985 2.985h27.491c.745 5.204 5.22 9.221 10.625 9.221 5.926 0 10.747-4.821 10.747-10.747 0-5.722-4.499-10.4-10.143-10.716z"/>
    </g>
</svg>
