<svg xmlns="http://www.w3.org/2000/svg" xmlns:xlink="http://www.w3.org/1999/xlink" width="51" height="52" viewBox="0 0 51 52">
    <defs>
        <path id="a" d="M0 51.06h50.974V0H0z"/>
    </defs>
    <g fill="none" fill-rule="evenodd">
        <path fill="#ECECEC" d="M29.374 16.598L20.608 8.63l-8.765 7.97zM26.27 31.047h2.626v-2.554a19.573 19.573 0 0 1-2.627 2.554"/>
        <path fill="#ECECEC" d="M30.897 25.676v6.37a1 1 0 0 1-1 1h-6.634a19.514 19.514 0 0 1-9.265 2.329c-1.993 0-3.91-.31-5.718-.866 3.287 2.919 7.598 4.709 12.329 4.709 10.26 0 18.608-8.35 18.608-18.61 0-6.795-3.673-12.735-9.128-15.983 2.203 3.165 3.517 6.992 3.517 11.14 0 3.62-.998 7-2.71 9.91"/>
        <mask id="b" fill="#fff">
            <use xlink:href="#a"/>
        </mask>
        <path fill="#ECECEC" d="M18.513 31.047h4.191V24.79h-4.191z" mask="url(#b)"/>
        <path fill="#004262" d="M20.609 2c3.465 0 6.7.97 9.48 2.625 5.455 3.248 9.128 9.188 9.128 15.983 0 10.26-8.347 18.61-18.608 18.61-4.731 0-9.042-1.79-12.33-4.71-3.841-3.41-6.278-8.37-6.278-13.9C2 10.348 10.348 2 20.609 2m29.633 44.792L39.814 36.365a2.498 2.498 0 0 0-2.68-.558l-1.327-1.328c3.348-3.666 5.41-8.526 5.41-13.871C41.217 9.245 31.972 0 20.609 0 9.246 0 0 9.245 0 20.608c0 11.365 9.245 20.61 20.608 20.61 5.3 0 10.125-2.03 13.78-5.33l1.332 1.333a2.497 2.497 0 0 0 .558 2.679l10.428 10.427a2.494 2.494 0 0 0 3.535 0 2.5 2.5 0 0 0 0-3.535" mask="url(#b)"/>
        <path fill="#004262" d="M18.513 31.047h4.191V24.79h-4.191v6.256zm-6.192-12.448h16.576v12.448h-4.193V23.79a1 1 0 0 0-1-1h-6.191a1 1 0 0 0-1 1v7.256h-4.192V18.599zm17.053-2H11.843l8.766-7.97 8.765 7.97zm.523 16.448a1 1 0 0 0 1-1V18.599h1.064a1 1 0 1 0 .673-1.739L21.281 6.539a1.001 1.001 0 0 0-1.345 0L8.583 16.859a1 1 0 0 0 .673 1.74h1.065v13.448a1 1 0 0 0 1 1h18.576z" mask="url(#b)"/>
    </g>
</svg>
