<svg xmlns="http://www.w3.org/2000/svg" width="23" height="37" viewBox="0 0 23 37">
    <path fill="#0095C7" fill-rule="evenodd" d="M7.41 27.82h8.204c.202-3.931 1.466-7.792 3.686-11.23a9.284 9.284 0 0 0 1.482-5.045 9.347 9.347 0 0 0-3.116-6.966c-2.007-1.793-4.6-2.602-7.296-2.287-4.035.475-7.416 3.735-8.038 7.752-.36 2.327.137 4.67 1.402 6.6C6.125 20.293 7.36 24.05 7.41 27.819m9.285 2.226H6.303a1.111 1.111 0 0 1-1.11-1.113v-.88c0-3.403-1.113-6.83-3.312-10.185C.314 15.475-.304 12.576.14 9.7.914 4.716 5.107.671 10.112.081a11.525 11.525 0 0 1 9.028 2.834 11.577 11.577 0 0 1 3.86 8.63c0 2.228-.636 4.392-1.84 6.255-2.195 3.402-3.357 7.25-3.357 11.132a1.11 1.11 0 0 1-1.108 1.113m-1.732 4.729c.612 0 1.11.498 1.11 1.113 0 .614-.498 1.113-1.11 1.113H8.035a1.111 1.111 0 0 1-1.109-1.113c0-.615.497-1.113 1.109-1.113h6.928zm1.732-3.478c.612 0 1.109.499 1.109 1.113 0 .615-.497 1.113-1.109 1.113H6.303a1.111 1.111 0 0 1-1.109-1.113c0-.614.497-1.113 1.109-1.113h10.392zM5.89 7.314c.54.29.744.964.456 1.507a5.527 5.527 0 0 0-.59 1.758c-.07.451-.094.9-.067 1.334a5.718 5.718 0 0 0 .524 2.074c.119.256.258.507.414.745a1.116 1.116 0 0 1-.317 1.542 1.106 1.106 0 0 1-1.536-.319A7.87 7.87 0 0 1 3.73 13.62a7.926 7.926 0 0 1-.254-1.573 8.436 8.436 0 0 1 .09-1.811 7.77 7.77 0 0 1 .824-2.465 1.107 1.107 0 0 1 1.501-.457zm3.615-2.53c.267.553.037 1.22-.514 1.487a5.948 5.948 0 0 0-1.041.65 1.106 1.106 0 0 1-1.555-.2 1.116 1.116 0 0 1 .198-1.562 8.155 8.155 0 0 1 1.43-.891 1.107 1.107 0 0 1 1.482.516z"/>
</svg>
