<svg xmlns="http://www.w3.org/2000/svg" width="36" height="37" viewBox="0 0 36 37">
    <path fill="#FFF" fill-rule="evenodd" d="M2.772 16.054l3.549-9.291h23.358l3.549 9.29H2.772zm28.026 18.718h-3.597v-8.964c0-.616-.508-1.114-1.134-1.114H20.2c-.626 0-1.134.498-1.134 1.114v8.964H5.202v-16.49h25.596v16.49zm-9.463 0h3.597v-7.851h-3.597v7.851zM11.069 4.535h2.13V2.228h-2.13v2.307zm24.858 12.242l-4.4-11.52a1.133 1.133 0 0 0-1.061-.722H15.468V1.114C15.468.499 14.959 0 14.333 0H9.934C9.308 0 8.8.499 8.8 1.114v3.42H5.534c-.472 0-.895.289-1.062.724l-4.4 11.519c-.13.342-.081.724.13 1.025.212.3.56.48.932.48h1.8v17.604c0 .615.508 1.114 1.134 1.114h27.865c.626 0 1.134-.499 1.134-1.114V18.282h1.798c.373 0 .72-.18.933-.48.212-.3.26-.683.13-1.025zM9.602 29.013h5.063v-4.971H9.602v4.971zm-1.135 2.228h7.334c.626 0 1.134-.5 1.134-1.114v-7.2c0-.614-.508-1.113-1.134-1.113H8.467c-.626 0-1.134.499-1.134 1.114v7.199c0 .615.508 1.114 1.134 1.114z"/>
</svg>
