<?xml version="1.0" encoding="UTF-8"?>
<svg width="21px" height="23px" viewBox="0 0 21 23" version="1.1" xmlns="http://www.w3.org/2000/svg" xmlns:xlink="http://www.w3.org/1999/xlink">
    <!-- Generator: Sketch 58 (84663) - https://sketch.com -->
    <title>ic_search_glass</title>
    <desc>Created with Sketch.</desc>
    <g id="Page-1" stroke="none" stroke-width="1" fill="none" fill-rule="evenodd">
        <g id="XL---Blog-Home" transform="translate(-904.000000, -136.000000)" fill="#848484">
            <g id="Blog-Header">
                <g id="Subheader">
                    <g id="Search" transform="translate(887.000000, 122.000000)">
                        <path d="M19.0913841,23.3866667 C19.0913841,19.5637333 22.1977242,16.4533333 26.0156675,16.4533333 C29.8336109,16.4533333 32.9399509,19.5637333 32.9399509,23.3866667 C32.9399509,25.2418133 32.2206777,26.9834667 30.9142252,28.2916267 C29.6069205,29.5997867 27.8675405,30.32 26.0156675,30.32 C22.1977242,30.32 19.0913841,27.2096 19.0913841,23.3866667 M37.6220449,34.80512 L32.0647215,29.2405333 C33.5893422,27.6635733 34.4313351,25.59168 34.4313351,23.3866667 C34.4313351,18.7402667 30.6560027,14.96 26.0156675,14.96 C21.3753324,14.96 17.6,18.7402667 17.6,23.3866667 C17.6,28.0330667 21.3753324,31.8133333 26.0156675,31.8133333 C27.8087374,31.8133333 29.5097675,31.24928 30.932974,30.2193067 L36.5669971,35.8615467 C36.7127267,36.0074667 36.9036238,36.08 37.094521,36.08 C37.2854182,36.08 37.4763153,36.0074667 37.6220449,35.8615467 C37.9126517,35.5697067 37.9126517,35.09696 37.6220449,34.80512" id="ic_search_glass"></path>
                    </g>
                </g>
            </g>
        </g>
    </g>
</svg>