<svg xmlns="http://www.w3.org/2000/svg" width="38" height="36" viewBox="0 0 38 36">
    <path fill="#FFF" fill-rule="evenodd" d="M24.16 2.274l3.47 6.26H12.59l11.57-6.26zm6.455 31.497H4.136a1.871 1.871 0 0 1-1.88-1.858V12.621c0-1.025.844-1.858 1.88-1.858h26.479c1.037 0 1.88.833 1.88 1.858v4.317h-4.032c-2.975 0-5.394 2.39-5.394 5.329 0 2.939 2.42 5.33 5.394 5.33h4.033v4.316c0 1.025-.844 1.858-1.881 1.858zm5.129-8.404h-7.281c-1.731 0-3.138-1.39-3.138-3.1 0-1.71 1.407-3.1 3.138-3.1h7.28v6.2zm1.128-8.43h-2.12v-4.316c0-2.254-1.856-4.087-4.137-4.087H30.2l-4.12-7.438a2.11 2.11 0 0 0-1.272-1.01 2.133 2.133 0 0 0-1.622.173L7.893 8.534H4.136C1.856 8.534 0 10.367 0 12.621v19.292C0 34.166 1.856 36 4.136 36h26.479c2.28 0 4.137-1.834 4.137-4.087v-4.317h2.12c.623 0 1.128-.499 1.128-1.114v-8.43c0-.615-.505-1.114-1.128-1.114zM14.657 23.58c.035.013.072.009.107.024.136.066.26.16.373.288.119.132.215.294.283.472.072.192.11.397.11.61 0 .212-.038.417-.11.609-.068.18-.162.338-.284.474-.112.124-.236.22-.373.285-.034.017-.071.013-.106.025v-2.787zm-2.738-2.677a1.522 1.522 0 0 1-.282-.473 1.703 1.703 0 0 1-.109-.61c0-.213.036-.418.109-.609.067-.176.164-.34.284-.474.11-.122.238-.22.374-.286.033-.015.072-.011.106-.023v2.787c-.035-.012-.074-.01-.108-.025a1.207 1.207 0 0 1-.374-.287zm1.61-5.803c.604 0 1.088.472 1.117 1.062.379.033.749.116 1.099.283.407.193.773.47 1.086.821.3.336.536.729.702 1.165a1.11 1.11 0 0 1-.661 1.433 1.13 1.13 0 0 1-1.452-.653 1.521 1.521 0 0 0-.283-.471 1.167 1.167 0 0 0-.373-.287c-.035-.016-.072-.012-.107-.025v2.888c.374.034.74.116 1.086.28.408.193.774.47 1.087.821.3.337.537.73.703 1.166.167.443.253.911.253 1.39 0 .481-.086.948-.253 1.392a3.705 3.705 0 0 1-.705 1.166c-.311.35-.677.626-1.086.82a3.17 3.17 0 0 1-1.096.282 1.116 1.116 0 0 1-1.117 1.062 1.116 1.116 0 0 1-1.117-1.062 3.186 3.186 0 0 1-1.098-.283 3.423 3.423 0 0 1-1.087-.821 3.699 3.699 0 0 1-.703-1.165 1.11 1.11 0 0 1 .662-1.435 1.13 1.13 0 0 1 1.45.654c.069.18.163.338.283.472.112.124.24.224.374.287.034.017.073.013.108.025v-2.888a3.19 3.19 0 0 1-1.087-.28 3.423 3.423 0 0 1-1.087-.822 3.714 3.714 0 0 1-.703-1.165 3.904 3.904 0 0 1-.252-1.391c0-.48.084-.948.252-1.39.165-.436.402-.829.705-1.167a3.423 3.423 0 0 1 1.085-.82 3.169 3.169 0 0 1 1.098-.282c.029-.59.512-1.062 1.117-1.062zm15.144 5.58c.845 0 1.527.677 1.527 1.51s-.682 1.509-1.527 1.509a1.517 1.517 0 0 1-1.526-1.51c0-.832.683-1.508 1.526-1.508z"/>
</svg>
