<?xml version="1.0" encoding="utf-8"?>
<!-- Generator: Adobe Illustrator 23.0.4, SVG Export Plug-In . SVG Version: 6.00 Build 0)  -->
<svg version="1.1" id="Layer_1" xmlns="http://www.w3.org/2000/svg" xmlns:xlink="http://www.w3.org/1999/xlink" x="0px" y="0px"
	 viewBox="0 0 1239.4 248.8" style="enable-background:new 0 0 1239.4 248.8;" xml:space="preserve">
<style type="text/css">
	.st0{opacity:8.000000e-02;}
	.st1{fill-rule:evenodd;clip-rule:evenodd;fill:#FFFFFF;}
</style>
<g class="st0">
	<path class="st1" d="M1163.8,98.2l-5,4.6l-16.4-11.6l39.7-20.6l6.6,4.6C1188.7,75.3,1163.8,98.2,1163.8,98.2z M1168.6,111.4
		c0.1,0,5,3.8,10.3,8.4l7.6,8.6c0,0,0,0,0,0l0,0c3,3.2,4.2,5.2,4.6,6.5c-1.3,0-3.6-0.5-7.7-2.2c0,0,0,0,0,0c0,0,0,0,0,0l-10.8-4.1
		c-6.2-3.4-11.4-6.8-11.4-6.8l-10.2-7.2h0l-17.7-12.5l-16.5-11.6c-5.1-3.6-5.4-9.9-5.4-11.6c1.6-0.6,7.7-2.4,12.8,1.2l16.5,11.6l0,0
		l17.8,12.6c0,0,0,0,0,0l0,0L1168.6,111.4L1168.6,111.4z M1194.8,113.2l3.4,2.4l-11,11.4l-6.5-7.4L1194.8,113.2L1194.8,113.2z
		 M1175.2,148.2l-3.4-2.4l1.2-15.5l9.3,3.5L1175.2,148.2z M1147.3,121.7l-13.2,31.2l-6.6-4.6l6-44.3l16.3,11.5
		C1149.8,115.5,1147.3,121.7,1147.3,121.7z M1190.5,75.1c0-0.2-0.1-0.4-0.3-0.5l-7.6-5.4c-0.2-0.2-0.5-0.2-0.7-0.1l-40.7,21.1
		L1125,78.9c-6.6-4.6-14.3-1.3-14.6-1.2c-0.2,0.1-0.4,0.3-0.4,0.6c0,0.4-0.5,8.7,6,13.3l16.2,11.4l-6.2,45.5c0,0.3,0.1,0.5,0.3,0.7
		l7.6,5.4c0.2,0.1,0.4,0.2,0.6,0.1c0.2-0.1,0.4-0.2,0.5-0.4l13.6-32l2.4-5.9l9.5,6.7c0.1,0,5.1,3.3,11.2,6.7l-1.3,16.4
		c0,0.2,0.1,0.5,0.3,0.6l4.4,3.1c0.2,0.1,0.4,0.2,0.6,0.1c0.2-0.1,0.4-0.2,0.5-0.4l7.5-15.2c4,1.6,6.8,2.3,8.6,2
		c0.4-0.1,0.7-0.4,0.6-0.8c0,0,0-0.1,0-0.1c-0.4-1.8-1.9-4.2-4.7-7.3l11.7-12.1c0.3-0.3,0.3-0.7,0-1c0,0-0.1-0.1-0.1-0.1l-4.4-3.1
		c-0.2-0.1-0.5-0.2-0.7-0.1l-15,6.7c-5.2-4.6-10-8.2-10.1-8.3l-9.5-6.6l30.3-28C1190.5,75.5,1190.5,75.3,1190.5,75.1L1190.5,75.1z"
		/>
	<path class="st1" d="M1116.3,88c0-0.1-0.1-0.1-0.1-0.2c-0.7-0.7-0.8-1.8-0.5-2.7c0.7-1.7,1.8-3.1,3.1-4.4c0.7-0.7,1.8-0.9,2.7-0.5
		l0.2,0.1C1118.8,82.1,1116.9,84.8,1116.3,88 M1122,79c-1.4-0.6-3.1-0.3-4.2,0.7c-1.5,1.4-2.6,3-3.4,4.8c-0.6,1.4-0.3,3,0.7,4.2
		c0.4,0.4,0.8,0.8,1.2,1.2c0.3,0.2,0.7,0.2,1-0.1c0.1-0.1,0.1-0.2,0.2-0.4c0.3-3.7,2.5-6.9,5.9-8.4c0.3,0.2,0.8,0.1,1-0.2
		c0.2-0.3,0.1-0.8-0.2-1c-0.2-0.1-0.4-0.1-0.6,0C1123,79.5,1122.5,79.3,1122,79 M1221.4,67.3c-3.2-4.9-18.2-28-18.4-36.7
		c-0.2-9.6,7.4-17.7,17.1-17.9c9.6-0.2,17.7,7.4,17.9,17.1C1238.2,38.5,1224.4,62.3,1221.4,67.3 M1220,11.3
		c-10.4,0.3-18.7,8.9-18.4,19.3c0.2,10.1,18.4,37.2,19.2,38.4l0.6,0.9l0.6-0.9c0.7-1.2,17.6-29.1,17.3-39.3
		C1239.1,19.3,1230.4,11.1,1220,11.3"/>
	<path class="st1" d="M1220.8,41.4c-6.2,0.2-11.3-4.7-11.5-10.9c-0.2-6.2,4.7-11.3,10.9-11.5c6.2-0.1,11.3,4.7,11.5,10.9
		C1231.8,36.1,1226.9,41.2,1220.8,41.4 M1220.2,17.6c-6.9,0.2-12.4,5.9-12.3,12.9c0.2,6.9,5.9,12.4,12.9,12.3
		c6.9-0.2,12.4-6,12.3-12.9C1232.9,22.9,1227.1,17.4,1220.2,17.6"/>
	<path class="st1" d="M1201.2,189.4c-0.6,0.4-0.7,1.2-0.3,1.7c0.4,0.6,1.2,0.7,1.7,0.3l0,0c1.4-1,2.7-2.1,3.9-3.3
		c0.5-0.5,0.5-1.3,0-1.8c-0.5-0.5-1.3-0.5-1.8,0C1203.7,187.5,1202.5,188.5,1201.2,189.4 M1205.8,142.5c-0.5-0.5-1.3-0.4-1.8,0.1
		c-0.4,0.5-0.4,1.3,0.1,1.7c1.2,1.1,2.2,2.2,3.2,3.5c0.4,0.5,1.2,0.6,1.7,0.2c0,0,0,0,0,0c0.5-0.4,0.6-1.2,0.2-1.7
		C1208.2,144.9,1207,143.7,1205.8,142.5 M1210.4,150c-0.6,0.3-0.8,1.1-0.5,1.7c0.8,1.4,1.4,2.8,2,4.3c0.2,0.6,1,1,1.6,0.7
		c0.6-0.2,1-1,0.7-1.6c-0.6-1.6-1.3-3.2-2.1-4.6C1211.7,149.9,1211,149.7,1210.4,150 M1208.2,184.6c0.6,0.4,1.3,0.3,1.7-0.3
		c0,0,0,0,0,0c1-1.4,1.9-2.8,2.7-4.4c0.3-0.6,0.1-1.4-0.5-1.7c0,0,0,0,0,0c-0.6-0.3-1.4-0.1-1.7,0.5c0,0,0,0,0,0
		c-0.7,1.4-1.5,2.7-2.5,4C1207.5,183.4,1207.6,184.2,1208.2,184.6 M1195.6,137.5c-0.3,0.6,0,1.4,0.6,1.6c1.4,0.6,2.8,1.4,4.1,2.2
		c0.6,0.4,1.4,0.2,1.7-0.4c0.3-0.6,0.2-1.3-0.3-1.7c-1.4-0.9-2.9-1.8-4.5-2.5C1196.6,136.6,1195.9,136.9,1195.6,137.5 M1191.4,198.8
		c-0.6-0.3-1.4-0.1-1.7,0.5l-0.2,0.4c-0.7,1.5-1.1,3.1-1.2,4.9c0,0.7,0.5,1.3,1.2,1.3h0c0.7,0,1.2-0.5,1.2-1.2
		c0-1.4,0.4-2.7,0.9-3.9l0.1-0.3C1192.2,199.8,1192,199.1,1191.4,198.8 M1197.2,192.1c-1.3,0.8-2.8,1.9-4.1,3
		c-0.5,0.5-0.6,1.2-0.1,1.8s1.2,0.6,1.8,0.1c1.2-1.1,2.6-2,3.8-2.8c0.6-0.4,0.7-1.1,0.4-1.7C1198.5,191.9,1197.7,191.7,1197.2,192.1
		L1197.2,192.1 M1213,176c0.7,0.2,1.4-0.1,1.6-0.8c0,0,0,0,0,0c0.5-1.6,0.9-3.3,1.2-5c0.1-0.7-0.4-1.3-1-1.4s-1.3,0.4-1.4,1l0,0
		c-0.2,1.6-0.6,3.1-1.1,4.6C1211.9,175.1,1212.3,175.8,1213,176C1213,176,1213,176,1213,176 M1213.6,165.2c0,0.7,0.6,1.2,1.2,1.2h0
		c0.7,0,1.2-0.6,1.2-1.3c0-1.7-0.2-3.4-0.5-5.1c-0.1-0.7-0.8-1.1-1.5-1s-1.1,0.8-1,1.5c0.1,0.7,0.2,1.3,0.3,2
		C1213.5,163.4,1213.6,164.3,1213.6,165.2"/>
	<path class="st1" d="M1106.5,50.2c-0.1,0.2-0.1,0.3,0,0.5c-0.1,0.1-0.2,0.3-0.3,0.4l0,0l0-0.2c-0.1-0.3-0.3-0.5-0.5-0.5
		c-0.8-0.2-1.5-0.4-1.5-0.4l-0.9-0.3c-0.3-0.1-0.6,0-0.8,0.2l-0.6,0.7c-0.1,0.1-0.1,0.2-0.2,0.4l-0.3,2.9l-0.7-4.6
		c0-0.3-0.2-0.5-0.5-0.5l-2.3-0.8c-0.2-0.1-0.3-0.2-0.4-0.3c0.2-0.1,0.4-0.1,0.5,0l2.3,0.8c0.2,0.1,0.5,0,0.7-0.2l3.4-3.2l-1.5,2.5
		c-0.1,0.1-0.1,0.3-0.1,0.4l0,0.9c0,0.3,0.2,0.5,0.5,0.6l0.9,0.3c0,0,0.7,0.3,1.5,0.6c0.2,0.1,0.5,0.1,0.7-0.1L1106.5,50.2
		L1106.5,50.2L1106.5,50.2z M1107,47.9l-1.2,1.1c-0.6-0.3-1.1-0.5-1.2-0.5l-0.5-0.2l0-0.2l2.1-3.5c0.2-0.3,0.1-0.8-0.2-1
		c0,0-0.1,0-0.1-0.1l-1.1-0.4c-0.2-0.1-0.5,0-0.7,0.2l-3.8,3.6l-1.9-0.7c-1-0.3-1.9,0.1-2.3,0.5c-0.2,0.2-0.3,0.4-0.2,0.7
		c0.1,0.5,0.6,1.5,1.6,1.8l1.9,0.7l0.8,5.2c0,0.3,0.2,0.5,0.5,0.6l1.1,0.4c0.4,0.1,0.8-0.1,0.9-0.4c0,0,0-0.1,0-0.1l0.5-4l0.2-0.2
		l0.5,0.2c0,0,0.5,0.2,1.2,0.3l0.3,1.6c0.1,0.2,0.2,0.4,0.5,0.5l0.6,0.2c0.4,0.1,0.8-0.1,0.9-0.4c0,0,0-0.1,0-0.1l0.3-1.5
		c0.4,0,0.6-0.1,0.8-0.2c0.2-0.1,0.3-0.2,0.4-0.4c0.1-0.2,0-0.4,0-0.5c-0.1-0.2-0.3-0.4-0.6-0.6l0.7-1.3c0.1-0.2,0.1-0.4,0-0.6
		c-0.1-0.2-0.2-0.3-0.4-0.4l-0.2-0.1c0,0-0.1,0-0.1,0l-0.3-0.1C1107.4,47.7,1107.2,47.7,1107,47.9z M1125.1,32.1l-0.4-1.2l31.4-10.5
		l0.4,1.2L1125.1,32.1z M1158.1,21.8l-0.8-2.5c-0.1-0.4-0.5-0.6-0.9-0.4l-32.7,11c-0.4,0.1-0.6,0.5-0.4,0.9c0,0,0,0,0,0l0.8,2.5
		c0.1,0.4,0.5,0.6,0.9,0.4c0,0,0,0,0,0l32.7-11C1158,22.6,1158.2,22.2,1158.1,21.8C1158.1,21.8,1158.1,21.8,1158.1,21.8L1158.1,21.8
		z"/>
	<path class="st1" d="M1129.3,50.6l-6.6,2.2l-11.8-35l48.2-16.2l11.8,35L1129.3,50.6L1129.3,50.6z M1119.6,53.8L1107.9,19l1.8-0.6
		l11.7,34.8L1119.6,53.8L1119.6,53.8z M1092.2,63l-11.8-35l26.1-8.7l11.8,35L1092.2,63z M1160.2,0.5c-0.1-0.4-0.5-0.6-0.9-0.4
		l-80,26.8c-0.4,0.1-0.6,0.5-0.4,0.9l12.2,36.4c0.1,0.4,0.5,0.6,0.9,0.4c0,0,0,0,0,0l27.4-9.2l3.1-1l7.3-2.4l42.2-14.2
		c0.4-0.1,0.6-0.5,0.4-0.9L1160.2,0.5L1160.2,0.5z"/>
	<path class="st1" d="M1093,42.2l-3.7-11.2l13.2-4.4l3.7,11.2L1093,42.2z M1102.6,25.1l-14.5,4.9c-0.4,0.1-0.6,0.5-0.4,0.9l4.2,12.5
		c0.1,0.4,0.5,0.6,0.9,0.4c0,0,0,0,0,0l14.5-4.9c0.4-0.1,0.6-0.5,0.4-0.9c0,0,0,0,0,0l-4.2-12.5C1103.4,25.2,1103,25,1102.6,25.1
		L1102.6,25.1z M1122.5,24.3l-0.4-1.2l31.4-10.5l0.4,1.2L1122.5,24.3z M1155.4,14l-0.8-2.5c-0.1-0.4-0.5-0.6-0.9-0.4c0,0,0,0,0,0
		L1121,22c-0.4,0.1-0.6,0.5-0.4,0.9c0,0,0,0,0,0l0.8,2.5c0.1,0.4,0.5,0.6,0.9,0.4c0,0,0,0,0,0l32.7-11
		C1155.3,14.7,1155.5,14.3,1155.4,14C1155.4,14,1155.4,14,1155.4,14z M1159,29.1l0.4,1.2L1128,40.8l-0.4-1.2
		C1127.6,39.6,1159,29.1,1159,29.1z M1126.1,39.4l0.8,2.5c0.1,0.4,0.5,0.6,0.9,0.4l32.7-11c0.4-0.1,0.6-0.5,0.4-0.9l-0.8-2.5
		c-0.1-0.4-0.5-0.6-0.9-0.4c0,0,0,0,0,0l-32.7,11C1126.2,38.7,1126,39.1,1126.1,39.4C1126.1,39.4,1126.1,39.4,1126.1,39.4
		L1126.1,39.4z M1065.6,68.4v8.4h-9.1v1.4h9.1v8.4h1.4v-8.4h9.1v-1.4h-9.1v-8.4H1065.6z M1222.3,98.5v8.4h-9.1v1.4h9.1v8.4h1.4v-8.4
		h9.1v-1.4h-9.1v-8.4H1222.3z M1084.9,146.4l2.1-3.8l2.1,3.8l3.8,2.1l-3.8,2.1l-2.1,3.8l-2.1-3.8l-3.8-2.1L1084.9,146.4z
		 M1083.9,151.6l3.1,5.7l3.1-5.7l5.7-3.1l-5.7-3.1l-3.1-5.7l-3.1,5.7l-5.7,3.1L1083.9,151.6L1083.9,151.6z M1105.8,125l-2.1,3.8
		l-2.1-3.8l-3.8-2.1l3.8-2.1l2.1-3.8l2.1,3.8l3.8,2.1L1105.8,125L1105.8,125z M1103.8,114.1l-3.1,5.7l-5.7,3.1l5.7,3.1l3.1,5.7
		l3.1-5.7l5.7-3.1l-5.7-3.1L1103.8,114.1L1103.8,114.1z M1062.3,180.6l0.4,1.6l-5.1,1.4l-0.4-1.6L1062.3,180.6L1062.3,180.6z
		 M1056.6,185l0.1,0.3l7.8-2.1l-1.2-4.3l-7.8,2.1L1056.6,185L1056.6,185L1056.6,185z M1058.6,35.2l-2.1,3.8l0,0l-2.1-3.8l-3.8-2.1
		l3.8-2.1l2.1-3.8l0,0l2.1,3.8l3.8,2.1C1062.4,33.1,1058.6,35.2,1058.6,35.2z M1056.6,24.3l-3.1,5.7l-5.7,3.1l5.7,3.1l3.1,5.7l0,0
		l3.1-5.7l5.7-3.1l-5.7-3.1L1056.6,24.3L1056.6,24.3z"/>
	<path class="st1" d="M1098.4,246.7c-0.2-0.2-0.4-0.5-0.5-0.8l-16.2-47.2c-0.2-0.7-0.1-1.5,0.4-2.1c0.2-0.2,0.4-0.4,0.7-0.6
		c0.1-0.1,0.3-0.1,0.4-0.2c0,0,0,0,0,0l0.7-0.2l0,0.1l11.3-3.9l2.5,7.2c-0.2,0.7-0.2,1.5,0,2.3l1,2.8c0.3,0.7,0.7,1.4,1.4,1.8
		l12.8,37.3l-12,4.1c-0.3,0.1-0.6,0.1-0.9,0.1C1099.4,247.4,1098.8,247.2,1098.4,246.7L1098.4,246.7z M1103.1,189.2l2.2,6.5l0.1,0.4
		c-0.2-0.1-0.5-0.1-0.7-0.1c-0.3,0-0.6,0-1,0.1l-3.6,1.3c-0.3,0.1-0.6,0.3-0.8,0.5c-0.2,0.1-0.4,0.3-0.5,0.5l-2.4-6.9L1103.1,189.2
		L1103.1,189.2z M1105.2,178c0.3-0.8,0.7-1.6,1.2-2.2c1.4-2.1,3.2-3.6,5.4-4.3c0.7-0.3,1.5-0.4,2.3-0.5c2.3-0.2,4.7,0.3,7,1.6
		c1,0.6,2,1.3,2.8,2.1c1.4,1.3,2.5,3,3.2,4.7l-3.2,1.1c-0.2-0.5-0.5-1-0.8-1.5c-1.1-1.7-2.7-3.1-4.5-3.9c-0.3-0.1-0.5-0.2-0.8-0.3
		c-1.6-0.6-3.3-0.7-5-0.1l0,0c-3.6,1.2-5.5,5.2-5.5,8.9c0,0.3,0,0.6,0,0.9c0,0.6,0.1,1.1,0.3,1.7l-3.2,1.1
		C1103.8,184.3,1104,181,1105.2,178L1105.2,178z M1109,185.7c-0.9-3.7,0.6-8.6,4.3-9.8c0.2-0.1,0.5-0.1,0.7-0.2
		c1.4-0.3,2.9-0.1,4.3,0.7c0.2,0.1,0.5,0.3,0.7,0.4c1.6,1,3,2.5,3.7,4.2L1109,185.7L1109,185.7z M1128.5,180.3l2.5,7.3
		c-0.2,0.7-0.2,1.5,0,2.3l1,2.8c0.3,0.7,0.7,1.4,1.4,1.8l12.8,37.3l-24.2,8.3l-12.8-37.3c0.2-0.7,0.2-1.5,0-2.3l-1-2.8
		c-0.3-0.7-0.7-1.4-1.4-1.8l-2.5-7.2L1128.5,180.3L1128.5,180.3z M1149.5,173c0.6-0.2,1.2-0.2,1.8,0.1c0.6,0.3,1,0.7,1.2,1.3
		l16.2,47.2c0.2,0.6,0.2,1.2-0.1,1.8c-0.3,0.6-0.7,1-1.3,1.2l0,0l-12,4.1l-12.8-37.3c0.2-0.7,0.2-1.5,0-2.3l-1-2.8
		c-0.3-0.7-0.8-1.4-1.4-1.8l-2.5-7.4l2-0.7L1149.5,173L1149.5,173z M1147.4,231.4l-10.7-31.2c1.8,1.4,4.4,1.2,5.8-0.6c0,0,0,0,0,0
		c0.4-0.5,0.7-1.1,0.8-1.7l10.7,31.1L1147.4,231.4L1147.4,231.4z M1133.9,187.3l3.6-1.3c0.3-0.1,0.7-0.1,1,0l1.7,4.9
		c-0.1,0.1-0.2,0.3-0.3,0.4c-0.1,0.1-0.3,0.2-0.5,0.3l-1,0.3c0,0,0-0.1,0-0.1l-1-3c-0.2-0.5-0.7-0.7-1.2-0.5
		c-0.4,0.2-0.7,0.7-0.5,1.1l1,3c0,0,0,0.1,0.1,0.1l-1,0.3c-0.3,0.1-0.7,0.1-1,0l-1.7-4.9C1133.3,187.7,1133.6,187.5,1133.9,187.3
		L1133.9,187.3z M1132.6,186.4l-2.3-6.7l5.4-1.9l2.3,6.8c-0.3,0-0.6,0-1,0.1l-3.6,1.3C1133.1,186.1,1132.8,186.2,1132.6,186.4
		L1132.6,186.4z M1136.6,198l-1.2-3.5c0.3,0,0.6,0,1-0.1l3.6-1.3c0.3-0.1,0.6-0.3,0.8-0.5l1.2,3.5c0.5,1.5-0.3,3.1-1.8,3.7
		c-0.2,0.1-0.4,0.1-0.6,0.1c-0.6,0.1-1.1,0-1.6-0.3C1137.3,199.3,1136.8,198.7,1136.6,198L1136.6,198z M1114.1,242.8l-10.7-31.2
		c1.6,1.3,3.9,1.2,5.4-0.1c0.5-0.4,0.8-1,1.1-1.6c0.1-0.2,0.1-0.4,0.2-0.6l10.7,31.1L1114.1,242.8L1114.1,242.8z M1102.6,205.9
		c0.2,0,0.3-0.1,0.5-0.1l3.6-1.3c0.3-0.1,0.6-0.3,0.8-0.5l1.2,3.5c0.4,1.1,0.1,2.3-0.8,3.1c-0.9,0.8-2.1,1-3.2,0.4
		c-0.7-0.3-1.2-0.9-1.5-1.6l-1.2-3.5C1102.2,206,1102.4,205.9,1102.6,205.9L1102.6,205.9z M1101.5,204.4c-0.2-0.1-0.4-0.2-0.5-0.3
		c-0.2-0.2-0.3-0.3-0.3-0.5l-1-2.8c-0.1-0.3-0.1-0.6,0-0.9c0-0.1,0.1-0.2,0.1-0.3c0.2-0.3,0.4-0.5,0.8-0.7l3.6-1.3
		c0.2-0.1,0.3-0.1,0.5-0.1c0.2,0,0.3,0,0.5,0.1l1.7,4.9c-0.2,0.3-0.4,0.5-0.8,0.7l-1,0.3c0,0,0-0.1,0-0.1l-1-3
		c0-0.1-0.1-0.2-0.2-0.3c-0.3-0.3-0.6-0.4-1-0.3c-0.5,0.2-0.7,0.7-0.6,1.2c0,0,0,0,0,0l1,3c0,0,0,0.1,0.1,0.1l-1,0.3
		C1102.2,204.5,1101.9,204.5,1101.5,204.4L1101.5,204.4z M1097.1,247c0.6,1,1.7,1.7,2.8,1.8c0.5,0,0.9,0,1.4-0.2l4.9-1.7l7.7-2.6
		l7.2-2.5l26.6-9.2l4.8-1.6l15.1-5.2c0,0,0,0,0,0c0.9-0.3,1.6-1,2-1.8c0.4-0.9,0.5-1.8,0.2-2.7l-16.2-47.2c-0.3-0.9-1-1.6-1.8-2.1
		c-0.9-0.4-1.8-0.5-2.7-0.2l-1.5,0.5l0,0l-8.5,3l-3.2,1.1l0,0l-6.6,2.3l0,0l-0.8,0.3c-1.2-3.1-3.6-5.8-6.6-7.5
		c-2.1-1.2-4.3-1.8-6.5-1.8c-0.9,0-1.7,0.1-2.6,0.3c-0.4,0.1-0.9,0.2-1.3,0.4c-3.6,1.3-6.4,4.3-7.7,8c-0.6,1.7-0.9,3.4-0.9,5.2
		c0,1.4,0.2,2.7,0.6,4l-20.7,7.2l0,0c-0.5,0.2-0.9,0.4-1.2,0.7c-0.5,0.4-0.9,1-1.1,1.7c-0.2,0.7-0.2,1.4,0.1,2l16.2,47.2
		c0.1,0.2,0.2,0.4,0.2,0.5C1097,246.9,1097,247,1097.1,247L1097.1,247z M917,98.2l-5,4.6l-16.4-11.6l39.7-20.6l6.6,4.6
		C941.9,75.3,917,98.2,917,98.2z M921.9,111.4c0,0,5,3.8,10.3,8.4l7.6,8.6c0,0,0,0,0,0l0,0c3,3.2,4.2,5.2,4.6,6.5
		c-1.3,0-3.6-0.5-7.7-2.2c0,0,0,0,0,0l0,0l-10.8-4.1c-6.2-3.4-11.4-6.8-11.4-6.8l-10.2-7.2h0l-17.7-12.5L870,90.5
		c-5.1-3.6-5.4-9.9-5.4-11.6c1.6-0.6,7.7-2.4,12.8,1.2l16.5,11.6v0l17.8,12.6c0,0,0,0,0,0l0,0L921.9,111.4L921.9,111.4z M948,113.2
		l3.4,2.4l-11,11.4l-6.5-7.4L948,113.2L948,113.2z M928.4,148.2l-3.4-2.4l1.2-15.5l9.3,3.5L928.4,148.2L928.4,148.2z M900.5,121.7
		l-13.2,31.2l-6.6-4.6l6-44.3l16.3,11.5C903,115.5,900.5,121.7,900.5,121.7z M943.7,75.1c0-0.2-0.1-0.4-0.3-0.5l-7.6-5.4
		c-0.2-0.2-0.5-0.2-0.7-0.1l-40.7,21.1l-16.2-11.4c-6.6-4.6-14.3-1.3-14.6-1.2c-0.2,0.1-0.4,0.3-0.4,0.6c0,0.4-0.5,8.7,6,13.3
		l16.2,11.4l-6.2,45.5c0,0.3,0.1,0.5,0.3,0.7l7.6,5.4c0.1,0.1,0.2,0.1,0.3,0.1c0.3,0,0.6-0.1,0.7-0.4l13.6-32l2.4-5.9l9.5,6.7
		c0.1,0,5.1,3.3,11.2,6.7l-1.3,16.4c0,0.2,0.1,0.5,0.3,0.6l4.4,3.1c0.3,0.2,0.7,0.2,1-0.2c0,0,0-0.1,0.1-0.1l7.5-15.2
		c4,1.6,6.8,2.3,8.6,2c0.4-0.1,0.7-0.4,0.6-0.8c0,0,0-0.1,0-0.1c-0.4-1.8-1.9-4.2-4.7-7.3l11.7-12.1c0.3-0.3,0.3-0.7,0-1
		c0,0-0.1,0-0.1-0.1l-4.4-3.1c-0.2-0.1-0.5-0.2-0.7-0.1l-15,6.7c-3.3-2.9-6.7-5.6-10.1-8.3l-9.5-6.6l30.3-28
		C943.7,75.5,943.8,75.3,943.7,75.1L943.7,75.1z"/>
	<path class="st1" d="M869.5,88l-0.1-0.2c-0.7-0.7-0.8-1.8-0.5-2.7c0.7-1.7,1.8-3.1,3.1-4.4c0.5-0.5,1.3-0.7,2-0.7
		c0.2,0,0.5,0.1,0.7,0.2l0.2,0.1C872,82.1,870.1,84.8,869.5,88 M875.2,79c-1.4-0.6-3.1-0.3-4.2,0.7c-1.5,1.4-2.6,3-3.4,4.8
		c-0.6,1.4-0.3,3,0.7,4.2c0.4,0.4,0.8,0.8,1.2,1.2c0.2,0.2,0.5,0.2,0.7,0.1c0.2-0.1,0.4-0.3,0.4-0.6c0.3-3.7,2.5-6.9,5.9-8.4
		c0.4-0.2,0.5-0.6,0.4-0.9c-0.1-0.1-0.2-0.2-0.3-0.3C876.2,79.5,875.7,79.3,875.2,79 M974.6,67.3c-3.2-4.9-18.2-28-18.4-36.7
		c-0.2-9.6,7.4-17.7,17.1-17.9c9.6-0.2,17.7,7.4,17.9,17.1C991.4,38.5,977.6,62.3,974.6,67.3 M973.3,11.3
		c-10.4,0.3-18.7,8.9-18.4,19.3c0.2,10.1,18.4,37.2,19.2,38.4l0.6,0.9l0.6-0.9c0.7-1.2,17.6-29.1,17.3-39.3
		C992.3,19.3,983.7,11.1,973.3,11.3"/>
	<path class="st1" d="M974,41.4c-6.2,0.2-11.3-4.7-11.5-10.9c-0.2-6.2,4.7-11.3,10.9-11.5c6.2-0.1,11.3,4.7,11.5,10.9
		C985,36.1,980.2,41.2,974,41.4 M973.4,17.6c-6.9,0.2-12.4,5.9-12.3,12.9s5.9,12.4,12.9,12.3c6.9-0.2,12.4-6,12.3-12.9
		C986.1,22.9,980.3,17.4,973.4,17.6 M1025,53.6c2.2,0,4,1.8,4,4c0,2.2-1.8,4-4,4c-2.2,0-4-1.8-4-4
		C1021.1,55.4,1022.9,53.6,1025,53.6 M1025,62.9c3,0,5.4-2.4,5.4-5.4c0-3-2.4-5.4-5.4-5.4c-3,0-5.4,2.4-5.4,5.4
		C1019.7,60.5,1022.1,62.9,1025,62.9"/>
	<path class="st1" d="M1017.9,73.5c0.4-0.1,0.6-0.5,0.4-0.9c-0.1-0.3-0.4-0.5-0.7-0.5h-1c-1.3,0-2.3-1-2.3-2.3c0-1.3,1-2.3,2.3-2.3
		h3.9c0.4,0,0.7-0.3,0.7-0.7c0-0.3-0.2-0.5-0.4-0.6c-3.3-1.6-5.4-4.9-5.4-8.6c0-5.3,4.3-9.6,9.6-9.6s9.6,4.3,9.6,9.6
		c0,3.7-2.1,7-5.4,8.6c-0.3,0.1-0.4,0.5-0.4,0.8c0.1,0.3,0.4,0.5,0.7,0.5h3.9c1.3,0,2.3,1,2.3,2.3c0,1.3-1,2.3-2.3,2.3h-0.1
		c-0.4,0-0.7,0.3-0.7,0.7c0,0.3,0.2,0.6,0.5,0.7c9.8,3.3,16.4,12.4,16.4,22.8c0,13.2-10.8,24-24,24c-13.2,0-24-10.8-24-24
		C1001.5,86,1008.1,76.8,1017.9,73.5 M1000.1,96.3c0,14,11.4,25.4,25.4,25.4c14,0,25.4-11.4,25.4-25.4c0-10.2-6.1-19.4-15.4-23.3
		c1.7-1.1,2.2-3.5,1-5.2c-0.7-1-1.9-1.7-3.1-1.7h-1.5c2.6-2.1,4.1-5.2,4.1-8.5c0-6-4.9-11-11-11c-6,0-11,4.9-11,11
		c0,3.4,1.5,6.5,4.1,8.5h-1.5c-2.1,0-3.7,1.7-3.7,3.7c0,1.5,0.8,2.7,2.1,3.3C1005.9,77.3,1000.1,86.3,1000.1,96.3"/>
	<path class="st1" d="M1026.2,80.2c9,0,16.3,7.3,16.3,16.3c0,9-7.3,16.3-16.3,16.3c-9,0-16.3-7.3-16.3-16.3
		C1009.9,87.5,1017.2,80.2,1026.2,80.2 M1026.2,114.2c9.8,0,17.7-7.9,17.7-17.7c0-9.8-7.9-17.7-17.7-17.7c-9.8,0-17.7,7.9-17.7,17.7
		C1008.5,106.3,1016.4,114.2,1026.2,114.2"/>
	<path class="st1" d="M1026.3,88.4c0.8,2.3,2,5.6,2,6.9c0,1.9-0.9,3.5-2,3.5c-1.1,0-2-1.6-2-3.5C1024.3,94,1025.5,90.7,1026.3,88.4
		 M1026.3,100.2c1.9,0,3.4-2.1,3.4-4.9c0-2.4-2.6-8.9-2.7-9.1l-0.6-1.6l-0.6,1.6c-0.1,0.3-2.7,6.7-2.7,9.1
		C1022.9,98.1,1024.4,100.2,1026.3,100.2 M948.8,137.5c-0.3,0.6,0,1.4,0.6,1.6c1.4,0.6,2.8,1.4,4.1,2.2c0.6,0.4,1.4,0.2,1.7-0.4
		c0.3-0.6,0.2-1.3-0.3-1.7c-1.4-0.9-2.9-1.8-4.5-2.5C949.9,136.6,949.1,136.9,948.8,137.5 M944.6,198.8c-0.6-0.3-1.4-0.1-1.7,0.5
		l-0.2,0.4c-0.7,1.5-1.1,3.1-1.2,4.9c0,0.7,0.5,1.3,1.2,1.3h0c0.7,0,1.2-0.5,1.2-1.2c0-1.4,0.4-2.7,0.9-3.9l0.1-0.3
		C945.5,199.8,945.2,199.1,944.6,198.8 M950.4,192.1c-1.3,0.8-2.8,1.9-4.1,3c-0.5,0.5-0.6,1.2-0.1,1.8c0.5,0.5,1.2,0.6,1.8,0.1
		c1.2-1.1,2.6-2,3.8-2.8c0.6-0.4,0.7-1.1,0.4-1.7C951.7,191.9,951,191.7,950.4,192.1 M954.5,189.4c-0.6,0.4-0.7,1.2-0.3,1.7
		c0.4,0.6,1.2,0.7,1.7,0.3l0,0c1.4-1,2.7-2.1,3.9-3.3c0.5-0.5,0.5-1.3,0-1.8c-0.5-0.5-1.3-0.5-1.8,0c0,0,0,0,0,0
		C956.9,187.5,955.7,188.5,954.5,189.4 M966.8,165.2c0,0.7,0.6,1.2,1.2,1.2h0c0.7,0,1.2-0.6,1.2-1.3c0-1.7-0.2-3.4-0.5-5.1
		c-0.1-0.7-0.8-1.1-1.5-1s-1.1,0.8-1,1.5C966.6,162.1,966.8,163.6,966.8,165.2 M959,142.5c-0.5-0.5-1.3-0.4-1.8,0.1
		c-0.4,0.5-0.4,1.2,0.1,1.7c1.2,1.1,2.2,2.2,3.2,3.5c0.4,0.5,1.2,0.6,1.7,0.2c0.5-0.4,0.6-1.2,0.2-1.7l0,0
		C961.4,144.9,960.3,143.7,959,142.5 M966.2,176c0.7,0.2,1.4-0.1,1.6-0.8c0,0,0,0,0,0c0.5-1.6,0.9-3.3,1.2-5c0.1-0.7-0.4-1.3-1-1.4
		c-0.7-0.1-1.3,0.4-1.4,1c-0.2,1.5-0.6,3.1-1.1,4.6C965.2,175.1,965.5,175.8,966.2,176 M961.4,184.6c0.6,0.4,1.3,0.3,1.7-0.3
		c0,0,0,0,0,0c1-1.4,1.9-2.8,2.7-4.4c0.3-0.6,0.1-1.4-0.5-1.7c0,0,0,0,0,0c-0.6-0.3-1.4-0.1-1.7,0.5c0,0,0,0,0,0
		c-0.7,1.4-1.5,2.7-2.5,4C960.7,183.4,960.8,184.2,961.4,184.6 M963.6,150c-0.6,0.3-0.8,1.1-0.5,1.7c0.8,1.4,1.4,2.8,2,4.3
		c0.2,0.6,1,1,1.6,0.7c0.6-0.2,1-1,0.7-1.6c-0.6-1.6-1.3-3.2-2.1-4.6C965,149.9,964.2,149.7,963.6,150 M1049.6,144.4
		c0.6-0.2,1.2-0.1,1.7,0.2c0.5,0.3,0.9,0.8,1,1.3c0.2,0.6,0.1,1.2-0.2,1.7c-0.3,0.5-0.8,0.9-1.3,1l0,0c-1.2,0.3-2.4-0.4-2.7-1.6
		c-0.2-0.6-0.1-1.2,0.2-1.7C1048.5,144.9,1049,144.5,1049.6,144.4C1049.6,144.4,1049.6,144.4,1049.6,144.4 M1049.2,143
		c-0.9,0.2-1.7,0.9-2.2,1.7c-0.5,0.8-0.6,1.8-0.3,2.7c0.5,1.9,2.5,3.1,4.4,2.5l0,0c0.9-0.3,1.7-0.9,2.2-1.7c0.5-0.8,0.6-1.8,0.3-2.7
		c-0.3-0.9-0.9-1.7-1.7-2.2C1051.1,142.9,1050.1,142.8,1049.2,143L1049.2,143 M1012.8,174.9c-2-8.3,2.8-16.6,11.1-18.9l0.1,0
		c8.2-2.2,16.6,2.4,19.1,10.6l0.1,0.4c0.6,2.3,0.7,4.7,0.3,7.1c-1.1,5.9-5.5,10.6-11.3,12.2c-5.8,1.6-11.9-0.2-15.9-4.8
		c-1.6-1.8-2.7-3.9-3.4-6.2L1012.8,174.9L1012.8,174.9z M1032.5,187.7L1032.5,187.7c6.4-1.8,11.1-6.8,12.3-13.3
		c0.5-2.6,0.4-5.2-0.3-7.7c0-0.1-0.1-0.2-0.1-0.3l-0.1-0.2c-2.7-8.9-11.8-14-20.8-11.6l-0.1,0c-9,2.5-14.3,11.5-12.1,20.5l0,0.2
		c0,0.1,0,0.2,0.1,0.3v0c0.7,2.5,1.9,4.8,3.7,6.8C1019.5,187.4,1026.1,189.4,1032.5,187.7L1032.5,187.7z"/>
	<path class="st1" d="M1054.1,139.2c1.1,0.6,2,1.6,2.4,2.8c0.1,0.2,0.2,0.4,0.2,0.6l5,18.2l-5.2,1.4l-10.3,2.8l0.3,1.1
		c0.6,2.3,0.8,4.7,0.6,7.1l-0.1,1l9.5-2.6l7.6-2.1l2.1,7.6c0.6,2.2,0.3,4.6-0.8,6.7c-1.2,2-3.1,3.5-5.3,4.1l-3.5,0.9l-47.8,12.8
		c-4.6,1.2-9.4-1.5-10.7-6.1l-2-7.4l17.1-4.7l-0.6-0.8c-1.1-1.4-1.9-3-2.6-4.7c-0.2-0.6-0.4-1.1-0.5-1.7c0-0.1,0-0.1,0-0.2l-0.2-0.9
		l-15.5,4.2l-5-18.1c-0.8-3,0.9-6.1,3.9-6.9l0,0l16.5-4.4l0-0.1l40.8-11.2l0,0C1051.3,138.3,1052.8,138.5,1054.1,139.2L1054.1,139.2
		z M1063.7,168.2l-7.2,2l-7.9,2.2c0.1-2.1-0.1-4.3-0.6-6.3l8.5-2.3l5.6-1.5L1063.7,168.2L1063.7,168.2z M994,180.7l14.1-3.9
		c0.6,2,1.5,4,2.7,5.8l-15.1,4.1L994,180.7L994,180.7z M1007.3,146l0.8,2.8l-15.8,4.2l0.1,0.5l-0.1-0.5h0l-0.9,0.3l-0.7-2.7
		L1007.3,146L1007.3,146z M988.9,149.6l1.2,4.4c-2.4,1.7-3.5,4.7-2.7,7.6l9.4,34.2c1.1,4,4.5,6.8,8.4,7.4c1.3,0.2,2.7,0.1,4-0.3
		l47.4-12.8l3.9-1c1.9-0.5,3.7-1.6,5-3.1c0.4-0.5,0.8-1.1,1.2-1.6c1.3-2.3,1.7-5.1,1-7.7l-2.4-8.9l0,0l-1.6-6h0l-5.3-19.5
		c-0.3-1-0.8-2-1.6-2.8c-0.5-0.6-1.1-1.1-1.7-1.4c-1.6-0.9-3.5-1.1-5.3-0.7l-40.1,11l-1.1-4L988.9,149.6L988.9,149.6z"/>
	<path class="st1" d="M1001,159.3l0.4,1.6l-5.1,1.4l-0.4-1.6L1001,159.3L1001,159.3z M1003.1,161.9l-1.2-4.3l-7.8,2.1l1.2,4.3
		L1003.1,161.9L1003.1,161.9z M1016.5,174.1l0-0.2c-1.5-6.2,2.3-12.5,8.4-14.1l0.1,0c6.1-1.7,12.5,1.8,14.4,7.9l0.1,0.2
		c0,0.1,0.1,0.1,0.1,0.2c0.6,2.3,0.6,4.8-0.3,7.1c-1.3,3.7-4.3,6.5-8.1,7.5c-3.7,1-7.7,0.1-10.7-2.4c-1.9-1.5-3.2-3.6-3.8-6
		C1016.6,174.3,1016.5,174.2,1016.5,174.1 M1019.5,181.4c3.3,2.8,7.8,3.8,12,2.6l0.1,0c4.2-1.2,7.6-4.3,9-8.4c0.9-2.6,1-5.3,0.3-7.9
		c0-0.1-0.1-0.2-0.1-0.3l-0.1-0.2c-2.1-6.8-9.3-10.7-16.2-8.8c-6.9,1.9-11,8.9-9.4,15.8l0,0.2c0,0.1,0,0.2,0.1,0.3
		C1015.9,177.3,1017.4,179.7,1019.5,181.4"/>
	<path class="st1" d="M1029.7,163.3c1.4-0.4,2.8,0.4,3.1,1.8c0.4,1.4-0.4,2.8-1.8,3.1c-1.4,0.4-2.8-0.4-3.1-1.8
		C1027.6,165.1,1028.4,163.7,1029.7,163.3 M1031.4,169.6c2.1-0.6,3.4-2.7,2.8-4.9c-0.6-2.1-2.7-3.4-4.9-2.8
		c-2.1,0.6-3.4,2.7-2.8,4.9C1027.2,168.9,1029.3,170.2,1031.4,169.6 M859.7,50.2c-0.1,0.2-0.1,0.3,0,0.5c-0.1,0.1-0.2,0.3-0.3,0.4
		l0,0l0-0.2c-0.1-0.3-0.3-0.5-0.5-0.5c-0.8-0.2-1.5-0.4-1.5-0.4l-0.9-0.3c-0.3-0.1-0.6,0-0.8,0.2l-0.6,0.7c-0.1,0.1-0.1,0.2-0.2,0.4
		l-0.3,2.9l-0.7-4.6c0-0.3-0.2-0.5-0.5-0.5L851,48c-0.2-0.1-0.3-0.2-0.4-0.3c0.2-0.1,0.4-0.1,0.5,0l2.3,0.8c0.2,0.1,0.5,0,0.7-0.2
		l3.4-3.2l-1.5,2.5c-0.1,0.1-0.1,0.3-0.1,0.4l0,0.9c0,0.3,0.2,0.5,0.5,0.6l0.9,0.3c0,0,0.7,0.3,1.5,0.6c0.2,0.1,0.5,0.1,0.7-0.1
		L859.7,50.2L859.7,50.2L859.7,50.2z M860.2,47.9l-1.2,1.1c-0.6-0.3-1.1-0.5-1.2-0.5l-0.5-0.2l0-0.2l2.1-3.5c0.2-0.3,0.1-0.8-0.2-1
		c0,0-0.1,0-0.1-0.1l-1.1-0.4c-0.2-0.1-0.5,0-0.7,0.2l-3.8,3.6l-1.9-0.7c-1-0.3-1.9,0.1-2.3,0.5c-0.2,0.2-0.3,0.4-0.2,0.7
		c0.1,0.5,0.6,1.5,1.6,1.8l1.9,0.7l0.8,5.2c0,0.3,0.2,0.5,0.5,0.6l1.1,0.4c0.2,0.1,0.4,0,0.6-0.1c0.2-0.1,0.3-0.3,0.3-0.5l0.5-4
		l0.2-0.2l0.5,0.2c0,0,0.5,0.2,1.2,0.3l0.3,1.6c0.1,0.2,0.2,0.4,0.5,0.5l0.6,0.2c0.2,0.1,0.4,0,0.6-0.1c0.2-0.1,0.3-0.3,0.3-0.5
		l0.3-1.5c0.4,0,0.6-0.1,0.8-0.2c0.3-0.2,0.5-0.6,0.3-0.9c0,0,0,0,0,0c-0.1-0.2-0.3-0.4-0.6-0.6l0.7-1.3c0.2-0.3,0.1-0.8-0.3-0.9
		c0,0-0.1,0-0.1,0l-0.2-0.1c0,0-0.1,0-0.1,0l-0.3-0.1C860.7,47.7,860.4,47.7,860.2,47.9L860.2,47.9z M878.3,32.1L878,31l31.4-10.5
		l0.4,1.2L878.3,32.1L878.3,32.1z M911.3,21.8l-0.8-2.5c-0.1-0.4-0.5-0.6-0.9-0.4c0,0,0,0,0,0l-32.7,11c-0.4,0.1-0.6,0.5-0.4,0.9
		c0,0,0,0,0,0l0.8,2.5c0.1,0.4,0.5,0.6,0.9,0.4c0,0,0,0,0,0l32.7-11C911.2,22.6,911.4,22.2,911.3,21.8L911.3,21.8z"/>
	<path class="st1" d="M882.6,50.6l-6.6,2.2l-11.8-35l48.2-16.2l11.8,35L882.6,50.6L882.6,50.6z M872.8,53.8L861.2,19l1.8-0.6
		l11.7,34.8L872.8,53.8L872.8,53.8z M845.4,63l-11.8-35l26.1-8.7l11.8,35L845.4,63z M913.5,0.5c-0.1-0.4-0.5-0.6-0.9-0.4l-80,26.8
		c-0.4,0.1-0.6,0.5-0.4,0.9l12.2,36.4c0.1,0.4,0.5,0.6,0.9,0.4c0,0,0,0,0,0l27.4-9.2l3.1-1l7.3-2.4l42.2-14.2
		c0.4-0.1,0.6-0.5,0.4-0.9c0,0,0,0,0,0L913.5,0.5L913.5,0.5z"/>
	<path class="st1" d="M846.2,42.2l-3.7-11.2l13.2-4.4l3.7,11.2L846.2,42.2L846.2,42.2z M855.8,25.1L841.3,30
		c-0.4,0.1-0.6,0.5-0.4,0.9c0,0,0,0,0,0l4.2,12.5c0.1,0.4,0.5,0.6,0.9,0.4c0,0,0,0,0,0l14.5-4.9c0.4-0.1,0.6-0.5,0.4-0.9l-4.2-12.5
		C856.6,25.2,856.2,25,855.8,25.1C855.8,25.1,855.8,25.1,855.8,25.1L855.8,25.1z M875.7,24.3l-0.4-1.2l31.4-10.5l0.4,1.2L875.7,24.3
		L875.7,24.3z M908.6,14l-0.8-2.5c-0.1-0.4-0.5-0.6-0.9-0.4l-32.7,11c-0.4,0.1-0.6,0.5-0.4,0.9l0.8,2.5c0.1,0.4,0.5,0.6,0.9,0.4
		c0,0,0,0,0,0l32.7-11C908.6,14.7,908.8,14.3,908.6,14C908.6,14,908.6,14,908.6,14L908.6,14z M912.3,29.1l0.4,1.2l-31.4,10.5
		l-0.4-1.2C880.9,39.6,912.3,29.1,912.3,29.1z M879.3,39.4l0.8,2.5c0.1,0.4,0.5,0.6,0.9,0.4c0,0,0,0,0,0l32.7-11
		c0.4-0.1,0.6-0.5,0.4-0.9c0,0,0,0,0,0l-0.8-2.5c-0.1-0.4-0.5-0.6-0.9-0.4c0,0,0,0,0,0l-32.7,11C879.4,38.7,879.2,39.1,879.3,39.4
		L879.3,39.4z M818.9,68.4v8.4h-9.1v1.4h9.1v8.4h1.4v-8.4h9.1v-1.4h-9.1v-8.4H818.9z M975.5,98.5v8.4h-9.1v1.4h9.1v8.4h1.4v-8.4h9.1
		v-1.4h-9.1v-8.4H975.5z M838.2,146.4l2.1-3.8l2.1,3.8l3.8,2.1l-3.8,2.1l-2.1,3.8l-2.1-3.8l-3.8-2.1L838.2,146.4L838.2,146.4z
		 M837.1,151.6l3.1,5.7l3.1-5.7l5.7-3.1l-5.7-3.1l-3.1-5.7l-3.1,5.7l-5.7,3.1L837.1,151.6L837.1,151.6z M859.1,125l-2.1,3.8
		l-2.1-3.8l-3.8-2.1l3.8-2.1l2.1-3.8l2.1,3.8l3.8,2.1L859.1,125L859.1,125z M857,114.1l-3.1,5.7l-5.7,3.1l5.7,3.1l3.1,5.7l3.1-5.7
		l5.7-3.1l-5.7-3.1L857,114.1L857,114.1z M815.5,180.6l0.4,1.6l-5.1,1.4l-0.4-1.6L815.5,180.6z M809.8,185l0.1,0.3l7.8-2.1l-1.2-4.3
		l-7.8,2.1L809.8,185L809.8,185z M811.9,35.2l-2.1,3.8l0,0l-2.1-3.8l-3.8-2.1l3.8-2.1l2.1-3.8l0,0l2.1,3.8l3.8,2.1L811.9,35.2
		L811.9,35.2z M809.8,24.3l-3.1,5.7l-5.7,3.1l5.7,3.1l3.1,5.7l0,0l3.1-5.7l5.7-3.1l-5.7-3.1L809.8,24.3L809.8,24.3L809.8,24.3z"/>
	<path class="st1" d="M851.6,246.7c-0.2-0.2-0.4-0.5-0.5-0.8l-16.2-47.2c-0.2-0.7-0.1-1.5,0.4-2.1c0.2-0.2,0.4-0.4,0.7-0.6
		c0.1-0.1,0.3-0.1,0.4-0.2l0,0l0.7-0.2l0,0.1l11.3-3.9l2.5,7.2c-0.2,0.7-0.2,1.5,0,2.3l1,2.8c0.3,0.7,0.7,1.4,1.4,1.8l12.8,37.3
		l-12,4.1c-0.3,0.1-0.6,0.1-0.9,0.1C852.6,247.4,852,247.2,851.6,246.7L851.6,246.7z M856.3,189.2l2.2,6.5l0.1,0.4
		c-0.2-0.1-0.5-0.1-0.7-0.1c-0.3,0-0.6,0-1,0.1l-3.6,1.3c-0.3,0.1-0.6,0.3-0.8,0.5c-0.2,0.1-0.4,0.3-0.5,0.5l-2.4-6.9L856.3,189.2z
		 M858.5,178c0.3-0.8,0.7-1.6,1.2-2.2c1.4-2.1,3.2-3.6,5.4-4.3c0.7-0.3,1.5-0.4,2.3-0.5c2.3-0.2,4.7,0.3,7,1.6c1,0.6,2,1.3,2.8,2.1
		c1.4,1.3,2.5,3,3.2,4.7l-3.2,1.1c-0.2-0.5-0.5-1-0.8-1.5c-1.1-1.7-2.7-3.1-4.5-3.9c-0.3-0.1-0.5-0.2-0.8-0.3
		c-1.6-0.6-3.3-0.7-5-0.1l0,0c-3.6,1.2-5.5,5.2-5.5,8.9c0,0.3,0,0.6,0,0.9c0,0.6,0.1,1.1,0.3,1.7l-3.2,1.1
		C857,184.3,857.2,181,858.5,178L858.5,178z M862.2,185.7c-0.9-3.7,0.6-8.6,4.3-9.8c0.2-0.1,0.5-0.1,0.7-0.2
		c1.4-0.3,2.9-0.1,4.3,0.7c0.2,0.1,0.5,0.3,0.7,0.4c1.6,1,3,2.5,3.7,4.2L862.2,185.7L862.2,185.7z M881.7,180.3l2.5,7.3
		c-0.2,0.7-0.2,1.5,0,2.3l1,2.8c0.2,0.7,0.7,1.4,1.4,1.8l12.8,37.3l-24.2,8.3l-12.8-37.3c0.2-0.6,0.2-1.1,0.1-1.7
		c0-0.2-0.1-0.4-0.1-0.6l-1-2.8c-0.2-0.5-0.5-1-0.9-1.4c-0.1-0.1-0.3-0.3-0.5-0.4l-2.5-7.2L881.7,180.3z M902.7,173
		c0.6-0.2,1.2-0.2,1.8,0.1c0.6,0.3,1,0.7,1.2,1.3l16.2,47.2c0.2,0.6,0.2,1.2-0.1,1.8c-0.3,0.6-0.7,1-1.3,1.2l0,0l-12,4.1l-12.8-37.3
		c0.1-0.4,0.2-0.8,0.2-1.1c0-0.4-0.1-0.8-0.2-1.1l-1-2.8c-0.1-0.2-0.1-0.4-0.2-0.5c-0.3-0.5-0.7-1-1.2-1.3l-2.5-7.4l2-0.7L902.7,173
		L902.7,173z M900.6,231.4l-10.7-31.2c1.8,1.4,4.4,1.2,5.8-0.6c0,0,0,0,0,0c0.4-0.5,0.7-1.1,0.8-1.7l10.7,31.1L900.6,231.4
		L900.6,231.4z M887.1,187.3l3.6-1.3c0.3-0.1,0.7-0.1,1,0l1.7,4.9c-0.1,0.1-0.2,0.3-0.3,0.4c-0.1,0.1-0.3,0.2-0.5,0.3l-1,0.3
		c0,0,0-0.1,0-0.1l-1-3c-0.2-0.5-0.7-0.7-1.2-0.6c-0.5,0.2-0.7,0.7-0.6,1.2l1,3c0,0,0,0.1,0.1,0.1l-1,0.3c-0.3,0.1-0.7,0.1-1,0
		l-1.7-4.9C886.5,187.7,886.8,187.5,887.1,187.3L887.1,187.3z M885.8,186.4l-2.3-6.7l5.4-1.9l2.3,6.8c-0.3,0-0.6,0-1,0.1l-3.6,1.3
		C886.3,186.1,886.1,186.2,885.8,186.4L885.8,186.4z M889.8,198l-1.2-3.5c0.3,0,0.6,0,1-0.1l3.6-1.3c0.3-0.1,0.6-0.3,0.8-0.5
		l1.2,3.5c0.5,1.5-0.3,3.1-1.8,3.7c-0.2,0.1-0.4,0.1-0.6,0.1c-0.6,0.1-1.1,0-1.6-0.3C890.5,199.3,890,198.7,889.8,198L889.8,198z
		 M867.3,242.8l-10.7-31.2c1.6,1.3,3.9,1.2,5.4-0.1c0.5-0.4,0.8-1,1.1-1.6c0.1-0.2,0.1-0.4,0.2-0.6l10.7,31.1L867.3,242.8
		L867.3,242.8z M855.8,205.9c0.2,0,0.3-0.1,0.5-0.1l3.6-1.3c0.3-0.1,0.6-0.3,0.8-0.5l1.2,3.5c0.4,1.1,0.1,2.3-0.8,3.1
		c-0.6,0.5-1.3,0.8-2.1,0.7c-0.4,0-0.7-0.1-1.1-0.3c-0.7-0.3-1.2-0.9-1.5-1.6l-1.2-3.5C855.5,206,855.6,205.9,855.8,205.9
		L855.8,205.9z M854.8,204.4c-0.2-0.1-0.4-0.2-0.5-0.3c-0.2-0.2-0.3-0.3-0.3-0.5l-1-2.8c-0.1-0.3-0.1-0.6,0-0.9
		c0-0.1,0.1-0.2,0.1-0.3c0.2-0.3,0.4-0.5,0.8-0.7l3.6-1.3c0.2-0.1,0.3-0.1,0.5-0.1c0.2,0,0.3,0,0.5,0.1l1.7,4.9
		c-0.2,0.3-0.4,0.5-0.8,0.7l-1,0.3c0,0,0-0.1,0-0.1l-1-3c-0.2-0.5-0.7-0.7-1.2-0.6c-0.5,0.2-0.7,0.7-0.6,1.2c0,0,0,0,0,0l1,3
		c0,0,0,0.1,0.1,0.1l-1,0.3C855.4,204.5,855.1,204.5,854.8,204.4L854.8,204.4z M850.3,247c0.6,1,1.7,1.7,2.8,1.8
		c0.5,0,0.9,0,1.4-0.2l4.9-1.7l7.7-2.6l7.2-2.5l26.6-9.2l4.8-1.6l15.1-5.2l0,0c0.9-0.3,1.6-1,2-1.8c0.4-0.9,0.5-1.8,0.2-2.7
		L906.9,174c-0.3-0.9-1-1.6-1.8-2.1c-0.9-0.4-1.8-0.5-2.7-0.2l-1.5,0.5l0,0l-8.5,3l-3.2,1.1l0,0l-6.6,2.3l0,0l-0.8,0.3
		c-1.2-3.1-3.6-5.8-6.6-7.5c-2.1-1.2-4.3-1.8-6.5-1.8c-0.9,0-1.7,0.1-2.6,0.3c-0.4,0.1-0.9,0.2-1.3,0.4c-3.6,1.3-6.4,4.3-7.7,8
		c-0.6,1.7-0.9,3.4-0.9,5.2c0,1.4,0.2,2.7,0.6,4l-20.7,7.2l0,0c-0.5,0.2-0.9,0.4-1.2,0.7c-0.5,0.4-0.9,1-1.1,1.7
		c-0.2,0.7-0.2,1.4,0.1,2l16.2,47.2c0.1,0.2,0.2,0.4,0.2,0.5C850.2,246.9,850.2,247,850.3,247L850.3,247z M670.2,98.2l-5,4.6
		l-16.4-11.6l39.7-20.6l6.6,4.6L670.2,98.2L670.2,98.2z M675.1,111.4c0,0,5,3.8,10.3,8.4l7.6,8.6c0,0,0,0,0,0c0,0,0,0,0,0
		c3,3.2,4.2,5.2,4.6,6.5c-1.3,0-3.6-0.5-7.7-2.2c0,0,0,0,0,0c0,0,0,0,0,0l-10.8-4.1c-6.2-3.4-11.4-6.8-11.4-6.8l-10.2-7.2
		l-17.7-12.5l-16.5-11.6c-5.1-3.6-5.4-9.9-5.4-11.6c1.6-0.6,7.7-2.4,12.8,1.2l16.5,11.6v0l17.8,12.6l0,0l0,0L675.1,111.4
		L675.1,111.4z M701.2,113.2l3.4,2.4l-11,11.4l-6.5-7.4L701.2,113.2L701.2,113.2z M681.6,148.2l-3.4-2.4l1.2-15.5l9.3,3.5
		L681.6,148.2L681.6,148.2z M653.7,121.7l-13.2,31.2l-6.6-4.6l6-44.3l16.3,11.5C656.2,115.5,653.7,121.7,653.7,121.7z M697,75.1
		c0-0.2-0.1-0.4-0.3-0.5l-7.6-5.4c-0.2-0.2-0.5-0.2-0.7-0.1l-40.7,21.1l-16.2-11.4c-6.6-4.6-14.3-1.3-14.6-1.2
		c-0.2,0.1-0.4,0.3-0.4,0.6c0,0.4-0.5,8.7,6,13.3l16.2,11.4l-6.2,45.5c0,0.3,0.1,0.5,0.3,0.7l7.6,5.4c0.2,0.1,0.4,0.2,0.6,0.1
		c0.2-0.1,0.4-0.2,0.5-0.4l13.6-32l2.4-5.9l9.5,6.7c0.1,0,5.1,3.3,11.2,6.7l-1.3,16.4c0,0.2,0.1,0.5,0.3,0.6l4.4,3.1
		c0.2,0.1,0.4,0.2,0.6,0.1c0.2-0.1,0.4-0.2,0.5-0.4l7.5-15.2c4,1.6,6.8,2.3,8.6,2c0.4-0.1,0.7-0.4,0.6-0.8c0,0,0-0.1,0-0.1
		c-0.4-1.8-1.9-4.2-4.7-7.3l11.7-12.1c0.3-0.3,0.3-0.7,0-1c0,0-0.1,0-0.1-0.1l-4.4-3.1c-0.2-0.1-0.5-0.2-0.7-0.1l-15,6.7
		c-3.3-2.9-6.7-5.6-10.1-8.3l-9.5-6.6l30.3-28C696.9,75.5,697,75.3,697,75.1L697,75.1z"/>
	<path class="st1" d="M622.7,88c0-0.1-0.1-0.1-0.1-0.2c-0.7-0.7-0.8-1.8-0.5-2.7c0.7-1.7,1.8-3.1,3.1-4.4c0.7-0.7,1.8-0.9,2.7-0.5
		l0.2,0.1C625.3,82.1,623.3,84.8,622.7,88 M628.4,79c-1.4-0.6-3.1-0.3-4.2,0.7c-1.5,1.4-2.6,3-3.4,4.8c-0.6,1.4-0.3,3,0.7,4.2
		c0.4,0.4,0.8,0.8,1.2,1.2c0.2,0.2,0.5,0.2,0.7,0.1c0.2-0.1,0.4-0.3,0.4-0.6c0.3-3.7,2.5-6.9,5.9-8.4c0.2-0.1,0.4-0.3,0.4-0.6
		c0-0.3-0.1-0.5-0.3-0.6C629.4,79.5,628.9,79.3,628.4,79 M727.8,67.3c-3.2-4.9-18.2-28-18.4-36.7c-0.2-9.6,7.4-17.7,17.1-17.9
		c9.6-0.2,17.7,7.4,17.9,17.1C744.6,38.5,730.8,62.3,727.8,67.3 M726.5,11.3c-10.4,0.3-18.7,8.9-18.4,19.3
		c0.2,10.1,18.4,37.2,19.2,38.4l0.6,0.9l0.6-0.9c0.7-1.2,17.6-29.1,17.3-39.3C745.6,19.3,736.9,11.1,726.5,11.3"/>
	<path class="st1" d="M727.2,41.4c-6.2,0.2-11.3-4.7-11.5-10.9c-0.2-6.2,4.7-11.3,10.9-11.5c6.2-0.1,11.3,4.7,11.5,10.9
		C738.3,36.1,733.4,41.2,727.2,41.4 M726.6,17.6c-6.9,0.2-12.4,5.9-12.3,12.9s5.9,12.4,12.9,12.3c6.9-0.2,12.4-6,12.3-12.9
		C739.4,22.9,733.6,17.4,726.6,17.6 M771.1,73.5c0.4-0.1,0.6-0.5,0.4-0.9c-0.1-0.3-0.4-0.5-0.7-0.5h-1c-1.3,0-2.3-1-2.3-2.3
		c0-1.3,1-2.3,2.3-2.3h3.9c0.4,0,0.7-0.3,0.7-0.7c0-0.3-0.2-0.5-0.4-0.6c-3.3-1.6-5.4-4.9-5.4-8.6c0-5.3,4.3-9.6,9.6-9.6
		c5.3,0,9.6,4.3,9.6,9.6c0,3.7-2.1,7-5.4,8.6c-0.3,0.1-0.4,0.5-0.4,0.8c0.1,0.3,0.4,0.5,0.7,0.5h3.9c1.3,0,2.3,1,2.3,2.3
		c0,1.3-1,2.3-2.3,2.3h-0.1c-0.4,0-0.7,0.3-0.7,0.7c0,0.3,0.2,0.6,0.5,0.7c9.8,3.3,16.4,12.4,16.4,22.8c0,13.2-10.8,24-24,24
		c-13.2,0-24-10.8-24-24C754.7,86,761.3,76.8,771.1,73.5 M753.3,96.3c0,14,11.4,25.4,25.4,25.4c14,0,25.4-11.4,25.4-25.4
		c0-10.2-6.1-19.4-15.4-23.3c1-0.7,1.7-1.9,1.7-3.1c0-2.1-1.7-3.7-3.7-3.7h-1.5c2.6-2.1,4.1-5.2,4.1-8.5c0-6-4.9-11-11-11
		s-11,4.9-11,11c0,3.4,1.5,6.5,4.1,8.5h-1.5c-2.1,0-3.7,1.7-3.7,3.7c0,1.5,0.8,2.7,2.1,3.3C759.1,77.3,753.3,86.3,753.3,96.3"/>
	<path class="st1" d="M778.3,53.6c2.2,0,4,1.8,4,4c0,2.2-1.8,4-4,4c-2.2,0-4-1.8-4-4C774.3,55.4,776.1,53.6,778.3,53.6 M778.3,62.9
		c3,0,5.4-2.4,5.4-5.4c0-3-2.4-5.4-5.4-5.4c-3,0-5.4,2.4-5.4,5.4C772.9,60.5,775.3,62.9,778.3,62.9 M779.4,80.2
		c9,0,16.3,7.3,16.3,16.3c0,9-7.3,16.3-16.3,16.3c-9,0-16.3-7.3-16.3-16.3C763.1,87.5,770.4,80.2,779.4,80.2 M779.4,114.2
		c9.8,0,17.7-7.9,17.7-17.7c0-9.8-7.9-17.7-17.7-17.7c-9.8,0-17.7,7.9-17.7,17.7C761.7,106.3,769.7,114.2,779.4,114.2"/>
	<path class="st1" d="M779.5,88.4c0.9,2.3,2,5.6,2,6.9c0,1.9-0.9,3.5-2,3.5c-1.1,0-2-1.6-2-3.5C777.6,94,778.7,90.7,779.5,88.4
		 M779.5,100.2c1.9,0,3.4-2.1,3.4-4.9c0-2.4-2.6-8.9-2.7-9.1l-0.6-1.6l-0.6,1.6c-0.1,0.3-2.7,6.7-2.7,9.1
		C776.2,98.1,777.7,100.2,779.5,100.2 M716.8,150c-0.6,0.3-0.8,1.1-0.5,1.7c0.8,1.4,1.4,2.8,2,4.3c0.2,0.6,1,1,1.6,0.7s1-1,0.7-1.6
		l0,0c-0.6-1.6-1.3-3.2-2.1-4.6C718.2,149.9,717.4,149.7,716.8,150 M714.6,184.6c0.6,0.4,1.3,0.3,1.7-0.3c0,0,0,0,0,0
		c1-1.4,1.9-2.8,2.7-4.4c0.3-0.6,0.1-1.4-0.5-1.7s-1.4-0.1-1.7,0.5l0,0c-0.7,1.4-1.5,2.7-2.5,4C713.9,183.4,714.1,184.2,714.6,184.6
		 M707.7,189.4c-0.6,0.4-0.7,1.2-0.3,1.7c0.4,0.6,1.2,0.7,1.7,0.3c1.4-1,2.7-2.1,3.9-3.3c0.5-0.5,0.5-1.3,0-1.8
		c-0.5-0.5-1.3-0.5-1.8,0c0,0,0,0,0,0C710.2,187.5,709,188.5,707.7,189.4 M712.2,142.5c-0.5-0.5-1.3-0.4-1.8,0.1
		c-0.4,0.5-0.4,1.2,0.1,1.7c1.2,1.1,2.2,2.2,3.2,3.5c0.4,0.5,1.2,0.6,1.7,0.2c0,0,0,0,0,0c0.5-0.4,0.6-1.2,0.2-1.7
		C714.6,144.9,713.5,143.7,712.2,142.5 M702.1,137.5c-0.3,0.6,0,1.4,0.6,1.6c1.4,0.6,2.8,1.4,4.1,2.2c0.6,0.4,1.3,0.2,1.7-0.3
		c0,0,0,0,0,0c0.4-0.6,0.2-1.3-0.4-1.7c0,0,0,0,0,0c-1.4-0.9-2.9-1.8-4.5-2.5C703.1,136.6,702.4,136.9,702.1,137.5
		C702.1,137.5,702.1,137.5,702.1,137.5 M720,165.2c0,0.7,0.6,1.2,1.2,1.2h0c0.7,0,1.2-0.6,1.2-1.3c0-1.7-0.2-3.4-0.5-5.1
		c-0.1-0.7-0.8-1.1-1.5-1c-0.7,0.1-1.1,0.8-1,1.4c0,0,0,0,0,0c0.1,0.7,0.2,1.3,0.3,2C720,163.4,720,164.3,720,165.2 M719.4,176
		c0.7,0.2,1.4-0.1,1.6-0.8c0.5-1.6,0.9-3.3,1.2-5c0.1-0.7-0.4-1.3-1.1-1.4c-0.7-0.1-1.3,0.4-1.4,1c-0.2,1.6-0.6,3.1-1.1,4.6
		C718.4,175.1,718.7,175.8,719.4,176 M703.6,192.1c-1.3,0.8-2.8,1.9-4.1,3c-0.5,0.5-0.5,1.3-0.1,1.8c0.5,0.5,1.2,0.5,1.7,0.1
		c1.2-1.1,2.6-2,3.8-2.8c0.6-0.4,0.7-1.1,0.4-1.7C704.9,191.9,704.2,191.7,703.6,192.1L703.6,192.1 M697.8,198.8
		c-0.6-0.3-1.4-0.1-1.7,0.5l-0.2,0.4c-0.7,1.5-1.1,3.1-1.2,4.9c0,0.7,0.5,1.3,1.2,1.3h0c0.7,0,1.2-0.5,1.2-1.2
		c0-1.4,0.4-2.7,0.9-3.9l0.1-0.3C698.7,199.8,698.4,199.1,697.8,198.8 M802.8,144.4c0.6-0.2,1.2-0.1,1.7,0.2c1.1,0.6,1.4,1.9,0.8,3
		c0,0,0,0,0,0c-0.3,0.5-0.8,0.9-1.3,1l0,0c-1.2,0.3-2.4-0.4-2.7-1.6c-0.2-0.6-0.1-1.2,0.2-1.7C801.8,144.9,802.2,144.5,802.8,144.4
		L802.8,144.4 M802.4,143c-0.9,0.2-1.7,0.9-2.2,1.7c-0.5,0.8-0.6,1.8-0.3,2.7c0.5,1.9,2.5,3,4.4,2.5l0,0c0.9-0.3,1.7-0.9,2.2-1.7
		c0.5-0.8,0.6-1.8,0.3-2.7c-0.3-0.9-0.9-1.7-1.7-2.2C804.4,142.9,803.4,142.8,802.4,143L802.4,143 M766,174.9
		c-2-8.3,2.8-16.6,11.1-18.9l0.1,0c8.2-2.2,16.6,2.4,19.1,10.6l0.1,0.4c0.6,2.3,0.7,4.7,0.3,7.1c-1.1,5.9-5.5,10.6-11.3,12.2
		c-5.8,1.6-11.9-0.2-15.9-4.8c-1.6-1.8-2.7-3.9-3.4-6.2L766,174.9L766,174.9z M785.7,187.7L785.7,187.7c6.4-1.8,11.1-6.8,12.3-13.3
		c0.5-2.6,0.4-5.2-0.3-7.7c0-0.1-0.1-0.2-0.1-0.3l-0.1-0.2c-2.7-8.9-11.8-14-20.8-11.6l-0.1,0c-9,2.5-14.3,11.5-12.1,20.5l0,0.2
		c0,0.1,0,0.2,0.1,0.3l0,0c0.7,2.5,1.9,4.8,3.7,6.8C772.8,187.4,779.4,189.4,785.7,187.7L785.7,187.7z"/>
	<path class="st1" d="M807.4,139.2c1.1,0.6,2,1.6,2.4,2.8c0.1,0.2,0.2,0.4,0.2,0.6l5,18.2l-5.2,1.4l-10.3,2.8l0.3,1.1
		c0.6,2.3,0.8,4.7,0.6,7.1l-0.1,1l9.5-2.6l7.6-2.1l2.1,7.6c0.6,2.3,0.3,4.6-0.8,6.7c-1.2,2-3.1,3.5-5.3,4.1l-3.5,0.9L762,201.6
		c-4.6,1.2-9.4-1.5-10.7-6.1l-2-7.4l17.1-4.7l-0.6-0.8c-1.4-1.9-2.5-4.1-3.1-6.4c0-0.1,0-0.1,0-0.2l-0.2-0.9l-15.5,4.2l-5-18.1
		c-0.8-3,0.9-6.1,3.9-6.9v0l16.5-4.4l0-0.1l40.8-11.2l0,0C804.5,138.3,806.1,138.5,807.4,139.2L807.4,139.2z M817,168.2l-7.2,2
		l-7.9,2.2c0.1-2.1-0.1-4.3-0.6-6.3l8.5-2.3l5.5-1.5L817,168.2L817,168.2z M747.3,180.7l14.1-3.9c0.6,2,1.5,4,2.7,5.8l-15.1,4.1
		L747.3,180.7L747.3,180.7z M760.5,146l0.8,2.8l-15.8,4.2l0.1,0.5l-0.1-0.5h0l-0.9,0.3l-0.7-2.7L760.5,146L760.5,146z M742.1,149.6
		l1.2,4.4c-2.4,1.7-3.5,4.7-2.7,7.6l9.4,34.2c1.5,5.4,7,8.6,12.4,7.1l47.4-12.8l3.9-1c1.9-0.5,3.7-1.6,5-3.1
		c0.4-0.5,0.8-1.1,1.2-1.6c1.3-2.3,1.7-5.1,1-7.7l-2.5-8.9l0,0l-1.6-6h0l-5.3-19.5c-0.2-0.9-0.7-1.7-1.2-2.5
		c-0.6-0.7-1.3-1.3-2.1-1.8c-1.6-0.9-3.5-1.1-5.3-0.7l-40.1,11l-1.1-4L742.1,149.6L742.1,149.6z"/>
	<path class="st1" d="M754.2,159.3l0.4,1.6l-5.1,1.4l-0.4-1.6L754.2,159.3z M756.4,161.9l-1.2-4.3l-7.8,2.1l1.2,4.3L756.4,161.9
		L756.4,161.9z M769.7,174.1l0-0.2c-1.5-6.2,2.3-12.5,8.4-14.1l0.1,0c6.1-1.7,12.5,1.8,14.4,7.9l0.1,0.2c0,0.1,0.1,0.1,0.1,0.2
		c0.6,2.3,0.6,4.8-0.3,7.1c-1.3,3.7-4.3,6.5-8.1,7.5c-3.7,1-7.7,0.1-10.7-2.4c-1.9-1.5-3.2-3.6-3.8-6
		C769.8,174.3,769.8,174.2,769.7,174.1 M772.7,181.4c3.3,2.8,7.8,3.8,12,2.6c0,0,0,0,0.1,0c4.2-1.2,7.6-4.3,9-8.4
		c0.9-2.6,1-5.3,0.3-7.9c0-0.1-0.1-0.2-0.1-0.3l-0.1-0.2c-2.1-6.8-9.2-10.7-16.1-8.8l-0.1,0c-6.9,1.9-11,8.9-9.4,15.8l0,0.2
		c0,0.1,0,0.2,0.1,0.3C769.2,177.3,770.7,179.7,772.7,181.4"/>
	<path class="st1" d="M783,163.3c1.4-0.4,2.8,0.4,3.1,1.8c0.4,1.4-0.4,2.8-1.8,3.1c-1.4,0.4-2.8-0.4-3.1-1.8
		C780.8,165.1,781.6,163.7,783,163.3 M784.7,169.6c2.1-0.6,3.4-2.7,2.8-4.9c-0.6-2.1-2.7-3.4-4.9-2.8c-2.1,0.6-3.4,2.7-2.8,4.9
		C780.4,168.9,782.6,170.2,784.7,169.6 M612.9,50.2c-0.1,0.2-0.1,0.3,0,0.5c-0.1,0.1-0.2,0.3-0.3,0.4l0,0l0-0.2
		c-0.1-0.3-0.3-0.5-0.5-0.5c-0.5-0.1-1-0.2-1.5-0.4l-0.9-0.3c-0.3-0.1-0.6,0-0.8,0.2l-0.6,0.7c-0.1,0.1-0.1,0.2-0.2,0.4l-0.3,2.9
		l-0.7-4.6c0-0.3-0.2-0.5-0.5-0.5l-2.3-0.8c-0.2-0.1-0.3-0.2-0.4-0.3c0.2-0.1,0.4-0.1,0.5,0l2.3,0.8c0.2,0.1,0.5,0,0.7-0.2l3.4-3.2
		l-1.5,2.5c-0.1,0.1-0.1,0.3-0.1,0.4l0,0.9c0,0.3,0.2,0.5,0.5,0.6l0.9,0.3c0,0,0.7,0.3,1.5,0.6c0.2,0.1,0.5,0.1,0.7-0.1L612.9,50.2
		L612.9,50.2L612.9,50.2z M613.4,47.9l-1.2,1.1c-0.6-0.3-1.2-0.5-1.2-0.5l-0.5-0.2l0-0.2l2.1-3.5c0.2-0.3,0.1-0.8-0.2-1
		c0,0-0.1,0-0.1-0.1l-1.1-0.4c-0.2-0.1-0.5,0-0.7,0.2l-3.8,3.6l-1.9-0.7c-1-0.3-1.9,0.1-2.3,0.5c-0.2,0.2-0.3,0.4-0.2,0.7
		c0.1,0.5,0.6,1.5,1.6,1.8l1.9,0.7l0.8,5.2c0,0.3,0.2,0.5,0.5,0.6l1.1,0.4c0.4,0.1,0.8-0.1,0.9-0.4c0,0,0-0.1,0-0.1l0.5-4l0.2-0.2
		l0.5,0.2c0,0,0.5,0.2,1.2,0.3l0.3,1.6c0.1,0.2,0.2,0.4,0.5,0.5l0.6,0.2c0.2,0.1,0.4,0,0.6-0.1c0.2-0.1,0.3-0.3,0.3-0.5l0.3-1.5
		c0.4,0,0.6-0.1,0.8-0.2c0.3-0.2,0.5-0.6,0.3-0.9c0,0,0,0,0,0c-0.1-0.2-0.3-0.4-0.6-0.6l0.7-1.3c0.2-0.3,0.1-0.8-0.3-0.9
		c0,0-0.1,0-0.1,0l-0.2-0.1c0,0-0.1,0-0.1,0l-0.3-0.1C613.9,47.7,613.6,47.7,613.4,47.9L613.4,47.9z M631.6,32.1l-0.4-1.2l31.4-10.5
		l0.4,1.2L631.6,32.1z M664.5,21.8l-0.8-2.5c-0.1-0.4-0.5-0.6-0.9-0.4c0,0,0,0,0,0l-32.7,11c-0.4,0.1-0.6,0.5-0.4,0.9c0,0,0,0,0,0
		l0.8,2.5c0.1,0.4,0.5,0.6,0.9,0.4c0,0,0,0,0,0l32.7-11C664.4,22.6,664.6,22.2,664.5,21.8L664.5,21.8z"/>
	<path class="st1" d="M635.8,50.6l-6.6,2.2l-11.8-35l48.2-16.2l11.8,35L635.8,50.6L635.8,50.6z M626.1,53.8L614.4,19l1.8-0.6
		l11.7,34.8L626.1,53.8z M598.7,63l-11.8-35l26.1-8.7l11.8,35L598.7,63z M666.7,0.5c-0.1-0.4-0.5-0.6-0.9-0.4c0,0,0,0,0,0l-80,26.8
		c-0.4,0.1-0.6,0.5-0.4,0.9l12.2,36.4c0.1,0.4,0.5,0.6,0.9,0.4c0,0,0,0,0,0l27.4-9.2l3.1-1l7.3-2.4l42.2-14.2
		c0.4-0.1,0.6-0.5,0.4-0.9c0,0,0,0,0,0L666.7,0.5L666.7,0.5z"/>
	<path class="st1" d="M599.4,42.2l-3.7-11.2l13.2-4.4l3.7,11.2L599.4,42.2L599.4,42.2z M609.1,25.1L594.6,30
		c-0.4,0.1-0.6,0.5-0.4,0.9c0,0,0,0,0,0l4.2,12.5c0.1,0.4,0.5,0.6,0.9,0.4c0,0,0,0,0,0l14.5-4.9c0.4-0.1,0.6-0.5,0.4-0.9L610,25.5
		C609.8,25.2,609.4,25,609.1,25.1C609.1,25.1,609.1,25.1,609.1,25.1L609.1,25.1z M628.9,24.3l-0.4-1.2l31.4-10.5l0.4,1.2L628.9,24.3
		z M661.9,14l-0.8-2.5c-0.1-0.4-0.5-0.6-0.9-0.4l-32.7,11c-0.4,0.1-0.6,0.5-0.4,0.9l0.8,2.5c0.1,0.4,0.5,0.6,0.9,0.4c0,0,0,0,0,0
		l32.7-11C661.8,14.7,662,14.3,661.9,14L661.9,14z M665.5,29.1l0.4,1.2l-31.4,10.5l-0.4-1.2L665.5,29.1L665.5,29.1z M632.5,39.4
		l0.8,2.5c0.1,0.4,0.5,0.6,0.9,0.4c0,0,0,0,0,0l32.7-11c0.4-0.1,0.6-0.5,0.4-0.9c0,0,0,0,0,0l-0.8-2.5c-0.1-0.4-0.5-0.6-0.9-0.4
		c0,0,0,0,0,0l-32.7,11C632.6,38.7,632.4,39.1,632.5,39.4L632.5,39.4z M572.1,68.4v8.4H563v1.4h9.1v8.4h1.4v-8.4h9.1v-1.4h-9.1v-8.4
		H572.1z M728.7,98.5v8.4h-9.1v1.4h9.1v8.4h1.4v-8.4h9.1v-1.4h-9.1v-8.4H728.7z M591.4,146.4l2.1-3.8l2.1,3.8l3.8,2.1l-3.8,2.1
		l-2.1,3.8l-2.1-3.8l-3.8-2.1L591.4,146.4L591.4,146.4z M590.4,151.6l3.1,5.7l3.1-5.7l5.7-3.1l-5.7-3.1l-3.1-5.7l-3.1,5.7l-5.7,3.1
		L590.4,151.6L590.4,151.6z M612.3,125l-2.1,3.8l-2.1-3.8l-3.8-2.1l3.8-2.1l2.1-3.8l2.1,3.8l3.8,2.1L612.3,125L612.3,125z
		 M610.2,114.1l-3.1,5.7l-5.7,3.1l5.7,3.1l3.1,5.7l3.1-5.7l5.7-3.1l-5.7-3.1L610.2,114.1L610.2,114.1z M568.7,180.6l0.4,1.6
		l-5.1,1.4l-0.4-1.6L568.7,180.6z M563,185l0.1,0.3l7.8-2.1l-1.2-4.3l-7.8,2.1L563,185L563,185L563,185z M565.1,35.2L563,39l0,0
		l-2.1-3.8l-3.8-2.1l3.8-2.1l2.1-3.8l0,0l2.1,3.8l3.8,2.1C568.9,33.1,565.1,35.2,565.1,35.2z M563,24.3l-3.1,5.7l-5.7,3.1l5.7,3.1
		l3.1,5.7l0,0l3.1-5.7l5.7-3.1l-5.7-3.1L563,24.3L563,24.3z"/>
	<path class="st1" d="M604.9,246.7c-0.2-0.2-0.4-0.5-0.5-0.8l-16.2-47.2c-0.2-0.7-0.1-1.5,0.4-2.1c0.2-0.2,0.4-0.4,0.7-0.6
		c0.1-0.1,0.3-0.1,0.4-0.2c0,0,0,0,0,0l0.7-0.2l0,0.1l11.3-3.9l2.5,7.2c-0.2,0.7-0.2,1.6,0,2.3l1,2.8c0.3,0.7,0.7,1.4,1.4,1.8
		l12.8,37.3l-12,4.1c-0.3,0.1-0.6,0.1-0.9,0.1C605.8,247.4,605.3,247.2,604.9,246.7L604.9,246.7z M609.5,189.2l2.2,6.5l0.1,0.4
		c-0.2-0.1-0.5-0.1-0.7-0.1c-0.3,0-0.6,0-1,0.1l-3.6,1.3c-0.3,0.1-0.6,0.3-0.8,0.5c-0.2,0.1-0.4,0.3-0.5,0.5l-2.4-6.9L609.5,189.2
		L609.5,189.2z M611.7,178c0.3-0.8,0.7-1.6,1.2-2.2c1.4-2.1,3.2-3.6,5.4-4.3c0.7-0.3,1.5-0.4,2.3-0.5c2.3-0.2,4.7,0.3,7,1.6
		c1,0.6,2,1.3,2.8,2.1c1.4,1.3,2.5,3,3.2,4.7l-3.2,1.1c-0.2-0.5-0.5-1-0.8-1.5c-1.1-1.7-2.7-3.1-4.5-3.9c-0.3-0.1-0.5-0.2-0.8-0.3
		c-1.6-0.6-3.3-0.7-5-0.1c0,0,0,0,0,0c-3.6,1.2-5.5,5.2-5.5,8.9c0,0.9,0.1,1.7,0.3,2.5l-3.2,1.1C610.3,184.3,610.5,181,611.7,178z
		 M615.5,185.7c-0.9-3.7,0.6-8.6,4.3-9.8c0.2-0.1,0.5-0.1,0.7-0.2c1.4-0.3,2.9-0.1,4.3,0.7c0.2,0.1,0.5,0.3,0.7,0.4
		c1.6,1,3,2.5,3.7,4.2L615.5,185.7L615.5,185.7z M634.9,180.3l2.5,7.3c-0.2,0.7-0.2,1.5,0,2.3l1,2.8c0.3,0.7,0.7,1.4,1.4,1.8
		l12.8,37.3l-24.2,8.3l-12.8-37.3c0.2-0.6,0.2-1.1,0.1-1.7c0-0.2-0.1-0.4-0.1-0.6l-1-2.8c-0.2-0.5-0.5-1-0.9-1.4
		c-0.1-0.1-0.3-0.3-0.5-0.4l-2.5-7.2L634.9,180.3L634.9,180.3z M655.9,173c0.6-0.2,1.2-0.2,1.8,0.1c0.4,0.2,0.8,0.5,1,0.9
		c0.1,0.1,0.1,0.3,0.2,0.4l16.2,47.2c0.2,0.6,0.2,1.2-0.1,1.8c-0.3,0.6-0.7,1-1.3,1.2l0,0l-12,4.1l-12.8-37.3c0.2-0.7,0.2-1.5,0-2.3
		l-1-2.8c-0.3-0.7-0.8-1.4-1.4-1.8l-2.5-7.4l2-0.7L655.9,173L655.9,173z M653.8,231.4l-10.7-31.2c1.8,1.4,4.4,1.2,5.8-0.6
		c0,0,0,0,0,0c0.4-0.5,0.7-1.1,0.8-1.7l10.7,31.1L653.8,231.4L653.8,231.4z M640.3,187.3l3.6-1.3c0.3-0.1,0.7-0.1,1,0l1.7,4.9
		c-0.1,0.1-0.2,0.3-0.3,0.4c-0.1,0.1-0.3,0.2-0.5,0.3l-1,0.3c0,0,0-0.1,0-0.1l-1-3c-0.2-0.5-0.7-0.7-1.2-0.6
		c-0.5,0.2-0.7,0.7-0.6,1.2c0,0,0,0,0,0l1,3c0,0,0,0.1,0.1,0.1l-1,0.3c-0.3,0.1-0.7,0.1-1,0l-1.7-4.9
		C639.7,187.7,640,187.5,640.3,187.3z M639,186.4l-2.3-6.7l5.4-1.9l2.3,6.8c-0.3,0-0.6,0-1,0.1l-3.6,1.3
		C639.6,186.1,639.3,186.2,639,186.4L639,186.4z M643,198l-1.2-3.5c0.3,0,0.6,0,1-0.1l3.6-1.3c0.3-0.1,0.6-0.3,0.8-0.5l1.2,3.5
		c0.5,1.5-0.3,3.1-1.8,3.7c-0.7,0.2-1.5,0.2-2.2-0.1C643.8,199.3,643.2,198.7,643,198z M620.5,242.8l-10.7-31.2
		c1.6,1.3,3.9,1.2,5.4-0.1c0.5-0.4,0.8-1,1.1-1.6c0.1-0.2,0.1-0.4,0.2-0.6l10.7,31.1L620.5,242.8L620.5,242.8z M609,205.9
		c0.2,0,0.3-0.1,0.5-0.1l3.6-1.3c0.3-0.1,0.6-0.3,0.8-0.5l1.2,3.5c0.2,0.5,0.2,1.1,0.1,1.7c-0.4,1.5-2,2.5-3.5,2.1
		c-0.9-0.2-1.7-0.9-2-1.8l-1.2-3.5C608.7,206,608.9,205.9,609,205.9z M608,204.4c-0.2-0.1-0.4-0.2-0.5-0.3c-0.2-0.2-0.3-0.3-0.3-0.5
		l-1-2.8c-0.1-0.3-0.1-0.6,0-0.9c0-0.1,0.1-0.2,0.1-0.3c0.2-0.3,0.4-0.5,0.8-0.7l3.6-1.3c0.2-0.1,0.3-0.1,0.5-0.1
		c0.2,0,0.3,0,0.5,0.1l1.7,4.9c-0.2,0.3-0.4,0.5-0.8,0.7l-1,0.3c0,0,0-0.1,0-0.1l-1-3c-0.1-0.2-0.3-0.4-0.5-0.5
		c-0.5-0.2-1,0-1.2,0.4c-0.1,0.2-0.1,0.5,0,0.7l1,3c0,0,0,0.1,0.1,0.1l-1,0.3C608.7,204.5,608.3,204.5,608,204.4z M603.5,247
		c0.9,1.5,2.6,2.1,4.3,1.6l5-1.7l7.7-2.6l7.2-2.5l26.6-9.2l4.8-1.6l15.1-5.2c0,0,0,0,0,0c0.9-0.3,1.6-1,2-1.8
		c0.4-0.9,0.5-1.8,0.2-2.7L660.1,174c-0.3-0.9-1-1.6-1.8-2.1c-0.9-0.4-1.8-0.5-2.7-0.2l-1.5,0.5l0,0l-8.5,3l-3.2,1.1l0,0l-6.6,2.3
		l0,0l-0.8,0.3c-1.2-3.1-3.6-5.8-6.6-7.5c-2.1-1.2-4.3-1.8-6.5-1.8c-0.9,0-1.7,0.1-2.6,0.3c-0.4,0.1-0.8,0.2-1.2,0.4c0,0,0,0,0,0
		c-3.6,1.3-6.4,4.3-7.7,8c-0.6,1.7-0.9,3.4-0.9,5.2c0,1.4,0.2,2.7,0.6,4l-20.7,7.2l0,0c-0.5,0.2-0.9,0.4-1.2,0.7
		c-0.5,0.4-0.9,1-1.1,1.7c-0.2,0.7-0.2,1.4,0.1,2l16.2,47.2c0.1,0.2,0.2,0.4,0.2,0.5C603.5,246.9,603.5,247,603.5,247L603.5,247z
		 M423.4,98.2l-5,4.6l-16.4-11.6l39.7-20.6l6.6,4.6C448.4,75.3,423.4,98.2,423.4,98.2z M428.3,111.4c0,0,5,3.8,10.3,8.4l7.6,8.6
		c0,0,0,0,0,0l0,0c3,3.2,4.2,5.2,4.6,6.5c-1.3,0-3.6-0.5-7.7-2.2c0,0,0,0,0,0s0,0,0,0l-10.8-4.1c-6.2-3.4-11.4-6.8-11.4-6.8
		l-10.2-7.2h0L393,102.2l-16.5-11.6c-5.1-3.6-5.4-9.9-5.4-11.6c1.6-0.6,7.7-2.4,12.8,1.2l16.5,11.6v0l17.8,12.6c0,0,0,0,0,0l0,0
		L428.3,111.4L428.3,111.4z M454.4,113.2l3.4,2.4l-11,11.4l-6.5-7.4L454.4,113.2L454.4,113.2z M434.8,148.2l-3.4-2.4l1.2-15.5
		l9.3,3.5L434.8,148.2L434.8,148.2z M406.9,121.7l-13.2,31.2l-6.6-4.6l6-44.3l16.3,11.5L406.9,121.7L406.9,121.7z M450.2,75.1
		c0-0.2-0.1-0.4-0.3-0.5l-7.6-5.4c-0.2-0.2-0.5-0.2-0.7-0.1l-40.7,21.1l-16.2-11.4c-6.6-4.6-14.3-1.3-14.6-1.2
		c-0.2,0.1-0.4,0.3-0.4,0.6c0,0.4-0.5,8.7,6,13.3l16.2,11.4l-6.2,45.5c0,0.3,0.1,0.5,0.3,0.7l7.6,5.4c0.2,0.1,0.4,0.2,0.6,0.1
		c0.2-0.1,0.4-0.2,0.5-0.4l13.6-32l2.4-5.9l9.5,6.7c0,0,5.1,3.3,11.2,6.7l-1.3,16.4c0,0.2,0.1,0.5,0.3,0.6l4.4,3.1
		c0.2,0.1,0.4,0.2,0.6,0.1c0.2-0.1,0.4-0.2,0.5-0.4l7.5-15.2c4,1.6,6.8,2.3,8.6,2c0.3,0,0.5-0.2,0.6-0.5c0-0.1,0-0.3,0-0.4
		c-0.4-1.8-1.9-4.2-4.7-7.3l11.7-12.1c0.1-0.1,0.2-0.3,0.2-0.6c0-0.2-0.1-0.4-0.3-0.5l-4.4-3.1c-0.2-0.1-0.5-0.2-0.7-0.1l-15,6.7
		c-3.3-2.9-6.7-5.6-10.1-8.3l-9.5-6.6l30.3-28C450.1,75.5,450.2,75.3,450.2,75.1L450.2,75.1z"/>
	<path class="st1" d="M375.9,88c0-0.1-0.1-0.1-0.1-0.2c-0.7-0.7-0.8-1.8-0.5-2.7c0.7-1.7,1.8-3.1,3.1-4.4c0.7-0.7,1.8-0.9,2.7-0.5
		l0.2,0.1C378.5,82.1,376.5,84.8,375.9,88 M381.6,79c-1.4-0.6-3.1-0.3-4.2,0.7c-1.5,1.4-2.6,3-3.4,4.8c-0.6,1.4-0.3,3,0.7,4.2
		c0.4,0.4,0.8,0.8,1.2,1.2c0.3,0.2,0.7,0.2,1-0.1c0.1-0.1,0.1-0.2,0.2-0.4c0.3-3.7,2.5-6.9,5.9-8.4c0.2-0.1,0.4-0.3,0.4-0.6
		c0-0.3-0.1-0.5-0.3-0.6C382.7,79.5,382.1,79.3,381.6,79 M481.1,67.3c-3.2-4.9-18.2-28-18.4-36.7c-0.2-9.6,7.4-17.7,17.1-17.9
		c9.6-0.2,17.7,7.4,17.9,17.1C497.8,38.5,484.1,62.3,481.1,67.3 M479.7,11.3c-10.4,0.3-18.7,8.9-18.4,19.3
		c0.2,10.1,18.5,37.2,19.2,38.4l0.6,0.9l0.6-0.9c0.7-1.2,17.6-29.1,17.3-39.3C498.8,19.3,490.1,11.1,479.7,11.3"/>
	<path class="st1" d="M480.4,41.4c-6.2,0.2-11.3-4.7-11.5-10.9c-0.2-6.2,4.7-11.3,10.9-11.5c6.2-0.1,11.3,4.7,11.5,10.9
		C491.5,36.1,486.6,41.2,480.4,41.4 M479.9,17.6c-6.9,0.2-12.4,5.9-12.3,12.9c0.2,6.9,5.9,12.4,12.9,12.3c6.9-0.2,12.4-6,12.3-12.9
		C492.6,22.9,486.8,17.4,479.9,17.6 M524.4,73.5c0.4-0.1,0.6-0.5,0.4-0.9c-0.1-0.3-0.4-0.5-0.7-0.5h-1c-1.3,0-2.3-1-2.3-2.3
		c0-1.3,1-2.3,2.3-2.3h3.9c0.3,0.2,0.8,0,0.9-0.3c0.2-0.3,0-0.8-0.3-0.9c-0.1,0-0.2-0.1-0.3-0.1c-3.3-1.6-5.4-4.9-5.4-8.6
		c0-5.3,4.3-9.6,9.6-9.6s9.6,4.3,9.6,9.6c0,3.7-2.1,7-5.4,8.6c-0.4,0-0.7,0.3-0.7,0.7c0,0.4,0.3,0.7,0.7,0.7c0.1,0,0.2,0,0.3-0.1
		h3.9c1.3,0,2.3,1,2.3,2.3c0,1.3-1,2.3-2.3,2.3h-0.1c-0.3,0-0.6,0.2-0.7,0.6c-0.1,0.3,0.1,0.7,0.5,0.8C549.4,76.8,556,86,556,96.3
		c0,13.2-10.8,24-24,24c-13.2,0-24-10.8-24-24C507.9,86,514.6,76.8,524.4,73.5 M506.6,96.3c0,14,11.4,25.4,25.4,25.4
		c14,0,25.4-11.4,25.4-25.4c0-10.2-6.1-19.4-15.4-23.3c1-0.7,1.7-1.9,1.7-3.1c0-2.1-1.7-3.7-3.7-3.7h-1.5c2.6-2.1,4.1-5.2,4.1-8.5
		c0-6-4.9-11-11-11c-6,0-11,4.9-11,11c0,3.4,1.5,6.5,4.1,8.5h-1.5c-2.1,0-3.7,1.7-3.7,3.7c0,1.5,0.8,2.7,2.1,3.3
		C512.4,77.3,506.5,86.3,506.6,96.3"/>
	<path class="st1" d="M531.5,53.6c2.2,0,4,1.8,4,4c0,2.2-1.8,4-4,4c-2.2,0-4-1.8-4-4C527.5,55.4,529.3,53.6,531.5,53.6 M531.5,62.9
		c3,0,5.4-2.4,5.4-5.4c0-3-2.4-5.4-5.4-5.4c-3,0-5.4,2.4-5.4,5.4C526.1,60.5,528.5,62.9,531.5,62.9 M532.7,80.2
		c9,0,16.3,7.3,16.3,16.3c0,9-7.3,16.3-16.3,16.3c-9,0-16.3-7.3-16.3-16.3C516.3,87.5,523.7,80.2,532.7,80.2 M532.7,114.2
		c9.8,0,17.7-7.9,17.7-17.7c0-9.8-7.9-17.7-17.7-17.7c-9.8,0-17.7,7.9-17.7,17.7C514.9,106.3,522.9,114.2,532.7,114.2"/>
	<path class="st1" d="M532.8,88.4c0.8,2.3,2,5.6,2,6.9c0,1.9-0.9,3.5-2,3.5c-1.1,0-2-1.6-2-3.5C530.8,94,531.9,90.7,532.8,88.4
		 M532.8,100.2c1.9,0,3.4-2.1,3.4-4.9c0-2.4-2.6-8.9-2.7-9.1l-0.6-1.6l-0.6,1.6c-0.1,0.3-2.7,6.7-2.7,9.1
		C529.4,98.1,530.9,100.2,532.8,100.2 M470.1,150c-0.6,0.3-0.8,1.1-0.5,1.7c0.8,1.4,1.4,2.8,2,4.3c0.2,0.6,1,1,1.6,0.7s1-1,0.7-1.6
		l0,0c-0.6-1.6-1.3-3.2-2.1-4.6C471.4,149.9,470.7,149.7,470.1,150 M472.6,176c0.7,0.2,1.4-0.1,1.6-0.8c0.5-1.6,0.9-3.3,1.2-5
		c0.1-0.7-0.4-1.3-1-1.4s-1.3,0.4-1.4,1c-0.2,1.6-0.6,3.1-1.1,4.6C471.6,175.1,472,175.8,472.6,176 M460.9,189.4
		c-0.6,0.4-0.7,1.2-0.3,1.7c0.4,0.6,1.2,0.7,1.7,0.3l0,0c0.2-0.1,0.4-0.3,0.6-0.4c1.2-0.9,2.3-1.8,3.3-2.9c0.5-0.5,0.5-1.3,0-1.8
		c-0.5-0.5-1.3-0.5-1.8,0l0,0C463.4,187.5,462.2,188.5,460.9,189.4 M473.3,165.2c0,0.7,0.6,1.2,1.2,1.2h0c0.7,0,1.2-0.6,1.2-1.3
		c0-1.7-0.2-3.4-0.5-5.1c-0.1-0.7-0.8-1.1-1.5-1c-0.7,0.1-1.1,0.8-1,1.5c0.1,0.7,0.2,1.3,0.3,2C473.2,163.4,473.2,164.3,473.3,165.2
		 M456.8,192.1c-1.3,0.8-2.8,1.9-4.1,3c-0.5,0.5-0.6,1.2-0.1,1.8c0.5,0.5,1.2,0.6,1.8,0.1l0,0c1.2-1.1,2.6-2,3.8-2.8
		c0.6-0.4,0.7-1.1,0.4-1.7c0,0,0,0,0,0C458.2,191.9,457.4,191.7,456.8,192.1C456.8,192.1,456.8,192.1,456.8,192.1 M455.3,137.5
		c-0.3,0.6,0,1.4,0.6,1.6c1.4,0.6,2.8,1.4,4.1,2.2c0.6,0.4,1.3,0.2,1.7-0.3c0,0,0,0,0,0c0.4-0.6,0.2-1.3-0.4-1.7
		c-1.4-0.9-2.9-1.8-4.5-2.5C456.3,136.6,455.6,136.9,455.3,137.5 M465.4,142.5c-0.5-0.5-1.3-0.4-1.8,0.1c0,0,0,0,0,0
		c-0.5,0.5-0.4,1.3,0.1,1.8c1.2,1.1,2.2,2.2,3.2,3.5c0.4,0.5,1.2,0.6,1.7,0.2c0,0,0,0,0,0c0.5-0.4,0.6-1.2,0.2-1.7
		C467.9,144.9,466.7,143.7,465.4,142.5 M451.1,198.8c-0.6-0.3-1.4-0.1-1.7,0.5l-0.2,0.4c-0.7,1.5-1.1,3.1-1.2,4.9
		c0,0.7,0.5,1.3,1.2,1.3h0c0.7,0,1.2-0.5,1.2-1.2c0-1.4,0.4-2.7,0.9-3.9l0.1-0.3C451.9,199.8,451.7,199.1,451.1,198.8 M467.8,184.6
		c0.6,0.4,1.3,0.3,1.7-0.3c1-1.4,1.9-2.8,2.7-4.4c0.3-0.6,0.1-1.4-0.5-1.7c0,0,0,0,0,0c-0.6-0.3-1.4-0.1-1.7,0.5c0,0,0,0,0,0
		c-0.7,1.4-1.5,2.7-2.5,4C467.2,183.4,467.3,184.2,467.8,184.6 M556,144.4c0.6-0.2,1.2-0.1,1.7,0.2c0.5,0.3,0.9,0.8,1,1.3
		c0.2,0.6,0.1,1.2-0.2,1.7c-0.3,0.5-0.8,0.9-1.3,1c-1.2,0.3-2.4-0.4-2.7-1.6c-0.1-0.6-0.1-1.2,0.2-1.7
		C555,144.9,555.5,144.5,556,144.4 M555.7,143c-0.9,0.2-1.7,0.9-2.2,1.7c-0.5,0.8-0.6,1.8-0.3,2.7c0.5,1.9,2.5,3,4.4,2.5l0,0
		c0.9-0.3,1.7-0.9,2.2-1.7c0.5-0.8,0.6-1.8,0.3-2.7c-0.3-0.9-0.9-1.7-1.7-2.2C557.6,142.9,556.6,142.8,555.7,143 M519.2,174.9
		c-2-8.3,2.8-16.6,11.1-18.9c0,0,0,0,0.1,0c8.2-2.2,16.6,2.4,19.1,10.6l0.1,0.4c0.6,2.3,0.7,4.7,0.3,7.1
		c-1.1,5.9-5.5,10.6-11.3,12.2c-5.8,1.6-11.9-0.2-15.9-4.8c-1.6-1.8-2.7-3.9-3.4-6.2L519.2,174.9L519.2,174.9z M538.9,187.7
		L538.9,187.7c6.4-1.8,11.1-6.8,12.3-13.3c0.5-2.6,0.4-5.2-0.3-7.7c0-0.1-0.1-0.2-0.1-0.3l-0.1-0.2c-2.7-8.9-11.8-14-20.8-11.6
		l-0.1,0c-9,2.5-14.3,11.5-12.1,20.5l0,0.2c0,0.1,0,0.2,0.1,0.3l0,0c0.7,2.5,1.9,4.8,3.7,6.8C526,187.4,532.6,189.4,538.9,187.7
		L538.9,187.7z"/>
	<path class="st1" d="M514.5,148.8l-15.8,4.2l0.1,0.5l-0.1-0.5l0,0h0l-0.9,0.3l-0.7-2.7l16.7-4.6L514.5,148.8L514.5,148.8z
		 M560.6,139.2c1.1,0.6,2,1.6,2.4,2.8c0.1,0.2,0.2,0.4,0.2,0.6l5,18.2l-5.2,1.4l-10.3,2.8l0.3,1.1c0.6,2.3,0.8,4.7,0.6,7.1l-0.1,1
		l9.5-2.6l7.6-2.1l2.1,7.6c0.6,2.2,0.3,4.6-0.8,6.7c-1.2,2-3.1,3.5-5.3,4.1l-3.5,0.9l-47.8,12.9c-4.6,1.2-9.4-1.5-10.7-6.1l-2-7.4
		l17.1-4.7l-0.6-0.8c-0.7-1-1.3-2-1.9-3.1c-0.5-1.1-0.9-2.2-1.2-3.3c0-0.1,0-0.1,0-0.2l-0.2-0.9l-15.5,4.2l-5-18.1
		c-0.8-3,0.9-6.1,3.9-6.9h0l16.5-4.4l0-0.1l40.8-11.2l0,0C557.8,138.3,559.3,138.5,560.6,139.2L560.6,139.2z M570.2,168.2l-7.2,2
		l-7.9,2.2c0.1-2.1-0.1-4.3-0.6-6.3l8.5-2.3l5.6-1.5L570.2,168.2L570.2,168.2z M500.5,180.7l14.1-3.9c0.6,2,1.5,4,2.7,5.8l-15.1,4.1
		L500.5,180.7z M493.8,161.6l9.4,34.2c1.5,5.4,7,8.6,12.4,7.1l47.4-12.8l3.9-1c1.6-0.4,3.1-1.3,4.3-2.4c0.7-0.7,1.4-1.5,1.9-2.4
		c1.3-2.3,1.7-5.1,1-7.7l-2.5-8.9l0,0l-1.6-6l0,0l-5.3-19.5c-0.1-0.4-0.3-0.9-0.5-1.3c-0.3-0.6-0.7-1.1-1.1-1.5
		c-0.5-0.6-1.1-1.1-1.7-1.4c-1.6-0.9-3.5-1.1-5.3-0.7l-40.1,11l-1.1-4l-19.4,5.3l1.2,4.4C494.1,155.7,493,158.8,493.8,161.6
		L493.8,161.6z"/>
	<path class="st1" d="M507.4,159.3l0.4,1.6l-5.1,1.4l-0.4-1.6L507.4,159.3z M509.6,161.9l-1.2-4.3l-7.8,2.1l1.2,4.3L509.6,161.9
		L509.6,161.9z M523,174.1l0-0.2c-1.5-6.2,2.3-12.5,8.4-14.1l0.1,0c6.1-1.7,12.5,1.8,14.4,7.9l0.1,0.2c0,0.1,0.1,0.1,0.1,0.2
		c0.6,2.3,0.6,4.8-0.3,7.1c-1.3,3.7-4.3,6.5-8.1,7.5c-3.7,1-7.7,0.1-10.7-2.4c-1.9-1.5-3.2-3.6-3.8-6C523,174.3,523,174.2,523,174.1
		 M526,181.4c3.3,2.8,7.8,3.8,12,2.6l0.1,0c4.2-1.2,7.6-4.3,9-8.4c0.9-2.6,1-5.3,0.3-7.9c0-0.1-0.1-0.2-0.1-0.3l-0.1-0.2
		c-2.1-6.8-9.3-10.7-16.2-8.8c-6.9,1.9-11,8.9-9.4,15.8l0,0.2c0,0.1,0,0.2,0.1,0.3C522.4,177.3,523.9,179.7,526,181.4"/>
	<path class="st1" d="M536.2,163.3c1.4-0.4,2.8,0.4,3.1,1.8c0.4,1.4-0.4,2.8-1.8,3.1c-1.4,0.4-2.8-0.4-3.1-1.8
		C534,165.1,534.8,163.7,536.2,163.3 M537.9,169.6c2.1-0.6,3.4-2.7,2.8-4.9c-0.6-2.1-2.7-3.4-4.9-2.8c-2.1,0.6-3.4,2.7-2.8,4.9
		C533.6,168.9,535.8,170.2,537.9,169.6 M366.1,50.2c-0.1,0.2-0.1,0.3,0,0.5c-0.1,0.1-0.2,0.3-0.3,0.4l0,0l0-0.2
		c-0.1-0.3-0.3-0.5-0.5-0.5c-0.8-0.2-1.5-0.4-1.5-0.4l-0.9-0.3c-0.3-0.1-0.6,0-0.8,0.2l-0.6,0.7c-0.1,0.1-0.1,0.2-0.2,0.4l-0.3,2.9
		l-0.7-4.6c0-0.3-0.2-0.5-0.5-0.5l-2.3-0.8c-0.2-0.1-0.3-0.2-0.4-0.3c0.2-0.1,0.4-0.1,0.5,0l2.3,0.8c0.2,0.1,0.5,0,0.7-0.2l3.4-3.2
		l-1.5,2.5c-0.1,0.1-0.1,0.3-0.1,0.4l0,0.9c0,0.3,0.2,0.5,0.5,0.6l0.9,0.3c0,0,0.7,0.3,1.5,0.6c0.2,0.1,0.5,0.1,0.7-0.1L366.1,50.2
		L366.1,50.2L366.1,50.2z M366.7,47.9l-1.2,1.1c-0.4-0.2-0.8-0.3-1.2-0.5l-0.5-0.2l0-0.2l2.1-3.5c0.2-0.3,0.1-0.8-0.2-1
		c0,0-0.1,0-0.1-0.1l-1.1-0.4c-0.2-0.1-0.5,0-0.7,0.2l-3.8,3.6l-1.9-0.7c-1-0.3-1.9,0.1-2.3,0.5c-0.2,0.2-0.3,0.4-0.2,0.7
		c0.1,0.5,0.6,1.5,1.6,1.8l1.9,0.7l0.8,5.2c0,0.3,0.2,0.5,0.5,0.6l1.1,0.4c0.4,0.1,0.8-0.1,0.9-0.4c0,0,0-0.1,0-0.1l0.5-4l0.2-0.2
		l0.5,0.2c0,0,0.5,0.2,1.2,0.3l0.3,1.6c0.1,0.2,0.2,0.4,0.5,0.5l0.6,0.2c0.2,0.1,0.4,0,0.6-0.1c0.2-0.1,0.3-0.3,0.3-0.5l0.3-1.5
		c0.4,0,0.6-0.1,0.8-0.2c0.2-0.1,0.3-0.2,0.4-0.4c0.1-0.2,0-0.4,0-0.5c-0.1-0.2-0.3-0.4-0.6-0.6l0.7-1.3c0,0,0-0.1,0-0.1
		c0.1-0.4,0-0.8-0.4-0.9c0,0,0,0,0,0l-0.2-0.1c0,0-0.1,0-0.1,0l-0.3-0.1C367.1,47.7,366.8,47.7,366.7,47.9L366.7,47.9z M384.8,32.1
		l-0.4-1.2l31.4-10.5l0.4,1.2L384.8,32.1L384.8,32.1z M417.7,21.8l-0.8-2.5c-0.1-0.4-0.5-0.6-0.9-0.4c0,0,0,0,0,0l-32.7,11
		c-0.4,0.1-0.6,0.5-0.4,0.9c0,0,0,0,0,0l0.8,2.5c0.1,0.4,0.5,0.6,0.9,0.4c0,0,0,0,0,0l32.7-11C417.6,22.6,417.8,22.2,417.7,21.8
		C417.7,21.8,417.7,21.8,417.7,21.8L417.7,21.8z"/>
	<path class="st1" d="M389,50.6l-6.6,2.2l-11.8-35l48.2-16.2l11.8,35L389,50.6L389,50.6z M379.3,53.8L367.6,19l1.8-0.6l11.7,34.8
		L379.3,53.8z M351.9,63l-11.8-35l26.1-8.7l11.8,35L351.9,63z M419.9,0.5c-0.1-0.4-0.5-0.6-0.9-0.4c0,0,0,0,0,0l-80,26.8
		c-0.4,0.1-0.6,0.5-0.4,0.9c0,0,0,0,0,0l12.2,36.4c0.1,0.4,0.5,0.6,0.9,0.4c0,0,0,0,0,0l27.4-9.2l3.1-1l7.3-2.4l42.2-14.2
		c0.4-0.1,0.6-0.5,0.4-0.9L419.9,0.5L419.9,0.5z"/>
	<path class="st1" d="M352.6,42.2l-3.7-11.2l13.2-4.4l3.7,11.2L352.6,42.2z M362.3,25.1L347.8,30c-0.4,0.1-0.6,0.5-0.4,0.9l4.2,12.5
		c0.1,0.4,0.5,0.6,0.9,0.4c0,0,0,0,0,0l14.5-4.9c0.4-0.1,0.6-0.5,0.4-0.9l-4.2-12.5C363.1,25.2,362.7,25,362.3,25.1L362.3,25.1z
		 M382.2,24.3l-0.4-1.2l31.4-10.5l0.4,1.2L382.2,24.3L382.2,24.3z M415.1,14l-0.8-2.5c-0.1-0.4-0.5-0.6-0.9-0.4c0,0,0,0,0,0
		l-32.7,11c-0.4,0.1-0.6,0.5-0.4,0.9c0,0,0,0,0,0l0.8,2.5c0.1,0.4,0.5,0.6,0.9,0.4c0,0,0,0,0,0l32.7-11
		C415,14.7,415.2,14.3,415.1,14L415.1,14z M418.7,29.1l0.4,1.2l-31.4,10.5l-0.4-1.2C387.3,39.6,418.7,29.1,418.7,29.1z M385.8,39.4
		l0.8,2.5c0.1,0.4,0.5,0.6,0.9,0.4c0,0,0,0,0,0l32.7-11c0.4-0.1,0.6-0.5,0.4-0.9l-0.8-2.5c-0.1-0.4-0.5-0.6-0.9-0.4c0,0,0,0,0,0
		l-32.7,11C385.8,38.7,385.6,39.1,385.8,39.4C385.8,39.4,385.8,39.4,385.8,39.4L385.8,39.4z M325.3,68.4v8.4h-9.1v1.4h9.1v8.4h1.4
		v-8.4h9.1v-1.4h-9.1v-8.4H325.3z M482,98.5v8.4h-9.1v1.4h9.1v8.4h1.4v-8.4h9.1v-1.4h-9.1v-8.4H482z M344.6,146.4l2.1-3.8l2.1,3.8
		l3.8,2.1l-3.8,2.1l-2.1,3.8l-2.1-3.8l-3.8-2.1L344.6,146.4z M343.6,151.6l3.1,5.7l3.1-5.7l5.7-3.1l-5.7-3.1l-3.1-5.7l-3.1,5.7
		l-5.7,3.1L343.6,151.6L343.6,151.6z M365.5,125l-2.1,3.8l-2.1-3.8l-3.8-2.1l3.8-2.1l2.1-3.8l2.1,3.8l3.8,2.1L365.5,125L365.5,125z
		 M363.4,114.1l-3.1,5.7l-5.7,3.1l5.7,3.1l3.1,5.7l3.1-5.7l5.7-3.1l-5.7-3.1L363.4,114.1z M322,180.6l0.4,1.6l-5.1,1.4l-0.4-1.6
		L322,180.6L322,180.6z M316.2,185l0.1,0.3l7.8-2.1l-1.2-4.3l-7.8,2.1L316.2,185L316.2,185z M318.3,35.2l-2.1,3.8l0,0l-2.1-3.8
		l-3.8-2.1l3.8-2.1l2.1-3.8l0,0l2.1,3.8l3.8,2.1L318.3,35.2L318.3,35.2z M316.2,24.3l-3.1,5.7l-5.7,3.1l5.7,3.1l3.1,5.7l0,0l3.1-5.7
		l5.7-3.1l-5.7-3.1L316.2,24.3L316.2,24.3z"/>
	<path class="st1" d="M358.1,246.7c-0.2-0.2-0.4-0.5-0.5-0.8l-16.2-47.2c-0.2-0.7-0.1-1.5,0.4-2.1c0.2-0.2,0.4-0.4,0.7-0.6
		c0.1-0.1,0.3-0.1,0.4-0.2c0,0,0,0,0,0l0.7-0.2l0,0.1l11.3-3.9l2.5,7.2c-0.2,0.7-0.2,1.5,0,2.3l1,2.8c0.3,0.7,0.8,1.4,1.4,1.8
		l12.8,37.3l-12,4.1c-0.3,0.1-0.6,0.1-0.9,0.1C359,247.4,358.5,247.2,358.1,246.7L358.1,246.7z M362.7,189.2l2.2,6.5l0.1,0.4
		c-0.2-0.1-0.5-0.1-0.7-0.1c-0.3,0-0.6,0-1,0.1l-3.6,1.3c-0.3,0.1-0.6,0.3-0.8,0.5c-0.2,0.1-0.4,0.3-0.5,0.5l-2.4-6.9L362.7,189.2z
		 M364.9,178c0.3-0.8,0.7-1.6,1.2-2.2c1.4-2.1,3.2-3.6,5.4-4.3c0.7-0.3,1.5-0.4,2.3-0.5c2.3-0.2,4.7,0.3,7,1.6c1,0.6,2,1.3,2.8,2.1
		c1.4,1.3,2.5,3,3.2,4.7l-3.2,1.1c-0.2-0.5-0.5-1-0.8-1.5c-1.1-1.7-2.7-3.1-4.5-3.9c-0.3-0.1-0.5-0.2-0.8-0.3
		c-1.6-0.6-3.3-0.7-5-0.1l0,0c-3.6,1.2-5.5,5.2-5.5,8.9c0,0.9,0.1,1.7,0.3,2.5l-3.2,1.1C363.5,184.3,363.7,181,364.9,178L364.9,178z
		 M368.7,185.7c-0.9-3.7,0.6-8.6,4.3-9.8l0,0c0.2-0.1,0.4-0.1,0.7-0.2c1.4-0.3,2.9-0.1,4.3,0.7c0.2,0.1,0.5,0.3,0.7,0.4
		c1.6,1,3,2.5,3.7,4.2L368.7,185.7L368.7,185.7z M388.1,180.3l2.5,7.3c-0.2,0.7-0.2,1.5,0,2.3l1,2.8c0.3,0.7,0.7,1.4,1.4,1.8
		l12.8,37.3l-24.2,8.3l-12.8-37.3c0.2-0.7,0.2-1.5,0-2.3l-1-2.8c-0.3-0.7-0.7-1.4-1.4-1.8l-2.5-7.2L388.1,180.3L388.1,180.3z
		 M409.2,173c0.6-0.2,1.2-0.2,1.8,0.1c0.6,0.3,1,0.7,1.2,1.3l16.2,47.2c0.2,0.6,0.2,1.2-0.1,1.8c-0.3,0.6-0.7,1-1.3,1.2l0,0l-12,4.1
		l-12.8-37.3c0.2-0.7,0.2-1.5,0-2.3l-1-2.8c-0.3-0.7-0.8-1.4-1.4-1.8l-2.5-7.4l2-0.7L409.2,173L409.2,173z M407,231.4l-10.7-31.2
		c1.8,1.4,4.4,1.2,5.8-0.6c0,0,0,0,0,0c0.4-0.5,0.7-1.1,0.8-1.7l10.7,31.1L407,231.4L407,231.4z M393.6,187.3l3.6-1.3
		c0.3-0.1,0.7-0.1,1,0l1.7,4.9c-0.1,0.1-0.2,0.3-0.3,0.4c-0.1,0.1-0.3,0.2-0.5,0.3l-1,0.3c0,0,0-0.1,0-0.1l-1-3
		c-0.2-0.5-0.7-0.7-1.2-0.6c-0.2,0.1-0.4,0.2-0.5,0.5c-0.1,0.2-0.1,0.5,0,0.7l1,3c0,0,0,0.1,0.1,0.1l-1,0.3c-0.3,0.1-0.7,0.1-1,0
		l-1.7-4.9C393,187.7,393.2,187.5,393.6,187.3L393.6,187.3z M392.2,186.4l-2.3-6.7l5.4-1.9l2.3,6.8c-0.3,0-0.6,0-1,0.1l-3.6,1.3
		C392.8,186.1,392.5,186.2,392.2,186.4L392.2,186.4z M396.2,198l-1.2-3.5c0.3,0,0.6,0,1-0.1l3.6-1.3c0.3-0.1,0.6-0.3,0.8-0.5
		l1.2,3.5c0.5,1.5-0.3,3.1-1.8,3.7c-0.2,0.1-0.4,0.1-0.6,0.1c-0.6,0.1-1.1,0-1.6-0.3C397,199.3,396.5,198.7,396.2,198L396.2,198z
		 M373.8,242.8l-10.7-31.2c1.6,1.3,3.9,1.2,5.4-0.1c0.5-0.4,0.8-1,1.1-1.6c0.1-0.2,0.1-0.4,0.2-0.6l10.7,31.1L373.8,242.8z
		 M362.2,205.9c0.2,0,0.3-0.1,0.5-0.1l3.6-1.3c0.3-0.1,0.6-0.3,0.8-0.5l1.2,3.5c0.4,1.1,0.1,2.3-0.8,3.1c-0.9,0.8-2.1,1-3.2,0.4
		c-0.7-0.3-1.2-0.9-1.5-1.6l-1.2-3.5C361.9,206,362.1,205.9,362.2,205.9L362.2,205.9z M361.2,204.4c-0.2-0.1-0.4-0.2-0.5-0.3
		c-0.2-0.2-0.3-0.3-0.3-0.5l-1-2.8c-0.1-0.3-0.1-0.6,0-0.9c0-0.1,0.1-0.2,0.1-0.3c0.2-0.3,0.4-0.5,0.8-0.7l3.6-1.3
		c0.2-0.1,0.3-0.1,0.5-0.1c0.2,0,0.3,0,0.5,0.1l1.7,4.9c-0.2,0.3-0.4,0.5-0.8,0.7l-1,0.3c0,0,0-0.1,0-0.1l-1-3
		c-0.2-0.5-0.7-0.7-1.2-0.5c-0.4,0.2-0.7,0.7-0.5,1.1l1,3c0,0,0,0.1,0.1,0.1l-1,0.3C361.9,204.5,361.5,204.5,361.2,204.4z
		 M356.7,247c0.6,1,1.7,1.7,2.8,1.8c0.5,0,0.9,0,1.4-0.2l5-1.7h0l7.7-2.6l7.2-2.5l26.6-9.2l4.8-1.6l15.1-5.2c0,0,0,0,0,0
		c0.9-0.3,1.6-1,2-1.8c0.4-0.9,0.5-1.8,0.2-2.7L413.3,174c-0.3-0.9-1-1.6-1.8-2.1c-0.9-0.4-1.8-0.5-2.7-0.2l-1.5,0.5l0,0l-8.5,3
		l-3.2,1.1l0,0l-6.6,2.3l0,0l-0.8,0.3c-1.2-3.1-3.6-5.8-6.6-7.5c-2.1-1.2-4.3-1.8-6.5-1.8c-0.9,0-1.7,0.1-2.6,0.3
		c-0.4,0.1-0.8,0.2-1.2,0.4c0,0,0,0,0,0c-3.6,1.3-6.4,4.3-7.7,8c-0.6,1.7-0.9,3.4-0.9,5.2c0,1.4,0.2,2.7,0.6,4l-20.7,7.2l0,0
		c-0.5,0.2-0.9,0.4-1.2,0.7c-0.5,0.4-0.9,1-1.1,1.7c-0.2,0.7-0.2,1.4,0.1,2l16.2,47.2c0.1,0.2,0.2,0.4,0.2,0.5
		C356.7,246.9,356.7,247,356.7,247L356.7,247z M176.7,98.2l-5,4.6l-16.4-11.6L195,70.6l6.6,4.6L176.7,98.2z M181.5,111.4
		c0,0,5,3.8,10.3,8.4l7.6,8.6c0,0,0,0,0,0c0,0,0,0,0,0c3,3.2,4.2,5.2,4.6,6.5c-1.3,0-3.6-0.5-7.7-2.2c0,0,0,0,0,0s0,0,0,0l-10.8-4.1
		c-6.2-3.4-11.4-6.8-11.4-6.8l-10.2-7.2h0l-17.7-12.5l-16.5-11.6c-5.1-3.6-5.4-9.9-5.4-11.6c1.6-0.6,7.7-2.4,12.8,1.2l16.5,11.6l0,0
		l17.8,12.6c0,0,0,0,0,0l0,0L181.5,111.4L181.5,111.4z M207.7,113.2l3.4,2.4L200,127l-6.5-7.4L207.7,113.2L207.7,113.2z
		 M188.1,148.2l-3.4-2.4l1.2-15.5l9.3,3.5L188.1,148.2L188.1,148.2z M160.1,121.7l-13.2,31.2l-6.6-4.6l6-44.3l16.3,11.5L160.1,121.7
		L160.1,121.7z M203.4,75.1c0-0.2-0.1-0.4-0.3-0.5l-7.6-5.4c-0.2-0.2-0.5-0.2-0.7-0.1L154,90.3l-16.2-11.4
		c-6.6-4.6-14.3-1.3-14.6-1.2c-0.2,0.1-0.4,0.3-0.4,0.6c0,0.4-0.5,8.7,6,13.3l16.2,11.4l-6.2,45.5c0,0.3,0.1,0.5,0.3,0.7l7.6,5.4
		c0.1,0.1,0.2,0.1,0.3,0.1c0.3,0,0.6-0.1,0.7-0.4l13.6-32l2.4-5.9l9.5,6.7c0.1,0,5.1,3.3,11.2,6.7l-1.3,16.4c0,0.2,0.1,0.5,0.3,0.6
		l4.4,3.1c0.2,0.1,0.4,0.2,0.6,0.1c0.2-0.1,0.4-0.2,0.5-0.4l7.5-15.2c4,1.6,6.8,2.3,8.6,2c0.4-0.1,0.7-0.4,0.6-0.8c0,0,0-0.1,0-0.1
		c-0.4-1.8-1.9-4.2-4.7-7.3l11.7-12.1c0.3-0.3,0.3-0.7,0-1c0,0-0.1-0.1-0.1-0.1l-4.4-3.1c-0.2-0.1-0.5-0.2-0.7-0.1l-15,6.7
		c-3.3-2.9-6.7-5.6-10.1-8.3l-9.5-6.6l30.3-28C203.3,75.5,203.4,75.3,203.4,75.1L203.4,75.1z"/>
	<path class="st1" d="M129.1,88c0-0.1-0.1-0.1-0.1-0.2c-0.7-0.7-0.8-1.8-0.5-2.7c0.7-1.7,1.8-3.1,3.1-4.4c0.5-0.5,1.3-0.7,2-0.7
		c0.2,0,0.5,0.1,0.7,0.2l0.2,0.1C131.7,82.1,129.8,84.8,129.1,88 M134.8,79c-1.4-0.6-3.1-0.3-4.2,0.7c-1.5,1.4-2.6,3-3.4,4.8
		c-0.6,1.4-0.3,3,0.7,4.2c0.4,0.4,0.8,0.8,1.2,1.2c0.2,0.2,0.5,0.2,0.7,0.1c0.2-0.1,0.4-0.3,0.4-0.6c0.3-3.7,2.5-6.9,5.9-8.4
		c0.4-0.2,0.5-0.6,0.4-0.9c-0.1-0.1-0.2-0.2-0.3-0.3C135.9,79.5,135.4,79.3,134.8,79 M234.3,67.3c-3.2-4.9-18.2-28-18.4-36.7
		c-0.2-9.6,7.4-17.7,17.1-17.9c9.6-0.2,17.7,7.4,17.9,17.1C251.1,38.5,237.3,62.3,234.3,67.3 M232.9,11.3
		c-10.4,0.3-18.7,8.9-18.4,19.3c0.2,10.1,18.5,37.2,19.2,38.4l0.6,0.9l0.6-0.9c0.7-1.2,17.6-29.1,17.3-39.3
		C252,19.3,243.3,11.1,232.9,11.3"/>
	<path class="st1" d="M233.7,41.4c-6.2,0.2-11.3-4.7-11.5-10.9c-0.1-6.2,4.7-11.3,10.9-11.5c6.2-0.1,11.3,4.7,11.5,10.9
		C244.7,36.1,239.8,41.2,233.7,41.4 M233.1,17.6c-6.9,0.2-12.4,5.9-12.3,12.9s5.9,12.4,12.9,12.3c6.9-0.2,12.4-6,12.3-12.9
		C245.8,22.9,240,17.4,233.1,17.6 M277.6,73.5c0.3-0.1,0.5-0.4,0.5-0.8c-0.1-0.3-0.3-0.6-0.7-0.6h-1c-1.3,0-2.3-1-2.3-2.3
		c0-1.3,1-2.3,2.3-2.3h3.9c0.4,0,0.7-0.3,0.7-0.7c0-0.3-0.2-0.5-0.4-0.6c-3.3-1.6-5.4-4.9-5.4-8.6c0-5.3,4.3-9.6,9.6-9.6
		c5.3,0,9.6,4.3,9.6,9.6c0,3.7-2.1,7-5.4,8.6c-0.3,0.2-0.5,0.6-0.3,0.9c0.1,0.2,0.4,0.4,0.6,0.4h3.9c1.3,0,2.3,1,2.3,2.3
		c0,1.3-1,2.3-2.3,2.3H293c-0.4,0-0.7,0.3-0.7,0.7c0,0.3,0.2,0.6,0.5,0.7c9.8,3.3,16.4,12.4,16.4,22.8c0,13.2-10.8,24-24,24
		c-13.2,0-24-10.8-24-24C261.2,86,267.8,76.8,277.6,73.5 M259.8,96.3c0,14,11.4,25.4,25.4,25.4c14,0,25.4-11.4,25.4-25.4
		c0-10.2-6.1-19.4-15.4-23.3c1.7-1.1,2.2-3.5,1-5.2c-0.7-1-1.9-1.7-3.1-1.7h-1.5c2.6-2.1,4.1-5.2,4.1-8.5c0-6-4.9-11-11-11
		c-6,0-11,4.9-11,11c0,3.4,1.5,6.5,4.1,8.5h-1.5c-2.1,0-3.7,1.7-3.7,3.7c0,1.5,0.8,2.7,2.1,3.3C265.6,77.3,259.8,86.3,259.8,96.3"/>
	<path class="st1" d="M284.7,53.6c2.2,0,4,1.8,4,4c0,2.2-1.8,4-4,4c-2.2,0-4-1.8-4-4C280.8,55.4,282.5,53.6,284.7,53.6 M284.7,62.9
		c3,0,5.4-2.4,5.4-5.4c0-3-2.4-5.4-5.4-5.4c-3,0-5.4,2.4-5.4,5.4C279.4,60.5,281.8,62.9,284.7,62.9 M285.9,80.2
		c9,0,16.3,7.3,16.3,16.3c0,9-7.3,16.3-16.3,16.3c-9,0-16.3-7.3-16.3-16.3C269.6,87.5,276.9,80.2,285.9,80.2 M285.9,114.2
		c9.8,0,17.7-7.9,17.7-17.7c0-9.8-7.9-17.7-17.7-17.7s-17.7,7.9-17.7,17.7C268.2,106.3,276.1,114.2,285.9,114.2"/>
	<path class="st1" d="M286,88.4c0.9,2.3,2,5.6,2,6.9c0,1.9-0.9,3.5-2,3.5c-1.1,0-2-1.6-2-3.5C284,94,285.1,90.7,286,88.4 M286,100.2
		c1.9,0,3.4-2.1,3.4-4.9c0-2.4-2.6-8.9-2.7-9.1l-0.6-1.6l-0.6,1.6c-0.1,0.3-2.7,6.7-2.7,9.1C282.6,98.1,284.1,100.2,286,100.2
		 M208.5,137.5c-0.3,0.6,0,1.4,0.6,1.6c1.4,0.6,2.8,1.4,4.1,2.2c0.6,0.4,1.3,0.2,1.7-0.3c0,0,0,0,0,0c0.4-0.6,0.2-1.3-0.3-1.7
		c0,0,0,0,0,0c-1.4-0.9-2.9-1.8-4.5-2.5C209.5,136.6,208.8,136.9,208.5,137.5 M218.7,142.5c-0.5-0.5-1.3-0.4-1.8,0.1c0,0,0,0,0,0
		c-0.5,0.5-0.4,1.3,0.1,1.8c1.2,1.1,2.2,2.2,3.2,3.5c0.4,0.5,1.2,0.6,1.7,0.2c0.5-0.4,0.6-1.2,0.2-1.7
		C221.1,144.9,219.9,143.7,218.7,142.5 M226.5,165.2c0,0.7,0.6,1.2,1.2,1.2h0c0.7,0,1.2-0.6,1.2-1.3c0-1.7-0.2-3.4-0.5-5.1
		c-0.1-0.7-0.8-1.1-1.5-1c-0.7,0.1-1.1,0.8-1,1.5l0,0c0.1,0.7,0.2,1.3,0.3,2C226.4,163.4,226.5,164.3,226.5,165.2 M225.8,176
		c0.7,0.2,1.4-0.1,1.6-0.8c0,0,0,0,0,0c0.5-1.6,0.9-3.3,1.2-5c0.1-0.7-0.4-1.3-1.1-1.4c-0.6-0.1-1.2,0.4-1.4,1
		c-0.2,1.5-0.6,3.1-1.1,4.6C224.8,175.1,225.2,175.8,225.8,176 M214.1,189.4c-0.6,0.4-0.7,1.2-0.3,1.7c0.4,0.5,1.1,0.7,1.7,0.3
		c1.4-1,2.7-2.1,3.9-3.3c0.5-0.5,0.5-1.3,0-1.8s-1.3-0.5-1.8,0l0,0C216.6,187.5,215.4,188.5,214.1,189.4 M221.1,184.6
		c0.6,0.4,1.3,0.3,1.7-0.3c0,0,0,0,0,0c1-1.4,1.9-2.8,2.7-4.4c0.3-0.6,0.1-1.4-0.5-1.7c0,0,0,0,0,0c-0.6-0.3-1.4-0.1-1.7,0.5
		c0,0,0,0,0,0c-0.7,1.4-1.5,2.7-2.5,4C220.4,183.4,220.5,184.2,221.1,184.6C221.1,184.6,221.1,184.6,221.1,184.6 M210,192.1
		c-1.3,0.8-2.8,1.9-4.1,3c-0.5,0.5-0.6,1.2-0.1,1.8c0.5,0.5,1.2,0.6,1.8,0.1c1.2-1.1,2.6-2,3.8-2.8c0.6-0.4,0.7-1.1,0.4-1.7
		C211.4,191.9,210.6,191.7,210,192.1L210,192.1 M204.3,198.8c-0.6-0.3-1.4-0.1-1.7,0.5l-0.2,0.4c-0.7,1.5-1.1,3.1-1.2,4.9
		c0,0.7,0.5,1.3,1.2,1.3h0c0.7,0,1.2-0.5,1.2-1.2c0-1.4,0.4-2.7,0.9-3.9l0.1-0.3C205.1,199.8,204.9,199.1,204.3,198.8 M223.3,150
		c-0.6,0.3-0.8,1.1-0.5,1.7c0.8,1.4,1.4,2.8,2,4.3c0.2,0.6,1,1,1.6,0.7c0.6-0.2,1-1,0.7-1.6c-0.6-1.6-1.3-3.2-2.1-4.6
		C224.6,149.9,223.9,149.7,223.3,150 M309.3,144.4c0.6-0.2,1.2-0.1,1.7,0.2c0.5,0.3,0.9,0.8,1,1.3c0.2,0.6,0.1,1.2-0.2,1.7
		c-0.3,0.5-0.8,0.9-1.4,1c-1.2,0.3-2.4-0.4-2.7-1.6c-0.1-0.6-0.1-1.2,0.2-1.7C308.2,144.9,308.7,144.5,309.3,144.4
		C309.3,144.4,309.3,144.4,309.3,144.4 M308.9,143c-0.9,0.2-1.7,0.9-2.2,1.7c-0.5,0.8-0.6,1.8-0.3,2.7c0.5,1.9,2.5,3,4.4,2.5l0,0
		c0.9-0.3,1.7-0.9,2.2-1.7c0.5-0.8,0.6-1.8,0.3-2.7c-0.3-0.9-0.9-1.7-1.7-2.2C310.8,142.9,309.8,142.8,308.9,143L308.9,143
		 M272.4,174.9c-2-8.3,2.8-16.6,11.1-18.9l0.1,0c8.2-2.2,16.6,2.4,19.1,10.6l0.1,0.4c0.6,2.3,0.7,4.7,0.3,7.1
		c-1.1,5.9-5.5,10.6-11.3,12.2c-5.8,1.6-11.9-0.2-15.9-4.8c-1.6-1.8-2.7-3.9-3.4-6.2L272.4,174.9L272.4,174.9z M292.1,187.7
		L292.1,187.7c6.4-1.8,11.1-6.8,12.3-13.3c0.5-2.6,0.4-5.2-0.3-7.7c0-0.1-0.1-0.2-0.1-0.3l-0.1-0.2c-2.7-8.9-11.8-14-20.8-11.6
		l-0.1,0c-9,2.5-14.3,11.5-12.1,20.5l0,0.2c0,0.1,0,0.2,0.1,0.3v0c0.7,2.5,1.9,4.8,3.7,6.8C279.2,187.4,285.8,189.4,292.1,187.7
		L292.1,187.7z"/>
	<path class="st1" d="M313.8,139.2c1.1,0.6,2,1.6,2.4,2.8c0.1,0.2,0.2,0.4,0.2,0.6l5,18.2l-5.2,1.4l-10.3,2.8l0.3,1.1
		c0.6,2.3,0.8,4.7,0.6,7.1l-0.1,1l9.5-2.6l7.6-2.1l2.1,7.6c0.6,2.2,0.3,4.6-0.8,6.7c-1.2,2-3.1,3.5-5.3,4.1l-3.5,0.9l-47.8,12.8
		c-4.6,1.2-9.4-1.5-10.7-6.1l-2-7.4l17.1-4.7l-0.6-0.8c-1.1-1.4-1.9-3-2.6-4.7c-0.2-0.6-0.4-1.1-0.5-1.7c0-0.1,0-0.1,0-0.2l-0.2-0.9
		l-15.5,4.2l-5-18.1c-0.8-3,0.9-6.1,3.9-6.9l0,0l16.5-4.4l0-0.1l40.8-11.2l0,0C311,138.3,312.5,138.5,313.8,139.2L313.8,139.2z
		 M323.4,168.2l-7.2,2l-7.9,2.2c0.1-2.1-0.1-4.3-0.6-6.3l8.5-2.3l5.6-1.5L323.4,168.2L323.4,168.2z M253.7,180.7l14.1-3.9
		c0.6,2,1.5,4,2.7,5.8l-15.1,4.1L253.7,180.7z M267,146l0.8,2.8l-15.8,4.2l0.1,0.5l-0.1-0.5h0l-0.9,0.3l-0.7-2.7L267,146z
		 M248.6,149.6l1.2,4.4c-2.4,1.7-3.5,4.7-2.7,7.6l9.4,34.2c1.1,4,4.5,6.8,8.4,7.4c1.3,0.2,2.7,0.1,4-0.3l47.4-12.8l3.9-1
		c1.9-0.5,3.7-1.6,5-3.1c0.4-0.5,0.8-1.1,1.2-1.6c1.3-2.3,1.7-5.1,1-7.7l-2.5-8.9l0,0l-1.6-6h0l-5.3-19.5c-0.3-1.1-0.8-2-1.6-2.8
		c-0.5-0.6-1.1-1.1-1.7-1.4c-1.6-0.9-3.5-1.1-5.3-0.7l-40.1,11l-1.1-4L248.6,149.6L248.6,149.6z"/>
	<path class="st1" d="M260.7,159.3l0.4,1.6l-5.1,1.4l-0.4-1.6L260.7,159.3L260.7,159.3z M262.8,161.9l-1.2-4.3l-7.8,2.1l1.2,4.3
		L262.8,161.9L262.8,161.9z M276.2,174.1l0-0.2c-1.5-6.2,2.3-12.5,8.4-14.1l0.1,0c6.1-1.7,12.5,1.8,14.4,7.9l0.1,0.2
		c0,0.1,0.1,0.1,0.1,0.2c0.6,2.3,0.6,4.8-0.3,7.1c-1.3,3.7-4.3,6.5-8.1,7.5l-0.1,0c-3.7,1-7.7,0.1-10.7-2.4c-1.9-1.5-3.2-3.6-3.8-6
		C276.2,174.3,276.2,174.2,276.2,174.1 M279.2,181.4c3.3,2.8,7.8,3.8,12,2.6c0,0,0,0,0.1,0c4.2-1.2,7.6-4.3,9-8.4
		c0.9-2.6,1-5.3,0.3-7.9c0-0.1-0.1-0.2-0.1-0.3l-0.1-0.2c-2.1-6.8-9.3-10.7-16.2-8.8c-6.9,1.9-11,8.9-9.4,15.8l0,0.2
		c0,0.1,0,0.2,0.1,0.3C275.6,177.3,277.1,179.7,279.2,181.4"/>
	<path class="st1" d="M289.4,163.3c1.4-0.4,2.8,0.4,3.1,1.8c0.4,1.4-0.4,2.8-1.8,3.1c-1.4,0.4-2.8-0.4-3.1-1.8
		C287.2,165.1,288,163.7,289.4,163.3 M291.1,169.6c2.1-0.6,3.4-2.7,2.8-4.9c-0.6-2.1-2.7-3.4-4.9-2.8c-2.1,0.6-3.4,2.7-2.8,4.9
		C286.8,168.9,289,170.2,291.1,169.6 M119.4,50.2c-0.1,0.2-0.1,0.3,0,0.5c-0.1,0.1-0.2,0.3-0.3,0.4l0,0l0-0.2
		c-0.1-0.3-0.3-0.5-0.5-0.5c-0.5-0.1-1-0.2-1.5-0.4l-0.9-0.3c-0.3-0.1-0.6,0-0.8,0.2l-0.6,0.7c-0.1,0.1-0.1,0.2-0.2,0.4l-0.3,2.9
		l-0.7-4.6c0-0.3-0.2-0.5-0.5-0.5l-2.3-0.8c-0.2-0.1-0.3-0.2-0.4-0.3c0.2-0.1,0.4-0.1,0.5,0l2.3,0.8c0.2,0.1,0.5,0,0.7-0.2l3.4-3.2
		l-1.5,2.5c-0.1,0.1-0.1,0.3-0.1,0.4l0,0.9c0,0.3,0.2,0.5,0.5,0.6l0.9,0.3c0,0,0.7,0.3,1.5,0.6c0.2,0.1,0.5,0.1,0.7-0.1L119.4,50.2
		L119.4,50.2L119.4,50.2z M119.9,47.9l-1.2,1.1c-0.4-0.2-0.8-0.3-1.2-0.5l-0.5-0.2l0-0.2l2.1-3.5c0.2-0.3,0.1-0.8-0.2-1
		c0,0-0.1,0-0.1-0.1l-1.1-0.4c-0.2-0.1-0.5,0-0.7,0.2l-3.8,3.6l-1.9-0.7c-1-0.3-1.9,0.1-2.3,0.5c-0.2,0.2-0.3,0.4-0.2,0.7
		c0.1,0.5,0.6,1.5,1.6,1.8l1.9,0.7l0.8,5.2c0,0.3,0.2,0.5,0.5,0.6l1.1,0.4c0.4,0.1,0.8-0.1,0.9-0.4c0,0,0-0.1,0-0.1l0.5-4l0.2-0.2
		l0.5,0.2c0,0,0.5,0.2,1.2,0.3l0.3,1.6c0.1,0.2,0.2,0.4,0.5,0.5l0.6,0.2c0.2,0.1,0.4,0,0.6-0.1c0.2-0.1,0.3-0.3,0.3-0.5l0.3-1.5
		c0.4,0,0.6-0.1,0.8-0.2c0.3-0.2,0.5-0.6,0.3-0.9c0,0,0,0,0,0c-0.1-0.2-0.3-0.4-0.6-0.6l0.7-1.3c0.1-0.2,0.1-0.4,0-0.6
		c-0.1-0.2-0.2-0.3-0.4-0.4l-0.2-0.1c0,0-0.1,0-0.1,0l-0.3-0.1C120.3,47.7,120.1,47.7,119.9,47.9L119.9,47.9z M138,32.1l-0.4-1.2
		L169,20.4l0.4,1.2L138,32.1z M170.9,21.8l-0.8-2.5c-0.1-0.4-0.5-0.6-0.9-0.4l-32.7,11c-0.4,0.1-0.6,0.5-0.4,0.9l0.8,2.5
		c0.1,0.4,0.5,0.6,0.9,0.4c0,0,0,0,0,0l32.7-11C170.9,22.6,171.1,22.2,170.9,21.8C170.9,21.8,170.9,21.8,170.9,21.8L170.9,21.8z"/>
	<path class="st1" d="M142.2,50.6l-6.6,2.2l-11.8-35L172,1.6l11.8,35L142.2,50.6L142.2,50.6z M132.5,53.8L120.8,19l1.8-0.6
		l11.7,34.8L132.5,53.8z M105.1,63L93.4,28l26.1-8.7l11.8,35L105.1,63z M173.1,0.5c-0.1-0.4-0.5-0.6-0.9-0.4l-80,26.8
		c-0.4,0.1-0.6,0.5-0.4,0.9c0,0,0,0,0,0L104,64.1c0.1,0.4,0.5,0.6,0.9,0.4c0,0,0,0,0,0l27.4-9.2l3.1-1l7.3-2.4l42.2-14.2
		c0.4-0.1,0.6-0.5,0.4-0.9L173.1,0.5L173.1,0.5z"/>
	<path class="st1" d="M105.9,42.2l-3.7-11.2l13.2-4.4l3.7,11.2L105.9,42.2z M115.5,25.1L101,30c-0.4,0.1-0.6,0.5-0.4,0.9
		c0,0,0,0,0,0l4.2,12.5c0.1,0.4,0.5,0.6,0.9,0.4c0,0,0,0,0,0l14.5-4.9c0.4-0.1,0.6-0.5,0.4-0.9l-4.2-12.5
		C116.3,25.2,115.9,25,115.5,25.1L115.5,25.1z M135.4,24.3l-0.4-1.2l31.4-10.5l0.4,1.2L135.4,24.3z M168.3,14l-0.8-2.5
		c-0.1-0.4-0.5-0.6-0.9-0.4l-32.7,11c-0.4,0.1-0.6,0.5-0.4,0.9l0.8,2.5c0.1,0.4,0.5,0.6,0.9,0.4c0,0,0,0,0,0l32.7-11
		C168.2,14.7,168.4,14.3,168.3,14C168.3,14,168.3,14,168.3,14z M171.9,29.1l0.4,1.2l-31.4,10.5l-0.4-1.2
		C140.5,39.6,171.9,29.1,171.9,29.1z M139,39.4l0.8,2.5c0.1,0.4,0.5,0.6,0.9,0.4l32.7-11c0.4-0.1,0.6-0.5,0.4-0.9L173,28
		c-0.1-0.4-0.5-0.6-0.9-0.4c0,0,0,0,0,0l-32.7,11C139.1,38.7,138.9,39.1,139,39.4C139,39.4,139,39.4,139,39.4z M78.5,68.4v8.4h-9.1
		v1.4h9.1v8.4h1.4v-8.4H89v-1.4h-9.1v-8.4H78.5z M235.2,98.5v8.4h-9.1v1.4h9.1v8.4h1.4v-8.4h9.1v-1.4h-9.1v-8.4H235.2z M97.8,146.4
		l2.1-3.8l2.1,3.8l3.8,2.1l-3.8,2.1l-2.1,3.8l-2.1-3.8l-3.8-2.1L97.8,146.4z M96.8,151.6l3.1,5.7l3.1-5.7l5.7-3.1l-5.7-3.1l-3.1-5.7
		l-3.1,5.7l-5.7,3.1L96.8,151.6L96.8,151.6z M118.7,125l-2.1,3.8l-2.1-3.8l-3.8-2.1l3.8-2.1l2.1-3.8l2.1,3.8l3.8,2.1L118.7,125
		L118.7,125z M116.6,114.1l-3.1,5.7l-5.7,3.1l5.7,3.1l3.1,5.7l3.1-5.7l5.7-3.1l-5.7-3.1L116.6,114.1L116.6,114.1z M75.2,180.6
		l0.4,1.6l-5.1,1.4l-0.4-1.6L75.2,180.6z M69.4,185l0.1,0.3l7.8-2.1l-1.2-4.3l-7.8,2.1L69.4,185L69.4,185L69.4,185z M71.5,35.2
		L69.5,39l0,0l-2.1-3.8l-3.8-2.1l3.8-2.1l2.1-3.8l0,0l2.1,3.8l3.8,2.1L71.5,35.2L71.5,35.2z M69.4,24.3L66.3,30l-5.7,3.1l5.7,3.1
		l3.1,5.7l0,0l3.1-5.7l5.7-3.1L72.6,30L69.4,24.3L69.4,24.3z"/>
	<path class="st1" d="M111.3,246.7c-0.2-0.2-0.4-0.5-0.5-0.8l-16.2-47.2c-0.2-0.7-0.1-1.5,0.4-2.1c0.2-0.2,0.4-0.4,0.7-0.6
		c0.1-0.1,0.3-0.1,0.4-0.2c0,0,0,0,0,0l0.7-0.2l0,0.1l11.3-3.9l2.5,7.2c-0.2,0.7-0.2,1.5,0,2.3l1,2.8c0.3,0.7,0.8,1.4,1.4,1.8
		l12.8,37.3l-12,4.1c-0.3,0.1-0.6,0.1-0.9,0.1C112.3,247.4,111.7,247.2,111.3,246.7L111.3,246.7z M116,189.2l2.2,6.5l0.1,0.4
		c-0.2-0.1-0.5-0.1-0.7-0.1c-0.3,0-0.6,0-1,0.1l-3.6,1.3c-0.3,0.1-0.6,0.3-0.8,0.5c-0.2,0.1-0.4,0.3-0.5,0.5l-2.4-6.9L116,189.2z
		 M118.1,178c0.3-0.8,0.7-1.6,1.2-2.2c1.4-2.1,3.2-3.6,5.4-4.3c0.7-0.3,1.5-0.4,2.3-0.5c2.3-0.2,4.7,0.3,7,1.6c1,0.6,2,1.3,2.8,2.1
		c1.4,1.3,2.5,3,3.2,4.7l-3.2,1.1c-0.2-0.5-0.5-1-0.8-1.5c-1.1-1.7-2.7-3.1-4.5-3.9c-0.3-0.1-0.5-0.2-0.8-0.3
		c-1.6-0.6-3.3-0.7-5-0.1l0,0c-3.6,1.2-5.5,5.2-5.5,8.9c0,0.3,0,0.6,0,0.9c0,0.6,0.1,1.1,0.3,1.7l-3.2,1.1
		C116.7,184.3,116.9,181,118.1,178L118.1,178z M121.9,185.7c-0.9-3.7,0.6-8.6,4.3-9.8c0.2-0.1,0.5-0.1,0.7-0.2
		c1.4-0.3,2.9-0.1,4.3,0.7c0.2,0.1,0.5,0.3,0.7,0.4c1.6,1,3,2.5,3.7,4.2L121.9,185.7L121.9,185.7z M141.4,180.3l2.5,7.3
		c-0.2,0.7-0.2,1.5,0,2.3l1,2.8c0.3,0.7,0.8,1.4,1.4,1.8l12.8,37.3l-24.2,8.3L122,202.9c0.2-0.6,0.2-1.1,0.1-1.7
		c0-0.2-0.1-0.4-0.1-0.6l-1-2.8c-0.3-0.7-0.7-1.4-1.4-1.8l-2.5-7.2L141.4,180.3z M162.4,173c0.6-0.2,1.2-0.2,1.8,0.1
		c0.6,0.3,1,0.7,1.2,1.3l16.2,47.2c0.2,0.6,0.2,1.2-0.1,1.8c-0.3,0.6-0.7,1-1.3,1.2c0,0,0,0,0,0l-12,4.1l-12.8-37.3
		c0.1-0.4,0.2-0.8,0.2-1.1c0-0.4-0.1-0.8-0.2-1.1l-1-2.8c-0.3-0.7-0.8-1.4-1.4-1.8l-2.5-7.4l2-0.7L162.4,173L162.4,173z
		 M160.3,231.4l-10.7-31.2c1.8,1.4,4.4,1.2,5.8-0.6c0,0,0,0,0,0c0.4-0.5,0.7-1.1,0.8-1.7l10.7,31.1L160.3,231.4L160.3,231.4z
		 M146.8,187.3l3.6-1.3c0.3-0.1,0.7-0.1,1,0l1.7,4.9c-0.1,0.1-0.2,0.3-0.3,0.4c-0.1,0.1-0.3,0.2-0.5,0.3l-1,0.3c0,0,0-0.1,0-0.1
		l-1-3c-0.2-0.5-0.7-0.7-1.2-0.5c-0.4,0.2-0.7,0.7-0.5,1.1l1,3c0,0,0,0.1,0.1,0.1l-1,0.3c-0.3,0.1-0.7,0.1-1,0L146,188
		C146.2,187.7,146.4,187.5,146.8,187.3L146.8,187.3z M145.5,186.4l-2.3-6.7l5.4-1.9l2.3,6.8c-0.3,0-0.6,0-1,0.1l-3.6,1.3
		C146,186.1,145.7,186.2,145.5,186.4L145.5,186.4z M149.4,198l-1.2-3.5c0.3,0,0.6,0,1-0.1l3.6-1.3c0.3-0.1,0.6-0.3,0.8-0.5l1.2,3.5
		c0.5,1.5-0.3,3.1-1.8,3.7c-0.2,0.1-0.4,0.1-0.6,0.1c-0.6,0.1-1.1,0-1.6-0.3C150.2,199.3,149.7,198.7,149.4,198L149.4,198z
		 M127,242.8l-10.7-31.2c1.6,1.3,3.9,1.2,5.4-0.1c0.5-0.4,0.8-1,1.1-1.6c0.1-0.2,0.1-0.4,0.2-0.6l10.7,31.1L127,242.8z M115.5,205.9
		c0.2,0,0.3-0.1,0.5-0.1l3.6-1.3c0.3-0.1,0.6-0.3,0.8-0.5l1.2,3.5c0.4,1.1,0.1,2.3-0.8,3.1c-0.6,0.5-1.3,0.8-2.1,0.7
		c-0.4,0-0.7-0.1-1.1-0.3c-0.7-0.3-1.2-0.9-1.5-1.6L115,206C115.1,206,115.3,205.9,115.5,205.9L115.5,205.9z M114.4,204.4
		c-0.4-0.1-0.7-0.5-0.9-0.9l-1-2.8c-0.1-0.3-0.1-0.6,0-0.9c0-0.1,0.1-0.2,0.1-0.3c0.2-0.3,0.4-0.5,0.8-0.7l3.6-1.3
		c0.2-0.1,0.4-0.1,0.5-0.1c0.2,0,0.3,0,0.5,0.1l1.7,4.9c-0.2,0.3-0.4,0.5-0.8,0.7l-1,0.3c0,0,0-0.1,0-0.1l-1-3
		c-0.2-0.5-0.7-0.7-1.2-0.6c-0.5,0.2-0.7,0.7-0.6,1.2c0,0,0,0,0,0l1,3c0,0,0,0.1,0.1,0.1l-1,0.3
		C115.1,204.5,114.8,204.5,114.4,204.4L114.4,204.4z M109.9,247c0.6,1,1.7,1.7,2.8,1.8c0.5,0,0.9,0,1.4-0.2l5-1.7l7.7-2.6l7.2-2.5
		l26.6-9.2l4.8-1.6l15.1-5.2c0,0,0,0,0,0c0.9-0.3,1.6-1,2-1.8c0.4-0.9,0.5-1.8,0.2-2.7L166.5,174c-0.3-0.9-1-1.6-1.8-2.1
		c-0.9-0.4-1.8-0.5-2.7-0.2l-1.5,0.5l0,0l-8.5,3l-3.2,1.1l0,0l-6.6,2.3l0,0l-0.8,0.3c-1.2-3.1-3.6-5.8-6.6-7.5
		c-2.1-1.2-4.3-1.8-6.5-1.8c-0.9,0-1.7,0.1-2.6,0.3c-0.4,0.1-0.8,0.2-1.2,0.4c0,0,0,0,0,0c-3.6,1.3-6.4,4.3-7.7,8
		c-0.6,1.7-0.9,3.4-0.9,5.2c0,1.4,0.2,2.7,0.6,4l-20.7,7.2l0,0c-0.5,0.2-0.9,0.4-1.2,0.7c-0.5,0.4-0.9,1-1.1,1.7
		c-0.2,0.7-0.2,1.4,0.1,2l16.2,47.2c0.1,0.2,0.1,0.4,0.2,0.5C109.9,246.9,109.9,247,109.9,247L109.9,247z"/>
	<path class="st1" d="M37.9,53.6c2.2,0,4,1.8,4,4c0,2.2-1.8,4-4,4c-2.2,0-4-1.8-4-4C34,55.4,35.8,53.6,37.9,53.6 M37.9,62.9
		c3,0,5.4-2.4,5.4-5.4c0-3-2.4-5.4-5.4-5.4c-3,0-5.4,2.4-5.4,5.4C32.6,60.5,35,62.9,37.9,62.9"/>
	<path class="st1" d="M30.8,73.5c0.4-0.1,0.6-0.5,0.4-0.9c-0.1-0.3-0.4-0.5-0.7-0.5h-1c-1.3,0-2.3-1-2.3-2.3c0-1.3,1-2.3,2.3-2.3
		h3.9c0.4,0,0.7-0.3,0.7-0.7c0-0.3-0.2-0.5-0.4-0.6c-3.3-1.6-5.4-4.9-5.4-8.6c0-5.3,4.3-9.6,9.6-9.6s9.6,4.3,9.6,9.6
		c0,3.7-2.1,7-5.4,8.6c-0.3,0.1-0.4,0.5-0.4,0.8c0.1,0.3,0.4,0.5,0.7,0.5h3.9c1.3,0,2.3,1,2.3,2.3c0,1.3-1,2.3-2.3,2.3h-0.1
		c-0.4,0-0.7,0.3-0.7,0.7c0,0.3,0.2,0.6,0.5,0.7c9.8,3.3,16.4,12.4,16.4,22.8c0,13.2-10.8,24-24,24c-13.2,0-24-10.8-24-24
		C14.4,86,21,76.8,30.8,73.5 M13,96.3c0,14,11.4,25.4,25.4,25.4c14,0,25.4-11.4,25.4-25.4c0-10.2-6.1-19.4-15.4-23.3
		c1-0.7,1.7-1.9,1.7-3.1c0-2.1-1.7-3.7-3.7-3.7h-1.5c2.6-2.1,4.1-5.2,4.1-8.5c0-6-4.9-11-11-11c-6,0-11,4.9-11,11
		c0,3.4,1.5,6.5,4.1,8.5h-1.5c-2.1,0-3.7,1.7-3.7,3.7c0,1.5,0.8,2.7,2.1,3.3C18.8,77.3,13,86.3,13,96.3"/>
	<path class="st1" d="M39.1,80.2c9,0,16.3,7.3,16.3,16.3c0,9-7.3,16.3-16.3,16.3c-9,0-16.3-7.3-16.3-16.3
		C22.8,87.5,30.1,80.2,39.1,80.2 M39.1,114.2c9.8,0,17.7-7.9,17.7-17.7c0-9.8-7.9-17.7-17.7-17.7c-9.8,0-17.7,7.9-17.7,17.7
		C21.4,106.3,29.3,114.2,39.1,114.2"/>
	<path class="st1" d="M39.2,88.4c0.9,2.3,2,5.6,2,6.9c0,1.9-0.9,3.5-2,3.5c-1.1,0-2-1.6-2-3.5C37.2,94,38.4,90.7,39.2,88.4
		 M39.2,100.2c1.9,0,3.4-2.1,3.4-4.9c0-2.4-2.6-8.9-2.7-9.1l-0.6-1.6l-0.6,1.6c-0.1,0.3-2.7,6.7-2.7,9.1
		C35.8,98.1,37.3,100.2,39.2,100.2 M62.5,144.4c0.6-0.2,1.2-0.1,1.7,0.2c0.5,0.3,0.9,0.8,1,1.3c0.2,0.6,0.1,1.2-0.2,1.7
		c-0.3,0.5-0.8,0.9-1.3,1l0,0c-1.2,0.3-2.4-0.4-2.7-1.6c-0.2-0.6-0.1-1.2,0.2-1.7C61.4,144.9,61.9,144.5,62.5,144.4
		C62.5,144.4,62.5,144.4,62.5,144.4 M62.1,143c-0.9,0.2-1.7,0.9-2.2,1.7c-0.5,0.8-0.6,1.8-0.3,2.7c0.5,1.9,2.5,3.1,4.4,2.5
		c0.9-0.3,1.7-0.9,2.2-1.7c0.5-0.8,0.6-1.8,0.3-2.7c-0.3-0.9-0.9-1.7-1.7-2.2C64,142.9,63,142.8,62.1,143 M25.7,174.9
		c-2-8.3,2.8-16.6,11.1-18.9l0.1,0c8.2-2.2,16.6,2.4,19.1,10.6L56,167c0.6,2.3,0.7,4.7,0.3,7.1c-1.1,5.9-5.5,10.6-11.3,12.2
		c-5.8,1.6-11.9-0.2-15.9-4.8c-1.6-1.8-2.7-3.9-3.4-6.2L25.7,174.9L25.7,174.9z M45.3,187.7L45.3,187.7c6.4-1.8,11.1-6.8,12.3-13.3
		c0.5-2.6,0.4-5.2-0.3-7.7c0-0.1-0.1-0.2-0.1-0.3l-0.1-0.2c-2.7-8.9-11.8-14-20.8-11.6l-0.1,0c-9,2.5-14.3,11.5-12.1,20.5l0,0.2
		c0,0.1,0,0.2,0.1,0.3l0,0c0.7,2.5,1.9,4.8,3.7,6.8C32.4,187.4,39,189.4,45.3,187.7L45.3,187.7z"/>
	<path class="st1" d="M66,138.8c0.3,0.1,0.7,0.3,1,0.5c1.1,0.6,2,1.6,2.4,2.8c0.1,0.2,0.2,0.4,0.2,0.6l5,18.2l-5.2,1.4L59.2,165
		l0.3,1.1c0.6,2.3,0.8,4.7,0.6,7.1l-0.1,1l9.5-2.6l7.6-2.1l2.1,7.6c0.6,2.2,0.3,4.6-0.8,6.7c-1.2,2-3.1,3.5-5.3,4.1l-3.5,0.9
		l-47.8,12.9c-4.6,1.2-9.4-1.5-10.7-6.1l-2-7.4l17.1-4.7l-0.6-0.8c-1.4-1.9-2.5-4.1-3.1-6.4c0-0.1,0-0.1,0-0.2l-0.2-0.9l-15.5,4.2
		l-5-18.1c-0.8-3,0.9-6.1,3.9-6.9l0,0l16.5-4.4l0-0.1l40.8-11.2l0,0C63.8,138.4,65,138.4,66,138.8L66,138.8z M76.6,168.2l-7.2,2
		l-7.9,2.2c0.1-2.1-0.1-4.3-0.6-6.3l8.5-2.3l5.6-1.5L76.6,168.2L76.6,168.2z M6.9,180.7l14.1-3.9c0.4,1.5,1.1,3,1.8,4.4
		c0.3,0.5,0.5,0.9,0.8,1.4l-15.1,4.1L6.9,180.7L6.9,180.7z M20.2,146l0.8,2.8L5.2,153l0.1,0.5L5.2,153l0,0h0l-0.9,0.3l-0.7-2.7
		L20.2,146L20.2,146z M1.8,149.6L3,154c-2.4,1.7-3.5,4.7-2.7,7.6l9.4,34.2c1.5,5.4,7,8.6,12.4,7.1l47.4-12.8l3.9-1
		c1.9-0.5,3.7-1.6,5-3.1c0.4-0.5,0.8-1,1.2-1.6c1.3-2.3,1.7-5.1,1-7.7l-2.4-8.9l0,0l-1.6-6l0,0L71,142.2c-0.2-0.9-0.7-1.7-1.2-2.5
		c-0.6-0.7-1.3-1.3-2.1-1.8c-1.6-0.9-3.5-1.1-5.3-0.7l-40.1,11l-1.1-4L1.8,149.6L1.8,149.6z"/>
	<path class="st1" d="M13.9,159.3l0.4,1.6l-5.1,1.4l-0.4-1.6L13.9,159.3L13.9,159.3z M16,161.9l-1.2-4.3l-7.8,2.1l1.2,4.3L16,161.9
		L16,161.9z M29.4,174.1l0-0.2c-1.5-6.2,2.3-12.5,8.4-14.1l0.1,0c6.1-1.7,12.5,1.8,14.4,7.9l0.1,0.2c0,0.1,0.1,0.1,0.1,0.2
		c0.6,2.3,0.6,4.8-0.3,7.1c-1.3,3.7-4.3,6.5-8.1,7.5l-0.1,0c-3.7,1-7.7,0.1-10.7-2.4c-1.9-1.5-3.2-3.6-3.8-6
		C29.4,174.3,29.4,174.2,29.4,174.1 M32.4,181.4c3.3,2.8,7.8,3.8,12,2.6l0.1,0c4.2-1.2,7.6-4.3,9-8.4c0.9-2.6,1-5.3,0.3-7.9
		c0-0.1-0.1-0.2-0.1-0.3l-0.1-0.2c-2.1-6.8-9.2-10.7-16.1-8.8l-0.1,0c-6.9,1.9-11,8.9-9.4,15.8l0,0.2c0,0.1,0,0.2,0.1,0.3
		C28.8,177.3,30.3,179.7,32.4,181.4"/>
	<path class="st1" d="M42.6,163.3c1.4-0.4,2.8,0.4,3.1,1.8c0.4,1.4-0.4,2.8-1.8,3.1c-1.4,0.4-2.8-0.4-3.1-1.8
		C40.5,165.1,41.3,163.7,42.6,163.3 M44.3,169.6c2.1-0.6,3.4-2.7,2.8-4.9c-0.6-2.1-2.7-3.4-4.9-2.8c-2.1,0.6-3.4,2.7-2.8,4.9
		C40,168.9,42.2,170.2,44.3,169.6"/>
</g>
</svg>
