<svg xmlns="http://www.w3.org/2000/svg" width="24" height="24" viewBox="0 0 24 24">
    <g fill="none" fill-rule="evenodd">
        <g fill="#CFCFCF">
            <path d="M647.385 443.154h-1.99l4.759-4.76v1.99c0 1.527-1.243 2.77-2.77 2.77zm2.769-11.672v3.818l-7.854 7.854h-3.818l11.672-11.672zm-18.424 11.513l18.265-18.265c.096.28.159.574.159.885v2.774l-14.765 14.765h-2.774c-.31 0-.605-.063-.885-.159zm.885-20.149h2.35l-5.119 5.12v-2.35c0-1.527 1.243-2.77 2.77-2.77zm-2.769 12.03v-3.818l8.212-8.212h3.818l-12.03 12.03zm18.685-11.774l-18.43 18.428c-.159-.35-.255-.736-.255-1.145v-2.416l15.123-15.123h2.416c.41 0 .795.096 1.146.256zM647.385 421h-14.77c-2.545 0-4.615 2.07-4.615 4.615v14.77c0 2.545 2.07 4.615 4.615 4.615h14.77c2.545 0 4.615-2.07 4.615-4.615v-14.77c0-2.545-2.07-4.615-4.615-4.615z" transform="translate(-628 -421)"/>
        </g>
    </g>
</svg>
