<svg xmlns="http://www.w3.org/2000/svg" width="23" height="24" viewBox="0 0 23 24">
    <g fill="none" fill-rule="evenodd">
        <g fill="#333940">
            <path d="M276.525 1807.993c0 1.047-.956 1.9-2.13 1.9h-15.278c-1.175 0-2.13-.853-2.13-1.9v-1.97h1.808v1.123c0 .647.524 1.174 1.166 1.174h13.629c.642 0 1.165-.527 1.165-1.174v-12.856c0-.647-.523-1.175-1.165-1.175h-13.63c-.641 0-1.165.528-1.165 1.175v1.123h-1.808v-2.027c0-1.048.955-1.9 2.13-1.9h15.278c1.174 0 2.13.852 2.13 1.9v14.607zm-3.594 4.52c-.443 0-.801-.362-.801-.807v-.328h1.603v.328c0 .445-.36.808-.802.808zm-11.524-.807c0 .445-.359.808-.801.808-.442 0-.802-.363-.802-.808v-.328h1.603v.328zm-1.136-5.836c.4-.203.685-.588.685-1.046v-1.723c0-.457-.284-.844-.685-1.045v-2.676c.4-.201.685-.588.685-1.045v-1.723c0-.458-.284-.845-.685-1.047v-.964h13.01v12.233h-13.01v-.964zm-3.284-3.968h1.808v-2.369h-1.808v2.37zm-.512-3.855h3.006v-1.148h-3.006v1.148zm0 6.49h3.006v-1.148h-3.006v1.148zm17.92-14.537h-15.278c-1.989 0-3.606 1.519-3.606 3.386v2.073c-.295.096-.511.368-.511.697v2.634c0 .33.216.599.511.697v2.461c-.295.098-.511.369-.511.697v2.635c0 .329.216.6.511.697v2.016c0 1.612 1.208 2.958 2.818 3.298v.415c0 1.265 1.022 2.294 2.277 2.294 1.256 0 2.277-1.03 2.277-2.294v-.328h7.771v.328c0 1.265 1.021 2.294 2.277 2.294 1.255 0 2.277-1.03 2.277-2.294v-.422c1.595-.348 2.792-1.688 2.792-3.291v-14.607c0-1.867-1.618-3.386-3.605-3.386zm-6.343 12.864c-.045.124-.11.234-.192.328-.075.086-.16.151-.255.198-.03.015-.063.013-.092.022v-1.936c.031.009.065.007.094.021.094.046.178.111.255.2.079.09.145.203.19.325.05.132.075.275.075.42 0 .147-.025.289-.075.422m-2.105-2.98c-.094-.047-.182-.115-.257-.2-.08-.094-.147-.206-.191-.328-.05-.132-.075-.274-.075-.42 0-.146.025-.289.076-.425.043-.119.109-.23.19-.324.076-.087.162-.153.252-.198.032-.015.064-.013.096-.022v1.938c-.03-.01-.062-.008-.09-.022m3.02.83c-.205-.235-.448-.422-.72-.553-.233-.115-.48-.17-.735-.193v-2c.031.01.065.007.094.022.093.045.177.111.255.2.08.092.145.201.19.325.143.385.567.582.95.437.381-.145.575-.572.433-.957-.11-.294-.267-.56-.465-.786-.206-.237-.45-.426-.722-.557-.235-.114-.484-.17-.74-.193-.01-.399-.334-.721-.733-.721-.4 0-.72.322-.733.721-.255.023-.504.079-.741.193-.27.132-.512.32-.719.555-.203.232-.36.499-.466.788-.11.301-.167.617-.167.941 0 .324.057.641.167.94.107.292.264.558.468.791.205.234.445.42.719.555.234.113.482.17.735.191v2c-.03-.01-.064-.007-.094-.022-.093-.046-.179-.113-.252-.196-.083-.096-.148-.206-.192-.327-.141-.385-.563-.58-.948-.44-.382.142-.578.57-.437.954.106.29.263.557.469.794.206.235.447.42.719.553.235.114.484.17.74.192.011.4.333.722.732.722.4 0 .722-.322.733-.722.256-.021.505-.078.738-.192.274-.132.517-.319.722-.555.201-.23.357-.496.467-.79.11-.3.167-.616.167-.94 0-.324-.056-.64-.168-.943-.11-.294-.267-.56-.466-.786" transform="translate(-255.000000, -1790.000000)"/>
        </g>
    </g>
</svg>
