<svg xmlns="http://www.w3.org/2000/svg" width="28" height="28" viewBox="0 0 28 28">
    <g fill="none" fill-rule="evenodd">
        <g fill="#FFF">
            <g>
                <path d="M268 21c2.001 0 3.935.413 5.745 1.23.528.237.763.857.525 1.385-.237.527-.858.762-1.386.525-1.538-.693-3.181-1.044-4.884-1.044-6.564 0-11.904 5.34-11.904 11.904s5.34 11.904 11.904 11.904 11.904-5.34 11.904-11.904c0-.357-.017-.72-.048-1.08-.051-.575.375-1.085.951-1.136.579-.04 1.086.376 1.136.951.038.42.057.846.057 1.265 0 7.72-6.281 14-14 14-7.72 0-14-6.28-14-14s6.28-14 14-14zm12.216 3.357c.453.361.527 1.02.166 1.473L268.82 40.318c-.184.23-.457.373-.75.392-.023.002-.046.002-.07.002-.27 0-.53-.104-.725-.292l-6.434-6.181c-.418-.402-.43-1.065-.03-1.483.402-.416 1.065-.43 1.482-.029l5.606 5.386 10.846-13.59c.361-.453 1.02-.526 1.472-.166z" transform="translate(-254.000000, -140.000000) translate(0.000000, 119.000000)"/>
            </g>
        </g>
    </g>
</svg>
