<svg xmlns="http://www.w3.org/2000/svg" width="26" height="26" viewBox="0 0 26 26">
    <g fill="none" fill-rule="evenodd">
        <g fill="#333940">
            <path d="M489.559 1810.363c-.307 0-.547-.254-.547-.578 0-.335.24-.596.547-.596.296 0 .536.267.536.596 0 .318-.24.578-.536.578m0-2.304c-.929 0-1.683.774-1.683 1.726 0 .963.74 1.716 1.683 1.716.922 0 1.673-.769 1.673-1.716 0-.952-.75-1.726-1.673-1.726m-4.124-3.009c.307 0 .547.262.547.596 0 .324-.24.578-.547.578-.306 0-.545-.254-.545-.578 0-.334.239-.596.545-.596m0 2.304c.94 0 1.674-.75 1.674-1.708 0-.951-.75-1.725-1.674-1.725-.927 0-1.682.774-1.682 1.725 0 .958.74 1.708 1.682 1.708m4.974-2.367c0-.314-.256-.57-.568-.57-.166 0-.323.073-.445.215l-4.588 5.59c-.097.097-.147.229-.147.38 0 .324.25.578.569.578.165 0 .321-.075.444-.215l4.599-5.602c.088-.104.136-.233.136-.376m-8.933 2.674c0-3.236 2.696-5.868 6.008-5.868 3.313 0 6.009 2.632 6.009 5.868 0 3.235-2.696 5.867-6.01 5.867-3.311 0-6.007-2.632-6.007-5.867m6.008-7.34c-4.144 0-7.515 3.293-7.515 7.34s3.37 7.339 7.515 7.339 7.516-3.292 7.516-7.34c0-4.046-3.371-7.339-7.516-7.339m-10.5 8.79l-1.068-1.04c-.14-.138-.332-.216-.532-.216s-.391.078-.533.215l-1.103 1.041-1.065-1.04c-.295-.288-.772-.288-1.066 0l-1.11 1.022.026-18.621h16.074c.042.007.08.025.123.025v7.742c0 .407.338.736.754.736s.754-.33.754-.736v-7.742c0-.826-.688-1.497-1.534-1.497h-16.17c-.847 0-1.534.671-1.534 1.497v18.596c0 .608.372 1.151.945 1.384.192.077.392.115.591.115.397 0 .788-.152 1.08-.44l.533-.52.534.52c.579.567 1.59.569 2.17 0l.532-.52.531.52c.29.283.675.44 1.085.44.41 0 .795-.156 1.085-.44.294-.287.275-.753-.02-1.04-.294-.288-.788-.288-1.083 0m1.304-6.829h-4.096c-.416 0-.754.33-.754.736 0 .407.338.736.754.736h4.096c.416 0 .753-.33.753-.736 0-.406-.337-.736-.753-.736m4.826-4.125h-8.922c-.416 0-.754.33-.754.736 0 .406.338.736.754.736h8.922c.416 0 .753-.33.753-.736 0-.407-.337-.736-.753-.736m0-3.898h-8.922c-.416 0-.754.33-.754.736 0 .406.338.736.754.736h8.922c.416 0 .753-.33.753-.736 0-.406-.337-.736-.753-.736" transform="translate(-469.000000, -1789.000000)"/>
        </g>
    </g>
</svg>
