<svg xmlns="http://www.w3.org/2000/svg" width="24" height="24" viewBox="0 0 24 24">
    <g fill="none" fill-rule="evenodd">
        <g fill="#333940">
            <path d="M692 1730.418c-5.745 0-10.418-4.673-10.418-10.418 0-5.745 4.673-10.418 10.418-10.418 5.745 0 10.418 4.673 10.418 10.418 0 5.745-4.673 10.418-10.418 10.418m0-22.418c-6.616 0-12 5.383-12 12s5.384 12 12 12 12-5.383 12-12-5.384-12-12-12m3.034 16.396c-.63 0-1.125-.527-1.125-1.2 0-.678.505-1.23 1.125-1.23.612 0 1.11.552 1.11 1.23 0 .662-.498 1.2-1.11 1.2m0-3.91c-1.443 0-2.573 1.19-2.573 2.71 0 1.512 1.13 2.695 2.573 2.695 1.41 0 2.558-1.208 2.558-2.695 0-1.494-1.148-2.71-2.558-2.71m-5.717-4.42c.62 0 1.125.55 1.125 1.229 0 .673-.494 1.2-1.125 1.2-.63 0-1.125-.527-1.125-1.2 0-.678.505-1.23 1.125-1.23m2.558 1.23c0-1.495-1.147-2.71-2.558-2.71-1.418 0-2.573 1.215-2.573 2.71 0 1.503 1.13 2.68 2.573 2.68 1.435 0 2.558-1.177 2.558-2.68m4.764-1.829c0-.412-.324-.748-.724-.748-.214 0-.408.097-.566.283l-7.625 9.501c-.12.125-.183.295-.183.493 0 .428.318.763.724.763.211 0 .41-.1.566-.283l7.634-9.51c.116-.138.174-.306.174-.499" transform="translate(-680.000000, -1708.000000)"/>
        </g>
    </g>
</svg>
