<svg xmlns="http://www.w3.org/2000/svg" width="21" height="24" viewBox="0 0 21 24">
    <g fill="none" fill-rule="evenodd">
        <g fill="#333940">
            <path d="M489.546 1730.357h-14.092c-1.013 0-1.836-.836-1.836-1.864v-10.536h17.764v10.536c0 1.028-.823 1.864-1.836 1.864m-14.092-18.58h1.516v1.389c0 .453.362.821.809.821.447 0 .809-.368.809-.821v-1.388h7.743v1.388c0 .453.362.821.809.821.446 0 .809-.368.809-.821v-1.388h1.597c1.013 0 1.836.836 1.836 1.864v2.672h-17.764v-2.672c0-1.028.823-1.864 1.836-1.864m14.092-1.643h-1.597v-1.314c0-.453-.363-.821-.81-.821-.446 0-.808.368-.808.821v1.314h-7.743v-1.314c0-.453-.362-.821-.81-.821-.446 0-.808.368-.808.821v1.314h-1.516c-1.905 0-3.454 1.573-3.454 3.507v14.85c0 1.935 1.55 3.508 3.454 3.508h14.092c1.905 0 3.454-1.573 3.454-3.507v-14.85c0-1.935-1.55-3.508-3.454-3.508m-4.64 14.602l-2.406 2.199-2.407-2.2c-.64-.585-.913-1.137-.913-1.845 0-.742.713-1.469 1.44-1.469.497 0 .953.228 1.221.61.152.216.397.345.659.345.261 0 .507-.129.659-.345.268-.382.725-.61 1.22-.61.728 0 1.442.727 1.442 1.47 0 .707-.274 1.259-.914 1.845m-.528-4.958c-.69 0-1.349.224-1.88.62-.53-.396-1.188-.62-1.879-.62-1.629 0-3.058 1.455-3.058 3.112 0 1.172.474 2.175 1.449 3.067l2.814 2.572c.184.174.423.27.675.27.25 0 .487-.094.662-.258l2.827-2.584c.975-.892 1.45-1.895 1.45-3.067 0-1.658-1.43-3.112-3.06-3.112" transform="translate(-472.000000, -1708.000000)"/>
        </g>
    </g>
</svg>
