<?xml version="1.0" standalone="no"?>
<!DOCTYPE svg PUBLIC "-//W3C//DTD SVG 1.1//EN" "http://www.w3.org/Graphics/SVG/1.1/DTD/svg11.dtd" >
<svg xmlns="http://www.w3.org/2000/svg">
<metadata>Generated by IcoMoon</metadata>
<defs>
<font id="icomoon" horiz-adv-x="1024">
<font-face units-per-em="1024" ascent="960" descent="-64" />
<missing-glyph horiz-adv-x="1024" />
<glyph unicode="&#x20;" horiz-adv-x="512" d="" />
<glyph unicode="&#xe900;" glyph-name="escrow" horiz-adv-x="928" d="M97.684 521.143v-341.333h146.526v341.333h-146.526zM390.737 521.143v-341.333h146.526v341.333h-146.526zM0-64h928v146.286h-928v-146.286zM683.789 521.143v-341.333h146.526v341.333h-146.526zM464 960l-464-243.81v-97.524h928v97.524l-464 243.81z" />
<glyph unicode="&#xe901;" glyph-name="support" horiz-adv-x="1090" d="M478.417 148.199h105.703v101.475h-105.703v-101.475zM531.269 960c-291.741 0-528.516-227.304-528.516-507.375s236.775-507.375 528.516-507.375c291.741 0 528.516 227.304 528.516 507.375s-236.775 507.375-528.516 507.375v0zM531.269 46.724c-233.076 0-422.813 182.148-422.813 405.9s189.737 405.9 422.813 405.9c233.076 0 422.813-182.148 422.813-405.9s-189.737-405.9-422.813-405.9v0zM531.269 757.050c-116.802 0-211.406-90.82-211.406-202.95h105.703c0 55.811 47.566 101.475 105.703 101.475s105.703-45.664 105.703-101.475c0-101.475-158.555-88.791-158.555-253.688h105.703c0 114.159 158.555 126.844 158.555 253.688 0 112.13-94.604 202.95-211.406 202.95v0z" />
<glyph unicode="&#xe902;" glyph-name="overview" horiz-adv-x="922" d="M819.2 857.6h-214.016c-21.504 59.392-77.824 102.4-144.384 102.4s-122.88-43.008-144.384-102.4h-214.016c-56.32 0-102.4-46.080-102.4-102.4v-716.8c0-56.32 46.080-102.4 102.4-102.4h716.8c56.32 0 102.4 46.080 102.4 102.4v716.8c0 56.32-46.080 102.4-102.4 102.4v0zM460.8 857.6c28.16 0 51.2-23.040 51.2-51.2s-23.040-51.2-51.2-51.2c-28.16 0-51.2 23.040-51.2 51.2s23.040 51.2 51.2 51.2v0zM563.2 140.8h-358.4v102.4h358.4v-102.4zM716.8 345.6h-512v102.4h512v-102.4zM716.8 550.4h-512v102.4h512v-102.4z" />
<glyph unicode="&#xe903;" glyph-name="payments" horiz-adv-x="1100" d="M1041.965 106.667v-56.889c0-62.578-52.098-113.778-115.774-113.778h-810.417c-64.255 0-115.774 51.2-115.774 113.778v796.444c0 62.578 51.519 113.778 115.774 113.778h810.417c63.676 0 115.774-51.2 115.774-113.778v-56.889h-520.982c-64.255 0-115.774-51.2-115.774-113.778v-455.111c0-62.578 51.519-113.778 115.774-113.778h520.982zM520.982 220.444h578.869v455.111h-578.869v-455.111zM752.53 362.667c-48.046 0-86.83 38.116-86.83 85.333s38.784 85.333 86.83 85.333c48.046 0 86.83-38.116 86.83-85.333s-38.784-85.333-86.83-85.333v0z" />
<glyph unicode="&#xe904;" glyph-name="statements" horiz-adv-x="1280" d="M1152 832h-512l-128 128h-384c-70.4 0-127.36-57.6-127.36-128l-0.64-768c0-70.4 57.6-128 128-128h1024c70.4 0 128 57.6 128 128v640c0 70.4-57.6 128-128 128v0zM1152 64h-1024v640h1024v-640z" />
<glyph unicode="&#xe905;" glyph-name="expanded" d="M1024 374.857h-1024v146.286h1024v-146.286z" />
<glyph unicode="&#xe906;" glyph-name="collapsed" d="M1024 374.857h-438.857v-438.857h-146.286v438.857h-438.857v146.286h438.857v438.857h146.286v-438.857h438.857v-146.286z" />
<glyph unicode="&#xe907;" glyph-name="upload-alt-1" horiz-adv-x="960" d="M0-64h960v128h-960v-128zM0 512h274.286v-384h411.429v384h274.286l-480 448-480-448z" />
<glyph unicode="&#xe908;" glyph-name="upload" horiz-adv-x="904" d="M0-64h903.529v120.471h-903.529v-120.471zM0 538.353h258.151v-361.412h387.227v361.412h258.151l-451.765 421.647-451.765-421.647z" />
<glyph unicode="&#xe909;" glyph-name="load" d="M899.789 445.030c0 211.313-171.295 382.628-382.628 382.628-211.313 0-382.628-171.315-382.628-382.628h83.313c0 165.294 134.001 299.315 299.315 299.315s299.315-134.001 299.315-299.315h83.313z" />
<glyph unicode="&#xe90a;" glyph-name="down-caret" horiz-adv-x="1593" d="M228.855 891.547l566.741-566.741 564.733 564.733c0 0 158.819-158.819 158.819-158.819l-725.639-725.639-725.561 725.561 160.906 160.906z" />
<glyph unicode="&#xe90b;" glyph-name="user" horiz-adv-x="1075" d="M528.516 448c146.003 0 264.258 114.56 264.258 256s-118.255 256-264.258 256c-146.003 0-264.258-114.56-264.258-256s118.255-256 264.258-256v0zM528.516 320c-176.392 0-528.516-85.76-528.516-256v-128h1057.032v128c0 170.24-352.124 256-528.516 256v0z" />
<glyph unicode="&#xe90c;" glyph-name="user2" horiz-adv-x="1071" d="M527.015 401.455c158.111 0 286.78 124.648 286.78 279.273s-128.669 279.273-286.78 279.273c-158.111 0-286.78-124.648-286.78-279.273s128.669-279.273 286.78-279.273v0zM527.015 494.545c-107.348 0-193.689 83.643-193.689 186.182s86.341 186.182 193.689 186.182c107.348 0 193.689-83.643 193.689-186.182s-86.341-186.182-193.689-186.182v0zM527.015 378.182c-243.817 0-527.015-109.904-527.015-279.273v-162.909h1054.029v162.909c0 169.369-283.197 279.273-527.015 279.273v0zM527.015 285.091c196.113 0 433.924-92.29 433.924-186.182v-116.364l46.545 46.545h-960.938l46.545-46.545v116.364c0 93.892 237.81 186.182 433.924 186.182v0z" />
<glyph unicode="&#xe90d;" glyph-name="alert" horiz-adv-x="981" d="M840.109 246.187v263.568c0 165.507-118.237 307.166-282.755 344.572l-9.46-41.605h42.667v32.606c0 63.815-52.977 114.672-117.673 114.672s-117.673-50.858-117.673-114.672v-32.606h42.667l-9.46 41.605c-164.517-37.406-282.755-179.065-282.755-344.572v-263.568l13.119 30.779-113.126-108.601v-108.856h934.456v108.856l-113.126 108.601 13.119-30.779zM754.776 246.187v-18.185l113.126-108.601-13.119 30.779v-48.004l42.667 42.667h-849.123l42.667-42.667v48.004l-13.119-30.779 113.126 108.601v281.753c0 124.87 89.937 232.622 216.341 261.362l33.207 7.55v66.661c0 15.89 14.010 29.339 32.339 29.339s32.339-13.449 32.339-29.339v-66.661l33.207-7.55c126.404-28.74 216.341-136.493 216.341-261.362v-263.568zM336.347 101.723c0-70.754 66.787-128 149.333-128s149.333 57.246 149.333 128h-298.667z" />
<glyph unicode="&#xe90e;" glyph-name="envelope" horiz-adv-x="1344" d="M1205.333 960h-1066.667c-73.333 0-132.667-57.6-132.667-128l-0.667-768c0-70.4 60-128 133.333-128h1066.667c73.333 0 133.333 57.6 133.333 128v768c0 70.4-60 128-133.333 128v0zM1205.333 704l-533.333-320-533.333 320v128l533.333-320 533.333 320v-128z" />
<glyph unicode="&#xe90f;" glyph-name="print" horiz-adv-x="951" d="M219.429 73.143h512v146.286h-512v-146.286zM219.429 438.857h512v219.429h-91.429q-22.857 0-38.857 16t-16 38.857v91.429h-365.714v-365.714zM877.714 402.286q0 14.857-10.857 25.714t-25.714 10.857-25.714-10.857-10.857-25.714 10.857-25.714 25.714-10.857 25.714 10.857 10.857 25.714zM950.857 402.286v-237.714q0-7.429-5.429-12.857t-12.857-5.429h-128v-91.429q0-22.857-16-38.857t-38.857-16h-548.571q-22.857 0-38.857 16t-16 38.857v91.429h-128q-7.429 0-12.857 5.429t-5.429 12.857v237.714q0 45.143 32.286 77.429t77.429 32.286h36.571v310.857q0 22.857 16 38.857t38.857 16h384q22.857 0 50.286-11.429t43.429-27.429l86.857-86.857q16-16 27.429-43.429t11.429-50.286v-146.286h36.571q45.143 0 77.429-32.286t32.286-77.429z" />
<glyph unicode="&#xe910;" glyph-name="calendar" d="M870.4 819.2h-51.2v-102.4h-153.6v102.4h-307.2v-102.4h-153.6v102.4h-51.2c-56.371 0-102.4-46.080-102.4-102.4v-614.4c0-56.32 46.029-102.4 102.4-102.4h716.8c56.32 0 102.4 46.080 102.4 102.4v614.4c0 56.32-46.080 102.4-102.4 102.4zM870.4 102.4h-716.8v409.6h716.8v-409.6zM332.8 921.6h-102.4v-179.2h102.4v179.2zM793.6 921.6h-102.4v-179.2h102.4v179.2z" />
<glyph unicode="&#xe911;" glyph-name="file-text" horiz-adv-x="878" d="M838.857 678.857q8-8 16-20.571h-269.714v269.714q12.571-8 20.571-16zM566.857 585.143h310.857v-603.429q0-22.857-16-38.857t-38.857-16h-768q-22.857 0-38.857 16t-16 38.857v914.286q0 22.857 16 38.857t38.857 16h457.143v-310.857q0-22.857 16-38.857t38.857-16zM658.286 164.571v36.571q0 8-5.143 13.143t-13.143 5.143h-402.286q-8 0-13.143-5.143t-5.143-13.143v-36.571q0-8 5.143-13.143t13.143-5.143h402.286q8 0 13.143 5.143t5.143 13.143zM658.286 310.857v36.571q0 8-5.143 13.143t-13.143 5.143h-402.286q-8 0-13.143-5.143t-5.143-13.143v-36.571q0-8 5.143-13.143t13.143-5.143h402.286q8 0 13.143 5.143t5.143 13.143zM658.286 457.143v36.571q0 8-5.143 13.143t-13.143 5.143h-402.286q-8 0-13.143-5.143t-5.143-13.143v-36.571q0-8 5.143-13.143t13.143-5.143h402.286q8 0 13.143 5.143t5.143 13.143z" />
<glyph unicode="&#xe912;" glyph-name="menu" d="M128 682.667h768v-86h-768v86zM128 384.667v84h768v-84h-768zM128 170.667v86h768v-86h-768z" />
<glyph unicode="&#xe913;" glyph-name="equal-housing-lender" horiz-adv-x="917" d="M904.979 721.099c-148.378 75.972-296.884 151.976-445.516 228.012-3.143 2.017-7.173 2.017-10.316 0l-449.051-230.496v-94.758l49.958-0.573v-339.391h805.827v340.060h53.588v94.758l-4.49 2.388zM766.376 669.039v-295.546h-626.531v297.934c-0.26 2.46 1.088 4.81 3.343 5.827 21.301 10.89 42.603 21.875 63.904 32.86 80.939 41.775 161.879 83.614 242.818 125.516 2.955 1.706 6.597 1.706 9.552 0 100.362-52.474 200.756-104.884 301.182-157.23 1.051-0.573 2.006-1.146 3.057-1.528 1.609-0.492 2.648-2.051 2.484-3.725 0.191-1.528 0.287-2.77 0.287-4.107h-0.096zM306.627 596.537h294.018v80.716h-294.018c-1.242-8.024-0.86-77.469 0-80.716v0zM306.627 529.958c-1.051-8.597-0.573-76.991 0.573-80.43h292.299v80.812c-7.737 0.955-289.719 0.573-292.872-0.382v0zM34.101 217.982h52.251v-12.704h-39.546v-21.97h36.585v-12.322h-36.585v-24.549h40.119v-12.704h-52.824v84.060zM163.343 134.304l-6.209-8.024-10.603 10.699c-2.571-1.753-5.41-3.076-8.406-3.916-2.834-0.764-5.757-1.15-8.693-1.146-5.083-0.099-10.109 1.084-14.615 3.439-4.293 2.337-8.013 5.6-10.89 9.552-3.115 4.231-5.445 8.987-6.878 14.042-3.19 11.111-3.19 22.895 0 34.006 1.437 5.053 3.766 9.809 6.878 14.042 2.895 3.935 6.611 7.195 10.89 9.552 9.144 4.693 19.99 4.693 29.134 0 4.312-2.349 8.060-5.608 10.985-9.552 3.1-4.24 5.428-8.994 6.878-14.042 1.614-5.49 2.418-11.186 2.388-16.907 0.016-2.939-0.176-5.876-0.573-8.788-0.392-2.938-0.998-5.843-1.815-8.693-0.795-2.768-1.851-5.455-3.152-8.024-1.225-2.474-2.802-4.759-4.681-6.782l9.361-9.457zM130.293 153.409l6.113 8.119 8.884-8.979c2.335 3.303 3.991 7.037 4.872 10.985 0.95 4.103 1.431 8.301 1.433 12.513 0.010 3.95-0.407 7.889-1.242 11.749-0.765 3.62-2.086 7.101-3.916 10.316-1.678 2.936-4.037 5.426-6.878 7.26-6.196 3.623-13.864 3.623-20.060 0-2.843-1.831-5.203-4.322-6.878-7.26-1.838-3.213-3.159-6.694-3.916-10.316-1.703-7.772-1.703-15.822 0-23.594 0.753-3.624 2.075-7.106 3.916-10.316 1.672-2.94 4.032-5.431 6.878-7.26 2.872-1.766 6.181-2.692 9.552-2.675 1.365-0.155 2.743-0.155 4.107 0 1.403 0.318 2.753 0.833 4.012 1.528l-6.878 7.928zM174.615 217.982h12.704v-57.504c0.18-2.712 0.861-5.368 2.006-7.833 1.125-2.342 2.877-4.326 5.063-5.731 6.028-2.942 13.076-2.942 19.104 0 2.185 1.405 3.938 3.389 5.063 5.731 1.145 2.465 1.825 5.121 2.006 7.833v57.504h12.704v-53.779c0.11-4.798-0.601-9.579-2.101-14.137-1.269-3.734-3.321-7.153-6.018-10.030-2.676-2.718-5.945-4.778-9.552-6.018-7.931-2.679-16.523-2.679-24.454 0-3.607 1.24-6.877 3.3-9.552 6.018-2.697 2.877-4.749 6.296-6.018 10.030-1.501 4.558-2.211 9.34-2.101 14.137v53.779h1.146zM268.418 217.982h13.373l27.988-84.060h-13.66l-6.782 22.257h-28.657l-6.782-22.257h-13.469l27.988 84.060zM263.928 167.355h22.161l-10.89 36.107-11.272-36.107zM316.179 217.982h12.704v-71.355h36.872v-12.704h-49.576zM434.34 217.982h12.322v-33.433h31.904v33.433h12.418v-84.060h-12.418v38.209h-31.904v-38.209h-12.322zM535.881 219.988c4.938 0.060 9.808-1.158 14.137-3.534 4.188-2.374 7.806-5.634 10.603-9.552 3.022-4.26 5.284-9.011 6.687-14.042 3.091-11.125 3.091-22.881 0-34.006-1.399-5.033-3.661-9.784-6.687-14.042-2.778-3.935-6.4-7.199-10.603-9.552-8.96-4.755-19.696-4.755-28.657 0-4.203 2.353-7.825 5.617-10.603 9.552-3.037 4.251-5.301 9.004-6.687 14.042-3.091 11.125-3.091 22.881 0 34.006 1.389 5.036 3.653 9.789 6.687 14.042 2.794 3.92 6.413 7.181 10.603 9.552 4.442 2.441 9.452 3.661 14.519 3.534v0zM535.881 207.952c-3.378 0.066-6.7-0.864-9.552-2.675-2.781-1.846-5.075-4.337-6.687-7.26-1.793-3.223-3.082-6.703-3.821-10.316-1.65-7.778-1.65-15.816 0-23.594 0.733-3.615 2.022-7.096 3.821-10.316 1.609-2.925 3.903-5.416 6.687-7.26 5.911-3.413 13.194-3.413 19.104 0 2.781 1.846 5.075 4.337 6.687 7.26 1.792 3.224 3.080 6.703 3.821 10.316 1.636 7.78 1.636 15.814 0 23.594-0.745 3.612-2.033 7.090-3.821 10.316-1.615 2.921-3.908 5.411-6.687 7.26-2.842 1.844-6.165 2.808-9.552 2.77v-0.096zM579.821 217.982h12.322v-57.504c0.193-2.71 0.873-5.363 2.006-7.833 1.068-2.321 2.753-4.303 4.872-5.731 5.848-2.993 12.779-2.993 18.627 0 2.118 1.428 3.803 3.411 4.872 5.731 1.133 2.469 1.813 5.123 2.006 7.833v57.504h12.322v-53.779c0.086-4.796-0.624-9.574-2.101-14.137-1.218-3.715-3.203-7.132-5.827-10.030-2.657-2.741-5.933-4.804-9.552-6.018-7.671-2.672-16.019-2.672-23.69 0-3.619 1.214-6.895 3.277-9.552 6.018-2.624 2.898-4.609 6.315-5.827 10.030-1.478 4.564-2.188 9.341-2.101 14.137v53.779h1.624zM660.060 162.006c-0.084-2.799 0.37-5.587 1.337-8.215 0.825-2.119 2.134-4.016 3.821-5.54 1.638-1.433 3.558-2.507 5.636-3.152 2.263-0.667 4.614-0.989 6.973-0.955 2.343-0.043 4.675 0.346 6.878 1.146 1.706 0.635 3.266 1.61 4.585 2.866 1.174 1.145 2.058 2.553 2.579 4.107 0.52 1.505 0.779 3.088 0.764 4.681 0.203 2.523-0.436 5.042-1.815 7.164-1.049 1.397-2.428 2.512-4.012 3.248-2.828 1.234-5.731 2.287-8.693 3.152l-12.227 3.821c-2.718 0.781-5.273 2.043-7.546 3.725-3.664 2.709-6.239 6.639-7.26 11.081-0.502 2.129-0.758 4.308-0.764 6.496-0.101 3.78 0.65 7.534 2.197 10.985 1.361 2.969 3.349 5.609 5.827 7.737 2.445 2.033 5.27 3.559 8.31 4.49 3.088 0.981 6.312 1.465 9.552 1.433 3.543 0.022 7.064-0.56 10.412-1.719 6.538-2.232 11.795-7.176 14.424-13.564 1.524-3.659 2.272-7.595 2.197-11.558h-12.322c0.127 4.31-1.573 8.473-4.681 11.463-3.005 2.306-6.722 3.488-10.507 3.343-1.478 0.011-2.953-0.149-4.394-0.478-1.46-0.327-2.85-0.909-4.107-1.719-1.307-0.841-2.389-1.989-3.152-3.343-0.869-1.612-1.297-3.424-1.242-5.254-0.195-2.537 0.63-5.047 2.293-6.973 1.652-1.76 3.722-3.075 6.018-3.821l3.152-0.955 6.018-1.91 6.496-2.101 4.585-1.433c2.2-0.812 4.237-2.009 6.018-3.534 1.695-1.482 3.146-3.223 4.299-5.158 1.158-1.933 2.027-4.025 2.579-6.209 0.562-2.152 0.851-4.367 0.86-6.591 0.127-4.141-0.69-8.257-2.388-12.036-1.453-3.18-3.609-5.989-6.304-8.215-2.649-2.147-5.702-3.739-8.979-4.681-3.323-0.956-6.764-1.438-10.221-1.433-3.857-0.046-7.696 0.535-11.367 1.719-3.552 1.075-6.817 2.936-9.552 5.445-2.785 2.676-4.939 5.939-6.304 9.552-1.677 4.291-2.52 8.862-2.484 13.469h12.513v-0.573zM715.558 217.982h12.322v-84.060h-12.322zM742.496 217.982h13.087l32.096-61.899v61.899h11.749v-84.060h-12.991l-32 61.803v-61.803h-11.749v84.060zM875.367 134.018h-7.833l-1.91 9.552c-2.439-3.851-5.702-7.113-9.552-9.552-3.521-1.778-7.424-2.664-11.367-2.579-4.93-0.089-9.799 1.095-14.137 3.439-4.203 2.353-7.825 5.617-10.603 9.552-3.030 4.255-5.293 9.007-6.687 14.042-3.091 11.125-3.091 22.881 0 34.006 1.397 5.033 3.659 9.785 6.687 14.042 2.794 3.92 6.413 7.181 10.603 9.552 4.329 2.377 9.199 3.594 14.137 3.534 3.707 0.019 7.389-0.595 10.89-1.815 3.52-1.149 6.77-3.001 9.552-5.445 2.798-2.524 5.070-5.576 6.687-8.979 1.86-3.936 2.992-8.175 3.343-12.513h-12.609c-0.254 2.527-0.966 4.987-2.101 7.26-1.017 2-2.412 3.784-4.107 5.254-1.629 1.394-3.509 2.464-5.54 3.152-2.058 0.712-4.222 1.068-6.4 1.051-3.378 0.066-6.7-0.864-9.552-2.675-2.781-1.846-5.075-4.337-6.687-7.26-1.793-3.223-3.082-6.703-3.821-10.316-1.65-7.778-1.65-15.816 0-23.594 0.733-3.615 2.022-7.096 3.821-10.316 1.609-2.925 3.903-5.416 6.687-7.26 2.85-1.816 6.174-2.747 9.552-2.675 2.873-0.146 5.743 0.344 8.406 1.433 2.366 1.033 4.459 2.603 6.113 4.585 1.769 2.161 3.071 4.665 3.821 7.355 0.859 3.112 1.308 6.324 1.337 9.552h-19.104v11.176h29.899v-44.227l0.478 0.669zM31.522 104.884h24.74v-136.693h71.833v-24.358h-96.573zM163.343 104.884h101.922v-24.358h-76.991v-42.221h71.26v-23.021h-71.26v-47.188h78.424v-24.358h-103.355zM303.666 104.884h26.078l64.573-118.639v118.639h23.594v-161.146h-25.313l-64.382 118.448h-1.051v-118.448h-23.499zM461.946 104.884h56.263c9.402 0.248 18.71-1.923 27.033-6.304 7.698-4.098 14.261-10.038 19.104-17.29 5.024-7.848 8.644-16.511 10.699-25.6 4.712-20.654 4.712-42.104 0-62.758-2.043-9.093-5.664-17.757-10.699-25.6-4.834-7.26-11.4-13.202-19.104-17.29-8.323-4.381-17.631-6.552-27.033-6.304h-56.263v161.146zM485.731-33.146h23.403c7.814-0.287 15.59 1.216 22.734 4.394 5.531 2.748 10.218 6.94 13.564 12.131 3.499 5.556 5.838 11.762 6.878 18.245 2.375 15.031 2.375 30.342 0 45.373-1.047 6.481-3.386 12.685-6.878 18.245-3.428 5.228-8.217 9.422-13.851 12.131-7.139 3.195-14.919 4.698-22.734 4.394h-23.116v-114.913zM613.254 104.884h101.731v-24.358h-76.991v-42.221h71.26v-23.021h-71.26v-47.188h78.424v-24.358h-103.164zM758.352 104.884h67.534c12.749 1.027 25.377-3.102 35.057-11.463 8.125-8.607 12.341-20.184 11.654-32 0.194-6.496-0.809-12.972-2.961-19.104-1.632-4.404-3.989-8.505-6.973-12.131-2.158-2.71-4.818-4.98-7.833-6.687-2.579-1.337-4.49-2.293-5.636-2.77v0c2.367-0.404 4.655-1.178 6.782-2.293 2.683-1.387 5.030-3.343 6.878-5.731 2.336-3.073 4.115-6.533 5.254-10.221 1.523-5.111 2.232-10.43 2.101-15.761-0.055-8.666 0.584-17.323 1.91-25.887 0.564-5.931 2.564-11.636 5.827-16.621h-26.842c-1.856 3.558-2.961 7.46-3.248 11.463 0 4.203-0.478 8.31-0.478 12.227 0.041 6.39-0.374 12.774-1.242 19.104-0.593 4.668-2.085 9.177-4.394 13.278-1.997 3.405-5.001 6.108-8.597 7.737-4.42 1.809-9.174 2.655-13.946 2.484h-36.394v-66.388h-24.74v160.764h0.287zM783.093 31.522h40.597c6.647-0.479 13.193 1.841 18.054 6.4 4.412 5.348 6.601 12.188 6.113 19.104 0.128 4.26-0.552 8.507-2.006 12.513-1.116 2.952-2.995 5.556-5.445 7.546-2.316 1.823-5.034 3.068-7.928 3.63-3.141 0.655-6.343 0.975-9.552 0.955h-40.215v-50.34l0.382 0.191z" />
<glyph unicode="&#xe914;" glyph-name="equal-housing" horiz-adv-x="931" d="M466.167 960l-464.355-304.512v-114.56h61.269v-365.184h802.303v364.8h60.624v114.56l-459.841 304.896zM767.353 279.808h-606.242v324.992l304.54 200.448 301.186-200.448v-324.864l0.516-0.128zM301.192 493.312h326.339v118.272h-326.339zM301.192 337.024h326.339v118.144h-326.339zM120.48 130.944v-13.696h-37.277v-15.872h34.311v-12.544h-34.311v-18.048h38.18v-13.824h-53.788v73.984zM176.332 76.8c1.467 2.103 2.558 4.441 3.225 6.912 0.838 3.261 1.229 6.619 1.161 9.984 0.026 3.186-0.32 6.365-1.032 9.472-0.631 2.903-1.765 5.675-3.354 8.192-1.511 2.342-3.54 4.312-5.933 5.76-5.611 2.746-12.189 2.746-17.8 0-2.396-1.444-4.426-3.415-5.933-5.76-1.566-2.528-2.699-5.296-3.354-8.192-0.7-3.109-1.046-6.286-1.032-9.472-0.010-3.059 0.336-6.108 1.032-9.088 0.675-2.809 1.807-5.49 3.354-7.936 3.175-5.041 8.851-7.98 14.834-7.68h3.483c1.005-0.034 1.981 0.335 2.709 1.024l-6.707 6.272 7.223 8.064 8.126-7.552zM178.654 59.648c-5.223-2.935-11.156-4.396-17.155-4.224-5.015-0.072-9.987 0.933-14.576 2.944-4.179 1.904-7.912 4.651-10.964 8.064-3.077 3.798-5.397 8.142-6.836 12.8-1.634 4.826-2.462 9.885-2.451 14.976-0.012 5.217 0.815 10.402 2.451 15.36 1.457 4.651 3.775 8.992 6.836 12.8 2.995 3.538 6.738 6.379 10.964 8.32 9.345 3.993 19.935 3.993 29.28 0 4.219-1.952 7.96-4.791 10.964-8.32 3.077-3.798 5.397-8.142 6.836-12.8 1.592-4.965 2.375-10.15 2.322-15.36 0.055-5.084-0.73-10.143-2.322-14.976-1.44-4.658-3.76-9.002-6.836-12.8l8.771-8.448-7.223-7.808-10.061 9.472zM256.691 62.72c-6.197-5.133-14.126-7.741-22.186-7.296-8.11-0.531-16.111 2.085-22.315 7.296-5.694 5.976-8.555 14.076-7.868 22.272v45.952h15.479v-45.952c-0.167-1.959-0.167-3.929 0-5.888 0.305-1.835 1.009-3.582 2.064-5.12 1.116-1.591 2.626-2.87 4.386-3.712 2.401-1.022 5-1.503 7.61-1.408 4.211-0.469 8.414 0.937 11.48 3.84 2.575 3.75 3.719 8.289 3.225 12.8v45.44h15.479v-45.952c0.67-8.218-2.242-16.326-7.997-22.272zM312.027 86.144l-8.9 27.136-9.158-27.136h18.058zM311.124 131.456l26.442-73.984h-16.123l-5.288 15.872h-25.798l-5.546-16.512h-16.639l26.7 73.984h15.994l0.258 0.64zM357.043 130.944v-60.16h34.44v-13.824h-50.047v73.984zM439.080 130.944v-28.288h28.506v28.288h15.607v-73.984h-15.607v32h-28.506v-32h-15.607v73.984zM508.346 84.608c0.634-2.822 1.769-5.51 3.354-7.936 5.351-7.544 15.523-9.958 23.734-5.632 2.385 1.404 4.414 3.33 5.933 5.632 1.561 2.439 2.695 5.122 3.354 7.936 0.689 2.981 1.035 6.030 1.032 9.088 0.007 3.185-0.339 6.362-1.032 9.472-0.645 2.859-1.779 5.586-3.354 8.064-1.469 2.376-3.507 4.355-5.933 5.76-5.586 2.848-12.214 2.848-17.8 0-2.447-1.378-4.491-3.363-5.933-5.76-1.594-2.468-2.729-5.199-3.354-8.064-0.693-3.11-1.039-6.287-1.032-9.472-0.003-3.058 0.343-6.107 1.032-9.088zM494.157 109.056c1.397 4.676 3.721 9.028 6.836 12.8 2.989 3.544 6.734 6.386 10.964 8.32 9.348 3.978 19.932 3.978 29.28 0 4.217-1.956 7.957-4.794 10.964-8.32 3.077-3.798 5.397-8.142 6.836-12.8 1.598-4.964 2.382-10.15 2.322-15.36 0.057-5.126-0.727-10.228-2.322-15.104-1.44-4.658-3.76-9.002-6.836-12.8-3.041-3.425-6.777-6.173-10.964-8.064-9.364-3.904-19.917-3.904-29.28 0-4.199 1.871-7.939 4.622-10.964 8.064-3.118 3.77-5.443 8.123-6.836 12.8-1.639 4.869-2.466 9.971-2.451 15.104-0.023 5.218 0.805 10.405 2.451 15.36zM621.726 62.72c-13.207-9.75-31.294-9.75-44.501 0-5.694 5.976-8.555 14.076-7.868 22.272v45.952h15.479v-45.952c-0.182-1.959-0.182-3.929 0-5.888 0.305-1.835 1.009-3.582 2.064-5.12 1.124-1.584 2.632-2.86 4.386-3.712 2.391-1.052 4.998-1.534 7.61-1.408 4.215-0.506 8.434 0.906 11.48 3.84 2.555 3.759 3.696 8.29 3.225 12.8v45.44h15.736v-45.952c0.636-8.213-2.271-16.309-7.997-22.272zM652.812 75.264c0.766-1.651 1.916-3.098 3.354-4.224 1.504-1.094 3.215-1.878 5.031-2.304 1.922-0.588 3.922-0.89 5.933-0.896h4.515c1.564 0.255 3.084 0.729 4.515 1.408 1.353 0.677 2.541 1.638 3.483 2.816 0.985 1.332 1.485 2.957 1.419 4.608 0.1 1.799-0.553 3.559-1.806 4.864-1.341 1.364-2.971 2.413-4.773 3.072-2.167 0.921-4.411 1.649-6.707 2.176l-7.61 2.048c-2.633 0.686-5.218 1.542-7.739 2.56-2.437 0.954-4.702 2.294-6.707 3.968-1.989 1.609-3.615 3.615-4.773 5.888-1.284 2.72-1.903 5.702-1.806 8.704-0.080 3.428 0.719 6.819 2.322 9.856 1.488 2.751 3.556 5.152 6.062 7.040 2.572 1.853 5.454 3.239 8.513 4.096 3.097 0.92 6.312 1.394 9.545 1.408 3.608 0.012 7.204-0.418 10.706-1.28 3.241-0.793 6.304-2.183 9.029-4.096 2.666-1.946 4.832-4.49 6.32-7.424 1.658-3.384 2.455-7.12 2.322-10.88h-15.092c-0.011 1.907-0.452 3.788-1.29 5.504-0.669 1.389-1.691 2.58-2.967 3.456-1.299 0.847-2.741 1.454-4.257 1.792-1.758 0.18-3.53 0.18-5.288 0-1.242 0.154-2.499 0.154-3.741 0-1.247-0.225-2.432-0.705-3.483-1.408-1.029-0.667-1.907-1.539-2.58-2.56-0.702-1.158-1.060-2.489-1.032-3.84-0.037-1.198 0.229-2.386 0.774-3.456 0.777-1.118 1.847-2.004 3.096-2.56 2.081-0.912 4.239-1.64 6.449-2.176l10.835-2.944 5.546-1.536c2.485-0.796 4.833-1.961 6.965-3.456 2.401-1.705 4.421-3.884 5.933-6.4 1.81-3.059 2.704-6.567 2.58-10.112 0.041-3.245-0.573-6.466-1.806-9.472-1.251-2.864-3.148-5.404-5.546-7.424-2.716-2.282-5.878-3.981-9.287-4.992-4.179-1.261-8.531-1.865-12.899-1.792-3.838-0.021-7.659 0.496-11.351 1.536-3.525 0.885-6.822 2.498-9.674 4.736-2.869 2.154-5.17 4.965-6.707 8.192-1.748 3.677-2.588 7.713-2.451 11.776h15.092c-0.086-2.205 0.356-4.398 1.29-6.4zM702.988 130.944h15.607v-73.856h-15.607v73.856zM745.554 130.944l29.538-49.664h0.129v49.664h14.576v-73.984h-15.607l-29.409 49.536h-0.129v-49.536h-14.576v73.984zM843.327 57.6c-3.2-1.442-6.675-2.184-10.19-2.176-5.058-0.082-10.074 0.922-14.705 2.944-4.197 1.874-7.936 4.625-10.964 8.064-3.104 3.78-5.427 8.129-6.836 12.8-1.588 4.878-2.372 9.978-2.322 15.104-0.054 5.21 0.73 10.395 2.322 15.36 1.44 4.658 3.76 9.002 6.836 12.8 3.004 3.529 6.745 6.368 10.964 8.32 4.63 2.022 9.646 3.026 14.705 2.944 3.55 0.004 7.078-0.558 10.448-1.664 3.395-1.106 6.547-2.843 9.287-5.12 2.786-2.221 5.108-4.96 6.836-8.064 1.814-3.461 2.911-7.247 3.225-11.136h-14.318c-0.618 3.629-2.487 6.932-5.288 9.344-2.731 2.084-6.102 3.169-9.545 3.072-3.111 0.089-6.187-0.663-8.9-2.176-2.44-1.387-4.482-3.37-5.933-5.76-1.62-2.454-2.757-5.19-3.354-8.064-0.712-3.107-1.058-6.286-1.032-9.472-0.022-3.059 0.324-6.11 1.032-9.088 0.617-2.827 1.754-5.518 3.354-7.936 1.497-2.32 3.532-4.251 5.933-5.632 2.713-1.513 5.789-2.265 8.9-2.176 4.347-0.254 8.617 1.22 11.867 4.096 2.993 3.222 4.73 7.397 4.902 11.776h-15.736v12.16h29.796v-39.936h-9.932l-1.548 8.448c-2.363-3.356-5.563-6.046-9.287-7.808zM81.268-31.488c0.623-2.826 1.759-5.515 3.354-7.936 1.501-2.317 3.534-4.247 5.933-5.632 5.611-2.746 12.189-2.746 17.8 0 2.396 1.389 4.429 3.318 5.933 5.632 1.561 2.439 2.695 5.122 3.354 7.936 0.682 2.982 1.028 6.030 1.032 9.088-0.005 3.185-0.351 6.36-1.032 9.472-0.645 2.859-1.779 5.586-3.354 8.064-1.464 2.347-3.506 4.285-5.933 5.632-5.586 2.848-12.214 2.848-17.8 0-2.431-1.342-4.474-3.282-5.933-5.632-1.609-2.46-2.746-5.194-3.354-8.064-0.718-3.106-1.064-6.285-1.032-9.472-0.034-3.060 0.313-6.112 1.032-9.088zM66.95-7.040c1.44 4.658 3.76 9.002 6.836 12.8 2.986 3.547 6.732 6.39 10.964 8.32 9.348 3.978 19.932 3.978 29.28 0 4.223-1.945 7.966-4.785 10.964-8.32 3.077-3.798 5.397-8.142 6.836-12.8 1.609-4.961 2.393-10.149 2.322-15.36 0.069-5.085-0.716-10.146-2.322-14.976-1.39-4.679-3.715-9.032-6.836-12.8-3.016-3.451-6.759-6.204-10.964-8.064-9.348-3.978-19.932-3.978-29.28 0-4.214 1.845-7.959 4.6-10.964 8.064-3.124 3.766-5.449 8.12-6.836 12.8-1.588 4.834-2.372 9.892-2.322 14.976-0.054 5.21 0.73 10.395 2.322 15.36zM180.201-19.84c1.717-0.134 3.442-0.134 5.16 0 1.553 0.206 3.046 0.729 4.386 1.536 1.266 0.831 2.29 1.979 2.967 3.328 0.832 1.805 1.229 3.777 1.161 5.76 0.088 1.944-0.311 3.879-1.161 5.632-0.643 1.371-1.674 2.527-2.967 3.328-1.347 0.816-2.833 1.38-4.386 1.664-1.717 0.134-3.442 0.134-5.16 0h-12.125v-22.144h12.125v0.896zM184.458 14.848c3.875 0.119 7.734-0.534 11.351-1.92 2.891-1.239 5.484-3.071 7.61-5.376 1.92-2.205 3.368-4.774 4.257-7.552 0.856-2.867 1.29-5.842 1.29-8.832-0.001-2.948-0.436-5.88-1.29-8.704-0.858-2.829-2.309-5.446-4.257-7.68-2.124-2.308-4.718-4.14-7.61-5.376-3.598-1.461-7.465-2.159-11.351-2.048h-16.381v-26.496h-15.994v73.856h31.86l0.516 0.128zM253.982-19.84c1.717-0.137 3.442-0.137 5.16 0 1.554 0.202 3.048 0.726 4.386 1.536 1.27 0.827 2.295 1.976 2.967 3.328 0.832 1.805 1.229 3.777 1.161 5.76 0.088 1.944-0.311 3.879-1.161 5.632-0.637 1.375-1.669 2.533-2.967 3.328-1.347 0.816-2.833 1.38-4.386 1.664-1.717 0.137-3.442 0.137-5.16 0h-11.609v-22.144h11.996l-0.387 0.896zM258.239 14.848c3.874 0.112 7.733-0.541 11.351-1.92 5.645-2.349 9.977-7.023 11.867-12.8 0.874-2.863 1.309-5.84 1.29-8.832 0.018-2.949-0.417-5.884-1.29-8.704-0.851-2.832-2.302-5.45-4.257-7.68-2.064-2.317-4.619-4.153-7.481-5.376-3.6-1.454-7.465-2.151-11.351-2.048h-15.994v-26.496h-15.607v73.856h31.473zM313.704-31.488c0.659-2.814 1.793-5.497 3.354-7.936 1.501-2.317 3.534-4.247 5.933-5.632 8.157-4.715 18.608-2.235 23.734 5.632 1.561 2.439 2.695 5.122 3.354 7.936 0.682 2.982 1.028 6.030 1.032 9.088-0.005 3.185-0.351 6.36-1.032 9.472-0.645 2.859-1.779 5.586-3.354 8.064-1.468 2.343-3.509 4.28-5.933 5.632-5.586 2.848-12.214 2.848-17.8 0-2.431-1.342-4.474-3.282-5.933-5.632-1.575-2.478-2.709-5.205-3.354-8.064-0.712-3.107-1.058-6.286-1.032-9.472-0.022-3.059 0.324-6.11 1.032-9.088zM299.386-7.040c1.44 4.658 3.76 9.002 6.836 12.8 2.992 3.541 6.736 6.382 10.964 8.32 9.348 3.978 19.932 3.978 29.28 0 4.226-1.941 7.969-4.782 10.964-8.32 3.077-3.798 5.397-8.142 6.836-12.8 1.592-4.965 2.375-10.15 2.322-15.36 0.050-5.084-0.734-10.142-2.322-14.976-1.41-4.671-3.733-9.020-6.836-12.8-3.013-3.454-6.757-6.208-10.964-8.064-9.348-3.978-19.932-3.978-29.28 0-4.209 1.853-7.953 4.606-10.964 8.064-3.121 3.768-5.446 8.121-6.836 12.8-1.588 4.834-2.372 9.892-2.322 14.976-0.054 5.21 0.73 10.395 2.322 15.36zM417.539-18.56c2.899-0.207 5.766 0.711 7.997 2.56 2.008 2.189 2.992 5.117 2.709 8.064 0.258 2.867-0.727 5.706-2.709 7.808-2.263 1.78-5.118 2.648-7.997 2.432h-17.026v-20.864h17.026zM423.085 14.848c2.912 0.044 5.804-0.478 8.513-1.536 2.47-1.046 4.707-2.569 6.578-4.48 1.804-1.879 3.207-4.099 4.128-6.528 0.973-2.533 1.454-5.226 1.419-7.936 0.096-3.909-0.791-7.78-2.58-11.264-1.921-3.291-4.928-5.823-8.513-7.168v0c1.756-0.508 3.383-1.381 4.773-2.56 1.278-1.164 2.327-2.553 3.096-4.096 0.797-1.621 1.361-3.344 1.677-5.12 0.37-1.86 0.629-3.741 0.774-5.632v-9.088c0.165-1.592 0.424-3.174 0.774-4.736 0.333-1.326 0.9-2.583 1.677-3.712h-15.607c-0.92 2.728-1.442 5.573-1.548 8.448 0 3.2 0 6.272-0.903 9.344-0.192 3.135-1.364 6.133-3.354 8.576-2.316 1.98-5.339 2.949-8.384 2.688h-15.479v-28.928h-15.607v73.856h38.696l-0.129-0.128zM493.641-59.008v60.16h21.154v13.696h-57.915v-13.696h21.154v-60.16zM582.772-53.376c-6.203-5.122-14.128-7.728-22.186-7.296-8.067-0.497-16.015 2.116-22.186 7.296-5.694 5.976-8.555 14.076-7.868 22.272v45.952h15.607v-45.952c-0.166-1.959-0.166-3.929 0-5.888 0.305-1.835 1.009-3.582 2.064-5.12 1.136-1.54 2.644-2.773 4.386-3.584 2.399-1.026 5-1.507 7.61-1.408 4.215-0.506 8.434 0.906 11.48 3.84 2.575 3.75 3.719 8.289 3.225 12.8v45.952h15.736v-45.952c0.653-8.215-2.256-16.317-7.997-22.272zM626.369-59.136v49.536h0.258l29.409-49.536h15.607v73.984h-14.576v-49.664h-0.258l-29.538 49.664h-15.479v-73.984zM692.927 14.848h15.607v-73.984h-15.607v73.984zM761.161-59.136v60.288h21.154v13.696h-57.915v-13.696h21.154v-60.288zM832.105-59.136v28.416l26.313 45.568h-17.413l-16.381-29.184-16.51 29.184h-17.542l25.926-45.184v-28.8z" />
<glyph unicode="&#xe915;" glyph-name="email" horiz-adv-x="1344" d="M1205.333 960h-1066.667c-73.333 0-132.667-57.6-132.667-128l-0.667-768c0-70.4 60-128 133.333-128h1066.667c73.333 0 133.333 57.6 133.333 128v768c0 70.4-60 128-133.333 128v0zM1205.333 704l-533.333-320-533.333 320v128l533.333-320 533.333 320v-128z" />
<glyph unicode="&#xe916;" glyph-name="pencil" d="M864 960c88.364 0 160-71.634 160-160 0-36.020-11.91-69.258-32-96l-64-64-224 224 64 64c26.742 20.090 59.978 32 96 32zM64 224l-64-288 288 64 592 592-224 224-592-592zM715.578 596.422l-448-448-55.156 55.156 448 448 55.156-55.156z" />
<glyph unicode="&#xe917;" glyph-name="notifications_bell" d="M512 21.333c46.933 0 85.333 38.4 85.333 85.333h-170.667c0-46.933 37.973-85.333 85.333-85.333zM768 277.333v213.333c0 130.987-69.973 240.64-192 269.653v29.013c0 35.413-28.587 64-64 64s-64-28.587-64-64v-29.013c-122.453-29.013-192-138.24-192-269.653v-213.333l-85.333-85.333v-42.667h682.667v42.667l-85.333 85.333z" />
<glyph unicode="&#xe918;" glyph-name="money" horiz-adv-x="1638" d="M1208.32 434.347h-361.813c-10.24 0-17.067 6.827-17.067 17.067s6.827 17.067 17.067 17.067h354.987l426.667 279.893c6.827 6.827 17.067 3.413 23.893-3.413s3.413-17.067-3.413-23.893l-430.080-283.307c-3.413-3.413-6.827-3.413-10.24-3.413zM1208.32 294.4h-361.813c-10.24 0-17.067 6.827-17.067 17.067s6.827 17.067 17.067 17.067h354.987l426.667 279.893c6.827 6.827 17.067 3.413 23.893-3.413s3.413-17.067-3.413-23.893l-430.080-283.307c-3.413-3.413-6.827-3.413-10.24-3.413zM1208.32 151.040h-361.813c-10.24 0-17.067 6.827-17.067 17.067s6.827 17.067 17.067 17.067h354.987l426.667 279.893c6.827 6.827 17.067 3.413 23.893-3.413s3.413-17.067-3.413-23.893l-430.080-283.307c-3.413 0-6.827-3.413-10.24-3.413zM1208.32 11.093h-361.813c-10.24 0-17.067 6.827-17.067 17.067s6.827 17.067 17.067 17.067h354.987l426.667 279.893c6.827 6.827 17.067 3.413 23.893-3.413s3.413-17.067-3.413-23.893l-430.080-283.307c-3.413-3.413-6.827-3.413-10.24-3.413zM853.333-46.933h-484.693c-10.24 0-17.067 6.827-17.067 17.067v672.427c0 6.827 3.413 10.24 6.827 13.653l416.427 317.44c3.413 3.413 6.827 3.413 10.24 3.413h488.107c6.827 0 13.653-3.413 17.067-10.24s0-13.653-6.827-20.48l-409.6-314.027v-662.187c-3.413-6.827-10.24-17.067-20.48-17.067zM385.707-12.8h453.973v655.36c0 6.827 3.413 10.24 6.827 13.653l375.467 286.72h-430.080l-406.187-310.613v-645.12zM368.64 434.347h-368.64c-10.24 0-17.067 6.827-17.067 17.067s6.827 17.067 17.067 17.067h368.64c10.24 0 17.067-6.827 17.067-17.067s-10.24-17.067-17.067-17.067zM368.64 294.4h-368.64c-10.24 0-17.067 6.827-17.067 17.067s6.827 17.067 17.067 17.067h368.64c10.24 0 17.067-6.827 17.067-17.067s-10.24-17.067-17.067-17.067zM368.64 151.040h-368.64c-10.24 0-17.067 6.827-17.067 17.067s6.827 17.067 17.067 17.067h368.64c10.24 0 17.067-6.827 17.067-17.067s-10.24-17.067-17.067-17.067zM368.64 11.093h-368.64c-10.24 0-17.067 6.827-17.067 17.067s6.827 17.067 17.067 17.067h368.64c10.24 0 17.067-6.827 17.067-17.067s-10.24-17.067-17.067-17.067zM1208.32 574.293h-361.813v34.133h354.987l378.88 249.173h-395.947v34.133h453.973c6.827 0 13.653-3.413 17.067-13.653 3.413-6.827 0-13.653-6.827-20.48l-430.080-283.307c-3.413 3.413-6.827 0-10.24 0zM351.573 574.293h-351.573c-6.827 0-13.653 3.413-17.067 13.653-3.413 6.827 0 13.653 6.827 20.48l419.84 279.893c3.413 3.413 6.827 3.413 10.24 3.413h256v-34.133h-252.587l-368.64-249.173h293.547v-34.133zM621.227 38.4c-10.24 0-17.067 6.827-17.067 17.067v85.333c0 10.24 6.827 17.067 17.067 17.067s17.067-6.827 17.067-17.067v-85.333c0-10.24-6.827-17.067-17.067-17.067zM621.227 519.68c-10.24 0-17.067 6.827-17.067 17.067v85.333c0 10.24 6.827 17.067 17.067 17.067s17.067-6.827 17.067-17.067v-85.333c0-10.24-6.827-17.067-17.067-17.067zM607.573 123.733c-64.853 0-116.053 54.613-116.053 122.88 0 10.24 6.827 17.067 17.067 17.067s17.067-6.827 17.067-17.067c0-47.787 37.547-88.747 81.92-88.747s81.92 40.96 81.92 88.747-37.547 88.747-81.92 88.747c-64.853 0-116.053 54.613-116.053 122.88s51.2 122.88 116.053 122.88 116.053-54.613 116.053-122.88c0-10.24-6.827-17.067-17.067-17.067s-17.067 6.827-17.067 17.067c0 47.787-37.547 88.747-81.92 88.747s-81.92-40.96-81.92-88.747 37.547-88.747 81.92-88.747c64.853 0 116.053-54.613 116.053-122.88s-51.2-122.88-116.053-122.88z" />
<glyph unicode="&#xe919;" glyph-name="month_calendar" d="M1004.089-58.311h-981.333c-8.533 0-14.222 5.689-14.222 14.222v896c0 8.533 5.689 14.222 14.222 14.222h170.667c8.533 0 14.222-5.689 14.222-14.222s-8.533-14.222-14.222-14.222h-156.444v-867.556h952.889v867.556h-156.444c-8.533 0-14.222 5.689-14.222 14.222s5.689 14.222 14.222 14.222h170.667c8.533 0 14.222-5.689 14.222-14.222v-896c0-5.689-8.533-14.222-14.222-14.222zM321.422 752.356h-128c-8.533 0-14.222 8.533-14.222 14.222v170.667c0 8.533 5.689 14.222 14.222 14.222h128c8.533 0 14.222-5.689 14.222-14.222v-170.667c0-5.689-8.533-14.222-14.222-14.222zM207.644 780.8h99.556v142.222h-99.556v-142.222zM833.422 752.356h-128c-8.533 0-14.222 5.689-14.222 14.222v170.667c0 8.533 5.689 14.222 14.222 14.222h128c8.533 0 14.222-5.689 14.222-14.222v-170.667c0-5.689-8.533-14.222-14.222-14.222zM719.644 780.8h99.556v142.222h-99.556v-142.222zM705.422 837.689h-384c-8.533 0-14.222 5.689-14.222 14.222s5.689 14.222 14.222 14.222h384c8.533 0 14.222-5.689 14.222-14.222s-8.533-14.222-14.222-14.222zM1004.089 624.356h-981.333c-8.533 0-14.222 5.689-14.222 14.222s5.689 14.222 14.222 14.222h981.333c8.533 0 14.222-5.689 14.222-14.222s-8.533-14.222-14.222-14.222zM278.756 27.022c-8.533 0-14.222 5.689-14.222 14.222v512c0 8.533 5.689 14.222 14.222 14.222s14.222-5.689 14.222-14.222v-512c0-5.689-8.533-14.222-14.222-14.222zM492.089 27.022c-8.533 0-14.222 5.689-14.222 14.222v512c0 8.533 5.689 14.222 14.222 14.222s14.222-5.689 14.222-14.222v-512c0-5.689-8.533-14.222-14.222-14.222zM705.422 27.022c-8.533 0-14.222 5.689-14.222 14.222v512c0 8.533 5.689 14.222 14.222 14.222s14.222-5.689 14.222-14.222v-512c0-5.689-8.533-14.222-14.222-14.222zM918.756 453.689h-810.667c-8.533 0-14.222 5.689-14.222 14.222s5.689 14.222 14.222 14.222h810.667c8.533 0 14.222-5.689 14.222-14.222s-8.533-14.222-14.222-14.222zM918.756 283.022h-810.667c-8.533 0-14.222 5.689-14.222 14.222s5.689 14.222 14.222 14.222h810.667c8.533 0 14.222-5.689 14.222-14.222s-8.533-14.222-14.222-14.222zM918.756 112.356h-810.667c-8.533 0-14.222 5.689-14.222 14.222s5.689 14.222 14.222 14.222h810.667c8.533 0 14.222-5.689 14.222-14.222s-8.533-14.222-14.222-14.222z" />
<glyph unicode="&#xe91a;" glyph-name="alarm_clock" d="M512-17.067c-119.467 0-234.667 42.667-320 128-93.867 85.333-145.067 200.533-149.333 328.533-4.267 123.733 42.667 243.2 128 337.067s200.533 145.067 328.533 149.333c260.267 8.533 477.867-196.267 486.4-452.267 8.533-260.267-196.267-477.867-452.267-486.4-8.533-4.267-12.8-4.267-21.333-4.267zM512 861.867c-4.267 0-8.533 0-12.8 0-106.667-4.267-209.067-51.2-281.6-128-72.533-81.067-110.933-183.467-110.933-290.133s51.2-209.067 128-281.6c81.067-72.533 183.467-110.933 290.133-110.933 226.133 8.533 401.067 196.267 392.533 418.133-4.267 217.6-187.733 392.533-405.333 392.533zM79.135-13.709l111.236 166.864 53.254-35.501-111.236-166.864-53.254 35.501zM760.42 120.137l53.254 35.494 111.216-166.864-53.254-35.494-111.216 166.864zM68.267 742.4h-64c4.267 55.467 25.6 110.933 59.733 149.333 38.4 42.667 85.333 59.733 136.533 59.733v-64c-29.867 4.267-64-12.8-85.333-38.4-29.867-25.6-42.667-68.267-46.933-106.667zM951.467 742.4c-4.267 85.333-64 149.333-132.267 149.333l-4.267 64c102.4 4.267 192-89.6 200.533-209.067l-64-4.267zM482.133 750.933h64v-324.267h-64v324.267zM482.133 482.133h264.533v-64h-264.533v64z" />
<glyph unicode="&#xe91b;" glyph-name="Phone" horiz-adv-x="832" d="M738.944 122.123c0.832-6.656-1.216-8.224-2.464-9.184-25.664-19.936-53.056-39.84-76.96-53.824-28.32-16.64-59.424-24.96-92.384-24.672h-10.912c-9.44-0.032-18.368-0.096-26.112 0.864-31.872 3.936-62.752 13.632-94.336 29.568-31.296 15.84-59.968 35.552-85.248 58.528-21.28 19.328-37.792 35.424-52.032 50.624-20.768 22.112-35.584 39.424-48.064 56.064-25.216 33.824-44.48 61.76-60.576 87.776-20 32.576-38.24 65.536-54.080 97.92-23.392 47.744-37.696 97.024-42.592 146.4-1.408 13.824-1.184 28.48-0.96 44.064 0.064 6.656 0.16 13.312 0.16 19.936 4.96 35.456 17.216 68.8 36.384 99.072 12.288 19.36 23.68 32.608 35.872 41.568l10.848 8c20.8 15.424 41.632 30.912 63.776 44.48 6.048 3.712 11.264 6.944 23.904-7.2 18.368-20.544 30.528-46.976 43.424-74.976l1.664-3.584c8.736-18.976 14.752-34.528 18.912-49.088 9.664-33.344-3.104-47.872-21.856-59.36l-6.912-4.192c-14.592-8.896-29.248-17.856-43.2-27.616l-6.848-4.928c-29.28-21.408-43.936-52-42.368-88.416 1.888-45.984 20.928-83.552 40.256-118.080 21.152-37.856 46.368-74.4 77.152-111.744 24.704-29.856 47.776-51.36 72.704-67.712 28.768-18.848 57.696-25.376 85.856-19.424 17.632 3.68 32.384 12.736 41.888 19.168l6.752 4.64c7.264 5.088 14.368 10.368 21.472 15.616 12.032 8.832 23.904 17.664 36.64 25.44 8.224 4.992 19.392 8.48 40.416-3.36s38.976-30.144 55.2-48.128c4.544-5.056 9.28-10.048 13.984-14.976 7.968-8.352 15.456-16.256 21.664-24.256 9.952-12.928 17.696-23.744 19.072-34.976zM756.224 236.107c-4.192 4.448-8.416 8.832-12.512 13.44-20.704 22.944-44.128 46.592-74.976 63.936-53.152 29.888-95.104 17.472-120.896 1.76-14.752-8.96-28.704-19.168-42.688-29.472-6.56-4.864-13.152-9.728-19.84-14.4l-5.664-3.904c-8.448-5.728-12.288-6.848-13.344-7.072-4.32-0.928-11.776-1.056-26.048 8.288-18.176 11.904-35.744 28.48-55.296 52.064-27.68 33.664-50.336 66.432-69.248 100.192-15.904 28.416-29.184 54.336-30.368 83.168-0.416 9.76 2.080 15.168 9.568 20.64l5.472 3.936c12.576 8.8 25.76 16.768 38.912 24.8l7.104 4.32c55.584 34.144 75.232 87.136 57.216 149.344-5.28 18.368-12.64 37.472-23.040 60.096l-1.664 3.552c-14.72 32-29.952 65.088-56.128 94.336-35.392 39.616-81.984 47.648-124.608 21.472-24.096-14.688-46.976-31.584-69.664-48.416l-10.72-7.936c-20.48-15.104-38.304-35.232-56.096-63.296-25.952-40.928-42.24-85.984-48.48-134.016l-0.32-5.376c0.064-7.008-0.064-14.016-0.16-21.024-0.256-17.12-0.512-34.784 1.344-52.992 5.792-58.656 22.656-116.896 50.144-173.056 16.992-34.656 36.384-69.824 57.792-104.608 17.312-28.032 37.824-57.696 64.448-93.44 18.272-24.48 38.272-46.4 53.632-62.784 15.712-16.736 33.664-34.208 56.512-54.976 30.432-27.68 64.928-51.392 102.528-70.464 39.36-19.872 79.808-32.48 120.352-37.504 12.832-1.568 25.28-1.504 36.288-1.44h9.856c47.68-0.352 92.672 11.648 133.664 35.744 13.024 7.648 26.304 16.224 40.608 26.24 15.328 10.72 30.272 22.016 44.96 33.44 24.928 19.328 36.96 49.12 32.992 81.824-3.744 30.88-19.232 53.12-34.784 73.312-8.64 11.168-17.888 20.896-26.816 30.304z" />
<glyph unicode="&#xe950;" glyph-name="error" horiz-adv-x="1240" d="M0-64h1235.088l-617.544 1024-617.544-1024zM673.684 97.684h-112.281v107.789h112.281v-107.789zM673.684 313.263h-112.281v215.579h112.281v-215.579z" />
<glyph unicode="&#xe951;" glyph-name="info-warning" horiz-adv-x="1075" d="M533.333 960c-294.4 0-533.333-229.376-533.333-512s238.933-512 533.333-512c294.4 0 533.333 229.376 533.333 512s-238.933 512-533.333 512v0zM586.667 192h-106.667v307.2h106.667v-307.2zM586.667 601.6h-106.667v102.4h106.667v-102.4z" />
<glyph unicode="&#xe952;" glyph-name="success" horiz-adv-x="1075" d="M533.333 960c-294.4 0-533.333-229.376-533.333-512s238.933-512 533.333-512c294.4 0 533.333 229.376 533.333 512s-238.933 512-533.333 512v0zM426.667 192l-266.667 256 75.2 72.192 191.467-183.296 404.8 388.608 75.2-72.704-480-460.8z" />
</font>
</defs>
</svg>
