<svg width="21" height="18" viewBox="0 0 21 18" version="1.1" xmlns="http://www.w3.org/2000/svg" xmlns:xlink="http://www.w3.org/1999/xlink"><title>Shape</title><desc>Created with Sketch.</desc><g id="Page-1" stroke="none" stroke-width="1" fill="none" fill-rule="evenodd"><g id="Loan-Modification-New-Terms" transform="translate(-995.000000, -585.000000)" fill="#086B94"><g id="CONTENT" transform="translate(335.000000, 275.000000)"><g id="help" transform="translate(640.000000, 139.000000)"><path d="M37.7916667,176 L23.2083333,176 C21.4791667,176 20.0833333,177.34 20.0833333,179 L20.0833333,185 L24.25,185 L24.25,189 L36.75,189 L36.75,185 L40.9166667,185 L40.9166667,179 C40.9166667,177.34 39.5208333,176 37.7916667,176 L37.7916667,176 Z M34.6666667,187 L26.3333333,187 L26.3333333,182 L34.6666667,182 L34.6666667,187 L34.6666667,187 Z M37.7916667,180 C37.21875,180 36.75,179.55 36.75,179 C36.75,178.45 37.21875,178 37.7916667,178 C38.3645833,178 38.8333333,178.45 38.8333333,179 C38.8333333,179.55 38.3645833,180 37.7916667,180 L37.7916667,180 Z M36.75,171 L24.25,171 L24.25,175 L36.75,175 L36.75,171 L36.75,171 Z" id="Shape"/></g></g></g></g></svg>