<svg width="19" height="18" viewBox="0 0 19 18" version="1.1" xmlns="http://www.w3.org/2000/svg" xmlns:xlink="http://www.w3.org/1999/xlink"><title>Shape</title><desc>Created with Sketch.</desc><g id="Page-1" stroke="none" stroke-width="1" fill="none" fill-rule="evenodd"><g id="Loan-Modification-New-Terms" transform="translate(-996.000000, -545.000000)" fill="#086B94"><g id="CONTENT" transform="translate(335.000000, 275.000000)"><g id="help" transform="translate(640.000000, 139.000000)"><path d="M24.7708333,138.79 C26.2708333,141.62 28.6875,143.93 31.6354167,145.38 L33.9270833,143.18 C34.2083333,142.91 34.625,142.82 34.9895833,142.94 C36.15625,143.31 37.4166667,143.51 38.7083333,143.51 C39.28125,143.51 39.75,143.96 39.75,144.51 L39.75,148 C39.75,148.55 39.28125,149 38.7083333,149 C28.9270833,149 21,141.39 21,132 C21,131.45 21.46875,131 22.0416667,131 L25.6875,131 C26.2604167,131 26.7291667,131.45 26.7291667,132 C26.7291667,133.25 26.9375,134.45 27.3229167,135.57 C27.4375,135.92 27.3541667,136.31 27.0625,136.59 L24.7708333,138.79 L24.7708333,138.79 Z" id="Shape"/></g></g></g></g></svg>