<svg width="21" height="16" viewBox="0 0 21 16" version="1.1" xmlns="http://www.w3.org/2000/svg" xmlns:xlink="http://www.w3.org/1999/xlink"><title>Shape</title><desc>Created with Sketch.</desc><g id="Page-1" stroke="none" stroke-width="1" fill="none" fill-rule="evenodd"><g id="Loan-Modification-New-Terms" transform="translate(-996.000000, -506.000000)" fill="#086B94"><g id="CONTENT" transform="translate(335.000000, 275.000000)"><g id="help" transform="translate(640.000000, 139.000000)"><path d="M39.8333333,92 L23.1666667,92 C22.0208333,92 21.09375,92.9 21.09375,94 L21.0833333,106 C21.0833333,107.1 22.0208333,108 23.1666667,108 L39.8333333,108 C40.9791667,108 41.9166667,107.1 41.9166667,106 L41.9166667,94 C41.9166667,92.9 40.9791667,92 39.8333333,92 L39.8333333,92 Z M39.8333333,96 L31.5,101 L23.1666667,96 L23.1666667,94 L31.5,99 L39.8333333,94 L39.8333333,96 L39.8333333,96 Z" id="Shape"/></g></g></g></g></svg>