<svg width="50" height="50" viewBox="0 0 50 50" version="1.1" xmlns="http://www.w3.org/2000/svg" xmlns:xlink="http://www.w3.org/1999/xlink"><title>noun_123846_cc</title><desc>Created with Sketch.</desc><g id="Forms" stroke="none" stroke-width="1" fill="none" fill-rule="evenodd"><g id="Artboard-1" transform="translate(-302.000000, -38.000000)" fill="#009FC7"><g id="noun_123846_cc" transform="translate(302.000000, 38.000000)"><path d="M19.175,6.762 C15.86,6.762 12.743,8.054 10.399,10.398 C5.559,15.238 5.558,23.113 10.398,27.953 C12.742,30.297 15.858,31.588 19.174,31.588 C22.49,31.588 25.608,30.297 27.952,27.952 C32.791,23.113 32.791,15.238 27.952,10.398 C25.607,8.054 22.49,6.762 19.175,6.762 L19.175,6.762 Z M25.831,25.831 C24.053,27.608 21.688,28.588 19.174,28.588 C16.66,28.588 14.296,27.609 12.519,25.832 C8.849,22.162 8.85,16.19 12.52,12.52 C14.298,10.742 16.661,9.763 19.175,9.763 C21.689,9.763 24.053,10.742 25.831,12.52 C29.5,16.189 29.5,22.161 25.831,25.831 L25.831,25.831 Z M49.049,41.171 L35.699,27.82 C39.48,20.62 38.186,11.794 32.372,5.979 C28.847,2.454 24.16,0.512 19.175,0.512 C14.19,0.512 9.504,2.453 5.979,5.978 C-1.298,13.255 -1.298,25.096 5.979,32.373 C9.496,35.89 14.173,37.826 19.149,37.826 C22.181,37.826 25.155,37.094 27.821,35.697 L41.173,49.049 C41.454,49.33 41.836,49.488 42.234,49.488 C42.632,49.488 43.013,49.33 43.295,49.049 L49.051,43.292 C49.635,42.706 49.635,41.757 49.049,41.171 L49.049,41.171 Z M42.232,45.867 L29.136,32.771 C28.847,32.482 28.463,32.332 28.074,32.332 C27.806,32.332 27.537,32.403 27.296,32.551 C24.846,34.04 22.029,34.827 19.149,34.827 C14.975,34.827 11.051,33.203 8.1,30.253 C1.993,24.146 1.993,14.208 8.1,8.101 C11.058,5.143 14.992,3.514 19.175,3.514 C23.359,3.514 27.292,5.143 30.251,8.102 C35.366,13.218 36.312,21.111 32.551,27.297 C32.192,27.888 32.282,28.648 32.772,29.137 L45.868,42.233 L42.232,45.867 L42.232,45.867 Z" id="Shape"/></g></g></g></svg>