<?xml version="1.0" encoding="UTF-8"?> <svg xmlns="http://www.w3.org/2000/svg" xmlns:xlink="http://www.w3.org/1999/xlink" width="66px" height="60px" viewBox="0 0 66 60" version="1.1"><!-- Generator: Sketch 61.1 (89650) - https://sketch.com --><title>megaphone</title><desc>Created with Sketch.</desc><g id="RER-Landing-Page-+-Last-Chance" stroke="none" stroke-width="1" fill="none" fill-rule="evenodd"><g id="XL---RER_LP" transform="translate(-361.000000, -1452.000000)"><g id="CTA-Slice" transform="translate(0.000000, 1342.000000)"><g transform="translate(329.000000, 64.000000)" id="megaphone"><g transform="translate(32.000000, 46.000000)"><path d="M32.067525,57.92535 C31.721775,58.07535 31.364025,58.18185 31.016025,58.2576 C29.039775,58.67085 26.957775,57.9066 25.825275,56.21235 L16.574775,42.6036 L21.041775,41.2131 L32.067525,57.92535 Z" id="Fill-1" fill="#ECECEC"></path><polygon id="Fill-3" fill="#ECECEC" points="18.780975 33.9477 45.012975 25.61895 50.592975 43.54695 21.042225 41.2137"></polygon><path d="M46.503525,30.40755 C50.865525,29.05005 53.291025,24.4323 51.933525,20.0703 C50.576025,15.70755 45.959025,13.2828 41.597025,14.6403 L46.503525,30.40755 Z" id="Fill-5" fill="#00B4D2"></path><path d="M21.042,41.213325 L15.786,42.849075 C9.98025,44.655825 3.81,41.414325 2.00325,35.608575 C0.1965,29.803575 3.438,23.632575 9.24375,21.825825 L14.49975,20.190075 L21.042,41.213325 Z" id="Fill-7" fill="#00B4D2"></path><path d="M21.04185,39.7131 C21.0816,39.7131 21.1206,39.7146 21.1596,39.71835 L48.5016,41.87685 L36.7341,4.06185 L15.44535,21.35385 C15.29685,21.4746 15.12735,21.56535 14.9451,21.62235 L9.6891,23.2581 C7.26435,24.0126 5.27835,25.66635 4.09635,27.91485 C2.91585,30.16335 2.6811,32.73735 3.4356,35.16285 C4.99335,40.1691 10.3356,42.97485 15.34035,41.4171 L20.59635,39.78135 C20.74035,39.73635 20.8911,39.7131 21.04185,39.7131 L21.04185,39.7131 Z M50.5926,45.0471 C50.5536,45.0471 50.5146,45.0456 50.47485,45.04185 L21.2121,42.7311 L16.2321,44.28135 C13.0416,45.2736 9.65535,44.96535 6.69735,43.41135 C3.73935,41.85735 1.5636,39.24435 0.57135,36.05385 C-0.42165,32.8641 -0.11265,29.47785 1.4406,26.51985 C2.9946,23.56185 5.6076,21.3861 8.7981,20.3931 L13.7781,18.8436 L36.5616,0.33585 C36.9486,0.02235 37.46535,-0.0804 37.9416,0.06435 C38.41785,0.20835 38.7921,0.5796 38.93985,1.05435 L52.0251,43.10085 C52.17285,43.57635 52.07535,44.09385 51.76485,44.4831 C51.4791,44.84085 51.04635,45.0471 50.5926,45.0471 L50.5926,45.0471 Z" id="Fill-9" fill="#404750"></path><path d="M25.908225,19.514925 C25.471725,19.514925 25.039725,19.325925 24.743475,18.960675 C24.220725,18.317925 24.318975,17.372925 24.961725,16.850925 L33.721725,9.734925 C34.365225,9.212925 35.310225,9.310425 35.831475,9.953175 C36.354225,10.595925 36.255975,11.540925 35.613225,12.062925 L26.853225,19.178925 C26.574975,19.405425 26.240475,19.514925 25.908225,19.514925" id="Fill-11" fill="#404750"></path><path d="M18.9531,43.434375 L27.0651,55.369125 C27.83385,56.517375 29.2971,57.084375 30.7086,56.789625 C31.2186,56.677875 31.64985,56.500875 31.97535,56.266875 C32.7951,55.726875 33.31635,54.960375 33.49485,54.073875 C33.66885,53.212875 33.4941,52.335375 33.0021,51.602625 L27.3231,43.204875 L21.21285,42.730875 L18.9531,43.434375 Z M29.93235,59.869125 C27.78135,59.869125 25.77735,58.839375 24.5781,57.046125 L15.33435,43.447125 C15.0666,43.054125 15.00135,42.557625 15.1581,42.109125 C15.31485,41.660625 15.67485,41.312625 16.1286,41.171625 L20.59635,39.781125 C20.77785,39.724125 20.9691,39.703125 21.1581,39.717375 L28.27635,40.269375 C28.73235,40.305375 29.1471,40.546125 29.40285,40.924875 L35.48985,49.926375 C36.4341,51.332625 36.76935,53.014875 36.4356,54.667125 C36.09735,56.344875 35.11635,57.790875 33.6741,58.738125 C33.0666,59.176875 32.2626,59.520375 31.33635,59.722875 C30.8661,59.821875 30.39585,59.869125 29.93235,59.869125 L29.93235,59.869125 Z" id="Fill-13" fill="#404750"></path><path d="M21.041625,42.768225 C20.401875,42.768225 19.809375,42.356475 19.609875,41.713725 L13.067625,20.690475 C12.821625,19.899225 13.262625,19.058475 14.053875,18.812475 C14.844375,18.565725 15.685875,19.008225 15.931875,19.799475 L22.474125,40.821975 C22.720125,41.613225 22.278375,42.453975 21.487875,42.699975 C21.339375,42.746475 21.189375,42.768225 21.041625,42.768225" id="Fill-15" fill="#404750"></path><path d="M43.524375,15.786525 L47.440125,28.369275 C50.107125,26.822775 51.455625,23.581275 50.501625,20.516025 C49.547625,17.450775 46.590375,15.548025 43.524375,15.786525 M46.503375,31.907775 C45.863625,31.907775 45.271125,31.496025 45.071625,30.853275 L40.164375,15.085275 C40.045875,14.705775 40.084125,14.294775 40.268625,13.942275 C40.453875,13.589775 40.771125,13.325775 41.150625,13.208025 C46.287375,11.608275 51.766875,14.487525 53.365875,19.624275 C54.964125,24.761025 52.086375,30.241275 46.948875,31.839525 C46.801125,31.886025 46.650375,31.907775 46.503375,31.907775" id="Fill-17" fill="#404750"></path><path d="M57.189225,19.935 C56.549475,19.935 55.956975,19.52325 55.757475,18.8805 C55.511475,18.08925 55.953225,17.2485 56.743725,17.0025 L61.999725,15.36675 C62.790225,15.1215 63.631725,15.56175 63.877725,16.353 C64.123725,17.14425 63.681975,17.985 62.891475,18.231 L57.635475,19.86675 C57.486975,19.91325 57.336975,19.935 57.189225,19.935" id="Fill-19" fill="#404750"></path><path d="M51.290625,10.24065 C50.896875,10.24065 50.503125,10.08615 50.208375,9.78015 C49.634625,9.1824 49.653375,8.2329 50.251125,7.65915 L54.688875,3.3954 C55.287375,2.8209 56.236875,2.84115 56.809875,3.43815 C57.384375,4.0359 57.364875,4.9854 56.767875,5.55915 L52.329375,9.82215 C52.038375,10.1019 51.664125,10.24065 51.290625,10.24065" id="Fill-21" fill="#404750"></path><path d="M63.9084,32.256525 C63.82815,32.256525 63.7464,32.249775 63.66465,32.236275 L57.59115,31.244025 C56.77365,31.111275 56.2194,30.339525 56.3529,29.522025 C56.4864,28.705275 57.25815,28.148025 58.0749,28.283775 L64.1484,29.276025 C64.9659,29.409525 65.52015,30.180525 65.38665,30.998025 C65.26665,31.733775 64.6299,32.256525 63.9084,32.256525" id="Fill-23" fill="#404750"></path></g></g></g></g></g></svg> 