<svg width="428" height="166" viewBox="0 0 428 166" xmlns="http://www.w3.org/2000/svg" xmlns:xlink="http://www.w3.org/1999/xlink">
    <defs>
        <path id="bsneriw4ra" d="M0 165.13h427.95V0H0z"/>
    </defs>
    <g fill="none" fill-rule="evenodd">
        <path d="M280.19 148.5a.898.898 0 0 1-.896-.898V45.352c0-.496.402-.899.896-.899.495 0 .897.403.897.899v102.25a.898.898 0 0 1-.897.899M287.804 148.5a.898.898 0 0 1-.896-.898V45.352c0-.496.402-.899.896-.899.495 0 .897.403.897.899v102.25a.898.898 0 0 1-.897.899" fill="#E8E9EE"/>
        <mask id="zer48kehsb" fill="#fff">
            <use xlink:href="#bsneriw4ra"/>
        </mask>
        <path d="M273.795 154.946h21.237V39.593h-21.237v115.353zm22.133 1.795H272.9a.897.897 0 0 1-.896-.897V38.695c0-.495.4-.897.896-.897h23.03c.494 0 .895.402.895.897v117.149a.897.897 0 0 1-.896.897z" fill="#E8E9EE" mask="url(#zer48kehsb)"/>
        <path d="M296.718 155.005h21.236V75.401l-21.236-12.468v92.072zm22.133 1.796h-23.03a.897.897 0 0 1-.896-.898V61.366a.898.898 0 0 1 1.35-.775l23.029 13.521a.898.898 0 0 1 .443.775v81.016a.897.897 0 0 1-.896.898zM96.848 154.852h29.632V89.095H96.848v65.757zm30.528 1.797H95.951a.897.897 0 0 1-.896-.899V88.196c0-.496.401-.898.896-.898h31.425c.495 0 .897.402.897.898v67.554a.898.898 0 0 1-.897.899z" fill="#E8E9EE" mask="url(#zer48kehsb)"/>
        <path d="M128.942 154.852h42.186V51.562h-42.186v103.29zm43.462 1.797h-44.738c-.704 0-1.276-.403-1.276-.899V50.663c0-.496.572-.898 1.276-.898h44.738c.705 0 1.276.402 1.276.898V155.75c0 .496-.57.899-1.276.899z" fill="#E8E9EE" mask="url(#zer48kehsb)"/>
        <path d="M172.095 62.265h-39.603c-.875 0-1.585-.402-1.585-.898s.71-.899 1.585-.899h39.603c.875 0 1.585.403 1.585.899s-.71.898-1.585.898M172.095 76.259h-39.603c-.875 0-1.585-.403-1.585-.899 0-.495.71-.898 1.585-.898h39.603c.875 0 1.585.403 1.585.898 0 .496-.71.899-1.585.899M172.095 90.253h-39.603c-.875 0-1.585-.403-1.585-.899s.71-.898 1.585-.898h39.603c.875 0 1.585.402 1.585.898s-.71.899-1.585.899M172.095 104.247h-39.603c-.875 0-1.585-.402-1.585-.898s.71-.899 1.585-.899h39.603c.875 0 1.585.403 1.585.899s-.71.898-1.585.898M172.095 118.241h-39.603c-.875 0-1.585-.402-1.585-.898s.71-.899 1.585-.899h39.603c.875 0 1.585.403 1.585.899s-.71.898-1.585.898M172.095 132.235h-39.603c-.875 0-1.585-.403-1.585-.899s.71-.898 1.585-.898h39.603c.875 0 1.585.402 1.585.898s-.71.899-1.585.899M172.095 146.23h-39.603c-.875 0-1.585-.403-1.585-.9 0-.495.71-.898 1.585-.898h39.603c.875 0 1.585.403 1.585.899s-.71.898-1.585.898" fill="#E8E9EE" mask="url(#zer48kehsb)"/>
        <path fill="#FEFEFE" mask="url(#zer48kehsb)" d="M133.437 155.673h-8.272v-20.338l4.136-3.156 4.136 3.156z"/>
        <path d="M126.061 154.775h6.48V135.78l-3.24-2.472-3.24 2.472v18.995zm7.376 1.797h-8.272a.898.898 0 0 1-.897-.899v-20.338a.9.9 0 0 1 .354-.715l4.137-3.156a.893.893 0 0 1 1.085 0l4.136 3.156a.9.9 0 0 1 .354.715v20.338a.898.898 0 0 1-.897.899z" fill="#414750" mask="url(#zer48kehsb)"/>
        <path fill="#FEFEFE" mask="url(#zer48kehsb)" d="M156.326 155.673h-8.273v-20.338l4.137-3.156 4.136 3.156z"/>
        <path d="M148.95 154.775h6.48V135.78l-3.24-2.472-3.24 2.472v18.995zm7.376 1.797h-8.273a.898.898 0 0 1-.896-.899v-20.338a.9.9 0 0 1 .354-.715l4.136-3.156a.893.893 0 0 1 1.085 0l4.137 3.156a.9.9 0 0 1 .353.715v20.338a.898.898 0 0 1-.896.899z" fill="#414750" mask="url(#zer48kehsb)"/>
        <path fill="#FEFEFE" mask="url(#zer48kehsb)" d="M109.734 148.514h63.013v-6.48h-63.013z"/>
        <path d="M110.63 147.616h61.22v-4.683h-61.22v4.683zm62.117 1.797h-63.013a.897.897 0 0 1-.896-.898v-6.48c0-.496.401-.899.896-.899h63.013c.495 0 .896.403.896.899v6.48a.897.897 0 0 1-.896.898z" fill="#414750" mask="url(#zer48kehsb)"/>
        <path fill="#FEFEFE" mask="url(#zer48kehsb)" d="M271.491 155.673h-8.272v-20.338l4.136-3.156 4.136 3.156z"/>
        <path d="M264.115 154.775h6.48V135.78l-3.24-2.472-3.24 2.472v18.995zm7.376 1.797h-8.272a.898.898 0 0 1-.897-.899v-20.338a.9.9 0 0 1 .354-.715l4.137-3.156a.893.893 0 0 1 1.085 0l4.136 3.156a.9.9 0 0 1 .354.715v20.338a.898.898 0 0 1-.897.899z" fill="#414750" mask="url(#zer48kehsb)"/>
        <path fill="#FEFEFE" mask="url(#zer48kehsb)" d="M294.38 155.673h-8.273v-20.338l4.137-3.156 4.136 3.156z"/>
        <path d="M287.004 154.775h6.48V135.78l-3.24-2.472-3.24 2.472v18.995zm7.376 1.797h-8.273a.898.898 0 0 1-.896-.899v-20.338a.9.9 0 0 1 .354-.715l4.136-3.156a.893.893 0 0 1 1.085 0l4.137 3.156a.9.9 0 0 1 .353.715v20.338a.898.898 0 0 1-.896.899z" fill="#414750" mask="url(#zer48kehsb)"/>
        <path fill="#FEFEFE" mask="url(#zer48kehsb)" d="M247.788 148.514H310.8v-6.48h-63.012z"/>
        <path d="M248.685 147.616h61.22v-4.683h-61.22v4.683zm62.116 1.797h-63.013a.897.897 0 0 1-.896-.898v-6.48c0-.496.401-.899.896-.899h63.013c.495 0 .896.403.896.899v6.48a.897.897 0 0 1-.896.898z" fill="#414750" mask="url(#zer48kehsb)"/>
        <path d="M30.625 154.962H45.8v-5.561c0-.496.401-.899.896-.899h13.203V63.788H46.696a.898.898 0 0 1-.896-.899V36.837H30.625v118.125zm16.07 1.797H29.729a.898.898 0 0 1-.896-.898V35.939c0-.497.402-.899.896-.899h16.968c.495 0 .896.402.896.899V61.99h13.203c.495 0 .897.402.897.898v86.512a.897.897 0 0 1-.897.898H47.592v5.562a.897.897 0 0 1-.896.898zM374.767 154.97h15V94.823h-15v60.147zm15.896 1.797h-16.792a.897.897 0 0 1-.897-.899V93.925c0-.497.402-.899.897-.899h16.792c.495 0 .896.402.896.899v61.943a.897.897 0 0 1-.896.899zM348.722 79.592a1.708 1.708 0 0 0 0 3.416h7.116a1.708 1.708 0 0 0 0-3.416h-7.116zm7.116 5.213h-7.116a3.505 3.505 0 0 1 0-7.01h7.116a3.505 3.505 0 0 1 0 7.01z" fill="#E8E9EE" mask="url(#zer48kehsb)"/>
        <path d="M387.464 155.902c.026-.23.042-.462.042-.698 0-3.43-2.774-6.21-6.195-6.21a6.154 6.154 0 0 0-3.821 1.327c-.737-2.598-3.117-4.502-5.945-4.502-3.198 0-5.799 2.441-6.122 5.561-1.13-1.224-2.732-2.002-4.527-2.002-3.416 0-6.185 2.775-6.185 6.2 0 .109.01.216.016.324h32.737z" fill="#009FC7" mask="url(#zer48kehsb)"/>
        <path d="M355.638 155.004h30.968c-.105-2.837-2.44-5.112-5.296-5.112a5.234 5.234 0 0 0-3.267 1.136.897.897 0 0 1-1.416-.46 5.308 5.308 0 0 0-5.082-3.85c-2.7 0-4.95 2.044-5.23 4.755a.897.897 0 0 1-1.55.518c-1.02-1.106-2.394-1.715-3.87-1.715-2.722 0-4.97 2.074-5.257 4.728m31.827 1.797h-32.738a.897.897 0 0 1-.895-.852l-.006-.088a4.23 4.23 0 0 1-.012-.283c0-3.915 3.177-7.099 7.082-7.099a6.94 6.94 0 0 1 3.977 1.238 7.039 7.039 0 0 1 6.672-4.797c2.743 0 5.223 1.612 6.384 4.037a6.985 6.985 0 0 1 3.381-.862c3.911 0 7.092 3.189 7.092 7.109 0 .255-.015.517-.047.8a.897.897 0 0 1-.89.797" fill="#414750" mask="url(#zer48kehsb)"/>
        <path d="M346.294 38.028c-.94 0-1.704.766-1.704 1.708v.531c0 .942.764 1.709 1.704 1.709h26.202c.94 0 1.704-.767 1.704-1.709v-.531c0-.942-.764-1.708-1.704-1.708h-26.202zm26.202 5.745h-26.202a3.505 3.505 0 0 1-3.497-3.506v-.531a3.505 3.505 0 0 1 3.497-3.505h26.202a3.505 3.505 0 0 1 3.497 3.505v.531a3.505 3.505 0 0 1-3.497 3.506zM103.226 53.968c-2.315 0-2.855-3.218-.677-4.01a7.094 7.094 0 0 1 4.14-.21c1.35-3.154 4.478-5.366 8.122-5.366.28 0 .556.015.829.04 1.147-4.422 5.156-7.686 9.926-7.686 3.96 0 7.394 2.251 9.103 5.546a8.843 8.843 0 0 1 3.134-.053c3.916.634 6.989 3.898 7.375 7.856l.009.092c.18 2.047-1.48 3.791-3.529 3.791h-38.432zM331.578 21.79c2.316 0 2.855-3.218.678-4.009a7.094 7.094 0 0 0-4.14-.21c-1.351-3.155-4.48-5.366-8.123-5.366-.28 0-.556.015-.829.04-1.147-4.422-5.156-7.686-9.926-7.686-3.96 0-7.394 2.25-9.103 5.546a8.846 8.846 0 0 0-3.134-.054c-3.916.635-6.988 3.898-7.375 7.856a6.454 6.454 0 0 0-.009.093c-.179 2.046 1.48 3.79 3.53 3.79h38.43zM241.754 49.434a1.708 1.708 0 0 0 0 3.416h12.331a1.708 1.708 0 0 0 0-3.416h-12.33zm12.331 5.213h-12.33a3.505 3.505 0 0 1 0-7.01h12.33a3.505 3.505 0 0 1 3.496 3.505 3.505 3.505 0 0 1-3.496 3.505zM70.566 40.9a1.708 1.708 0 0 0 0 3.416h17.628a1.708 1.708 0 0 0 0-3.416H70.566zm17.628 5.213H70.566a3.505 3.505 0 0 1 0-7.01h17.628a3.505 3.505 0 0 1 0 7.01z" fill="#E8E9EE" mask="url(#zer48kehsb)"/>
        <path d="M88.456 75.488c2.054 0 2.532-2.854.6-3.556a6.276 6.276 0 0 0-3.671-.186 7.84 7.84 0 0 0-7.94-4.725c-1.018-3.923-4.574-6.819-8.806-6.819a9.091 9.091 0 0 0-8.075 4.92 7.832 7.832 0 0 0-2.78-.047c-3.474.562-6.2 3.458-6.543 6.968l-.008.083c-.159 1.815 1.313 3.362 3.13 3.362h34.093z" fill="#FEFEFE" mask="url(#zer48kehsb)"/>
        <path d="M59.042 65.871c-.373 0-.745.03-1.116.09-3.055.496-5.492 3.09-5.793 6.17l-.006.066a2.146 2.146 0 0 0 .564 1.654c.429.47 1.038.738 1.673.738h34.092c.72 0 .879-.58.91-.759.066-.377-.06-.852-.615-1.054a5.417 5.417 0 0 0-3.148-.159.897.897 0 0 1-1.042-.517 6.938 6.938 0 0 0-7.034-4.185.898.898 0 0 1-.95-.668 8.203 8.203 0 0 0-7.938-6.147c-3.071 0-5.86 1.7-7.28 4.436a.897.897 0 0 1-.968.467 7.01 7.01 0 0 0-1.35-.132m29.415 10.515H54.364a4.067 4.067 0 0 1-2.995-1.321 3.973 3.973 0 0 1-1.028-3.018l.008-.086a8.737 8.737 0 0 1 9.739-7.824 9.959 9.959 0 0 1 8.55-4.834 9.994 9.994 0 0 1 9.462 6.784 8.712 8.712 0 0 1 7.793 4.644 7.186 7.186 0 0 1 3.469.356 2.71 2.71 0 0 1 1.77 3.054 2.678 2.678 0 0 1-2.676 2.245" fill="#414750" mask="url(#zer48kehsb)"/>
        <path fill="#FEFEFE" mask="url(#zer48kehsb)" d="m361.827 120.613-26.618-19.412-26.657 19.412v35.248h53.275z"/>
        <path d="M309.45 154.962h51.48v-33.891l-25.72-18.76-25.76 18.76v33.891zm52.377 1.797h-53.274a.898.898 0 0 1-.897-.898v-35.248a.9.9 0 0 1 .37-.727l26.657-19.413a.895.895 0 0 1 1.054 0l26.617 19.413a.899.899 0 0 1 .37.727v35.248a.897.897 0 0 1-.897.898z" fill="#414750" mask="url(#zer48kehsb)"/>
        <path d="M366.637 124.896a.89.89 0 0 1-.524-.17l-30.916-22.417-30.93 22.417a.895.895 0 0 1-1.252-.202.9.9 0 0 1 .201-1.255l31.455-22.797a.894.894 0 0 1 1.05 0l31.442 22.798a.9.9 0 0 1-.526 1.626" fill="#414750" mask="url(#zer48kehsb)"/>
        <path fill="#009FC7" mask="url(#zer48kehsb)" d="M338.446 155.321h14.26v-19.98h-14.26z"/>
        <path d="M339.343 154.423h12.467v-18.184h-12.467v18.184zm13.363 1.797h-14.26a.897.897 0 0 1-.896-.899v-19.98c0-.497.401-.9.897-.9h14.26c.494 0 .895.403.895.9v19.98a.897.897 0 0 1-.896.899z" fill="#414750" mask="url(#zer48kehsb)"/>
        <path fill="#FEFEFE" mask="url(#zer48kehsb)" d="M316.387 144.018h14.26v-9.99h-14.26z"/>
        <path d="M317.284 143.12h12.467v-8.194h-12.467v8.194zm13.363 1.797h-14.26a.897.897 0 0 1-.896-.899v-9.99c0-.496.401-.899.896-.899h14.26c.495 0 .897.403.897.899v9.99a.897.897 0 0 1-.897.899z" fill="#414750" mask="url(#zer48kehsb)"/>
        <path d="M330.647 120.976a4.548 4.548 0 0 1 4.543-4.554 4.548 4.548 0 0 1 4.542 4.554 4.548 4.548 0 0 1-4.542 4.554 4.548 4.548 0 0 1-4.543-4.554" fill="#009FC7" mask="url(#zer48kehsb)"/>
        <path d="M335.19 117.32a3.655 3.655 0 0 0 0 7.31 3.655 3.655 0 0 0 0-7.31m0 9.107c-2.999 0-5.44-2.445-5.44-5.451 0-3.007 2.441-5.452 5.44-5.452 2.999 0 5.439 2.445 5.439 5.452 0 3.006-2.44 5.451-5.44 5.451" fill="#414750" mask="url(#zer48kehsb)"/>
        <path fill="#009FC7" mask="url(#zer48kehsb)" d="M59.74 155.861h50.63v-30.887H59.74z"/>
        <path d="M60.636 154.963h48.838v-29.09H60.636v29.09zm49.734 1.797H59.74a.897.897 0 0 1-.896-.899v-30.887c0-.497.4-.899.896-.899h50.63c.495 0 .897.402.897.899v30.887a.897.897 0 0 1-.897.899z" fill="#414750" mask="url(#zer48kehsb)"/>
        <path fill="#008CAF" mask="url(#zer48kehsb)" d="M60.728 129.43h48.73v-3.636h-48.73z"/>
        <path fill="#FEFEFE" mask="url(#zer48kehsb)" d="M116.082 124.974H54.028l7.995-22.458h46.452z"/>
        <path d="M55.3 124.075h59.532l-6.999-20.661H62.655L55.3 124.075zm60.782 1.797H54.028a.896.896 0 0 1-.844-1.2l7.995-22.459a.896.896 0 0 1 .845-.596h46.45c.385 0 .726.245.85.61l7.607 22.458a.901.901 0 0 1-.849 1.187z" fill="#414750" mask="url(#zer48kehsb)"/>
        <path fill="#009FC7" mask="url(#zer48kehsb)" d="M66.664 102.478h8.172v-8.192h-8.172z"/>
        <path d="M67.56 101.58h6.38v-6.395h-6.38v6.395zm7.276 1.797h-8.172a.898.898 0 0 1-.897-.899v-8.192c0-.496.402-.899.897-.899h8.172c.495 0 .896.403.896.899v8.192a.897.897 0 0 1-.896.899z" fill="#414750" mask="url(#zer48kehsb)"/>
        <path fill="#FEFEFE" mask="url(#zer48kehsb)" d="M91.512 155.751h10.794v-16.297H91.512z"/>
        <path d="M92.408 154.853h9.002v-14.501h-9.002v14.5zm9.898 1.797H91.51a.898.898 0 0 1-.896-.899v-16.298c0-.496.402-.898.896-.898h10.795c.495 0 .896.402.896.898v16.298a.897.897 0 0 1-.896.899z" fill="#414750" mask="url(#zer48kehsb)"/>
        <path fill="#008CAF" mask="url(#zer48kehsb)" d="M66.664 145.16h13.614v-13.646H66.664z"/>
        <path d="M67.56 144.262H79.38v-11.85H67.56v11.85zm12.718 1.797H66.664a.897.897 0 0 1-.897-.899v-13.647c0-.496.402-.898.897-.898h13.614c.494 0 .896.402.896.898v13.647a.897.897 0 0 1-.896.899z" fill="#414750" mask="url(#zer48kehsb)"/>
        <path fill="#E8E9EE" mask="url(#zer48kehsb)" d="m331.35 105.106 29.548 20.92v-5.05l-25.718-18.698z"/>
        <path d="M136.325 155.751c0-4.69-3.793-8.491-8.471-8.491a8.423 8.423 0 0 0-3.416.721c-1.164-3.297-4.3-5.66-7.987-5.66-4.679 0-8.471 3.802-8.471 8.492 0 1.842.587 3.546 1.582 4.938h26.763z" fill="#FEFEFE" mask="url(#zer48kehsb)"/>
        <path d="M110.038 154.853h25.338c-.445-3.765-3.649-6.695-7.523-6.695-1.06 0-2.087.217-3.053.645a.896.896 0 0 1-1.208-.523 7.59 7.59 0 0 0-7.141-5.06c-4.177 0-7.575 3.406-7.575 7.593 0 1.442.4 2.83 1.162 4.04m26.287 1.797H109.56c-.29 0-.56-.14-.728-.376a9.34 9.34 0 0 1-1.75-5.46c0-5.179 4.202-9.391 9.368-9.391a9.385 9.385 0 0 1 8.482 5.405c.94-.31 1.92-.467 2.92-.467 5.166 0 9.368 4.213 9.368 9.39a.897.897 0 0 1-.896.899" fill="#414750" mask="url(#zer48kehsb)"/>
        <path d="M310.666 127.613c-1.299-1.62-1.757-3.806-.994-5.738a7.837 7.837 0 0 0 .549-2.889c0-1.75-.572-3.363-1.537-4.669-.964-1.306-1.193-2.982-.908-4.582.095-.531.113-1.09.042-1.663-.305-2.492-2.337-4.503-4.827-4.779a5.5 5.5 0 0 0-6.119 5.473c0 .359.034.709.1 1.047.302 1.568.027 3.22-.922 4.502a7.827 7.827 0 0 0-1.538 4.671c0 1.02.195 1.995.548 2.89.75 1.892.37 4.073-.92 5.647-1.776 2.167-2.716 5.049-2.325 8.15.608 4.812 4.512 8.664 9.32 9.205 6.427.723 11.87-4.3 11.87-10.595 0-2.525-.876-4.844-2.34-6.67" fill="#E8E9EE" mask="url(#zer48kehsb)"/>
        <path d="M307.859 132.067c0-2.524-.876-4.843-2.34-6.67-1.298-1.62-1.757-3.805-.993-5.737a7.824 7.824 0 0 0 .548-2.89c0-1.749-.57-3.363-1.536-4.668-.965-1.306-1.194-2.982-.909-4.583.095-.531.113-1.09.043-1.663a5.44 5.44 0 0 0-1.015-2.547 5.501 5.501 0 0 0-4.686 6.504c.303 1.568.028 3.22-.922 4.502a7.83 7.83 0 0 0-1.537 4.672c0 1.02.194 1.994.548 2.888.749 1.893.37 4.074-.92 5.648-1.776 2.167-2.716 5.049-2.324 8.15.353 2.799 1.825 5.266 3.937 6.953.08.01.157.027.236.036 6.426.723 11.87-4.298 11.87-10.595" fill="#FEFEFE" mask="url(#zer48kehsb)"/>
        <path d="M302.362 104.157a4.54 4.54 0 0 0-3.062 1.175 4.623 4.623 0 0 0-1.448 4.31c.364 1.888-.03 3.786-1.082 5.208a6.906 6.906 0 0 0-1.362 4.137c0 .882.164 1.743.486 2.557.864 2.186.458 4.696-1.062 6.55-1.715 2.093-2.47 4.745-2.127 7.467.553 4.387 4.141 7.93 8.53 8.424 2.823.316 5.527-.542 7.622-2.419a9.793 9.793 0 0 0 3.252-7.283c0-2.247-.74-4.359-2.142-6.107-1.549-1.933-1.98-4.474-1.128-6.632a6.919 6.919 0 0 0 .485-2.557c0-1.502-.47-2.932-1.36-4.135-1.044-1.413-1.425-3.286-1.07-5.275.08-.455.092-.925.034-1.396-.255-2.085-1.952-3.765-4.035-3.995a4.825 4.825 0 0 0-.531-.03m-.023 41.688c-.434 0-.868-.025-1.304-.074-5.2-.585-9.452-4.784-10.109-9.984-.405-3.216.49-6.354 2.521-8.833 1.106-1.349 1.405-3.168.78-4.747a8.714 8.714 0 0 1-.611-3.22c0-1.89.593-3.69 1.714-5.206.753-1.018 1.03-2.402.762-3.796a6.423 6.423 0 0 1 2.012-5.99 6.418 6.418 0 0 1 4.985-1.594c2.9.32 5.263 2.66 5.62 5.562.078.65.062 1.3-.05 1.93-.267 1.498-.002 2.879.746 3.89a8.697 8.697 0 0 1 1.712 5.205 8.724 8.724 0 0 1-.61 3.22c-.617 1.557-.288 3.413.858 4.844a11.607 11.607 0 0 1 2.536 7.232c0 3.287-1.403 6.43-3.85 8.623a11.56 11.56 0 0 1-7.712 2.938" fill="#414750" mask="url(#zer48kehsb)"/>
        <path fill="#FEFEFE" mask="url(#zer48kehsb)" d="M302.815 126.057V155.6"/>
        <path d="M302.815 156.498a.898.898 0 0 1-.897-.899v-29.542a.898.898 0 1 1 1.793 0V155.6a.898.898 0 0 1-.896.899" fill="#414750" mask="url(#zer48kehsb)"/>
        <path d="M302.815 137.64a.892.892 0 0 1-.634-.263l-3.892-3.902a.9.9 0 0 1 0-1.27.895.895 0 0 1 1.267 0l3.892 3.902a.9.9 0 0 1-.633 1.533" fill="#414750" mask="url(#zer48kehsb)"/>
        <path fill="#E8E9EE" mask="url(#zer48kehsb)" d="M317.239 143.117h12.494v-4.094h-12.494zM67.6 144.368h11.78v-4.914H67.6z"/>
        <path d="M359.302 54.822c1.2 0 2.213-.957 2.216-2.16v-.022c0-4.852-3.923-8.784-8.763-8.784-.2 0-.396.016-.593.03-1.567-4.806-6.073-8.28-11.39-8.28-5.448 0-10.043 3.645-11.5 8.633a8.747 8.747 0 0 0-2.563-.383c-4.84 0-8.763 3.932-8.763 8.784v.022c.003 1.203 1.016 2.16 2.216 2.16h39.14z" fill="#FEFEFE" mask="url(#zer48kehsb)"/>
        <path d="M326.709 44.754c-4.338 0-7.866 3.537-7.866 7.885.001.718.593 1.285 1.32 1.285h39.14c.725 0 1.317-.567 1.319-1.264l.001-.05c0-4.319-3.53-7.856-7.868-7.856-.146 0-.29.01-.432.021l-.1.007a.9.9 0 0 1-.913-.617 11.064 11.064 0 0 0-10.538-7.66c-4.891 0-9.266 3.284-10.64 7.987a.897.897 0 0 1-1.121.607 7.858 7.858 0 0 0-2.302-.345m32.593 10.967h-39.14c-1.712 0-3.108-1.371-3.112-3.057 0-5.364 4.333-9.707 9.659-9.707.664 0 1.326.068 1.975.204 1.845-5.018 6.697-8.453 12.088-8.453a12.85 12.85 0 0 1 12.011 8.249c5.314.015 9.632 4.352 9.632 9.682v.032c-.01 1.682-1.403 3.05-3.113 3.05" fill="#414750" mask="url(#zer48kehsb)"/>
        <path d="M121.385 20.964a1.425 1.425 0 0 0 1.416-1.428v-.015c0-3.825-2.775-6.981-6.414-7.605-1.189-2.737-3.905-4.655-7.073-4.655-3.703 0-6.79 2.616-7.539 6.103-.061-.001-.118-.018-.18-.018-3.738 0-6.855 2.663-7.566 6.2-.16.797.474 1.535 1.285 1.531l26.07-.113" fill="#FEFEFE" mask="url(#zer48kehsb)"/>
        <path d="M101.562 14.244a6.843 6.843 0 0 0-6.654 5.479.357.357 0 0 0 .079.302.416.416 0 0 0 .321.154h.002l26.07-.114a.53.53 0 0 0 .525-.53 6.809 6.809 0 0 0-5.669-6.734.896.896 0 0 1-.67-.526 6.822 6.822 0 0 0-6.252-4.115c-3.19 0-5.99 2.268-6.662 5.394a.897.897 0 0 1-.876.709h-.023a1.562 1.562 0 0 1-.191-.019zm-6.254 7.732a2.198 2.198 0 0 1-1.706-.81 2.156 2.156 0 0 1-.452-1.799 8.645 8.645 0 0 1 7.935-6.904c1.097-3.575 4.447-6.1 8.229-6.1a8.612 8.612 0 0 1 7.693 4.76 8.595 8.595 0 0 1 6.69 8.398 2.332 2.332 0 0 1-2.308 2.34l-26.071.115h-.01z" fill="#414750" mask="url(#zer48kehsb)"/>
        <path d="M49.947 127.68a6.43 6.43 0 0 0 .069-2.009c-.349-2.865-2.676-5.17-5.538-5.489-3.807-.425-7.03 2.552-7.03 6.283 0 .442.044.873.13 1.29.431 2.074.073 4.203-1.056 5.995a8.532 8.532 0 0 0-1.28 5.293c.338 4.022 3.535 7.326 7.538 7.77 5.156.572 9.52-3.459 9.52-8.511 0-1.707-.5-3.295-1.36-4.63-1.14-1.766-1.394-3.928-.993-5.993" fill="#E8E9EE" mask="url(#zer48kehsb)"/>
        <path d="M48.267 136.954c0-1.707-.5-3.295-1.36-4.63-1.14-1.765-1.394-3.928-.993-5.993a6.44 6.44 0 0 0 .068-2.007c-.205-1.682-1.094-3.167-2.37-4.174a6.312 6.312 0 0 0-6.033 7.604c.43 2.076.071 4.205-1.057 5.996a8.533 8.533 0 0 0-1.28 5.292c.226 2.688 1.731 5.049 3.897 6.456 4.983.331 9.128-3.62 9.128-8.544" fill="#FEFEFE" mask="url(#zer48kehsb)"/>
        <path d="M43.75 121.04c-1.336 0-2.597.479-3.602 1.38a5.44 5.44 0 0 0-1.692 5.152c.483 2.324.064 4.689-1.176 6.658a7.614 7.614 0 0 0-1.145 4.737c.3 3.57 3.2 6.559 6.744 6.953 2.213.248 4.335-.431 5.977-1.904a7.69 7.69 0 0 0 2.548-5.714c0-1.476-.42-2.908-1.217-4.142-1.196-1.854-1.593-4.217-1.12-6.653.11-.562.13-1.144.059-1.727-.299-2.453-2.295-4.432-4.746-4.706a5.733 5.733 0 0 0-.63-.035m-.017 26.725c-.35 0-.7-.02-1.051-.058-4.451-.494-7.957-4.106-8.333-8.589a9.408 9.408 0 0 1 1.415-5.847c.991-1.573 1.324-3.467.937-5.333a7.241 7.241 0 0 1 2.251-6.855 7.22 7.22 0 0 1 5.626-1.793c3.268.364 5.93 3.002 6.328 6.273.093.77.067 1.541-.079 2.29-.384 1.976-.077 3.87.866 5.333a9.417 9.417 0 0 1 1.504 5.117 9.49 9.49 0 0 1-3.145 7.052 9.464 9.464 0 0 1-6.319 2.41" fill="#414750" mask="url(#zer48kehsb)"/>
        <path fill="#FEFEFE" mask="url(#zer48kehsb)" d="M43.756 137.113v18.637"/>
        <path d="M43.756 156.648a.898.898 0 0 1-.896-.898v-18.638a.897.897 0 1 1 1.792 0v18.638a.898.898 0 0 1-.896.898" fill="#414750" mask="url(#zer48kehsb)"/>
        <path fill="#FEFEFE" mask="url(#zer48kehsb)" d="M426.787 155.842H1.163"/>
        <path d="M426.787 156.74H1.163c-.642 0-1.163-.402-1.163-.898s.52-.898 1.163-.898h425.624c.642 0 1.163.402 1.163.898s-.52.899-1.163.899" fill="#414750" mask="url(#zer48kehsb)"/>
        <path fill="#FEFEFE" mask="url(#zer48kehsb)" d="M15.321 163.932h97.651"/>
        <path d="M112.973 164.83H15.32c-.64 0-1.16-.402-1.16-.898s.52-.898 1.16-.898h97.653c.64 0 1.16.402 1.16.898s-.52.899-1.16.899" fill="#414750" mask="url(#zer48kehsb)"/>
        <path fill="#FEFEFE" mask="url(#zer48kehsb)" d="M1.16 164.232h4.922"/>
        <path d="M6.082 165.13H1.16c-.64 0-1.16-.402-1.16-.898s.52-.899 1.16-.899h4.922c.64 0 1.16.403 1.16.899s-.52.898-1.16.898" fill="#414750" mask="url(#zer48kehsb)"/>
        <path fill="#FEFEFE" mask="url(#zer48kehsb)" d="M414.627 164.232h11"/>
        <path d="M425.627 165.13h-11c-.64 0-1.16-.402-1.16-.898s.52-.899 1.16-.899h11c.64 0 1.16.403 1.16.899s-.52.898-1.16.898" fill="#414750" mask="url(#zer48kehsb)"/>
        <path fill="#FEFEFE" mask="url(#zer48kehsb)" d="M126.979 163.333h272.859"/>
        <path d="M399.837 164.23H126.98c-.64 0-1.16-.402-1.16-.898s.52-.898 1.16-.898h272.858c.641 0 1.16.402 1.16.898s-.519.899-1.16.899" fill="#414750" mask="url(#zer48kehsb)"/>
        <path d="M244.181 6.693h-4.864V9.31c0 2.761-2.263 5.008-5.047 5.008h-40.687c-2.783 0-5.048-2.247-5.048-5.008V6.693h-4.864c-3.773 0-6.843 3.034-6.843 6.765v129.85c0 3.73 3.07 6.765 6.843 6.765h60.51c3.774 0 6.844-3.035 6.844-6.765V13.458c0-3.73-3.07-6.765-6.844-6.765" fill="#FEFEFE" mask="url(#zer48kehsb)"/>
        <path d="M196.294 8.142a.791.791 0 0 0 .28-.54.793.793 0 0 0-.182-.582.79.79 0 0 0-1.12-.098.8.8 0 0 0-.098 1.123.794.794 0 0 0 1.12.097M232.582 8.142a.799.799 0 0 0-.512-1.406.8.8 0 0 0-.608 1.31.794.794 0 0 0 1.12.096" fill="#009FC7" mask="url(#zer48kehsb)"/>
        <path d="M252.818 143.308c0 4.721-3.875 8.562-8.637 8.562h-60.51c-4.762 0-8.636-3.84-8.636-8.562V13.458c0-4.721 3.874-8.562 8.637-8.562h6.656V9.31c0 1.77 1.46 3.21 3.254 3.21h40.688c1.795 0 3.255-1.44 3.255-3.21V4.896h6.656c4.762 0 8.637 3.84 8.637 8.561v129.851zm-58.7-137.76a2.57 2.57 0 0 1 1.888-.6c.689.06 1.312.385 1.757.915a2.58 2.58 0 0 1 .598 1.893 2.577 2.577 0 0 1-.913 1.762 2.565 2.565 0 0 1-1.889.598 2.567 2.567 0 0 1-1.757-.915 2.601 2.601 0 0 1 .316-3.654zm5.458 0a2.57 2.57 0 0 1 1.888-.6c.689.06 1.313.385 1.758.915a2.58 2.58 0 0 1 .598 1.893 2.577 2.577 0 0 1-.913 1.762 2.566 2.566 0 0 1-1.889.598 2.566 2.566 0 0 1-1.758-.915 2.601 2.601 0 0 1 .316-3.654zm4.536 1.707c0-1.192.968-2.162 2.157-2.162h15.315c1.19 0 2.157.97 2.157 2.162v.555a2.162 2.162 0 0 1-2.157 2.162h-15.315c-1.19 0-2.157-.97-2.157-2.162v-.555zm20.835-1.708a2.586 2.586 0 0 1 3.645.316 2.6 2.6 0 0 1-.315 3.655 2.565 2.565 0 0 1-1.889.598 2.567 2.567 0 0 1-1.757-.915 2.601 2.601 0 0 1 .316-3.654zm5.458 0a2.586 2.586 0 0 1 3.646.316 2.601 2.601 0 0 1-.315 3.655 2.566 2.566 0 0 1-1.889.598 2.566 2.566 0 0 1-1.758-.915 2.601 2.601 0 0 1 .316-3.654zm16.764-3.75H180.78c-4.612 0-8.363 3.761-8.363 8.384v136.404c0 4.623 3.751 8.384 8.363 8.384h66.39c4.612 0 8.363-3.761 8.363-8.384V10.181c0-4.623-3.751-8.384-8.364-8.384z" fill="#009FC7" mask="url(#zer48kehsb)"/>
        <path d="M227.123 8.142a.799.799 0 0 0-.512-1.406.8.8 0 0 0-.608 1.31.794.794 0 0 0 1.12.096" fill="#009FC7" mask="url(#zer48kehsb)"/>
        <path d="M206.27 8.175h15.314a.37.37 0 0 0 .364-.365v-.555a.37.37 0 0 0-.364-.365h-15.315a.37.37 0 0 0-.364.365v.555a.37.37 0 0 0 .364.365" fill="#FEFEFE" mask="url(#zer48kehsb)"/>
        <path d="M201.753 8.142a.791.791 0 0 0 .28-.54.793.793 0 0 0-.183-.582.79.79 0 0 0-1.12-.098.8.8 0 0 0-.097 1.123.794.794 0 0 0 1.12.097" fill="#009FC7" mask="url(#zer48kehsb)"/>
        <path d="M255.533 146.585c0 4.623-3.752 8.383-8.363 8.383h-66.39c-4.612 0-8.363-3.76-8.363-8.383V10.181c0-4.623 3.751-8.384 8.363-8.384h66.39c4.611 0 8.363 3.761 8.363 8.384v136.404zm.153-106.087V20.822h1.022c.216 0 .42.042.618.102V10.18C257.326 4.567 252.77 0 247.17 0h-66.39c-5.6 0-10.156 4.566-10.156 10.18v10.685c.166-.026.34-.044.522-.044h1.022v21.373h-1.022a3.24 3.24 0 0 1-.522-.045v104.435c0 5.614 4.556 10.18 10.156 10.18h66.39c5.6 0 10.156-4.566 10.156-10.18V40.397c-.197.06-.402.101-.618.101h-1.022z" fill="#414750" mask="url(#zer48kehsb)"/>
        <path d="M257.326 20.924v19.473a2.157 2.157 0 0 0 1.539-2.061V22.984c0-.975-.652-1.792-1.54-2.06" fill="#414750" mask="url(#zer48kehsb)"/>
        <path d="M256.708 20.822h-1.022v19.676h1.022c.216 0 .42-.041.618-.101V20.924a2.12 2.12 0 0 0-.618-.102M170.624 20.866c-.971.155-1.635.734-1.635 1.495v7.782c0 .621.445 1.117 1.134 1.365.155-.056.322-.101.501-.13V20.866zM171.146 31.334h1.022V20.822h-1.022c-.183 0-.356.018-.522.044v10.512c.166-.026.34-.044.522-.044M170.122 31.508c-.688.249-1.133.745-1.133 1.365v7.782c0 .762.664 1.341 1.635 1.495V31.638a2.705 2.705 0 0 1-.502-.13M172.168 42.195V31.683h-1.022a3.29 3.29 0 0 1-.522-.045V42.15c.166.027.339.045.522.045h1.022z" fill="#414750" mask="url(#zer48kehsb)"/>
        <path d="M170.624 31.378c-.18.029-.346.074-.501.13.155.057.322.102.501.13v-.26zM170.624 31.378v.26c.166.027.34.044.522.044h1.022v-.348h-1.022c-.183 0-.356.018-.522.044" fill="#009FC7" mask="url(#zer48kehsb)"/>
        <path d="M251.025 143.308c0 3.73-3.07 6.765-6.844 6.765h-60.51c-3.773 0-6.844-3.035-6.844-6.765V13.458c0-3.73 3.07-6.765 6.845-6.765h4.863V9.31c0 2.761 2.264 5.007 5.047 5.007h40.688c2.783 0 5.048-2.246 5.048-5.007V6.693h4.863c3.774 0 6.844 3.034 6.844 6.764v129.851zM244.181 4.896h-6.656V9.31c0 1.77-1.46 3.21-3.255 3.21h-40.688c-1.794 0-3.254-1.44-3.254-3.21V4.896h-6.656c-4.763 0-8.637 3.84-8.637 8.561v129.851c0 4.721 3.874 8.562 8.637 8.562h60.51c4.761 0 8.636-3.84 8.636-8.562V13.458c0-4.721-3.875-8.562-8.637-8.562z" fill="#414750" mask="url(#zer48kehsb)"/>
        <path d="M205.905 7.255a.37.37 0 0 1 .364-.365h15.315a.37.37 0 0 1 .364.365v.555a.37.37 0 0 1-.364.365h-15.315a.37.37 0 0 1-.364-.365v-.555zm.364 2.717h15.315c1.19 0 2.157-.97 2.157-2.162v-.555a2.162 2.162 0 0 0-2.157-2.162h-15.315c-1.19 0-2.157.97-2.157 2.162v.555c0 1.192.968 2.162 2.157 2.162zM200.73 6.922a.787.787 0 0 1 .58-.184.788.788 0 0 1 .54.282.79.79 0 0 1 .183.581.794.794 0 0 1-1.4.444.8.8 0 0 1 .097-1.123m.288 3.194a2.57 2.57 0 0 0 1.888-.598c.53-.446.854-1.071.914-1.762a2.581 2.581 0 0 0-.598-1.893 2.57 2.57 0 0 0-1.757-.915 2.573 2.573 0 0 0-1.889.599 2.601 2.601 0 0 0-.316 3.654c.445.53 1.069.856 1.758.915M195.271 6.922a.787.787 0 0 1 .58-.184.788.788 0 0 1 .54.282.79.79 0 0 1 .184.581.794.794 0 0 1-1.4.444.8.8 0 0 1 .096-1.123m.289 3.194a2.57 2.57 0 0 0 1.888-.598c.53-.446.854-1.071.913-1.762a2.581 2.581 0 0 0-.598-1.893 2.57 2.57 0 0 0-1.757-.915 2.575 2.575 0 0 0-1.888.599 2.601 2.601 0 0 0-.316 3.654c.445.53 1.068.856 1.758.915M231.559 6.922a.793.793 0 0 1 1.12.097.799.799 0 0 1-.097 1.123.794.794 0 0 1-1.12-.097.8.8 0 0 1 .097-1.123m.288 3.194a2.57 2.57 0 0 0 1.888-.598 2.601 2.601 0 0 0 .317-3.654 2.587 2.587 0 0 0-3.647-.317 2.601 2.601 0 0 0-.316 3.654c.445.53 1.069.856 1.758.915" fill="#009FC7" mask="url(#zer48kehsb)"/>
        <path d="M226.1 6.922a.793.793 0 0 1 1.12.097.799.799 0 0 1-.097 1.123.794.794 0 0 1-1.12-.097.8.8 0 0 1 .098-1.123m.288 3.194a2.57 2.57 0 0 0 1.888-.598 2.601 2.601 0 0 0 .316-3.654 2.587 2.587 0 0 0-3.646-.317 2.601 2.601 0 0 0-.316 3.654c.445.53 1.068.856 1.758.915" fill="#009FC7" mask="url(#zer48kehsb)"/>
        <path d="M293.23 78.369a1.425 1.425 0 0 0 1.418-1.428v-.015c0-3.825-2.776-6.981-6.414-7.605-1.19-2.737-3.905-4.654-7.074-4.654-3.702 0-6.79 2.615-7.539 6.102-.061-.001-.118-.018-.18-.018-3.737 0-6.854 2.663-7.566 6.2-.16.796.474 1.535 1.285 1.531l26.07-.113" fill="#FEFEFE" mask="url(#zer48kehsb)"/>
        <path d="M273.408 71.65a6.843 6.843 0 0 0-6.654 5.478.36.36 0 0 0 .079.303.417.417 0 0 0 .322.153h.001l26.07-.114a.53.53 0 0 0 .526-.53 6.808 6.808 0 0 0-5.67-6.734.896.896 0 0 1-.67-.527 6.82 6.82 0 0 0-6.252-4.114c-3.188 0-5.99 2.268-6.663 5.394a.897.897 0 0 1-.875.709h-.023a1.563 1.563 0 0 1-.19-.018zm-6.253 7.73a2.2 2.2 0 0 1-1.707-.808 2.16 2.16 0 0 1-.452-1.8 8.647 8.647 0 0 1 7.935-6.904c1.098-3.575 4.448-6.1 8.229-6.1a8.61 8.61 0 0 1 7.693 4.76 8.594 8.594 0 0 1 6.691 8.398c-.002 1.293-1.038 2.335-2.31 2.341l-26.07.114h-.01z" fill="#414750" mask="url(#zer48kehsb)"/>
        <path fill="#009FC7" mask="url(#zer48kehsb)" d="M201.229 50.52H228.7v-3.263H201.23zM201.229 57.493H228.7V54.23H201.23zM201.229 64.568H228.7v-3.262H201.23zM201.229 71.644H228.7V68.38H201.23z"/>
        <path d="M195.228 86.088h37.66V36.645h-37.66v49.443zm38.658 1.999H194.23a.998.998 0 0 1-.996-1V35.647c0-.552.446-1 .996-1h39.655c.55 0 .997.448.997 1v51.442c0 .551-.447.999-.997.999z" fill="#414750" mask="url(#zer48kehsb)"/>
        <path d="M209.97 78.733c-1.28 0-1.896-.985-2.304-1.638-.611-.977-.606-.996-1.228 0-.406.652-1.02 1.638-2.301 1.638-1.28 0-1.893-.986-2.3-1.64-.306-.492-.458-.698-.608-.698a.998.998 0 0 1 0-1.998c1.28 0 1.894.987 2.3 1.64.613.99.606.983 1.22 0 .406-.653 1.02-1.64 2.3-1.64 1.283 0 1.899.986 2.307 1.639.615.988.614.986 1.231-.001.408-.652 1.023-1.638 2.305-1.638a.998.998 0 0 1 0 1.998c-.154 0-.308.206-.615.7-.409.653-1.024 1.638-2.306 1.638M226.887 48.337H201.23a.998.998 0 0 1 0-1.999h25.658a.998.998 0 0 1 0 1.998M226.887 55.35H201.23a.998.998 0 0 1 0-1.997h25.658a.998.998 0 0 1 0 1.998M226.887 62.366H201.23a.998.998 0 0 1 0-1.998h25.658a.998.998 0 0 1 0 1.998M226.887 69.38H201.23a.998.998 0 0 1 0-1.998h25.658a.998.998 0 0 1 0 1.998" fill="#414750" mask="url(#zer48kehsb)"/>
        <path d="M226.228 116.422c0 6.738-5.448 12.2-12.17 12.2-6.72 0-12.17-5.462-12.17-12.2 0-6.737 5.45-12.2 12.17-12.2 6.722 0 12.17 5.463 12.17 12.2" fill="#009FC7" mask="url(#zer48kehsb)"/>
        <path d="M211.931 123.618a.993.993 0 0 1-.704-.293l-4.575-4.586a1 1 0 0 1 0-1.413.994.994 0 0 1 1.409 0l3.762 3.772 7.545-10.085a.996.996 0 0 1 1.396-.2c.439.33.528.957.199 1.399l-8.235 11.006a.997.997 0 0 1-.797.4" fill="#FEFEFE" mask="url(#zer48kehsb)"/>
        <path d="M214.059 105.222c-6.161 0-11.174 5.025-11.174 11.2 0 6.177 5.013 11.2 11.174 11.2 6.16 0 11.173-5.023 11.173-11.2 0-6.175-5.012-11.2-11.173-11.2m0 24.4c-7.26 0-13.168-5.921-13.168-13.2 0-7.278 5.907-13.198 13.168-13.198 7.26 0 13.166 5.92 13.166 13.199 0 7.278-5.906 13.198-13.166 13.198" fill="#414750" mask="url(#zer48kehsb)"/>
    </g>
</svg>
