<svg width="72" height="72" viewBox="0 0 72 72" xmlns="http://www.w3.org/2000/svg" xmlns:xlink="http://www.w3.org/1999/xlink">
    <defs>
        <filter x="-25%" y="-25%" width="150%" height="150%" filterUnits="objectBoundingBox" id="ayl8g32yba">
            <feMorphology radius="1" operator="dilate" in="SourceAlpha" result="shadowSpreadOuter1"/>
            <feOffset in="shadowSpreadOuter1" result="shadowOffsetOuter1"/>
            <feGaussianBlur stdDeviation="3.5" in="shadowOffsetOuter1" result="shadowBlurOuter1"/>
            <feColorMatrix values="0 0 0 0 0 0 0 0 0 0 0 0 0 0 0 0 0 0 0.1 0" in="shadowBlurOuter1"/>
        </filter>
        <circle id="feouyaydhb" cx="27" cy="27" r="27"/>
    </defs>
    <g fill="none" fill-rule="evenodd">
        <g transform="rotate(90 27 36)">
            <use fill="#000" filter="url(#ayl8g32yba)" xlink:href="#feouyaydhb"/>
            <use fill="#FFF" xlink:href="#feouyaydhb"/>
        </g>
        <path d="M25 32.313a.86.86 0 0 1 .322-.668.934.934 0 0 1 1.281.102l9.309 10.586 9.308-10.586a.935.935 0 0 1 1.282-.102.852.852 0 0 1 .107 1.233L36.607 44.253a.924.924 0 0 1-.695.31.926.926 0 0 1-.695-.31L25.215 32.878a.857.857 0 0 1-.215-.565z" fill="#333940" fill-rule="nonzero"/>
        <path d="M47 27v22H25V27z"/>
    </g>
</svg>
