<svg width="32" height="32" viewBox="0 0 32 32" xmlns="http://www.w3.org/2000/svg" xmlns:xlink="http://www.w3.org/1999/xlink">
    <defs>
        <path d="M29.593 0C30.921 0 32 .993 32 2.214v27.572C32 31.006 30.92 32 29.593 32H2.407C1.079 32 0 31.007 0 29.786V2.214C0 .994 1.08 0 2.407 0zm.615 16.902H16.896v13.295h12.697c.362 0 .615-.216.615-.411V16.902zm-15.104 0H1.792v12.884c0 .195.253.411.615.411h12.697V16.902zm-4.59 3.495a.892.892 0 0 1 1.268 0c.35.352.35.922 0 1.274L9.55 23.917l2.233 2.246c.35.352.35.923 0 1.275a.89.89 0 0 1-1.267 0l-2.233-2.246-2.234 2.246a.89.89 0 0 1-1.267 0 .905.905 0 0 1 0-1.275l2.234-2.246-2.234-2.246a.905.905 0 0 1 0-1.274.892.892 0 0 1 1.267 0l2.234 2.246zm15.784 4.06a.9.9 0 0 1 .896.902.9.9 0 0 1-.896.902h-5.735a.9.9 0 0 1-.896-.902.9.9 0 0 1 .896-.901zm0-3.333a.9.9 0 0 1 .896.901.9.9 0 0 1-.896.901h-5.735a.9.9 0 0 1-.896-.901.9.9 0 0 1 .896-.901zM15.104 1.803H2.407c-.362 0-.615.217-.615.411V15.1h13.312V1.803zm14.49 0H16.895v13.296h13.312V2.214c0-.194-.253-.411-.615-.411zM8.28 4.553c.496 0 .897.404.897.902v1.982h1.97a.9.9 0 0 1 .897.9.9.9 0 0 1-.896.902H9.178v1.982a.899.899 0 0 1-.897.902.899.899 0 0 1-.896-.902V9.24h-1.97a.9.9 0 0 1-.897-.901.9.9 0 0 1 .897-.901h1.97V5.455c0-.498.402-.901.896-.901zm18.017 2.884a.9.9 0 0 1 .896.9.9.9 0 0 1-.896.902h-5.734a.9.9 0 0 1-.897-.901.9.9 0 0 1 .897-.901z" id="id06l7yy9a"/>
    </defs>
    <g fill="none" fill-rule="evenodd">
        <mask id="wlpxur2csb" fill="#fff">
            <use xlink:href="#id06l7yy9a"/>
        </mask>
        <use fill="#545451" xlink:href="#id06l7yy9a"/>
        <g mask="url(#wlpxur2csb)" fill="#1B6C92">
            <path d="M-8.065-8.112h47.944V40.11H-8.065z"/>
        </g>
    </g>
</svg>
