<svg width="385" height="184" viewBox="0 0 385 184" xmlns="http://www.w3.org/2000/svg" xmlns:xlink="http://www.w3.org/1999/xlink">
    <defs>
        <path id="s6c75iemla" d="M0 182.496h384.704V0H0z"/>
    </defs>
    <g fill="none" fill-rule="evenodd">
        <path d="M244.97 172.355h71.807V37.465H244.97v134.89zm-1.818 1.052h75.443V35.642h-75.443v137.765z" fill="#E8E9EE"/>
        <g transform="translate(0 .456)">
            <path d="M127.256 68.784a.91.91 0 0 1-.91-.912v-6.696a.91.91 0 0 1 .91-.911.91.91 0 0 1 .909.911v6.696a.91.91 0 0 1-.91.912M347.256 39.49h14.514c-.262-3.785-3.417-6.785-7.257-6.785s-6.995 3-7.257 6.786zm16.35 1.824H345.42v-1.315c0-5.027 4.079-9.117 9.092-9.117 5.013 0 9.092 4.09 9.092 9.117v1.315z" fill="#E8E9EE"/>
            <path d="M354.513 32.705a.91.91 0 0 1-.909-.911V21.149a.91.91 0 0 1 .91-.912.91.91 0 0 1 .908.912v10.645a.91.91 0 0 1-.909.911" fill="#E8E9EE"/>
            <mask id="l3xix1wn2b" fill="#fff">
                <use xlink:href="#s6c75iemla"/>
            </mask>
            <path d="M339.52 172.086h30.054V52.248H339.52v119.838zm30.964 1.824H338.61a.91.91 0 0 1-.91-.912V51.336a.91.91 0 0 1 .91-.911h31.873a.91.91 0 0 1 .909.911v121.662a.91.91 0 0 1-.91.912z" fill="#E8E9EE" mask="url(#l3xix1wn2b)"/>
            <path d="M343.625 49.073h21.845v-7.62h-21.845v7.62zm22.754 1.823h-23.663a.91.91 0 0 1-.91-.912v-9.442a.91.91 0 0 1 .91-.911h23.663a.91.91 0 0 1 .909.911v9.442a.91.91 0 0 1-.91.912zM119.511 172.086h32.713V37.746L119.51 50.14v121.945zm33.622 1.823h-34.53a.91.91 0 0 1-.91-.911V49.51c0-.38.234-.719.588-.853l34.53-13.085a.91.91 0 0 1 1.23.854v136.57a.91.91 0 0 1-.908.912zM17.06 172.086h27.904V71.65H17.06v100.437zm28.813 1.824H16.15a.91.91 0 0 1-.909-.912V70.738a.91.91 0 0 1 .91-.912h29.722a.91.91 0 0 1 .91.912v102.26a.91.91 0 0 1-.91.912zM345.804 164.97a.91.91 0 0 1-.909-.912V57.505a.91.91 0 0 1 .91-.912.91.91 0 0 1 .908.912v106.553a.91.91 0 0 1-.909.911" fill="#E8E9EE" mask="url(#l3xix1wn2b)"/>
            <path d="M125.634 145.16a.91.91 0 0 1-.909-.912V80.261a.91.91 0 0 1 .91-.911.91.91 0 0 1 .908.911v63.987a.91.91 0 0 1-.909.912" fill="#E8E9EE" mask="url(#l3xix1wn2b)"/>
            <path d="m101.515 73.436-3.077.98a39.298 39.298 0 0 1-14.588 1.762l-.457-.031a39.309 39.309 0 0 0-16.774 2.53l-3.186 1.226-3.543-20.976 2.686-1.05a39.308 39.308 0 0 1 17.159-2.594 39.298 39.298 0 0 0 14.47-1.656l3.768-1.166 3.542 20.975z" fill="#FEFEFE" mask="url(#l3xix1wn2b)"/>
            <path d="m60.91 59.507 3.234 19.146 2.15-.827a40.49 40.49 0 0 1 17.16-2.588l.458.031a38.238 38.238 0 0 0 14.251-1.722l2.324-.74L97.25 53.64l-2.777.86a40.045 40.045 0 0 1-14.804 1.693 38.642 38.642 0 0 0-16.762 2.535l-1.997.78zm2.523 21.307a.907.907 0 0 1-.896-.759L58.994 59.08a.913.913 0 0 1 .566-1.002l2.686-1.05A40.459 40.459 0 0 1 79.8 54.374c4.79.347 9.547-.196 14.137-1.617l3.768-1.166a.91.91 0 0 1 1.165.719l3.542 20.975a.912.912 0 0 1-.621 1.021l-3.077.98a40.045 40.045 0 0 1-14.925 1.803l-.458-.031a38.638 38.638 0 0 0-16.387 2.472l-3.185 1.225a.903.903 0 0 1-.326.06z" fill="#E8E9EE" mask="url(#l3xix1wn2b)"/>
            <path d="M73.99 67.267c-.583-3.446 1.731-6.712 5.167-7.296 3.437-.583 6.694 1.737 7.276 5.182.582 3.446-1.732 6.712-5.168 7.296-3.437.583-6.694-1.737-7.276-5.182" fill="#FEFEFE" mask="url(#l3xix1wn2b)"/>
            <path d="M74.885 67.114c.498 2.944 3.289 4.936 6.228 4.436a5.36 5.36 0 0 0 3.502-2.204 5.392 5.392 0 0 0 .922-4.04c-.498-2.945-3.293-4.936-6.228-4.436-2.936.499-4.92 3.3-4.424 6.244m5.323 6.336a7.236 7.236 0 0 1-7.115-6.031c-.665-3.936 1.988-7.68 5.912-8.347 3.925-.665 7.66 1.994 8.325 5.93a7.206 7.206 0 0 1-1.233 5.4 7.17 7.17 0 0 1-4.68 2.946c-.406.068-.81.102-1.21.102" fill="#E8E9EE" mask="url(#l3xix1wn2b)"/>
            <path d="M80.093 65.513c-.51.086-.985-.203-1.06-.646-.074-.442.28-.872.79-.959.509-.086.984.204 1.059.646a.426.426 0 1 0 .84-.143c-.13-.772-.813-1.324-1.614-1.37l-.037-.218a.427.427 0 1 0-.84.143l.037.219c-.74.307-1.205 1.053-1.074 1.825.153.907 1.069 1.51 2.041 1.345.51-.087.986.203 1.06.645.075.442-.279.873-.789.96-.51.086-.985-.204-1.06-.646a.426.426 0 1 0-.84.143c.131.772.815 1.323 1.615 1.369l.03.181a.427.427 0 1 0 .84-.143l-.03-.181c.74-.307 1.205-1.053 1.074-1.826-.153-.906-1.069-1.51-2.042-1.344" fill="#E8E9EE" mask="url(#l3xix1wn2b)"/>
            <path d="M97.902 73.597c.054.318.152.617.28.897.085-.026.171-.051.256-.078l3.077-.98-.673-3.989a3.598 3.598 0 0 0-2.94 4.15" fill="#FEFEFE" mask="url(#l3xix1wn2b)"/>
            <path d="M100.124 70.655a2.696 2.696 0 0 0-1.34 2.694l1.703-.542-.363-2.152zm-1.942 4.751a.91.91 0 0 1-.826-.531 4.51 4.51 0 0 1-.35-1.125v-.001c-.414-2.453 1.239-4.785 3.684-5.2a.91.91 0 0 1 1.048.747l.674 3.988a.912.912 0 0 1-.621 1.021l-3.34 1.06a.887.887 0 0 1-.269.041z" fill="#E8E9EE" mask="url(#l3xix1wn2b)"/>
            <path d="M94.524 53.529a3.587 3.587 0 0 0 4.09 2.725l-.641-3.793-3.449 1.068z" fill="#FEFEFE" mask="url(#l3xix1wn2b)"/>
            <path d="M95.732 54.109a2.693 2.693 0 0 0 1.807 1.24l-.289-1.71-1.518.47zm2.284 3.107a4.508 4.508 0 0 1-4.376-3.48.912.912 0 0 1 .617-1.079l3.448-1.067a.91.91 0 0 1 1.164.719l.641 3.793a.911.911 0 0 1-.744 1.05 4.515 4.515 0 0 1-.75.064z" fill="#E8E9EE" mask="url(#l3xix1wn2b)"/>
            <path d="M63.181 57.651c-.202.075-.404.148-.605.226l-2.686 1.05.64 3.794a3.598 3.598 0 0 0 2.651-5.07" fill="#FEFEFE" mask="url(#l3xix1wn2b)"/>
            <path d="m60.91 59.507.34 2.007c.339-.192.635-.458.867-.786.39-.55.557-1.212.476-1.878l-1.683.657zm-.38 4.126a.91.91 0 0 1-.895-.76l-.64-3.793a.913.913 0 0 1 .565-1.002l2.686-1.05c.157-.061.315-.12.473-.178l.147-.054a.909.909 0 0 1 1.14.47c.173.373.294.761.36 1.152a4.49 4.49 0 0 1-.767 3.367 4.468 4.468 0 0 1-2.916 1.834.922.922 0 0 1-.153.014z" fill="#E8E9EE" mask="url(#l3xix1wn2b)"/>
            <path d="M66.619 78.677c.073-.028.147-.053.22-.081a3.587 3.587 0 0 0-4.08-2.682l.674 3.989 3.186-1.226z" fill="#FEFEFE" mask="url(#l3xix1wn2b)"/>
            <path d="m63.834 76.82.31 1.833 1.505-.579a2.705 2.705 0 0 0-1.815-1.255zm-.401 3.995a.908.908 0 0 1-.896-.76l-.674-3.989a.914.914 0 0 1 .745-1.051c2.305-.391 4.552 1.085 5.114 3.363.11.448-.131.909-.564 1.072l-.213.078-3.187 1.226a.901.901 0 0 1-.325.06z" fill="#E8E9EE" mask="url(#l3xix1wn2b)"/>
            <path d="m133.511 52.732-3.173-.597a39.333 39.333 0 0 1-13.682-5.371l-.389-.245a39.34 39.34 0 0 0-15.97-5.732l-3.385-.433 6.781-20.158 2.862.35a39.329 39.329 0 0 1 16.34 5.858 39.341 39.341 0 0 0 13.527 5.41l3.87.76-6.78 20.158z" fill="#FEFEFE" mask="url(#l3xix1wn2b)"/>
            <path d="m98.129 39.59 2.283.293a40.51 40.51 0 0 1 16.339 5.864l.388.245a38.278 38.278 0 0 0 13.367 5.247l2.397.451 6.196-18.421-2.852-.561a40.072 40.072 0 0 1-13.84-5.534 38.668 38.668 0 0 0-15.962-5.723l-2.127-.26-6.19 18.4zm35.383 14.054a.92.92 0 0 1-.168-.016l-3.174-.597c-4.989-.94-9.699-2.788-13.998-5.495l-.388-.245a38.683 38.683 0 0 0-15.602-5.6l-3.385-.433a.913.913 0 0 1-.746-1.195l6.78-20.158a.908.908 0 0 1 .972-.614l2.862.35a40.49 40.49 0 0 1 16.716 5.993 38.309 38.309 0 0 0 13.216 5.286l3.87.76a.91.91 0 0 1 .687 1.186l-6.78 20.158a.909.909 0 0 1-.862.62z" fill="#E8E9EE" mask="url(#l3xix1wn2b)"/>
            <path d="M112.176 34.233c1.114-3.311 4.694-5.09 7.997-3.973 3.302 1.117 5.076 4.707 3.962 8.018-1.114 3.312-4.694 5.09-7.996 3.973-3.302-1.116-5.077-4.706-3.963-8.018" fill="#FEFEFE" mask="url(#l3xix1wn2b)"/>
            <path d="M118.151 30.837c-.821 0-1.637.19-2.394.566a5.374 5.374 0 0 0-2.719 3.122 5.394 5.394 0 0 0 .278 4.136 5.37 5.37 0 0 0 3.114 2.727 5.355 5.355 0 0 0 4.125-.28 5.377 5.377 0 0 0 2.719-3.121 5.392 5.392 0 0 0-.278-4.136 5.37 5.37 0 0 0-3.114-2.727 5.401 5.401 0 0 0-1.731-.287zm.012 12.661a7.22 7.22 0 0 1-2.315-.383 7.18 7.18 0 0 1-4.161-3.645 7.21 7.21 0 0 1-.372-5.528 7.19 7.19 0 0 1 3.635-4.173 7.156 7.156 0 0 1 5.513-.373 7.179 7.179 0 0 1 4.162 3.646 7.209 7.209 0 0 1 .372 5.528 7.187 7.187 0 0 1-3.635 4.172 7.18 7.18 0 0 1-3.2.756z" fill="#E8E9EE" mask="url(#l3xix1wn2b)"/>
            <path d="M118.381 35.586c-.49-.166-.771-.647-.629-1.072.143-.425.658-.636 1.148-.47.49.165.772.646.629 1.071a.426.426 0 1 0 .808.273c.249-.742-.092-1.552-.777-1.972l.071-.21a.427.427 0 1 0-.807-.273l-.07.21c-.799-.081-1.56.357-1.809 1.098-.293.872.23 1.838 1.164 2.154.49.166.772.646.629 1.071-.143.425-.658.636-1.148.47-.49-.165-.771-.645-.629-1.07a.426.426 0 1 0-.807-.273c-.25.741.092 1.551.776 1.971l-.06.175a.427.427 0 0 0 .808.273l.06-.174c.797.08 1.558-.356 1.807-1.098.294-.872-.229-1.838-1.164-2.154" fill="#E8E9EE" mask="url(#l3xix1wn2b)"/>
            <path d="M130.253 51.159a3.609 3.609 0 0 0-.178.923l.263.053 3.173.597 1.29-3.833a3.587 3.587 0 0 0-4.548 2.26" fill="#FEFEFE" mask="url(#l3xix1wn2b)"/>
            <path d="m131.146 51.36 1.757.33.696-2.068a2.688 2.688 0 0 0-2.453 1.738m2.366 2.284a.92.92 0 0 1-.168-.016l-3.442-.65a.912.912 0 0 1-.734-.954c.025-.401.1-.79.223-1.155v-.002a4.501 4.501 0 0 1 5.7-2.832.907.907 0 0 1 .525.46.918.918 0 0 1 .047.695l-1.29 3.834a.91.91 0 0 1-.861.62" fill="#E8E9EE" mask="url(#l3xix1wn2b)"/>
            <path d="M136.75 31.878a3.598 3.598 0 0 0 2.316 4.342l1.226-3.646-3.542-.696z" fill="#FEFEFE" mask="url(#l3xix1wn2b)"/>
            <path d="M137.54 32.962a2.703 2.703 0 0 0 1.006 1.951l.554-1.644-1.56-.307zm1.526 4.17a.909.909 0 0 1-.29-.049c-2.243-.758-3.518-3.149-2.903-5.442a.91.91 0 0 1 1.052-.658l3.542.697a.914.914 0 0 1 .687 1.186l-1.226 3.645a.91.91 0 0 1-.862.62z" fill="#E8E9EE" mask="url(#l3xix1wn2b)"/>
            <path d="M107.195 20.634c-.213-.03-.426-.062-.64-.088l-2.862-.35-1.226 3.646a3.587 3.587 0 0 0 4.728-3.208" fill="#FEFEFE" mask="url(#l3xix1wn2b)"/>
            <path d="m104.318 21.191-.649 1.929c.39-.008.776-.102 1.135-.28a2.662 2.662 0 0 0 1.306-1.43l-1.792-.219zm-.7 3.753c-.483 0-.97-.079-1.442-.239a.913.913 0 0 1-.57-1.155l1.225-3.645a.909.909 0 0 1 .972-.614l2.862.35c.168.021.335.045.503.068l.152.022c.47.065.81.481.783.955a4.56 4.56 0 0 1-.226 1.187 4.477 4.477 0 0 1-2.265 2.6c-.63.314-1.31.471-1.994.471z" fill="#E8E9EE" mask="url(#l3xix1wn2b)"/>
            <path d="M100.297 40.787c.078.01.155.023.232.033a3.598 3.598 0 0 0-2.327-4.299l-1.29 3.833 3.385.433z" fill="#FEFEFE" mask="url(#l3xix1wn2b)"/>
            <path d="m98.129 39.59 1.6.205a2.715 2.715 0 0 0-1.008-1.966l-.592 1.762zm2.401 2.141a.963.963 0 0 1-.12-.007l-.229-.033-3.384-.433a.913.913 0 0 1-.746-1.195l1.29-3.833a.907.907 0 0 1 1.151-.573c2.217.75 3.498 3.116 2.918 5.388a.91.91 0 0 1-.88.686z" fill="#E8E9EE" mask="url(#l3xix1wn2b)"/>
            <path d="m335.51 46.106-3.077.98a39.3 39.3 0 0 1-14.589 1.762l-.457-.031a39.307 39.307 0 0 0-16.774 2.53l-3.186 1.225-3.543-20.975 2.686-1.05a39.308 39.308 0 0 1 17.159-2.595 39.307 39.307 0 0 0 14.47-1.655l3.769-1.166 3.542 20.975z" fill="#FEFEFE" mask="url(#l3xix1wn2b)"/>
            <path d="m294.905 32.177 3.233 19.146 2.15-.827a40.471 40.471 0 0 1 17.16-2.588l.458.03c4.833.328 9.63-.25 14.251-1.721l2.325-.74-3.238-19.168-2.777.86a40.045 40.045 0 0 1-14.804 1.692 38.647 38.647 0 0 0-16.762 2.536l-1.996.78zm2.522 21.307a.907.907 0 0 1-.896-.76l-3.543-20.974a.913.913 0 0 1 .566-1.002l2.686-1.05a40.458 40.458 0 0 1 17.555-2.655c4.79.347 9.546-.196 14.136-1.617l3.768-1.167a.908.908 0 0 1 1.165.72l3.542 20.975a.912.912 0 0 1-.62 1.02l-3.078.98a40.073 40.073 0 0 1-14.925 1.804l-.458-.031a38.642 38.642 0 0 0-16.387 2.471l-3.185 1.225a.903.903 0 0 1-.326.061z" fill="#E8E9EE" mask="url(#l3xix1wn2b)"/>
            <path d="M307.983 39.936c-.581-3.445 1.733-6.712 5.169-7.295 3.436-.584 6.693 1.737 7.275 5.182.582 3.446-1.732 6.712-5.168 7.296-3.436.583-6.694-1.737-7.276-5.183" fill="#FEFEFE" mask="url(#l3xix1wn2b)"/>
            <path d="M308.88 39.784a5.409 5.409 0 0 0 6.227 4.436c2.937-.499 4.921-3.3 4.424-6.245-.497-2.944-3.289-4.934-6.228-4.435-2.936.499-4.92 3.3-4.423 6.244m5.31 6.336a7.15 7.15 0 0 1-4.165-1.339 7.192 7.192 0 0 1-2.938-4.692c-.665-3.936 1.988-7.68 5.913-8.347 3.927-.667 7.66 1.994 8.324 5.929.665 3.936-1.988 7.68-5.913 8.346a7.329 7.329 0 0 1-1.22.103" fill="#E8E9EE" mask="url(#l3xix1wn2b)"/>
            <path d="M314.088 38.182c-.51.086-.985-.203-1.06-.645-.075-.442.28-.872.789-.959.51-.086.985.203 1.06.645a.427.427 0 1 0 .84-.142c-.13-.772-.814-1.324-1.614-1.369l-.038-.22a.426.426 0 1 0-.84.143l.038.22c-.742.306-1.205 1.053-1.075 1.825.153.907 1.07 1.51 2.042 1.345.51-.087.985.203 1.06.645.074.442-.28.872-.79.959-.509.086-.984-.203-1.059-.646a.427.427 0 1 0-.84.144c.13.771.814 1.323 1.614 1.368l.03.182a.426.426 0 1 0 .84-.143l-.03-.181c.741-.308 1.205-1.054 1.075-1.826-.153-.907-1.07-1.51-2.042-1.345" fill="#E8E9EE" mask="url(#l3xix1wn2b)"/>
            <path d="M331.897 46.266c.053.319.15.618.279.898l.256-.079 3.078-.98-.674-3.988a3.598 3.598 0 0 0-2.94 4.15" fill="#FEFEFE" mask="url(#l3xix1wn2b)"/>
            <path d="M334.118 43.324a2.67 2.67 0 0 0-.867.785 2.672 2.672 0 0 0-.472 1.91l1.703-.542-.364-2.153zm-1.942 4.752a.91.91 0 0 1-.827-.532 4.491 4.491 0 0 1 .419-4.49 4.468 4.468 0 0 1 2.916-1.836.907.907 0 0 1 1.049.747l.673 3.989a.912.912 0 0 1-.62 1.02l-3.339 1.06a.916.916 0 0 1-.27.042z" fill="#E8E9EE" mask="url(#l3xix1wn2b)"/>
            <path d="M328.519 26.198a3.587 3.587 0 0 0 4.089 2.726l-.64-3.793-3.45 1.067z" fill="#FEFEFE" mask="url(#l3xix1wn2b)"/>
            <path d="M329.727 26.778a2.694 2.694 0 0 0 1.806 1.242l-.289-1.711-1.517.47zm2.283 3.108a4.508 4.508 0 0 1-4.376-3.48.912.912 0 0 1 .617-1.079l3.448-1.067a.908.908 0 0 1 1.164.718l.641 3.794a.912.912 0 0 1-.744 1.05 4.514 4.514 0 0 1-.75.064z" fill="#E8E9EE" mask="url(#l3xix1wn2b)"/>
            <path d="M297.176 30.32c-.202.076-.405.149-.605.228l-2.686 1.05.64 3.793a3.598 3.598 0 0 0 2.65-5.07" fill="#FEFEFE" mask="url(#l3xix1wn2b)"/>
            <path d="m294.905 32.177.339 2.006a2.695 2.695 0 0 0 1.343-2.664l-1.682.658zm-.38 4.125a.908.908 0 0 1-.896-.759l-.64-3.793a.913.913 0 0 1 .566-1.002l2.685-1.05c.152-.06.304-.115.455-.171l.164-.06a.909.909 0 0 1 1.14.469c.175.375.296.763.362 1.153.415 2.452-1.238 4.785-3.684 5.2a.899.899 0 0 1-.151.013z" fill="#E8E9EE" mask="url(#l3xix1wn2b)"/>
            <path d="M300.613 51.347c.073-.028.147-.053.22-.081a3.587 3.587 0 0 0-4.08-2.682l.674 3.988 3.186-1.225z" fill="#FEFEFE" mask="url(#l3xix1wn2b)"/>
            <path d="m297.829 49.489.31 1.833 1.505-.578a2.705 2.705 0 0 0-1.815-1.255m-.402 3.995a.908.908 0 0 1-.896-.76l-.673-3.988a.911.911 0 0 1 .744-1.051c2.307-.393 4.552 1.085 5.114 3.362.11.449-.131.91-.563 1.072l-.215.08-3.185 1.225a.901.901 0 0 1-.326.06M46.782 172.086h46.8V98.945h-46.8v73.141zm47.71 1.824H45.873a.91.91 0 0 1-.909-.912V98.033a.91.91 0 0 1 .91-.912h48.618a.91.91 0 0 1 .909.912v74.965a.91.91 0 0 1-.91.912zM216.405 26.21a1.485 1.485 0 0 0 0 2.971h9.073a1.485 1.485 0 0 0 0-2.97h-9.073zm9.073 4.794h-9.073c-1.82 0-3.3-1.484-3.3-3.308a3.308 3.308 0 0 1 3.3-3.309h9.073c1.82 0 3.3 1.485 3.3 3.309a3.308 3.308 0 0 1-3.3 3.308zM249.44 17.648a1.485 1.485 0 0 0 0 2.97h20.957a1.485 1.485 0 0 0 0-2.97h-20.958zm20.957 4.793h-20.958c-1.82 0-3.3-1.484-3.3-3.308a3.308 3.308 0 0 1 3.3-3.308h20.958c1.82 0 3.3 1.484 3.3 3.308a3.308 3.308 0 0 1-3.3 3.308zM35.395 42.969a1.485 1.485 0 0 0 0 2.97h20.957a1.485 1.485 0 0 0 0-2.97H35.395zm20.957 4.794H35.395c-1.82 0-3.3-1.485-3.3-3.309a3.308 3.308 0 0 1 3.3-3.308h20.957c1.82 0 3.3 1.484 3.3 3.308a3.308 3.308 0 0 1-3.3 3.309z" fill="#E8E9EE" mask="url(#l3xix1wn2b)"/>
            <path fill="#FEFEFE" mask="url(#l3xix1wn2b)" d="M383.795 172.998H.909"/>
            <path d="M383.795 173.91H.472c-.912-.804-.356-1.824.437-1.824h382.837c.453 0 .873.31.946.759a.911.911 0 0 1-.897 1.064" fill="#414750" mask="url(#l3xix1wn2b)"/>
            <path fill="#FEFEFE" mask="url(#l3xix1wn2b)" d="M32.252 181.281h76.521"/>
            <path d="M108.774 182.192H32.252a.91.91 0 0 1 0-1.823h76.522a.91.91 0 0 1 0 1.823" fill="#414750" mask="url(#l3xix1wn2b)"/>
            <path fill="#FEFEFE" mask="url(#l3xix1wn2b)" d="M16.392 181.585h8.62"/>
            <path d="M25.012 182.496h-8.62a.91.91 0 0 1 0-1.823h8.62a.91.91 0 0 1 0 1.823" fill="#414750" mask="url(#l3xix1wn2b)"/>
            <path fill="#FEFEFE" mask="url(#l3xix1wn2b)" d="M371.409 181.585h8.62"/>
            <path d="M380.029 182.496h-8.62a.91.91 0 0 1 0-1.823h8.62a.91.91 0 0 1 0 1.823" fill="#414750" mask="url(#l3xix1wn2b)"/>
            <path fill="#FEFEFE" mask="url(#l3xix1wn2b)" d="M119.749 180.673H359.82"/>
            <path d="M359.82 181.584H119.75a.91.91 0 0 1-.91-.912.91.91 0 0 1 .91-.911h240.07a.91.91 0 0 1 0 1.823" fill="#414750" mask="url(#l3xix1wn2b)"/>
            <path d="M134.651 172.375a6.4 6.4 0 0 0 .043-.709c0-3.48-2.814-6.3-6.284-6.3a6.24 6.24 0 0 0-3.876 1.347c-.747-2.636-3.16-4.568-6.029-4.568-3.244 0-5.88 2.477-6.208 5.642-1.147-1.242-2.772-2.031-4.593-2.031-3.464 0-6.273 2.815-6.273 6.29 0 .11.01.219.017.329h33.203z" fill="#E8E9EE" mask="url(#l3xix1wn2b)"/>
            <path d="M102.372 171.463h31.41c-.108-2.878-2.476-5.186-5.372-5.186-1.21 0-2.356.398-3.314 1.152a.906.906 0 0 1-1.436-.467 5.384 5.384 0 0 0-5.155-3.906c-2.74 0-5.02 2.074-5.304 4.825a.91.91 0 0 1-1.571.525c-1.036-1.121-2.43-1.739-3.926-1.739-2.76 0-5.041 2.103-5.332 4.796m32.28 1.823h-33.204a.91.91 0 0 1-.908-.864l-.006-.091a3.934 3.934 0 0 1-.012-.285c0-3.971 3.222-7.202 7.182-7.202a7.04 7.04 0 0 1 4.035 1.256 7.138 7.138 0 0 1 6.766-4.867c2.783 0 5.297 1.635 6.475 4.096a7.086 7.086 0 0 1 3.43-.876c3.966 0 7.193 3.236 7.193 7.213 0 .254-.016.519-.048.809a.91.91 0 0 1-.903.81" fill="#414750" mask="url(#l3xix1wn2b)"/>
            <path d="M47.547 26.227c-1.906 0-2.35-2.65-.557-3.3a5.807 5.807 0 0 1 3.407-.173 7.274 7.274 0 0 1 7.368-4.386c.944-3.64 4.243-6.329 8.17-6.329a8.435 8.435 0 0 1 7.492 4.567 7.28 7.28 0 0 1 2.58-.044c3.224.522 5.752 3.21 6.07 6.468l.008.076c.148 1.686-1.218 3.12-2.905 3.12H47.547z" fill="#E8E9EE" mask="url(#l3xix1wn2b)"/>
            <path d="M56.17 90.458a1.446 1.446 0 0 0 1.437-1.448v-.015c0-3.881-2.816-7.083-6.506-7.717-1.206-2.776-3.96-4.721-7.174-4.721-3.755 0-6.886 2.654-7.646 6.191-.062-.002-.12-.018-.182-.018-3.791 0-6.953 2.701-7.675 6.289-.162.809.48 1.558 1.304 1.554l26.441-.115" fill="#FEFEFE" mask="url(#l3xix1wn2b)"/>
            <path d="M36.065 83.641a6.94 6.94 0 0 0-6.75 5.558.364.364 0 0 0 .08.307.423.423 0 0 0 .327.155h.002l26.442-.114a.538.538 0 0 0 .532-.539 6.906 6.906 0 0 0-5.75-6.83.91.91 0 0 1-.68-.535 6.918 6.918 0 0 0-6.34-4.175c-3.235 0-6.077 2.302-6.758 5.472a.91.91 0 0 1-.888.72h-.023a1.585 1.585 0 0 1-.194-.019zm-6.343 7.844a2.23 2.23 0 0 1-1.73-.821 2.188 2.188 0 0 1-.458-1.826 8.77 8.77 0 0 1 8.047-7.004c1.113-3.628 4.51-6.189 8.346-6.189a8.733 8.733 0 0 1 7.802 4.83 8.718 8.718 0 0 1 6.787 8.52c-.002 1.31-1.052 2.369-2.342 2.375l-26.442.115h-.01z" fill="#414750" mask="url(#l3xix1wn2b)"/>
            <path d="M183.424 27.468c.789 0 1.455-.63 1.457-1.42v-.016c0-3.19-2.58-5.777-5.762-5.777-.132 0-.26.01-.39.02-1.03-3.162-3.994-5.446-7.49-5.446-3.583 0-6.604 2.397-7.562 5.679a5.721 5.721 0 0 0-1.685-.253c-3.183 0-5.763 2.587-5.763 5.777v.015c.002.792.668 1.421 1.457 1.421h25.738z" fill="#FEFEFE" mask="url(#l3xix1wn2b)"/>
            <path d="M161.991 21.166c-2.676 0-4.852 2.183-4.852 4.866 0 .29.251.524.547.524h25.738c.296 0 .547-.234.548-.512 0-2.695-2.178-4.878-4.853-4.878-.088 0-.174.007-.26.013l-.07.005a.915.915 0 0 1-.924-.627 6.956 6.956 0 0 0-6.626-4.816c-3.075 0-5.826 2.065-6.69 5.022a.905.905 0 0 1-.44.546.905.905 0 0 1-.698.07 4.83 4.83 0 0 0-1.42-.213m21.433 7.214h-25.738c-1.3 0-2.362-1.046-2.366-2.33 0-3.706 2.993-6.707 6.671-6.707.369 0 .735.03 1.097.09 1.327-3.286 4.564-5.516 8.151-5.516a8.767 8.767 0 0 1 8.116 5.43c3.57.125 6.435 3.076 6.435 6.685a2.359 2.359 0 0 1-2.366 2.348" fill="#414750" mask="url(#l3xix1wn2b)"/>
            <path d="M213.297 127.523c0-12.804 10.35-23.182 23.12-23.182 12.77 0 23.12 10.378 23.12 23.182 0 12.804-10.35 23.182-23.12 23.182-12.77 0-23.12-10.378-23.12-23.182M134.592 127.523c0-12.804 10.351-23.182 23.12-23.182 12.77 0 23.12 10.378 23.12 23.182 0 12.804-10.35 23.182-23.12 23.182-12.769 0-23.12-10.378-23.12-23.182" fill="#FEFEFE" mask="url(#l3xix1wn2b)"/>
            <path fill="#009FC7" mask="url(#l3xix1wn2b)" d="M191.443 161.344h11.243V65.516h-11.243z"/>
            <path stroke="#414750" stroke-width="2.974" mask="url(#l3xix1wn2b)" d="M191.443 161.344h11.243V65.516h-11.243z"/>
            <path d="M192.352 160.433h9.425V66.428h-9.425v94.005zm10.334 1.823h-11.243a.91.91 0 0 1-.909-.912V65.517a.91.91 0 0 1 .91-.912h11.242a.91.91 0 0 1 .91.912v95.827a.91.91 0 0 1-.91.912z" fill="#414750" mask="url(#l3xix1wn2b)"/>
            <path fill="#008CAF" mask="url(#l3xix1wn2b)" d="M197.065 161.344h5.621V65.516h-5.621z"/>
            <path fill="#FEFEFE" mask="url(#l3xix1wn2b)" d="M174.322 161.345h62.095"/>
            <path d="M236.417 162.256h-62.095a.91.91 0 0 1-.909-.911.91.91 0 0 1 .91-.912h62.094a.91.91 0 0 1 0 1.823" fill="#414750" mask="url(#l3xix1wn2b)"/>
            <path fill="#FEFEFE" mask="url(#l3xix1wn2b)" d="M197.065 54.242v11.274"/>
            <path d="M197.065 66.428a.91.91 0 0 1-.91-.911V54.243a.91.91 0 0 1 .91-.912.91.91 0 0 1 .91.912v11.274a.91.91 0 0 1-.91.911" fill="#414750" mask="url(#l3xix1wn2b)"/>
            <path fill="#FEFEFE" mask="url(#l3xix1wn2b)" d="M157.712 65.517h78.705"/>
            <path d="M236.417 66.428h-78.704a.91.91 0 0 1-.91-.911.91.91 0 0 1 .91-.912h78.704a.91.91 0 0 1 0 1.823" fill="#414750" mask="url(#l3xix1wn2b)"/>
            <path d="M135.225 122.798a.91.91 0 0 1-.844-1.25l22.487-56.37a.91.91 0 0 1 1.689 0l22.487 56.37a.909.909 0 1 1-1.689.677L157.713 67.97l-21.643 54.254a.91.91 0 0 1-.845.573M258.905 122.798a.91.91 0 0 1-.845-.573L236.417 67.97l-21.643 54.254a.908.908 0 0 1-1.182.507.913.913 0 0 1-.506-1.185l22.487-56.37a.91.91 0 0 1 1.689 0l22.487 56.37a.912.912 0 0 1-.844 1.25" fill="#414750" mask="url(#l3xix1wn2b)"/>
            <path d="M236.417 104.34c-1.55 0-3.062.16-4.527.45 9.096 2.57 15.77 10.931 15.77 20.873 0 11.986-9.69 21.702-21.643 21.702-.556 0-1.101-.041-1.647-.083 3.512 2.158 7.627 3.424 12.047 3.424 12.77 0 23.12-10.38 23.12-23.183 0-12.804-10.35-23.182-23.12-23.182M157.712 104.34c-1.55 0-3.062.16-4.526.45 9.095 2.57 15.77 10.931 15.77 20.873 0 11.986-9.69 21.702-21.644 21.702-.556 0-1.101-.041-1.646-.083 3.511 2.158 7.626 3.424 12.046 3.424 12.77 0 23.12-10.38 23.12-23.183 0-12.804-10.35-23.182-23.12-23.182" fill="#E8E9EE" mask="url(#l3xix1wn2b)"/>
            <path d="M159.189 137.687h-2.953a4.487 4.487 0 0 1-1.972-.456 4.982 4.982 0 0 1-1.578-1.212 5.622 5.622 0 0 1-1.042-1.754.908.908 0 1 1 1.703-.639c.168.447.404.847.703 1.188.294.334.631.595 1.004.776.376.182.774.274 1.182.274h2.953c.408 0 .805-.092 1.181-.274.374-.18.711-.442 1.005-.776.299-.341.535-.741.702-1.188.175-.468.263-.965.263-1.477 0-.511-.088-1.009-.263-1.477a3.819 3.819 0 0 0-.702-1.188 3.176 3.176 0 0 0-1.004-.775 2.687 2.687 0 0 0-1.182-.275h-2.953a4.49 4.49 0 0 1-1.972-.456 4.99 4.99 0 0 1-1.578-1.211 5.648 5.648 0 0 1-1.042-1.755 6.04 6.04 0 0 1-.378-2.116c0-.73.128-1.441.378-2.115a5.63 5.63 0 0 1 1.042-1.754 4.98 4.98 0 0 1 1.578-1.213 4.483 4.483 0 0 1 1.972-.456h2.953c.684 0 1.347.153 1.972.456a4.984 4.984 0 0 1 1.578 1.213 5.625 5.625 0 0 1 1.041 1.753.908.908 0 1 1-1.703.64 3.813 3.813 0 0 0-.702-1.189 3.191 3.191 0 0 0-1.005-.775 2.696 2.696 0 0 0-1.181-.275h-2.953a2.69 2.69 0 0 0-1.181.275c-.374.18-.711.441-1.005.775-.3.341-.536.742-.703 1.189a4.223 4.223 0 0 0-.263 1.476c0 .512.09 1.01.263 1.478.167.446.404.846.704 1.188.293.333.63.594 1.004.775.376.182.773.274 1.18.274h2.954c.684 0 1.347.154 1.972.456a4.981 4.981 0 0 1 1.578 1.213 5.633 5.633 0 0 1 1.041 1.753c.251.674.379 1.386.379 2.116 0 .73-.128 1.442-.378 2.115a5.626 5.626 0 0 1-1.042 1.755 4.98 4.98 0 0 1-1.579 1.212 4.483 4.483 0 0 1-1.971.456" fill="#06AB84" mask="url(#l3xix1wn2b)"/>
            <path d="M157.713 139.538a.91.91 0 0 1-.91-.912V116.42a.91.91 0 0 1 .91-.911.91.91 0 0 1 .909.911v22.207a.91.91 0 0 1-.91.912" fill="#06AB84" mask="url(#l3xix1wn2b)"/>
            <path fill="#FEFEFE" mask="url(#l3xix1wn2b)" d="M244.25 121.734v-3.688h-3.134v.956l-4.699-4.097-12.009 10.47h2.089v10.471h7.31v-6.282h5.22v6.282h7.31v-10.47h2.089z"/>
            <path d="M239.937 134.935h5.492v-9.56a.91.91 0 0 1 .62-.864l-2.396-2.09a.912.912 0 0 1-.313-.687v-2.777h-1.314v.045a.907.907 0 0 1-1.506.688l-4.103-3.577-9.632 8.398c.361.12.621.462.621.864v9.56h5.492v-5.371a.91.91 0 0 1 .909-.912h5.22a.91.91 0 0 1 .91.912v5.37zm6.4 1.823h-7.31a.91.91 0 0 1-.908-.912v-5.37h-3.403v5.37a.91.91 0 0 1-.909.912h-7.31a.91.91 0 0 1-.91-.912v-9.56h-1.179a.912.912 0 0 1-.597-1.599l12.01-10.47a.908.908 0 0 1 1.193 0l3.556 3.1a.903.903 0 0 1 .547-.183h3.132a.91.91 0 0 1 .91.912v3.272l3.863 3.37a.911.911 0 0 1-.596 1.599h-1.179v9.56a.91.91 0 0 1-.91.91z" fill="#06AB84" mask="url(#l3xix1wn2b)"/>
            <path d="M192.352 160.433h9.425V66.428h-9.425v94.005zm10.334 1.823h-11.243a.91.91 0 0 1-.909-.912V65.517a.91.91 0 0 1 .91-.912h11.242a.91.91 0 0 1 .91.912v95.827a.91.91 0 0 1-.91.912z" fill="#414750" mask="url(#l3xix1wn2b)"/>
            <path d="M241.148 172.619h-88.832a3.373 3.373 0 0 1-3.369-3.378 3.373 3.373 0 0 1 3.369-3.378h88.832a3.373 3.373 0 0 1 3.368 3.378 3.373 3.373 0 0 1-3.368 3.378" fill="#009FC7" mask="url(#l3xix1wn2b)"/>
            <path d="M241.148 172.619h-88.832a3.373 3.373 0 0 1-3.369-3.378 3.373 3.373 0 0 1 3.369-3.378h88.832a3.373 3.373 0 0 1 3.368 3.378 3.373 3.373 0 0 1-3.368 3.378z" stroke="#414750" stroke-width="2.974" mask="url(#l3xix1wn2b)"/>
            <path d="M152.316 166.774a2.466 2.466 0 0 0 0 4.933h88.832a2.466 2.466 0 0 0 0-4.933h-88.832zm88.832 6.756h-88.832a4.288 4.288 0 0 1-4.278-4.29c0-2.365 1.92-4.289 4.278-4.289h88.832a4.289 4.289 0 0 1 4.277 4.29c0 2.365-1.919 4.289-4.277 4.289z" fill="#414750" mask="url(#l3xix1wn2b)"/>
            <path d="M197.065 42.969c-.95 0-1.832.258-2.617.676 2.15.791 3.694 2.844 3.694 5.275 0 2.16-1.226 4.014-3.005 4.96a5.552 5.552 0 0 0 1.928.362c3.105 0 5.622-2.523 5.622-5.637 0-3.113-2.517-5.636-5.622-5.636" fill="#E8E9EE" mask="url(#l3xix1wn2b)"/>
            <path d="M197.065 43.88c-2.599 0-4.713 2.12-4.713 4.725 0 2.606 2.114 4.726 4.713 4.726s4.712-2.12 4.712-4.726c0-2.605-2.113-4.725-4.712-4.725m0 11.274c-3.601 0-6.53-2.938-6.53-6.549 0-3.61 2.929-6.548 6.53-6.548 3.6 0 6.53 2.938 6.53 6.548 0 3.611-2.93 6.549-6.53 6.549M236.417 105.252c-12.246 0-22.21 9.99-22.21 22.27 0 12.281 9.964 22.272 22.21 22.272 12.247 0 22.211-9.99 22.211-22.271 0-12.28-9.964-22.271-22.21-22.271m0 46.365c-13.25 0-24.03-10.808-24.03-24.094 0-13.286 10.78-24.094 24.03-24.094 13.249 0 24.028 10.808 24.028 24.094 0 13.286-10.78 24.094-24.029 24.094M157.713 105.252c-12.248 0-22.212 9.99-22.212 22.27 0 12.281 9.964 22.272 22.212 22.272 12.246 0 22.21-9.99 22.21-22.271 0-12.28-9.964-22.271-22.21-22.271m0 46.365c-13.25 0-24.03-10.808-24.03-24.094 0-13.286 10.78-24.094 24.03-24.094 13.25 0 24.029 10.808 24.029 24.094 0 13.286-10.78 24.094-24.03 24.094" fill="#414750" mask="url(#l3xix1wn2b)"/>
            <path fill="#FEFEFE" mask="url(#l3xix1wn2b)" d="M156.229 161.345h11.166"/>
            <path d="M167.395 162.256H156.23a.91.91 0 0 1-.91-.911.91.91 0 0 1 .91-.912h11.165a.91.91 0 0 1 0 1.823" fill="#414750" mask="url(#l3xix1wn2b)"/>
            <path fill="#009FC7" mask="url(#l3xix1wn2b)" d="M55.327 172.307h51.352V140.97H55.327z"/>
            <path stroke="#414750" stroke-width="2.974" mask="url(#l3xix1wn2b)" d="M55.327 172.307h51.352V140.97H55.327z"/>
            <path d="M56.237 171.395h49.533v-29.513H56.237v29.513zm50.442 1.823H55.328a.91.91 0 0 1-.91-.911V140.97a.91.91 0 0 1 .91-.911h51.35a.91.91 0 0 1 .91.911v31.337a.91.91 0 0 1-.91.911z" fill="#414750" mask="url(#l3xix1wn2b)"/>
            <path fill="#008CAF" mask="url(#l3xix1wn2b)" d="M56.33 145.49h49.423v-3.687H56.33z"/>
            <path fill="#FEFEFE" mask="url(#l3xix1wn2b)" d="M112.472 140.971H49.535l8.109-22.785h47.112z"/>
            <path d="M50.824 140.059h60.38l-7.099-20.961h-45.82l-7.46 20.961zm61.648 1.823H49.535a.909.909 0 0 1-.857-1.218l8.11-22.784a.909.909 0 0 1 .856-.605h47.112a.91.91 0 0 1 .861.618l7.716 22.784a.909.909 0 0 1-.86 1.205h-.001z" fill="#414750" mask="url(#l3xix1wn2b)"/>
            <path fill="#008CAF" mask="url(#l3xix1wn2b)" d="M62.35 118.149h8.289v-8.311H62.35z"/>
            <path d="M63.26 117.237h6.47v-6.488h-6.47v6.488zm7.379 1.823H62.35a.91.91 0 0 1-.91-.911v-8.311a.91.91 0 0 1 .91-.912h8.289a.91.91 0 0 1 .909.912v8.31a.91.91 0 0 1-.91.912z" fill="#414750" mask="url(#l3xix1wn2b)"/>
            <path fill="#FEFEFE" mask="url(#l3xix1wn2b)" d="M87.551 172.195H98.5V155.66H87.55z"/>
            <path d="M88.46 171.283h9.13v-14.71h-9.13v14.71zm10.04 1.823H87.55a.91.91 0 0 1-.909-.911V155.66a.91.91 0 0 1 .91-.912H98.5a.91.91 0 0 1 .909.912v16.534a.91.91 0 0 1-.91.911zM63.26 160.539h11.989v-12.021h-11.99v12.021zm12.898 1.823H62.35a.91.91 0 0 1-.91-.911v-13.845a.91.91 0 0 1 .91-.912h13.808a.91.91 0 0 1 .909.912v13.845a.91.91 0 0 1-.91.911z" fill="#414750" mask="url(#l3xix1wn2b)"/>
            <path fill="#E8E9EE" mask="url(#l3xix1wn2b)" d="M63.3 160.647h11.947v-4.986H63.3z"/>
            <path d="M48.146 172.1c14.088 0 13.4-8.752 13.4-8.752 0-11.783-8.796-16.951-8.796-16.951 7.765-7.235 5.91-9.785 5.91-9.785-1.512-1.791-7.285 3.17-7.285 3.17-1.305-4.341-3.23-4.203-3.23-4.203s-1.923-.138-3.23 4.203c0 0-5.772-4.961-7.284-3.17 0 0-1.855 2.55 5.91 9.785 0 0-8.796 5.168-8.796 16.951 0 0-.687 8.751 13.4 8.751" fill="#FEFEFE" mask="url(#l3xix1wn2b)"/>
            <path d="M38.382 137.163c-.11.44-.329 2.876 5.779 8.566a.915.915 0 0 1-.16 1.455c-.339.2-8.347 5.073-8.347 16.164a.95.95 0 0 1-.002.072c-.006.09-.135 2.363 1.788 4.424 2.07 2.218 5.672 3.344 10.706 3.344s8.636-1.126 10.706-3.344c1.922-2.06 1.795-4.334 1.788-4.43a1.07 1.07 0 0 1-.003-.066c0-11.09-8.007-15.963-8.348-16.165a.916.916 0 0 1-.157-1.454c6.274-5.846 5.877-8.288 5.802-8.555a.364.364 0 0 0-.155-.037c-1.212-.094-4.13 1.892-5.812 3.337a.909.909 0 0 1-1.462-.429c-.944-3.14-2.123-3.51-2.322-3.55-.067.015-.007.015-.074 0-.2.04-1.378.41-2.322 3.55a.909.909 0 0 1-1.462.43c-1.683-1.446-4.586-3.432-5.813-3.338a.468.468 0 0 0-.13.026zm9.764 35.848c-5.586 0-9.648-1.333-12.07-3.96-2.321-2.518-2.261-5.332-2.24-5.73.011-9.883 5.873-15.26 8.263-17.041-7.02-6.842-5.577-9.69-5.202-10.205l.04-.052c.35-.413.844-.657 1.43-.704 1.836-.146 4.578 1.742 6.12 2.94 1.38-3.41 3.226-3.593 3.66-3.592.432.016 2.278.183 3.659 3.591 1.54-1.197 4.284-3.086 6.118-2.939.587.047 1.081.29 1.43.704.014.017.028.034.04.052.376.516 1.82 3.363-5.2 10.205 2.388 1.781 8.251 7.159 8.262 17.04.021.399.081 3.213-2.24 5.73-2.423 2.628-6.484 3.96-12.07 3.96z" fill="#414750" mask="url(#l3xix1wn2b)"/>
            <path d="M38.382 137.163c-.11.44-.329 2.876 5.779 8.566a.915.915 0 0 1-.16 1.455c-.339.2-8.347 5.073-8.347 16.164a.95.95 0 0 1-.002.072c-.006.09-.135 2.363 1.788 4.424 2.07 2.218 5.672 3.344 10.706 3.344s8.636-1.126 10.706-3.344c1.922-2.06 1.795-4.334 1.788-4.43a1.07 1.07 0 0 1-.003-.066c0-11.09-8.007-15.963-8.348-16.165a.916.916 0 0 1-.157-1.454c6.274-5.846 5.877-8.288 5.802-8.555a.364.364 0 0 0-.155-.037c-1.212-.094-4.13 1.892-5.812 3.337a.909.909 0 0 1-1.462-.429c-.944-3.14-2.123-3.51-2.322-3.55-.067.015-.007.015-.074 0-.2.04-1.378.41-2.322 3.55a.909.909 0 0 1-1.462.43c-1.683-1.446-4.586-3.432-5.813-3.338a.468.468 0 0 0-.13.026zm9.764 35.848c-5.586 0-9.648-1.333-12.07-3.96-2.321-2.518-2.261-5.332-2.24-5.73.011-9.883 5.873-15.26 8.263-17.041-7.02-6.842-5.577-9.69-5.202-10.205l.04-.052c.35-.413.844-.657 1.43-.704 1.836-.146 4.578 1.742 6.12 2.94 1.38-3.41 3.226-3.593 3.66-3.592.432.016 2.278.183 3.659 3.591 1.54-1.197 4.284-3.086 6.118-2.939.587.047 1.081.29 1.43.704.014.017.028.034.04.052.376.516 1.82 3.363-5.2 10.205 2.388 1.781 8.251 7.159 8.262 17.04.021.399.081 3.213-2.24 5.73-2.423 2.628-6.484 3.96-12.07 3.96z" fill="#414750" mask="url(#l3xix1wn2b)"/>
            <path d="M51.752 148.533s4.431.973 4.431 10.477c0 5.786-5.956 15.693-20.013 7.612 0 0 .422 2.724 4.347 4.273 7.855 3.098 16.31-.461 16.31-.461s8.175-2.893 3.54-14.17c0 0-3.089-6.875-7.165-9.852l-1.45 2.121z" fill="#E8E9EE" mask="url(#l3xix1wn2b)"/>
            <path fill="#E8E9EE" mask="url(#l3xix1wn2b)" d="M41.753 148.533h12.644l-1.195-1.89H42.8z"/>
            <path d="M56.183 147.323H40.109a.91.91 0 0 1-.91-.911.91.91 0 0 1 .91-.912h16.074a.91.91 0 0 1 0 1.823" fill="#414750" mask="url(#l3xix1wn2b)"/>
            <path d="M48.146 158.98c-.939 0-1.702-.662-1.702-1.477 0-.814.763-1.476 1.702-1.476.938 0 1.702.662 1.702 1.476a.775.775 0 1 0 1.547 0c0-1.42-1.056-2.616-2.476-2.94v-.404a.774.774 0 1 0-1.547 0v.403c-1.42.325-2.476 1.52-2.476 2.941 0 1.67 1.458 3.03 3.25 3.03.938 0 1.702.662 1.702 1.477 0 .814-.764 1.477-1.702 1.477-.939 0-1.702-.663-1.702-1.477a.775.775 0 1 0-1.548 0c0 1.421 1.057 2.616 2.476 2.94v.336a.775.775 0 1 0 1.547 0v-.335c1.42-.325 2.476-1.52 2.476-2.941 0-1.67-1.457-3.03-3.25-3.03" fill="#06AB84" mask="url(#l3xix1wn2b)"/>
            <path d="M38.382 137.163c-.11.44-.329 2.876 5.779 8.566a.915.915 0 0 1-.16 1.455c-.339.2-8.347 5.073-8.347 16.164a.95.95 0 0 1-.002.072c-.006.09-.135 2.363 1.788 4.424 2.07 2.218 5.672 3.344 10.706 3.344s8.636-1.126 10.706-3.344c1.922-2.06 1.795-4.334 1.788-4.43a1.07 1.07 0 0 1-.003-.066c0-11.09-8.007-15.963-8.348-16.165a.916.916 0 0 1-.157-1.454c6.274-5.846 5.877-8.288 5.802-8.555a.364.364 0 0 0-.155-.037c-1.212-.094-4.13 1.892-5.812 3.337a.909.909 0 0 1-1.462-.429c-.944-3.14-2.123-3.51-2.322-3.55-.067.015-.007.015-.074 0-.2.04-1.378.41-2.322 3.55a.909.909 0 0 1-1.462.43c-1.683-1.446-4.586-3.432-5.813-3.338a.468.468 0 0 0-.13.026zm9.764 35.848c-5.586 0-9.648-1.333-12.07-3.96-2.321-2.518-2.261-5.332-2.24-5.73.011-9.883 5.873-15.26 8.263-17.041-7.02-6.842-5.577-9.69-5.202-10.205l.04-.052c.35-.413.844-.657 1.43-.704 1.836-.146 4.578 1.742 6.12 2.94 1.38-3.41 3.226-3.593 3.66-3.592.432.016 2.278.183 3.659 3.591 1.54-1.197 4.284-3.086 6.118-2.939.587.047 1.081.29 1.43.704.014.017.028.034.04.052.376.516 1.82 3.363-5.2 10.205 2.388 1.781 8.251 7.159 8.262 17.04.021.399.081 3.213-2.24 5.73-2.423 2.628-6.484 3.96-12.07 3.96z" fill="#414750" mask="url(#l3xix1wn2b)"/>
            <path fill="#FEFEFE" mask="url(#l3xix1wn2b)" d="M306.899 172.737h59.586v-70.103H306.9z"/>
            <path d="M307.808 171.826h57.769v-68.28h-57.769v68.28zm58.678 1.823h-59.587a.91.91 0 0 1-.909-.912v-70.103a.91.91 0 0 1 .91-.912h59.586a.91.91 0 0 1 .909.912v70.103a.91.91 0 0 1-.91.912z" fill="#414750" mask="url(#l3xix1wn2b)"/>
            <path fill="#009FC7" mask="url(#l3xix1wn2b)" d="M369.591 102.614h-65.798l5.91-11.19h53.979z"/>
            <path stroke="#414750" stroke-width="2.974" mask="url(#l3xix1wn2b)" d="M369.591 102.614h-65.798l5.91-11.19h53.979z"/>
            <path d="M305.304 101.702h62.776l-4.945-9.366H310.25l-4.946 9.366zm64.287 1.824h-65.797a.909.909 0 0 1-.78-.442.914.914 0 0 1-.024-.897l5.91-11.19a.909.909 0 0 1 .803-.484h53.979c.337 0 .646.186.803.485l5.91 11.19c.148.282.14.622-.025.896a.91.91 0 0 1-.78.442z" fill="#414750" mask="url(#l3xix1wn2b)"/>
            <path fill="#FEFEFE" mask="url(#l3xix1wn2b)" d="M314.684 150.623H358.7v-7.475h-44.016z"/>
            <path d="M315.593 149.71h42.198v-5.65h-42.198v5.65zm43.107 1.824h-44.016a.91.91 0 0 1-.909-.912v-7.474a.91.91 0 0 1 .91-.912H358.7a.91.91 0 0 1 .91.912v7.474a.91.91 0 0 1-.91.912z" fill="#414750" mask="url(#l3xix1wn2b)"/>
            <path fill="#FEFEFE" mask="url(#l3xix1wn2b)" d="M314.684 128.885h7.397v-18.907h-7.397z"/>
            <path d="M315.593 127.973h5.58V110.89h-5.58v17.084zm6.488 1.823h-7.397a.91.91 0 0 1-.909-.911v-18.908a.91.91 0 0 1 .91-.911h7.396a.91.91 0 0 1 .91.911v18.908a.91.91 0 0 1-.91.911z" fill="#414750" mask="url(#l3xix1wn2b)"/>
            <path fill="#FEFEFE" mask="url(#l3xix1wn2b)" d="M332.994 128.885h7.397v-18.907h-7.397z"/>
            <path d="M333.903 127.973h5.579V110.89h-5.58v17.084zm6.488 1.823h-7.397a.91.91 0 0 1-.91-.911v-18.908a.91.91 0 0 1 .91-.911h7.397a.91.91 0 0 1 .909.911v18.908a.91.91 0 0 1-.91.911z" fill="#414750" mask="url(#l3xix1wn2b)"/>
            <path fill="#FEFEFE" mask="url(#l3xix1wn2b)" d="M351.303 128.885h7.397v-18.907h-7.397z"/>
            <path d="M352.212 127.973h5.579V110.89h-5.58v17.084zm6.488 1.823h-7.397a.91.91 0 0 1-.91-.911v-18.908a.91.91 0 0 1 .91-.911h7.397a.91.91 0 0 1 .91.911v18.908a.91.91 0 0 1-.91.911z" fill="#414750" mask="url(#l3xix1wn2b)"/>
            <path fill="#FEFEFE" mask="url(#l3xix1wn2b)" d="M306.899 136.774h59.587"/>
            <path d="M366.486 137.685h-59.587a.91.91 0 0 1 0-1.823h59.587a.91.91 0 0 1 0 1.823" fill="#414750" mask="url(#l3xix1wn2b)"/>
            <path fill="#E8E9EE" mask="url(#l3xix1wn2b)" d="M307.809 107.276h57.75v-3.688h-57.75zM315.592 127.95h5.582v-8.518h-5.582zM315.592 149.845h42.21v-2.96h-42.21zM333.885 127.95h5.6v-8.518h-5.6zM352.201 127.95h5.6v-8.518h-5.6z"/>
            <path fill="#009FC7" mask="url(#l3xix1wn2b)" d="M331.218 172.737h10.948v-16.534h-10.948z"/>
            <path stroke="#414750" stroke-width="2.974" mask="url(#l3xix1wn2b)" d="M331.218 172.737h10.948v-16.534h-10.948z"/>
            <path d="M332.127 171.826h9.13v-14.712h-9.13v14.712zm10.04 1.823h-10.949a.91.91 0 0 1-.909-.912v-16.535a.91.91 0 0 1 .91-.911h10.948a.91.91 0 0 1 .909.911v16.535a.91.91 0 0 1-.91.912z" fill="#414750" mask="url(#l3xix1wn2b)"/>
            <path d="M270.835 146.863h27.39a3.11 3.11 0 0 0 3.105-3.114 3.11 3.11 0 0 0-3.106-3.115h-27.389a3.11 3.11 0 0 0-3.105 3.115 3.11 3.11 0 0 0 3.105 3.114" fill="#FEFEFE" mask="url(#l3xix1wn2b)"/>
            <path d="M270.835 141.546a2.203 2.203 0 0 0 0 4.406h27.39a2.203 2.203 0 0 0 0-4.406h-27.39zm27.39 6.229h-27.39a4.025 4.025 0 0 1-4.015-4.027 4.025 4.025 0 0 1 4.015-4.026h27.39a4.025 4.025 0 0 1 4.015 4.026 4.025 4.025 0 0 1-4.015 4.027z" fill="#414750" mask="url(#l3xix1wn2b)"/>
            <path d="M270.225 146.863h28.99c1.168 0 2.116-.95 2.116-2.12a.993.993 0 0 0-.992-.994H269.1a.993.993 0 0 0-.99.994c0 1.17.946 2.12 2.114 2.12" fill="#06AB84" mask="url(#l3xix1wn2b)"/>
            <path d="M270.835 141.546a2.203 2.203 0 0 0 0 4.406h27.39a2.203 2.203 0 0 0 0-4.406h-27.39zm27.39 6.229h-27.39a4.025 4.025 0 0 1-4.015-4.027 4.025 4.025 0 0 1 4.015-4.026h27.39a4.025 4.025 0 0 1 4.015 4.026 4.025 4.025 0 0 1-4.015 4.027z" fill="#414750" mask="url(#l3xix1wn2b)"/>
            <path d="M270.835 159.773h27.39a3.11 3.11 0 0 0 3.105-3.114 3.11 3.11 0 0 0-3.106-3.115h-27.389a3.11 3.11 0 0 0-3.105 3.115 3.11 3.11 0 0 0 3.105 3.114" fill="#FEFEFE" mask="url(#l3xix1wn2b)"/>
            <path d="M270.835 154.455a2.203 2.203 0 0 0 0 4.406h27.39a2.203 2.203 0 0 0 0-4.406h-27.39zm27.39 6.23h-27.39a4.025 4.025 0 0 1-4.015-4.027 4.025 4.025 0 0 1 4.015-4.026h27.39a4.025 4.025 0 0 1 4.015 4.026 4.025 4.025 0 0 1-4.015 4.026z" fill="#414750" mask="url(#l3xix1wn2b)"/>
            <path d="M270.225 159.773h28.99c1.168 0 2.116-.95 2.116-2.12a.993.993 0 0 0-.992-.994H269.1a.993.993 0 0 0-.99.994c0 1.17.946 2.12 2.114 2.12" fill="#06AB84" mask="url(#l3xix1wn2b)"/>
            <path d="M270.835 154.455a2.203 2.203 0 0 0 0 4.406h27.39a2.203 2.203 0 0 0 0-4.406h-27.39zm27.39 6.23h-27.39a4.025 4.025 0 0 1-4.015-4.027 4.025 4.025 0 0 1 4.015-4.026h27.39a4.025 4.025 0 0 1 4.015 4.026 4.025 4.025 0 0 1-4.015 4.026z" fill="#414750" mask="url(#l3xix1wn2b)"/>
            <path d="M270.835 166.364h27.39a3.11 3.11 0 0 0 3.105-3.114 3.11 3.11 0 0 0-3.106-3.114h-27.389a3.11 3.11 0 0 0-3.105 3.114 3.11 3.11 0 0 0 3.105 3.114" fill="#FEFEFE" mask="url(#l3xix1wn2b)"/>
            <path d="M270.835 161.047a2.203 2.203 0 0 0 0 4.406h27.39a2.203 2.203 0 0 0 0-4.406h-27.39zm27.39 6.229h-27.39a4.025 4.025 0 0 1-4.015-4.026 4.025 4.025 0 0 1 4.015-4.026h27.39a4.025 4.025 0 0 1 4.015 4.026 4.025 4.025 0 0 1-4.015 4.026z" fill="#414750" mask="url(#l3xix1wn2b)"/>
            <path d="M270.225 166.364h28.99c1.168 0 2.116-.95 2.116-2.12a.993.993 0 0 0-.992-.994H269.1a.993.993 0 0 0-.99.994c0 1.17.946 2.12 2.114 2.12" fill="#06AB84" mask="url(#l3xix1wn2b)"/>
            <path d="M270.835 161.047a2.203 2.203 0 0 0 0 4.406h27.39a2.203 2.203 0 0 0 0-4.406h-27.39zm27.39 6.229h-27.39a4.025 4.025 0 0 1-4.015-4.026 4.025 4.025 0 0 1 4.015-4.026h27.39a4.025 4.025 0 0 1 4.015 4.026 4.025 4.025 0 0 1-4.015 4.026z" fill="#414750" mask="url(#l3xix1wn2b)"/>
            <path d="M270.835 172.81h27.39a3.11 3.11 0 0 0 3.105-3.113 3.11 3.11 0 0 0-3.106-3.115h-27.389a3.11 3.11 0 0 0-3.105 3.115 3.11 3.11 0 0 0 3.105 3.114" fill="#FEFEFE" mask="url(#l3xix1wn2b)"/>
            <path d="M270.835 167.493a2.203 2.203 0 0 0 0 4.406h27.39a2.203 2.203 0 0 0 0-4.406h-27.39zm27.39 6.23h-27.39a4.025 4.025 0 0 1-4.015-4.027 4.025 4.025 0 0 1 4.015-4.026h27.39a4.025 4.025 0 0 1 4.015 4.026 4.025 4.025 0 0 1-4.015 4.027z" fill="#414750" mask="url(#l3xix1wn2b)"/>
            <path d="M270.225 172.81h28.99c1.168 0 2.116-.948 2.116-2.12a.993.993 0 0 0-.992-.993H269.1a.993.993 0 0 0-.99.994c0 1.17.946 2.12 2.114 2.12" fill="#06AB84" mask="url(#l3xix1wn2b)"/>
            <path d="M270.835 167.493a2.203 2.203 0 0 0 0 4.406h27.39a2.203 2.203 0 0 0 0-4.406h-27.39zm27.39 6.23h-27.39a4.025 4.025 0 0 1-4.015-4.027 4.025 4.025 0 0 1 4.015-4.026h27.39a4.025 4.025 0 0 1 4.015 4.026 4.025 4.025 0 0 1-4.015 4.027z" fill="#414750" mask="url(#l3xix1wn2b)"/>
            <path d="M266.3 153.416h27.389a3.11 3.11 0 0 0 3.106-3.115 3.11 3.11 0 0 0-3.106-3.114H266.3a3.11 3.11 0 0 0-3.106 3.114 3.11 3.11 0 0 0 3.106 3.115" fill="#FEFEFE" mask="url(#l3xix1wn2b)"/>
            <path d="M266.3 148.098a2.203 2.203 0 0 0 0 4.406h27.39a2.203 2.203 0 0 0 0-4.406H266.3zm27.39 6.23H266.3a4.025 4.025 0 0 1-4.015-4.027 4.025 4.025 0 0 1 4.016-4.026h27.388a4.025 4.025 0 0 1 4.015 4.026 4.025 4.025 0 0 1-4.015 4.026z" fill="#414750" mask="url(#l3xix1wn2b)"/>
            <path d="M265.69 153.416h28.99c1.168 0 2.115-.95 2.115-2.121a.993.993 0 0 0-.991-.994h-31.238a.993.993 0 0 0-.991.994c0 1.171.947 2.12 2.115 2.12" fill="#06AB84" mask="url(#l3xix1wn2b)"/>
            <path d="M266.3 148.098a2.203 2.203 0 0 0 0 4.406h27.39a2.203 2.203 0 0 0 0-4.406H266.3zm27.39 6.23H266.3a4.025 4.025 0 0 1-4.015-4.027 4.025 4.025 0 0 1 4.016-4.026h27.388a4.025 4.025 0 0 1 4.015 4.026 4.025 4.025 0 0 1-4.015 4.026z" fill="#414750" mask="url(#l3xix1wn2b)"/>
            <path d="M258.989 161.303c0-5.898 4.769-10.68 10.652-10.68 5.882 0 10.651 4.782 10.651 10.68 0 5.899-4.769 10.68-10.651 10.68-5.883 0-10.652-4.781-10.652-10.68" fill="#FEFEFE" mask="url(#l3xix1wn2b)"/>
            <path d="M269.64 151.534c-5.371 0-9.742 4.382-9.742 9.77 0 5.386 4.37 9.768 9.742 9.768 5.373 0 9.744-4.382 9.744-9.769 0-5.387-4.371-9.77-9.744-9.77m0 21.362c-6.374 0-11.56-5.2-11.56-11.592s5.186-11.592 11.56-11.592c6.375 0 11.562 5.2 11.562 11.592s-5.187 11.592-11.562 11.592" fill="#414750" mask="url(#l3xix1wn2b)"/>
            <path d="M269.64 160.453c-1.054 0-1.912-.744-1.912-1.66 0-.915.858-1.66 1.912-1.66 1.055 0 1.913.745 1.913 1.66 0 .482.39.872.87.872s.87-.39.87-.872c0-1.597-1.188-2.94-2.783-3.305v-.453a.87.87 0 1 0-1.74 0v.453c-1.594.364-2.78 1.708-2.78 3.305 0 1.877 1.637 3.404 3.65 3.404 1.055 0 1.913.745 1.913 1.66 0 .915-.858 1.66-1.913 1.66-1.054 0-1.912-.745-1.912-1.66a.87.87 0 1 0-1.739 0c0 1.598 1.187 2.94 2.782 3.305v.377a.87.87 0 1 0 1.739 0v-.377c1.595-.364 2.782-1.707 2.782-3.305 0-1.877-1.638-3.404-3.652-3.404" fill="#06AB84" mask="url(#l3xix1wn2b)"/>
            <path d="M123.332 133.993c.17-.875.208-1.796.093-2.744-.477-3.916-3.656-7.067-7.566-7.503-5.202-.58-9.607 3.488-9.607 8.587 0 .605.062 1.195.18 1.763.587 2.835.098 5.745-1.444 8.194a11.666 11.666 0 0 0-1.75 7.233c.463 5.498 4.831 10.013 10.3 10.62 7.045.782 13.009-4.727 13.009-11.632a11.63 11.63 0 0 0-1.859-6.327c-1.557-2.414-1.905-5.37-1.356-8.191" fill="#E8E9EE" mask="url(#l3xix1wn2b)"/>
            <path d="M121.035 146.669c0-2.333-.683-4.504-1.858-6.327-1.557-2.414-1.905-5.37-1.357-8.191.17-.874.209-1.797.094-2.744-.28-2.298-1.495-4.328-3.238-5.705-4.669.106-8.424 3.924-8.424 8.631 0 .605.062 1.194.18 1.763.587 2.835.097 5.746-1.444 8.194a11.66 11.66 0 0 0-1.749 7.233c.309 3.673 2.365 6.9 5.325 8.823 6.808.453 12.471-4.947 12.471-11.677" fill="#FEFEFE" mask="url(#l3xix1wn2b)"/>
            <path d="M114.862 124.601a7.611 7.611 0 0 0-5.13 1.97 7.753 7.753 0 0 0-2.41 7.34c.642 3.095.086 6.243-1.566 8.865a10.727 10.727 0 0 0-1.61 6.67c.428 5.11 4.421 9.228 9.493 9.79 3.114.348 6.1-.606 8.411-2.68a10.823 10.823 0 0 0 3.587-8.046c0-2.077-.592-4.093-1.712-5.831-1.59-2.465-2.118-5.612-1.486-8.86a7.868 7.868 0 0 0 .083-2.46c-.425-3.497-3.27-6.318-6.763-6.708-.3-.033-.6-.05-.897-.05m-.021 36.526c-.466 0-.934-.026-1.402-.078-5.933-.659-10.603-5.474-11.106-11.45a12.545 12.545 0 0 1 1.886-7.796c1.398-2.22 1.868-4.891 1.323-7.521a9.58 9.58 0 0 1 2.977-9.07 9.56 9.56 0 0 1 7.44-2.372c4.323.482 7.842 3.972 8.368 8.298.124 1.02.09 2.04-.103 3.03-.542 2.783-.106 5.454 1.227 7.52a12.558 12.558 0 0 1 2.005 6.822c0 3.584-1.529 7.012-4.193 9.404a12.613 12.613 0 0 1-8.422 3.213" fill="#414750" mask="url(#l3xix1wn2b)"/>
            <path fill="#FEFEFE" mask="url(#l3xix1wn2b)" d="M114.871 146.885v25.473"/>
            <path d="M114.872 173.269a.91.91 0 0 1-.91-.912v-25.472a.91.91 0 0 1 .91-.911.91.91 0 0 1 .909.911v25.472a.91.91 0 0 1-.91.912" fill="#414750" mask="url(#l3xix1wn2b)"/>
            <path d="M364.754 155.163c0-4.467 3.386-8.088 7.564-8.088 4.177 0 7.564 3.621 7.564 8.088 0 4.466-3.387 8.087-7.564 8.087-4.178 0-7.564-3.62-7.564-8.087" fill="#E8E9EE" mask="url(#l3xix1wn2b)"/>
            <path d="M372.101 147.087c-4.076.124-7.347 3.688-7.347 8.076 0 3.004 1.535 5.619 3.809 7.013 4.076-.123 7.347-3.687 7.347-8.075 0-3.004-1.535-5.619-3.809-7.014" fill="#FEFEFE" mask="url(#l3xix1wn2b)"/>
            <path d="M372.318 147.987c-3.67 0-6.655 3.219-6.655 7.176 0 3.957 2.986 7.175 6.655 7.175 3.67 0 6.655-3.218 6.655-7.175s-2.986-7.176-6.655-7.176m0 16.174c-4.672 0-8.473-4.036-8.473-8.998s3.801-9 8.473-9c4.672 0 8.473 4.038 8.473 9s-3.8 8.998-8.473 8.998" fill="#414750" mask="url(#l3xix1wn2b)"/>
            <path fill="#FEFEFE" mask="url(#l3xix1wn2b)" d="M372.679 153.112v19.509"/>
            <path d="M372.68 173.532a.91.91 0 0 1-.91-.911v-19.51a.91.91 0 0 1 .91-.911.91.91 0 0 1 .909.912v19.509a.91.91 0 0 1-.91.911" fill="#414750" mask="url(#l3xix1wn2b)"/>
            <path d="M372.68 159.971a.908.908 0 0 1-.719-.352l-2.743-3.542a.914.914 0 0 1 .16-1.28.908.908 0 0 1 1.277.162l2.743 3.542a.914.914 0 0 1-.718 1.47" fill="#414750" mask="url(#l3xix1wn2b)"/>
            <path d="M299.34 172.445a5.832 5.832 0 0 1-1.456-3.858c0-3.23 2.612-5.85 5.834-5.85 3.222 0 5.834 2.62 5.834 5.85 0 .123-.01.242-.018.363.627-.23 1.3-.363 2.008-.363 2.523 0 4.665 1.61 5.48 3.858H299.34z" fill="#FEFEFE" mask="url(#l3xix1wn2b)"/>
            <path d="M299.773 171.533h15.745a4.93 4.93 0 0 0-3.976-2.034c-.571 0-1.141.103-1.694.307a.907.907 0 0 1-1.221-.913l.005-.088c.005-.072.011-.145.011-.218 0-2.723-2.21-4.938-4.924-4.938-2.716 0-4.925 2.215-4.925 4.938a4.93 4.93 0 0 0 .98 2.946m17.247 1.823h-17.68a.908.908 0 0 1-.683-.31 6.762 6.762 0 0 1-1.683-4.459c0-3.728 3.025-6.761 6.744-6.761 3.443 0 6.291 2.601 6.694 5.947.373-.065.75-.098 1.129-.098a6.76 6.76 0 0 1 6.333 4.459.913.913 0 0 1-.854 1.222" fill="#414750" mask="url(#l3xix1wn2b)"/>
            <path d="M299.286 77.54c2.083 0 2.568-2.897.61-3.608a6.337 6.337 0 0 0-2.172-.38 6.36 6.36 0 0 0-1.552.19 7.952 7.952 0 0 0-8.055-4.793c-1.031-3.98-4.638-6.917-8.93-6.917-3.563 0-6.653 2.026-8.19 4.991a7.94 7.94 0 0 0-2.82-.048c-3.523.571-6.287 3.508-6.635 7.07l-.008.083c-.161 1.842 1.331 3.411 3.175 3.411h34.577z" fill="#FEFEFE" mask="url(#l3xix1wn2b)"/>
            <path d="m261.537 74.1.905.082c-.056.64.147 1.234.57 1.697a2.303 2.303 0 0 0 1.697.749h34.577c.731 0 .891-.59.923-.77.067-.383-.062-.865-.624-1.07a5.488 5.488 0 0 0-3.192-.16.908.908 0 0 1-1.057-.525 7.039 7.039 0 0 0-7.134-4.246.909.909 0 0 1-.964-.678 8.32 8.32 0 0 0-8.051-6.236 8.295 8.295 0 0 0-7.383 4.5.91.91 0 0 1-.982.475 7.042 7.042 0 0 0-2.5-.043c-3.099.502-5.57 3.135-5.875 6.258l-.91-.033zm37.749 4.351h-34.577a4.121 4.121 0 0 1-3.037-1.34 4.03 4.03 0 0 1-1.043-3.062l.01-.106a8.858 8.858 0 0 1 9.875-7.92 10.098 10.098 0 0 1 8.673-4.903c4.365 0 8.21 2.794 9.596 6.882h.08a8.852 8.852 0 0 1 7.824 4.712 7.285 7.285 0 0 1 3.518.36 2.75 2.75 0 0 1 1.795 3.1 2.717 2.717 0 0 1-2.714 2.277z" fill="#414750" mask="url(#l3xix1wn2b)"/>
            <path d="M332.131 10.61a1.103 1.103 0 0 0 1.097-1.105v-.012a5.975 5.975 0 0 0-4.966-5.889A5.972 5.972 0 0 0 322.787 0c-2.866 0-5.256 2.025-5.836 4.726-.048-.002-.092-.014-.14-.014-2.893 0-5.306 2.062-5.857 4.8-.124.617.367 1.189.995 1.186l20.182-.088" fill="#E8E9EE" mask="url(#l3xix1wn2b)"/>
        </g>
    </g>
</svg>
