<svg width="168" height="26" viewBox="0 0 168 26" fill="none" xmlns="http://www.w3.org/2000/svg">
<path d="M0 13.0557V12.9999C0 7.32897 4.2736 2.68213 10.4086 2.68213C14.1733 2.68213 16.4251 3.93615 18.2796 5.76144L15.4839 8.98009C13.9432 7.58674 12.3746 6.72982 10.3807 6.72982C7.01344 6.72982 4.59429 9.5235 4.59429 12.9442V12.9999C4.59429 16.4206 6.96464 19.27 10.3807 19.27C12.6604 19.27 14.0617 18.3574 15.6304 16.9361L18.426 19.7577C16.3763 21.9522 14.0896 23.3177 10.2413 23.3177C4.3712 23.3177 0.00697161 18.7893 0.00697161 13.0626L0 13.0557Z" fill="#00AB84"/>
<path d="M20.8101 2.1665H25.1464V22.9623H20.8101V2.1665Z" fill="#00AB84"/>
<path d="M27.6216 15.4174V15.3617C27.6216 10.9726 31.1562 7.4126 35.9178 7.4126C40.6794 7.4126 44.1582 10.9169 44.1582 15.306V15.3617C44.1582 19.7508 40.6236 23.3108 35.862 23.3108C31.1004 23.3108 27.6216 19.8065 27.6216 15.4174ZM39.8846 15.4174V15.3617C39.8846 13.1114 38.2603 11.1468 35.862 11.1468C33.4638 11.1468 31.9022 13.0557 31.9022 15.306V15.3617C31.9022 17.612 33.5265 19.5766 35.9248 19.5766C38.323 19.5766 39.8846 17.6677 39.8846 15.4174Z" fill="#00AB84"/>
<path d="M45.2386 20.942L47.0931 18.0926C48.7454 19.2909 50.4883 19.9179 51.9105 19.9179C53.1654 19.9179 53.737 19.465 53.737 18.7753V18.7196C53.737 17.7791 52.2521 17.4656 50.5719 16.95C48.4316 16.323 46.0125 15.3268 46.0125 12.3659V12.3102C46.0125 9.20299 48.5223 7.46826 51.6037 7.46826C53.5418 7.46826 55.6542 8.12314 57.3065 9.23782L55.6542 12.2266C54.1414 11.3418 52.6355 10.8053 51.5201 10.8053C50.4674 10.8053 49.9236 11.2582 49.9236 11.8573V11.9131C49.9236 12.77 51.3806 13.1671 53.0329 13.7384C55.1732 14.449 57.6481 15.4731 57.6481 18.2668V18.3225C57.6481 21.7153 55.1105 23.255 51.8059 23.255C49.6656 23.255 47.2744 22.5444 45.2456 20.949L45.2386 20.942Z" fill="#00AB84"/>
<path d="M59.1476 15.4174V15.3617C59.1476 11.0005 62.2569 7.4126 66.7048 7.4126C71.808 7.4126 74.1435 11.3697 74.1435 15.7031C74.1435 16.0444 74.1156 16.4415 74.0877 16.8456H63.456C63.8813 18.8102 65.2547 19.8344 67.1928 19.8344C68.6499 19.8344 69.7026 19.3815 70.9017 18.2668L73.3836 20.4614C71.9614 22.2309 69.9048 23.3108 67.1371 23.3108C62.5497 23.3108 59.1546 20.0921 59.1546 15.4174H59.1476ZM69.9257 14.1355C69.6677 12.1988 68.5314 10.889 66.7048 10.889C64.8783 10.889 63.7419 12.1709 63.4003 14.1355H69.9257Z" fill="#00AB84"/>
<path d="M89.0761 25.6096C95.1404 25.6096 100.056 20.697 100.056 14.637C100.056 8.57694 95.1404 3.66431 89.0761 3.66431C83.0119 3.66431 78.0958 8.57694 78.0958 14.637C78.0958 20.697 83.0119 25.6096 89.0761 25.6096Z" fill="#003449"/>
<path d="M91.5373 19.7926C90.4916 20.6564 89.2646 21.2207 87.7796 21.2207C85.3187 21.2207 83.4712 19.7926 83.4712 17.5214V17.4866C83.4712 15.8563 84.3496 14.6998 85.967 13.9683C85.3466 13.0905 85.0677 12.2824 85.0677 11.4046V11.3697C85.0677 9.60713 86.4829 7.9978 88.9578 7.9978C91.14 7.9978 92.5691 9.42599 92.5691 11.2234V11.2583C92.5691 12.979 91.4676 13.9892 89.8711 14.6093L91.5792 16.3161C91.9975 15.6543 92.4227 14.9019 92.8271 14.1146L94.8977 15.2502C94.4027 16.1489 93.8519 17.1034 93.2105 17.9603L95.0998 19.8483L93.0293 21.2974L91.5443 19.7926H91.5373ZM89.9618 18.1763L87.5008 15.6822C86.6572 16.1211 86.3086 16.7481 86.3086 17.3681V17.4029C86.3086 18.3017 87.0616 18.9078 88.1073 18.9078C88.7487 18.9078 89.3761 18.6361 89.9618 18.1763ZM90.1082 11.4115V11.3767C90.1082 10.6452 89.6132 10.1854 88.8951 10.1854C88.1422 10.1854 87.6472 10.7148 87.6472 11.4882V11.523C87.6472 12.0943 87.8703 12.5123 88.4001 13.1184C89.5156 12.7004 90.1082 12.2197 90.1082 11.4115Z" fill="white"/>
<path d="M121.306 18.5806V18.5248C121.306 15.1947 123.844 13.655 127.462 13.655C129.003 13.655 130.111 13.9128 131.199 14.2821V14.0243C131.199 12.2269 130.083 11.2306 127.922 11.2306C126.27 11.2306 125.099 11.5441 123.704 12.0597L122.624 8.7574C124.304 8.01892 125.956 7.53125 128.557 7.53125C130.92 7.53125 132.635 8.15826 133.716 9.23811C134.859 10.3807 135.368 12.0597 135.368 14.1079V22.9696H131.178V21.3185C130.125 22.4889 128.668 23.2553 126.563 23.2553C123.683 23.2553 121.313 21.6041 121.313 18.5806H121.306ZM131.255 17.5843V16.818C130.516 16.4766 129.546 16.2467 128.487 16.2467C126.632 16.2467 125.496 16.9852 125.496 18.3576V18.4134C125.496 19.5838 126.465 20.2665 127.866 20.2665C129.888 20.2665 131.261 19.1588 131.261 17.5913L131.255 17.5843Z" fill="#00AB84"/>
<path d="M136.169 7.69824H140.756L144.179 17.9255L147.63 7.69824H152.134L146.118 23.0809H142.186L136.169 7.69824Z" fill="#00AB84"/>
<path d="M152.19 15.4174V15.3617C152.19 11.0005 155.299 7.4126 159.747 7.4126C164.85 7.4126 167.186 11.3697 167.186 15.7031C167.186 16.0444 167.158 16.4415 167.13 16.8456H156.498C156.923 18.8102 158.297 19.8344 160.235 19.8344C161.692 19.8344 162.745 19.3815 163.944 18.2668L166.426 20.4614C165.004 22.2309 162.947 23.3108 160.179 23.3108C155.592 23.3108 152.197 20.0921 152.197 15.4174H152.19ZM162.968 14.1355C162.71 12.1988 161.573 10.889 159.747 10.889C157.92 10.889 156.784 12.1709 156.442 14.1355H162.968Z" fill="#00AB84"/>
<path d="M113.421 10.8751C111.273 10.1367 109.384 9.61415 109.384 8.50643V8.4298C109.384 7.64952 110.088 7.05734 111.462 7.05734C112.905 7.05734 114.871 7.76099 116.837 8.9105L118.984 5.02304C117.506 4.03376 115.749 3.33012 113.978 2.98178V0H109.775V2.89818C106.637 3.47642 104.302 5.61522 104.302 9.02894V9.10557C104.302 12.9582 107.453 14.254 110.235 15.0691C112.424 15.7379 114.348 16.142 114.348 17.3682V17.4448C114.348 18.3365 113.609 18.9287 111.978 18.9287C110.123 18.9287 107.864 18.1136 105.717 16.56L103.305 20.2663C105.306 21.8408 107.579 22.7535 109.775 23.1018V26H113.978V23.0809C117.178 22.4957 119.43 20.5032 119.43 16.8596V16.783C119.43 13.1533 116.202 11.8226 113.428 10.896L113.421 10.8751Z" fill="#00AB84"/>
</svg>
