<svg width="232" height="36" viewBox="0 0 232 36" fill="none" xmlns="http://www.w3.org/2000/svg">
<path d="M0 18.0772V18C0 10.1479 5.91729 3.71387 14.4119 3.71387C19.6246 3.71387 22.7425 5.4502 25.3102 7.97753L21.4393 12.4341C19.306 10.5049 17.1341 9.31837 14.3733 9.31837C9.71092 9.31837 6.36133 13.1865 6.36133 17.9229V18C6.36133 22.7364 9.64335 26.6817 14.3733 26.6817C17.5299 26.6817 19.4701 25.418 21.642 23.4502L25.5129 27.357C22.6749 30.3955 19.5087 32.2862 14.1803 32.2862C6.05243 32.2862 0.009653 26.0161 0.009653 18.0869L0 18.0772Z" fill="#11E9B7"/>
<path d="M28.814 3H34.8181V31.7942H28.814V3Z" fill="#11E9B7"/>
<path d="M38.2451 21.3473V21.2701C38.2451 15.1929 43.1392 10.2637 49.7322 10.2637C56.3252 10.2637 61.142 15.1158 61.142 21.1929V21.2701C61.142 27.3473 56.248 32.2765 49.655 32.2765C43.062 32.2765 38.2451 27.4244 38.2451 21.3473ZM55.2247 21.3473V21.2701C55.2247 18.1543 52.9756 15.4341 49.655 15.4341C46.3343 15.4341 44.1721 18.0772 44.1721 21.1929V21.2701C44.1721 24.3859 46.4212 27.1061 49.7418 27.1061C53.0625 27.1061 55.2247 24.463 55.2247 21.3473Z" fill="#11E9B7"/>
<path d="M62.6382 28.9968L65.2059 25.0514C67.4936 26.7106 69.9069 27.5788 71.8761 27.5788C73.6136 27.5788 74.4052 26.9518 74.4052 25.9968V25.9196C74.4052 24.6173 72.3491 24.1833 70.0227 23.4694C67.0593 22.6013 63.7097 21.2218 63.7097 17.1222V17.045C63.7097 12.7427 67.1847 10.3408 71.4514 10.3408C74.1349 10.3408 77.0598 11.2476 79.3475 12.791L77.0598 16.9292C74.9651 15.7042 72.88 14.9614 71.3355 14.9614C69.8779 14.9614 69.125 15.5884 69.125 16.418V16.4952C69.125 17.6817 71.1425 18.2315 73.4302 19.0225C76.3937 20.0064 79.8205 21.4244 79.8205 25.2926V25.3698C79.8205 30.0675 76.3068 32.1993 71.7313 32.1993C68.7678 32.1993 65.4569 31.2154 62.6478 29.0064L62.6382 28.9968Z" fill="#11E9B7"/>
<path d="M81.8965 21.3473V21.2701C81.8965 15.2315 86.2017 10.2637 92.3603 10.2637C99.4263 10.2637 102.66 15.7428 102.66 21.7428C102.66 22.2154 102.621 22.7653 102.583 23.3248H87.862C88.4509 26.045 90.3525 27.463 93.036 27.463C95.0535 27.463 96.5111 26.836 98.1714 25.2926L101.608 28.3312C99.6387 30.7814 96.7911 32.2765 92.9588 32.2765C86.6072 32.2765 81.9061 27.8199 81.9061 21.3473H81.8965ZM96.82 19.5724C96.4629 16.8907 94.8894 15.0772 92.3603 15.0772C89.8313 15.0772 88.2578 16.8521 87.7848 19.5724H96.82Z" fill="#11E9B7"/>
<path d="M123.336 35.4598C131.733 35.4598 138.54 28.6577 138.54 20.2669C138.54 11.8761 131.733 5.07397 123.336 5.07397C114.94 5.07397 108.133 11.8761 108.133 20.2669C108.133 28.6577 114.94 35.4598 123.336 35.4598Z" fill="white"/>
<path d="M126.744 27.4052C125.296 28.6013 123.597 29.3827 121.541 29.3827C118.134 29.3827 115.576 27.4052 115.576 24.2605V24.2122C115.576 21.955 116.792 20.3537 119.031 19.3409C118.172 18.1254 117.786 17.0065 117.786 15.791V15.7428C117.786 13.3023 119.746 11.074 123.173 11.074C126.194 11.074 128.173 13.0515 128.173 15.5402V15.5884C128.173 17.9711 126.648 19.3698 124.437 20.2283L126.802 22.5917C127.381 21.6753 127.97 20.6335 128.53 19.5434L131.397 21.1158C130.712 22.3601 129.949 23.6817 129.061 24.8682L131.677 27.4823L128.81 29.4888L126.754 27.4052H126.744ZM124.563 25.1672L121.155 21.7138C119.987 22.3216 119.504 23.1897 119.504 24.0483V24.0965C119.504 25.3409 120.547 26.1801 121.995 26.1801C122.883 26.1801 123.752 25.8039 124.563 25.1672ZM124.765 15.8007V15.7524C124.765 14.7396 124.08 14.1029 123.086 14.1029C122.043 14.1029 121.358 14.836 121.358 15.9068V15.955C121.358 16.746 121.667 17.3248 122.4 18.164C123.945 17.5852 124.765 16.9196 124.765 15.8007Z" fill="#003449"/>
<path d="M167.962 25.7268V25.6496C167.962 21.0387 171.476 18.9068 176.486 18.9068C178.619 18.9068 180.154 19.2637 181.66 19.775V19.4181C181.66 16.9293 180.115 15.5499 177.123 15.5499C174.835 15.5499 173.213 15.984 171.283 16.6978L169.786 12.1255C172.113 11.103 174.4 10.4277 178.001 10.4277C181.273 10.4277 183.648 11.2959 185.144 12.7911C186.727 14.3731 187.432 16.6978 187.432 19.5338V31.8039H181.631V29.5178C180.173 31.1383 178.155 32.1994 175.24 32.1994C171.254 32.1994 167.972 29.9133 167.972 25.7268H167.962ZM181.737 24.3473V23.2863C180.714 22.8136 179.372 22.4953 177.905 22.4953C175.337 22.4953 173.763 23.5178 173.763 25.4181V25.4953C173.763 27.1158 175.105 28.0612 177.045 28.0612C179.845 28.0612 181.746 26.5274 181.746 24.357L181.737 24.3473Z" fill="#11E9B7"/>
<path d="M188.542 10.6592H194.894L199.633 24.82L204.412 10.6592H210.647L202.317 31.9582H196.873L188.542 10.6592Z" fill="#11E9B7"/>
<path d="M210.724 21.3473V21.2701C210.724 15.2315 215.029 10.2637 221.188 10.2637C228.254 10.2637 231.488 15.7428 231.488 21.7428C231.488 22.2154 231.449 22.7653 231.41 23.3248H216.69C217.279 26.045 219.18 27.463 221.864 27.463C223.881 27.463 225.339 26.836 226.999 25.2926L230.436 28.3312C228.466 30.7814 225.619 32.2765 221.786 32.2765C215.435 32.2765 210.734 27.8199 210.734 21.3473H210.724ZM225.648 19.5724C225.29 16.8907 223.717 15.0772 221.188 15.0772C218.659 15.0772 217.085 16.8521 216.612 19.5724H225.648Z" fill="#11E9B7"/>
<path d="M157.044 15.0579C154.071 14.0354 151.455 13.3119 151.455 11.7781V11.672C151.455 10.5916 152.43 9.7717 154.332 9.7717C156.33 9.7717 159.052 10.746 161.774 12.3376L164.747 6.95498C162.701 5.58521 160.268 4.61093 157.816 4.12862V0H151.996V4.01286C147.652 4.8135 144.418 7.77492 144.418 12.5016V12.6077C144.418 17.9421 148.781 19.7363 152.633 20.865C155.664 21.791 158.328 22.3505 158.328 24.0482V24.1543C158.328 25.3891 157.305 26.209 155.046 26.209C152.478 26.209 149.351 25.0804 146.378 22.9293L143.038 28.0611C145.808 30.2412 148.955 31.5048 151.996 31.9871V36H157.816V31.9582C162.247 31.1479 165.365 28.3891 165.365 23.3441V23.2379C165.365 18.2122 160.896 16.3698 157.054 15.0868L157.044 15.0579Z" fill="#11E9B7"/>
</svg>
