<svg width="32" height="32" viewBox="0 0 32 32" xmlns="http://www.w3.org/2000/svg" xmlns:xlink="http://www.w3.org/1999/xlink">
    <defs>
        <path d="M26.625 24.657v-8.203h3.118l.002 8.203h-3.12zM18.3 29.743h-4.101a.287.287 0 1 1 0-.575h4.1v.575zM2.468 24.657h3.118v-8.203H2.468v8.203zm27.275-10.171h-.574v-.923a12.98 12.98 0 0 0-3.824-9.24A12.978 12.978 0 0 0 16.105.5C8.903.5 3.044 6.36 3.044 13.563v.923h-.575A1.97 1.97 0 0 0 .5 16.454v8.203a1.97 1.97 0 0 0 1.968 1.968H6.57c.544 0 .984-.44.984-.984v-10.17a.984.984 0 0 0-.984-.985H5.01v-.923c0-6.118 4.977-11.095 11.095-11.095 2.967 0 5.754 1.153 7.848 3.246a11.026 11.026 0 0 1 3.246 7.849v.923h-1.559a.984.984 0 0 0-.984.984v10.171c0 .544.44.984.984.984h1.38a2.832 2.832 0 0 1-2.65 1.846h-4.103v-.287a.984.984 0 0 0-.984-.984H14.2a2.259 2.259 0 0 0-2.256 2.256 2.258 2.258 0 0 0 2.256 2.255h5.085c.544 0 .984-.44.984-.984v-.287h4.102a4.806 4.806 0 0 0 4.696-3.815h.677a1.97 1.97 0 0 0 1.969-1.968v-8.203a1.97 1.97 0 0 0-1.969-1.968z" id="irh1dw8kca"/>
    </defs>
    <g fill="none" fill-rule="evenodd">
        <mask id="0ua8mimohb" fill="#fff">
            <use xlink:href="#irh1dw8kca"/>
        </mask>
        <use fill="#545451" xlink:href="#irh1dw8kca"/>
        <g mask="url(#0ua8mimohb)" fill="#009FC7">
            <path d="M-10.327-10.327H42.33V42.33h-52.656z"/>
        </g>
    </g>
</svg>
