<svg width="32" height="32" viewBox="0 0 32 32" xmlns="http://www.w3.org/2000/svg" xmlns:xlink="http://www.w3.org/1999/xlink">
    <defs>
        <path d="M13.236 30.164h5.768l.551-3.828a.918.918 0 0 1 .544-.711c.918-.399 1.7-.854 2.324-1.353a.92.92 0 0 1 .915-.136l3.637 1.455 2.878-4.98-3.105-2.408a.916.916 0 0 1-.348-.84c.058-.465.113-.904.113-1.363 0-.512-.033-.927-.104-1.308a.916.916 0 0 1 .336-.892l3.078-2.41-2.878-4.98-3.605 1.452a.916.916 0 0 1-.903-.123c-.783-.603-1.547-1.045-2.335-1.35a.917.917 0 0 1-.577-.725l-.551-3.828h-5.738l-.551 3.828a.918.918 0 0 1-.544.711c-.906.393-1.704.852-2.369 1.364a.916.916 0 0 1-.903.123L5.264 6.41l-2.877 4.98L5.465 13.8a.917.917 0 0 1 .345.837A10.86 10.86 0 0 0 5.727 16c0 .47.027.916.083 1.364a.918.918 0 0 1-.345.836l-3.078 2.411 2.878 4.98 3.604-1.453a.919.919 0 0 1 .903.123c.785.604 1.55 1.046 2.335 1.35.31.12.531.397.578.725l.551 3.828zM19.136 0c.839 0 1.55.63 1.636 1.443l.496 3.445c.63.285 1.245.642 1.862 1.08l3.264-1.316a.678.678 0 0 1 .054-.02c.79-.262 1.645.057 2.03.763l3.006 5.199a1.705 1.705 0 0 1-.366 2.11l-.044.037-2.778 2.176a9.952 9.952 0 0 1-.012 2.154l2.817 2.186.047.038a1.7 1.7 0 0 1 .377 2.092l-3.028 5.238c-.458.721-1.29 1.008-2.044.734l-3.317-1.326a12.23 12.23 0 0 1-1.836 1.062L20.8 30.58A1.7 1.7 0 0 1 19.136 32h-6.033a1.673 1.673 0 0 1-1.659-1.401l-.502-3.487a11.115 11.115 0 0 1-1.862-1.08l-3.265 1.316-.052.02c-.79.264-1.646-.056-2.032-.763L.726 21.406a1.705 1.705 0 0 1 .366-2.11c.015-.013.029-.026.044-.037l2.798-2.19a12.932 12.932 0 0 1 0-2.137l-2.798-2.19a1.663 1.663 0 0 1-.421-2.129l3.027-5.238c.458-.72 1.29-1.008 2.044-.735l3.297 1.33c.559-.389 1.18-.745 1.856-1.065l.502-3.484A1.7 1.7 0 0 1 13.103 0h6.033zm-3.02 9.32A6.687 6.687 0 0 0 9.436 16a6.687 6.687 0 0 0 6.68 6.68 6.687 6.687 0 0 0 6.68-6.68 6.687 6.687 0 0 0-6.68-6.68zm0 1.836A4.85 4.85 0 0 1 20.96 16a4.85 4.85 0 0 1-4.844 4.843A4.85 4.85 0 0 1 11.272 16a4.85 4.85 0 0 1 4.844-4.844z" id="5tr7r5ysca"/>
    </defs>
    <g fill="none" fill-rule="evenodd">
        <mask id="6qb149i2vb" fill="#fff">
            <use xlink:href="#5tr7r5ysca"/>
        </mask>
        <use fill="#545451" xlink:href="#5tr7r5ysca"/>
        <g mask="url(#6qb149i2vb)" fill="#009FC7">
            <path d="M-8.22-8.72h49.109v49.109h-49.11z"/>
        </g>
    </g>
</svg>
