<svg xmlns="http://www.w3.org/2000/svg" xmlns:xlink="http://www.w3.org/1999/xlink" width="215" height="73" viewBox="0 0 215 73">
    <defs>
        <path id="a" d="M.23.542H21.6v25.194H.23z"/>
        <path id="c" d="M.788.542h25.637v25.194H.788z"/>
        <path id="e" d="M.456.542H17.76v25.194H.456z"/>
    </defs>
    <g fill="none" fill-rule="evenodd">
        <g transform="translate(80.229 -.514)">
            <mask id="b" fill="#fff">
                <use xlink:href="#a"/>
            </mask>
            <path fill="#004261" d="M18.23 19.086c.136 0 .27.025.407.076.134.051.265.138.39.263l2.268 2.384a9.416 9.416 0 0 1-3.733 2.938c-1.496.658-3.266.99-5.31.99-1.873 0-3.552-.32-5.037-.957-1.485-.638-2.743-1.517-3.775-2.639-1.034-1.122-1.827-2.454-2.38-3.994-.553-1.54-.83-3.213-.83-5.017 0-1.838.316-3.529.948-5.068a11.847 11.847 0 0 1 2.65-3.985c1.135-1.115 2.493-1.985 4.073-2.605 1.58-.62 3.324-.93 5.232-.93.926 0 1.798.08 2.616.244.82.163 1.583.39 2.295.677.711.288 1.366.632 1.965 1.032.598.401 1.128.844 1.591 1.328l-1.93 2.59c-.125.157-.271.301-.44.432-.17.13-.407.193-.712.193a1.27 1.27 0 0 1-.576-.136 5.983 5.983 0 0 1-.576-.329c-.202-.13-.425-.27-.668-.423a5.29 5.29 0 0 0-.864-.422 7.164 7.164 0 0 0-1.168-.33 7.972 7.972 0 0 0-1.566-.136c-1.039 0-1.987.184-2.845.55a6.24 6.24 0 0 0-2.21 1.573c-.616.683-1.095 1.51-1.44 2.48-.344.97-.516 2.058-.516 3.265 0 1.265.172 2.386.516 3.367.345.982.813 1.809 1.406 2.48a5.982 5.982 0 0 0 2.074 1.53 6.19 6.19 0 0 0 2.54.525c.52 0 .993-.025 1.423-.077a5.545 5.545 0 0 0 2.243-.744 7.12 7.12 0 0 0 1.009-.736c.134-.112.281-.205.439-.28.158-.072.322-.11.491-.11" mask="url(#b)"/>
        </g>
        <path fill="#004261" d="M109.009 20.383h9.144v4.568h-14.867V.3h5.723z"/>
        <g transform="translate(117.257 -.514)">
            <mask id="d" fill="#fff">
                <use xlink:href="#c"/>
            </mask>
            <path fill="#004261" d="M20.567 13.13c0-1.218-.159-2.316-.474-3.29-.317-.977-.77-1.803-1.363-2.48a5.895 5.895 0 0 0-2.177-1.557c-.858-.36-1.835-.54-2.93-.54-1.106 0-2.09.18-2.954.54A5.875 5.875 0 0 0 8.484 7.36c-.592.676-1.047 1.502-1.363 2.479-.316.974-.474 2.072-.474 3.29 0 1.229.158 2.333.474 3.308.316.976.77 1.803 1.363 2.478a5.785 5.785 0 0 0 2.185 1.549c.864.355 1.848.532 2.955.532 1.094 0 2.071-.177 2.93-.532a5.804 5.804 0 0 0 2.176-1.549c.592-.675 1.046-1.502 1.363-2.478.315-.975.474-2.079.474-3.308m5.858 0c0 1.782-.308 3.44-.922 4.974a11.996 11.996 0 0 1-2.6 4.002c-1.116 1.134-2.464 2.022-4.038 2.664-1.575.644-3.323.966-5.241.966-1.92 0-3.67-.322-5.25-.966-1.58-.642-2.931-1.53-4.056-2.664a11.935 11.935 0 0 1-2.607-4.002c-.616-1.533-.923-3.192-.923-4.974 0-1.781.307-3.441.923-4.975a11.845 11.845 0 0 1 2.607-3.993c1.125-1.127 2.475-2.014 4.056-2.656 1.58-.644 3.33-.964 5.25-.964 1.918 0 3.666.323 5.241.972 1.574.65 2.922 1.537 4.038 2.665a11.92 11.92 0 0 1 2.6 3.994c.614 1.533.922 3.186.922 4.957" mask="url(#d)"/>
        </g>
        <g transform="translate(144 -.514)">
            <mask id="f" fill="#fff">
                <use xlink:href="#e"/>
            </mask>
            <path fill="#004261" d="M16 5.82c-.168.271-.346.474-.533.61-.186.136-.426.203-.72.203-.26 0-.538-.082-.838-.245-.299-.163-.637-.347-1.016-.55a8.425 8.425 0 0 0-1.295-.55c-.485-.164-1.039-.246-1.66-.246-1.073 0-1.87.229-2.395.685-.525.458-.787 1.074-.787 1.853 0 .497.157.908.474 1.236.315.327.73.608 1.244.846.514.236 1.1.454 1.761.65.66.199 1.334.417 2.022.661.69.243 1.364.527 2.025.854a6.714 6.714 0 0 1 1.76 1.252 5.882 5.882 0 0 1 1.245 1.852c.317.729.474 1.606.474 2.633a8.544 8.544 0 0 1-.592 3.197 7.463 7.463 0 0 1-1.719 2.597c-.75.739-1.676 1.32-2.776 1.744-1.102.422-2.352.634-3.752.634-.767 0-1.55-.08-2.344-.237a14.02 14.02 0 0 1-2.313-.668 13.329 13.329 0 0 1-2.099-1.024 8.943 8.943 0 0 1-1.71-1.32l1.693-2.673c.124-.203.299-.367.525-.49.226-.126.468-.187.729-.187.338 0 .678.108 1.024.321.344.215.733.452 1.168.712a9.47 9.47 0 0 0 1.5.709c.563.215 1.228.323 1.997.323 1.038 0 1.846-.23 2.422-.686.575-.456.863-1.182.863-2.174 0-.575-.159-1.044-.474-1.405-.316-.36-.73-.66-1.245-.897a11.58 11.58 0 0 0-1.753-.626c-.654-.18-1.326-.38-2.014-.6-.689-.22-1.361-.491-2.016-.812a6.399 6.399 0 0 1-1.752-1.268c-.515-.527-.93-1.18-1.245-1.964-.317-.784-.473-1.752-.473-2.902 0-.925.185-1.827.559-2.708a7.004 7.004 0 0 1 1.641-2.352c.722-.687 1.61-1.237 2.659-1.65C7.314.748 8.517.542 9.871.542c.755 0 1.493.06 2.209.178a11.6 11.6 0 0 1 2.041.524c.644.231 1.245.508 1.803.83.56.321 1.059.686 1.499 1.091L16 5.821z" mask="url(#f)"/>
        </g>
        <path fill="#004261" d="M179.643.299v4.399h-10.127v5.753h7.756v4.23h-7.756v5.87h10.127v4.4H163.76V.3z"/>
        <path fill="#FAAF19" d="M100.372 42.697c0-1.218-.158-2.316-.474-3.29-.317-.977-.77-1.803-1.364-2.48a5.883 5.883 0 0 0-2.175-1.557c-.858-.36-1.835-.54-2.93-.54-1.106 0-2.09.18-2.955.54a5.883 5.883 0 0 0-2.184 1.558c-.593.676-1.047 1.502-1.363 2.479-.316.974-.474 2.072-.474 3.29 0 1.229.158 2.333.474 3.308.316.975.77 1.803 1.363 2.478a5.793 5.793 0 0 0 2.184 1.549c.864.355 1.849.532 2.956.532 1.094 0 2.071-.177 2.929-.532a5.792 5.792 0 0 0 2.175-1.549c.594-.675 1.047-1.503 1.364-2.478.316-.975.474-2.08.474-3.308m5.86 0c0 1.782-.31 3.44-.923 4.974a11.98 11.98 0 0 1-2.6 4.002c-1.117 1.134-2.464 2.022-4.039 2.664-1.575.644-3.321.966-5.24.966-1.92 0-3.67-.322-5.25-.966-1.58-.642-2.932-1.53-4.055-2.664a11.922 11.922 0 0 1-2.608-4.002c-.615-1.533-.923-3.192-.923-4.974 0-1.781.308-3.441.923-4.975a11.832 11.832 0 0 1 2.608-3.993c1.123-1.127 2.475-2.013 4.055-2.656 1.58-.644 3.33-.965 5.25-.965 1.919 0 3.665.324 5.24.973 1.575.65 2.922 1.537 4.038 2.665a11.914 11.914 0 0 1 2.6 3.994c.615 1.533.923 3.186.923 4.957M111.768 30.413c.17.022.321.064.457.126.136.064.265.151.39.263.123.113.265.265.422.456l11.719 14.807a32.824 32.824 0 0 1-.102-1.38 26.098 26.098 0 0 1-.033-1.26V30.38h5.045v24.652h-2.98c-.44 0-.812-.067-1.118-.204-.304-.134-.598-.383-.879-.744l-11.634-14.687c.034.429.063.85.084 1.262.023.412.034.798.034 1.159v13.214h-5.045V30.38h3.014c.248 0 .456.011.626.033M156.489 30.38v4.533h-6.943v20.119h-5.723V34.913h-6.943v-4.534zM158.52 55.032h5.758V30.379h-5.758zM181.27 45.098c.209.463.41.938.602 1.423.191-.496.395-.98.61-1.448.214-.468.434-.923.659-1.364l6.334-12.466c.113-.214.228-.381.347-.5.119-.119.252-.205.398-.262.147-.056.313-.085.5-.085H195.74v24.636h-5.046v-14.18c0-.687.034-1.43.102-2.234l-6.537 12.674a2.145 2.145 0 0 1-.82.897 2.27 2.27 0 0 1-1.177.304h-.78c-.44 0-.833-.1-1.176-.304a2.14 2.14 0 0 1-.822-.897l-6.57-12.689c.045.394.078.785.102 1.175.021.39.034.748.034 1.075v14.18h-5.047V30.395H173.023c.187 0 .354.029.5.085.147.057.28.143.398.263.12.118.234.285.347.5l6.35 12.515c.226.43.443.876.652 1.339M214.841 30.38v4.398h-10.126v5.754h7.754v4.23h-7.754v5.87h10.126v4.4h-15.883V30.379z"/>
        <path fill="#004261" d="M86.618 71.143c.322 0 .618-.016.888-.045.27-.03.523-.077.762-.138.239-.06.464-.134.675-.22.21-.088.423-.185.633-.297v-2.63h-1.849a.358.358 0 0 1-.254-.091.304.304 0 0 1-.097-.225v-.916h3.667v4.58a6.38 6.38 0 0 1-1.979.97c-.37.106-.765.188-1.187.24-.423.053-.881.079-1.375.079-.867 0-1.661-.148-2.383-.445a5.467 5.467 0 0 1-1.867-1.25 5.665 5.665 0 0 1-1.22-1.926c-.292-.75-.437-1.574-.437-2.473 0-.91.142-1.741.429-2.49a5.452 5.452 0 0 1 1.224-1.927 5.462 5.462 0 0 1 1.925-1.245c.752-.294 1.596-.441 2.53-.441.47 0 .91.034 1.315.104.405.069.782.17 1.13.3.346.13.667.289.962.474.294.186.57.396.825.628l-.459.734c-.094.15-.216.225-.366.225a.593.593 0 0 1-.292-.092 8.722 8.722 0 0 1-.467-.284 3.91 3.91 0 0 0-.628-.32 4.962 4.962 0 0 0-.876-.263 5.86 5.86 0 0 0-1.196-.107c-.671 0-1.28.109-1.823.329a3.855 3.855 0 0 0-1.392.94 4.165 4.165 0 0 0-.884 1.482c-.205.58-.308 1.231-.308 1.953 0 .754.107 1.426.32 2.02.215.59.516 1.091.905 1.502.389.41.85.725 1.383.94a4.645 4.645 0 0 0 1.766.325M115.923 67.887h4.458l-1.874-4.854a9.02 9.02 0 0 1-.359-1.122 17 17 0 0 1-.18.628c-.056.19-.114.36-.17.503l-1.875 4.845zm7.824 4.431h-1.249a.543.543 0 0 1-.35-.109.657.657 0 0 1-.2-.274l-1.117-2.881h-5.357l-1.117 2.88a.676.676 0 0 1-.2.267.54.54 0 0 1-.35.117h-1.249l4.774-11.932h1.641l4.774 11.932zM102.505 71.035c.494 0 .935-.083 1.325-.25.388-.165.718-.4.987-.7.27-.299.475-.657.617-1.074a4.26 4.26 0 0 0 .212-1.374v-7.25h1.608v7.25a5.46 5.46 0 0 1-.328 1.917 4.466 4.466 0 0 1-.943 1.527c-.408.43-.907.767-1.495 1.011-.59.245-1.25.367-1.983.367-.734 0-1.394-.122-1.984-.367a4.364 4.364 0 0 1-1.499-1.01 4.414 4.414 0 0 1-.946-1.528 5.46 5.46 0 0 1-.33-1.917v-7.25h1.608v7.243c0 .5.072.957.214 1.373.141.417.346.774.616 1.074.269.3.6.534.992.705.392.168.835.253 1.329.253M132.163 66.165h1.692c.472 0 .887-.059 1.244-.172.36-.114.66-.274.9-.483.243-.207.425-.456.546-.744.123-.29.184-.608.184-.958 0-.71-.235-1.246-.704-1.606-.47-.362-1.168-.542-2.095-.542h-1.767v4.505zm0 1.174v4.978h-1.608V60.386h3.375c.755 0 1.408.077 1.957.229.55.152 1.005.373 1.363.662.358.288.623.636.796 1.045.172.407.258.864.258 1.37 0 .422-.068.816-.2 1.182a3.118 3.118 0 0 1-.58.986c-.251.29-.56.54-.925.746-.363.204-.775.36-1.236.465.2.118.377.286.532.508l3.484 4.738h-1.434c-.294 0-.51-.114-.65-.341l-3.099-4.263a.882.882 0 0 0-.308-.287c-.111-.059-.28-.087-.5-.087h-1.225zM147.73 67.887h4.459l-1.875-4.854a9.212 9.212 0 0 1-.358-1.122c-.06.226-.122.436-.18.628a7.28 7.28 0 0 1-.171.503l-1.874 4.845zm7.824 4.431h-1.248a.543.543 0 0 1-.35-.109.66.66 0 0 1-.202-.274l-1.116-2.881h-5.357l-1.117 2.88a.67.67 0 0 1-.2.267.536.536 0 0 1-.35.117h-1.25l4.775-11.932h1.642l4.773 11.932zM162.828 60.441c.069.035.15.109.237.22l6.916 8.992a5.117 5.117 0 0 1-.033-.42 8.734 8.734 0 0 1-.008-.396v-8.452h1.416v11.933h-.817a.7.7 0 0 1-.32-.067.865.865 0 0 1-.256-.225l-6.906-8.984a11.512 11.512 0 0 1 .033.774v8.502h-1.416V60.385h.833c.144 0 .251.019.321.056M187.015 60.386v1.356h-3.858v10.575h-1.617V61.742h-3.874v-1.356zM200.682 60.386V61.7h-5.732v3.964h4.64v1.266h-4.64V71h5.732v1.316h-7.356V60.386zM214.975 60.386V61.7h-5.732v3.964h4.64v1.266h-4.64V71h5.732v1.316h-7.357V60.386z"/>
        <path fill="#FAAF19" d="M36.237 59.726c-10.54 0-19.113-8.567-19.113-19.097 0-10.53 8.573-19.098 19.113-19.098 10.539 0 19.113 8.568 19.113 19.098s-8.574 19.097-19.113 19.097m0-42.44c-12.88 0-23.36 10.472-23.36 23.343 0 12.87 10.48 23.342 23.36 23.342 12.88 0 23.36-10.472 23.36-23.342s-10.48-23.343-23.36-23.343"/>
        <path fill="#004261" d="M68.104 15.375l-6.585-6.58a5.521 5.521 0 0 1 5.094 1.49 5.506 5.506 0 0 1 1.491 5.09m-31.867 52.84C21.014 68.214 8.63 55.84 8.63 40.628c0-15.211 12.385-27.587 27.608-27.587 15.222 0 27.607 12.376 27.607 27.587 0 15.21-12.385 27.585-27.607 27.585M5.87 10.284a5.52 5.52 0 0 1 5.094-1.49l-6.586 6.581a5.511 5.511 0 0 1 1.492-5.09m63.749-3.001A9.761 9.761 0 0 0 56.61 6.56a2.122 2.122 0 0 0-.175 3.157l3.867 3.864-3.104 3.102c-5.107-4.47-11.65-7.337-18.838-7.812v-4.6h2.123a2.122 2.122 0 1 0 0-4.244H31.99a2.123 2.123 0 0 0 0 4.244h2.124v4.6a31.741 31.741 0 0 0-18.838 7.81l-3.1-3.095 3.872-3.869a2.12 2.12 0 0 0-.174-3.157 9.762 9.762 0 0 0-13.008.724 9.743 9.743 0 0 0-.723 12.996 2.123 2.123 0 0 0 3.159.175l3.873-3.868 3.098 3.096c-4.91 5.602-7.89 12.932-7.89 20.946 0 9.383 4.086 17.83 10.572 23.662l-1.438 3.923h-2.763a2.124 2.124 0 0 0 0 4.245h5.73l1.988-5.422a31.689 31.689 0 0 0 17.766 5.422c6.573 0 12.687-2 17.766-5.422l1.986 5.422h5.731a2.123 2.123 0 1 0 0-4.245h-2.764l-1.438-3.923c6.487-5.831 10.573-14.279 10.573-23.662 0-8.014-2.98-15.344-7.89-20.946l3.103-3.101 3.877 3.873a2.125 2.125 0 0 0 3.16-.175 9.743 9.743 0 0 0-.723-12.996"/>
        <path fill="#004261" d="M36.237 42.751a2.126 2.126 0 0 1-2.124-2.121c0-1.171.952-2.124 2.124-2.124 1.17 0 2.123.953 2.123 2.124a2.125 2.125 0 0 1-2.123 2.121m2.123-8.124v-6.73a2.123 2.123 0 0 0-4.247 0v6.73a6.374 6.374 0 0 0-4.204 6.754c.333 2.884 2.686 5.236 5.572 5.57a6.38 6.38 0 0 0 6.76-4.2h2.49a2.123 2.123 0 1 0 0-4.245h-2.49a6.397 6.397 0 0 0-3.881-3.879"/>
    </g>
</svg>
