<svg width="142" height="48" viewBox="0 0 142 48" fill="none" xmlns="http://www.w3.org/2000/svg">
    <path d="M23.923 11.479c-8.51 0-15.429 6.919-15.429 15.429 0 8.51 6.919 15.428 15.429 15.428 8.51 0 15.428-6.919 15.428-15.428 0-8.51-6.919-15.429-15.428-15.429zm0 28.046c-6.96 0-12.624-5.664-12.624-12.624 0-6.96 5.664-12.624 12.624-12.624 6.96 0 12.624 5.664 12.624 12.624 0 6.96-5.664 12.624-12.624 12.624z" fill="#FAAF19"/>
    <path d="M45.968 4.862a6.455 6.455 0 0 0-8.592-.48 1.402 1.402 0 0 0-.116 2.084l2.55 2.551-2.05 2.05a20.95 20.95 0 0 0-12.438-5.163V2.866h1.405c.775 0 1.406-.63 1.406-1.406 0-.774-.63-1.405-1.406-1.405h-5.609c-.775 0-1.406.63-1.406 1.405s.631 1.406 1.406 1.406h1.406v3.038a20.95 20.95 0 0 0-12.44 5.163L8.042 9.024 10.6 6.466c.59-.59.535-1.563-.116-2.084a6.44 6.44 0 0 0-8.592.48 6.455 6.455 0 0 0-.48 8.591 1.402 1.402 0 0 0 2.084.117l2.558-2.558 2.043 2.044A20.94 20.94 0 0 0 2.885 26.9c0 6.2 2.695 11.788 6.98 15.642l-.946 2.591H7.095c-.775 0-1.406.631-1.406 1.406 0 .775.631 1.406 1.406 1.406h3.785l1.31-3.586a20.91 20.91 0 0 0 11.733 3.586c4.34 0 8.379-1.324 11.732-3.586l1.31 3.586h3.785c.775 0 1.406-.63 1.406-1.406 0-.775-.631-1.406-1.406-1.406h-1.824l-.946-2.592c4.286-3.853 6.98-9.435 6.98-15.64a20.954 20.954 0 0 0-5.211-13.845l2.05-2.05 2.558 2.557c.59.59 1.563.535 2.084-.116a6.44 6.44 0 0 0-.48-8.592l.007.007zM3.865 6.85a3.658 3.658 0 0 1 3.367-.987L2.885 10.21a3.643 3.643 0 0 1 .987-3.367l-.007.007zm20.058 38.283c-10.053 0-18.234-8.18-18.234-18.233 0-10.052 8.181-18.233 18.234-18.233 10.052 0 18.233 8.18 18.233 18.233s-8.18 18.233-18.233 18.233zM44.967 10.21 40.62 5.863a3.643 3.643 0 0 1 3.367.987 3.643 3.643 0 0 1 .987 3.367l-.007-.007z" fill="#003449"/>
    <path d="M25.322 22.937v-4.45c0-.775-.631-1.406-1.406-1.406-.775 0-1.406.63-1.406 1.406v4.45a4.22 4.22 0 0 0-2.777 4.464c.22 1.906 1.776 3.463 3.682 3.682a4.213 4.213 0 0 0 4.464-2.777h1.646c.775 0 1.406-.63 1.406-1.405s-.631-1.406-1.406-1.406h-1.646a4.24 4.24 0 0 0-2.564-2.565l.006.007zm-1.4 5.37c-.774 0-1.405-.632-1.405-1.406 0-.775.63-1.406 1.406-1.406.775 0 1.405.63 1.405 1.405s-.63 1.406-1.405 1.406z" fill="#FAAF19"/>
    <path d="M54.087 43.838v-.02c0-2.27 1.735-4.19 4.176-4.19 1.413 0 2.284.39 3.113 1.097l-.905 1.076c-.624-.521-1.241-.857-2.27-.857-1.494 0-2.626 1.296-2.626 2.846v.02c0 1.667 1.097 2.894 2.757 2.894.76 0 1.46-.247 1.954-.617v-1.502h-2.07v-1.248h3.448v3.401A5.151 5.151 0 0 1 58.284 48c-2.537 0-4.204-1.803-4.204-4.17l.007.008zM64.887 44.428v-4.663h1.427v4.608c0 1.508.774 2.304 2.05 2.304 1.275 0 2.036-.755 2.036-2.25v-4.662h1.427v4.594c0 2.42-1.365 3.634-3.484 3.634-2.119 0-3.449-1.214-3.449-3.566h-.007zM77.847 39.71h1.317l3.565 8.16h-1.501l-.823-1.954h-3.833l-.83 1.954h-1.46l3.565-8.16zm2.037 4.944-1.4-3.244-1.391 3.244h2.79zM85.61 39.765h3.613c1.022 0 1.817.301 2.338.809.426.439.672 1.042.672 1.748v.021c0 1.33-.802 2.132-1.92 2.455l2.188 3.065h-1.687l-1.989-2.825h-1.782v2.825h-1.427v-8.105l-.007.007zm3.51 4.018c1.022 0 1.667-.535 1.667-1.358v-.02c0-.871-.624-1.344-1.68-1.344h-2.071v2.722h2.084zM98.343 39.71h1.317l3.565 8.16h-1.501l-.823-1.954h-3.833l-.83 1.954h-1.46l3.565-8.16zm2.037 4.944-1.4-3.244-1.391 3.244h2.791zM106.112 39.765h1.317l4.34 5.602v-5.602h1.399v8.105h-1.193l-4.471-5.767v5.767h-1.399v-8.105h.007zM118.723 41.088h-2.586v-1.323h6.59v1.323h-2.585v6.782h-1.426v-6.782h.007zM125.703 39.765h6.007v1.275h-4.587v2.105h4.066v1.282h-4.066v2.167h4.642v1.276h-6.069v-8.105h.007zM134.953 39.765h6.007v1.275h-4.587v2.105h4.066v1.282h-4.066v2.167h4.642v1.276h-6.068v-8.105h.006zM54.087 8.42v-.04c0-4.389 3.305-7.982 8.044-7.982 2.907 0 4.649.967 6.082 2.38l-2.16 2.489c-1.193-1.077-2.4-1.742-3.943-1.742-2.599 0-4.47 2.16-4.47 4.807v.04c0 2.648 1.83 4.849 4.47 4.849 1.762 0 2.846-.707 4.053-1.81l2.16 2.18c-1.584 1.694-3.353 2.757-6.323 2.757-4.54 0-7.913-3.504-7.913-7.934v.007zM70.613 0h3.353v16.087h-3.353V0zM76.325 10.252v-.042c0-3.394 2.736-6.15 6.411-6.15 3.676 0 6.37 2.708 6.37 6.102v.042c0 3.394-2.735 6.15-6.41 6.15-3.676 0-6.371-2.708-6.371-6.102zm9.477 0v-.042c0-1.741-1.255-3.264-3.107-3.264-1.851 0-3.065 1.475-3.065 3.216v.042c0 1.741 1.255 3.264 3.106 3.264 1.852 0 3.066-1.475 3.066-3.216zM90.389 14.523l1.433-2.2c1.275.925 2.62 1.412 3.724 1.412.966 0 1.412-.35 1.412-.885v-.04c0-.728-1.145-.968-2.448-1.366-1.653-.486-3.525-1.254-3.525-3.545v-.04c0-2.4 1.941-3.745 4.32-3.745 1.502 0 3.127.508 4.41 1.365l-1.276 2.31c-1.165-.685-2.338-1.103-3.195-1.103-.816 0-1.234.35-1.234.816v.04c0 .66 1.124.968 2.4 1.413 1.652.549 3.572 1.344 3.572 3.504v.042c0 2.619-1.961 3.812-4.519 3.812a8.266 8.266 0 0 1-5.067-1.783l-.007-.007zM101.587 10.252v-.042c0-3.373 2.4-6.15 5.842-6.15 3.943 0 5.753 3.065 5.753 6.411 0 .267-.021.576-.041.885h-8.222c.329 1.522 1.385 2.31 2.887 2.31 1.125 0 1.941-.35 2.866-1.213l1.92 1.693c-1.104 1.365-2.688 2.202-4.827 2.202-3.545 0-6.172-2.49-6.172-6.103l-.006.007zm8.331-.995c-.199-1.501-1.083-2.51-2.489-2.51s-2.29.995-2.558 2.51h5.047z" fill="#003449"/>
    <path d="M54.087 27.237v-.041c0-4.389 3.463-7.982 8.222-7.982 4.759 0 8.174 3.545 8.174 7.934v.04c0 4.39-3.463 7.976-8.222 7.976-4.759 0-8.174-3.546-8.174-7.934v.007zm12.85 0v-.041c0-2.647-1.94-4.848-4.67-4.848-2.728 0-4.628 2.16-4.628 4.806v.042c0 2.646 1.94 4.848 4.67 4.848 2.729 0 4.629-2.16 4.629-4.807zM72.588 23.095h3.353v1.673c.768-.994 1.762-1.893 3.463-1.893 2.537 0 4.011 1.674 4.011 4.39v7.645h-3.353v-6.59c0-1.584-.747-2.4-2.03-2.4-1.282 0-2.091.816-2.091 2.4v6.59h-3.353V23.095zM93.276 22.608h-4.697v-3.127h12.781v3.127h-4.697v12.295H93.27V22.608h.007zM103.239 18.816h3.525v2.976h-3.525v-2.976zm.089 4.279h3.353V34.91h-3.353V23.095zM109.445 23.095h3.353v1.673c.768-.994 1.783-1.893 3.483-1.893 1.543 0 2.709.686 3.326 1.872 1.036-1.213 2.27-1.872 3.881-1.872 2.489 0 3.991 1.502 3.991 4.341v7.694h-3.353v-6.59c0-1.584-.706-2.4-1.961-2.4-1.255 0-2.03.816-2.03 2.4v6.59h-3.353v-6.59c0-1.584-.706-2.4-1.961-2.4-1.255 0-2.03.816-2.03 2.4v6.59h-3.353V23.095h.007zM129.427 29.067v-.04c0-3.374 2.4-6.152 5.842-6.152 3.943 0 5.753 3.066 5.753 6.412 0 .267-.021.576-.041.885h-8.222c.329 1.522 1.385 2.31 2.887 2.31 1.125 0 1.941-.35 2.866-1.213l1.92 1.693c-1.104 1.365-2.688 2.201-4.827 2.201-3.545 0-6.172-2.489-6.172-6.102l-.006.006zm8.331-.994c-.199-1.502-1.083-2.51-2.489-2.51s-2.29.995-2.558 2.51h5.047z" fill="#FAAF19"/>
</svg>
