<svg width="32" height="32" viewBox="0 0 32 32" xmlns="http://www.w3.org/2000/svg" xmlns:xlink="http://www.w3.org/1999/xlink">
    <defs>
        <path d="M29.346.5c1.102 0 2 .897 2 2v26.845c0 1.103-.898 2-2 2H2.5c-1.103 0-2-.897-2-2V2.5c0-1.103.897-2 2-2zm0 2H2.5v26.845h26.843L29.346 2.5zM9.42 10.513c.93 0 1.671.29 2.224.866.554.576.83 1.325.83 2.246 0 .92-.274 1.648-.82 2.182-.546.533-1.304.8-2.272.8H8.118v3.305H6.22v-9.399zm6.804 0c1.098 0 1.973.349 2.624 1.046.652.697.984 1.652.997 2.866v1.523c0 1.236-.325 2.205-.978 2.909-.651.703-1.55 1.055-2.694 1.055H13.74v-9.399zm10.185 0v1.582h-3.304v2.408h2.95v1.575h-2.95v3.834h-1.898v-9.398h5.202zM16.33 12.096h-.691v6.242h.568c.632 0 1.078-.167 1.336-.5.259-.333.394-.91.407-1.727v-1.633c0-.878-.123-1.49-.368-1.837-.245-.346-.663-.528-1.252-.545zm-6.888 0H8.118v2.93H9.42c.362 0 .642-.118.84-.355.197-.236.297-.58.297-1.033 0-.469-.101-.842-.304-1.12a.975.975 0 0 0-.813-.422z" id="btsy08mxla"/>
    </defs>
    <g fill="none" fill-rule="evenodd">
        <mask id="p2zz3jdulb" fill="#fff">
            <use xlink:href="#btsy08mxla"/>
        </mask>
        <use fill="#545451" xlink:href="#btsy08mxla"/>
        <g mask="url(#p2zz3jdulb)" fill="#1B6C92">
            <path d="M-11-11h53.5v53.5H-11z"/>
        </g>
    </g>
</svg>
