<svg width="377" height="170" viewBox="0 0 377 170" xmlns="http://www.w3.org/2000/svg" xmlns:xlink="http://www.w3.org/1999/xlink">
    <defs>
        <path id="8kmwf29eka" d="M0 169.244h376.555V0H0z"/>
    </defs>
    <g fill="none" fill-rule="evenodd">
        <path d="M132.525 75.567c0-34.579 28.003-62.61 62.546-62.61s62.546 28.031 62.546 62.61-28.003 62.61-62.546 62.61-62.546-28.031-62.546-62.61" fill="#E8E9EE"/>
        <path fill="#009FC7" d="M191.56 104.151h-35.117V58.453l35.116-7.03"/>
        <path d="M191.56 105.088h-35.117a.936.936 0 0 1-.936-.937V58.453c0-.447.315-.831.752-.919l35.117-7.03a.936.936 0 0 1 .368 1.836l-34.366 6.88v43.995h34.181a.936.936 0 0 1 0 1.873" fill="#414750"/>
        <mask id="grndsxwujb" fill="#fff">
            <use xlink:href="#8kmwf29eka"/>
        </mask>
        <path fill="#FEFEFE" mask="url(#grndsxwujb)" d="M164.401 102.787h19.2V80.481h-19.2z"/>
        <path d="M144.78 16.626c-.98 0-1.779.798-1.779 1.78v.539c0 .982.798 1.78 1.78 1.78h27.877a1.78 1.78 0 0 0 1.778-1.78v-.54a1.78 1.78 0 0 0-1.778-1.78H144.78zm27.878 5.972H144.78a3.655 3.655 0 0 1-3.65-3.653v-.54a3.655 3.655 0 0 1 3.65-3.652h27.878a3.655 3.655 0 0 1 3.649 3.653v.539a3.655 3.655 0 0 1-3.649 3.653z" fill="#E8E9EE" mask="url(#grndsxwujb)"/>
        <path d="M195.07 13.893c-33.971 0-61.61 27.667-61.61 61.674s27.639 61.673 61.61 61.673c33.973 0 61.612-27.666 61.612-61.673 0-34.007-27.639-61.674-61.611-61.674m0 125.22c-35.004 0-63.482-28.507-63.482-63.546 0-35.04 28.478-63.547 63.482-63.547s63.482 28.507 63.482 63.547c0 35.04-28.478 63.546-63.482 63.546" fill="#414750" mask="url(#grndsxwujb)"/>
        <path d="M184.536 105.088a.936.936 0 0 1-.936-.937v-23.67h-19.198v23.67a.936.936 0 1 1-1.871 0V79.544c0-.517.419-.936.935-.936h21.07c.516 0 .935.42.935.936v24.607c0 .517-.419.937-.935.937" fill="#414750" mask="url(#grndsxwujb)"/>
        <path fill="#009FC7" mask="url(#grndsxwujb)" d="M226.676 49.259v-8.382H216.14v5.137l-24.581-8.653v66.79h42.14V51.423z"/>
        <path d="M192.495 103.215h40.269V52.114l-6.363-1.96a.937.937 0 0 1-.66-.895v-7.446h-8.664v4.201a.938.938 0 0 1-1.246.884l-23.336-8.215v64.532zm41.204 1.873h-42.14a.936.936 0 0 1-.935-.937v-66.79a.936.936 0 0 1 1.246-.883l23.336 8.214v-3.816c0-.516.418-.936.935-.936h10.535c.516 0 .935.42.935.936v7.691l6.363 1.96c.393.121.66.485.66.896v52.728c0 .517-.418.937-.935.937z" fill="#414750" mask="url(#grndsxwujb)"/>
        <path fill="#FEFEFE" mask="url(#grndsxwujb)" d="M184.536 93.605h-21.07"/>
        <path d="M184.536 94.542h-21.07a.936.936 0 0 1 0-1.873h21.07a.936.936 0 0 1 0 1.873" fill="#414750" mask="url(#grndsxwujb)"/>
        <path fill="#FEFEFE" mask="url(#grndsxwujb)" d="M184.536 86.575h-21.07"/>
        <path d="M184.536 87.511h-21.07a.936.936 0 0 1 0-1.873h21.07a.936.936 0 0 1 0 1.873" fill="#414750" mask="url(#grndsxwujb)"/>
        <path fill="#FEFEFE" mask="url(#grndsxwujb)" d="M198.583 86.575h28.093V65.483h-28.093z"/>
        <path d="M199.518 85.639h26.222v-19.22h-26.222v19.22zm27.158 1.872h-28.094a.936.936 0 0 1-.935-.936V65.483c0-.517.419-.936.935-.936h28.094c.516 0 .935.42.935.936v21.092c0 .517-.419.936-.935.936z" fill="#414750" mask="url(#grndsxwujb)"/>
        <path fill="#FEFEFE" mask="url(#grndsxwujb)" d="M198.583 76.029h28.093"/>
        <path d="M226.676 76.966h-28.094a.936.936 0 0 1 0-1.873h28.094a.936.936 0 0 1 0 1.873" fill="#414750" mask="url(#grndsxwujb)"/>
        <path fill="#FEFEFE" mask="url(#grndsxwujb)" d="M212.629 65.483v21.092"/>
        <path d="M212.63 87.511a.936.936 0 0 1-.936-.936V65.483a.936.936 0 1 1 1.87 0v21.092c0 .517-.418.936-.935.936" fill="#414750" mask="url(#grndsxwujb)"/>
        <path fill="#FEFEFE" mask="url(#grndsxwujb)" d="M355.383 159.559h-8.604v-21.125l4.302-3.277 4.302 3.277z"/>
        <path d="M347.715 158.623h6.733v-19.725l-3.367-2.564-3.366 2.564v19.725zm7.668 1.873h-8.604a.936.936 0 0 1-.935-.937v-21.125c0-.292.136-.567.369-.745l4.302-3.277a.934.934 0 0 1 1.133 0l4.301 3.277c.233.178.37.453.37.745v21.125c0 .517-.42.937-.936.937z" fill="#414750" mask="url(#grndsxwujb)"/>
        <path fill="#FEFEFE" mask="url(#grndsxwujb)" d="M369.759 159.559h-8.605v-21.125l4.303-3.277 4.302 3.277z"/>
        <path d="M362.09 158.623h6.734v-19.725l-3.367-2.564-3.367 2.564v19.725zm7.67 1.873h-8.605a.936.936 0 0 1-.936-.937v-21.125c0-.292.137-.567.37-.745l4.301-3.277a.934.934 0 0 1 1.133 0l4.302 3.277c.233.178.37.453.37.745v21.125c0 .517-.42.937-.936.937z" fill="#414750" mask="url(#grndsxwujb)"/>
        <path fill="#FEFEFE" mask="url(#grndsxwujb)" d="M339.745 152.124h35.875v-6.73h-35.875z"/>
        <path d="M340.68 151.188h34.003v-4.858H340.68v4.858zm34.94 1.872h-35.875a.936.936 0 0 1-.936-.936v-6.73c0-.518.42-.937.936-.937h35.874c.517 0 .936.42.936.937v6.73c0 .517-.42.936-.936.936z" fill="#414750" mask="url(#grndsxwujb)"/>
        <path d="M304.49 159.876c.305-1.235.513-2.507.513-3.836 0-7.929-5.761-14.47-13.313-15.764-2.469-5.674-8.106-9.648-14.683-9.648-7.685 0-14.092 5.423-15.647 12.65-.127-.003-.246-.037-.374-.037-8.848 0-16.021 7.18-16.021 16.037 0 .205.053.395.06.598h59.465z" fill="#FEFEFE" mask="url(#grndsxwujb)"/>
        <path d="M245.904 158.94h57.84c.22-1.046.324-1.982.324-2.9a15.033 15.033 0 0 0-12.536-14.841.936.936 0 0 1-.7-.55c-2.402-5.518-7.828-9.084-13.825-9.084-7.051 0-13.248 5.009-14.733 11.91a.945.945 0 0 1-.935.74 2.26 2.26 0 0 1-.294-.03c-.023-.003-.045-.007-.068-.008-8.197 0-14.893 6.592-15.073 14.763m58.586 1.873h-59.465a.937.937 0 0 1-.935-.903c-.002-.06-.012-.118-.02-.176-.018-.124-.04-.278-.04-.456 0-9.24 7.414-16.78 16.6-16.97 1.953-7.357 8.716-12.616 16.377-12.616a16.95 16.95 0 0 1 15.333 9.752 16.899 16.899 0 0 1 13.599 16.596c0 1.258-.177 2.587-.54 4.06a.935.935 0 0 1-.909.713" fill="#414750" mask="url(#grndsxwujb)"/>
        <path fill="#FEFEFE" mask="url(#grndsxwujb)" d="M1.297 159.876H375.49"/>
        <path d="M375.49 160.813H1.297a.936.936 0 0 1 0-1.873H375.49a.936.936 0 0 1 0 1.873" fill="#414750" mask="url(#grndsxwujb)"/>
        <path fill="#FEFEFE" mask="url(#grndsxwujb)" d="M.935 168.308h95.063"/>
        <path d="M95.998 169.244H.936a.936.936 0 0 1 0-1.873h95.062a.936.936 0 0 1 0 1.873" fill="#414750" mask="url(#grndsxwujb)"/>
        <path fill="#FEFEFE" mask="url(#grndsxwujb)" d="M107.618 167.683h36.501"/>
        <path d="M144.119 168.62h-36.5a.936.936 0 0 1 0-1.873h36.5a.936.936 0 0 1 0 1.872" fill="#414750" mask="url(#grndsxwujb)"/>
        <path fill="#FEFEFE" mask="url(#grndsxwujb)" d="M151.298 167.683h71.785"/>
        <path d="M223.083 168.62h-71.785a.936.936 0 0 1 0-1.873h71.785a.936.936 0 0 1 0 1.872" fill="#414750" mask="url(#grndsxwujb)"/>
        <path fill="#FEFEFE" mask="url(#grndsxwujb)" d="M234.214 167.995h97.397"/>
        <path d="M331.612 168.932h-97.398a.936.936 0 0 1 0-1.873h97.398a.936.936 0 0 1 0 1.873" fill="#414750" mask="url(#grndsxwujb)"/>
        <path fill="#FEFEFE" mask="url(#grndsxwujb)" d="M338.313 167.37h36.816"/>
        <path d="M375.129 168.307h-36.816a.936.936 0 0 1 0-1.873h36.816a.936.936 0 0 1 0 1.873" fill="#414750" mask="url(#grndsxwujb)"/>
        <path d="M132.804 159.876c.305-1.235.513-2.507.513-3.836 0-7.929-5.761-14.47-13.313-15.764-2.47-5.674-8.106-9.648-14.683-9.648-7.685 0-14.092 5.423-15.648 12.65-.126-.003-.245-.037-.373-.037-8.849 0-16.021 7.18-16.021 16.037 0 .205.052.395.06.598h59.465z" fill="#FEFEFE" mask="url(#grndsxwujb)"/>
        <path d="M74.218 158.94h57.84c.22-1.048.324-1.984.324-2.9a15.033 15.033 0 0 0-12.536-14.841.936.936 0 0 1-.7-.55c-2.401-5.518-7.828-9.084-13.825-9.084-7.05 0-13.248 5.009-14.733 11.91a.936.936 0 0 1-.915.74h-.02a2.275 2.275 0 0 1-.295-.03c-.022-.003-.045-.007-.067-.008-8.197 0-14.893 6.592-15.073 14.763m58.586 1.873H73.34a.936.936 0 0 1-.935-.9c-.002-.06-.012-.12-.02-.178-.018-.124-.04-.279-.04-.457 0-9.24 7.414-16.78 16.6-16.97 1.953-7.357 8.716-12.616 16.377-12.616a16.95 16.95 0 0 1 15.333 9.752 16.899 16.899 0 0 1 13.599 16.596c0 1.273-.172 2.564-.54 4.06a.935.935 0 0 1-.909.713" fill="#414750" mask="url(#grndsxwujb)"/>
        <path fill="#FEFEFE" mask="url(#grndsxwujb)" d="M40.642 159.456h61.316V87.44H40.642z"/>
        <path d="M41.592 158.52h59.446V88.375H41.592v70.145zm60.381 1.873H40.657a.936.936 0 0 1-.936-.936V87.438c0-.517.419-.936.936-.936h61.316c.517 0 .936.42.936.936v72.019c0 .517-.42.936-.936.936z" fill="#414750" mask="url(#grndsxwujb)"/>
        <path fill="#E8E9EE" mask="url(#grndsxwujb)" d="M105.169 87.418H37.46l6.08-11.495h55.547z"/>
        <path d="M39.015 86.482h64.6l-5.09-9.623h-54.42l-5.09 9.623zm66.154 1.873H37.46a.936.936 0 0 1-.827-1.375l6.081-11.495a.936.936 0 0 1 .827-.499h55.546c.347 0 .665.192.827.499l6.08 11.495a.939.939 0 0 1-.826 1.375z" fill="#414750" mask="url(#grndsxwujb)"/>
        <path fill="#FEFEFE" mask="url(#grndsxwujb)" d="M48.668 110.792h7.612v-12.15h-7.612z"/>
        <path d="M49.604 109.855h5.74V99.578h-5.74v10.277zm6.676 1.873h-7.612a.936.936 0 0 1-.935-.936v-12.15c0-.517.418-.937.935-.937h7.612c.517 0 .936.42.936.937v12.15a.936.936 0 0 1-.936.936z" fill="#414750" mask="url(#grndsxwujb)"/>
        <path fill="#FEFEFE" mask="url(#grndsxwujb)" d="M67.51 110.792h7.611v-12.15H67.51z"/>
        <path d="M68.444 109.855h5.742V99.578h-5.742v10.277zm6.677 1.873H67.51a.936.936 0 0 1-.936-.936v-12.15c0-.517.419-.937.936-.937h7.612c.517 0 .936.42.936.937v12.15a.936.936 0 0 1-.936.936z" fill="#414750" mask="url(#grndsxwujb)"/>
        <path fill="#FEFEFE" mask="url(#grndsxwujb)" d="M86.35 110.792h7.612v-12.15H86.35z"/>
        <path d="M87.285 109.855h5.741V99.578h-5.74v10.277zm6.677 1.873H86.35a.936.936 0 0 1-.936-.936v-12.15c0-.517.42-.937.936-.937h7.612c.517 0 .936.42.936.937v12.15c0 .517-.42.936-.936.936z" fill="#414750" mask="url(#grndsxwujb)"/>
        <path fill="#E8E9EE" mask="url(#grndsxwujb)" d="M41.593 92.207h59.427V88.42H41.593zM49.603 110.192h5.742v-5.475h-5.742zM68.443 110.192h5.736v-5.475h-5.736zM87.286 110.192h5.74v-5.475h-5.74z"/>
        <path fill="#FEFEFE" mask="url(#grndsxwujb)" d="M48.668 129.25h7.612V117.1h-7.612z"/>
        <path d="M49.604 128.313h5.74v-10.277h-5.74v10.277zm6.676 1.873h-7.612a.936.936 0 0 1-.935-.936V117.1c0-.517.418-.937.935-.937h7.612c.517 0 .936.42.936.937v12.15a.936.936 0 0 1-.936.936z" fill="#414750" mask="url(#grndsxwujb)"/>
        <path fill="#FEFEFE" mask="url(#grndsxwujb)" d="M67.51 129.25h7.611V117.1H67.51z"/>
        <path d="M68.444 128.313h5.742v-10.277h-5.742v10.277zm6.677 1.873H67.51a.936.936 0 0 1-.936-.936V117.1c0-.517.419-.937.936-.937h7.612c.517 0 .936.42.936.937v12.15a.936.936 0 0 1-.936.936z" fill="#414750" mask="url(#grndsxwujb)"/>
        <path fill="#FEFEFE" mask="url(#grndsxwujb)" d="M86.35 129.25h7.612V117.1H86.35z"/>
        <path d="M87.285 128.313h5.741v-10.277h-5.74v10.277zm6.677 1.873H86.35a.936.936 0 0 1-.936-.936V117.1c0-.517.42-.937.936-.937h7.612c.517 0 .936.42.936.937v12.15c0 .517-.42.936-.936.936z" fill="#414750" mask="url(#grndsxwujb)"/>
        <path fill="#E8E9EE" mask="url(#grndsxwujb)" d="m55.346 128.65-5.743-.007v-5.474l5.743.006zM68.444 128.65h5.736v-5.475h-5.736zM87.287 128.65h5.718v-5.475h-5.718zM65.682 159.456h11.266v-16.985H65.682z"/>
        <path d="M66.618 158.52h9.395v-15.113h-9.395v15.113zm10.33 1.873H65.682a.936.936 0 0 1-.935-.936V142.47c0-.518.418-.937.935-.937h11.266c.517 0 .936.42.936.937v16.986c0 .517-.42.936-.936.936z" fill="#414750" mask="url(#grndsxwujb)"/>
        <path d="M250.73 138.903c0-5.412 4.382-9.8 9.789-9.8 5.405 0 9.788 4.388 9.788 9.8 0 5.412-4.383 9.799-9.788 9.799-5.407 0-9.79-4.387-9.79-9.8" fill="#E8E9EE" mask="url(#grndsxwujb)"/>
        <path d="M260.238 129.118c-5.275.15-9.509 4.468-9.509 9.784 0 3.64 1.987 6.809 4.93 8.499 5.275-.15 9.508-4.468 9.508-9.785a9.789 9.789 0 0 0-4.929-8.498" fill="#FEFEFE" mask="url(#grndsxwujb)"/>
        <path d="M260.518 130.04c-4.882 0-8.853 3.976-8.853 8.863s3.971 8.862 8.853 8.862 8.854-3.975 8.854-8.862c0-4.887-3.972-8.863-8.854-8.863m0 19.598c-5.913 0-10.724-4.816-10.724-10.735 0-5.92 4.81-10.736 10.724-10.736 5.914 0 10.725 4.816 10.725 10.736 0 5.919-4.81 10.735-10.725 10.735" fill="#414750" mask="url(#grndsxwujb)"/>
        <path fill="#FEFEFE" mask="url(#grndsxwujb)" d="M260.986 136.417v23.639"/>
        <path d="M260.986 160.993a.936.936 0 0 1-.935-.937v-23.638a.936.936 0 1 1 1.87 0v23.638c0 .517-.418.937-.935.937" fill="#414750" mask="url(#grndsxwujb)"/>
        <path d="M260.987 144.561a.932.932 0 0 1-.721-.34l-3.55-4.29a.936.936 0 0 1 1.44-1.195l3.55 4.292a.936.936 0 0 1-.72 1.533M143.237 76.503a.936.936 0 0 1-.936-.936c0-29.128 23.672-52.824 52.77-52.824a.936.936 0 0 1 0 1.873c-28.066 0-50.899 22.856-50.899 50.95 0 .517-.419.937-.935.937" fill="#414750" mask="url(#grndsxwujb)"/>
        <path d="M153.233 53.138c3.15 0 3.883-4.37.922-5.445a9.618 9.618 0 0 0-3.283-.574c-.81 0-1.595.1-2.346.29-1.84-4.287-6.094-7.29-11.049-7.29-.38 0-.756.02-1.128.055-1.56-6.007-7.012-10.44-13.5-10.44-5.387 0-10.057 3.058-12.38 7.532a12.02 12.02 0 0 0-4.263-.072c-5.327.862-9.505 5.295-10.031 10.67a11.45 11.45 0 0 0-.012.126c-.243 2.779 2.012 5.148 4.8 5.148h52.27z" fill="#FEFEFE" mask="url(#grndsxwujb)"/>
        <path d="M108.135 37.974c-.594 0-1.188.049-1.78.144-4.879.79-8.769 4.927-9.25 9.837l-.01.126a3.702 3.702 0 0 0 .979 2.847 3.924 3.924 0 0 0 2.889 1.273h52.27c1.15 0 1.698-.788 1.827-1.525.127-.719-.118-1.702-1.225-2.102a8.746 8.746 0 0 0-5.083-.257.936.936 0 0 1-1.086-.54 11.079 11.079 0 0 0-11.23-6.672.933.933 0 0 1-.992-.696 13.014 13.014 0 0 0-12.595-9.74c-4.873 0-9.299 2.694-11.55 7.03a.937.937 0 0 1-1.01.486 11.13 11.13 0 0 0-2.154-.21m45.098 16.1h-52.27a5.8 5.8 0 0 1-4.269-1.882 5.565 5.565 0 0 1-1.463-4.285l.013-.136c.57-5.834 5.017-10.565 10.812-11.503 1.3-.21 2.614-.223 3.913-.037a14.837 14.837 0 0 1 12.88-7.435A14.886 14.886 0 0 1 137.04 39.19a12.945 12.945 0 0 1 12.02 7.148 10.615 10.615 0 0 1 5.413.475c2.056.745 2.702 2.64 2.43 4.187-.269 1.53-1.507 3.074-3.67 3.074" fill="#414750" mask="url(#grndsxwujb)"/>
        <path d="M231.53 26.654c0-14.203 11.503-25.718 25.692-25.718 14.188 0 25.69 11.515 25.69 25.718S271.41 52.37 257.223 52.37c-14.189 0-25.691-11.514-25.691-25.717" fill="#009FC7" mask="url(#grndsxwujb)"/>
        <path d="M257.222 1.873c-13.65 0-24.756 11.117-24.756 24.78 0 13.665 11.105 24.782 24.756 24.782 13.65 0 24.755-11.117 24.755-24.781 0-13.664-11.105-24.781-24.755-24.781m0 51.435c-14.682 0-26.627-11.957-26.627-26.654S242.54 0 257.222 0c14.682 0 26.626 11.957 26.626 26.654s-11.944 26.654-26.626 26.654" fill="#414750" mask="url(#grndsxwujb)"/>
        <path d="M41.243 66.819a1.553 1.553 0 0 0 1.545-1.554v-.016c0-4.163-3.025-7.599-6.991-8.278-1.296-2.979-4.256-5.066-7.71-5.066-4.035 0-7.399 2.847-8.216 6.642-.067-.001-.13-.02-.196-.02-4.074 0-7.47 2.899-8.246 6.748-.175.868.516 1.67 1.4 1.667l28.414-.123" fill="#FEFEFE" mask="url(#grndsxwujb)"/>
        <path d="M19.642 59.464a7.497 7.497 0 0 0-7.296 5.996.433.433 0 0 0 .095.364c.095.116.25.185.384.182l28.414-.124a.618.618 0 0 0 .613-.618 7.454 7.454 0 0 0-6.213-7.37.935.935 0 0 1-.7-.549 7.477 7.477 0 0 0-6.852-4.503c-3.494 0-6.565 2.482-7.302 5.903a.942.942 0 0 1-.937.739 1.75 1.75 0 0 1-.206-.02zm-6.82 8.415c-.71 0-1.375-.315-1.827-.865a2.307 2.307 0 0 1-.483-1.924c.84-4.172 4.427-7.246 8.637-7.484 1.183-3.888 4.826-6.637 8.938-6.637a9.344 9.344 0 0 1 8.356 5.176 9.315 9.315 0 0 1 7.28 9.104 2.499 2.499 0 0 1-2.476 2.506l-28.414.124h-.01z" fill="#414750" mask="url(#grndsxwujb)"/>
        <path d="M357.382 29.547a1.206 1.206 0 0 0 1.2-1.208v-.012c0-3.237-2.351-5.906-5.433-6.434a6.535 6.535 0 0 0-5.993-3.938c-3.136 0-5.751 2.214-6.386 5.163-.052-.001-.1-.016-.153-.016a6.543 6.543 0 0 0-6.41 5.245c-.135.675.402 1.299 1.09 1.296l22.085-.096M316.822 75.859a1.871 1.871 0 0 0 1.862-1.874v-.02c0-5.02-3.647-9.16-8.43-9.98-1.562-3.592-5.131-6.108-9.295-6.108-4.865 0-8.922 3.433-9.907 8.009-.08-.002-.155-.024-.236-.024-4.912 0-9.008 3.494-9.943 8.135-.21 1.047.623 2.015 1.69 2.01 6.487-.027 27.816-.12 34.259-.148" fill="#E8E9EE" mask="url(#grndsxwujb)"/>
        <path d="M367.764 94.634c1.135 0 1.895-1.197 1.382-2.21a8.02 8.02 0 0 0-7.16-4.411c-.06 0-.12.003-.18.004a8.02 8.02 0 0 0-15.023-1.904 7.983 7.983 0 0 0-3.925-1.027c-4.432 0-8.025 3.596-8.025 8.033v.015c.002.834.702 1.5 1.536 1.5h31.395z" fill="#FEFEFE" mask="url(#grndsxwujb)"/>
        <path d="M342.857 86.022c-3.908 0-7.088 3.184-7.088 7.096 0 .321.275.58.6.58h31.395a.605.605 0 0 0 .52-.294.56.56 0 0 0 .028-.558 7.057 7.057 0 0 0-6.327-3.897l-.16.005a.938.938 0 0 1-.933-.74c-.693-3.25-3.608-5.607-6.931-5.607-2.701 0-5.13 1.504-6.342 3.926a.933.933 0 0 1-1.295.396 7.085 7.085 0 0 0-3.467-.907m24.907 9.549h-31.395c-1.36 0-2.469-1.092-2.471-2.436 0-4.962 4.019-8.985 8.959-8.985a8.97 8.97 0 0 1 3.547.733 8.907 8.907 0 0 1 7.557-4.15c3.947 0 7.44 2.634 8.572 6.36A8.915 8.915 0 0 1 369.981 92a2.43 2.43 0 0 1-.103 2.384 2.467 2.467 0 0 1-2.114 1.186" fill="#414750" mask="url(#grndsxwujb)"/>
        <path d="M63.791 23.21c1.708 0 2.106-2.37.5-2.952a5.21 5.21 0 0 0-3.053-.155 6.52 6.52 0 0 0-6.604-3.923 7.562 7.562 0 0 0-14.037-1.576 6.538 6.538 0 0 0-2.312-.04c-2.889.467-5.155 2.871-5.44 5.787l-.007.068c-.132 1.508 1.091 2.792 2.604 2.792H63.79z" fill="#E8E9EE" mask="url(#grndsxwujb)"/>
        <path d="M253.66 159.278c.028-.24.044-.481.044-.728a6.47 6.47 0 0 0-6.466-6.473c-1.506 0-2.888.52-3.988 1.384-.77-2.707-3.253-4.692-6.204-4.692-3.338 0-6.052 2.545-6.39 5.797-1.178-1.277-2.85-2.088-4.724-2.088a6.46 6.46 0 0 0-6.456 6.462c0 .114.011.226.017.338h34.168z" fill="#FEFEFE" mask="url(#grndsxwujb)"/>
        <path d="M220.444 158.342h32.321a5.54 5.54 0 0 0-5.527-5.328c-1.246 0-2.425.41-3.41 1.184a.936.936 0 0 1-1.478-.48 5.54 5.54 0 0 0-5.305-4.013c-2.818 0-5.165 2.131-5.458 4.957a.936.936 0 0 1-1.617.54c-1.065-1.153-2.5-1.787-4.039-1.787-2.841 0-5.188 2.16-5.487 4.927m33.217 1.872h-34.168a.935.935 0 0 1-.934-.887l-.006-.094a4.035 4.035 0 0 1-.012-.293c0-4.08 3.315-7.398 7.39-7.398 1.507 0 2.936.45 4.152 1.29.995-2.94 3.75-5 6.962-5 2.864 0 5.452 1.68 6.663 4.208a7.302 7.302 0 0 1 3.53-.9c4.082 0 7.402 3.325 7.402 7.41 0 .261-.016.533-.05.831a.936.936 0 0 1-.929.833" fill="#414750" mask="url(#grndsxwujb)"/>
        <path d="M49.407 40.737c-.981 0-1.78.798-1.78 1.78v.403c0 .982.799 1.78 1.78 1.78h11.742c.981 0 1.779-.798 1.779-1.78v-.403c0-.982-.798-1.78-1.779-1.78H49.407zm11.742 5.836H49.407a3.655 3.655 0 0 1-3.65-3.653v-.403a3.655 3.655 0 0 1 3.65-3.653h11.742a3.655 3.655 0 0 1 3.65 3.653v.403a3.655 3.655 0 0 1-3.65 3.653zM277.041 93.198a1.78 1.78 0 0 0-1.778 1.78v.404c0 .982.797 1.78 1.778 1.78h11.743a1.78 1.78 0 0 0 1.779-1.78v-.403a1.78 1.78 0 0 0-1.779-1.78h-11.743zm11.743 5.837h-11.743a3.655 3.655 0 0 1-3.65-3.653v-.403a3.655 3.655 0 0 1 3.65-3.653h11.743a3.655 3.655 0 0 1 3.65 3.653v.403a3.655 3.655 0 0 1-3.65 3.653zM76.749 62.028a1.781 1.781 0 0 0 0 3.56h28.155a1.781 1.781 0 0 0 0-3.56H76.75zm28.155 5.433H76.75a3.655 3.655 0 0 1-3.65-3.653 3.655 3.655 0 0 1 3.65-3.653h28.155a3.655 3.655 0 0 1 3.65 3.653 3.655 3.655 0 0 1-3.65 3.653zM290.635 24.433c-.98 0-1.779.798-1.779 1.78v.403c0 .982.798 1.78 1.78 1.78h11.742c.98 0 1.779-.798 1.779-1.78v-.403c0-.982-.798-1.78-1.78-1.78h-11.742zm11.743 5.836h-11.743a3.655 3.655 0 0 1-3.65-3.653v-.403a3.655 3.655 0 0 1 3.65-3.653h11.743a3.655 3.655 0 0 1 3.65 3.653v.403a3.655 3.655 0 0 1-3.65 3.653zM343.91 53.675a1.78 1.78 0 0 0-1.778 1.78v.403c0 .982.797 1.78 1.778 1.78h11.743c.98 0 1.778-.798 1.778-1.78v-.403c0-.982-.798-1.78-1.778-1.78H343.91zm11.743 5.836H343.91a3.655 3.655 0 0 1-3.65-3.653v-.403a3.655 3.655 0 0 1 3.65-3.653h11.743a3.655 3.655 0 0 1 3.65 3.653v.403a3.655 3.655 0 0 1-3.65 3.653zM339.745 123.02l-27.78-20.233-27.82 20.232v36.737h55.6z" fill="#E8E9EE" mask="url(#grndsxwujb)"/>
        <path d="M285.08 158.82h53.73v-35.324l-26.845-19.551-26.886 19.552v35.322zm54.665 1.872h-55.601a.936.936 0 0 1-.935-.936v-36.737c0-.3.143-.581.385-.757l27.822-20.233a.935.935 0 0 1 1.1 0l27.78 20.233a.936.936 0 0 1 .384.757v36.737a.936.936 0 0 1-.935.936z" fill="#414750" mask="url(#grndsxwujb)"/>
        <path d="M344.765 127.483a.929.929 0 0 1-.547-.178l-32.266-23.362-32.281 23.363a.935.935 0 1 1-1.097-1.518l32.83-23.76a.934.934 0 0 1 1.096 0l32.814 23.76a.936.936 0 0 1-.549 1.695" fill="#414750" mask="url(#grndsxwujb)"/>
        <path fill="#E8E9EE" mask="url(#grndsxwujb)" d="M315.344 159.193h14.882V138.37h-14.882z"/>
        <path d="M316.279 158.256h13.01v-18.951h-13.01v18.951zm13.947 1.873h-14.883a.936.936 0 0 1-.935-.936v-20.824c0-.518.419-.937.935-.937h14.883c.516 0 .935.42.935.937v20.824c0 .517-.419.936-.935.936z" fill="#414750" mask="url(#grndsxwujb)"/>
        <path fill="#BBBDBF" mask="url(#grndsxwujb)" d="M292.32 147.413h14.884V137H292.32z"/>
        <path d="M293.256 146.476h13.012v-8.539h-13.012v8.54zm13.948 1.873H292.32a.936.936 0 0 1-.936-.936V137c0-.517.42-.937.936-.937h14.883c.516 0 .935.42.935.937v10.412a.936.936 0 0 1-.935.936z" fill="#414750" mask="url(#grndsxwujb)"/>
        <path d="M307.204 123.397a4.743 4.743 0 0 1 4.74-4.746 4.743 4.743 0 0 1 4.741 4.746 4.743 4.743 0 0 1-4.74 4.746 4.743 4.743 0 0 1-4.741-4.746" fill="#FEFEFE" mask="url(#grndsxwujb)"/>
        <path d="M311.944 119.588a3.812 3.812 0 0 0-3.805 3.81c0 2.1 1.707 3.808 3.805 3.808a3.812 3.812 0 0 0 3.806-3.809c0-2.1-1.707-3.809-3.806-3.809m0 9.491a5.686 5.686 0 0 1-5.676-5.682 5.686 5.686 0 0 1 5.676-5.682 5.686 5.686 0 0 1 5.677 5.682 5.686 5.686 0 0 1-5.677 5.682" fill="#414750" mask="url(#grndsxwujb)"/>
        <path fill="#BBBDBF" mask="url(#grndsxwujb)" d="m307.937 106.857 30.839 21.803v-5.263l-26.842-19.488z"/>
        <path fill="#E8E9EE" mask="url(#grndsxwujb)" d="M293.21 146.473h13.04v-4.266h-13.04z"/>
        <path d="M338.29 159.946a6.006 6.006 0 0 1 4.505-9.973 6.006 6.006 0 0 1 6.003 6.01c0 .126-.012.249-.02.373a5.964 5.964 0 0 1 2.067-.373 6 6 0 0 1 5.638 3.963H338.29z" fill="#FEFEFE" mask="url(#grndsxwujb)"/>
        <path d="M338.735 159.01h16.2a5.076 5.076 0 0 0-4.09-2.09 5.04 5.04 0 0 0-1.743.315.934.934 0 0 1-1.256-.934l.006-.106c.004-.07.01-.14.01-.212a5.077 5.077 0 0 0-5.068-5.073 5.076 5.076 0 0 0-5.067 5.073c0 1.092.355 2.152 1.008 3.027m17.748 1.872H338.29a.935.935 0 0 1-.703-.318 6.937 6.937 0 0 1-1.731-4.581c0-3.83 3.112-6.946 6.938-6.946 3.544 0 6.475 2.673 6.889 6.11.385-.067.773-.1 1.162-.1a6.957 6.957 0 0 1 6.517 4.58.936.936 0 0 1-.879 1.255" fill="#414750" mask="url(#grndsxwujb)"/>
        <path d="M119.534 118.696c0-12.942 10.48-23.433 23.408-23.433s23.408 10.491 23.408 23.433c0 12.941-10.48 23.432-23.408 23.432-12.929 0-23.408-10.49-23.408-23.432" fill="#009FC7" mask="url(#grndsxwujb)"/>
        <path d="M142.942 96.2c-12.392 0-22.473 10.092-22.473 22.496 0 12.404 10.081 22.496 22.473 22.496 12.391 0 22.472-10.092 22.472-22.496 0-12.404-10.08-22.496-22.472-22.496m0 46.865c-13.424 0-24.344-10.933-24.344-24.369 0-13.437 10.92-24.37 24.344-24.37 13.422 0 24.343 10.933 24.343 24.37 0 13.436-10.92 24.369-24.343 24.369" fill="#414750" mask="url(#grndsxwujb)"/>
        <path d="M125.224 119.632a.936.936 0 0 1-.936-.936c0-10.296 8.368-18.673 18.654-18.673a.936.936 0 0 1 0 1.873c-9.254 0-16.783 7.537-16.783 16.8 0 .517-.419.936-.935.936M238.023 28.007a.936.936 0 0 1-.935-.936c0-11.25 9.143-20.403 20.38-20.403a.936.936 0 0 1 0 1.873c-10.205 0-18.51 8.312-18.51 18.53 0 .516-.418.936-.935.936" fill="#FEFEFE" mask="url(#grndsxwujb)"/>
        <path d="M34.474 130.55c-1.355-1.688-1.834-3.967-1.036-5.98a8.17 8.17 0 0 0 .572-3.011 8.152 8.152 0 0 0-1.603-4.866c-1.008-1.361-1.246-3.108-.949-4.776a5.82 5.82 0 0 0 .044-1.734c-.319-2.597-2.44-4.693-5.038-4.98a5.738 5.738 0 0 0-6.282 6.796c.316 1.634.028 3.354-.962 4.691a8.15 8.15 0 0 0-1.605 4.869 8.17 8.17 0 0 0 .572 3.01c.782 1.974.386 4.247-.96 5.887-1.854 2.26-2.835 5.262-2.426 8.495.634 5.015 4.708 9.029 9.726 9.593 6.708.753 12.389-4.48 12.389-11.043 0-2.63-.914-5.048-2.442-6.95" fill="#E8E9EE" mask="url(#grndsxwujb)"/>
        <path d="M31.545 135.192c0-2.63-.914-5.047-2.442-6.95-1.355-1.69-1.834-3.968-1.037-5.981.37-.932.573-1.947.573-3.011a8.147 8.147 0 0 0-1.603-4.866c-1.007-1.361-1.246-3.109-.949-4.777a5.82 5.82 0 0 0 .044-1.733 5.659 5.659 0 0 0-1.059-2.654 5.736 5.736 0 0 0-4.89 6.779c.316 1.634.028 3.354-.962 4.691a8.152 8.152 0 0 0-1.605 4.869c0 1.064.203 2.079.572 3.01.781 1.974.386 4.247-.96 5.887-1.854 2.26-2.835 5.262-2.426 8.495.368 2.916 1.905 5.487 4.11 7.245.082.01.163.03.246.039 6.706.753 12.388-4.48 12.388-11.043" fill="#FEFEFE" mask="url(#grndsxwujb)"/>
        <path d="M25.807 106.103a4.744 4.744 0 0 0-3.195 1.225 4.816 4.816 0 0 0-1.511 4.493c.38 1.967-.032 3.945-1.13 5.427a7.195 7.195 0 0 0-1.42 4.311c0 .922.17 1.818.506 2.665.902 2.279.478 4.894-1.107 6.827-1.791 2.182-2.58 4.946-2.221 7.782.578 4.573 4.322 8.265 8.903 8.78 2.946.33 5.768-.564 7.954-2.52a10.2 10.2 0 0 0 3.394-7.591c0-2.341-.772-4.543-2.235-6.365-1.616-2.014-2.067-4.663-1.177-6.912a7.203 7.203 0 0 0 .506-2.666 7.19 7.19 0 0 0-1.42-4.309c-1.09-1.472-1.486-3.425-1.117-5.497.084-.476.097-.965.036-1.455-.266-2.173-2.038-3.924-4.211-4.164-.186-.02-.371-.03-.555-.03m-.023 43.446c-.453 0-.906-.025-1.361-.076-5.428-.61-9.866-4.986-10.55-10.406-.424-3.352.51-6.622 2.63-9.206 1.155-1.406 1.466-3.302.814-4.947a9.069 9.069 0 0 1-.638-3.356c0-1.97.62-3.846 1.79-5.426.785-1.061 1.075-2.503.794-3.956a6.689 6.689 0 0 1 2.1-6.243 6.699 6.699 0 0 1 5.203-1.662c3.027.334 5.493 2.772 5.865 5.797a6.759 6.759 0 0 1-.052 2.013c-.278 1.56-.001 2.999.78 4.053a9.056 9.056 0 0 1 1.786 5.424 9.078 9.078 0 0 1-.638 3.356c-.643 1.624-.3 3.559.897 5.049a12.086 12.086 0 0 1 2.647 7.538c0 3.426-1.464 6.701-4.018 8.986a12.074 12.074 0 0 1-8.05 3.062" fill="#414750" mask="url(#grndsxwujb)"/>
        <path fill="#FEFEFE" mask="url(#grndsxwujb)" d="M26.28 128.928v30.79"/>
        <path d="M26.28 160.655a.936.936 0 0 1-.935-.937v-30.79a.936.936 0 1 1 1.87 0v30.79c0 .517-.418.937-.935.937" fill="#414750" mask="url(#grndsxwujb)"/>
        <path d="M26.28 141a.931.931 0 0 1-.661-.274l-4.063-4.066a.937.937 0 0 1 1.323-1.324l4.063 4.066a.937.937 0 0 1-.662 1.599" fill="#414750" mask="url(#grndsxwujb)"/>
        <path d="M142.942 117.112c-1.82 0-3.302-1.284-3.302-2.86 0-1.578 1.481-2.861 3.302-2.861 1.82 0 3.301 1.283 3.301 2.86a1.502 1.502 0 1 0 3.001 0c0-2.752-2.049-5.067-4.802-5.695v-.781a1.501 1.501 0 1 0-3 0v.781c-2.754.628-4.803 2.943-4.803 5.695 0 3.234 2.827 5.865 6.303 5.865 1.82 0 3.301 1.283 3.301 2.86s-1.48 2.86-3.301 2.86c-1.82 0-3.302-1.283-3.302-2.86a1.501 1.501 0 1 0-3.001 0c0 2.752 2.049 5.067 4.802 5.695v.649a1.501 1.501 0 1 0 3.001 0v-.649c2.753-.628 4.802-2.943 4.802-5.695 0-3.234-2.827-5.864-6.302-5.864M261.127 116.094a2.397 2.397 0 0 0 2.385-2.399v-.025c0-6.43-4.672-11.734-10.796-12.783-2.002-4.6-6.573-7.824-11.906-7.824-6.232 0-11.427 4.397-12.688 10.258-.104-.002-.2-.03-.303-.03-6.291 0-11.537 4.475-12.735 10.419-.27 1.34.797 2.58 2.163 2.575l43.88-.19" fill="#FEFEFE" mask="url(#grndsxwujb)"/>
        <path d="M227.83 104.233c-5.737 0-10.701 4.064-11.829 9.662-.096.475.117.823.252.987.244.297.602.466.985.466h.005l43.88-.19c.8-.004 1.452-.66 1.453-1.464a12.02 12.02 0 0 0-10.018-11.884.936.936 0 0 1-.7-.55A12.053 12.053 0 0 0 240.81 94c-5.635 0-10.587 4.003-11.774 9.519a.936.936 0 0 1-.914.739h-.025a2.176 2.176 0 0 1-.255-.025h-.012zm-10.593 12.988a3.132 3.132 0 0 1-2.43-1.15 3.048 3.048 0 0 1-.64-2.546c1.276-6.334 6.801-10.968 13.227-11.164 1.648-5.975 7.169-10.234 13.416-10.234 5.37 0 10.244 3.096 12.555 7.93a13.878 13.878 0 0 1 11.082 13.613c-.002 1.857-1.49 3.353-3.316 3.361l-43.88.19h-.014z" fill="#414750" mask="url(#grndsxwujb)"/>
        <path fill="#008CAF" mask="url(#grndsxwujb)" d="m157.378 59.22 33.246-6.655v4.115l-33.246 6.289z"/>
        <path d="M257.514 34.998a1.637 1.637 0 0 1-1.635-1.576c-.05-1.327-.008-1.667.134-2.372.028-.138.061-.3.098-.514.66-3.784 2.531-5.282 3.898-6.375 1.119-.895 1.576-1.306 1.659-2.496a3.813 3.813 0 0 0-.974-2.82 4.082 4.082 0 0 0-2.783-1.353c-2.242-.148-4.155 1.469-4.305 3.617a1.636 1.636 0 1 1-3.266-.229c.276-3.95 3.771-6.937 7.797-6.657a7.334 7.334 0 0 1 5 2.44 7.063 7.063 0 0 1 1.797 5.23c-.187 2.672-1.68 3.867-2.88 4.828-1.218.974-2.27 1.816-2.717 4.378-.044.25-.082.44-.115.6-.09.445-.11.55-.071 1.598a1.637 1.637 0 0 1-1.637 1.701M257.482 42.215c-.496 0-.978-.202-1.324-.548a1.884 1.884 0 0 1-.234-2.365c.07-.102.145-.2.234-.285.084-.09.182-.164.285-.235a1.769 1.769 0 0 1 .674-.276 1.867 1.867 0 0 1 1.684.51c.35.347.552.83.552 1.326a1.88 1.88 0 0 1-1.871 1.873" fill="#FEFEFE" mask="url(#grndsxwujb)"/>
    </g>
</svg>
