<svg width="62" height="62" viewBox="0 0 62 62" xmlns="http://www.w3.org/2000/svg">
    <g stroke="#404750" stroke-width="2.4" fill="none" fill-rule="evenodd" stroke-linecap="round" stroke-linejoin="round">
        <path d="M8.69 8.674A6.665 6.665 0 0 1 15.363 2a6.665 6.665 0 0 1 6.674 6.674 6.665 6.665 0 0 1-6.674 6.674 6.665 6.665 0 0 1-6.675-6.674zM22.038 8.674h38.647M2.112 8.674H8.69M35.745 31.366a6.666 6.666 0 0 1 6.674-6.674 6.666 6.666 0 0 1 6.674 6.674 6.665 6.665 0 0 1-6.674 6.674 6.665 6.665 0 0 1-6.674-6.674zM49.093 31.366h11.592M2 31.366h33.744M16.698 54.059a6.666 6.666 0 0 1 6.674-6.675 6.665 6.665 0 0 1 6.675 6.675 6.665 6.665 0 0 1-6.675 6.673 6.666 6.666 0 0 1-6.674-6.673zM30.047 54.059h30.637M2.112 54.059h14.586"/>
    </g>
</svg>
