<svg xmlns="http://www.w3.org/2000/svg" width="64" height="61" viewBox="0 0 64 61">
    <g fill="none" fill-rule="evenodd" stroke="#404750" stroke-linecap="round" stroke-linejoin="round" stroke-width="2.42">
        <path d="M17.092 59.203H2.001V48.525c0-1.179.965-2.135 2.154-2.135h10.78c1.192 0 2.157.956 2.157 2.135v10.678zM32.185 59.203H17.092V33.578c0-1.18.965-2.136 2.156-2.136h10.78c1.19 0 2.157.956 2.157 2.136v25.625zM47.276 59.203H32.185V18.63c0-1.18.965-2.135 2.154-2.135h10.782c1.19 0 2.155.956 2.155 2.135v40.573zM62.369 59.203H47.276V4.136c0-1.18.965-2.136 2.156-2.136h10.78c1.19 0 2.157.956 2.157 2.136v55.067zM8.469 20.766L25.717 3.682M25.717 14.36V3.682H14.935"/>
    </g>
</svg>
