<svg xmlns="http://www.w3.org/2000/svg" width="86" height="67" viewBox="0 0 86 67">
    <g fill="none" fill-rule="evenodd">
        <path fill="#009FC7" d="M39.223 20.913c0-5.94 4.833-10.758 10.795-10.758 5.963 0 10.796 4.817 10.796 10.758 0 5.94-4.833 10.757-10.796 10.757-5.962 0-10.795-4.816-10.795-10.757" transform="translate(0 1)"/>
        <path fill="#009FC7" d="M4.87 51.206h34.363c5.77 0 10.466-4.688 10.466-10.45 0-1.952-2.26-6.47-2.26-6.47l-1.858-3.123-.27-.57c2.491 1.664 6.648.88 6.648.88 5.966 8.726 1.525 16.082 1.525 16.082-4.653 9.376-14.251 8.961-14.251 8.961H2.907c-1.37 0-1.333-.179-1.807-.71-.475-.532.293-1.372.293-1.372l3.476-3.228" transform="translate(0 1)"/>
        <path fill="#009FC7" d="M23.607 56.517V62.4c0 1.296 1.065 2.358 2.387 2.358 1.3 0 2.367-1.062 2.367-2.358v-5.883h-4.754zM32.906 56.517V62.4c0 1.296 1.067 2.358 2.388 2.358 1.3 0 2.368-1.062 2.368-2.358v-5.883h-4.756zM61.219 21.401L68.541 28.241 58.338 28.241zM59.611 15.974L66.715 15.974 61.212 20.709z" transform="translate(0 1)"/>
        <path stroke="#404750" stroke-width="1.98" d="M51.959 31.473c1.94 2.612 3.069 5.82 3.069 9.282 0 8.71-7.077 15.761-15.796 15.761H2.203c-.66 0-1.215-.53-1.215-1.21 0-.34.15-.659.406-.872l27.99-25.999c.383-.319.788-.595 1.193-.871 2.495-1.614 5.458-2.549 8.655-2.549.277 0 .555 0 .832.042" transform="translate(0 1)"/>
        <path stroke="#404750" stroke-width="1.98" d="M39.223 20.913c0-5.94 4.833-10.758 10.795-10.758 5.963 0 10.796 4.817 10.796 10.758 0 5.94-4.833 10.757-10.796 10.757-5.962 0-10.795-4.816-10.795-10.757z" transform="translate(0 1)"/>
        <path stroke="#404750" stroke-width="1.98" d="M57.565 13.226H68.5c.256 0 .448.213.448.468 0 .127-.043.254-.15.34l-7.525 7.009 7.525 6.988c.107.086.15.192.15.34 0 .255-.192.468-.448.468H57.309" transform="translate(0 1)"/>
        <path fill="#FFF" d="M44.73 20.71c0-2.615 2.126-4.736 4.751-4.736 2.625 0 4.752 2.12 4.752 4.735 0 2.616-2.127 4.737-4.752 4.737s-4.752-2.12-4.752-4.737" transform="translate(0 1)"/>
        <path stroke="#404750" stroke-width="1.98" d="M44.73 20.71c0-2.615 2.126-4.736 4.751-4.736 2.625 0 4.752 2.12 4.752 4.735 0 2.616-2.127 4.737-4.752 4.737s-4.752-2.12-4.752-4.737zM49.481 15.974L49.481 25.446M23.607 56.517V62.4c0 1.296 1.065 2.358 2.387 2.358 1.3 0 2.367-1.062 2.367-2.358v-5.883h-4.754zM32.943 56.517V62.4c0 1.296 1.066 2.358 2.367 2.358 1.32 0 2.387-1.062 2.387-2.358v-5.883h-4.754z" transform="translate(0 1)"/>
        <path stroke="#404750" stroke-linecap="round" stroke-linejoin="round" stroke-width="1.98" d="M68.541 8.422L71.772 0M74.22 9.079L76.276 6.618M79.062 3.464L80.09 2.234M76.24 14.171L84.657 8.422M68.541 33.99L71.772 42.412M74.22 33.333L76.276 35.794M79.062 38.948L80.09 40.179M76.24 28.241L84.657 33.99" transform="translate(0 1)"/>
    </g>
</svg>

