<svg xmlns="http://www.w3.org/2000/svg" width="53" height="76" viewBox="0 0 53 76">
    <g fill="none" fill-rule="evenodd">
        <path fill="#009FC7" d="M15.87 14.06c-2.051 1.664-3.627 3.848-4.555 6.314-.167.443-.586.715-1.03.715-.13 0-.262-.023-.39-.071-.57-.217-.856-.857-.641-1.43 1.068-2.834 2.877-5.342 5.233-7.254.473-.383 1.168-.31 1.55.166.382.477.307 1.175-.166 1.56m9.269-9.284c-11.271 0-20.408 9.188-20.408 20.524 0 11.334 9.137 20.521 20.408 20.521 11.27 0 20.407-9.187 20.407-20.521 0-11.336-9.137-20.524-20.407-20.524" transform="translate(1 1)"/>
        <path stroke="#404750" stroke-linecap="round" stroke-linejoin="round" stroke-width="2.779" d="M34.427 59.482V48.335c9.056-3.69 15.45-12.605 15.45-23.036C49.877 11.57 38.81.44 25.157.44 11.505.44.437 11.57.437 25.3c0 10.43 6.394 19.346 15.45 23.036v11.147" transform="translate(1 1)"/>
        <path stroke="#009FC7" stroke-linecap="round" stroke-linejoin="round" stroke-width="2.779" d="M15.887 67.001L34.427 67.001M18.977 73.216L31.337 73.216" transform="translate(1 1)"/>
        <path stroke="#404750" stroke-linecap="round" stroke-linejoin="round" stroke-width="2.779" d="M15.887 65.697L34.427 65.697M18.977 71.911L31.337 71.911M12.797 25.299L16.91 28.406 21.028 25.299 25.139 28.406 29.261 25.299 33.389 28.406 37.518 25.299M25.139 28.407L25.139 59.482" transform="translate(1 1)"/>
    </g>
</svg>

