<svg xmlns="http://www.w3.org/2000/svg" width="105" height="87" viewBox="0 0 105 87">
    <defs>
        <filter id="prefix__a" width="111.5%" height="132%" x="-5.7%" y="-16%" filterUnits="objectBoundingBox">
            <feOffset dy="4" in="SourceAlpha" result="shadowOffsetOuter1"/>
            <feGaussianBlur in="shadowOffsetOuter1" result="shadowBlurOuter1" stdDeviation="6"/>
            <feColorMatrix in="shadowBlurOuter1" result="shadowMatrixOuter1" values="0 0 0 0 0 0 0 0 0 0 0 0 0 0 0 0 0 0 0.15 0"/>
            <feMerge>
                <feMergeNode in="shadowMatrixOuter1"/>
                <feMergeNode in="SourceGraphic"/>
            </feMerge>
        </filter>
    </defs>
    <g fill="none" fill-rule="evenodd" filter="url(#prefix__a)" transform="translate(-11 -58)">
        <g>
            <path fill="#ECECEC" d="M37.838 20.27c0-5.758 4.663-10.426 10.414-10.426 5.753 0 10.415 4.668 10.415 10.425 0 5.758-4.662 10.427-10.415 10.427-5.751 0-10.414-4.669-10.414-10.427" transform="translate(22 66)"/>
            <path fill="#ECECEC" d="M4.697 49.63h33.151c5.567 0 10.097-4.543 10.097-10.128 0-1.892-2.181-6.272-2.181-6.272l-1.792-3.024-.26-.555c2.403 1.613 6.413.853 6.413.853 5.756 8.459 1.471 15.588 1.471 15.588-4.489 9.087-13.748 8.685-13.748 8.685H2.805c-1.322 0-1.287-.173-1.743-.689-.459-.515.282-1.328.282-1.328l3.353-3.13" transform="translate(22 66)"/>
            <path fill="#ECECEC" d="M22.773 54.778v5.702c0 1.256 1.028 2.286 2.303 2.286 1.254 0 2.284-1.03 2.284-2.286v-5.702h-4.587zM31.745 54.778v5.702c0 1.256 1.029 2.286 2.304 2.286 1.254 0 2.283-1.03 2.283-2.286v-5.702h-4.587zM59.058 20.742L66.122 27.372 56.279 27.372zM57.507 15.483L64.361 15.483 59.052 20.073z" transform="translate(22 66)"/>
            <path stroke="#404750" stroke-width="1.9" d="M50.125 30.504c1.872 2.533 2.96 5.642 2.96 8.997 0 8.442-6.827 15.276-15.237 15.276H2.125c-.637 0-1.172-.514-1.172-1.173 0-.33.144-.638.391-.845L28.346 27.56c.37-.309.761-.576 1.152-.843 2.407-1.566 5.265-2.472 8.35-2.472.267 0 .535 0 .802.041" transform="translate(22 66)"/>
            <path stroke="#404750" stroke-width="1.9" d="M37.838 20.27c0-5.758 4.663-10.426 10.414-10.426 5.753 0 10.415 4.668 10.415 10.425 0 5.758-4.662 10.427-10.415 10.427-5.751 0-10.414-4.669-10.414-10.427z" transform="translate(22 66)"/>
            <path stroke="#404750" stroke-width="1.9" d="M55.533 12.82h10.55c.247 0 .432.205.432.452 0 .124-.04.247-.144.33l-7.26 6.794 7.26 6.773c.103.082.144.185.144.33 0 .247-.185.453-.432.453H55.286" transform="translate(22 66)"/>
            <path fill="#FFF" d="M43.15 20.073c0-2.536 2.053-4.59 4.585-4.59s4.584 2.054 4.584 4.59c0 2.534-2.052 4.59-4.584 4.59-2.532 0-4.584-2.056-4.584-4.59" transform="translate(22 66)"/>
            <path stroke="#404750" stroke-width="1.9" d="M43.15 20.073c0-2.536 2.053-4.59 4.585-4.59s4.584 2.054 4.584 4.59c0 2.534-2.052 4.59-4.584 4.59-2.532 0-4.584-2.056-4.584-4.59zM47.735 15.483L47.735 24.663M22.773 54.778v5.702c0 1.256 1.028 2.286 2.303 2.286 1.254 0 2.284-1.03 2.284-2.286v-5.702h-4.587zM31.78 54.778v5.702c0 1.256 1.028 2.286 2.284 2.286 1.274 0 2.303-1.03 2.303-2.286v-5.702H31.78z" transform="translate(22 66)"/>
            <path stroke="#404750" stroke-linecap="round" stroke-linejoin="round" stroke-width="1.9" d="M66.122 8.163L69.239 0M71.601 8.799L73.584 6.414M76.271 3.357L77.263 2.165M73.55 13.735L81.669 8.163M66.122 32.944L69.239 41.106M71.601 32.307L73.584 34.693M76.271 37.75L77.263 38.943M73.55 27.372L81.669 32.944" transform="translate(22 66)"/>
        </g>
    </g>
</svg>
