<svg width="32" height="32" viewBox="0 0 32 32" xmlns="http://www.w3.org/2000/svg">
    <g fill="none" fill-rule="evenodd">
        <rect fill="#00AB84" width="32" height="32" rx="16"/>
        <path d="m18.767 19.63 1.501-1.501a.822.822 0 0 1 1.164 0l2.327 2.326a.822.822 0 0 1 0 1.163l-1.164 1.163A4.187 4.187 0 0 1 19.679 24c-1.41.01-2.649-.86-3.785-1.598a21.486 21.486 0 0 1-3.975-3.332c-1.32-1.41-2.579-3.102-3.464-4.824a4.19 4.19 0 0 1 .24-4.21c.152-.227.325-.439.52-.632l1.163-1.163a.822.822 0 0 1 1.164 0l2.327 2.326c.321.322.321.842 0 1.164l-1.502 1.5a.829.829 0 0 0-.103 1.052 21.506 21.506 0 0 0 5.451 5.449.828.828 0 0 0 1.052-.103z" fill="#FFF"/>
    </g>
</svg>
