<svg width="66" height="66" viewBox="0 0 66 66" xmlns="http://www.w3.org/2000/svg">
    <g stroke="#404750" stroke-width="2.402" fill="none" fill-rule="evenodd" stroke-linecap="round" stroke-linejoin="round">
        <path d="m18.148 47.804 29.606-29.518M28.914 23.653c0 2.965-2.41 5.367-5.383 5.367s-5.383-2.402-5.383-5.367 2.41-5.367 5.383-5.367 5.383 2.402 5.383 5.367zM47.754 42.437c0 2.964-2.41 5.367-5.383 5.367-2.972 0-5.383-2.403-5.383-5.367s2.41-5.366 5.383-5.366 5.383 2.402 5.383 5.366z"/>
        <path d="M63.902 33.045c0 17.044-13.858 30.86-30.95 30.86C15.856 63.904 2 50.088 2 33.044c0-17.043 13.857-30.86 30.951-30.86 17.093 0 30.951 13.817 30.951 30.86z"/>
    </g>
</svg>
