<svg xmlns="http://www.w3.org/2000/svg" width="16" height="16" viewBox="0 0 16 16">
    <g fill="none" fill-rule="evenodd">
        <g fill="#048767">
            <g>
                <g>
                    <path d="M8 0c1.144 0 2.249.237 3.283.703.43.194.622.7.428 1.129-.194.43-.7.622-1.129.428C9.769 1.894 8.9 1.708 8 1.708 4.53 1.708 1.708 4.53 1.708 8c0 3.47 2.822 6.292 6.292 6.292 3.47 0 6.292-2.822 6.292-6.292 0-.192-.008-.383-.025-.57-.042-.47.304-.885.774-.927.475-.034.884.305.927.774.021.238.032.48.032.723 0 4.412-3.589 8-8 8s-8-3.588-8-8c0-4.41 3.589-8 8-8zm6.913 1.913c.368.294.428.832.134 1.2l-6.38 7.994c-.15.188-.372.303-.61.32H8c-.22 0-.432-.084-.592-.237l-3.55-3.411c-.34-.327-.35-.867-.024-1.208.327-.34.868-.35 1.207-.024L7.917 9.31l5.795-7.262c.295-.368.832-.429 1.2-.135z" transform="translate(-640.000000, -420.000000) translate(0.000000, 68.000000) translate(640.000000, 352.000000)"/>
                </g>
            </g>
        </g>
    </g>
</svg>
