<svg width="62" height="63" viewBox="0 0 62 63" xmlns="http://www.w3.org/2000/svg" xmlns:xlink="http://www.w3.org/1999/xlink">
    <defs>
        <path id="3qdbfc3y5a" d="M0 .005h61.718V61H0z"/>
    </defs>
    <g fill="none" fill-rule="evenodd">
        <path fill="#1B6C92" d="M2.27 9.68h36.083V7.434H2.27zM8.92 27.037h36.083V24.79H8.92zM8.92 35.758h36.083v-2.246H8.92zM8.92 44.478h36.083v-2.246H8.92zM8.92 53.199h36.083v-2.246H8.92zM16.494 18.358h36.083v-2.246H16.494z"/>
        <path d="M60.128 41.372c0 10.442-8.465 18.908-18.908 18.908-10.443 0-18.908-8.466-18.908-18.908 0-10.442 8.465-18.908 18.908-18.908 10.443 0 18.908 8.466 18.908 18.908" fill="#1B6C92"/>
        <path d="M41.22 40.22c-1.462 0-2.652-1.03-2.652-2.296 0-1.266 1.19-2.296 2.652-2.296 1.462 0 2.652 1.03 2.652 2.296a1.205 1.205 0 0 0 2.41 0c0-2.209-1.645-4.066-3.857-4.57v-.627a1.205 1.205 0 1 0-2.41 0v.627c-2.212.504-3.858 2.361-3.858 4.57 0 2.595 2.271 4.706 5.063 4.706 1.462 0 2.652 1.03 2.652 2.295 0 1.266-1.19 2.296-2.652 2.296-1.462 0-2.652-1.03-2.652-2.296a1.206 1.206 0 0 0-2.41 0c0 2.21 1.645 4.066 3.856 4.57v.522a1.206 1.206 0 0 0 2.411 0v-.522c2.212-.504 3.857-2.36 3.857-4.57 0-2.595-2.27-4.706-5.062-4.706M54.423 33.05a15.707 15.707 0 0 0-6.416-5.679 1.204 1.204 0 1 0-1.044 2.173c4.57 2.196 7.522 6.891 7.522 11.958 0 2.168-.534 4.318-1.545 6.22a1.206 1.206 0 0 0 2.129 1.132 15.716 15.716 0 0 0 1.827-7.352c0-3.009-.855-5.932-2.473-8.453M43.115 25.832h-.081a1.206 1.206 0 0 0 0 2.41H43.11a1.205 1.205 0 0 0 .005-2.41M35.489 53.46c-4.57-2.196-7.522-6.89-7.522-11.957 0-2.168.534-4.318 1.545-6.22a1.207 1.207 0 0 0-2.128-1.132 15.706 15.706 0 0 0-1.83 7.352c0 3.009.857 5.932 2.475 8.453a15.707 15.707 0 0 0 6.416 5.678 1.205 1.205 0 0 0 1.044-2.173M39.417 54.762h-.069a1.204 1.204 0 1 0-.012 2.41l.081.001a1.206 1.206 0 0 0 0-2.41" fill="#FFF"/>
        <g transform="translate(0 .995)">
            <mask id="5u7z35a2db" fill="#fff">
                <use xlink:href="#3qdbfc3y5a"/>
            </mask>
            <path d="M41.226 58.589c-9.97 0-18.081-8.111-18.081-18.081 0-9.97 8.11-18.081 18.08-18.081 9.97 0 18.083 8.11 18.083 18.08 0 9.97-8.112 18.082-18.082 18.082zm-29.171-6.51a3.139 3.139 0 0 1-3.135-3.134 3.138 3.138 0 0 1 3.135-3.133h9.376a20.432 20.432 0 0 0 2.892 6.268H12.055zm0-14.946h8.959a20.414 20.414 0 0 0-.075 6.268h-8.884a3.139 3.139 0 0 1-3.135-3.134 3.138 3.138 0 0 1 3.135-3.134zm0-8.68h12.61a20.45 20.45 0 0 0-3.098 6.269h-9.512a3.139 3.139 0 0 1-3.135-3.134 3.14 3.14 0 0 1 3.135-3.135zm0-8.678h29.533c.485 0 .95.112 1.367.314a20.589 20.589 0 0 0-1.73-.073c-5.658 0-10.788 2.305-14.5 6.026h-14.67a3.138 3.138 0 0 1-3.135-3.134 3.138 3.138 0 0 1 3.135-3.133zm-6.51-11.09A3.139 3.139 0 0 1 2.41 5.55a3.138 3.138 0 0 1 3.134-3.134h29.534a3.137 3.137 0 0 1 3.133 3.134 3.138 3.138 0 0 1-3.133 3.135H5.545zm43.757 2.41a3.137 3.137 0 0 1 3.134 3.135 3.137 3.137 0 0 1-3.134 3.133H19.768a3.137 3.137 0 0 1-3.133-3.133 3.138 3.138 0 0 1 3.134-3.135h29.533zM46.7 20.759a5.523 5.523 0 0 0-.536-.984h3.138a5.552 5.552 0 0 0 5.546-5.545 5.552 5.552 0 0 0-5.546-5.545h-9.653a5.514 5.514 0 0 0 .974-3.135A5.551 5.551 0 0 0 35.079.005H5.545A5.552 5.552 0 0 0 0 5.55a5.551 5.551 0 0 0 5.545 5.545h9.654a5.511 5.511 0 0 0-.974 3.135 5.5 5.5 0 0 0 .974 3.133h-3.144a5.551 5.551 0 0 0-5.545 5.545c0 1.756.82 3.324 2.099 4.34a5.535 5.535 0 0 0 0 8.679 5.535 5.535 0 0 0 0 8.68 5.533 5.533 0 0 0-2.1 4.338 5.55 5.55 0 0 0 5.546 5.545H26.26C30.003 58.493 35.327 61 41.226 61c11.3 0 20.492-9.192 20.492-20.492 0-9.404-6.368-17.35-15.018-19.75z" fill="#404750" mask="url(#5u7z35a2db)"/>
        </g>
    </g>
</svg>
