<svg xmlns="http://www.w3.org/2000/svg" width="70" height="58" viewBox="0 0 70 58">
    <g fill="none" fill-rule="evenodd">
        <g>
            <g>
                <g>
                    <g>
                        <path fill="#ECECEC" d="M34.4 55.906L38.098 55.906 38.098 45.538 34.4 45.538zM21.768 44.928L66.242 44.928 66.242 1.214 45.001 1.214z" transform="translate(-337 -1477) translate(0 1243) translate(235 234) translate(103)"/>
                        <g>
                            <path stroke="#404750" stroke-linecap="round" stroke-linejoin="round" stroke-width="2.427" d="M66.241 44.13H1.214c-.553 0-1-.448-1-1V1.416c0-.553.447-1 1-1h65.027c.553 0 1 .447 1 1V43.13c0 .552-.447 1-1 1zM29.357 44.13L29.357 55.786M38.099 44.13L38.099 55.786M23.527 55.786L43.927 55.786M.214 35.387L67.241 35.387" transform="translate(-337 -1477) translate(0 1243) translate(235 234) translate(103) translate(0 .798)"/>
                            <path fill="#404750" d="M40.734 17.734c-.08-.339-.33-.612-.66-.722l-4.93-1.643 3.501-7.002c.22-.44.088-.977-.31-1.265-.403-.288-.952-.245-1.299.105L26.988 17.255c-.246.246-.348.602-.268.941.08.34.33.612.66.722l4.93 1.643-3.5 7.002c-.22.441-.09.977.31 1.265.4.287.95.245 1.3-.105l10.046-10.048c.247-.246.347-.602.268-.94" transform="translate(-337 -1477) translate(0 1243) translate(235 234) translate(103) translate(0 .798)"/>
                        </g>
                    </g>
                </g>
            </g>
        </g>
    </g>
</svg>
