<svg width="65" height="71" viewBox="0 0 65 71" xmlns="http://www.w3.org/2000/svg">
    <g fill="none" fill-rule="evenodd">
        <path d="M48.088 58.228H3.478A2.484 2.484 0 0 1 1 55.738V3.489A2.484 2.484 0 0 1 3.479 1h44.609a2.484 2.484 0 0 1 2.479 2.489v52.25a2.484 2.484 0 0 1-2.48 2.489zM8.435 28.37h9.913M13.392 23.393v9.953M8.435 43.299l9.913 9.952M18.348 43.299l-9.913 9.952M33.218 28.37h9.913M33.218 50.763h9.913M33.218 45.787h9.913M1 38.322h49.566M25.783 58.228V18.416M1 18.417h49.566" stroke="#404750" stroke-width="1.901" stroke-linecap="round" stroke-linejoin="round"/>
        <path d="M63.23 57.568c0 6.747-5.448 12.216-12.168 12.216-6.72 0-12.168-5.47-12.168-12.216 0-6.746 5.448-12.216 12.168-12.216 6.72 0 12.167 5.47 12.167 12.216" fill="#FFF"/>
        <path d="M54.883 52.858a3.468 3.468 0 0 0-.64-1.08 3.001 3.001 0 0 0-.945-.729 2.645 2.645 0 0 0-1.155-.267H49.98c-.409 0-.8.096-1.155.267a3.008 3.008 0 0 0-.945.73c-.27.307-.489.673-.64 1.079-.15.405-.235.85-.235 1.317 0 .467.084.913.235 1.318.151.405.37.771.64 1.078.269.308.59.557.945.73.356.172.746.268 1.155.268h2.162c.41 0 .8.095 1.156.267.356.173.677.422.946.73.27.306.488.672.64 1.078.15.406.234.851.234 1.318 0 .466-.084.912-.235 1.317-.15.405-.37.771-.64 1.079-.268.308-.59.557-.945.73a2.632 2.632 0 0 1-1.155.267H49.98c-.409 0-.8-.095-1.155-.268a3.008 3.008 0 0 1-.945-.729 3.468 3.468 0 0 1-.64-1.08M51.062 49.424v16.288" stroke="#404750" stroke-width="1.901" stroke-linecap="round" stroke-linejoin="round"/>
        <path d="M63.23 57.568c0 6.747-5.448 12.216-12.168 12.216-6.72 0-12.168-5.47-12.168-12.216 0-6.746 5.448-12.216 12.168-12.216 6.72 0 12.167 5.47 12.167 12.216z" stroke="#404750" stroke-width="1.901" stroke-linecap="round" stroke-linejoin="round"/>
    </g>
</svg>
