<svg xmlns="http://www.w3.org/2000/svg" xmlns:xlink="http://www.w3.org/1999/xlink" width="73" height="68" viewBox="0 0 73 68">
    <defs>
        <path id="a" d="M0 .545h72.526v50.843H0z"/>
    </defs>
    <g fill="none" fill-rule="evenodd">
        <path fill="#404750" d="M30.339 64.77c-1.822 0-3.303-1.471-3.303-3.279 0-1.808 1.481-3.279 3.303-3.279 1.821 0 3.302 1.471 3.302 3.28 0 1.807-1.481 3.278-3.302 3.278m0-9.242c-3.313 0-6.008 2.675-6.008 5.963 0 3.29 2.695 5.965 6.008 5.965 3.312 0 6.006-2.676 6.006-5.965 0-3.288-2.694-5.963-6.006-5.963M52.99 64.77c-1.822 0-3.303-1.471-3.303-3.279 0-1.808 1.48-3.279 3.302-3.279s3.303 1.471 3.303 3.28c0 1.807-1.481 3.278-3.303 3.278m0-9.242c-3.312 0-6.007 2.675-6.007 5.963 0 3.29 2.695 5.965 6.007 5.965 3.313 0 6.008-2.676 6.008-5.965-.001-3.288-2.696-5.963-6.008-5.963M28.744 24.458H54.58c.745 0 1.351-.602 1.351-1.342 0-.74-.606-1.343-1.351-1.343H28.744c-.746 0-1.353.602-1.353 1.343 0 .74.607 1.342 1.353 1.342M53.173 31.068H30.15c-.746 0-1.353.603-1.353 1.343s.607 1.342 1.353 1.342h23.023c.745 0 1.352-.602 1.352-1.342 0-.74-.607-1.343-1.352-1.343"/>
        <g transform="translate(0 .35)">
            <mask id="b" fill="#fff">
                <use xlink:href="#a"/>
            </mask>
            <path fill="#404750" d="M64.695 40.01H18.633l-5.228-25.194h56.518L64.695 40.01zm7.12-26.726a3.15 3.15 0 0 0-2.446-1.153H12.847l-1.208-5.823a3.144 3.144 0 0 0-1.834-2.242L1.891.657A1.343 1.343 0 0 0 .857.64a1.339 1.339 0 0 0-.043 2.48l8.129 3.503.045.227 8.724 42.04a3.162 3.162 0 0 0 3.09 2.5h43.192c.746 0 1.352-.603 1.352-1.343s-.606-1.343-1.352-1.343H20.436l-1.246-6.008h45.138a3.16 3.16 0 0 0 3.09-2.5l5.043-24.3a3.102 3.102 0 0 0-.646-2.61v-.001z" mask="url(#b)"/>
        </g>
    </g>
</svg>
