<svg xmlns="http://www.w3.org/2000/svg" xmlns:xlink="http://www.w3.org/1999/xlink" width="72" height="72" viewBox="0 0 72 72">
    <defs>
        <path id="a" d="M0 .412h71.592v71.615H0z"/>
    </defs>
    <g fill="none" fill-rule="evenodd">
        <g transform="translate(0 -.438)">
            <mask id="b" fill="#fff">
                <use xlink:href="#a"/>
            </mask>
            <path fill="#404750" d="M67.583 32.072L31.649 68.019a3.487 3.487 0 0 1-2.48 1.023h-.012a3.486 3.486 0 0 1-2.48-1.023L7.857 49.192l34.51-34.522a1.49 1.49 0 1 0-2.11-2.11L5.749 47.082 4.007 45.34a3.49 3.49 0 0 1-1.025-2.487c0-.944.364-1.827 1.025-2.488L39.94 4.42a3.492 3.492 0 0 1 2.485-1.024c.943 0 1.826.364 2.486 1.024l8.07 8.072-34.51 34.523a1.493 1.493 0 0 0 1.055 2.546c.381 0 .763-.146 1.053-.437l34.51-34.522 12.493 12.497a3.522 3.522 0 0 1 0 4.974m2.11-7.084L47.021 2.31A6.451 6.451 0 0 0 42.426.412c-1.74 0-3.37.673-4.595 1.897L1.897 38.256A6.454 6.454 0 0 0 0 42.853c0 1.74.673 3.373 1.897 4.597l2.796 2.797s0 .002.002.002l18.787 18.793H20.88a1.492 1.492 0 0 0 0 2.985h29.828a1.491 1.491 0 0 0 0-2.984l-15.865-.001 34.848-34.86a6.513 6.513 0 0 0 0-9.194" mask="url(#b)"/>
        </g>
        <path fill="#404750" d="M36.747 43.064a1.49 1.49 0 0 0-2.11 0L22.901 54.805a1.49 1.49 0 1 0 2.109 2.11l11.737-11.741a1.492 1.492 0 0 0 0-2.11M31.933 54.21l-4.813 4.815a1.492 1.492 0 0 0 2.11 2.11l4.813-4.815a1.492 1.492 0 0 0-2.11-2.11M36.363 49.778l-.632.633a1.492 1.492 0 0 0 2.109 2.11l.631-.633a1.491 1.491 0 1 0-2.108-2.11M53.757 32.378l-2.11-2.11 4.22-4.22 2.108 2.11-4.218 4.22zm3.164-9.495a1.495 1.495 0 0 0-2.11 0l-6.328 6.33a1.493 1.493 0 0 0 0 2.11l4.22 4.22a1.488 1.488 0 0 0 2.11 0l6.326-6.33a1.492 1.492 0 0 0 0-2.11l-4.218-4.22zM44.793 11.188c.382 0 .763-.145 1.055-.437l.632-.634a1.493 1.493 0 0 0-2.11-2.109l-.633.634a1.493 1.493 0 0 0 1.056 2.546M14.992 50.057l-.633.632a1.492 1.492 0 0 0 2.11 2.11l.632-.632a1.492 1.492 0 0 0-2.11-2.11"/>
    </g>
</svg>
