<svg xmlns="http://www.w3.org/2000/svg" width="32" height="32" viewBox="0 0 32 32">
    <g fill="none" fill-rule="evenodd">
        <g>
            <g>
                <g>
                    <g transform="translate(-33.000000, -801.000000) translate(1.000000, 745.000000) translate(24.000000, 48.000000) translate(8.000000, 8.000000)">
                        <rect width="32" height="32" fill="#00AB84" rx="16"/>
                        <path fill="#FFF" d="M18.767 19.63l1.501-1.501c.322-.322.842-.322 1.164 0l2.327 2.326c.321.321.321.842 0 1.163l-1.164 1.163c-.77.77-1.828 1.212-2.916 1.219-1.41.01-2.649-.86-3.785-1.598-1.453-.944-2.791-2.066-3.975-3.332-1.32-1.41-2.579-3.102-3.464-4.824-.684-1.328-.59-2.966.24-4.21.152-.227.325-.439.52-.632l1.163-1.163c.32-.321.842-.321 1.164 0l2.327 2.326c.321.322.321.842 0 1.164l-1.502 1.5c-.28.28-.328.727-.103 1.052 1.48 2.135 3.316 3.97 5.451 5.449.326.226.771.178 1.052-.103z"/>
                    </g>
                </g>
            </g>
        </g>
    </g>
</svg>
