<svg xmlns="http://www.w3.org/2000/svg" width="12" height="12" viewBox="0 0 12 12">
    <g fill="none" fill-rule="evenodd">
        <g fill="#707478">
            <g>
                <path d="M727.309 8.69c-.386-.386-1.012-.386-1.398 0l-3.914 3.914-3.916-3.915c-.386-.385-1.01-.385-1.396 0-.386.386-.386 1.012 0 1.397L720.599 14l-3.914 3.913c-.386.386-.386 1.012 0 1.397.192.193.444.29.698.29.253 0 .506-.097.698-.29l3.916-3.914 3.914 3.914c.194.193.446.29.7.29.253 0 .506-.097.698-.29.386-.385.386-1.011 0-1.397L723.393 14l3.916-3.914c.386-.385.386-1.01 0-1.397" transform="translate(-948.000000, -255.000000) translate(232.000000, 247.000000)"/>
            </g>
        </g>
    </g>
</svg>
