<svg width="58" height="50" viewBox="0 0 58 50" xmlns="http://www.w3.org/2000/svg" xmlns:xlink="http://www.w3.org/1999/xlink">
    <defs>
        <path id="273iqfycoa" d="M0 .71h49.857v28.427H0z"/>
    </defs>
    <g fill="none" fill-rule="evenodd">
        <path d="M26.896 23.196h-.301c-.444 0-.878-.1-1.29-.3-.417-.201-.794-.49-1.121-.864a4.306 4.306 0 0 1-.798-1.345 4.806 4.806 0 0 1-.302-1.69c0-.585.102-1.153.302-1.689.19-.506.458-.96.799-1.347a3.543 3.543 0 0 1 1.12-.862c.412-.199.846-.3 1.29-.3h.301v8.397zm3.368 3.068c.446 0 .88.1 1.292.3.415.2.791.49 1.12.863.339.386.608.839.797 1.345.2.536.302 1.104.302 1.69 0 .585-.102 1.154-.302 1.689-.189.507-.458.96-.799 1.347a3.543 3.543 0 0 1-1.12.863c-.412.198-.846.3-1.29.3h-.3v-8.397h.3zM28.43 9.439c-.847 0-1.534.686-1.534 1.534v.759h-.301c-.91 0-1.793.203-2.623.605-.788.38-1.491.918-2.09 1.6a7.344 7.344 0 0 0-1.369 2.298 7.857 7.857 0 0 0-.496 2.762c0 .954.168 1.883.496 2.763.321.858.781 1.632 1.368 2.298.598.681 1.3 1.22 2.09 1.6a5.989 5.989 0 0 0 2.624.606h.301v8.396h-.301c-.444 0-.878-.1-1.292-.3-.415-.2-.79-.49-1.119-.863a4.318 4.318 0 0 1-.798-1.346 1.532 1.532 0 1 0-2.872 1.073c.32.858.78 1.632 1.367 2.298.6.683 1.303 1.22 2.09 1.6a5.978 5.978 0 0 0 2.624.605h.301v.76a1.534 1.534 0 0 0 3.067 0v-.76h.301c.91 0 1.793-.203 2.624-.605a6.576 6.576 0 0 0 2.089-1.599 7.344 7.344 0 0 0 1.369-2.299c.329-.88.496-1.809.496-2.762 0-.954-.167-1.883-.496-2.763a7.344 7.344 0 0 0-1.368-2.298 6.576 6.576 0 0 0-2.089-1.6 5.991 5.991 0 0 0-2.625-.605h-.3V14.8h.3c.444 0 .878.101 1.292.3.415.2.791.49 1.12.863.339.386.608.84.797 1.346a1.532 1.532 0 1 0 2.872-1.073 7.344 7.344 0 0 0-1.367-2.298 6.576 6.576 0 0 0-2.089-1.6 5.978 5.978 0 0 0-2.625-.605h-.3v-.76c0-.847-.688-1.533-1.534-1.533z" stroke="#FFF" stroke-width=".5" fill="#333940"/>
        <path d="M56.233 20.294a1.534 1.534 0 0 0-2.144.329l-1.975 2.69C51.378 10.886 41.038 1 28.429 1 19.35 1 11.201 6.055 7.162 14.193a1.533 1.533 0 1 0 2.747 1.362C13.427 8.47 20.523 4.067 28.429 4.067c10.865 0 19.793 8.431 20.599 19.094l-1.865-2.538a1.533 1.533 0 1 0-2.473 1.815l4.7 6.399a1.535 1.535 0 0 0 2.473 0l4.699-6.399c.5-.682.354-1.642-.329-2.144" stroke="#FFF" stroke-width=".5" fill="#333940"/>
        <g transform="translate(0 19.322)">
            <mask id="cln9a9yrsb" fill="#fff">
                <use xlink:href="#273iqfycoa"/>
            </mask>
            <path d="M49.005 13.89a1.532 1.532 0 0 0-2.055.69c-3.518 7.088-10.614 11.49-18.52 11.49-10.866 0-19.792-8.431-20.597-19.094l1.863 2.538a1.532 1.532 0 0 0 2.144.33c.683-.503.83-1.463.329-2.145l-4.7-6.398c-.578-.788-1.894-.788-2.473 0L.298 7.699A1.534 1.534 0 0 0 2.77 9.514l1.976-2.69C5.48 19.251 15.822 29.137 28.43 29.137c9.08 0 17.229-5.055 21.267-13.193.377-.759.067-1.679-.692-2.055" stroke="#FFF" stroke-width=".5" fill="#333940" mask="url(#cln9a9yrsb)"/>
        </g>
    </g>
</svg>
