<svg xmlns="http://www.w3.org/2000/svg" xmlns:xlink="http://www.w3.org/1999/xlink" width="73" height="76" viewBox="0 0 73 76">
    <defs>
        <path id="p2i3dwxd3a" d="M0 75.66L72.488 75.66 72.488 0 0 0z"/>
    </defs>
    <g fill="none" fill-rule="evenodd">
        <g>
            <g>
                <g>
                    <g transform="translate(-1030 -1459) translate(0 1243) translate(929 216) translate(101)">
                        <path fill="#ECECEC" d="M40.458 5.559c0 1.413-1.146 2.56-2.56 2.56-1.413 0-2.56-1.147-2.56-2.56 0-1.414 1.147-2.56 2.56-2.56 1.414 0 2.56 1.146 2.56 2.56"/>
                        <mask id="z7qdyr1vyb" fill="#fff">
                            <use xlink:href="#p2i3dwxd3a"/>
                        </mask>
                        <path fill="#ECECEC" d="M36.935 42.588L63.247 42.588 63.247 39.604 36.935 39.604zM21.104 74.314L51.231 74.314 51.231 71.329 21.104 71.329z" mask="url(#z7qdyr1vyb)"/>
                        <path stroke="#404750" stroke-linecap="round" stroke-linejoin="round" stroke-width="2.693" d="M39.416 4.519c0 1.753-1.42 3.173-3.172 3.173-1.753 0-3.173-1.42-3.173-3.173 0-1.752 1.42-3.172 3.173-3.172 1.752 0 3.172 1.42 3.172 3.172zM36.244 7.691L36.244 67.968M52.106 74.314H20.381c0-3.504 2.841-6.345 6.345-6.345h19.035c3.505 0 6.345 2.84 6.345 6.346z" mask="url(#z7qdyr1vyb)"/>
                        <path fill="#ECECEC" d="M36.244 33.071L18.795 33.071 10.864 33.071 1.346 23.553 10.864 14.036 18.795 14.036 36.244 14.036 36.244 23.553z" mask="url(#z7qdyr1vyb)"/>
                        <path stroke="#404750" stroke-linecap="round" stroke-linejoin="round" stroke-width="2.693" d="M36.244 33.071L18.795 33.071 10.864 33.071 1.346 23.553 10.864 14.036 18.795 14.036 36.244 14.036 36.244 23.553zM61.624 42.589L53.693 42.589 36.244 42.589 36.244 33.071 36.244 23.554 53.693 23.554 61.624 23.554 71.142 33.071zM14.037 20.382L29.899 20.382M42.589 29.898L58.452 29.898M42.589 36.244L58.452 36.244" mask="url(#z7qdyr1vyb)"/>
                    </g>
                </g>
            </g>
        </g>
    </g>
</svg>
