<svg xmlns="http://www.w3.org/2000/svg" xmlns:xlink="http://www.w3.org/1999/xlink" width="61" height="68" viewBox="0 0 61 68">
    <defs>
        <path id="5e4hbog54a" d="M0 0L35.889 0 35.889 35.18 0 35.18z"/>
    </defs>
    <g fill="none" fill-rule="evenodd">
        <g>
            <g>
                <path fill="#404750" d="M20.12 62.538H1.2c-.662 0-1.2-.526-1.2-1.176V1.178C0 .528.538.002 1.2.002h30.698c.32 0 .624.123.848.344l13.955 13.68c.224.22.352.518.352.83v18.58c0 .65-.538 1.176-1.2 1.176-.663 0-1.2-.526-1.2-1.176V15.344L31.4 2.354H2.4v57.831h17.72c.663 0 1.2.526 1.2 1.177 0 .65-.537 1.176-1.2 1.176" transform="translate(-231.000000, -943.000000) translate(231.000000, 943.000000)"/>
                <path fill="#404750" d="M33.099 13.68h9.856L33.1 4.017v9.663zm12.753 2.353H31.899c-.663 0-1.2-.526-1.2-1.176V1.177c0-.474.292-.904.74-1.086.448-.185.964-.082 1.308.255L46.7 14.025c.345.336.447.842.26 1.282-.185.44-.622.726-1.108.726zM23.526 47.105H9.573c-.664 0-1.2-.526-1.2-1.176 0-.65.536-1.176 1.2-1.176h13.953c.663 0 1.2.525 1.2 1.176 0 .65-.537 1.176-1.2 1.176M37.306 38.898H9.573c-.664 0-1.2-.526-1.2-1.177 0-.65.536-1.176 1.2-1.176h27.733c.662 0 1.2.526 1.2 1.176 0 .65-.538 1.177-1.2 1.177M37.48 30.691H9.572c-.662 0-1.2-.525-1.2-1.176 0-.65.538-1.176 1.2-1.176H37.48c.663 0 1.2.526 1.2 1.176 0 .65-.537 1.176-1.2 1.176M37.48 22.484H9.572c-.662 0-1.2-.526-1.2-1.176 0-.65.538-1.177 1.2-1.177H37.48c.663 0 1.2.526 1.2 1.177 0 .65-.537 1.176-1.2 1.176M55.614 44.747c-.307 0-.614-.115-.848-.345l-5.581-5.47c-.47-.46-.47-1.205 0-1.664.468-.46 1.227-.46 1.696 0l5.581 5.471c.47.46.47 1.203 0 1.663-.234.23-.54.345-.848.345" transform="translate(-231.000000, -943.000000) translate(231.000000, 943.000000)"/>
                <g transform="translate(-231.000000, -943.000000) translate(231.000000, 943.000000) translate(25.110560, 32.819909)">
                    <mask id="c5dqclaymb" fill="#fff">
                        <use xlink:href="#5e4hbog54a"/>
                    </mask>
                    <path fill="#404750" d="M2.4 32.828h3.884l26.708-26.18-3.884-3.808L2.4 29.02v3.808zm4.381 2.352H1.2c-.662 0-1.2-.526-1.2-1.176v-5.471c0-.313.126-.612.352-.832L28.26.345c.468-.46 1.227-.46 1.696 0l5.582 5.47c.469.46.469 1.205 0 1.664L7.63 34.835c-.225.222-.53.345-.849.345z" mask="url(#c5dqclaymb)"/>
                </g>
            </g>
        </g>
    </g>
</svg>
