<svg width="35.023" height="28.844" viewBox="0 0 35.023 28.844" xmlns="http://www.w3.org/2000/svg">
    <g fill="#009FC7" fill-rule="nonzero">
        <path d="M34.196 5.923H13.399c-.445 0-.827-.462-.827-1 0-.539.382-1 .827-1h20.797c.445 0 .827.461.827 1 0 .538-.382 1-.827 1zM4.43 5.923H.9c-.485 0-.9-.462-.9-1 0-.539.415-1 .9-1h3.53c.484 0 .9.461.9 1 0 .538-.347 1-.9 1zM34.293 15.384h-4.827c-.393 0-.73-.462-.73-1 0-.539.337-1 .73-1h4.827c.393 0 .73.461.73 1 0 .538-.337 1-.73 1zM21.11 15.384H.9c-.485 0-.9-.462-.9-1 0-.539.415-1 .9-1h20.21c.485 0 .9.461.9 1 0 .538-.415 1-.9 1zM34.196 24.922H13.399c-.445 0-.827-.462-.827-1 0-.539.382-1 .827-1h20.797c.445 0 .827.461.827 1 0 .538-.382 1-.827 1zM4.43 24.922H.9c-.485 0-.9-.462-.9-1 0-.616.415-1.077.9-1.077h3.53c.484 0 .9.461.9 1 .069.615-.347 1.077-.9 1.077z"/>
        <path d="M8.98 9.846c-2.733 0-4.997-2.231-4.997-4.923S6.247 0 8.98 0s4.998 2.23 4.998 4.923c0 2.692-2.186 4.923-4.998 4.923zM8.98 2C7.34 2 6.013 3.308 6.013 4.923S7.34 7.846 8.98 7.846c1.64 0 2.968-1.308 2.968-2.923S10.62 2 8.98 2zM25.105 19.306c-2.733 0-4.997-2.23-4.997-4.922 0-2.693 2.264-4.923 4.997-4.923s4.998 2.23 4.998 4.923c0 2.692-2.186 4.922-4.998 4.922zm0-7.845c-1.64 0-2.967 1.307-2.967 2.923 0 1.615 1.327 2.923 2.967 2.923 1.64 0 2.968-1.308 2.968-2.923 0-1.616-1.328-2.923-2.968-2.923zM8.98 28.844c-2.733 0-4.997-2.23-4.997-4.922 0-2.77 2.264-4.923 4.997-4.923s4.998 2.23 4.998 4.923c.078 2.692-2.186 4.922-4.998 4.922zm0-7.845c-1.64 0-2.967 1.307-2.967 2.923 0 1.615 1.327 2.923 2.967 2.923 1.64 0 2.968-1.308 2.968-2.923 0-1.616-1.328-2.923-2.968-2.923z"/>
    </g>
</svg>
