<svg xmlns="http://www.w3.org/2000/svg" width="66" height="66" viewBox="0 0 66 66">
    <g fill="none" fill-rule="evenodd" stroke="#404750" stroke-linecap="round" stroke-linejoin="round" stroke-width="2.704">
        <path d="M64 33c0 17.121-13.88 31-31 31C15.88 64 2 50.12 2 33 2 15.88 15.88 2 33 2c17.12 0 31 13.88 31 31zM18.174 45.13h29.652"/>
        <path d="M24.169 26.26a4.043 4.043 0 1 1-8.087.001 4.043 4.043 0 0 1 8.087 0zM16.607 15.995h7.037M49.918 26.26a4.043 4.043 0 1 1-8.087 0h8.087zM42.356 21.72h7.039"/>
    </g>
</svg>
