<svg width="68" height="69" viewBox="0 0 68 69" xmlns="http://www.w3.org/2000/svg" xmlns:xlink="http://www.w3.org/1999/xlink">
    <defs>
        <path id="md9evcnt2a" d="M0 .415h67.792v61.392H0z"/>
        <path id="qs0wyprsjc" d="M.642.271H31.15V50H.642z"/>
    </defs>
    <g fill="none" fill-rule="evenodd">
        <g transform="translate(0 .585)">
            <mask id="8dyjp0jo6b" fill="#fff">
                <use xlink:href="#md9evcnt2a"/>
            </mask>
            <path d="M33.896.415.474 25.596a1.195 1.195 0 0 0-.234 1.67 1.188 1.188 0 0 0 1.617.26l1.56-1.059v34.152a1.19 1.19 0 0 0 1.189 1.188h9.373v-2.376H5.794V24.572L33.896 3.399l28.1 21.171v34.861h-8.184v2.376h9.373a1.19 1.19 0 0 0 1.188-1.188V26.466l1.562 1.062a1.196 1.196 0 0 0 1.618-.263 1.193 1.193 0 0 0-.234-1.669L33.896.415z" fill="#404750" mask="url(#8dyjp0jo6b)"/>
        </g>
        <g transform="translate(18 18.585)">
            <mask id="dely7qtqed" fill="#fff">
                <use xlink:href="#qs0wyprsjc"/>
            </mask>
            <path d="M28.746 45.41a2.19 2.19 0 0 1-2.188 2.188H5.231a2.19 2.19 0 0 1-2.187-2.188V24.512a2.19 2.19 0 0 1 2.187-2.187h21.327c.588.01 1.116.21 1.545.637.415.415.643.965.643 1.55V45.41zM8.512 10.058c0-4.07 3.311-7.384 7.382-7.384 4.072 0 7.384 3.313 7.384 7.384v9.864H8.512v-9.864zm18.721 9.921-1.55-.23v-9.69C25.682 4.66 21.29.27 15.893.27c-5.396 0-9.786 4.39-9.786 9.786v9.692l-1.55.23c-2.233.33-3.916 2.28-3.916 4.533V45.41A4.594 4.594 0 0 0 5.232 50h21.326a4.595 4.595 0 0 0 4.591-4.59V24.512c0-2.254-1.683-4.203-3.916-4.533z" fill="#404750" mask="url(#dely7qtqed)"/>
        </g>
        <path d="M33.896 47.747a2.815 2.815 0 0 0-2.813 2.812c0 .959.483 1.842 1.29 2.363l.459.296v5.068a1.06 1.06 0 0 0 2.12 0v-5.064l.46-.296a2.805 2.805 0 0 0 1.296-2.367 2.815 2.815 0 0 0-2.812-2.812" fill="#404750"/>
    </g>
</svg>
