<svg width="53" height="46" viewBox="0 0 53 46" xmlns="http://www.w3.org/2000/svg">
    <g fill="none" fill-rule="evenodd">
        <path d="M35.813 5.52a5.583 5.583 0 0 0-1.04-1.734 4.893 4.893 0 0 0-1.541-1.173 4.336 4.336 0 0 0-1.881-.43h-3.524c-.665 0-1.301.153-1.88.43a4.903 4.903 0 0 0-1.541 1.173 5.583 5.583 0 0 0-1.041 1.734 6.011 6.011 0 0 0-.383 2.12c0 .75.137 1.465.383 2.117a5.577 5.577 0 0 0 1.04 1.736 4.9 4.9 0 0 0 1.541 1.172c.58.277 1.216.43 1.881.43H31.35c.667 0 1.303.154 1.882.43.58.278 1.101.679 1.54 1.173.44.495.795 1.083 1.041 1.735.247.653.383 1.369.383 2.119 0 .75-.136 1.466-.383 2.119a5.583 5.583 0 0 1-1.04 1.735c-.44.494-.962.895-1.541 1.172a4.349 4.349 0 0 1-1.881.43h-3.524a4.354 4.354 0 0 1-1.88-.43 4.903 4.903 0 0 1-1.541-1.172 5.583 5.583 0 0 1-1.041-1.735M29.589 0v26.191M9.902 44.807l-4.578 1.117A1.76 1.76 0 0 1 3.2 44.65L.051 31.967a1.743 1.743 0 0 1 1.284-2.103l4.578-1.117a1.76 1.76 0 0 1 2.122 1.273l3.15 12.684a1.743 1.743 0 0 1-1.283 2.103zM8.426 31.593l2.754-.698s2.12-1.73 6.11-1.73 11.241 3.852 11.241 3.852 3.038-.173 6.467.103c3.403.273 5.487 1.545 5.487 3.77 0 2.224-2.681 2.347-5.487 2.1-2.806-.246-6.048-1.235-8.168-.185" stroke="#333940" stroke-width="2.2" stroke-linecap="round" stroke-linejoin="round"/>
        <path d="M39.567 34.714s3.038-.976 4.97-1.903l3.992-2.781s2.37-1.36 3.802.367c1.347 1.625.5 4.163-1.122 5.34-1.62 1.177-5.3 4.143-6.172 4.824-.873.68-1.995 1.668-4.427 2.595-2.432.926-7.108 2.657-7.108 2.657s-3.679.593-6.672-.334c-2.993-.926-10.101-1.977-10.101-1.977s-3.411-.883-5.447-.195" stroke="#333940" stroke-width="2.2" stroke-linecap="round" stroke-linejoin="round"/>
        <path d="M5.225 41.277c0-.733.6-1.329 1.341-1.329.74 0 1.34.596 1.34 1.33 0 .733-.6 1.328-1.34 1.328-.741 0-1.34-.595-1.34-1.329" fill="#333940"/>
    </g>
</svg>
