<svg width="35" height="34" viewBox="0 0 35 34" xmlns="http://www.w3.org/2000/svg">
    <g stroke="#333940" stroke-width="2" fill="none" fill-rule="evenodd" stroke-linecap="round" stroke-linejoin="round">
        <path d="m7.365 32.192-3.187.782a.919.919 0 0 1-1.109-.668l-2.042-8.267a.915.915 0 0 1 .67-1.105l3.187-.781a.92.92 0 0 1 1.109.668l2.042 8.267a.915.915 0 0 1-.67 1.104z"/>
        <path d="m6.277 23.973 1.713-.436s1.318-1.081 3.8-1.081c2.482 0 6.991 2.408 6.991 2.408s1.89-.109 4.023.064c2.116.171 3.412.966 3.412 2.356 0 1.391-1.667 1.468-3.412 1.314-1.745-.155-3.762-.773-5.08-.116"/>
        <path d="M25.645 25.925s1.89-.61 3.092-1.19l2.482-1.739s1.473-.85 2.365.23c.838 1.015.31 2.602-.697 3.338-1.009.736-3.297 2.59-3.84 3.015-.542.425-1.24 1.043-2.753 1.622-1.512.58-4.42 1.662-4.42 1.662s-2.29.37-4.15-.209c-1.862-.58-6.283-1.236-6.283-1.236s-2.122-.552-3.388-.122M14.07 3.561V1h3.024v2.561M10.037 22.651V11.594M29.191 11.594v12.823M31.207 11.594H8.02l3.024-8.033h17.137z"/>
        <path d="M21.126 24.841V17.62h4.032v7.922M13.062 19.686h5.04v-5.021h-5.04z"/>
    </g>
</svg>
