<svg width="75" height="73" xmlns="http://www.w3.org/2000/svg" xmlns:xlink="http://www.w3.org/1999/xlink">
    <defs>
        <path id="a" d="M0 0h17.42v25.832H0z"/>
        <path id="c" d="M0 0h58.647v24.567H0z"/>
        <path id="e" d="M0 72.135h74.047V0H0z"/>
    </defs>
    <g fill="none" fill-rule="evenodd">
        <g transform="translate(0 46.302)">
            <mask id="b" fill="#fff">
                <use xlink:href="#a"/>
            </mask>
            <path d="M9.956 2c-.08 0-.159.01-.237.029L2.761 3.742a.992.992 0 0 0-.614.455.99.99 0 0 0-.118.755L6.49 23.07c.133.535.682.86 1.211.732l6.957-1.713c.536-.133.864-.675.733-1.21L10.93 2.762a.986.986 0 0 0-.456-.615A1.003 1.003 0 0 0 9.956 2zM7.461 25.833a3.008 3.008 0 0 1-2.914-2.282L.087 5.43a2.982 2.982 0 0 1 .348-2.268A2.976 2.976 0 0 1 2.283 1.8L9.241.088a2.974 2.974 0 0 1 2.268.348 2.978 2.978 0 0 1 1.362 1.847l4.461 18.119a3.005 3.005 0 0 1-2.195 3.63l-6.959 1.713c-.239.059-.48.087-.717.087z" fill="#404750" mask="url(#b)"/>
        </g>
        <path d="M51.074 62.613c-.848 0-1.717-.057-2.56-.132-1.043-.093-2.13-.26-3.184-.42-2.725-.418-5.54-.85-7.37.065a1.001 1.001 0 0 1-.895-1.789c2.4-1.199 5.535-.719 8.568-.253 1.021.156 2.08.32 3.058.405 1.164.105 4.703.418 5.905-.68.197-.18.458-.5.458-1.2 0-3.166-4.092-3.972-6.532-4.169-4.535-.37-8.602-.142-8.642-.14a1.055 1.055 0 0 1-.53-.116c-.096-.052-9.687-5.16-14.792-5.16-4.949 0-7.638 2.125-7.665 2.146a1.01 1.01 0 0 1-.384.193l-3.74.956a1 1 0 1 1-.494-1.938l3.544-.905c.768-.555 3.758-2.452 8.74-2.452 5.18 0 13.874 4.422 15.488 5.265a72.419 72.419 0 0 1 8.637.157c5.32.431 8.37 2.677 8.37 6.162 0 1.102-.373 2.003-1.107 2.675-1.134 1.037-2.947 1.33-4.873 1.33" fill="#404750"/>
        <g transform="translate(15.4 47.523)">
            <mask id="d" fill="#fff">
                <use xlink:href="#c"/>
            </mask>
            <path d="M27.505 24.567c-1.722 0-3.789-.166-5.69-.76-3.944-1.233-13.47-2.662-13.566-2.676a.912.912 0 0 1-.104-.02c-1.21-.315-4.793-.978-6.822-.288a1 1 0 0 1-.646-1.893c2.88-.983 7.347.087 7.918.231.844.127 9.835 1.492 13.816 2.737 3.503 1.095 7.827.536 8.51.438.811-.303 6.485-2.425 9.544-3.6 2.851-1.098 4.268-2.228 5.406-3.135l.347-.274c.31-.245.887-.707 1.605-1.284 2.057-1.65 5.165-4.145 6.803-5.345 1.064-.779 1.825-2.074 1.99-3.38.084-.674.04-1.654-.65-2.493-1.374-1.675-3.79-.33-3.892-.272l-5.34 3.762a1.026 1.026 0 0 1-.14.082C43.937 7.681 39.886 9 39.715 9.055a1 1 0 1 1-.617-1.903c.04-.012 4.015-1.306 6.551-2.52L51.001.866c1.442-.838 4.546-1.702 6.51.688.891 1.083 1.278 2.508 1.09 4.012-.23 1.833-1.3 3.651-2.793 4.745-1.602 1.173-4.69 3.651-6.733 5.29-.725.583-1.307 1.05-1.622 1.297l-.335.266c-1.18.941-2.797 2.23-5.935 3.437-3.306 1.271-9.66 3.644-9.66 3.644a.95.95 0 0 1-.19.05c-.118.02-1.712.271-3.828.271" fill="#404750" mask="url(#d)"/>
        </g>
        <path d="M8.176 64.619a1.82 1.82 0 1 1 3.639 0 1.82 1.82 0 0 1-3.64 0M36.138 7.613a1 1 0 0 1-1-1V2h-4.603v4.612a1 1 0 1 1-2 0V1a1 1 0 0 1 1-1h6.603a1 1 0 0 1 1 1v5.612a1 1 0 0 1-1 1M20.731 49.453a1 1 0 0 1-1-1V24.218a1 1 0 1 1 2 0v24.233a1 1 0 0 1-1 1M62.548 53.324a1 1 0 0 1-1-1V24.22a1 1 0 1 1 2 0v28.104a1 1 0 0 1-1 1" fill="#404750"/>
        <path d="M17.773 23.22h47.732L59.653 7.612H23.626L17.773 23.22zm49.176 2H16.33a1.003 1.003 0 0 1-.937-1.353l6.603-17.606a.999.999 0 0 1 .936-.648h37.414c.417 0 .79.258.937.648l6.602 17.606a1 1 0 0 1-.936 1.352zM53.744 55.785a1 1 0 0 1-1-1v-16.36h-6.803v14.828a1 1 0 1 1-2 0V37.424a1 1 0 0 1 1-1h8.803a1 1 0 0 1 1 1v17.36a1 1 0 0 1-1 1" fill="#404750"/>
        <mask id="f" fill="#fff">
            <use xlink:href="#e"/>
        </mask>
        <path d="M28.334 40.953h9.005v-9.005h-9.005v9.005zm10.005 2H27.334a1 1 0 0 1-1-1V30.949a1 1 0 0 1 1-1h11.005a1 1 0 0 1 1 1v11.004a1 1 0 0 1-1 1z" fill="#404750" mask="url(#f)"/>
    </g>
</svg>
