<svg width="48" height="46" viewBox="0 0 48 46" xmlns="http://www.w3.org/2000/svg">
    <g fill="#333940" fill-rule="evenodd">
        <path d="M28.213 32.122a3.594 3.594 0 0 1-.671 1.128 3.012 3.012 0 0 1-.946.728c-.351.169-.72.254-1.1.254h-.35V27.19h.35c.378 0 .749.085 1.1.255.35.168.668.413.946.727.286.325.512.704.67 1.129a4 4 0 0 1 .253 1.41c0 .49-.085.965-.252 1.41zm-5.71-7.219c-.38 0-.749-.086-1.099-.254a2.986 2.986 0 0 1-.947-.728 3.623 3.623 0 0 1-.67-1.128 4.007 4.007 0 0 1-.253-1.411c0-.489.085-.963.252-1.41.16-.425.385-.805.672-1.129a2.98 2.98 0 0 1 .946-.727c.35-.17.72-.255 1.099-.255h.35v7.042h-.35zm6.76 1.758a5.272 5.272 0 0 0-1.67-1.276 4.793 4.793 0 0 0-2.097-.482h-.35v-7.042h.35c.378 0 .749.086 1.1.255.35.17.67.413.946.728.286.324.512.703.67 1.128.223.59.883.89 1.476.67.593-.221.894-.88.673-1.471a5.895 5.895 0 0 0-1.098-1.838 5.27 5.27 0 0 0-1.67-1.277 4.79 4.79 0 0 0-2.097-.481h-.35v-.723c0-.632-.513-1.143-1.146-1.143-.634 0-1.146.511-1.146 1.143v.723h-.351c-.727 0-1.432.161-2.095.481a5.272 5.272 0 0 0-1.672 1.276 5.899 5.899 0 0 0-1.097 1.839 6.285 6.285 0 0 0-.397 2.211c0 .764.133 1.508.397 2.212a5.895 5.895 0 0 0 1.097 1.838 5.26 5.26 0 0 0 1.67 1.276c.664.32 1.37.482 2.097.482h.35v7.042h-.35c-.38 0-.749-.085-1.099-.254a3.006 3.006 0 0 1-.947-.728 3.606 3.606 0 0 1-.67-1.128 1.147 1.147 0 0 0-1.476-.671c-.593.222-.894.88-.672 1.472a5.89 5.89 0 0 0 1.097 1.838c.48.544 1.042.973 1.67 1.276.664.32 1.37.482 2.097.482h.35v.722c0 .632.513 1.144 1.147 1.144.633 0 1.146-.512 1.146-1.144v-.722h.35c.728 0 1.433-.163 2.097-.482a5.294 5.294 0 0 0 1.67-1.276 5.895 5.895 0 0 0 1.098-1.838 6.296 6.296 0 0 0 .396-2.212c0-.764-.133-1.508-.396-2.211a5.895 5.895 0 0 0-1.098-1.839z"/>
        <path d="M45.66 21.169h-2.571c-.634 0-1.147.511-1.147 1.143v21.353a.05.05 0 0 1-.049.049l-35.835-.05V22.313c0-.632-.513-1.143-1.146-1.143H2.34l-.032-.085L24.032 2.296l6.726 5.83a1.202 1.202 0 0 0 1.718-.208l5.699.05v6.073c0 .331.144.646.394.863l7.123 6.18c0 .001-.033.084-.032.085m1.536-1.81-6.728-5.838V7.967a2.34 2.34 0 0 0-2.342-2.335h-5.65c-.311 0-.614.062-.896.178L25.537.572A2.354 2.354 0 0 0 22.464.57L.805 19.358c-.733.634-1 1.67-.658 2.585a2.358 2.358 0 0 0 2.193 1.513h1.426v20.209A2.341 2.341 0 0 0 6.107 46h35.786a2.342 2.342 0 0 0 2.342-2.335v-20.21h1.425a2.35 2.35 0 0 0 2.19-1.513c.345-.91.081-1.948-.654-2.583"/>
    </g>
</svg>
