<svg xmlns="http://www.w3.org/2000/svg" width="103" height="59" viewBox="0 0 103 59">
    <g fill="none" fill-rule="evenodd">
        <path fill="#ECECEC" d="M38.866 22.8c.667-.168 7.147-4.763 14.774-11.236 5.018-3.551 9.616 1.252 9.616 1.252l16.199 30.427s-5.262.962-5.755 0c-.494-.961-12.96-24.996-12.96-24.996l-2.951-1.672-2.685-.313s-2.553 1.898-2.784 2.097c-.233.2-3.583 3.047-3.848 3.295-.265.248-2.815 2.006-3.192 2.127-.378.12-2.716.417-3.24.325-.526-.094-3.174-1.307-3.174-1.307M81.011 29.92c.429-.082 19.713 0 19.713 0l-1.815 13.324L97.447 46l-2.734.671h-9.197c-.314 0-2.333-.243-2.333-.243s-1.59-1.188-1.757-1.551c-.168-.365-.415-2.858-.415-2.858v-12.1zM2.98 29.92c.006.06 19.712 0 19.712 0l-.39 14.91-3.04 1.842H9.75c-.628 0-3.544-.67-3.804-.926-.26-.256-1.81-6.546-1.81-6.546L2.98 29.92z"/>
        <path stroke="#404750" stroke-linecap="round" stroke-linejoin="round" stroke-width="1.901" d="M81.011 12.393v30.851h-6.86l-6.089-10.798-8.32-14.79a3.6 3.6 0 0 0-5.471-.978l-6.809 5.845a6.874 6.874 0 0 1-8.595.274l-.686-.515a2.107 2.107 0 0 1-.376-3.016l7.82-9.547 2.968-3.633A10.839 10.839 0 0 1 56.98 2.11h5.73c1.869 0 3.686.548 5.248 1.576l13.052 8.707z"/>
        <path stroke="#404750" stroke-linecap="round" stroke-linejoin="round" stroke-width="1.901" d="M68.062 32.446c.291.549 2.726 5.107 6.466 12.408.977 1.903.926 4.337-1.543 5.915-2.11 1.335-5.18 1.147-6.228-.515l-.05.034c-.327 1.371-1.99 2.759-2.968 3.29-1.852 1.046-4.168 1.012-5.764-.188l-.188.24c-.978 1.782-1.578 1.971-2.504 2.485-2.385 1.32-5.832 1.473-7.342-.77l-.102.085c-.497.549-.96.822-2.024 1.405-2.59 1.388-7.12 1.149-9.71-3.016-3.55-5.691-6.945-12.357-6.945-12.357h-6.467V12.393h10.292l3.927-2.142a10.62 10.62 0 0 1 5.06-1.286H44.7l.926.754-7.82 9.547a2.107 2.107 0 0 0 .377 3.016l.686.515a6.87 6.87 0 0 0 8.594-.274l6.809-5.844a3.602 3.602 0 0 1 5.473.976l8.318 14.79z"/>
        <path stroke="#404750" stroke-linecap="round" stroke-linejoin="round" stroke-width="2.42" d="M66.702 50.288c-.33 1.375-1.992 2.751-2.957 3.294-2.32 1.303-5.397.929-6.82-1.318l-4.858-8.638m5.722 10.006c-.98 1.788-1.572 1.964-2.502 2.478-2.42 1.338-5.945 1.474-7.427-.86l-4.423-7.686m24.596-15.176s2.516 4.678 6.492 12.469c.974 1.908.935 4.341-1.537 5.907-2.111 1.336-5.18 1.156-6.236-.507l-6.011-10.9M47.833 55.431c-.498.552-.952.827-2.022 1.4-2.587 1.386-7.11 1.152-9.711-3.02-3.545-5.683-6.934-12.352-6.934-12.352H23.48M22.692 12.393h10.293l3.926-2.14a10.555 10.555 0 0 1 5.054-1.288h2.74"/>
        <path stroke="#404750" stroke-linecap="round" stroke-linejoin="round" stroke-width="2.42" d="M81.011 12.393l-13.06-8.7a9.439 9.439 0 0 0-5.233-1.583h-5.73c-3.25 0-6.33 1.457-8.388 3.972L37.81 19.258a2.11 2.11 0 0 0 .367 3.027l.688.515a6.878 6.878 0 0 0 8.597-.28l6.812-5.834a3.594 3.594 0 0 1 5.47.965L74.15 43.244h6.86M19.263 46.672H8.28c-1.65 0-3.082-1.174-3.373-2.798C2.405 29.973 2.09 17.988 2.11 12.37a3.419 3.419 0 0 1 3.432-3.404h13.72a3.429 3.429 0 0 1 3.43 3.428v30.85a3.429 3.429 0 0 1-3.43 3.429z"/>
        <path stroke="#404750" stroke-linecap="round" stroke-linejoin="round" stroke-width="3.8" d="M12.4 36.388"/>
        <path stroke="#404750" stroke-linecap="round" stroke-linejoin="round" stroke-width="2.42" d="M84.442 46.672h10.98c1.651 0 3.083-1.174 3.375-2.798 2.501-13.901 2.817-25.886 2.796-31.505a3.418 3.418 0 0 0-3.431-3.404h-13.72a3.429 3.429 0 0 0-3.43 3.428v30.85a3.429 3.429 0 0 0 3.43 3.429z"/>
        <path stroke="#404750" stroke-linecap="round" stroke-linejoin="round" stroke-width="3.8" d="M91.303 36.388"/>
    </g>
</svg>
