<svg width="49" height="42" viewBox="0 0 49 42" xmlns="http://www.w3.org/2000/svg">
    <g fill="none" fill-rule="evenodd">
        <path stroke="#1B6C92" stroke-width="2" stroke-linecap="round" stroke-linejoin="round" d="M18.705 31.687h8.65v-8.615h-8.65z"/>
        <path d="M12.13 41c11.697 0 11.126-7.218 11.126-7.218 0-9.718-7.303-13.98-7.303-13.98 6.447-5.968 4.907-8.07 4.907-8.07-1.255-1.479-6.048 2.613-6.048 2.613-1.084-3.58-2.682-3.466-2.682-3.466s-1.597-.114-2.68 3.466c0 0-4.794-4.092-6.049-2.613 0 0-1.54 2.102 4.907 8.07 0 0-7.303 4.262-7.303 13.98 0 0-.57 7.218 11.125 7.218" fill="#FFF"/>
        <path d="M14.976 26.866a2.206 2.206 0 0 0-.407-.68 1.905 1.905 0 0 0-.601-.46 1.682 1.682 0 0 0-.735-.17h-1.376c-.26 0-.508.06-.734.17-.226.108-.43.265-.601.46-.172.193-.31.424-.407.68-.096.255-.149.537-.149.831 0 .294.053.575.15.832.096.255.234.486.406.68.17.194.375.352.601.46.226.11.474.169.734.169h1.376c.26 0 .509.06.735.169.226.108.43.266.601.46.171.194.31.425.407.68.096.257.149.537.149.832 0 .295-.053.575-.15.831a2.19 2.19 0 0 1-.406.68 1.917 1.917 0 0 1-.601.461 1.692 1.692 0 0 1-.735.17h-1.376c-.26 0-.508-.061-.734-.17a1.91 1.91 0 0 1-.601-.46 2.177 2.177 0 0 1-.407-.681M12.545 24.7v10.276M20.613 4.21V1h4.833v3.21M44.778 17.047v20.861H21.871M13.052 10.628 15.78 4.21h27.387L48 17.047H18.751" stroke="#1B6C92" stroke-width="2" stroke-linecap="round" stroke-linejoin="round"/>
        <path stroke="#1B6C92" stroke-width="2" stroke-linecap="round" stroke-linejoin="round" d="M31.89 37.908V26.675h6.444v11.233M12.13 41c11.697 0 11.126-7.218 11.126-7.218 0-9.718-7.303-13.98-7.303-13.98 6.447-5.968 4.907-8.07 4.907-8.07-1.255-1.479-6.048 2.613-6.048 2.613-1.084-3.58-2.682-3.466-2.682-3.466s-1.597-.114-2.68 3.466c0 0-4.794-4.092-6.049-2.613 0 0-1.54 2.102 4.907 8.07 0 0-7.303 4.262-7.303 13.98 0 0-.57 7.218 11.125 7.218zM5.458 19.814h13.345"/>
    </g>
</svg>
