<svg width="95" height="82" viewBox="0 0 95 82" fill="none" xmlns="http://www.w3.org/2000/svg">
<path fill-rule="evenodd" clip-rule="evenodd" d="M39.8853 45.1334H48.0716V41.921H39.8853V45.1334Z" fill="#00AB84"/>
<path fill-rule="evenodd" clip-rule="evenodd" d="M48.3503 23.404C48.3503 20.092 50.9939 17.3989 54.2437 17.3989C57.4934 17.3989 60.137 20.092 60.137 23.404C60.137 26.7147 57.4934 29.4079 54.2437 29.4079C50.9939 29.4079 48.3503 26.7147 48.3503 23.404ZM57.5698 40.6233C57.5698 39.9012 58.1446 39.3156 58.8534 39.3156H74.2205C74.9293 39.3156 75.5041 39.9012 75.5041 40.6233V61.2312H85.2296V29.4819L51.4322 8.66479L27.9502 23.3083C28.098 23.6311 28.2445 23.973 28.386 24.3404C30.7742 22.4369 35.2136 19.3202 38.1327 19.5154C39.0194 19.5894 39.7657 19.9619 40.2904 20.5934C40.9078 21.4495 43.0167 25.6953 33.0972 35.9004H35.3864C36.0952 35.9004 36.67 36.4859 36.67 37.208C36.67 37.9314 36.0952 38.517 35.3864 38.517H33.8335C34.8817 39.4419 36.0864 40.6425 37.3175 42.1198V40.6131C37.3175 39.891 37.8923 39.3054 38.6011 39.3054H49.3547C50.0635 39.3054 50.6383 39.891 50.6383 40.6131V49.9889C50.6383 50.711 50.0635 51.2966 49.3547 51.2966H42.7537C43.8796 54.1658 44.7136 57.4701 45.0242 61.2312H57.5698V40.6233Z" fill="#00AB84"/>
<mask id="mask0_4_1478" style="mask-type:luminance" maskUnits="userSpaceOnUse" x="0" y="1" width="94" height="79">
<path fill-rule="evenodd" clip-rule="evenodd" d="M0.140625 79.8527H93.4927V1.74506H0.140625V79.8527Z" fill="white"/>
</mask>
<g mask="url(#mask0_4_1478)">
<path fill-rule="evenodd" clip-rule="evenodd" d="M60.1372 61.2313H72.9371V41.9312H60.1372V61.2313Z" fill="#ECECEC"/>
<path fill-rule="evenodd" clip-rule="evenodd" d="M85.2299 29.4815V23.7991L54.2428 4.58319L26.9487 21.4823C27.2881 22.0003 27.625 22.5973 27.9506 23.308L51.4326 8.66572L85.2299 29.4815Z" fill="#009373"/>
<path fill-rule="evenodd" clip-rule="evenodd" d="M20.5516 54.6758C20.7695 54.9271 21.0187 55.1249 21.293 55.2576C21.5635 55.3928 21.8465 55.4579 22.1371 55.4579H22.1659V49.7194H22.1371C21.8478 49.7194 21.5635 49.787 21.293 49.9184C21.0187 50.0536 20.7695 50.2501 20.5516 50.5027C20.3237 50.7668 20.1434 51.0768 20.0156 51.4238C19.8804 51.7925 19.8115 52.1842 19.8115 52.5886C19.8115 52.9943 19.8804 53.3847 20.0156 53.7521C20.1421 54.1004 20.3225 54.4104 20.5516 54.6758Z" fill="white"/>
<path fill-rule="evenodd" clip-rule="evenodd" d="M17.6114 50.5083C17.8481 49.8615 18.1887 49.2784 18.6245 48.7758C19.0716 48.2578 19.5938 47.8508 20.1786 47.5625C20.7998 47.2589 21.4585 47.1032 22.1372 47.1032H22.166V46.7409C22.166 46.0175 22.7409 45.4319 23.4497 45.4319C24.1585 45.4319 24.7333 46.0175 24.7333 46.7409V47.1032H24.7608C25.4396 47.1032 26.0983 47.2589 26.7194 47.5638C27.3055 47.8508 27.8277 48.2578 28.2736 48.7758C28.7081 49.2784 29.05 49.8615 29.2879 50.507C29.5359 51.1832 29.2003 51.9372 28.5365 52.1911C27.8716 52.4411 27.1327 52.103 26.8835 51.4269C26.7558 51.0773 26.5742 50.7673 26.3463 50.5019C26.1284 50.2506 25.8791 50.0541 25.6049 49.9202C25.3344 49.7875 25.0501 49.7199 24.7608 49.7199H24.7333V55.4584H24.7608C25.4408 55.4584 26.1008 55.6127 26.7194 55.9176C27.308 56.2072 27.829 56.6155 28.2736 57.1296C28.7094 57.6349 29.0512 58.2179 29.2879 58.8634C29.5309 59.5243 29.6536 60.2247 29.6536 60.9443C29.6536 61.6612 29.5309 62.3617 29.2879 63.0225C29.05 63.6693 28.7081 64.2524 28.2736 64.7576C27.8277 65.273 27.3055 65.68 26.722 65.9683C26.1008 66.2732 25.4408 66.4289 24.7608 66.4289H24.7333V66.7912C24.7333 67.5133 24.1585 68.0989 23.4497 68.0989C22.7409 68.0989 22.166 67.5133 22.166 66.7912V66.4289H22.1372C21.4572 66.4289 20.7973 66.2732 20.1786 65.9683C19.5938 65.6813 19.0716 65.273 18.6258 64.7601C18.1887 64.2536 17.8481 63.6693 17.6114 63.0225C17.3634 62.3438 17.7003 61.5924 18.3653 61.3397C19.029 61.0846 19.7691 61.4316 20.0158 62.1078C20.1436 62.4561 20.3239 62.7661 20.5518 63.0302C20.7697 63.2815 21.0202 63.478 21.2957 63.6132C21.5624 63.7459 21.8467 63.8122 22.1372 63.8122H22.166V58.075H22.1372C21.4547 58.075 20.7948 57.9194 20.1761 57.6119C19.5938 57.3274 19.0716 56.9191 18.6245 56.4024C18.1887 55.8985 17.8468 55.3142 17.6114 54.6686C17.3685 54.0065 17.2457 53.3074 17.2457 52.5891C17.2457 51.8696 17.3685 51.1717 17.6114 50.5083ZM35.6133 56.9638C35.6133 47.6288 33.0399 43.3371 30.9861 41.394H12.4156L12.6009 41.0547C8.6599 44.7838 2.71644 52.4028 2.71644 64.4629C2.70517 64.6644 2.57368 67.0782 4.09649 69.76C26.2173 82.2589 35.6133 66.3204 35.6133 56.9638Z" fill="white"/>
<path fill-rule="evenodd" clip-rule="evenodd" d="M24.7324 63.812H24.7612C25.0518 63.812 25.3348 63.7456 25.604 63.6142C25.8783 63.4777 26.1275 63.2812 26.3466 63.0299C26.5746 62.7658 26.7549 62.4558 26.8826 62.1062C27.0179 61.7401 27.0855 61.3484 27.0855 60.944C27.0855 60.5396 27.0179 60.1466 26.8826 59.7792C26.7562 59.4335 26.5746 59.1222 26.3454 58.8568C26.1275 58.6055 25.8783 58.409 25.6028 58.2725C25.3348 58.1411 25.0518 58.0747 24.7612 58.0747H24.7324V63.812Z" fill="white"/>
<path fill-rule="evenodd" clip-rule="evenodd" d="M27.2476 35.9002C30.7942 32.4288 33.2424 26.749 34.4797 23.3247C32.4222 24.4742 30.1117 26.2208 28.6077 27.531C28.277 27.8181 27.8275 27.9189 27.4117 27.7938C26.9959 27.6701 26.6691 27.3397 26.5438 26.9161C24.8683 21.2554 22.7005 21.0832 22.6792 21.0819C22.6141 21.0832 20.4464 21.2554 18.7708 26.9161C18.6455 27.3397 18.3187 27.6701 17.9029 27.7938C17.4871 27.9214 17.0363 27.8194 16.707 27.531C14.2061 25.3507 9.46486 21.9558 7.38728 22.123C7.21696 22.137 7.11928 22.1753 7.06042 22.2123C6.88009 22.8017 6.25644 26.6609 15.9055 35.9002H27.2476Z" fill="white"/>
<path fill-rule="evenodd" clip-rule="evenodd" d="M39.8848 45.6307C40.4796 46.5684 41.0469 47.5941 41.5841 48.6811H48.0711V45.1331H39.8848V45.6307Z" fill="#ECECEC"/>
<path fill-rule="evenodd" clip-rule="evenodd" d="M27.2476 35.9002H29.409C39.0581 26.661 38.4357 22.8017 38.2541 22.2123C38.1952 22.1753 38.0988 22.137 37.9272 22.123C37.097 22.0566 35.8434 22.5606 34.4796 23.3248C33.2424 26.749 30.7941 32.4288 27.2476 35.9002Z" fill="#ECECEC"/>
<path fill-rule="evenodd" clip-rule="evenodd" d="M30.9853 41.3947C33.0391 43.3364 35.6126 47.6294 35.6126 56.9631C35.6126 66.3198 26.2165 82.2582 4.0957 69.7593C4.47766 70.4329 4.9598 71.1231 5.58094 71.7993C8.88829 75.4072 14.6339 77.2367 22.6574 77.2367C30.7148 77.2367 36.4742 75.3919 39.7752 71.7546C42.8559 68.3585 42.6055 64.6026 42.6017 64.5643C42.5992 48.0198 31.6114 39.8624 29.6153 38.5165H15.7009C15.1736 38.8737 14.0177 39.7144 12.6001 41.054L12.4148 41.3947H30.9853Z" fill="#ECECEC"/>
<path fill-rule="evenodd" clip-rule="evenodd" d="M20.0157 51.424C20.1434 51.077 20.3238 50.7657 20.5517 50.5016C20.7696 50.2503 21.0188 50.0538 21.2943 49.9186C21.5636 49.7872 21.8478 49.7196 22.1371 49.7196H22.1659V55.4581H22.1371C21.8466 55.4581 21.5636 55.3917 21.2931 55.2578C21.0188 55.1238 20.7696 54.9274 20.5517 54.676C20.3238 54.4107 20.1434 54.1006 20.0157 53.7523C19.8805 53.3849 19.8116 52.9933 19.8116 52.5888C19.8116 52.1844 19.8805 51.7927 20.0157 51.424ZM24.762 58.0747C25.0512 58.0747 25.3355 58.1411 25.6023 58.2725C25.8778 58.409 26.1282 58.6055 26.3461 58.8568C26.5753 59.1221 26.7556 59.4334 26.8834 59.7792C27.0174 60.1466 27.0862 60.5395 27.0862 60.944C27.0862 61.3484 27.0174 61.7401 26.8834 62.1062C26.7556 62.4545 26.5741 62.7658 26.3461 63.0299C26.1282 63.2812 25.8778 63.4777 25.6048 63.6142C25.3355 63.7456 25.0512 63.812 24.762 63.812H24.7332V58.0747H24.762ZM18.6244 56.4022C19.0715 56.9201 19.5937 57.3271 20.176 57.6129C20.7959 57.9191 21.4546 58.0747 22.1371 58.0747H22.1659V63.812H22.1371C21.8466 63.812 21.5623 63.7456 21.2956 63.6142C21.0201 63.4777 20.7696 63.2812 20.5517 63.0312C20.3238 62.7671 20.1434 62.4558 20.0157 62.1075C19.769 61.4313 19.0289 61.0843 18.3652 61.3395C17.7002 61.5921 17.3633 62.3448 17.6113 63.0222C17.848 63.6703 18.1898 64.2547 18.6256 64.7599C19.0715 65.2727 19.5937 65.681 20.1785 65.968C20.7984 66.2742 21.4571 66.4286 22.1371 66.4286H22.1659V66.7909C22.1659 67.513 22.7407 68.0986 23.4495 68.0986C24.1584 68.0986 24.7332 67.513 24.7332 66.7909V66.4286H24.762C25.442 66.4286 26.1007 66.2742 26.7218 65.968C27.3054 65.6797 27.8276 65.2727 28.2734 64.7573C28.708 64.2534 29.0499 63.6703 29.2878 63.0222C29.5308 62.3614 29.6535 61.661 29.6535 60.944C29.6535 60.2244 29.5308 59.5253 29.2878 58.8632C29.0511 58.2176 28.7092 57.6346 28.2734 57.1306C27.8289 56.6152 27.3079 56.207 26.7206 55.9174C26.1007 55.6125 25.442 55.4581 24.762 55.4581H24.7332V49.7196H24.762C25.0512 49.7196 25.3343 49.7872 25.6048 49.9199C25.879 50.0538 26.1282 50.2503 26.3461 50.5016C26.5741 50.767 26.7556 51.0783 26.8834 51.4266C27.1326 52.1028 27.8714 52.4408 28.5364 52.1921C29.2001 51.9369 29.537 51.1842 29.2878 50.5067C29.0499 49.8612 28.708 49.2782 28.2734 48.7755C27.8276 48.2588 27.3054 47.8505 26.7206 47.5648C26.0982 47.2586 25.4395 47.1029 24.762 47.1029H24.7332V46.7406C24.7332 46.0185 24.1584 45.4329 23.4495 45.4329C22.7407 45.4329 22.1659 46.0185 22.1659 46.7406V47.1029H22.1371C21.4584 47.1029 20.7997 47.2586 20.1785 47.5635C19.5937 47.8505 19.0715 48.2588 18.6244 48.7755C18.1898 49.2782 17.8492 49.8612 17.6113 50.508C17.3683 51.1714 17.2456 51.8706 17.2456 52.5888C17.2456 53.3084 17.3683 54.0062 17.6113 54.6684C17.848 55.3139 18.1886 55.8982 18.6244 56.4022Z" fill="#00AB84"/>
<path fill-rule="evenodd" clip-rule="evenodd" d="M60.1373 61.2313H72.9371V41.9311H60.1373V61.2313ZM42.7527 51.2967H49.3549C50.0637 51.2967 50.6385 50.7111 50.6385 49.989V40.6132C50.6385 39.8911 50.0637 39.3055 49.3549 39.3055H38.6013C37.8925 39.3055 37.3177 39.8911 37.3177 40.6132V42.1199C36.0854 40.6426 34.8807 39.4421 33.8338 38.5171H35.3867C36.0955 38.5171 36.6703 37.9315 36.6703 37.2081C36.6703 36.486 36.0955 35.9005 35.3867 35.9005H33.0974C43.0157 25.6954 40.9068 21.4496 40.2907 20.5935C39.766 19.962 39.0196 19.5895 38.133 19.5155C35.2126 19.3203 30.7744 22.4371 28.3863 24.3405C28.2447 23.9731 28.0982 23.6312 27.9504 23.3084C27.6248 22.5965 27.288 21.9995 26.9486 21.4828L54.2427 4.58238L85.2298 23.7983V29.482V61.2313H75.5031V40.6234C75.5031 39.9013 74.9283 39.3158 74.2195 39.3158H58.8537C58.1449 39.3158 57.5701 39.9013 57.5701 40.6234V61.2313H45.0244C44.7126 57.4702 43.8786 54.1659 42.7527 51.2967ZM48.0713 45.1334V48.68H41.5843C41.0471 47.5944 40.4798 46.5686 39.885 45.6309V45.1334V41.9222H48.0713V45.1334ZM7.06069 22.2125C7.11954 22.1755 7.21722 22.1372 7.38754 22.1232C9.46512 21.9561 14.2064 25.351 16.706 27.5313C17.0366 27.8196 17.4862 27.9217 17.9019 27.7928C18.3189 27.6703 18.6445 27.3399 18.771 26.9164C20.4454 21.2557 22.6144 21.0834 22.6782 21.0822C22.6995 21.0834 24.8685 21.2557 26.5441 26.9164C26.6693 27.3399 26.9949 27.6703 27.412 27.7928C27.8277 27.9191 28.2773 27.8183 28.6079 27.5313C30.1119 26.221 32.4212 24.4745 34.48 23.3237C35.8425 22.5608 37.0961 22.0569 37.9276 22.1232C38.0979 22.1372 38.1956 22.1755 38.2544 22.2125C38.4348 22.8019 39.0584 26.6612 29.4094 35.9005H27.2479H15.9057C6.25545 26.6612 6.88035 22.8019 7.06069 22.2125ZM2.71643 64.4628C2.71643 52.4028 8.65988 44.7838 12.6009 41.0547C14.0185 39.7138 15.1731 38.8743 15.7016 38.5171H29.6148C31.6122 39.8618 42.5987 48.0205 42.6025 64.5649C42.605 64.6032 42.8567 68.3578 39.7747 71.754C36.4749 75.3925 30.7155 77.2361 22.6569 77.2361C14.6334 77.2361 8.88906 75.4078 5.58046 71.7999C4.96056 71.1225 4.47842 70.4323 4.09522 69.7599C2.57366 67.0782 2.70515 64.6644 2.71643 64.4628ZM92.8752 25.4773L54.9102 1.93511C54.5007 1.68123 53.9872 1.68251 53.5777 1.93511L25.2004 19.5053C24.0094 18.5663 23.0026 18.4796 22.6569 18.4668C22.0195 18.4604 19.0904 18.7411 16.9276 24.3405C14.5395 22.4371 10.0988 19.3114 7.18216 19.5155C6.29552 19.5895 5.54915 19.9607 4.96682 20.6663C4.40329 21.4547 2.2969 25.6967 12.2177 35.9005H9.92722C9.21841 35.9005 8.6436 36.486 8.6436 37.2081C8.6436 37.9315 9.21841 38.5171 9.92722 38.5171H11.4776C7.1784 42.3075 0.150444 50.6027 0.152949 64.3595C0.137921 64.5598 -0.181417 69.3019 3.6544 73.5299C7.46017 77.7247 13.8545 79.8527 22.6569 79.8527C31.4607 79.8527 37.8537 77.7247 41.6595 73.5299C45.4953 69.3019 45.1772 64.5598 45.1659 64.4628C45.1659 64.2511 45.1459 64.0559 45.1434 63.8479H86.5134C87.2222 63.8479 87.797 63.2623 87.797 62.5402V25.3905L91.5414 27.7124C91.7493 27.84 91.9798 27.9025 92.2077 27.9025C92.6397 27.9025 93.063 27.678 93.3047 27.2748C93.6741 26.6586 93.4813 25.8536 92.8752 25.4773Z" fill="#404750"/>
<path fill-rule="evenodd" clip-rule="evenodd" d="M50.9175 23.404C50.9175 25.2718 52.409 26.7912 54.2436 26.7912C56.0782 26.7912 57.5697 25.2718 57.5697 23.404C57.5697 21.535 56.0782 20.0155 54.2436 20.0155C52.409 20.0155 50.9175 21.535 50.9175 23.404Z" fill="white"/>
<path fill-rule="evenodd" clip-rule="evenodd" d="M57.5701 23.404C57.5701 25.2718 56.0786 26.7912 54.244 26.7912C52.4093 26.7912 50.9178 25.2718 50.9178 23.404C50.9178 21.535 52.4093 20.0155 54.244 20.0155C56.0786 20.0155 57.5701 21.535 57.5701 23.404ZM60.1373 23.404C60.1373 20.0921 57.4937 17.3989 54.244 17.3989C50.9942 17.3989 48.3506 20.0921 48.3506 23.404C48.3506 26.7147 50.9942 29.4079 54.244 29.4079C57.4937 29.4079 60.1373 26.7147 60.1373 23.404Z" fill="#404750"/>
<path fill-rule="evenodd" clip-rule="evenodd" d="M74.2202 70.1099C74.9291 70.1099 75.5039 69.5243 75.5039 68.8022C75.5039 68.0788 74.9291 67.4933 74.2202 67.4933H58.8532C58.1456 67.4933 57.5708 68.0788 57.5708 68.8022C57.5708 69.5243 58.1456 70.1099 58.8532 70.1099H74.2202Z" fill="#404750"/>
<path fill-rule="evenodd" clip-rule="evenodd" d="M77.2936 73.7553H55.7802C55.0714 73.7553 54.4966 74.3409 54.4966 75.063C54.4966 75.7864 55.0714 76.372 55.7802 76.372H77.2936C78.0024 76.372 78.5772 75.7864 78.5772 75.063C78.5772 74.3409 78.0024 73.7553 77.2936 73.7553Z" fill="#404750"/>
</g>
</svg>
