<svg width="40" height="38" viewBox="0 0 40 38" xmlns="http://www.w3.org/2000/svg">
    <path d="M20.024 18.344c-2.205 0-4-1.794-4-4s1.795-4 4-4c2.206 0 4 1.794 4 4s-1.794 4-4 4M20.526.15a.999.999 0 0 0-1.052 0L.485 11.923c-.477.296-.628.93-.337 1.417a1.007 1.007 0 0 0 1.39.344l1.896-1.176V36.97c0 .57.452 1.03 1.011 1.03h10.134V26.86c0-1.762 1.407-3.195 3.136-3.195h4.641c1.73 0 3.137 1.433 3.137 3.195V38h10.062a1.02 1.02 0 0 0 1.011-1.03V12.508l1.897 1.176c.477.295 1.1.14 1.39-.344.29-.487.139-1.12-.339-1.417L20.526.15z" fill="#333940" fill-rule="evenodd"/>
</svg>
