<svg xmlns="http://www.w3.org/2000/svg" xmlns:xlink="http://www.w3.org/1999/xlink" width="70" height="60" viewBox="0 0 70 60">
    <defs>
        <path id="agvilzckua" d="M0 0L35.407 0 35.407 47.357 0 47.357z"/>
    </defs>
    <g fill="none" fill-rule="evenodd">
        <g>
            <g>
                <g transform="translate(-493.000000, -951.000000) translate(493.000000, 951.000000) translate(0.000000, 12.642985)">
                    <mask id="34o9u7fcdb" fill="#fff">
                        <use xlink:href="#agvilzckua"/>
                    </mask>
                    <path fill="#404750" d="M5.748 3.208c-.105.613-.142 3.688 7.097 10.432.277.258.416.631.375 1.007-.041.378-.258.713-.584.903-.415.247-10.24 6.228-10.24 19.836-.011.203-.165 2.975 2.18 5.486 2.535 2.714 6.95 4.09 13.126 4.09 6.175 0 10.592-1.376 13.125-4.09 2.346-2.511 2.193-5.283 2.184-5.399C33.01 21.724 22.87 15.611 22.768 15.55c-.326-.19-.542-.525-.584-.903-.04-.376.098-.75.374-1.007 7.24-6.744 7.203-9.82 7.098-10.432-.034-.009-.071-.014-.098-.016-1.468-.117-5.04 2.321-7.102 4.091-.307.264-.727.355-1.113.24-.387-.114-.692-.416-.808-.804-1.247-4.145-2.814-4.322-2.83-4.323-.022 0-1.59.178-2.837 4.323-.116.388-.42.69-.808.804-.39.115-.806.024-1.112-.24-2.062-1.77-5.63-4.208-7.102-4.091-.027.002-.065.007-.098.016zm11.954 44.15c-6.9 0-11.92-1.65-14.918-4.9-3.04-3.297-2.786-7.01-2.774-7.166C.006 23.248 7.14 16.62 10.14 14.365 1.522 5.942 3.322 2.407 3.79 1.765c.497-.592 1.123-.9 1.866-.96 2.246-.195 5.587 2.091 7.507 3.573C14.873.236 17.131-.024 17.702 0h.014c.564 0 2.828.269 4.524 4.377C24.16 2.896 27.506.619 29.75.805c.743.06 1.369.368 1.812.892.518.708 2.32 4.245-6.297 12.669 2.999 2.256 10.134 8.9 10.134 21.02.009.062.262 3.775-2.777 7.072-2.999 3.25-8.018 4.9-14.92 4.9z" mask="url(#34o9u7fcdb)"/>
                </g>
                <path fill="#404750" d="M27.599 28.377H7.805c-.66 0-1.194-.537-1.194-1.198 0-.661.535-1.198 1.194-1.198H27.6c.659 0 1.194.537 1.194 1.198 0 .661-.535 1.198-1.194 1.198M19.337 49.73h-2.04c-.56 0-1.102-.125-1.61-.372-.476-.23-.904-.557-1.268-.974-.355-.403-.632-.87-.825-1.387-.23-.62.083-1.309.7-1.54.617-.235 1.308.082 1.538.702.09.243.219.46.38.643.153.175.325.308.514.399.184.09.375.134.57.134h2.041c.197 0 .389-.045.57-.133.19-.092.362-.225.515-.399.161-.184.29-.401.381-.644.097-.26.146-.537.146-.822 0-.285-.05-.562-.146-.822-.092-.243-.22-.46-.381-.645-.152-.172-.325-.307-.515-.399-.181-.087-.374-.132-.57-.132h-2.04c-.558 0-1.1-.124-1.608-.37-.478-.232-.906-.56-1.27-.975-.355-.403-.632-.87-.825-1.388-.198-.53-.297-1.088-.297-1.66 0-.572.1-1.131.297-1.66.193-.518.471-.985.825-1.389.364-.414.792-.742 1.27-.973.506-.246 1.049-.372 1.608-.372h2.04c.56 0 1.102.126 1.61.372.477.232.904.559 1.268.973.355.404.632.871.826 1.388.23.62-.084 1.31-.702 1.542-.616.233-1.306-.083-1.536-.702-.092-.244-.22-.461-.381-.644-.152-.174-.325-.308-.515-.4-.181-.09-.373-.133-.57-.133h-2.04c-.196 0-.387.044-.568.131-.19.094-.364.228-.517.402-.161.183-.29.4-.38.644-.097.26-.146.535-.146.82 0 .285.05.562.146.823.09.243.219.459.38.643.153.174.326.308.515.4.183.088.375.133.57.133h2.04c.558 0 1.1.125 1.608.37.48.233.906.56 1.27.974.356.406.632.873.826 1.39.197.529.297 1.087.297 1.66 0 .572-.1 1.13-.297 1.659-.194.517-.471.984-.826 1.388-.364.416-.79.744-1.27.974-.506.246-1.049.371-1.608.371" transform="translate(-493.000000, -951.000000) translate(493.000000, 951.000000)"/>
                <path fill="#404750" d="M18.318 51.008c-.66 0-1.195-.536-1.195-1.197V34.47c0-.66.535-1.197 1.195-1.197s1.194.536 1.194 1.197v15.34c0 .66-.535 1.197-1.194 1.197M35.355 7.186c-.66 0-1.195-.537-1.195-1.198V2.395H29.38v3.593c0 .661-.535 1.198-1.194 1.198-.66 0-1.195-.537-1.195-1.198v-4.79c0-.661.535-1.198 1.195-1.198h7.168c.659 0 1.194.537 1.194 1.198v4.79c0 .661-.535 1.198-1.194 1.198M64.027 57.487H36.635c-.66 0-1.194-.537-1.194-1.198 0-.661.535-1.198 1.194-1.198h26.197v-29.94c0-.662.535-1.198 1.195-1.198s1.194.536 1.194 1.197V56.29c0 .661-.535 1.198-1.194 1.198" transform="translate(-493.000000, -951.000000) translate(493.000000, 951.000000)"/>
                <path fill="#404750" d="M68.805 26.348H33.48c-.66 0-1.195-.537-1.195-1.198 0-.66.534-1.197 1.195-1.197H67.08L60.81 7.186H21.846l-.978 2.617c-.232.619-.92.931-1.539.7-.617-.232-.93-.922-.699-1.542l1.27-3.393c.175-.467.62-.777 1.119-.777h40.618c.498 0 .944.31 1.12.777l7.168 19.162c.136.368.086.78-.138 1.103-.223.322-.59.515-.982.515M54.47 57.487c-.66 0-1.195-.537-1.195-1.198v-15.57h-7.168v15.57c0 .661-.536 1.198-1.195 1.198-.66 0-1.195-.537-1.195-1.198V39.522c0-.661.535-1.198 1.195-1.198h9.557c.66 0 1.195.537 1.195 1.198V56.29c0 .661-.535 1.198-1.195 1.198" transform="translate(-493.000000, -951.000000) translate(493.000000, 951.000000)"/>
            </g>
        </g>
    </g>
</svg>
