<svg xmlns="http://www.w3.org/2000/svg" width="89" height="51" viewBox="0 0 89 51">
    <g fill="none" fill-rule="evenodd">
        <path fill="#009FC7" d="M32.82 18.948c.58-.146 6.221-4.17 12.86-9.838 4.368-3.11 8.37 1.096 8.37 1.096l14.1 26.645s-4.58.842-5.01 0c-.429-.842-11.28-21.89-11.28-21.89l-2.569-1.463-2.337-.274s-2.222 1.66-2.424 1.836c-.202.175-3.118 2.668-3.348 2.885-.23.216-2.45 1.757-2.779 1.863-.329.105-2.365.365-2.82.284-.458-.082-2.763-1.144-2.763-1.144M69.505 25.183c.373-.071 17.158 0 17.158 0l-1.58 11.668-1.272 2.415-2.38.587h-8.005c-.274 0-2.031-.212-2.031-.212s-1.384-1.04-1.53-1.359c-.146-.32-.36-2.503-.36-2.503V25.183zM1.584 25.183c.005.054 17.158 0 17.158 0l-.34 13.057-2.646 1.613h-8.28c-.547 0-3.085-.587-3.312-.81-.226-.224-1.575-5.734-1.575-5.734l-1.005-8.126z"/>
        <path stroke="#404750" stroke-linecap="round" stroke-linejoin="round" stroke-width="1.659" d="M69.505 9.836V36.85h-5.972l-5.3-9.456-7.24-12.951c-.554-.99-1.599-1.607-2.733-1.607-.747 0-1.464.27-2.031.75l-5.927 5.12c-2.136 1.83-5.241 1.935-7.48.24l-.599-.452c-.836-.63-.984-1.83-.327-2.64l6.808-8.361 2.583-3.181C43.078 2.106 45.766.83 48.587.83h4.988c1.627 0 3.21.48 4.568 1.38l11.362 7.625z"/>
        <path stroke="#404750" stroke-linecap="round" stroke-linejoin="round" stroke-width="1.659" d="M58.233 27.395c.254.481 2.373 4.472 5.628 10.867.85 1.665.807 3.797-1.344 5.178-1.835 1.17-4.508 1.004-5.42-.45l-.043.03c-.284 1.2-1.733 2.416-2.584 2.881-1.612.915-3.628.886-5.017-.165l-.163.21c-.852 1.56-1.374 1.726-2.18 2.176-2.076 1.156-5.077 1.29-6.39-.675l-.09.075c-.432.481-.836.72-1.762 1.231-2.254 1.215-6.196 1.006-8.45-2.641-3.091-4.984-6.047-10.822-6.047-10.822h-5.629V9.836h8.959l3.418-1.876c1.344-.736 2.867-1.126 4.405-1.126h2.373l.807.66-6.808 8.36c-.657.81-.508 2.011.328 2.641l.598.451c2.238 1.696 5.344 1.59 7.48-.24l5.927-5.117c.567-.481 1.283-.752 2.03-.752 1.135 0 2.18.616 2.733 1.606l7.241 12.952z"/>
        <path stroke="#404750" stroke-linecap="round" stroke-linejoin="round" stroke-width="1.659" d="M57.05 43.02c-.287 1.204-1.735 2.409-2.574 2.884-2.02 1.141-4.698.813-5.938-1.154l-4.227-7.564m4.98 8.762c-.853 1.565-1.368 1.72-2.178 2.17-2.106 1.172-5.175 1.29-6.464-.753l-3.85-6.73m21.409-13.29s2.19 4.096 5.651 10.919c.847 1.67.814 3.801-1.338 5.173-1.838 1.17-4.51 1.011-5.428-.445l-5.233-9.545M40.625 47.523c-.433.483-.828.725-1.76 1.227-2.251 1.213-6.188 1.008-8.453-2.645-3.085-4.976-6.035-10.817-6.035-10.817h-4.948M18.742 9.836h8.959l3.417-1.874c1.35-.74 2.862-1.128 4.4-1.128h2.384"/>
        <path stroke="#404750" stroke-linecap="round" stroke-linejoin="round" stroke-width="1.659" d="M69.505 9.836l-11.368-7.62c-1.35-.903-2.934-1.385-4.555-1.385h-4.988c-2.829 0-5.51 1.276-7.3 3.478L31.9 15.847c-.663.815-.517 2.02.32 2.65l.598.451c2.243 1.69 5.354 1.59 7.483-.245l5.93-5.11c.566-.488 1.288-.756 2.034-.756 1.13 0 2.173.613 2.726 1.603L63.533 36.85h5.972M15.757 39.853H6.198c-1.436 0-2.683-1.028-2.936-2.45C1.084 25.23.81 14.735.827 9.815.832 8.16 2.168 6.834 3.814 6.834h11.943c1.649 0 2.985 1.344 2.985 3.002V36.85c0 1.658-1.336 3.002-2.985 3.002z"/>
        <path stroke="#404750" stroke-linecap="round" stroke-linejoin="round" stroke-width="3.317" d="M9.784 30.847L9.784 30.847"/>
        <path stroke="#404750" stroke-linecap="round" stroke-linejoin="round" stroke-width="1.659" d="M72.491 39.853h9.558c1.437 0 2.683-1.028 2.937-2.45 2.177-12.173 2.452-22.668 2.434-27.588-.005-1.654-1.34-2.981-2.987-2.981H72.491c-1.65 0-2.986 1.344-2.986 3.002V36.85c0 1.658 1.336 3.002 2.986 3.002z"/>
        <path stroke="#404750" stroke-linecap="round" stroke-linejoin="round" stroke-width="3.317" d="M78.463 30.847L78.463 30.847"/>
    </g>
</svg>
