<svg xmlns="http://www.w3.org/2000/svg" width="67" height="63" viewBox="0 0 67 63">
    <g fill="none" fill-rule="evenodd" stroke="#404750" stroke-linecap="round" stroke-linejoin="round" stroke-width="2.472">
        <path d="M23.98 17.467c-2.188-2.001-3.929-4.162-3.929-7.843v-.002c0-3.996 3.565-7.623 7.485-7.623 2.597 0 4.89 1.237 6.255 3.18 1.364-1.943 3.657-3.18 6.255-3.18 3.918 0 7.486 3.627 7.486 7.623v.002c0 3.68-1.743 5.842-3.932 7.843l-9.409 8.6a.582.582 0 0 1-.803-.003l-9.407-8.597zM42.478 44.243a76.088 76.088 0 0 1 2.943-.232c4.425-.254 5.976.07 5.873-.034 3.42-4.634 6.558-7.819 9.295-10.204 1.038-.905 2.27-1.112 3.25-.824 1.596.464 2.531 2.248.856 4.46-3.194 4.204-9.98 14.027-11.12 14.675-1.083.625-18.247 5.78-22.809 5.792-2.28 0-9.123-3.278-11.404-4.633h-3.421"/>
        <path d="M15.941 36.934c3.718.325 5.862-2.514 11.541-3.035 6.9-.625 8.895 1.483 10.982 2.259 2.19.197 3.73-.046 4.368-.29 2.27-.868 4.117-1.285 5.622-1.378 2.144-.138 3.547.417 4.334 1.344.537.649.786 1.46.786 2.351 0 1.472-.706 2.502-2.279 3.568-1.94 1.309-4.027 1.98-5.874 2.259-.536.092-1.05.138-1.54.162l-1.402.069c-.102.011-.206.011-.308.024-1.346.09-2.782.242-4.368.578 0 0-2.098 2.12-4.95 2.7M52.788 35.834c.787-1.216 2.976-3.532 6.01-5.756.16-.116.33-.232.49-.336 3.24-2.004 5.999-.185 4.745 2.745l-.148.29M48.444 34.27c.158-.01 1.71-3.035 5.702-5.64 2.896-1.9 4.504-.764 5.074.995M15.941 53.131v5.93c0 1.305-1.05 2.373-2.335 2.373H6.213c-1.144 0-2.113-.843-2.312-1.993-1.869-11.172-1.938-19.713-1.892-25.31.01-1.293 1.05-2.349 2.336-2.349h9.261c1.284 0 2.335 1.068 2.335 2.373V53.13z"/>
        <path d="M7.632 55.686c0-1.07.853-1.938 1.908-1.938 1.053 0 1.909.868 1.909 1.938 0 1.07-.856 1.938-1.91 1.938-1.054 0-1.907-.868-1.907-1.938z"/>
    </g>
</svg>
