<svg width="39" height="34" viewBox="0 0 39 34" xmlns="http://www.w3.org/2000/svg">
    <g fill="none" fill-rule="evenodd">
        <path d="M26.019 4.836a3.883 3.883 0 0 0-.726-1.206 3.409 3.409 0 0 0-1.074-.814 3.035 3.035 0 0 0-1.31-.3h-2.457c-.464 0-.908.107-1.312.3-.403.192-.767.47-1.073.814a3.875 3.875 0 0 0-.726 1.206 4.165 4.165 0 0 0-.266 1.472c0 .521.095 1.02.266 1.472.172.454.42.863.726 1.206.306.344.67.622 1.073.815.404.192.848.3 1.312.3h2.456c.464 0 .907.105 1.311.298.404.193.768.471 1.074.814.306.344.554.753.726 1.206.172.454.267.951.267 1.473 0 .521-.095 1.018-.267 1.472-.172.453-.42.862-.726 1.206-.306.343-.67.621-1.074.814-.404.193-.847.3-1.31.3h-2.457c-.464 0-.908-.107-1.312-.3a3.412 3.412 0 0 1-1.073-.814 3.869 3.869 0 0 1-.726-1.206M21.68 1v18.2M8.201 32.076l-3.683.896a.973.973 0 0 1-1.173-.701l-2.317-9.3a.96.96 0 0 1 .71-1.159l3.682-.896a.974.974 0 0 1 1.174.702l2.317 9.3a.96.96 0 0 1-.71 1.158zM6.927 22.954l1.92-.485s1.477-1.203 4.26-1.203c2.781 0 7.835 2.677 7.835 2.677s2.118-.12 4.509.072c2.371.19 3.825 1.073 3.825 2.62 0 1.545-1.87 1.631-3.825 1.46-1.956-.172-4.217-.86-5.694-.13" stroke="#333940" stroke-width="1.916" stroke-linecap="round" stroke-linejoin="round"/>
        <path d="M28.635 25.123s2.118-.679 3.466-1.323l2.782-1.932s1.652-.945 2.65.255c.94 1.129.35 2.893-.781 3.71-1.13.819-3.695 2.88-4.303 3.352-.609.473-1.391 1.16-3.086 1.804a759.92 759.92 0 0 1-4.956 1.846s-2.564.412-4.65-.231c-2.087-.645-7.042-1.375-7.042-1.375s-2.378-.613-3.797-.135" stroke="#333940" stroke-width="1.916" stroke-linecap="round" stroke-linejoin="round"/>
        <path d="M4.696 29.683c0-.51.418-.923.934-.923s.934.414.934.923c0 .51-.418.924-.934.924a.929.929 0 0 1-.934-.924" fill="#333940"/>
    </g>
</svg>
