<svg xmlns="http://www.w3.org/2000/svg" xmlns:xlink="http://www.w3.org/1999/xlink" width="94" height="78" viewBox="0 0 94 78">
    <defs>
        <path id="q4qkvv945a" d="M0 77.643L93.352 77.643 93.352 0.973 0 0.973z"/>
    </defs>
    <g fill="none" fill-rule="evenodd">
        <g>
            <g>
                <g>
                    <g>
                        <g>
                            <path fill="#009FC7" d="M39.745 43.842L47.931 43.842 47.931 40.689 39.745 40.689z" transform="translate(-369 -2032) translate(0 1931) translate(329 64) translate(40 36) translate(.14 .436)"/>
                            <g transform="translate(-369 -2032) translate(0 1931) translate(329 64) translate(40 36) translate(.14 .436) translate(0 .28)">
                                <path fill="#009FC7" d="M48.21 22.233c0-3.25 2.643-5.894 5.893-5.894s5.893 2.643 5.893 5.894c0 3.25-2.643 5.894-5.893 5.894s-5.893-2.644-5.893-5.894zm9.22 16.903c0-.709.574-1.284 1.283-1.284H74.08c.709 0 1.284.575 1.284 1.284v20.228h9.725V28.2L51.292 7.765 27.81 22.14c.147.317.294.653.435 1.014 2.389-1.869 6.828-4.928 9.747-4.737.887.073 1.633.439 2.158 1.059.617.84 2.726 5.008-7.193 15.025h2.289c.709 0 1.283.575 1.283 1.283 0 .71-.574 1.285-1.283 1.285h-1.553c1.048.908 2.253 2.087 3.484 3.537v-1.48c0-.708.575-1.283 1.284-1.283h10.753c.709 0 1.284.575 1.284 1.284v9.203c0 .709-.575 1.284-1.284 1.284h-6.6c1.125 2.816 1.96 6.06 2.27 9.751h12.545V39.136z"/>
                                <mask id="9ete1nxh4b" fill="#fff">
                                    <use xlink:href="#q4qkvv945a"/>
                                </mask>
                                <path fill="#ECECEC" d="M59.997 59.364L72.797 59.364 72.797 40.42 59.997 40.42z" mask="url(#9ete1nxh4b)"/>
                                <path fill="#008CAF" d="M85.09 28.199v-5.578L54.101 3.76 26.808 20.347c.34.508.676 1.095 1.002 1.792L51.292 7.766 85.089 28.2z" mask="url(#9ete1nxh4b)"/>
                                <path fill="#FFF" d="M20.411 52.93c.218.246.467.44.742.57.27.133.553.197.844.197h.029v-5.633h-.03c-.288 0-.573.067-.843.196-.275.132-.524.325-.742.573-.228.26-.408.564-.536.904-.135.362-.204.747-.204 1.144 0 .398.07.781.204 1.142.127.342.307.646.536.907" mask="url(#9ete1nxh4b)"/>
                                <path fill="#FFF" d="M17.47 48.839c.237-.635.578-1.207 1.014-1.7.447-.51.97-.909 1.554-1.192.621-.298 1.28-.45 1.959-.45h.028v-.356c0-.71.575-1.285 1.284-1.285.709 0 1.284.575 1.284 1.285v.355h.027c.679 0 1.338.153 1.959.452.586.282 1.108.682 1.554 1.19.434.494.776 1.066 1.014 1.7.248.663-.087 1.403-.751 1.653-.665.245-1.404-.087-1.653-.75-.128-.344-.31-.648-.537-.908-.218-.247-.468-.44-.742-.572-.27-.13-.555-.196-.844-.196h-.027v5.633h.027c.68 0 1.34.151 1.959.45.588.285 1.11.686 1.554 1.19.436.496.778 1.068 1.014 1.702.243.649.366 1.336.366 2.043 0 .703-.123 1.391-.366 2.04-.238.635-.58 1.207-1.014 1.703-.446.506-.968.905-1.552 1.188-.62.3-1.28.452-1.96.452h-.028v.356c0 .709-.575 1.284-1.284 1.284-.709 0-1.284-.575-1.284-1.284v-.356h-.028c-.68 0-1.34-.152-1.96-.452-.584-.281-1.106-.682-1.552-1.186-.437-.497-.778-1.07-1.014-1.705-.248-.667.089-1.404.754-1.652.663-.25 1.403.09 1.65.754.128.342.308.646.536.905.218.247.468.44.744.573.267.13.551.195.842.195h.028v-5.632h-.028c-.683 0-1.343-.153-1.962-.454-.582-.28-1.104-.68-1.551-1.188-.436-.494-.778-1.068-1.013-1.701-.243-.65-.366-1.337-.366-2.042 0-.706.123-1.391.366-2.042m18.002 6.336c0-9.163-2.574-13.375-4.628-15.283h-18.57l.185-.333C8.52 43.22 2.576 50.7 2.576 62.537c-.012.197-.143 2.567 1.38 5.2 22.12 12.268 31.517-3.377 31.517-12.562" mask="url(#9ete1nxh4b)"/>
                                <path fill="#FFF" d="M24.592 61.898h.029c.29 0 .573-.065.843-.194.274-.134.523-.327.742-.574.228-.26.408-.564.536-.907.135-.36.203-.744.203-1.14 0-.398-.068-.783-.203-1.144-.126-.34-.308-.645-.537-.905-.218-.247-.467-.44-.743-.574-.268-.129-.55-.194-.841-.194h-.029v5.632zM27.107 34.5c3.547-3.408 5.995-8.983 7.232-12.344-2.057 1.128-4.368 2.842-5.872 4.128-.33.282-.78.381-1.196.258-.416-.121-.743-.445-.868-.861-1.675-5.557-3.843-5.726-3.864-5.727-.066.001-2.233.17-3.909 5.727-.125.416-.452.74-.868.861-.416.126-.866.025-1.196-.258-2.5-2.14-7.242-5.472-9.32-5.308-.17.014-.267.051-.326.088-.18.578-.804 4.366 8.845 13.436h11.342z" mask="url(#9ete1nxh4b)"/>
                                <path fill="#ECECEC" d="M39.744 44.051c.595.92 1.163 1.927 1.7 2.994h6.487v-3.482h-8.187v.488zM27.107 34.5h2.161c9.65-9.07 9.027-12.858 8.846-13.436-.06-.037-.156-.074-.327-.088-.83-.065-2.084.43-3.448 1.18-1.237 3.36-3.685 8.936-7.232 12.344M30.845 39.893c2.054 1.906 4.627 6.12 4.627 15.282 0 9.184-9.396 24.83-31.517 12.56.382.662.865 1.34 1.486 2.003 3.307 3.541 9.053 5.337 17.076 5.337 8.057 0 13.817-1.81 17.118-5.38 3.08-3.335 2.83-7.021 2.826-7.059-.002-16.24-10.99-24.247-12.986-25.568H15.561c-.528.35-1.684 1.176-3.101 2.49l-.185.335h18.57z" mask="url(#9ete1nxh4b)"/>
                                <path fill="#009FC7" d="M19.875 49.738c.128-.34.308-.646.536-.906.218-.246.467-.44.743-.572.269-.129.553-.195.842-.195h.03v5.633h-.03c-.29 0-.573-.066-.844-.197-.274-.132-.523-.324-.741-.571-.228-.26-.408-.565-.536-.907-.135-.36-.204-.745-.204-1.142 0-.397.069-.781.204-1.143zm4.746 6.528c.29 0 .574.065.84.194.276.134.527.327.744.574.23.26.41.566.538.905.134.36.203.746.203 1.143s-.07.782-.203 1.141c-.128.342-.31.648-.538.907-.217.247-.468.44-.74.574-.27.129-.554.194-.844.194h-.029v-5.632h.03zm-6.137-1.642c.447.509.969.908 1.551 1.189.62.3 1.279.453 1.961.453h.03v5.632h-.03c-.29 0-.574-.065-.841-.194-.276-.134-.526-.327-.744-.573-.228-.259-.408-.565-.536-.906-.247-.664-.987-1.005-1.65-.754-.665.248-1.002.986-.754 1.651.236.637.578 1.21 1.014 1.706.446.504.968.904 1.553 1.186.62.3 1.278.452 1.958.452h.03v.356c0 .709.574 1.283 1.283 1.283s1.283-.574 1.283-1.283v-.356h.03c.68 0 1.338-.151 1.96-.452.583-.283 1.105-.682 1.55-1.188.435-.495.777-1.067 1.015-1.704.243-.648.366-1.336.366-2.04 0-.706-.123-1.392-.366-2.042-.237-.634-.578-1.206-1.014-1.7-.445-.507-.966-.907-1.553-1.192-.62-.299-1.279-.45-1.959-.45h-.029v-5.633h.03c.289 0 .572.066.842.196.274.132.524.325.741.571.228.26.41.566.538.908.249.664.988.996 1.653.752.663-.25 1-.99.751-1.655-.238-.633-.58-1.206-1.014-1.7-.446-.506-.968-.907-1.553-1.188-.623-.3-1.281-.453-1.959-.453h-.029v-.356c0-.708-.574-1.283-1.283-1.283s-1.284.575-1.284 1.283v.356h-.029c-.678 0-1.337.153-1.958.452-.585.282-1.107.683-1.554 1.19-.435.493-.775 1.066-1.013 1.7-.243.652-.366 1.338-.366 2.043 0 .706.123 1.391.366 2.041.236.634.577 1.208 1.013 1.702z" mask="url(#9ete1nxh4b)"/>
                                <path fill="#404750" d="M59.997 59.364h12.8V40.42h-12.8v18.944zm-17.385-9.751h6.602c.71 0 1.284-.575 1.284-1.284v-9.203c0-.709-.575-1.284-1.284-1.284H38.461c-.709 0-1.284.575-1.284 1.284v1.479c-1.232-1.45-2.437-2.629-3.484-3.537h1.553c.709 0 1.284-.574 1.284-1.285 0-.708-.575-1.283-1.284-1.283h-2.289c9.918-10.017 7.81-14.185 7.193-15.025-.524-.62-1.27-.986-2.157-1.059-2.92-.191-7.359 2.868-9.747 4.737-.142-.361-.288-.697-.436-1.013-.326-.7-.662-1.285-1.002-1.792l27.294-16.59L85.09 22.62v36.744h-9.726V39.136c0-.709-.575-1.284-1.284-1.284H58.713c-.709 0-1.283.575-1.283 1.284v20.228H44.884c-.312-3.691-1.146-6.935-2.272-9.751zm5.319-6.05v3.481h-6.487c-.537-1.065-1.105-2.072-1.7-2.993v-3.64h8.187v3.152zm-41.01-22.5c.058-.035.156-.073.326-.087 2.078-.164 6.819 3.169 9.319 5.309.33.283.78.383 1.195.256.418-.12.743-.444.87-.86 1.674-5.556 3.843-5.725 3.907-5.727.021.002 2.19.17 3.866 5.727.125.416.45.74.868.86.415.124.865.025 1.195-.256 1.505-1.286 3.814-3 5.873-4.13 1.362-.75 2.616-1.244 3.447-1.179.17.014.268.052.327.088.18.578.804 4.367-8.845 13.436H15.765C6.115 25.43 6.74 21.642 6.92 21.064zM2.575 62.538c0-11.839 5.943-19.317 9.884-22.978 1.418-1.316 2.573-2.14 3.101-2.49h13.913c1.998 1.32 12.984 9.328 12.988 25.568.003.037.254 3.723-2.828 7.056-3.3 3.572-9.059 5.382-17.117 5.382-8.024 0-13.768-1.795-17.077-5.336-.62-.665-1.102-1.343-1.485-2.003-1.522-2.632-1.39-5.002-1.379-5.2zm90.159-38.269L54.77 1.16c-.41-.25-.923-.248-1.333 0L25.06 18.406c-1.191-.921-2.198-1.006-2.543-1.019-.638-.006-3.567.27-5.73 5.766-2.388-1.869-6.829-4.937-9.745-4.737-.887.073-1.633.438-2.216 1.13-.563.774-2.67 4.938 7.251 14.954h-2.29c-.709 0-1.284.575-1.284 1.283 0 .71.575 1.285 1.284 1.285h1.55C7.038 40.79.01 48.931.013 62.435c-.016.197-.335 4.852 3.501 9.002 3.806 4.117 10.2 6.206 19.003 6.206s15.196-2.089 19.002-6.206c3.836-4.15 3.518-8.805 3.507-8.9 0-.208-.02-.4-.023-.604h41.37c.709 0 1.284-.575 1.284-1.284V24.183l3.744 2.28c.208.125.438.186.666.186.432 0 .856-.22 1.097-.616.37-.605.177-1.395-.43-1.765z" mask="url(#9ete1nxh4b)"/>
                                <path fill="#FFF" d="M50.777 22.233c0 1.834 1.491 3.325 3.326 3.325s3.326-1.491 3.326-3.325-1.491-3.326-3.326-3.326-3.326 1.492-3.326 3.326" mask="url(#9ete1nxh4b)"/>
                                <path fill="#404750" d="M57.43 22.233c0 1.834-1.492 3.325-3.326 3.325-1.835 0-3.327-1.491-3.327-3.325s1.492-3.326 3.327-3.326c1.834 0 3.326 1.492 3.326 3.326m2.567 0c0-3.25-2.644-5.894-5.893-5.894-3.25 0-5.894 2.643-5.894 5.894 0 3.25 2.644 5.894 5.894 5.894s5.893-2.644 5.893-5.894M74.08 68.08c.708 0 1.283-.575 1.283-1.284 0-.71-.575-1.285-1.283-1.285H58.713c-.708 0-1.283.575-1.283 1.285 0 .709.575 1.284 1.283 1.284H74.08zM77.153 71.658H55.639c-.708 0-1.283.575-1.283 1.284 0 .71.575 1.284 1.283 1.284h21.514c.709 0 1.283-.574 1.283-1.284 0-.71-.574-1.284-1.283-1.284" mask="url(#9ete1nxh4b)"/>
                            </g>
                        </g>
                    </g>
                </g>
            </g>
        </g>
    </g>
</svg>
