<svg width="54" height="53" viewBox="0 0 54 53" xmlns="http://www.w3.org/2000/svg">
    <g stroke="#404750" stroke-width="2.5" fill="none" fill-rule="evenodd" stroke-linecap="round" stroke-linejoin="round">
        <path d="M34.368 17.854a6.612 6.612 0 0 0-1.232-2.059 5.772 5.772 0 0 0-1.824-1.39 5.12 5.12 0 0 0-2.226-.513h-4.172a5.12 5.12 0 0 0-2.226.512 5.772 5.772 0 0 0-1.824 1.391 6.612 6.612 0 0 0-1.232 2.06 7.127 7.127 0 0 0-.452 2.514c0 .891.16 1.74.452 2.516.29.774.712 1.472 1.232 2.059a5.804 5.804 0 0 0 1.824 1.391 5.12 5.12 0 0 0 2.226.512h4.172a5.12 5.12 0 0 1 2.226.51 5.788 5.788 0 0 1 1.824 1.391c.52.588.941 1.286 1.232 2.06.29.775.452 1.624.452 2.515 0 .89-.161 1.741-.452 2.515a6.6 6.6 0 0 1-1.232 2.06 5.772 5.772 0 0 1-1.824 1.39 5.12 5.12 0 0 1-2.226.512h-4.172a5.12 5.12 0 0 1-2.226-.512 5.772 5.772 0 0 1-1.824-1.39 6.6 6.6 0 0 1-1.232-2.06M27 11.302v31.089M31.76 51.241a25.196 25.196 0 0 1-4.76.452"/>
        <path d="M27 51.693c-13.787 0-25-11.147-25-24.848C2 13.145 13.213 2 27 2s25 11.145 25 24.845c0 3.819-.87 7.439-2.426 10.674M42.982 28.052v23.496"/>
        <path d="m35.707 44.318 7.274 7.23 7.275-7.23"/>
    </g>
</svg>
