<svg width="34" height="34" viewBox="0 0 34 34" xmlns="http://www.w3.org/2000/svg">
    <g fill="none" fill-rule="evenodd">
        <path d="M17 1 1.223 12.923a.567.567 0 0 0-.11.79c.18.24.515.292.763.123l.738-.501v16.17c0 .31.251.562.56.562h4.425v-1.125H3.735V12.438L17 2.413l13.264 10.023v16.506h-3.863v1.125h4.424c.309 0 .56-.252.56-.562v-16.17l.738.502a.564.564 0 0 0 .764-.124.566.566 0 0 0-.11-.79L17 1z" fill="#333940"/>
        <path d="M17 1 1.223 12.923a.567.567 0 0 0-.11.79c.18.24.515.292.763.123l.738-.501v16.17c0 .31.251.562.56.562h4.425v-1.125H3.735V12.438L17 2.413l13.264 10.023v16.506h-3.863v1.125h4.424c.309 0 .56-.252.56-.562v-16.17l.738.502a.564.564 0 0 0 .764-.124.566.566 0 0 0-.11-.79L17 1z" stroke="#333940" stroke-width="1.174"/>
        <path d="M23.066 30.826c0 .571-.464 1.036-1.033 1.036H11.966a1.036 1.036 0 0 1-1.033-1.036v-9.894c0-.571.464-1.036 1.033-1.036h10.067a1.035 1.035 0 0 1 1.033 1.036v9.894zm-9.551-16.738a3.494 3.494 0 0 1 3.484-3.496 3.495 3.495 0 0 1 3.485 3.496v4.67h-6.97v-4.67zm8.837 4.697-.733-.108v-4.59c0-2.554-2.073-4.633-4.62-4.633-2.548 0-4.619 2.079-4.619 4.634v4.59l-.733.107A2.182 2.182 0 0 0 9.8 20.932v9.894c0 1.198.972 2.174 2.167 2.174h10.067a2.173 2.173 0 0 0 2.167-2.174v-9.894c0-1.068-.795-1.99-1.848-2.147z" fill="#333940"/>
        <path d="M23.066 30.826c0 .571-.464 1.036-1.033 1.036H11.966a1.036 1.036 0 0 1-1.033-1.036v-9.894c0-.571.464-1.036 1.033-1.036h10.067a1.035 1.035 0 0 1 1.033 1.036v9.894zm-9.551-16.738a3.494 3.494 0 0 1 3.484-3.496 3.495 3.495 0 0 1 3.485 3.496v4.67h-6.97v-4.67zm8.837 4.697-.733-.108v-4.59c0-2.554-2.073-4.633-4.62-4.633-2.548 0-4.619 2.079-4.619 4.634v4.59l-.733.107A2.182 2.182 0 0 0 9.8 20.932v9.894c0 1.198.972 2.174 2.167 2.174h10.067a2.173 2.173 0 0 0 2.167-2.174v-9.894c0-1.068-.795-1.99-1.848-2.147z" stroke="#333940" stroke-width="1.174"/>
        <path d="M17 23.133a1.332 1.332 0 0 0-.72 2.45l.218.14v2.4c0 .277.224.502.5.502a.502.502 0 0 0 .5-.502v-2.398l.217-.14A1.332 1.332 0 0 0 17 23.133" fill="#333940"/>
        <path d="M17 23.133a1.332 1.332 0 0 0-.72 2.45l.218.14v2.4c0 .277.224.502.5.502a.502.502 0 0 0 .5-.502v-2.398l.217-.14A1.332 1.332 0 0 0 17 23.133z" stroke="#333940" stroke-width="1.174"/>
    </g>
</svg>
