<svg width="22" height="22" viewBox="0 0 22 22" xmlns="http://www.w3.org/2000/svg">
    <g stroke="#FFF" stroke-width="1.25" fill="none" fill-rule="evenodd" stroke-linecap="round" stroke-linejoin="round">
        <path d="M13.947 7.381a2.664 2.664 0 0 0-.493-.829 2.312 2.312 0 0 0-.73-.56 2.04 2.04 0 0 0-.89-.206h-1.668a2.04 2.04 0 0 0-.891.206 2.317 2.317 0 0 0-.73.56 2.673 2.673 0 0 0-.492.829c-.117.312-.181.654-.181 1.012 0 .359.064.7.18 1.012.117.312.286.593.494.83.208.235.455.427.729.56.274.131.575.205.89.205h1.669c.315 0 .616.073.89.206.275.132.523.323.73.56.208.236.377.517.493.829.116.311.181.653.181 1.012 0 .358-.065.7-.18 1.012a2.671 2.671 0 0 1-.494.829 2.325 2.325 0 0 1-.73.56 2.045 2.045 0 0 1-.89.205h-1.668c-.316 0-.617-.073-.891-.205a2.33 2.33 0 0 1-.73-.56 2.68 2.68 0 0 1-.492-.83M11 4.744v12.512"/>
        <path d="M11 21C5.485 21 1 16.514 1 11S5.485 1 11 1s10 4.486 10 10-4.485 10-10 10"/>
    </g>
</svg>
