<svg xmlns="http://www.w3.org/2000/svg" xmlns:xlink="http://www.w3.org/1999/xlink" width="120" height="47" viewBox="0 0 120 47">
    <defs>
        <path id="a8cyxvb0ra" d="M0 0.014L16.629 0.014 16.629 18.317 0 18.317z"/>
        <path id="3ne5kkkz2c" d="M0.32 0.394L8.895 0.394 8.895 9.302 0.32 9.302z"/>
        <path id="xobqu4kgae" d="M0.213 0.304L3.319 0.304 3.319 3.41 0.213 3.41z"/>
        <path id="9an8pcq0zg" d="M0.3 0.178L4.286 0.178 4.286 4.881 0.3 4.881z"/>
        <path id="sd78xfv8ni" d="M0.364 0.178L5.06 0.178 5.06 4.881 0.364 4.881z"/>
        <path id="11uaj1n47k" d="M0.169 0.178L4.865 0.178 4.865 4.881 0.169 4.881z"/>
        <path id="ffp8j4szwm" d="M0.354 0.178L4.215 0.178 4.215 4.881 0.354 4.881z"/>
        <path id="g9leyz9hzo" d="M0.405 0.178L4.265 0.178 4.265 4.881 0.405 4.881z"/>
    </defs>
    <g fill="none" fill-rule="evenodd">
        <g>
            <g>
                <g>
                    <g transform="translate(-19 -32) translate(19 32) translate(0 13.272)">
                        <mask id="uycq9wrx2b" fill="#fff">
                            <use xlink:href="#a8cyxvb0ra"/>
                        </mask>
                        <path fill="#009FC7" d="M0 9.413c0-5.518 3.92-9.4 9.361-9.4 4.376 0 7.117 2.816 7.117 5.251 0 1.865-.952 3.197-2.703 3.197-1.636 0-2.587-1.142-2.587-2.511 0-1.104.837-2.017 1.56-2.322-.533-.799-1.598-1.407-3.272-1.407-2.588 0-4.681 2.397-4.681 6.773 0 4.072 1.712 6.545 5.023 6.545 2.093 0 3.691-1.217 4.49-3.538h2.321c-.837 3.88-3.577 6.316-7.724 6.316C3.273 18.317 0 14.588 0 9.413" mask="url(#uycq9wrx2b)"/>
                    </g>
                    <path fill="#009FC7" d="M31.927 22.419c0-4.833-1.599-6.85-4.376-6.85-2.778 0-4.072 2.055-4.072 6.85s1.56 6.887 4.376 6.887c2.702 0 4.072-2.092 4.072-6.887m-13.319.076c0-5.404 3.768-9.209 9.095-9.209 5.517 0 9.095 3.653 9.095 9.057 0 5.403-3.767 9.246-9.095 9.246-5.556 0-9.095-3.69-9.095-9.094M52.59 22.419c0-4.833-1.598-6.85-4.376-6.85-2.778 0-4.072 2.055-4.072 6.85s1.56 6.887 4.376 6.887c2.702 0 4.072-2.092 4.072-6.887m-13.319.076c0-5.404 3.767-9.209 9.095-9.209 5.518 0 9.095 3.653 9.095 9.057 0 5.403-3.768 9.246-9.095 9.246-5.556 0-9.095-3.69-9.095-9.094M73.519 22.076c0-3.995-1.484-5.936-3.73-5.936-2.206 0-4.185 2.702-4.185 6.393 0 3.348 1.37 5.974 4.186 5.974 2.436 0 3.729-2.245 3.729-6.43zM58.678 36.224h2.702V16.406h-2.702V13.59h6.926v4.11c1.218-2.968 3.31-4.414 5.898-4.414 1.864 0 3.349.684 4.49 1.827 1.599 1.598 2.322 4.11 2.322 7.001 0 3.006-.913 5.556-2.511 7.154-1.218 1.218-2.779 1.94-4.49 1.94-2.627 0-4.49-1.33-5.519-3.12v8.136h3.501v2.816H58.678v-2.816zM85.734 20.82h7.611c-.228-3.425-1.294-5.289-3.691-5.289-2.17 0-3.616 1.408-3.92 5.29zm-.038 2.017c.152 4.3 1.94 6.05 5.1 6.05 2.092 0 3.615-.913 4.566-3.157h2.283c-.876 3.729-3.501 5.859-7.84 5.859-5.554 0-8.828-3.805-8.828-8.98 0-5.327 3.768-9.323 8.905-9.323 5.556 0 8.067 4.452 7.877 9.551H85.696zM100.27 28.393h2.664V16.406h-2.664V13.59h6.926v4.3c.952-3.082 3.158-4.566 5.328-4.566 2.054 0 3.272 1.484 3.272 3.196 0 1.56-1.104 2.816-2.587 2.816-1.484 0-2.626-.875-2.626-2.435 0-.152.037-.343.076-.495-1.408 0-2.625 1.598-3.273 3.806v8.18h3.31v2.817H100.27v-2.816zM31.088 7.057c-.733 1.82-1.69 2.528-2.664 2.528-1.02 0-1.683-.662-1.683-1.759 0-1.891 1.249-3.763 1.249-5.05 0-.435-.19-.624-.51-.624-.833 0-2.479 1.438-3.991 7.244h-2.232l1.324-4.993c.17-.624.264-1.078.264-1.437 0-.454-.151-.814-.567-.814-.87 0-2.497 1.438-4.01 7.244h-2.27l1.628-6.128c.283-1.078.227-1.38-.114-1.38-.351 0-.738.528-1.163 1.348l-.912-.367c.747-1.504 1.617-2.362 2.737-2.362.813 0 1.38.586 1.38 1.76 0 .548-.113 1.229-.397 2.098l.133.057C20.538 1.756 21.938.488 23.224.488c1.04 0 1.588.7 1.588 1.835 0 .53-.151 1.173-.435 2.042l.133.057C25.758 1.756 27.158.488 28.5.488c1.04 0 1.702.833 1.702 1.967 0 1.608-1.4 4.028-1.4 5.182 0 .284.114.416.322.416.336 0 .672-.432 1.075-1.352l.89.356z" transform="translate(-19 -32) translate(19 32)"/>
                    <g transform="translate(-19 -32) translate(19 32) translate(31.726 .094)">
                        <mask id="b5dzfg90hd" fill="#fff">
                            <use xlink:href="#3ne5kkkz2c"/>
                        </mask>
                        <path fill="#009FC7" d="M.32 2.725C1.063 1.251 1.925.413 3.032.413c.814 0 1.381.586 1.381 1.759 0 .548-.114 1.21-.378 2.042l.15.057C5.284 1.775 6.19.394 7.516.394c.794 0 1.38.549 1.38 1.438 0 .946-.605 1.702-1.362 1.702-.662 0-1.172-.435-1.134-1.23-.548.228-1.91 1.835-3.272 6.998H.857l1.627-6.128c.284-1.077.227-1.38-.114-1.38-.343 0-.721.506-1.135 1.296L.32 2.725z" mask="url(#b5dzfg90hd)"/>
                    </g>
                    <path fill="#009FC7" d="M38.558 8.356c0-.756.567-1.588 1.456-1.588.72 0 1.267.51 1.267 1.342 0 .757-.567 1.589-1.456 1.589-.719 0-1.267-.511-1.267-1.343" transform="translate(-19 -32) translate(19 32)"/>
                    <g transform="translate(-19 -32) translate(19 32) translate(116.165 12.784)">
                        <mask id="3nrvd36nif" fill="#fff">
                            <use xlink:href="#xobqu4kgae"/>
                        </mask>
                        <path fill="#009FC7" d="M1.906 1.79c.13 0 .217-.095.217-.211 0-.125-.086-.212-.217-.212h-.384v.423h.384zm-.7-.643c0-.044.036-.082.082-.082h.64c.268 0 .531.181.531.51 0 .306-.198.427-.328.475.078.16.156.324.23.479.03.056-.014.117-.074.117h-.194c-.035 0-.066-.03-.078-.061l-.217-.51H1.53v.489c0 .042-.034.082-.081.082h-.16c-.047 0-.082-.04-.082-.082V1.147zm.558 1.965c.695 0 1.253-.561 1.253-1.252 0-.696-.558-1.253-1.253-1.253-.691 0-1.252.557-1.252 1.253 0 .69.56 1.252 1.252 1.252zm0-2.808c.855 0 1.555.7 1.555 1.556 0 .855-.7 1.55-1.555 1.55S.214 2.715.214 1.86c0-.856.695-1.556 1.55-1.556z" mask="url(#3nrvd36nif)"/>
                    </g>
                    <g transform="translate(-19 -32) translate(19 32) translate(58.57 42.07)">
                        <mask id="izsa2zlidh" fill="#fff">
                            <use xlink:href="#9an8pcq0zg"/>
                        </mask>
                        <path fill="#009FC7" d="M2.658.178c.66 0 1.136.21 1.58.608.059.052.059.13.007.183l-.398.411c-.046.052-.111.052-.164 0-.274-.242-.64-.386-1.006-.386-.836 0-1.456.7-1.456 1.523 0 .816.627 1.508 1.463 1.508.392 0 .725-.15 1-.372.052-.046.123-.039.163 0l.405.418c.052.046.04.13-.007.177-.444.43-1.006.633-1.587.633C1.352 4.881.3 3.842.3 2.536.3 1.23 1.352.178 2.658.178" mask="url(#izsa2zlidh)"/>
                    </g>
                    <g transform="translate(-19 -32) translate(19 32) translate(62.963 42.07)">
                        <mask id="v5s8uxv29j" fill="#fff">
                            <use xlink:href="#sd78xfv8ni"/>
                        </mask>
                        <path fill="#009FC7" d="M2.709 4.032c.823 0 1.502-.673 1.502-1.496S3.532 1.027 2.71 1.027s-1.496.686-1.496 1.51c0 .822.673 1.495 1.496 1.495m0-3.854C4.016.178 5.06 1.23 5.06 2.536S4.016 4.881 2.71 4.881C1.403 4.881.364 3.842.364 2.536.364 1.23 1.403.178 2.71.178" mask="url(#v5s8uxv29j)"/>
                    </g>
                    <path fill="#009FC7" d="M70.802 44.397c.346 0 .647-.3.647-.667 0-.346-.3-.633-.647-.633h-1.065v1.3h1.065zm-1.92-1.96c0-.065.052-.124.124-.124h1.868c.784 0 1.424.627 1.424 1.404 0 .6-.398 1.091-.967 1.32l.895 1.658c.046.086 0 .19-.111.19h-.686c-.059 0-.091-.032-.104-.059l-.87-1.73h-.724v1.665c0 .065-.059.124-.124.124h-.601c-.072 0-.124-.059-.124-.124v-4.324zM75.155 44.397c.346 0 .646-.3.646-.667 0-.346-.3-.633-.646-.633H74.09v1.3h1.065zm-1.921-1.96c0-.065.053-.124.124-.124h1.868c.784 0 1.424.627 1.424 1.404 0 .6-.398 1.091-.966 1.32l.894 1.658c.046.086 0 .19-.11.19h-.687c-.058 0-.09-.032-.104-.059l-.869-1.73h-.725v1.665c0 .065-.058.124-.124.124h-.601c-.071 0-.124-.059-.124-.124v-4.324zM77.586 42.437c0-.065.052-.124.124-.124h2.659c.071 0 .124.059.124.124v.536c0 .065-.053.124-.124.124h-1.934v1.07h1.613c.066 0 .124.06.124.125v.542c0 .072-.058.124-.124.124h-1.613v1.143h1.934c.071 0 .124.06.124.125v.535c0 .065-.053.124-.124.124H77.71c-.072 0-.124-.059-.124-.124v-4.324zM81.16 46.245l.236-.405c.052-.091.163-.091.222-.046.033.02.562.405.987.405.339 0 .594-.222.594-.503 0-.333-.281-.561-.83-.784-.614-.247-1.228-.64-1.228-1.41 0-.582.431-1.254 1.47-1.254.666 0 1.176.34 1.306.437.065.04.085.15.04.216l-.249.372c-.052.079-.15.13-.228.079-.052-.033-.549-.36-.908-.36-.373 0-.575.248-.575.457 0 .307.242.517.77.732.634.255 1.366.633 1.366 1.476 0 .673-.582 1.293-1.503 1.293-.822 0-1.306-.385-1.436-.51-.06-.058-.092-.09-.033-.195M86.577 44.43c.366 0 .673-.295.673-.68 0-.359-.307-.633-.673-.633h-.758v1.312h.758zm-1.606-1.993c0-.065.052-.124.124-.124h1.535c.803 0 1.462.653 1.462 1.444 0 .81-.659 1.47-1.456 1.47h-.817v1.534c0 .065-.058.124-.124.124h-.6c-.072 0-.124-.059-.124-.124v-4.324z" transform="translate(-19 -32) translate(19 32)"/>
                    <g transform="translate(-19 -32) translate(19 32) translate(88.344 42.07)">
                        <mask id="c5iwuphnml" fill="#fff">
                            <use xlink:href="#11uaj1n47k"/>
                        </mask>
                        <path fill="#009FC7" d="M2.514 4.032c.823 0 1.502-.673 1.502-1.496s-.679-1.509-1.502-1.509-1.496.686-1.496 1.51c0 .822.673 1.495 1.496 1.495m0-3.854c1.306 0 2.35 1.052 2.35 2.358S3.82 4.881 2.515 4.881C1.207 4.881.169 3.842.169 2.536.169 1.23 1.207.178 2.514.178" mask="url(#c5iwuphnml)"/>
                    </g>
                    <g transform="translate(-19 -32) translate(19 32) translate(93.713 42.07)">
                        <mask id="wx6ns60t4n" fill="#fff">
                            <use xlink:href="#ffp8j4szwm"/>
                        </mask>
                        <path fill="#009FC7" d="M.354.296C.354.23.413.178.478.178h.164l2.717 2.887h.006V.368c0-.066.053-.124.124-.124h.601c.066 0 .125.058.125.124v4.395c0 .066-.06.118-.125.118h-.157l-2.73-2.998h-.006v2.809c0 .065-.052.124-.124.124H.478c-.065 0-.124-.059-.124-.124V.296z" mask="url(#wx6ns60t4n)"/>
                    </g>
                    <path fill="#009FC7" d="M100.706 46.088c.849 0 1.47-.64 1.47-1.495 0-.85-.621-1.49-1.47-1.49h-.745v2.985h.745zm-1.587-3.65c0-.066.052-.125.117-.125h1.548c1.26 0 2.292 1.025 2.292 2.28 0 1.267-1.031 2.292-2.292 2.292h-1.548c-.065 0-.117-.059-.117-.124v-4.324zM103.941 42.437c0-.065.052-.124.124-.124h2.659c.072 0 .124.059.124.124v.536c0 .065-.052.124-.124.124h-1.934v1.07h1.614c.065 0 .124.06.124.125v.542c0 .072-.059.124-.124.124h-1.614v1.143h1.934c.072 0 .124.06.124.125v.535c0 .065-.052.124-.124.124h-2.659c-.072 0-.124-.059-.124-.124v-4.324z" transform="translate(-19 -32) translate(19 32)"/>
                    <g transform="translate(-19 -32) translate(19 32) translate(107.38 42.07)">
                        <mask id="m2s8k9po6p" fill="#fff">
                            <use xlink:href="#g9leyz9hzo"/>
                        </mask>
                        <path fill="#009FC7" d="M.405.296C.405.23.463.178.529.178h.163L3.41 3.065h.007V.368c0-.066.052-.124.124-.124h.6c.066 0 .125.058.125.124v4.395c0 .066-.059.118-.124.118h-.157l-2.73-2.998h-.006v2.809c0 .065-.053.124-.125.124H.53c-.066 0-.124-.059-.124-.124V.296z" mask="url(#m2s8k9po6p)"/>
                    </g>
                    <path fill="#009FC7" d="M113.45 43.097h-1c-.071 0-.124-.059-.124-.124v-.536c0-.065.053-.124.124-.124h2.855c.071 0 .124.059.124.124v.536c0 .065-.053.124-.124.124h-1v3.664c0 .065-.059.124-.124.124h-.608c-.065 0-.124-.059-.124-.124v-3.664z" transform="translate(-19 -32) translate(19 32)"/>
                </g>
            </g>
        </g>
    </g>
</svg>
