<svg width="23" height="24" viewBox="0 0 23 24" xmlns="http://www.w3.org/2000/svg">
    <g stroke="#FFF" stroke-width="1.283" fill="none" fill-rule="evenodd" stroke-linecap="round" stroke-linejoin="round">
        <path d="M11.477 8.09h.046V1h-.046z"/>
        <path d="m17.871 4.667-1.82-1.834L17.871 1H11.5v3.667zM11.5 13.59l2.275 2.291 2.144-2.16-3.675-5.243a.906.906 0 0 0-1.488 0l-3.675 5.244 2.144 2.16 2.275-2.293z"/>
        <path d="m21.916 22.277-.507-.723-5.49-7.832-2.144 2.16L11.5 13.59 9.225 15.88 7.08 13.722l-5.49 7.832-.507.723a.459.459 0 0 0 .372.723h20.088c.37 0 .585-.42.372-.723zM16.051 7.44h1.82v-.046h-1.82zM19.692 7.44h.455v-.046h-.455z"/>
    </g>
</svg>
