<svg xmlns="http://www.w3.org/2000/svg" xmlns:xlink="http://www.w3.org/1999/xlink" width="89" height="86" viewBox="0 0 89 86">
    <defs>
        <filter id="prefix__a" width="111.5%" height="132%" x="-5.7%" y="-16%" filterUnits="objectBoundingBox">
            <feOffset dy="4" in="SourceAlpha" result="shadowOffsetOuter1"/>
            <feGaussianBlur in="shadowOffsetOuter1" result="shadowBlurOuter1" stdDeviation="6"/>
            <feColorMatrix in="shadowBlurOuter1" result="shadowMatrixOuter1" values="0 0 0 0 0 0 0 0 0 0 0 0 0 0 0 0 0 0 0.15 0"/>
            <feMerge>
                <feMergeNode in="shadowMatrixOuter1"/>
                <feMergeNode in="SourceGraphic"/>
            </feMerge>
        </filter>
        <path id="prefix__b" d="M0 62L67.23 62 67.23 0.559 0 0.559z"/>
    </defs>
    <g fill="none" fill-rule="evenodd" filter="url(#prefix__a)" transform="translate(-16 -59)">
        <g>
            <path stroke="#404750" stroke-linecap="round" stroke-linejoin="round" stroke-width="2" d="M41.01 25.95L56.071 18.442 54.172 14.635 39.112 22.143z" transform="translate(27 66)"/>
            <path stroke="#404750" stroke-linecap="round" stroke-linejoin="round" stroke-width="2" d="M54.172 14.635L59.362 14.417 56.07 18.442zM57.134 14.511L57.948 16.145" transform="translate(27 66)"/>
            <g transform="translate(27 66) translate(0 .441)">
                <path fill="#FFF" d="M48.47 21.88v-5.466c0-8.204-6.65-14.855-14.854-14.855-8.205 0-14.856 6.65-14.856 14.855v5.467c-2.554 0-4.625 2.07-4.625 4.625 0 2.554 2.07 4.625 4.625 4.625v3.803c0 8.204 6.65 14.855 14.856 14.855 8.204 0 14.854-6.651 14.854-14.855V31.13c2.555 0 4.625-2.071 4.625-4.625s-2.07-4.625-4.625-4.625"/>
                <path stroke="#404750" stroke-linecap="round" stroke-linejoin="round" stroke-width="2" d="M48.47 21.88v-5.466c0-8.204-6.65-14.855-14.854-14.855-8.205 0-14.856 6.65-14.856 14.855v5.467c-2.554 0-4.625 2.07-4.625 4.625 0 2.554 2.07 4.625 4.625 4.625v3.803c0 8.204 6.65 14.855 14.856 14.855 8.204 0 14.854-6.651 14.854-14.855V31.13c2.555 0 4.625-2.071 4.625-4.625s-2.07-4.625-4.625-4.625zM18.043 53.996l-4.354-.281S5.556 52.424.999 61h18.31c-.835-1.884-1.31-3.965-1.31-6.16 0-.285.028-.563.044-.844zM53.541 53.715l-5.132.331c.013.265.039.526.039.794 0 2.194-.472 4.275-1.308 6.16h19.089c-4.554-8.577-12.688-7.285-12.688-7.285z"/>
                <path stroke="#404750" stroke-linecap="round" stroke-linejoin="round" stroke-width="2" d="M42.693 46.663c.714-.555 1.373-1.173 1.974-1.847 2.178 2.493 3.56 5.703 3.742 9.23.013.265.04.526.04.794 0 2.195-.474 4.276-1.31 6.16H19.31C18.473 59.116 18 57.035 18 54.84c0-.285.027-.563.043-.844.203-3.702 1.736-7.042 4.117-9.576.561.678 1.186 1.3 1.86 1.868v.075"/>
                <path fill="#404750" d="M20.442 55.218c0 2.083.51 4.044 1.393 5.781h2.184V46.364c-2.21 2.297-3.577 5.415-3.577 8.855M42.693 46.663c-.042.033-.086.064-.129.096v14.24h2.05c.884-1.736 1.392-3.697 1.392-5.78 0-3.298-1.262-6.29-3.313-8.556"/>
                <mask id="prefix__c" fill="#fff">
                    <use xlink:href="#prefix__b"/>
                </mask>
                <path fill="#ECECEC" d="M33.834 61L42.23 61 42.23 46.288 33.834 46.288z" mask="url(#prefix__c)"/>
                <path stroke="#404750" stroke-linecap="round" stroke-linejoin="round" stroke-width="2" d="M33.594 49.794c-3.65 0-6.988-1.322-9.574-3.506V61h18.544V46.759c-2.493 1.896-5.595 3.035-8.97 3.035zM27.782 36.882c0 3.1 2.513 5.612 5.612 5.612 3.1 0 5.613-2.512 5.613-5.612H27.782z" mask="url(#prefix__c)"/>
                <path stroke="#404750" stroke-linecap="round" stroke-linejoin="round" stroke-width="2" d="M37.23 31.13c-.619 1.384-2.002 2.351-3.615 2.351-1.614 0-2.996-.967-3.615-2.35H18.76v3.803c0 8.204 6.651 14.855 14.855 14.855S48.47 43.14 48.47 34.934V31.13H37.23z" mask="url(#prefix__c)"/>
                <path fill="#ECECEC" d="M37.23 31.136c-.619 1.383-2.002 2.35-3.615 2.35-1.614 0-2.996-.967-3.615-2.35H18.76v3.802c0 8.204 6.651 14.855 14.855 14.855s14.854-6.65 14.854-14.855v-3.803H37.23z" mask="url(#prefix__c)"/>
                <path stroke="#404750" stroke-linecap="round" stroke-linejoin="round" stroke-width="2" d="M37.209 31.136c-.62 1.383-2.002 2.35-3.615 2.35-1.614 0-2.996-.967-3.615-2.35H18.738v3.802c0 8.204 6.652 14.855 14.856 14.855s14.855-6.65 14.855-14.855v-3.803h-11.24z" mask="url(#prefix__c)"/>
                <path fill="#FFF" d="M27.76 36.888c0 3.1 2.514 5.611 5.613 5.611 3.1 0 5.613-2.512 5.613-5.611H27.76z" mask="url(#prefix__c)"/>
                <path stroke="#404750" stroke-linecap="round" stroke-linejoin="round" stroke-width="2" d="M27.76 36.888c0 3.1 2.514 5.611 5.613 5.611 3.1 0 5.613-2.512 5.613-5.611H27.76z" mask="url(#prefix__c)"/>
                <path fill="#404750" d="M25.503 23.614c0-1.168.946-2.114 2.114-2.114s2.115.947 2.115 2.114c0 1.168-.947 2.116-2.115 2.116-1.168 0-2.114-.948-2.114-2.116M37.498 23.614c0-1.168.946-2.114 2.114-2.114s2.115.947 2.115 2.114c0 1.168-.947 2.116-2.115 2.116-1.168 0-2.114-.948-2.114-2.116" mask="url(#prefix__c)"/>
                <path fill="#ECECEC" d="M18.76 21.884c5.215-1.224 9.2-5.622 9.816-11.046 4.664 6.177 11.737 10.408 19.894 11.043v-5.468c0-8.204-6.65-14.854-14.855-14.854-8.204 0-14.855 6.65-14.855 14.854v5.47z" mask="url(#prefix__c)"/>
                <path stroke="#404750" stroke-linecap="round" stroke-linejoin="round" stroke-width="2" d="M18.76 21.884c5.215-1.224 9.2-5.622 9.816-11.046 4.664 6.177 11.737 10.408 19.894 11.043v-5.468c0-8.204-6.65-14.854-14.855-14.854-8.204 0-14.855 6.65-14.855 14.854v5.47zM44.94 12.405c.361 1.113.4 1.982.4 2.482" mask="url(#prefix__c)"/>
                <path stroke="#404750" stroke-linecap="round" stroke-linejoin="round" stroke-width="2" d="M33.373 4.345s5.032-.002 8.354 3.22c.857.83 1.511 1.635 2.01 2.39" mask="url(#prefix__c)"/>
            </g>
        </g>
    </g>
</svg>
