<svg xmlns="http://www.w3.org/2000/svg" xmlns:xlink="http://www.w3.org/1999/xlink" width="64" height="63" viewBox="0 0 64 63">
    <defs>
        <path id="a" d="M0 .005h63.708v62.888H0z"/>
    </defs>
    <g fill="none" fill-rule="evenodd">
        <path fill="#404750" d="M42.55 40.512c-1.51 0-2.738-1.06-2.738-2.366 0-1.305 1.229-2.367 2.738-2.367s2.737 1.062 2.737 2.367a1.243 1.243 0 0 0 2.488 0c0-2.277-1.698-4.192-3.981-4.712v-.646a1.243 1.243 0 1 0-2.489 0v.646c-2.282.52-3.981 2.435-3.981 4.712 0 2.676 2.344 4.852 5.226 4.852 1.509 0 2.737 1.061 2.737 2.366 0 1.306-1.228 2.368-2.737 2.368-1.51 0-2.738-1.062-2.738-2.368a1.244 1.244 0 0 0-2.488 0c0 2.278 1.699 4.193 3.981 4.712v.538a1.244 1.244 0 0 0 2.489 0v-.538c2.283-.52 3.981-2.434 3.981-4.712 0-2.675-2.343-4.852-5.225-4.852M56.178 33.12a16.207 16.207 0 0 0-6.622-5.854 1.244 1.244 0 0 0-1.078 2.24c4.717 2.264 7.764 7.105 7.764 12.33 0 2.235-.55 4.451-1.594 6.411a1.243 1.243 0 0 0 1.097 1.826c.445 0 .876-.238 1.1-.658a16.188 16.188 0 0 0 1.886-7.58c0-3.102-.882-6.116-2.553-8.715M44.506 25.678h-.084c-.687 0-1.245.557-1.245 1.243s.558 1.243 1.245 1.243h.078a1.243 1.243 0 0 0 .006-2.486M36.634 54.165c-4.718-2.266-7.765-7.105-7.765-12.33 0-2.235.551-4.452 1.595-6.412a1.243 1.243 0 1 0-2.197-1.168 16.178 16.178 0 0 0-1.888 7.58c0 3.103.884 6.117 2.554 8.716a16.208 16.208 0 0 0 6.623 5.854 1.244 1.244 0 0 0 1.078-2.24M40.689 55.507h-.071a1.241 1.241 0 1 0-.013 2.484l.084.001c.688 0 1.245-.556 1.245-1.243 0-.686-.557-1.242-1.245-1.242"/>
        <g transform="translate(0 .07)">
            <mask id="b" fill="#fff">
                <use xlink:href="#a"/>
            </mask>
            <path fill="#404750" d="M42.555 60.407c-10.291 0-18.664-8.363-18.664-18.642 0-10.28 8.373-18.642 18.664-18.642 10.292 0 18.666 8.363 18.666 18.642 0 10.28-8.374 18.642-18.666 18.642zm-30.112-6.71a3.238 3.238 0 0 1-3.236-3.233c0-1.78 1.453-3.23 3.236-3.23h9.679a21.054 21.054 0 0 0 2.985 6.462H12.443zm0-15.412h9.248a21.023 21.023 0 0 0-.077 6.463h-9.17a3.238 3.238 0 0 1-3.237-3.231 3.237 3.237 0 0 1 3.236-3.232zm0-8.95H25.46a21.074 21.074 0 0 0-3.198 6.465h-9.819a3.238 3.238 0 0 1-3.236-3.232 3.239 3.239 0 0 1 3.236-3.232zm0-8.946H42.93c.5 0 .98.115 1.411.323a21.1 21.1 0 0 0-16.754 6.138H12.444a3.237 3.237 0 0 1-3.236-3.231c0-1.78 1.453-3.23 3.236-3.23zM5.723 8.954a3.238 3.238 0 0 1-3.235-3.232 3.237 3.237 0 0 1 3.235-3.231H36.21a3.236 3.236 0 0 1 3.234 3.231 3.237 3.237 0 0 1-3.234 3.232H5.723zm45.169 2.485a3.237 3.237 0 0 1 3.235 3.233c0 1.78-1.45 3.23-3.235 3.23H20.406a3.237 3.237 0 0 1-3.235-3.23 3.237 3.237 0 0 1 3.235-3.233h30.486zm-2.686 9.964c-.152-.36-.338-.7-.553-1.014h3.239c3.157 0 5.725-2.566 5.725-5.717 0-3.153-2.568-5.718-5.725-5.718h-9.964a5.68 5.68 0 0 0 1.005-3.232A5.727 5.727 0 0 0 36.21.005H5.723C2.568.005 0 2.57 0 5.722c0 3.153 2.568 5.717 5.723 5.717h9.966a5.678 5.678 0 0 0-1.006 3.233c0 1.198.371 2.31 1.006 3.23h-3.246c-3.156 0-5.723 2.565-5.723 5.717 0 1.81.847 3.427 2.166 4.475a5.705 5.705 0 0 0 0 8.948 5.705 5.705 0 0 0 0 8.95 5.702 5.702 0 0 0-2.166 4.472c0 3.153 2.567 5.717 5.723 5.717h14.665c3.862 4.127 9.358 6.712 15.447 6.712 11.665 0 21.153-9.477 21.153-21.128 0-9.696-6.573-17.887-15.502-20.362z" mask="url(#b)"/>
        </g>
    </g>
</svg>
