<svg width="71" height="72" viewBox="0 0 71 72" xmlns="http://www.w3.org/2000/svg" xmlns:xlink="http://www.w3.org/1999/xlink">
    <defs>
        <path id="o5gtm79pla" d="M.29.72h12.402v8.512H.289z"/>
        <path id="s7o85a6j8c" d="M.29.488h12.402V9H.289z"/>
    </defs>
    <g fill="none" fill-rule="evenodd">
        <path d="M52.887 31.84c-1.314-5.332-5.102-9.848-10.132-12.08a1.216 1.216 0 0 0-.987 2.223c4.348 1.93 7.622 5.832 8.758 10.44a1.214 1.214 0 0 0 1.47.888 1.217 1.217 0 0 0 .89-1.472M45.835 49.308a1.215 1.215 0 0 0-1.688-.327 15.408 15.408 0 0 1-8.657 2.644c-1.317 0-2.625-.166-3.886-.492a1.217 1.217 0 0 0-.61 2.355c1.461.377 2.974.569 4.496.569 3.59 0 7.054-1.06 10.018-3.061a1.216 1.216 0 0 0 .327-1.688M23.343 24.617a1.216 1.216 0 0 0-1.711.169 17.949 17.949 0 0 0-4.058 11.355 1.217 1.217 0 0 0 2.432 0c0-3.572 1.245-7.057 3.506-9.813a1.215 1.215 0 0 0-.169-1.711" fill="#404750"/>
        <g transform="translate(29 .28)">
            <mask id="wndkla5k2b" fill="#fff">
                <use xlink:href="#o5gtm79pla"/>
            </mask>
            <path d="M12.514 1.303a1.216 1.216 0 0 0-1.671-.405L.872 6.977a1.218 1.218 0 0 0 .634 2.255c.216 0 .435-.057.632-.178l9.97-6.08a1.215 1.215 0 0 0 .406-1.671" fill="#404750" mask="url(#wndkla5k2b)"/>
        </g>
        <g transform="translate(29 62.28)">
            <mask id="v1l27ay05d" fill="#fff">
                <use xlink:href="#s7o85a6j8c"/>
            </mask>
            <path d="M12.514 1.071a1.216 1.216 0 0 0-1.671-.405L.872 6.746A1.218 1.218 0 0 0 1.506 9c.216 0 .435-.058.632-.179l9.97-6.079a1.215 1.215 0 0 0 .406-1.67" fill="#404750" mask="url(#v1l27ay05d)"/>
        </g>
        <path d="M52.97 5.727a1.216 1.216 0 0 0-1.432-.952l-11.45 2.303a1.216 1.216 0 0 0 .48 2.384l11.45-2.303a1.216 1.216 0 0 0 .952-1.432M31.844 63.771a1.217 1.217 0 0 0-1.432-.953l-11.45 2.303a1.216 1.216 0 0 0 .48 2.384l11.45-2.302a1.217 1.217 0 0 0 .952-1.432M61.298 12.155l-11.546-1.75a1.215 1.215 0 1 0-.364 2.403l11.545 1.751a1.217 1.217 0 0 0 .365-2.404M21.594 59.473 18.484 59a1.215 1.215 0 0 0-1.384 1.02 1.215 1.215 0 0 0 1.019 1.385l3.11.47a1.217 1.217 0 0 0 .365-2.404M15.192 58.502l-5.144-.78a1.216 1.216 0 0 0-.364 2.404l5.144.78a1.218 1.218 0 0 0 1.385-1.019 1.218 1.218 0 0 0-1.021-1.386M67.945 22.428l-10.25-5.595a1.216 1.216 0 0 0-1.166 2.135l10.25 5.595a1.216 1.216 0 1 0 1.165-2.135M14.451 53.313l-10.25-5.596a1.216 1.216 0 0 0-1.165 2.136l10.25 5.594a1.215 1.215 0 0 0 1.65-.485 1.216 1.216 0 0 0-.485-1.65M70.677 34.355l-1.878-2.133a1.217 1.217 0 0 0-1.825 1.608l1.879 2.133a1.212 1.212 0 0 0 1.716.108 1.216 1.216 0 0 0 .108-1.715M66.067 29.121l-3.107-3.529a1.217 1.217 0 0 0-1.826 1.607l3.109 3.53a1.211 1.211 0 0 0 1.716.108 1.216 1.216 0 0 0 .108-1.716M9.847 45.081l-7.72-8.764a1.216 1.216 0 1 0-1.823 1.608l7.718 8.764a1.215 1.215 0 1 0 1.825-1.608M69.165 46.498 64.91 35.623a1.215 1.215 0 0 0-1.575-.69c-.625.245-.934.95-.69 1.577L66.9 47.383a1.22 1.22 0 0 0 1.577.69c.625-.245.933-.95.688-1.575M8.335 35.772 4.08 24.897a1.216 1.216 0 1 0-2.265.887L6.07 36.657a1.22 1.22 0 0 0 1.577.69c.625-.245.933-.951.688-1.576M63.313 45.716a1.215 1.215 0 1 0-2.431.058l.28 11.675a1.215 1.215 0 0 0 1.214 1.186h.03a1.216 1.216 0 0 0 1.187-1.245l-.28-11.674zM9.82 14.832a1.22 1.22 0 0 0-1.245-1.187 1.217 1.217 0 0 0-1.187 1.245l.28 11.674a1.215 1.215 0 0 0 1.215 1.188h.03a1.217 1.217 0 0 0 1.187-1.245L9.82 14.83zM57.596 53.114a1.215 1.215 0 0 0-1.54.764l-3.731 11.066a1.217 1.217 0 0 0 1.153 1.605c.508 0 .98-.321 1.152-.83l3.73-11.064a1.215 1.215 0 0 0-.764-1.541M17.892 5.796a1.215 1.215 0 0 0-1.54.764L12.62 17.626a1.217 1.217 0 0 0 2.305.777l3.73-11.066a1.215 1.215 0 0 0-.764-1.54M50.457 59.65a1.217 1.217 0 0 0-1.709.191l-7.29 9.123a1.217 1.217 0 0 0 1.9 1.518l7.29-9.123a1.217 1.217 0 0 0-.19-1.709M29.331 1.607a1.217 1.217 0 0 0-1.709.19l-7.29 9.124a1.216 1.216 0 0 0 1.9 1.519l7.29-9.124a1.217 1.217 0 0 0-.19-1.71M40.692 23.501c-.323-2.243-1.177-4.472-2.405-6.277a1.217 1.217 0 0 0-2.01 1.368c1.023 1.505 1.736 3.371 2.008 5.255.303 2.113.006 3.933-.861 5.263-.772 1.183-1.952 1.92-3.413 2.131-1.461.209-2.801-.164-3.875-1.082-1.207-1.032-2.006-2.694-2.31-4.807-.654-4.546 1.269-9.211 3.957-9.598.71-.102 1.46.087 2.229.56a1.216 1.216 0 1 0 1.276-2.07c-1.25-.769-2.58-1.079-3.851-.897-2.118.305-3.908 1.899-5.041 4.489-1.008 2.305-1.363 5.171-.976 7.863.389 2.706 1.473 4.887 3.136 6.308a7.138 7.138 0 0 0 4.687 1.722c.368 0 .74-.027 1.115-.081 2.143-.309 3.955-1.448 5.104-3.21 1.194-1.833 1.62-4.231 1.23-6.937M54.66 37.644c-1.467-2.044-3.748-3.816-6.26-4.858-2.524-1.05-4.954-1.232-7.025-.53-1.99.675-3.545 2.148-4.375 4.148-.83 2-.778 4.14.15 6.027.964 1.964 2.808 3.556 5.332 4.604a15.348 15.348 0 0 0 5.804 1.164c1.367 0 2.677-.2 3.826-.605a1.215 1.215 0 0 0-.808-2.294c-2.188.772-5.284.57-7.889-.511-1.97-.819-3.383-2.005-4.083-3.43-.623-1.269-.653-2.659-.087-4.023.566-1.362 1.573-2.322 2.911-2.776 1.504-.51 3.34-.348 5.312.471 4.242 1.763 7.268 5.8 6.226 8.306a1.215 1.215 0 0 0 2.246.933c.822-1.976.365-4.33-1.28-6.627M30.673 46.728c-3.507 2.966-8.481 3.811-10.234 1.739-1.754-2.073-.096-6.838 3.411-9.806 1.597-1.35 3.262-2.063 4.823-2.063l.094.002c1.413.026 2.664.636 3.617 1.762 2.072 2.45 1.4 5.734-1.711 8.366m3.567-9.937c-1.397-1.652-3.326-2.583-5.428-2.623-2.184-.035-4.446.871-6.533 2.638-2.077 1.756-3.712 4.135-4.488 6.528-.872 2.688-.592 5.07.79 6.703 1.115 1.319 2.83 2.01 4.921 2.01.499 0 1.02-.038 1.559-.118 2.488-.369 5.106-1.587 7.182-3.343 2.087-1.767 3.362-3.843 3.684-6.005.31-2.08-.288-4.137-1.687-5.79" fill="#404750"/>
    </g>
</svg>
