<svg width="20" height="20" viewBox="0 0 20 20" xmlns="http://www.w3.org/2000/svg">
    <path d="M17.5 20h-15A2.507 2.507 0 0 1 0 17.5v-15C0 1.125 1.125 0 2.5 0h15C18.875 0 20 1.125 20 2.5v15c0 1.375-1.125 2.5-2.5 2.5m-.474-9.893H14.98v2.66h-1.316V6.25h3.607v1.096h-2.291v1.669h2.045v1.092zm-7.224-2.76v4.327h.394c.439 0 .748-.115.926-.346.18-.232.274-.63.283-1.198V8.997c0-.608-.085-1.032-.255-1.273-.17-.24-.46-.366-.869-.378h-.479zm-1.316 5.42V6.25h1.724c.761 0 1.367.241 1.819.725.452.482.682 1.145.69 1.986v1.056c0 .858-.224 1.53-.677 2.017-.451.489-1.075.732-1.868.732H8.486zM4.588 9.377h.904c.251 0 .445-.082.582-.246.136-.164.207-.403.207-.716 0-.326-.072-.584-.212-.777a.673.673 0 0 0-.563-.292h-.918v2.031zm0 1.096v2.291H3.272V6.25h2.22c.645 0 1.159.2 1.542.6.384.4.575.919.575 1.558s-.19 1.142-.568 1.512c-.38.37-.904.555-1.576.555h-.877z" fill="#D95040" fill-rule="evenodd"/>
</svg>
