<svg xmlns="http://www.w3.org/2000/svg" width="69" height="57" viewBox="0 0 69 57">
    <g fill="none" fill-rule="evenodd">
        <g fill="#404750">
            <g>
                <path d="M43.32 14.895c-.106 0-.213-.014-.32-.043-4.686-1.3-9.842-1.354-14.562-.155-.64.163-1.296-.229-1.458-.874-.162-.646.227-1.302.869-1.466 5.12-1.3 10.703-1.243 15.79.169.638.177 1.013.84.837 1.484-.146.534-.63.885-1.155.885M10.935 2.42c-1.026 0-2.346.74-3.281 1.957-1.27 1.651-1.515 3.774-.528 4.543.58.45 1.379.293 1.802.158.876-.277 1.762-.94 2.437-1.816 1.269-1.652 1.516-3.776.529-4.544-.262-.203-.59-.298-.959-.298m-2.837 9.207c-.913 0-1.759-.271-2.438-.798C3.555 9.19 3.597 5.71 5.756 2.9 7.916.091 11.26-.827 13.36.81c2.105 1.636 2.062 5.118-.097 7.928-.98 1.276-2.263 2.215-3.614 2.642-.527.166-1.048.248-1.551.248" transform="translate(-751.000000, -954.000000) translate(751.000000, 954.000000)"/>
                <path d="M12.784 17.27c-.096 0-.193-.013-.29-.036-5.993-1.496-8.059-6.492-8.313-8.925-.07-.662.408-1.256 1.068-1.325.647-.07 1.245.407 1.317 1.067.025.22.683 5.388 6.505 6.84.643.16 1.036.816.877 1.461-.137.55-.627.917-1.164.917" transform="translate(-751.000000, -954.000000) translate(751.000000, 954.000000)"/>
                <path d="M7.388 11.632c-.74 0-3.228-.138-5.134-1.886C.844 8.451.084 6.616.001 4.291c-.025-.666.492-1.226 1.155-1.25.61-.056 1.218.496 1.242 1.163.06 1.644.55 2.905 1.458 3.744 1.457 1.35 3.596 1.273 3.616 1.27.652-.002 1.222.48 1.256 1.143.034.664-.468 1.23-1.128 1.266-.018.001-.091.005-.212.005M47.375 54.587h6.812l-1.858-7.82c-.107-.449.05-.917.402-1.21l.128-.107c2.849-2.394 5.062-5.381 6.395-8.636l.045-.116c.183-.46.624-.762 1.116-.762h4.972l1.11-13.425h-6.028c-.494 0-.937-.304-1.118-.768l-.053-.135c-.747-1.859-1.78-3.635-3.064-5.27-.349-.265-.536-.7-.45-1.152l1.932-10.13c-4.525.732-7.378 3.192-8.463 4.299-.365.373-.927.468-1.392.232l-.116-.059c-3.74-1.848-8-2.826-12.318-2.826-13.971 0-25.34 10.072-25.34 22.454 0 6.655 3.305 12.929 9.07 17.213l.185.136c.392.286.573.782.462 1.256l-1.624 6.826h6.812l2.804-3.315c.29-.344.744-.492 1.184-.395l.173.04c4.488 1.016 9.378.91 13.82-.318.446-.125 1.028-.003 1.33.354l3.072 3.634zM55.708 57H46.82c-.352 0-.686-.156-.914-.426l-2.942-3.48c-4.57 1.144-9.314 1.222-13.807.293l-2.696 3.187c-.227.27-.562.426-.913.426h-8.889c-.366 0-.714-.17-.942-.46-.226-.29-.31-.668-.224-1.026l1.792-7.542c-6.11-4.739-9.597-11.565-9.597-18.816 0-13.711 12.443-24.867 27.74-24.867 4.436 0 8.826.956 12.742 2.77 1.767-1.602 5.46-4.234 10.954-4.586.366-.017.73.126.976.407.247.28.348.658.28 1.024l-2.122 11.123c1.235 1.605 2.238 3.297 3.011 5.07h6.532c.336 0 .656.142.884.39.225.248.34.582.31.917l-1.31 15.838c-.051.626-.57 1.107-1.194 1.107h-5.282c-1.43 3.214-3.616 6.155-6.375 8.577l2.04 8.588c.086.358.003.737-.225 1.026-.226.29-.574.46-.941.46z" transform="translate(-751.000000, -954.000000) translate(751.000000, 954.000000)"/>
            </g>
        </g>
    </g>
</svg>
