<svg xmlns="http://www.w3.org/2000/svg" xmlns:xlink="http://www.w3.org/1999/xlink" width="63" height="79" viewBox="0 0 63 79">
    <defs>
        <path id="prefix__a" d="M0 0.553L62.61 0.553 62.61 78.806 0 78.806z"/>
    </defs>
    <g fill="none" fill-rule="evenodd">
        <path fill="#009FC7" d="M41.307 17.908H9.789v2.706h33.743v-4H42.48c.004.036.02.065.02.1 0 .66-.534 1.194-1.193 1.194M41.307 26.504H9.789v2.654h33.743V25.16h-1.061c.006.052.03.097.03.15 0 .659-.535 1.194-1.194 1.194M41.307 35.1H9.789v2.729h33.743V33.83h-1.047c.002.025.016.048.016.074 0 .66-.535 1.194-1.194 1.194M41.307 43.695H9.789v2.803h33.743v-3.997h-1.031c0 .659-.535 1.194-1.194 1.194M54.924 58.127L44.81 71.613c-.208.277-.526.45-.87.474-.028.002-.057.003-.086.003-.315 0-.62-.125-.844-.35l-5.618-5.619c-.467-.465-.467-1.221 0-1.688.467-.466 1.222-.466 1.689 0l4.644 4.645 9.289-12.384c.396-.526 1.144-.635 1.671-.238.528.395.636 1.144.24 1.671m5.297 5.178c0-7.585-6.17-13.756-13.755-13.756-7.585 0-13.754 6.171-13.754 13.756 0 7.584 6.17 13.754 13.754 13.754 7.586 0 13.755-6.17 13.755-13.754" transform="translate(0 -1)"/>
        <path fill="#404750" d="M24.116 49.902c-1.559 0-2.31 1.199-2.806 1.993-.404.644-.582.872-.782.872-.2 0-.379-.228-.783-.872-.496-.794-1.247-1.993-2.806-1.993-1.555 0-2.305 1.2-2.8 1.994-.764 1.222-.78 1.235-1.55.001-.495-.795-1.244-1.995-2.8-1.995-.658 0-1.193.535-1.193 1.194 0 .66.535 1.194 1.194 1.194.198 0 .39.257.772.87.496.795 1.244 1.995 2.8 1.995 1.556 0 2.306-1.2 2.801-1.994.385-.614.577-.87.776-.87.201 0 .38.227.783.87.497.795 1.247 1.994 2.806 1.994 1.558 0 2.309-1.2 2.805-1.993.404-.644.583-.872.783-.872.659 0 1.194-.535 1.194-1.194 0-.659-.535-1.194-1.194-1.194M9.79 17.908h31.517c.66 0 1.194-.535 1.194-1.194 0-.035-.018-.064-.02-.1-.053-.61-.55-1.094-1.174-1.094H9.79c-.659 0-1.194.535-1.194 1.194 0 .66.535 1.194 1.194 1.194M9.79 26.504h31.517c.66 0 1.194-.535 1.194-1.194 0-.053-.024-.098-.03-.15-.076-.585-.557-1.044-1.164-1.044H9.79c-.659 0-1.194.535-1.194 1.194 0 .659.535 1.194 1.194 1.194M9.79 35.1h31.517c.66 0 1.194-.536 1.194-1.195 0-.026-.014-.049-.015-.074-.041-.623-.546-1.12-1.179-1.12H9.79c-.659 0-1.194.535-1.194 1.194 0 .66.535 1.194 1.194 1.194M9.79 43.695h31.517c.66 0 1.194-.535 1.194-1.194 0-.66-.535-1.194-1.194-1.194H9.79c-.659 0-1.194.534-1.194 1.194 0 .659.535 1.194 1.194 1.194" transform="translate(0 -1)"/>
        <g transform="translate(0 -1) translate(0 .641)">
            <mask id="prefix__b" fill="#fff">
                <use xlink:href="#prefix__a"/>
            </mask>
            <path fill="#404750" d="M2.388 2.94h46.32v43.755c-.734-.103-1.478-.175-2.24-.175-8.901 0-16.143 7.242-16.143 16.144 0 .31.028.616.046.923H2.388V2.94zm30.325 59.724c0-7.585 6.17-13.755 13.755-13.755 7.585 0 13.754 6.17 13.754 13.755 0 7.584-6.17 13.754-13.754 13.754-7.586 0-13.755-6.17-13.755-13.754zm18.383-15.46V1.748c0-.66-.535-1.194-1.194-1.194H1.194C.534.553 0 1.088 0 1.747V64.78c0 .659.535 1.194 1.194 1.194H30.67c1.532 7.317 8.032 12.83 15.798 12.83 8.9 0 16.142-7.24 16.142-16.141 0-7.292-4.863-13.464-11.514-15.46z" mask="url(#prefix__b)"/>
        </g>
        <path fill="#FFF" d="M53.014 56.694L43.726 69.08l-4.645-4.646c-.467-.466-1.223-.466-1.688 0-.467.467-.467 1.222 0 1.69l5.618 5.617c.224.226.529.35.844.35l.085-.002c.345-.025.662-.199.87-.476l10.115-13.485c.395-.528.289-1.276-.24-1.672-.527-.396-1.274-.287-1.67.24" transform="translate(0 -1)"/>
    </g>
</svg>
