<svg width="70" height="64" viewBox="0 0 70 64" xmlns="http://www.w3.org/2000/svg" xmlns:xlink="http://www.w3.org/1999/xlink">
    <defs>
        <path id="pt4hi0wqea" d="M0 62.984h68.219V.568H0z"/>
    </defs>
    <g fill="none" fill-rule="evenodd">
        <path stroke="#404750" stroke-width="2.04" stroke-linecap="round" stroke-linejoin="round" d="m42.613 26.362 15.282-7.627-1.927-3.868-15.281 7.627zM55.968 14.867l5.267-.221-3.34 4.089zM58.974 14.741l.826 1.661"/>
        <g transform="translate(1 .448)">
            <path d="M49.182 22.228v-5.554c0-8.334-6.747-15.09-15.072-15.09-8.326 0-15.074 6.756-15.074 15.09v5.554a4.695 4.695 0 0 0-4.693 4.699 4.696 4.696 0 0 0 4.693 4.698v3.863c0 8.335 6.748 15.091 15.074 15.091 8.325 0 15.072-6.756 15.072-15.09v-3.864a4.695 4.695 0 0 0 4.694-4.698c0-2.596-2.1-4.699-4.694-4.699" fill="#FFF"/>
            <path d="M49.182 22.228v-5.554c0-8.334-6.747-15.09-15.072-15.09-8.326 0-15.074 6.756-15.074 15.09v5.554a4.695 4.695 0 0 0-4.693 4.699 4.696 4.696 0 0 0 4.693 4.698v3.863c0 8.335 6.748 15.091 15.074 15.091 8.325 0 15.072-6.756 15.072-15.09v-3.864a4.695 4.695 0 0 0 4.694-4.698c0-2.596-2.1-4.699-4.694-4.699zM18.308 54.853l-4.418-.285s-8.252-1.312-12.875 7.4h18.579a15.403 15.403 0 0 1-1.33-6.257c0-.29.028-.572.044-.858zM54.328 54.568l-5.207.336c.013.268.04.535.04.807 0 2.229-.48 4.343-1.328 6.258h19.37c-4.621-8.714-12.875-7.401-12.875-7.401z" stroke="#404750" stroke-width="2.04" stroke-linecap="round" stroke-linejoin="round"/>
            <path d="M43.321 47.404a15.101 15.101 0 0 0 2.003-1.877 15.446 15.446 0 0 1 3.797 9.377c.013.27.04.534.04.807 0 2.23-.48 4.342-1.328 6.257h-28.24a15.403 15.403 0 0 1-1.328-6.257c0-.29.027-.572.044-.858a15.417 15.417 0 0 1 4.177-9.728 15.07 15.07 0 0 0 1.887 1.898v.076" stroke="#404750" stroke-width="2.04" stroke-linecap="round" stroke-linejoin="round"/>
            <path d="M20.743 56.095c0 2.116.516 4.108 1.413 5.873h2.217V47.1a12.94 12.94 0 0 0-3.63 8.996M43.321 47.404c-.042.033-.087.064-.13.097v14.467h2.08a12.923 12.923 0 0 0 1.412-5.873c0-3.35-1.28-6.388-3.362-8.691" fill="#404750"/>
            <mask id="1r0m3ahr1b" fill="#fff">
                <use xlink:href="#pt4hi0wqea"/>
            </mask>
            <path fill="#1B6C92" mask="url(#1r0m3ahr1b)" d="M34.332 61.968h8.519V47.023h-8.52z"/>
            <path d="M34.088 50.584c-3.704 0-7.091-1.343-9.715-3.561v14.946H43.19V47.5a14.976 14.976 0 0 1-9.103 3.083zM28.19 37.468c0 3.149 2.55 5.7 5.695 5.7a5.698 5.698 0 0 0 5.696-5.7H28.19z" stroke="#404750" stroke-width="2.04" stroke-linecap="round" stroke-linejoin="round" mask="url(#1r0m3ahr1b)"/>
            <path d="M37.778 31.625a4.02 4.02 0 0 1-3.668 2.388 4.019 4.019 0 0 1-3.668-2.388H19.035v3.863c0 8.334 6.75 15.09 15.075 15.09 8.324 0 15.072-6.756 15.072-15.09v-3.863H37.778z" stroke="#404750" stroke-width="2.04" stroke-linecap="round" stroke-linejoin="round" mask="url(#1r0m3ahr1b)"/>
            <path d="M37.778 31.63a4.018 4.018 0 0 1-3.668 2.388 4.017 4.017 0 0 1-3.668-2.389H19.035v3.865c0 8.334 6.75 15.09 15.075 15.09 8.324 0 15.072-6.756 15.072-15.09v-3.865H37.778z" fill="#1B6C92" mask="url(#1r0m3ahr1b)"/>
            <path d="M37.756 31.63a4.018 4.018 0 0 1-3.668 2.388 4.017 4.017 0 0 1-3.668-2.389H19.013v3.865c0 8.334 6.75 15.09 15.075 15.09s15.073-6.756 15.073-15.09v-3.865H37.756z" stroke="#404750" stroke-width="2.04" stroke-linecap="round" stroke-linejoin="round" mask="url(#1r0m3ahr1b)"/>
            <path d="M28.169 37.473c0 3.149 2.55 5.7 5.694 5.7a5.698 5.698 0 0 0 5.696-5.7h-11.39z" fill="#FFF" mask="url(#1r0m3ahr1b)"/>
            <path d="M28.169 37.473c0 3.149 2.55 5.7 5.694 5.7a5.698 5.698 0 0 0 5.696-5.7h-11.39z" stroke="#404750" stroke-width="2.04" stroke-linecap="round" stroke-linejoin="round" mask="url(#1r0m3ahr1b)"/>
            <path d="M25.878 23.989a2.147 2.147 0 1 1 4.291 0 2.147 2.147 0 1 1-4.291 0M38.05 23.989a2.147 2.147 0 1 1 4.29 0c0 1.187-.96 2.149-2.145 2.149a2.147 2.147 0 0 1-2.146-2.149" fill="#404750" mask="url(#1r0m3ahr1b)"/>
            <path d="M19.037 22.231a13.053 13.053 0 0 0 9.959-11.22c4.733 6.274 11.91 10.572 20.186 11.217v-5.554c0-8.334-6.747-15.09-15.073-15.09-8.325 0-15.073 6.756-15.073 15.09v5.557z" fill="#1B6C92" mask="url(#1r0m3ahr1b)"/>
            <path d="M19.037 22.231a13.053 13.053 0 0 0 9.959-11.22c4.733 6.274 11.91 10.572 20.186 11.217v-5.554c0-8.334-6.747-15.09-15.073-15.09-8.325 0-15.073 6.756-15.073 15.09v5.557z" stroke="#404750" stroke-width="2.04" stroke-linecap="round" stroke-linejoin="round" mask="url(#1r0m3ahr1b)"/>
            <path d="M45.6 12.603a7.97 7.97 0 0 1 .406 2.52M33.864 4.413s5.106 0 8.477 3.271c.87.844 1.533 1.661 2.04 2.43" stroke="#404750" stroke-width="2.04" stroke-linecap="round" stroke-linejoin="round" mask="url(#1r0m3ahr1b)"/>
        </g>
    </g>
</svg>
