<svg xmlns="http://www.w3.org/2000/svg" xmlns:xlink="http://www.w3.org/1999/xlink" width="55" height="68" viewBox="0 0 55 68">
    <defs>
        <path id="a" d="M0 .722h54.846v67.216H0z"/>
        <path id="c" d="M0 68.279h54.846V1.06H0z"/>
    </defs>
    <g fill="none" fill-rule="evenodd" transform="translate(0 -1)">
        <g transform="translate(0 .34)">
            <mask id="b" fill="#fff">
                <use xlink:href="#a"/>
            </mask>
            <path fill="#404750" d="M52.738 22.42c0 14.402-4.302 26.086-12.787 34.726-5.396 5.497-10.879 7.947-12.43 8.568l-.099.039-.097-.039c-1.552-.62-7.034-3.072-12.431-8.568C6.409 48.506 2.108 36.822 2.108 22.42v-9.162l1.936-.323a55.32 55.32 0 0 0 23.224-9.73l.154-.113.156.113a55.32 55.32 0 0 0 23.224 9.73l1.936.323v9.162zm1.227-11.1l-2.816-.471A53.145 53.145 0 0 1 28.055.932a1.05 1.05 0 0 0-1.264 0 53.14 53.14 0 0 1-23.094 9.917L.88 11.32c-.51.086-.88.524-.88 1.044V22.42C0 37.245 4.665 49.8 13.49 58.73c6.692 6.77 13.318 9.059 13.597 9.153.212.072.451.072.672 0 .278-.094 6.905-2.383 13.596-9.154 8.826-8.93 13.49-21.485 13.49-36.31V12.365c0-.52-.37-.958-.88-1.044z" mask="url(#b)"/>
        </g>
        <path fill="#404750" d="M6.728 30.355c.398-.164.654-.548.654-.978a1.05 1.05 0 0 0-1.055-1.058 1.057 1.057 0 1 0 .401 2.036"/>
        <path fill="#404750" d="M48.72 16.127c-7.302-1.43-14.468-4.347-20.722-8.437a1.053 1.053 0 0 0-1.151 0 58.185 58.185 0 0 1-20.722 8.437c-.493.096-.85.533-.85 1.038 0 .065.003 6.518.013 6.941a1.06 1.06 0 0 0 1.053 1.036 1.058 1.058 0 0 0 1.054-1.08c-.009-.411-.013-5.598-.013-5.819v-.214l.209-.045a60.293 60.293 0 0 0 19.69-8.06l.142-.09.142.09a61.231 61.231 0 0 0 19.69 8.06l.21.046v4.731c0 20.656-10.298 32.952-19.935 37.57l-.114.055-.114-.056c-9.052-4.35-16.24-14.32-18.758-26.02a1.059 1.059 0 0 0-1.254-.808c-.275.058-.51.223-.663.46a1.063 1.063 0 0 0-.145.797c2.7 12.537 10.75 23.432 20.509 27.757.273.119.589.119.855-.002C43.882 55.333 49.572 36.61 49.572 22.76v-5.596c0-.505-.358-.942-.852-1.038"/>
        <path fill="#404750" d="M27.423 38.905a1.587 1.587 0 0 1-1.583-1.589c0-.876.71-1.588 1.583-1.588a1.588 1.588 0 0 1 0 3.177m0-5.293a3.701 3.701 0 0 0-3.69 3.704 3.701 3.701 0 0 0 3.69 3.705 3.701 3.701 0 0 0 3.69-3.705 3.701 3.701 0 0 0-3.69-3.704"/>
        <mask id="d" fill="#fff">
            <use xlink:href="#c"/>
        </mask>
        <path fill="#404750" d="M20.566 44.198H34.28V30.435H20.566v13.763zm2.637-17.467c0-2.336 1.894-4.235 4.22-4.235 2.327 0 4.22 1.899 4.22 4.235v1.588h-8.44v-1.588zm10.548 0c0-3.502-2.839-6.35-6.328-6.35-3.49 0-6.328 2.848-6.328 6.35v1.588h-1.583c-.581 0-1.054.475-1.054 1.058v15.88c0 .582.473 1.056 1.054 1.056h15.821c.58 0 1.054-.474 1.054-1.057v-15.88c0-.582-.473-1.057-1.054-1.057h-1.582v-1.588z" mask="url(#d)"/>
    </g>
</svg>
