<svg width="228" height="32" viewBox="0 0 228 32" xmlns="http://www.w3.org/2000/svg" xmlns:xlink="http://www.w3.org/1999/xlink">
    <defs>
        <path id="28rxo3859a" d="M0 0h31.07v31.075H0z"/>
        <path id="wuyl94z4xc" d="M0 32h228V0H0z"/>
    </defs>
    <g fill="none" fill-rule="evenodd">
        <mask id="j8k0sg1rib" fill="#fff">
            <use xlink:href="#28rxo3859a"/>
        </mask>
        <path d="M16.368 31.07c-2.228.044-3.828-.187-5.39-.665-1.199-.367-2.336-.88-3.413-1.526a15.447 15.447 0 0 1-3.744-3.131 15.383 15.383 0 0 1-3.26-6.065 15.782 15.782 0 0 1-.364-6.625c.322-1.966.985-3.813 2.032-5.51.322-.522.688-1.015 1.044-1.513.497-.696 1.086-1.314 1.71-1.892A15.414 15.414 0 0 1 13.71.107a15.719 15.719 0 0 1 3.497-.018c1.63.178 3.191.598 4.683 1.277.646.295 1.063.98 1.032 1.676a1.814 1.814 0 0 1-1.164 1.623c-.543.204-1.054.108-1.57-.122a11.01 11.01 0 0 0-3.193-.866c-.899-.109-1.8-.109-2.702-.017a11.71 11.71 0 0 0-3.767 1.034 11.884 11.884 0 0 0-3.16 2.14 11.993 11.993 0 0 0-2.518 3.374c-.53 1.052-.91 2.16-1.084 3.327a13.77 13.77 0 0 0-.176 1.851 11.651 11.651 0 0 0 .516 3.642 11.92 11.92 0 0 0 2.727 4.687 11.92 11.92 0 0 0 4.819 3.127 11.71 11.71 0 0 0 4.142.645 11.852 11.852 0 0 0 5.067-1.249c.647-.32 1.252-.706 1.832-1.137a11.612 11.612 0 0 0 2.01-1.91 11.902 11.902 0 0 0 2.19-3.965c.232-.713.396-1.442.491-2.184.102-.797.126-1.602.051-2.403-.073-.778.141-1.416.805-1.865 1.026-.693 2.52-.069 2.723 1.15.13.778.121 1.567.085 2.354a15.081 15.081 0 0 1-.403 2.864 15.526 15.526 0 0 1-.92 2.703 15.736 15.736 0 0 1-2.406 3.805 15.466 15.466 0 0 1-7.971 4.958c-1.172.299-2.363.447-2.978.462" fill="#003449" mask="url(#j8k0sg1rib)"/>
        <path d="m15.316 17.563 1.479-1.858c.75-.943 1.497-1.886 2.247-2.828 1.204-1.511 2.409-3.02 3.611-4.532.862-1.084 1.717-2.173 2.58-3.256.238-.297.472-.605.747-.866.701-.666 1.88-.668 2.63-.058.894.725 1.001 2.035.301 2.903-1.112 1.38-2.208 2.774-3.312 4.16l-1.784 2.243c-.327.41-.65.823-.978 1.233-.699.875-1.4 1.747-2.096 2.623-.72.905-1.433 1.816-2.152 2.722-.52.657-1.033 1.32-1.572 1.961-.734.873-2.139.925-2.957.113-1.28-1.268-2.547-2.549-3.82-3.823-.927-.929-1.853-1.86-2.787-2.782-.475-.47-.719-1.018-.694-1.695.03-.828.732-1.68 1.543-1.853.793-.17 1.46.04 2.03.615.885.895 1.78 1.78 2.67 2.672.732.732 1.462 1.466 2.194 2.2.033.033.07.062.12.106M46.012 15.49c2.506 0 3.968-1.497 3.968-3.45v-.066c0-2.247-1.56-3.451-4.066-3.451h-3.871v6.967h3.969zm-8.98-11.492h9.305c5.433 0 8.719 3.223 8.719 7.878v.066c0 5.274-4.099 8.008-9.207 8.008h-3.806v6.838h-5.01V3.998zM57.088 9.337h4.946v3.517c1.008-2.41 2.635-3.972 5.562-3.842v5.177h-.26c-3.285 0-5.302 1.985-5.302 6.152v6.447h-4.946V9.337zM80.677 16.695c-.292-2.213-1.593-3.71-3.675-3.71-2.05 0-3.384 1.463-3.774 3.71h7.45zM68.38 18.16v-.064c0-4.98 3.546-9.084 8.622-9.084 5.823 0 8.49 4.526 8.49 9.473 0 .391-.032.848-.064 1.303H73.292c.49 2.247 2.05 3.419 4.263 3.419 1.66 0 2.863-.521 4.23-1.791l2.83 2.507c-1.627 2.018-3.97 3.256-7.126 3.256-5.237 0-9.11-3.68-9.11-9.02z" fill="#003449"/>
        <path d="m100.987 17.25-3.026-7.393-3.026 7.393h6.052zm-5.27-13.415h4.62l9.762 22.955h-5.24l-2.082-5.112h-9.63l-2.083 5.112h-5.109l9.762-22.955zM125.133 18.096v-.065c0-2.898-1.952-4.819-4.262-4.819-2.31 0-4.23 1.921-4.23 4.819v.065c0 2.898 1.92 4.82 4.23 4.82 2.31 0 4.262-1.89 4.262-4.82zm-13.373-8.76h4.946v2.508c1.203-1.629 2.863-2.833 5.433-2.833 4.068 0 7.94 3.192 7.94 9.02v.065c0 5.829-3.807 9.02-7.94 9.02-2.635 0-4.262-1.205-5.433-2.605V32h-4.946V9.337zM146.083 18.096v-.065c0-2.898-1.952-4.819-4.262-4.819-2.31 0-4.23 1.921-4.23 4.819v.065c0 2.898 1.92 4.82 4.23 4.82 2.31 0 4.262-1.89 4.262-4.82zm-13.373-8.76h4.946v2.508c1.203-1.629 2.863-2.833 5.434-2.833 4.067 0 7.94 3.192 7.94 9.02v.065c0 5.829-3.808 9.02-7.94 9.02-2.636 0-4.263-1.205-5.434-2.605V32h-4.946V9.337zM154.19 9.337h4.946v3.517c1.009-2.41 2.636-3.973 5.564-3.842v5.177h-.26c-3.286 0-5.304 1.986-5.304 6.154v6.447h-4.946V9.337zM180.092 18.162v-.066c0-2.573-1.855-4.819-4.588-4.819-2.831 0-4.523 2.182-4.523 4.755v.064c0 2.572 1.855 4.82 4.588 4.82 2.83 0 4.523-2.182 4.523-4.754m-13.992 0v-.066c0-5.014 4.034-9.084 9.469-9.084 5.402 0 9.403 4.004 9.403 9.02v.064c0 5.015-4.034 9.085-9.468 9.085-5.401 0-9.404-4.005-9.404-9.02M184.973 9.337h5.238l3.905 11.69 3.937-11.69h5.141L196.33 26.92h-4.491zM215.12 20.636v-.88c-.847-.39-1.953-.65-3.157-.65-2.114 0-3.416.846-3.416 2.41v.065c0 1.334 1.106 2.116 2.7 2.116 2.31 0 3.872-1.27 3.872-3.061m-11.356 1.139v-.065c0-3.81 2.897-5.567 7.029-5.567 1.757 0 3.026.293 4.263.716v-.293c0-2.052-1.269-3.191-3.742-3.191-1.888 0-3.222.358-4.816.943l-1.237-3.777c1.92-.845 3.807-1.4 6.768-1.4 2.701 0 4.654.717 5.89 1.955 1.302 1.302 1.887 3.222 1.887 5.567V26.79h-4.783v-1.888c-1.204 1.335-2.864 2.214-5.27 2.214-3.287 0-5.989-1.889-5.989-5.341" fill="#009FC7"/>
        <mask id="fh03zz0jpd" fill="#fff">
            <use xlink:href="#wuyl94z4xc"/>
        </mask>
        <path fill="#009FC7" mask="url(#fh03zz0jpd)" d="M223.054 26.79H228V3.02h-4.946z"/>
    </g>
</svg>
