<?xml version="1.0" encoding="utf-8"?>
<!-- Generator: Adobe Illustrator 23.0.4, SVG Export Plug-In . SVG Version: 6.00 Build 0)  -->
<svg version="1.1" id="Layer_1" xmlns="http://www.w3.org/2000/svg" xmlns:xlink="http://www.w3.org/1999/xlink" x="0px" y="0px"
	 viewBox="0 0 78 64" style="enable-background:new 0 0 78 64;" xml:space="preserve">
<style type="text/css">
	.st0{fill-rule:evenodd;clip-rule:evenodd;fill:#404750;}
	.st1{filter:url(#Adobe_OpacityMaskFilter);}
	.st2{fill-rule:evenodd;clip-rule:evenodd;fill:#FFFFFF;}
	.st3{mask:url(#mask-2_1_);fill-rule:evenodd;clip-rule:evenodd;fill:#404750;}
</style>
<title>ic_roof</title>
<desc>Created with Sketch.</desc>
<g id="Designs">
	<g id="XL---Buy---Basics" transform="translate(-1000.000000, -719.000000)">
		<g id="Info-Bites" transform="translate(248.000000, 706.000000)">
			<g id="Section-1">
				<g id="Feat-Row-1">
					<g id="Feat-3" transform="translate(752.000000, 13.000000)">
						<g id="ic_roof">
							<path id="Fill-1" class="st0" d="M48,42.2l8.2-13.8l8.2,13.8H48z M56.1,24.9c-0.4,0-0.8,0.2-1.1,0.6L44.8,42.8
								c-0.2,0.4-0.2,0.8,0,1.2c0.2,0.4,0.6,0.6,1.1,0.6h20.6c0.4,0,0.8-0.2,1.1-0.6c0.2-0.4,0.2-0.8,0-1.2L57.2,25.5
								C57,25.1,56.6,24.9,56.1,24.9L56.1,24.9z"/>
							<g id="Group-5" transform="translate(0.000000, 0.461542)">
								<g id="Clip-4">
								</g>
								<defs>
									<filter id="Adobe_OpacityMaskFilter" filterUnits="userSpaceOnUse" x="0" y="13.3" width="77.8" height="36.9">
										<feColorMatrix  type="matrix" values="1 0 0 0 0  0 1 0 0 0  0 0 1 0 0  0 0 0 1 0"/>
									</filter>
								</defs>
								<mask maskUnits="userSpaceOnUse" x="0" y="13.3" width="77.8" height="36.9" id="mask-2_1_">
									<g class="st1">
										<polygon id="path-1_1_" class="st2" points="0,13.3 77.8,13.3 77.8,50.2 0,50.2 										"/>
									</g>
								</mask>
								<path id="Fill-3" class="st3" d="M29.9,47.8l15.4-26.1c0.3-0.6,0.1-1.3-0.4-1.6c-0.3-0.2-0.6-0.2-0.9-0.1
									c-0.3,0.1-0.6,0.3-0.7,0.6L27.1,47.8h-5L41,15.7h13L35,47.8H29.9z M3.4,47.8l19-32.1h8.3L16.2,40.4
									c-0.3,0.6-0.1,1.3,0.4,1.6c0.6,0.3,1.3,0.1,1.7-0.4l15.2-25.8h4.7L19.3,47.8H3.4z M76.6,47.8H37.8l18.3-30.9l14,23.6
									c0.2,0.3,0.4,0.5,0.7,0.6c0.3,0.1,0.6,0,0.9-0.1c0.6-0.3,0.8-1.1,0.4-1.6l-15-25.4c0,0-0.1-0.1-0.1-0.1
									c0-0.1-0.1-0.1-0.1-0.1c0,0-0.1-0.1-0.1-0.1c-0.1,0-0.1-0.1-0.1-0.1c-0.1,0-0.1-0.1-0.2-0.1c0,0-0.1,0-0.1,0
									c-0.1,0-0.1,0-0.2,0c-0.1,0-0.1,0-0.2,0H21.7c-0.4,0-0.8,0.2-1.1,0.6L0.2,48.4c-0.2,0.4-0.2,0.8,0,1.2
									c0.2,0.4,0.6,0.6,1.1,0.6h75.4c0.7,0,1.2-0.5,1.2-1.2C77.8,48.3,77.3,47.8,76.6,47.8L76.6,47.8z"/>
							</g>
						</g>
					</g>
				</g>
			</g>
		</g>
	</g>
</g>
</svg>
