<svg xmlns="http://www.w3.org/2000/svg" width="70" height="64" viewBox="0 0 70 64">
    <g fill="none" fill-rule="evenodd">
        <path stroke="#404750" stroke-linecap="round" stroke-linejoin="round" stroke-width="1.979" d="M18.609 55.1l-4.498-.289S5.706 53.48 1 62.33h18.918a15.624 15.624 0 0 1-1.354-6.357c0-.294.029-.58.045-.871zM55.285 54.811l-5.302.342c.014.273.042.542.042.819a15.62 15.62 0 0 1-1.352 6.357h19.723c-4.706-8.85-13.11-7.518-13.11-7.518z"/>
        <path stroke="#404750" stroke-linecap="round" stroke-linejoin="round" stroke-width="1.979" d="M44.078 47.533a15.434 15.434 0 0 0 2.039-1.906 15.654 15.654 0 0 1 3.866 9.526c.014.273.042.542.042.82 0 2.264-.49 4.411-1.353 6.356H19.917a15.624 15.624 0 0 1-1.353-6.357c0-.294.03-.58.045-.871.21-3.82 1.795-7.268 4.254-9.883a15.438 15.438 0 0 0 1.92 1.927v.079"/>
        <path stroke="#404750" stroke-linecap="round" stroke-linejoin="round" stroke-width="1.979" d="M34.676 50.764a15.29 15.29 0 0 1-9.892-3.619V62.33H43.945V47.632a15.265 15.265 0 0 1-9.269 3.132zM28.672 37.439c0 3.2 2.597 5.792 5.798 5.792 3.203 0 5.8-2.593 5.8-5.792H28.672z"/>
        <path fill="#FFF" d="M50.047 21.957v-5.641c0-8.468-6.872-15.332-15.348-15.332-8.478 0-15.349 6.864-15.349 15.332v5.641a4.776 4.776 0 0 0-4.778 4.773 4.776 4.776 0 0 0 4.778 4.773v3.925c0 8.467 6.871 15.33 15.349 15.33 8.476 0 15.348-6.863 15.348-15.33v-3.925a4.776 4.776 0 0 0 4.779-4.773 4.776 4.776 0 0 0-4.78-4.773"/>
        <path stroke="#404750" stroke-linecap="round" stroke-linejoin="round" stroke-width="1.979" d="M50.047 21.957v-5.641c0-8.468-6.872-15.332-15.348-15.332-8.478 0-15.349 6.864-15.349 15.332v5.641a4.776 4.776 0 0 0-4.778 4.773 4.776 4.776 0 0 0 4.778 4.773v3.925c0 8.467 6.871 15.33 15.349 15.33 8.476 0 15.348-6.863 15.348-15.33v-3.925a4.776 4.776 0 0 0 4.779-4.773 4.776 4.776 0 0 0-4.78-4.773z"/>
        <path stroke="#404750" stroke-linecap="round" stroke-linejoin="round" stroke-width="1.979" d="M38.433 31.503a4.092 4.092 0 0 1-3.735 2.426 4.09 4.09 0 0 1-3.735-2.426H19.35v3.925c0 8.467 6.871 15.331 15.348 15.331 8.478 0 15.349-6.864 15.349-15.33v-3.926H38.433z"/>
        <path stroke="#404750" stroke-linecap="round" stroke-linejoin="round" stroke-width="1.979" d="M38.411 31.508a4.091 4.091 0 0 1-3.735 2.427 4.09 4.09 0 0 1-3.735-2.427H19.328v3.925c0 8.467 6.87 15.331 15.348 15.331 8.478 0 15.349-6.864 15.349-15.331v-3.925H38.41z"/>
        <path stroke="#404750" stroke-linecap="round" stroke-linejoin="round" stroke-width="1.979" d="M28.65 37.444c0 3.2 2.596 5.792 5.798 5.792 3.203 0 5.8-2.593 5.8-5.792H28.65zM26.317 23.746c0-1.205.977-2.182 2.185-2.182 1.206 0 2.184.977 2.184 2.182a2.184 2.184 0 0 1-2.184 2.182 2.183 2.183 0 0 1-2.185-2.182zM38.71 23.746a2.185 2.185 0 1 1 4.37 0c0 1.206-.98 2.182-2.184 2.182a2.184 2.184 0 0 1-2.186-2.182z"/>
        <path stroke="#404750" stroke-linecap="round" stroke-linejoin="round" stroke-width="1.979" d="M19.35 21.96c5.388-1.264 9.507-5.801 10.143-11.4 4.819 6.376 12.125 10.741 20.553 11.397v-5.641c0-8.467-6.87-15.332-15.348-15.332-8.476 0-15.348 6.865-15.348 15.332v5.644z"/>
    </g>
</svg>
