<svg width="72" height="60" viewBox="0 0 72 60" xmlns="http://www.w3.org/2000/svg">
    <g stroke="#00AB84" stroke-width="3.5" fill="none" fill-rule="evenodd" stroke-linecap="round" stroke-linejoin="round">
        <path d="M44.192 19.962a7.394 7.394 0 0 0-1.37-2.3 6.436 6.436 0 0 0-2.028-1.553 5.689 5.689 0 0 0-2.475-.571H33.682a5.69 5.69 0 0 0-2.477.57 6.45 6.45 0 0 0-2.027 1.555 7.394 7.394 0 0 0-1.37 2.299 8.014 8.014 0 0 0-.503 2.807c0 .994.18 1.943.503 2.808a7.421 7.421 0 0 0 1.37 2.3 6.446 6.446 0 0 0 2.027 1.552c.763.368 1.6.57 2.477.57h4.638c.875 0 1.712.204 2.474.572.763.366 1.45.898 2.028 1.553a7.394 7.394 0 0 1 1.37 2.3c.324.863.503 1.812.503 2.807a7.98 7.98 0 0 1-.503 2.807 7.413 7.413 0 0 1-1.37 2.3 6.432 6.432 0 0 1-2.028 1.552 5.672 5.672 0 0 1-2.475.571H33.682a5.673 5.673 0 0 1-2.477-.57 6.446 6.446 0 0 1-2.027-1.553 7.413 7.413 0 0 1-1.37-2.3M36 12.646v34.708M13.882 34.036 7.94 25.964 2 34.036M58.118 25.964l5.941 8.072L70 25.964"/>
        <path d="M61.148 42.432C56.56 51.658 47.022 58 36 58 20.503 58 7.942 45.463 7.942 30M10.852 17.568C15.44 8.342 24.978 2 36 2c15.497 0 28.06 12.537 28.06 28"/>
    </g>
</svg>
