<svg width="32" height="25" viewBox="0 0 32 25" xmlns="http://www.w3.org/2000/svg">
    <g stroke="#FFF" stroke-width="1.28" fill="none" fill-rule="evenodd" stroke-linecap="round" stroke-linejoin="round">
        <path d="M16 16.345s-4.473-2.79-4.473-5.258a2.486 2.486 0 0 1 2.476-2.497c.822 0 1.546.404 1.997 1.026a2.463 2.463 0 0 1 1.998-1.026 2.485 2.485 0 0 1 2.475 2.497c0 2.332-4.473 5.258-4.473 5.258zM24.466 1.952l-3.433 3.086 3.451.452zM7.534 23.048l3.432-3.086-3.45-.452zM22.79 3.453a10.41 10.41 0 0 0-7.079-2.446c-3.318.125-6.306 1.78-8.195 4.539"/>
        <path d="M9.206 21.543a10.406 10.406 0 0 0 7.083 2.45c3.319-.125 6.306-1.78 8.195-4.538M23.458 10.012c0 1.541 1.238 2.79 2.766 2.79 1.527 0 2.766-1.249 2.766-2.79 0-1.54-1.239-2.79-2.766-2.79-1.528 0-2.766 1.25-2.766 2.79zM31 17.634c0-2.254-2.138-3.544-4.777-3.544-2.637 0-4.775 1.29-4.775 3.544M3.01 10.012c0 1.541 1.238 2.79 2.766 2.79 1.527 0 2.766-1.249 2.766-2.79 0-1.54-1.239-2.79-2.766-2.79-1.528 0-2.766 1.25-2.766 2.79zM10.552 17.634c0-2.254-2.138-3.544-4.776-3.544S1 15.38 1 17.634"/>
    </g>
</svg>
