<svg width="71" height="74" viewBox="0 0 71 74" xmlns="http://www.w3.org/2000/svg" xmlns:xlink="http://www.w3.org/1999/xlink">
    <defs>
        <path id="xf18gku14a" d="M0 73.67h70.502V0H0z"/>
    </defs>
    <g fill="none" fill-rule="evenodd">
        <path d="M39.35 5.412a2.492 2.492 0 0 1-2.49 2.493 2.491 2.491 0 0 1-2.49-2.493 2.49 2.49 0 0 1 2.49-2.492 2.491 2.491 0 0 1 2.49 2.492" fill="#1B6C92"/>
        <mask id="otubns8mgb" fill="#fff">
            <use xlink:href="#xf18gku14a"/>
        </mask>
        <path fill="#1B6C92" mask="url(#otubns8mgb)" d="M35.923 41.468h25.591v-2.906h-25.59zM9.069 32.151H35.61v-2.906H9.069zM20.526 72.359h29.301v-2.907H20.526z"/>
        <path d="M38.337 4.4a3.087 3.087 0 1 1-6.172 0 3.087 3.087 0 1 1 6.172 0zM35.251 7.489V66.18M50.679 72.359H19.823a6.175 6.175 0 0 1 6.171-6.18h18.514a6.175 6.175 0 0 1 6.17 6.18zM35.251 32.201H10.567l-9.258-9.268 9.258-9.266H35.25v9.266zM59.936 41.468H35.252V22.934H59.935l9.257 9.267z" stroke="#404750" stroke-width="2.612" stroke-linecap="round" stroke-linejoin="round" mask="url(#otubns8mgb)"/>
        <path stroke="#1B6C92" stroke-width="2.612" stroke-linecap="round" stroke-linejoin="round" mask="url(#otubns8mgb)" d="M13.652 19.846H29.08"/>
        <path stroke="#404750" stroke-width="2.612" stroke-linecap="round" stroke-linejoin="round" mask="url(#otubns8mgb)" d="M41.422 29.112H56.85M41.422 35.29H56.85"/>
    </g>
</svg>
