<svg width="71" height="75" viewBox="0 0 71 75" xmlns="http://www.w3.org/2000/svg" xmlns:xlink="http://www.w3.org/1999/xlink">
    <defs>
        <path id="eyizjgaipa" d="M0 73.973h70.35V.3H0z"/>
    </defs>
    <g fill="none" fill-rule="evenodd">
        <path stroke="#404750" stroke-width="2.025" stroke-linecap="round" stroke-linejoin="round" d="M22.739 67.445h33.956M35.175 8.282v6.228M13.657 14.51h43.037"/>
        <g transform="translate(0 .728)">
            <path stroke="#404750" stroke-width="2.025" stroke-linecap="round" stroke-linejoin="round" d="M25.953 44.921 13.657 13.783 1.361 44.92M68.99 44.921 56.694 13.783 44.397 44.92"/>
            <path d="M17.505 43.248a3.534 3.534 0 0 0-.644-1.096 3.007 3.007 0 0 0-.952-.74 2.64 2.64 0 0 0-1.163-.273h-2.178c-.412 0-.806.098-1.164.273-.358.174-.68.427-.952.74-.271.313-.491.685-.643 1.096a3.861 3.861 0 0 0-.237 1.34c0 .473.085.926.237 1.338.152.412.372.784.643 1.096.272.312.594.565.952.74.358.176.752.273 1.164.273h2.178c.412 0 .805.097 1.163.271.358.176.681.429.952.741.272.312.492.684.644 1.096.152.412.236.865.236 1.34 0 .474-.084.926-.236 1.338a3.534 3.534 0 0 1-.644 1.096c-.27.312-.594.566-.952.74-.358.176-.751.273-1.163.273h-2.178a2.63 2.63 0 0 1-1.164-.272 3.033 3.033 0 0 1-.952-.741 3.552 3.552 0 0 1-.643-1.096M13.657 39.76v16.549M61.612 44.538v-2.34h-1.967v.607l-2.951-2.598-7.54 6.642h1.311v6.64h4.59v-3.984h3.279v3.985h4.59v-6.641h1.31z" stroke="#404750" stroke-width="2.025" stroke-linecap="round" stroke-linejoin="round"/>
            <mask id="dokry1mfhb" fill="#fff">
                <use xlink:href="#eyizjgaipa"/>
            </mask>
            <path stroke="#404750" stroke-width="2.025" stroke-linecap="round" stroke-linejoin="round" mask="url(#dokry1mfhb)" d="M32.101 66.717h6.149V13.783H32.1zM7.509 72.945h55.333M38.25 4.441c0 1.72-1.377 3.114-3.075 3.114-1.698 0-3.074-1.394-3.074-3.114s1.376-3.114 3.074-3.114 3.074 1.394 3.074 3.114zM44.051 48.035c0-7.073 5.661-12.806 12.643-12.806 6.983 0 12.642 5.733 12.642 12.806 0 7.072-5.66 12.805-12.642 12.805-6.982 0-12.643-5.733-12.643-12.805zM1.014 48.035c0-7.073 5.661-12.806 12.643-12.806 6.982 0 12.643 5.733 12.643 12.806 0 7.072-5.661 12.805-12.643 12.805-6.982 0-12.643-5.733-12.643-12.805zM12.846 66.718h6.106"/>
        </g>
    </g>
</svg>
