<svg xmlns="http://www.w3.org/2000/svg" xmlns:xlink="http://www.w3.org/1999/xlink" width="77" height="78" viewBox="0 0 77 78">
    <defs>
        <path id="a" d="M0 77.918h75.305V.316H0z"/>
    </defs>
    <g fill="none" fill-rule="evenodd">
        <path fill="#ECECEC" d="M38.653 70.042h3.29V14.284h-3.29z"/>
        <path stroke="#404750" stroke-linecap="round" stroke-linejoin="round" stroke-width="3" d="M25.34 70.042h36.347M38.652 7.724v6.56M15.619 14.284h46.068"/>
        <g transform="translate(1 -.234)">
            <path stroke="#404750" stroke-linecap="round" stroke-linejoin="round" stroke-width="3" d="M27.78 47.317l-13.161-32.8-13.162 32.8M73.849 47.317l-13.162-32.8-13.163 32.8"/>
            <path fill="#ECECEC" d="M60.687 37.107c-.908 0-1.793.093-2.65.263 5.324 1.495 9.231 6.36 9.231 12.145 0 6.973-5.672 12.627-12.669 12.627-.326 0-.645-.024-.964-.048a13.48 13.48 0 0 0 7.052 1.991c7.474 0 13.532-6.038 13.532-13.488 0-7.45-6.058-13.49-13.532-13.49M14.619 37.107c-.907 0-1.793.093-2.65.263 5.324 1.495 9.231 6.36 9.231 12.145 0 6.973-5.673 12.627-12.669 12.627-.326 0-.645-.024-.964-.048a13.48 13.48 0 0 0 7.052 1.991c7.474 0 13.532-6.038 13.532-13.488 0-7.45-6.058-13.49-13.532-13.49"/>
            <path stroke="#404750" stroke-linecap="round" stroke-linejoin="round" stroke-width="2.16" d="M18.738 45.555a3.71 3.71 0 0 0-.69-1.155 3.212 3.212 0 0 0-1.02-.78 2.863 2.863 0 0 0-1.243-.287h-2.332c-.441 0-.863.103-1.246.287s-.728.45-1.02.78c-.29.33-.525.721-.688 1.155a4.01 4.01 0 0 0-.253 1.41c0 .5.09.976.253 1.41.163.434.399.826.689 1.155.29.329.636.595 1.02.78.382.184.804.287 1.245.287h2.332c.44 0 .86.102 1.244.286.383.185.73.451 1.02.78.29.329.526.72.689 1.155.163.434.253.91.253 1.41 0 .5-.09.976-.253 1.41a3.71 3.71 0 0 1-.69 1.155c-.29.329-.636.596-1.02.78a2.848 2.848 0 0 1-1.243.287h-2.332c-.441 0-.863-.102-1.246-.287a3.24 3.24 0 0 1-1.02-.78 3.729 3.729 0 0 1-.688-1.155M14.619 41.88v17.432M65.951 46.914v-2.465h-2.105v.639l-3.16-2.737-8.07 6.996h1.403v6.996h4.913v-4.198h3.51v4.198h4.913v-6.996h1.403z"/>
            <mask id="b" fill="#fff">
                <use xlink:href="#a"/>
            </mask>
            <path stroke="#404750" stroke-linecap="round" stroke-linejoin="round" stroke-width="3" d="M34.362 70.275h6.581V14.518h-6.581z" mask="url(#b)"/>
            <path fill="#ECECEC" d="M9.488 76.836h55.94v-3.93H9.487z" mask="url(#b)"/>
            <path stroke="#404750" stroke-linecap="round" stroke-linejoin="round" stroke-width="3" d="M8.038 76.836h59.23" mask="url(#b)"/>
            <path fill="#ECECEC" d="M37.652 1.398a3.26 3.26 0 0 0-1.532.394 3.271 3.271 0 0 1 2.163 3.07c0 1.256-.718 2.334-1.76 2.885.354.13.73.211 1.13.211a3.285 3.285 0 0 0 3.29-3.28 3.285 3.285 0 0 0-3.29-3.28" mask="url(#b)"/>
            <path stroke="#404750" stroke-linecap="round" stroke-linejoin="round" stroke-width="3" d="M40.943 4.678a3.285 3.285 0 0 1-3.29 3.28 3.285 3.285 0 0 1-3.292-3.28 3.285 3.285 0 0 1 3.291-3.28 3.285 3.285 0 0 1 3.29 3.28zM47.153 50.597c0-7.45 6.06-13.489 13.534-13.489 7.474 0 13.532 6.039 13.532 13.489 0 7.45-6.058 13.488-13.532 13.488s-13.534-6.039-13.534-13.488zM1.086 50.597c0-7.45 6.06-13.489 13.532-13.489 7.474 0 13.534 6.039 13.534 13.489 0 7.45-6.06 13.488-13.534 13.488-7.473 0-13.532-6.039-13.532-13.488zM13.75 70.276h6.536" mask="url(#b)"/>
        </g>
    </g>
</svg>
