<svg width="36" height="36" viewBox="0 0 36 36" xmlns="http://www.w3.org/2000/svg">
    <g stroke="#333940" stroke-width="2.154" fill="none" fill-rule="evenodd" stroke-linecap="round" stroke-linejoin="round">
        <path d="M7.565 28.435H3.077A1.077 1.077 0 0 1 2 27.358V18.38c0-.594.482-1.077 1.077-1.077h4.488v11.13zM32.923 28.435h-4.488v-11.13h4.488c.595 0 1.077.482 1.077 1.076v8.977c0 .595-.482 1.077-1.077 1.077z"/>
        <path d="M4.782 17.304v-2.086C4.782 7.913 10.695 2 18 2c3.645 0 6.956 1.475 9.35 3.868a13.186 13.186 0 0 1 3.867 9.35v2.086M21.478 34h-5.565a1.392 1.392 0 0 1 0-2.782h5.565V34zM21.478 32.609h5.565a4.174 4.174 0 0 0 4.174-4.174"/>
    </g>
</svg>
