<svg width="42" height="55" viewBox="0 0 42 55" xmlns="http://www.w3.org/2000/svg">
    <g fill="#333940" stroke="#333940" stroke-width=".5" fill-rule="evenodd">
        <path d="M20.403 24.024a.694.694 0 0 0-.09.327v5.279h-2.31v-2.285a.71.71 0 0 0-.706-.71.71.71 0 0 0-.707.71v2.285h-2.31v-5.28a.7.7 0 0 0-.09-.326l-.012-.025 3.092-3.109.027-.027 3.1 3.116.019.02-.013.025zm-2.606-4.668a.705.705 0 0 0-1 0l-5.212 5.241a.714.714 0 0 0 0 1.005.7.7 0 0 0 .999 0l.283-.285v5.023c0 .392.317.71.706.71h7.448a.71.71 0 0 0 .706-.71v-5.023l.283.285a.704.704 0 0 0 .999 0 .714.714 0 0 0 0-1.005l-5.212-5.24z"/>
        <path d="M34.11 7.926v3.206H3.449l-.456-3.206h31.119zM5.73 33.566h23.342V16.61H5.73v16.955zM10.05 14.75h14.705v-1.758H10.049v1.758zM35.167 1.01a.923.923 0 0 0-.737.218.933.933 0 0 0-.32.703v4.135H1.926a.923.923 0 0 0-.699.32.934.934 0 0 0-.217.742l.72 5.066a.93.93 0 0 0 .915.798h5.554v1.758H4.805a.93.93 0 0 0-.926.93v18.815c0 .513.416.93.926.93h25.192c.51 0 .926-.417.926-.93V15.68a.93.93 0 0 0-.926-.93h-3.393v-1.758h7.507V53.07c0 .513.415.93.925.93a.93.93 0 0 0 .925-.93V3.004l3.188.457V53.07c0 .513.416.93.926.93a.93.93 0 0 0 .925-.93V2.654a.933.933 0 0 0-.794-.92l-5.039-.725z"/>
    </g>
</svg>
