<svg width="20" height="32" viewBox="0 0 20 32" fill="none" xmlns="http://www.w3.org/2000/svg">
<path fill-rule="evenodd" clip-rule="evenodd" d="M11.503 31.3037L19.3923 22.5931C20.2137 21.6873 20.201 20.2282 19.3668 19.3339C18.5327 18.4419 17.187 18.4534 16.3656 19.3616L12.1185 24.0522L12.161 2.31165C12.1631 1.037 11.2165 0.00436658 10.0427 -0.00024327C8.86898 -0.000243167 7.9181 1.02778 7.91598 2.30012L7.87353 24.0407L3.64339 19.3293C2.82623 18.4188 1.47845 18.4004 0.642187 19.2901C-0.198321 20.1775 -0.215302 21.6366 0.603981 22.5494L8.46358 31.3037C8.46358 31.306 8.46358 31.3106 8.46571 31.306C8.46783 31.3129 8.46995 31.3152 8.4742 31.3152C8.48481 31.3267 8.48905 31.3313 8.4933 31.3359C8.50816 31.3521 8.51028 31.3544 8.5124 31.3544C8.8902 31.7508 9.40597 31.9975 9.97268 31.9998C10.5797 31.9998 11.1167 31.7324 11.503 31.3037Z" fill="#009FC7"/>
</svg>
