<svg width="20" height="32" viewBox="0 0 20 32" fill="none" xmlns="http://www.w3.org/2000/svg">
<path fill-rule="evenodd" clip-rule="evenodd" d="M8.49749 0.695858L0.608178 9.40637C-0.213228 10.3122 -0.200493 11.7713 0.633648 12.6656C1.46779 13.5576 2.81345 13.5461 3.63486 12.6379L7.88197 7.94732L7.83952 29.6879C7.8374 30.9625 8.78403 31.9951 9.95777 31.9998C11.1315 31.9998 12.0824 30.9717 12.0845 29.6994L12.127 7.95884L16.3571 12.6702C17.1743 13.5807 18.522 13.5991 19.3583 12.7094C20.1988 11.822 20.2158 10.3629 19.3965 9.45016L11.5369 0.695858C11.5369 0.693554 11.5369 0.688944 11.5348 0.693554C11.5327 0.68664 11.5305 0.684334 11.5263 0.684334C11.5157 0.672808 11.5114 0.668198 11.5072 0.663589C11.4923 0.647453 11.4902 0.645149 11.4881 0.645149C11.1103 0.248692 10.5945 0.00205994 10.0278 -0.000244141C9.42078 -0.000244141 8.88379 0.267132 8.49749 0.695858Z" fill="#009FC7"/>
</svg>
