<svg width="38" height="25" viewBox="0 0 38 25" xmlns="http://www.w3.org/2000/svg">
    <g stroke="#FFF" stroke-width="1.4" fill="none" fill-rule="evenodd" stroke-linecap="round" stroke-linejoin="round">
        <path d="M24.038 8.837c2.135 0 3.868-1.755 3.868-3.918C27.906 2.754 26.173 1 24.038 1c-2.138 0-3.87 1.754-3.87 3.919 0 2.163 1.732 3.918 3.87 3.918zM12.835 2.546C10.772 2.546 9.1 4.24 9.1 6.33c0 2.088 1.672 3.783 3.735 3.783 2.063 0 3.735-1.695 3.735-3.783 0-2.09-1.672-3.783-3.735-3.783zM20.56 18.332c-.558-.25-2.428-.77-3.077-.77V24M18.851 13.46c-1.024-.395-2.674-.492-3.659-.522-.84-.028-1.44.011-3.357-.183-4.255-.433-6.627-3.305-8.222-5.141-.789-.907-1.855-.516-2.273-.03-.549.64-.375 1.354.106 2.14C4.761 15.142 9.142 16.6 9.142 16.6l.582 7.4"/>
        <path d="m27.995 24 .79-8.45s4.735-1.443 7.81-5.88c.526-.758.556-1.515-.007-2.091-.449-.457-1.348-.835-2.195.018-1.57 1.58-3.876 3.23-7.942 3.967-1.323.24-2.686.21-3.583.229-1.602.032-3.137.605-4.017 1.667 0 0 1.726.845 1.726 3.099v7.44"/>
    </g>
</svg>
