<svg xmlns="http://www.w3.org/2000/svg" width="67" height="66" viewBox="0 0 67 66">
    <g fill="none" fill-rule="evenodd" stroke="#404750" stroke-linecap="round" stroke-linejoin="round" stroke-width="2.76">
        <path d="M32.13 44.935h-5.478v16.34H7.478v-32.68H2L33.5 1.361 45.826 12.01V9.53h8.218v9.587L65 28.595h-5.478v6.894"/>
        <path d="M65 47.659c0 9.025-7.359 16.34-16.435 16.34-9.077 0-16.434-7.315-16.434-16.34 0-9.024 7.357-16.34 16.434-16.34 9.076 0 16.435 7.316 16.435 16.34z"/>
        <path d="M54.044 41.658a6 6 0 0 0-1.569-1.23c-1.428-.793-3.226-1.167-4.842-.835-1.72.353-3.383 1.732-3.508 3.56-.302 4.4 5.826 4.069 8.048 6.475 1.038 1.122 1.383 2.688.586 4.045-1.61 2.748-5.645 2.583-8.104 1.219a6.004 6.004 0 0 1-1.568-1.231M48.565 36.765v21.788"/>
    </g>
</svg>
