<svg xmlns="http://www.w3.org/2000/svg" width="59" height="59" viewBox="0 0 59 59">
    <path fill="#404750" fill-rule="evenodd" d="M48.992 34.796c0 1.38-1.13 2.5-2.525 2.5-1.396 0-2.525-1.12-2.525-2.5s1.129-2.5 2.525-2.5 2.525 1.12 2.525 2.5zm7.72 4.861H45.488c-2.623 0-4.757-2.112-4.757-4.711v-.486c0-2.598 2.134-4.71 4.757-4.71h11.224v9.907zm-2.859 13.681c0 1.873-1.54 3.397-3.432 3.397H5.72c-1.893 0-3.433-1.524-3.433-3.397V14.463c0-1.873 1.54-3.396 3.433-3.396h12.875l-5.485 3.02H6.433c-.632 0-1.143.507-1.143 1.131 0 .625.511 1.132 1.143 1.132h47.42v11.136h-8.365c-3.884 0-7.045 3.13-7.045 6.975v.486c0 3.846 3.161 6.976 7.045 6.976h8.365v11.415zm-14.82-50.93c.535-.298 1.257-.09 1.553.439l6.313 11.238H17.82L39.031 2.407zm11.388 8.659c1.762 0 3.201 1.324 3.394 3.019h-4.298l-1.695-3.02h2.6zM59 27.485h-2.86V14.463c0-3.122-2.565-5.662-5.719-5.662H46.55l-3.964-7.054a3.433 3.433 0 0 0-3-1.747c-.581 0-1.157.148-1.666.428l-15.21 8.373H5.718C2.567 8.801 0 11.341 0 14.463v38.875C0 56.46 2.566 59 5.72 59H50.42c3.154 0 5.72-2.54 5.72-5.662V41.921H59V27.485z"/>
</svg>
