<svg width="48" height="48" viewBox="0 0 48 48" fill="none" xmlns="http://www.w3.org/2000/svg">
    <circle cx="24" cy="24" r="24" fill="#D4FBE9"/>
    <path d="M27.539 19.658a3.15 3.15 0 0 0-.594-.997 2.825 2.825 0 0 0-.875-.673c-.33-.16-.69-.25-1.072-.25h-2c-.377 0-.738.09-1.072.25-.329.159-.626.387-.875.673-.25.281-.451.62-.594.997a3.402 3.402 0 0 0-.218 1.215c0 .43.08.838.218 1.214.138.377.34.711.594.998.25.28.546.514.875.673.33.16.69.25 1.072.25h2c.377 0 .737.09 1.072.249.328.159.625.387.875.673.25.281.45.62.594.997a3.523 3.523 0 0 1 0 2.43c-.138.376-.34.71-.594.997-.25.28-.547.514-.875.673-.33.16-.69.25-1.072.25h-2a2.48 2.48 0 0 1-1.072-.25 2.749 2.749 0 0 1-.875-.673c-.25-.281-.451-.62-.594-.997M24.001 16.492v15.015" stroke="#007E5F" stroke-width="2.25" stroke-linecap="round" stroke-linejoin="round"/>
    <path d="M24 36c-6.62 0-12-5.383-12-11.997S17.385 12 24 12s12 5.383 12 11.997-5.385 11.998-12 11.998" stroke="#007E5F" stroke-width="2.25" stroke-linecap="round" stroke-linejoin="round"/>
</svg>
