<svg width="24" height="24" viewBox="0 0 24 24" fill="none" xmlns="http://www.w3.org/2000/svg">
<g id="ic_call">
<rect id="Rectangle" width="24" height="24" rx="12" fill="#004E3C"/>
<path id="ic_phone" fill-rule="evenodd" clip-rule="evenodd" d="M14.0751 14.722L15.2012 13.5965C15.4425 13.3552 15.8328 13.3552 16.074 13.5965L17.8191 15.3409C18.0603 15.5822 18.0603 15.9725 17.8191 16.2138L16.9462 17.086C16.369 17.6627 15.5751 17.9949 14.7591 17.9999C13.7012 18.0075 12.7728 17.3557 11.9208 16.8018C10.8308 16.0932 9.82719 15.2519 8.93921 14.3026C7.94954 13.2447 7.00535 11.9758 6.34094 10.6848C5.82811 9.68818 5.89821 8.45974 6.52157 7.52751C6.63525 7.35698 6.76535 7.19781 6.91061 7.05318L7.78344 6.18095C8.02407 5.93968 8.41501 5.93968 8.65627 6.18095L10.4019 7.92541C10.6425 8.16668 10.6425 8.557 10.4013 8.79827L9.2752 9.92377C9.06552 10.1335 9.02952 10.4682 9.19815 10.712C10.3078 12.3137 11.6846 13.6899 13.2863 14.799C13.5307 14.9683 13.8648 14.9323 14.0751 14.722Z" fill="white"/>
</g>
</svg>
