<svg width="32" height="33" viewBox="0 0 32 33" fill="none" xmlns="http://www.w3.org/2000/svg">
<path fill-rule="evenodd" clip-rule="evenodd" d="M15.9997 22.9323C15.6913 22.9323 15.3937 22.811 15.1697 22.5922L7.81704 15.4013C7.3398 14.9344 7.32543 14.1627 7.78291 13.6769C8.2416 13.1923 9.00028 13.1765 9.47633 13.6428L15.8829 19.9083L28.2787 4.09784C28.6919 3.5718 29.4452 3.48646 29.962 3.90522C30.4793 4.32581 30.5632 5.09262 30.1512 5.61927L16.9356 22.4739C16.7254 22.7421 16.4141 22.9073 16.0787 22.9299C16.0524 22.9317 16.026 22.9323 15.9997 22.9323Z" fill="#333940"/>
<path fill-rule="evenodd" clip-rule="evenodd" d="M16 32.5737C7.17784 32.5737 0 25.2677 0 16.2866C0 7.30606 7.17784 0 16 0C18.2874 0 20.497 0.480935 22.5665 1.43C23.1695 1.70613 23.4383 2.42845 23.1665 3.04226C22.8952 3.65547 22.1856 3.92855 21.5826 3.65303C19.8246 2.8466 17.9461 2.4382 16 2.4382C8.4988 2.4382 2.39521 8.65073 2.39521 16.2866C2.39521 23.923 8.4988 30.1355 16 30.1355C23.5018 30.1355 29.6054 23.923 29.6054 16.2866C29.6054 15.8715 29.5862 15.449 29.5503 15.0315C29.4916 14.361 29.9784 13.7685 30.6371 13.7094C31.2988 13.6618 31.8778 14.1458 31.9359 14.8157C31.979 15.3046 32.0006 15.7995 32.0006 16.2866C32.0006 25.2677 24.8222 32.5737 16 32.5737Z" fill="#333940"/>
</svg>
