<svg width="20" height="20" viewBox="0 0 20 20" fill="none" xmlns="http://www.w3.org/2000/svg">
<path fill-rule="evenodd" clip-rule="evenodd" d="M0 10C0 4.4775 4.4775 0 10 0C15.5233 0 20 4.4775 20 10C20 15.5233 15.5233 20 10 20C4.4775 20 0 15.5233 0 10ZM10 12.7542C9.80771 12.7539 9.62334 12.6775 9.4873 12.5416C9.35125 12.4057 9.27461 12.2215 9.27417 12.0292V4.36083C9.2831 4.17435 9.36348 3.99846 9.49862 3.86964C9.63376 3.74082 9.8133 3.66896 10 3.66896C10.1867 3.66896 10.3662 3.74082 10.5014 3.86964C10.6365 3.99846 10.7169 4.17435 10.7258 4.36083V12.0275C10.7258 12.4283 10.4008 12.7533 10 12.7533M9.18333 15.5483C9.18328 15.4411 9.20435 15.3349 9.24534 15.2358C9.28633 15.1367 9.34644 15.0466 9.42223 14.9707C9.49803 14.8949 9.58803 14.8347 9.68709 14.7936C9.78615 14.7525 9.89234 14.7313 9.99958 14.7312C10.1068 14.7312 10.213 14.7523 10.3121 14.7933C10.4112 14.8342 10.5013 14.8944 10.5772 14.9702C10.653 15.0459 10.7133 15.1359 10.7543 15.235C10.7954 15.3341 10.8166 15.4403 10.8167 15.5475C10.8167 15.7641 10.7306 15.9718 10.5775 16.125C10.4243 16.2781 10.2166 16.3642 10 16.3642C9.78341 16.3642 9.57568 16.2781 9.42253 16.125C9.26937 15.9718 9.18333 15.7641 9.18333 15.5475" fill="#E10C32"/>
</svg>
