<svg width="52" height="28" viewBox="0 0 52 28" fill="none" xmlns="http://www.w3.org/2000/svg">
<path d="M32.7576 20.0177C35.6298 20.0177 37.9581 17.3235 37.9581 14C37.9581 10.6766 35.6298 7.98242 32.7576 7.98242C29.8855 7.98242 27.5571 10.6766 27.5571 14C27.5571 17.3235 29.8855 20.0177 32.7576 20.0177Z" fill="white"/>
<path d="M15.3013 8.26188V4.02209C15.3013 2.90994 16.1416 2 17.1686 2H48.0089C49.0359 2 49.8762 2.90994 49.8762 4.02209V23.9779C49.8762 25.0901 49.0359 26 48.0089 26H17.1686C16.1416 26 15.3013 25.0901 15.3013 23.9779V16.1878" stroke="#333940" stroke-width="2.5" stroke-linecap="round" stroke-linejoin="round"/>
<path d="M5.41602 5.42773L9.68915 5.42773" stroke="#333940" stroke-width="2.5" stroke-linecap="round" stroke-linejoin="round"/>
<path d="M7.12744 22.5645L15.6737 22.5645" stroke="#333940" stroke-width="2.5" stroke-linecap="round" stroke-linejoin="round"/>
<path d="M2 13.9965L19.9471 13.9965" stroke="#333940" stroke-width="2.5" stroke-linecap="round" stroke-linejoin="round"/>
<path d="M15.4209 7.98238C18.7161 7.98238 21.3874 5.30398 21.3874 2L17.4046 2C17.4046 2 15.4209 2.06851 15.4209 3.98894C15.4209 5.90937 15.4209 7.98238 15.4209 7.98238Z" fill="#333940"/>
<path d="M49.1931 7.98238C45.8979 7.98238 43.2266 5.30398 43.2266 2L47.2094 2C47.2094 2 49.1931 2.06851 49.1931 3.98894C49.1931 5.90937 49.1931 7.98238 49.1931 7.98238Z" fill="#333940"/>
<path d="M15.4209 20.0176C18.7161 20.0176 21.3874 22.696 21.3874 26H17.4046C17.4046 26 15.4209 25.9314 15.4209 24.011C15.4209 22.0906 15.4209 20.0176 15.4209 20.0176Z" fill="#333940"/>
<path d="M49.1931 20.0176C45.8979 20.0176 43.2266 22.696 43.2266 26H47.2094C47.2094 26 49.1931 25.9314 49.1931 24.011C49.1931 22.0906 49.1931 20.0176 49.1931 20.0176Z" fill="#333940"/>
<path d="M32.7576 20.0177C35.6298 20.0177 37.9581 17.3235 37.9581 14C37.9581 10.6766 35.6298 7.98242 32.7576 7.98242C29.8855 7.98242 27.5571 10.6766 27.5571 14C27.5571 17.3235 29.8855 20.0177 32.7576 20.0177Z" stroke="#333940" stroke-width="2.5" stroke-linecap="round" stroke-linejoin="round"/>
</svg>
