<svg width="26" height="25" viewBox="0 0 26 25" fill="none" xmlns="http://www.w3.org/2000/svg">
<path d="M15.6737 10.7915C15.5698 10.507 15.4162 10.254 15.2265 10.0418C15.0369 9.8295 14.8156 9.65337 14.5672 9.53594C14.3188 9.414 14.0478 9.35077 13.7587 9.35077H12.2457C11.9612 9.35077 11.6857 9.41851 11.4373 9.53594C11.1889 9.65788 10.9631 9.8295 10.7779 10.0418C10.5882 10.254 10.4347 10.5115 10.3308 10.7915C10.2269 11.076 10.1682 11.3831 10.1682 11.7083C10.1682 12.0335 10.2269 12.3451 10.3308 12.6251C10.4347 12.9097 10.5882 13.1626 10.7779 13.3749C10.9676 13.5871 11.1889 13.7633 11.4373 13.8807C11.6857 13.9981 11.9567 14.0659 12.2457 14.0659H13.7587C14.0433 14.0659 14.3188 14.1336 14.5672 14.251C14.8156 14.373 15.0414 14.5446 15.2265 14.7569C15.4162 14.9691 15.5698 15.2266 15.6737 15.5066C15.7775 15.7866 15.8363 16.0982 15.8363 16.4234C15.8363 16.7486 15.7775 17.0602 15.6737 17.3402C15.5698 17.6202 15.4162 17.8777 15.2265 18.0899C15.0369 18.3022 14.8156 18.4784 14.5672 18.5958C14.3188 18.7132 14.0478 18.781 13.7587 18.781H12.2457C11.9612 18.781 11.6857 18.7132 11.4373 18.5958C11.1889 18.4784 10.9631 18.3022 10.7779 18.0899C10.5882 17.8777 10.4347 17.6202 10.3308 17.3402" stroke="#01574A" stroke-width="2" stroke-linecap="round" stroke-linejoin="round"/>
<path d="M13 8.39783V19.743" stroke="#01574A" stroke-width="2" stroke-linecap="round" stroke-linejoin="round"/>
<path fill-rule="evenodd" clip-rule="evenodd" d="M22.0418 23.5999H3.95824C3.62403 23.5999 3.35305 23.3289 3.35305 22.9947V12.178H2.05233C1.79942 12.178 1.5736 12.0199 1.48779 11.7851C1.39746 11.5502 1.4652 11.2838 1.65941 11.1167L12.6071 1.60067C12.8374 1.40195 13.1716 1.40195 13.3975 1.60067L16.7983 4.55438C16.9067 4.40534 17.0873 4.30598 17.2861 4.30598H20.1404C20.4746 4.30598 20.7456 4.57696 20.7456 4.91117V7.98682L24.3451 11.1167C24.5348 11.2838 24.6026 11.5457 24.5122 11.7851C24.4219 12.0199 24.2006 12.178 23.9477 12.178H22.647V22.9947C22.647 23.3289 22.376 23.5999 22.0418 23.5999Z" stroke="#01574A" stroke-width="2" stroke-linecap="round" stroke-linejoin="round"/>
</svg>
