<svg width="22" height="34" viewBox="0 0 22 34" fill="none" xmlns="http://www.w3.org/2000/svg">
<path id="ic_lightning" fill-rule="evenodd" clip-rule="evenodd" d="M18.1424 0.468819C17.1671 -0.242527 15.8303 -0.133697 14.9892 0.72691L0.705273 15.2708C0.115151 15.8716 -0.12618 16.7363 0.063523 17.5587L0.11096 17.7337C0.342906 18.4806 0.913564 19.075 1.65579 19.3266L7.58601 21.339L3.11048 30.4543C2.58484 31.5257 2.899 32.8264 3.85774 33.5314C4.83122 34.2417 6.16472 34.134 7.00885 33.2755L21.2948 18.7295C21.8846 18.1279 22.1262 17.2636 21.9362 16.4399L21.8888 16.2652C21.6572 15.5197 21.0865 14.9252 20.3443 14.6736L14.413 12.66L18.8896 3.54599C19.4146 2.4739 19.1008 1.17364 18.1424 0.468819ZM16.4177 2.1266C16.5647 1.9763 16.7901 1.95794 16.9606 2.08236C17.1339 2.20979 17.1944 2.46027 17.0939 2.66544L12.1168 12.8009C11.8508 13.3426 12.1215 13.9946 12.6929 14.1886L19.7019 16.5676C19.8429 16.6155 19.9519 16.7368 19.9877 16.8911C20.0243 17.0495 19.9777 17.2161 19.8673 17.3287L5.58236 31.8737C5.43463 32.0239 5.20966 32.0421 5.03955 31.918C4.86596 31.7903 4.80552 31.5401 4.90588 31.3355L9.88334 21.1994C10.1493 20.6577 9.87859 20.0056 9.30715 19.8117L2.29824 17.4326C2.15716 17.3848 2.04823 17.2635 2.01196 17.1075C1.97573 16.9504 2.02212 16.7842 2.13218 16.6722L16.4177 2.1266Z" fill="#333940"/>
</svg>
