<svg width="48" height="48" viewBox="0 0 48 48" fill="none" xmlns="http://www.w3.org/2000/svg">
    <circle cx="24" cy="24" r="24" fill="#C5E8FA"/>
    <path d="M27.795 19.874a3.102 3.102 0 0 0-.56-.947 2.666 2.666 0 0 0-.83-.639 2.321 2.321 0 0 0-1.016-.235h-1.9c-.358 0-.701.083-1.016.235a2.611 2.611 0 0 0-.83.639c-.235.27-.426.589-.559.947a3.316 3.316 0 0 0 0 2.307 3.1 3.1 0 0 0 .56.948c.235.27.52.486.83.638.309.152.657.235 1.015.235h1.9c.359 0 .702.084 1.016.236.315.152.594.368.83.638s.427.59.56.948a3.317 3.317 0 0 1 0 2.307 3.102 3.102 0 0 1-.56.947c-.236.27-.52.486-.83.639a2.323 2.323 0 0 1-1.016.235h-1.9c-.358 0-.701-.083-1.016-.236a2.613 2.613 0 0 1-.83-.638 3.043 3.043 0 0 1-.559-.947M24.438 16.865v14.27M15.366 25.657l-2.44-3.314-2.435 3.314M33.509 22.343l2.435 3.314 2.44-3.314" stroke="#006391" stroke-width="2.25" stroke-linecap="round" stroke-linejoin="round"/>
    <path d="M34.751 29.108a11.498 11.498 0 0 1-10.314 6.396c-6.357 0-11.506-5.154-11.506-11.506M14.124 18.887a11.507 11.507 0 0 1 10.314-6.396c6.357 0 11.506 5.154 11.506 11.506" stroke="#006391" stroke-width="2.25" stroke-linecap="round" stroke-linejoin="round"/>
</svg>
