<svg width="30" height="34" viewBox="0 0 30 34" fill="none" xmlns="http://www.w3.org/2000/svg">
<g id="ic_rate_protect">
<path id="Combined Shape" fill-rule="evenodd" clip-rule="evenodd" d="M0.567673 2.88093C8.57946 -0.960309 21.4205 -0.960309 29.4323 2.88093C29.7793 3.04726 30 3.39789 30 3.78264V16.0434C30 23.7967 24.2025 30.6728 15.3459 33.9383C15.1227 34.0206 14.8773 34.0206 14.6541 33.9383C5.79749 30.6728 0 23.7967 0 16.0434V3.78264C0 3.39789 0.220737 3.04726 0.567673 2.88093ZM27.7192 4.30141C20.494 1.23286 9.50603 1.23286 2.28081 4.30141L2 4.424V16.0434C2 22.7665 7.05035 28.8649 14.9549 31.9142L15 31.931L15.0451 31.9142C22.8201 28.9149 27.8336 22.9657 27.9959 16.3736L28 16.0434V4.424L27.7192 4.30141ZM22.4834 7.7728C22.0941 7.38106 21.4609 7.37909 21.0692 7.76839L7.52074 21.2327C7.12901 21.622 7.12703 22.2552 7.51634 22.6469C7.90565 23.0386 8.53881 23.0406 8.93055 22.6513L22.479 9.187C22.8707 8.7977 22.8727 8.16454 22.4834 7.7728ZM14.1524 10.9257C14.1524 9.01997 12.6003 7.4775 10.6889 7.4775C8.77756 7.4775 7.22545 9.01997 7.22545 10.9257C7.22545 12.8314 8.77756 14.3739 10.6889 14.3739C12.6003 14.3739 14.1524 12.8314 14.1524 10.9257ZM9.22545 10.9257C9.22545 10.1273 9.87934 9.4775 10.6889 9.4775C11.4985 9.4775 12.1524 10.1273 12.1524 10.9257C12.1524 11.724 11.4985 12.3739 10.6889 12.3739C9.87934 12.3739 9.22545 11.724 9.22545 10.9257ZM19.3107 16.0457C21.2221 16.0457 22.7742 17.5882 22.7742 19.4939C22.7742 21.3996 21.2221 22.9421 19.3107 22.9421C17.3993 22.9421 15.8472 21.3996 15.8472 19.4939C15.8472 17.5882 17.3993 16.0457 19.3107 16.0457ZM19.3107 18.0457C18.5011 18.0457 17.8472 18.6956 17.8472 19.4939C17.8472 20.2922 18.5011 20.9421 19.3107 20.9421C20.1203 20.9421 20.7742 20.2922 20.7742 19.4939C20.7742 18.6956 20.1203 18.0457 19.3107 18.0457Z" fill="#333940"/>
</g>
</svg>
