<?xml version="1.0" encoding="UTF-8"?>
<svg width="22px" height="22px" viewBox="0 0 22 22" version="1.1" xmlns="http://www.w3.org/2000/svg" xmlns:xlink="http://www.w3.org/1999/xlink">
    <title>img_Filled_SVG_97-arrows_arrow-right-12</title>
    <g id="ALL-Landing-Pages---New-Header-&amp;-Form" stroke="none" stroke-width="1" fill="none" fill-rule="evenodd">
        <g id="L---/refinance/arm/fixed" transform="translate(-845.000000, -1389.000000)">
            <g id="Arrow-Circle-Copy" transform="translate(853.500000, 1400.500000) scale(-1, 1) rotate(-180.000000) translate(-853.500000, -1400.500000) translate(827.000000, 1374.000000)">
                <g id="img_Filled_SVG_97-arrows_arrow-right-12" transform="translate(18.000000, 16.000000)">
                    <g id="Filled_Icons" transform="translate(4.437740, 0.175494)" fill="#253343" fill-rule="nonzero">
                        <path d="M0.875634962,21.8245062 C0.627134962,21.8245062 0.380384962,21.7153862 0.207134962,21.5026022 C-0.105240038,21.1197729 -0.0588650382,20.5459835 0.309509962,20.2213515 L10.89526,10.9125062 L0.309509962,1.60457019 C-0.0588650382,1.27902885 -0.105240038,0.705239519 0.207134962,0.322410186 C0.518634962,-0.0622378145 1.07075996,-0.108613814 1.44000996,0.215108852 L12.81501,10.2177755 C13.011885,10.3905489 13.12476,10.6451622 13.12476,10.9125062 C13.12476,11.1798502 13.011885,11.4335542 12.81501,11.6072369 L1.44000996,21.6099035 C1.27550996,21.7535782 1.07425996,21.8245062 0.875634962,21.8245062 Z" id="Path"></path>
                    </g>
                    <g id="Frames-24px">
                        <rect id="Rectangle" x="0" y="0" width="22" height="22"></rect>
                    </g>
                </g>
            </g>
        </g>
    </g>
</svg>