<svg width="52" height="52" viewBox="0 0 52 52" fill="none" xmlns="http://www.w3.org/2000/svg">
<path fill-rule="evenodd" clip-rule="evenodd" d="M28.0185 39.4115H23.9792C23.1129 39.4115 22.2718 39.2178 21.4796 38.835C20.7235 38.4696 20.0454 37.9498 19.4658 37.2899C18.8901 36.6362 18.4388 35.8786 18.1254 35.0375C17.9734 34.6303 18.1805 34.1767 18.5877 34.0247C18.9956 33.8735 19.4493 34.079 19.6013 34.487C19.8478 35.1469 20.1998 35.74 20.6487 36.2487C21.0889 36.7504 21.5993 37.1434 22.1647 37.4166C22.742 37.6946 23.3523 37.8364 23.9792 37.8364H28.0185C28.6454 37.8364 29.2558 37.6946 29.8322 37.4166C30.3985 37.1426 30.9096 36.7496 31.349 36.2495C31.7972 35.7415 32.1492 35.1485 32.3973 34.4862C32.6548 33.7979 32.7855 33.0663 32.7855 32.3118C32.7855 31.5573 32.6548 30.8265 32.3973 30.1374C32.1492 29.4759 31.7972 28.8828 31.349 28.3749C30.9088 27.8732 30.3977 27.481 29.833 27.2077C29.2558 26.9289 28.6454 26.788 28.0185 26.788H23.9792C23.1137 26.788 22.2734 26.5942 21.4803 26.2115C20.7251 25.8469 20.047 25.3271 19.4658 24.6671C18.8901 24.0127 18.4388 23.255 18.1254 22.4147C17.8017 21.5492 17.6371 20.6317 17.6371 19.6891C17.6371 18.7456 17.8017 17.8281 18.1254 16.9618C18.4396 16.1215 18.8901 15.3639 19.4666 14.711C20.047 14.0502 20.7251 13.5305 21.4811 13.1658C22.2718 12.7831 23.1129 12.5894 23.9792 12.5894H28.0185C28.8848 12.5894 29.7259 12.7831 30.5182 13.1666C31.2734 13.5313 31.9515 14.051 32.5319 14.7118C33.106 15.3623 33.5565 16.1199 33.8723 16.9618C34.0243 17.3697 33.8172 17.8234 33.4108 17.9754C33.0029 18.1274 32.5493 17.921 32.3973 17.5139C32.1492 16.8515 31.7972 16.2593 31.3498 15.7521C30.9088 15.2497 30.3977 14.8575 29.833 14.585C29.2558 14.3062 28.6454 14.1644 28.0185 14.1644H23.9792C23.3523 14.1644 22.742 14.3062 22.1655 14.585C21.6 14.8567 21.0897 15.2489 20.6487 15.7513C20.1998 16.2609 19.8478 16.8523 19.6013 17.5131C19.3429 18.203 19.2122 18.9346 19.2122 19.6891C19.2122 20.4427 19.3429 21.1744 19.6013 21.8635C19.8478 22.5242 20.1998 23.1172 20.6487 23.626C21.0897 24.1284 21.6 24.5206 22.1647 24.7931C22.742 25.0711 23.3523 25.2129 23.9792 25.2129H28.0185C28.8848 25.2129 29.7259 25.4066 30.5182 25.7894C31.2734 26.154 31.9515 26.6738 32.5319 27.3345C33.106 27.9858 33.5565 28.7434 33.8723 29.5845C34.196 30.4508 34.3606 31.3683 34.3606 32.3118C34.3606 33.2561 34.196 34.1735 33.8723 35.0383C33.5573 35.8801 33.106 36.6378 32.5319 37.2906C31.9531 37.949 31.275 38.4688 30.5182 38.835C29.7259 39.2178 28.8848 39.4115 28.0185 39.4115Z" fill="#404750" stroke="#404750"/>
<path fill-rule="evenodd" clip-rule="evenodd" d="M25.999 41.9357C25.5635 41.9357 25.2115 41.5836 25.2115 41.1481V10.8521C25.2115 10.4174 25.5635 10.0646 25.999 10.0646C26.4345 10.0646 26.7866 10.4174 26.7866 10.8521V41.1481C26.7866 41.5836 26.4345 41.9357 25.999 41.9357Z" fill="#404750" stroke="#404750"/>
<path fill-rule="evenodd" clip-rule="evenodd" d="M25.999 51.0004C25.5635 51.0004 25.2115 50.6483 25.2115 50.2128C25.2115 49.7781 25.5635 49.4253 25.999 49.4253C27.4969 49.4253 28.998 49.2827 30.4597 49C30.8857 48.915 31.2992 49.1969 31.3819 49.6237C31.4646 50.0506 31.1858 50.4633 30.7581 50.546C29.198 50.8476 27.5969 51.0004 25.999 51.0004Z" fill="#404750" stroke="#404750"/>
<path fill-rule="evenodd" clip-rule="evenodd" d="M25.999 51.0003C12.2146 51.0003 1 39.7849 1 25.999C1 12.2146 12.2146 1 25.999 1C39.7833 1 50.998 12.2146 50.998 25.999C50.998 29.7556 50.1821 33.3696 48.5715 36.7403C48.3833 37.1317 47.9124 37.2986 47.5217 37.112C47.1287 36.9238 46.9626 36.4544 47.15 36.0622C48.6582 32.9042 49.4229 29.5185 49.4229 25.999C49.4229 13.0833 38.9147 2.57509 25.999 2.57509C13.0833 2.57509 2.57509 13.0833 2.57509 25.999C2.57509 38.917 13.0833 49.4252 25.999 49.4252C26.4345 49.4252 26.7865 49.778 26.7865 50.2128C26.7865 50.6483 26.4345 51.0003 25.999 51.0003Z" fill="#404750" stroke="#404750"/>
<path fill-rule="evenodd" clip-rule="evenodd" d="M41.4768 50.8588C41.0412 50.8588 40.6892 50.5067 40.6892 50.0712V27.175C40.6892 26.7403 41.0412 26.3875 41.4768 26.3875C41.9123 26.3875 42.2643 26.7403 42.2643 27.175V50.0712C42.2643 50.5067 41.9123 50.8588 41.4768 50.8588Z" fill="#404750" stroke="#404750"/>
<path fill-rule="evenodd" clip-rule="evenodd" d="M41.4768 50.8589C41.2752 50.8589 41.0736 50.7817 40.92 50.6281L33.8754 43.5836C33.5675 43.2764 33.5675 42.7779 33.8754 42.47C34.1826 42.1628 34.6811 42.1628 34.989 42.47L41.4768 48.9578L47.9646 42.47C48.2725 42.1628 48.771 42.1628 49.0782 42.47C49.3861 42.7779 49.3861 43.2764 49.0782 43.5836L42.0336 50.6281C41.88 50.7817 41.6784 50.8589 41.4768 50.8589Z" fill="#404750" stroke="#404750"/>
</svg>
