<?xml version="1.0" encoding="utf-8"?>
<!-- Generator: Adobe Illustrator 23.0.4, SVG Export Plug-In . SVG Version: 6.00 Build 0)  -->
<svg version="1.1" id="Layer_1" xmlns="http://www.w3.org/2000/svg" xmlns:xlink="http://www.w3.org/1999/xlink" x="0px" y="0px"
	 width="749.2px" height="290.6px" viewBox="0 0 749.2 290.6" preserveAspectRatio="xMinYMid" style="enable-background:new 0 0 749.2 290.6;" xml:space="preserve">
<style type="text/css">
	.st0{opacity:0.15;}
	.st1{fill:#FFFFFF;}
	.st2{fill-rule:evenodd;clip-rule:evenodd;fill:#FFFFFF;}
</style>
<g class="st0">
	<path class="st1" d="M7.4,34.7l4.7,0.7L7.1,71c-0.1,0.8,0.4,1.5,1.2,1.6l51.4,7.2c0.8,0.1,1.5-0.4,1.6-1.2l5-35.6l4.6,0.7
		c1.8,0.2,3.4-0.5,4.3-2c0.9-1.5,0.9-3.3-0.1-4.6l-6.7-10.3l1.6-11.6c0.1-0.8-0.4-1.5-1.2-1.6L17.6,6.3c-0.8-0.1-1.5,0.4-1.6,1.2
		l-1.6,11.7l-9.2,8c-1.3,1.1-1.9,2.8-1.4,4.4C4.3,33.3,5.7,34.5,7.4,34.7z M43.2,74.7l-17.5-2.5l2.7-19.3l17.5,2.5L43.2,74.7z
		 M58.8,76.9L46,75.1l2.9-20.7c0.1-0.8-0.4-1.5-1.2-1.6L27.4,50c-0.8-0.1-1.5,0.4-1.6,1.2l-2.9,20.7L10.1,70l4.8-34.2l48.7,6.8
		L58.8,76.9z M27.9,34.8L19,33.6l6.5-11l6.4,0.9L27.9,34.8z M34.8,23.9l5,0.7l-1.6,11.7l-7.5-1.1L34.8,23.9z M41,36.6L42.6,25l5,0.7
		l0.8,12L41,36.6z M50.5,26.1l6.4,0.9l3.2,12.3l-8.9-1.2L50.5,26.1z M72.9,38.6c0.3,0.5,0.4,1.1,0,1.6c-0.1,0.2-0.6,0.8-1.6,0.7
		l-8.2-1.2l-3.2-12.3l6.3,0.9L72.9,38.6z M18.6,9.2l48.7,6.8l-1.3,9.4l-48.7-6.8L18.6,9.2z M7,29.3C7,29.3,7,29.3,7,29.3l9.2-8
		l6.3,0.9l-6.5,11L7.8,32c-1-0.1-1.2-0.9-1.3-1.1C6.3,30.3,6.5,29.7,7,29.3z"/>
	<path class="st1" d="M442.8,38.5c-7.1,0-13.7,3-18.2,8.1c-4.4-5.1-11.1-8.1-18.2-8.1c-12.2,0-23.3,11.1-23.3,23.3
		c0,12.3,6.8,19.8,11.9,24.4l27.3,24.4c0.6,0.6,1.4,0.9,2.3,0.9c0.8,0,1.6-0.3,2.2-0.9l27.3-24.5c5.1-4.6,11.9-12.1,11.9-24.4
		C466.2,49.6,455,38.5,442.8,38.5z M452.1,83.9l-27.5,24.4l-27.3-24.4c-7.5-6.7-10.9-13.5-10.9-22.1c0-10.5,9.6-20.1,20.1-20.1
		c6.8,0,13.1,3.1,16.9,8.4c0.6,0.8,2,0.8,2.6,0c3.8-5.2,10.1-8.4,16.9-8.4c10.5,0,20.1,9.6,20.1,20.1
		C463,70.3,459.6,77.1,452.1,83.9z"/>
	<path class="st1" d="M661.6,46l8.7,30.3c0.7,2.5,3.3,3.9,5.7,3.2l40.8-11.7c2.5-0.7,3.9-3.3,3.2-5.7l-8.7-30.3
		C707.9,19.6,696,12,683.7,13.3L686.8,2c0.2-0.6,0-1.2-0.4-1.6c-0.4-0.4-1-0.6-1.6-0.4l-17.5,5c-0.6,0.2-1,0.6-1.1,1.2
		c-0.1,0.6,0,1.2,0.5,1.5l8.6,8C664.1,21.2,658.1,33.9,661.6,46z M670.9,7.4l12-3.4l-2.7,10c-0.3,0.1-0.6,0.1-0.9,0.2
		c-0.3,0.1-0.6,0.2-0.8,0.3L670.9,7.4z M680.3,17.3c12-3.4,24.6,3.5,28,15.4l8.7,30.3c0.2,0.7-0.2,1.5-1,1.7l-40.8,11.7
		c-0.8,0.2-1.5-0.2-1.7-1l-8.7-30.3C661.3,33.2,668.3,20.7,680.3,17.3z"/>
	<path class="st1" d="M688.3,47c0,0,4.8,0.1,5.7,3.1c0.3,1,0.2,2.1-0.4,3.1c-0.5,1-1.4,1.7-2.5,2c-2.2,0.6-4.5-0.6-5.1-2.8
		c-0.2-0.9-1.1-1.3-2-1.1l0,0c-0.9,0.2-1.4,1.1-1.1,2c1,3.3,4.2,5.4,7.5,5.2l0.7,2.3c0.2,0.9,1.1,1.3,2,1.1c0.9-0.2,1.4-1.1,1.1-2
		l-0.7-2.3c1.2-0.7,2.2-1.6,2.9-2.9c1-1.7,1.2-3.7,0.7-5.6c-1.6-5.4-8.5-5.4-8.8-5.4c-0.1,0-4.8-0.1-5.7-3.1c-0.3-1-0.2-2.1,0.4-3.1
		c0.5-1,1.4-1.7,2.5-2c2.2-0.6,4.5,0.6,5.1,2.8c0.2,0.9,1.1,1.3,2,1.1l0,0c0.9-0.2,1.4-1.1,1.1-2c-1-3.3-4.1-5.4-7.5-5.2l-0.5-1.8
		c-0.2-0.9-1.1-1.3-2-1.1c-0.9,0.2-1.4,1.1-1.1,2l0.5,1.8c-1.2,0.7-2.2,1.6-2.9,2.9c-1,1.7-1.2,3.7-0.7,5.6
		C681.1,47,688,47,688.3,47z"/>
	<path class="st1" d="M92.2,248.4c0.3,0.4,0.7,0.7,1.1,0.8c0.5,0.1,0.9,0.1,1.3-0.2l7.9-4.2c2-1.1,4-2.5,4.7-5.5
		c0.9-3.5-1.4-7.3-4.9-8.2c-1.6-0.4-3.2-0.2-4.6,0.4c-0.9-1.3-2.3-2.2-3.9-2.6c-3.5-0.9-7.3,1.4-8.2,4.9c-0.8,3.1,0.3,5.2,1.6,7.1
		L92.2,248.4z M88.5,234.6c0.5-1.9,2.7-3.3,4.6-2.8c1.3,0.3,2.3,1.2,2.7,2.3c0.3,0.9,1.6,1.2,2.3,0.6c0.9-0.8,2.2-1.1,3.5-0.8
		c1.9,0.5,3.2,2.7,2.8,4.6c-0.5,1.9-1.6,2.8-3.3,3.7l-7,3.7l-4.5-6.6C88.6,237.8,88,236.5,88.5,234.6z"/>
	<path class="st1" d="M116.4,215.7c-20.3-5.1-41,7.3-46.1,27.7c-5.1,20.3,7.3,41,27.7,46.1c20.3,5.1,41-7.3,46.1-27.7
		C149.2,241.5,136.8,220.8,116.4,215.7z M141.3,261.1c-4.7,18.8-23.8,30.2-42.5,25.5C80,282,68.5,262.9,73.2,244.1
		s23.8-30.2,42.5-25.5S145.9,242.3,141.3,261.1z"/>
	<path class="st1" d="M127.9,262.7c-0.6-0.5-1.6-0.4-2,0.3c-1.7,2.3-3.9,4.2-6.4,5.7c-2.5,1.5-5.2,2.5-8.1,2.9
		c-5.9,0.9-12.1-0.6-16.9-4.2c-2.3-1.7-4.2-3.9-5.7-6.4c-1.5-2.5-2.5-5.2-2.9-8.1c-0.1-0.8-0.9-1.3-1.7-1.2
		c-0.8,0.1-1.3,0.9-1.2,1.7c0.5,3.2,1.6,6.3,3.3,9.1c1.7,2.8,3.9,5.2,6.5,7.2c2.7,2,5.8,3.5,9.1,4.3c3.3,0.8,6.7,1,10,0.4
		c3.2-0.5,6.3-1.6,9.1-3.3s5.2-3.9,7.2-6.5C128.7,264.1,128.6,263.1,127.9,262.7z"/>
	<path class="st1" d="M125.5,238.5c-0.9-1.3-2.3-2.2-3.9-2.6c-3.5-0.9-7.3,1.4-8.2,4.9c-0.8,3.1,0.3,5.2,1.6,7.1l5,7.3
		c0.3,0.4,0.7,0.7,1.1,0.8c0.5,0.1,0.9,0.1,1.3-0.2l7.9-4.2c2-1.1,4-2.5,4.7-5.5c0.9-3.5-1.4-7.3-4.9-8.2
		C128.5,237.7,126.9,237.8,125.5,238.5z M132.2,245.5c-0.5,1.9-1.6,2.8-3.3,3.7l-7,3.7l-4.5-6.6c-1.1-1.6-1.6-2.9-1.2-4.8
		c0.5-1.9,2.7-3.3,4.6-2.8c1.3,0.3,2.3,1.2,2.7,2.3c0.3,0.9,1.6,1.2,2.3,0.6c0.9-0.8,2.2-1.1,3.5-0.8
		C131.3,241.4,132.7,243.6,132.2,245.5z"/>
	<path class="st1" d="M731.9,261.7c-0.6-0.5-1.6-0.4-2,0.3c-1.7,2.3-3.9,4.2-6.4,5.7c-2.5,1.5-5.2,2.5-8.1,2.9
		c-5.9,0.9-12.1-0.6-16.9-4.2c-2.3-1.7-4.2-3.9-5.7-6.4c-1.5-2.5-2.5-5.2-2.9-8.1c-0.1-0.8-0.9-1.3-1.7-1.2
		c-0.8,0.1-1.3,0.9-1.2,1.7c0.5,3.2,1.6,6.3,3.3,9.1c1.7,2.8,3.9,5.2,6.5,7.2c2.7,2,5.8,3.5,9.1,4.3c3.3,0.8,6.7,1,10,0.4
		c3.2-0.5,6.3-1.6,9.1-3.3c2.8-1.7,5.2-3.9,7.2-6.5C732.6,263.1,732.5,262.1,731.9,261.7z"/>
	<path class="st1" d="M720.4,214.7c-20.3-5.1-41,7.3-46.1,27.7c-5.1,20.3,7.3,41,27.7,46.1c20.3,5.1,41-7.3,46.1-27.7
		C753.1,240.5,740.7,219.8,720.4,214.7z M745.2,260.1c-4.7,18.8-23.8,30.2-42.5,25.5s-30.2-23.8-25.5-42.5s23.8-30.2,42.5-25.5
		S749.9,241.3,745.2,260.1z"/>
	<path class="st1" d="M696.1,247.4c0.3,0.4,0.7,0.7,1.1,0.8c0.5,0.1,0.9,0.1,1.3-0.2l7.9-4.2c2-1.1,4-2.5,4.7-5.5
		c0.9-3.5-1.4-7.3-4.9-8.2c-1.6-0.4-3.2-0.2-4.6,0.4c-0.9-1.3-2.3-2.2-3.9-2.6c-3.5-0.9-7.3,1.4-8.2,4.9c-0.8,3.1,0.3,5.2,1.6,7.1
		L696.1,247.4z M692.4,233.6c0.5-1.9,2.7-3.3,4.6-2.8c1.3,0.3,2.3,1.2,2.7,2.3c0.3,0.9,1.6,1.2,2.3,0.6c0.9-0.8,2.2-1.1,3.5-0.8
		c1.9,0.5,3.2,2.7,2.8,4.6c-0.5,1.9-1.6,2.8-3.3,3.7l-7,3.7l-4.5-6.6C692.5,236.8,692,235.5,692.4,233.6z"/>
	<path class="st1" d="M729.4,237.5c-0.9-1.3-2.3-2.2-3.9-2.6c-3.5-0.9-7.3,1.4-8.2,4.9c-0.8,3.1,0.3,5.2,1.6,7.1l5,7.3
		c0.3,0.4,0.7,0.7,1.1,0.8c0.5,0.1,0.9,0.1,1.3-0.2l7.9-4.2c2-1.1,4-2.5,4.7-5.5c0.9-3.5-1.4-7.3-4.9-8.2
		C732.5,236.7,730.8,236.8,729.4,237.5z M736.1,244.5c-0.5,1.9-1.6,2.8-3.3,3.7l-7,3.7l-4.5-6.6c-1.1-1.6-1.6-2.9-1.2-4.8
		c0.5-1.9,2.7-3.3,4.6-2.8c1.3,0.3,2.3,1.2,2.7,2.3c0.3,0.9,1.6,1.2,2.3,0.6c0.9-0.8,2.2-1.1,3.5-0.8
		C735.3,240.4,736.6,242.6,736.1,244.5z"/>
	<path class="st1" d="M397.7,233.9c-6.3-1.3-12.5,2.7-13.9,9c-0.9,4.2,0.6,8.4,3.6,11.1c-2.2,0.3-4.3,1.1-6.2,2.3
		c-1.3-2.1-3.5-3.7-6.1-4.2s-5.2,0-7.3,1.4c-1.3-1.8-2.9-3.4-4.8-4.6c3.8-1.3,6.9-4.4,7.8-8.7c1.3-6.3-2.7-12.5-9-13.9
		c-6.3-1.3-12.5,2.7-13.9,9c-0.9,4.2,0.6,8.4,3.6,11.1c-6.7,1-12.4,6.1-13.9,13.1c-0.2,0.7,0.3,1.4,1,1.6c0.7,0.2,1.4-0.3,1.6-1
		c1.6-7.6,9.1-12.4,16.6-10.8c3.6,0.8,6.8,3,8.8,6.1c-1,1.2-1.8,2.6-2.1,4.2c-0.7,3.3,0.4,6.5,2.5,8.7c-5.2,1-9.6,5.1-10.7,10.6
		c-0.2,0.7,0.3,1.4,1,1.6c0.7,0.2,1.4-0.3,1.6-1c1.3-5.9,7.1-9.7,13-8.4c5.9,1.3,9.7,7.1,8.4,13c-0.2,0.7,0.3,1.4,1,1.6
		c0.7,0.2,1.4-0.3,1.6-1c1.2-5.5-1.2-11-5.5-14c2.9-1.2,5.2-3.7,5.9-6.9c0.3-1.6,0.2-3.2-0.2-4.7c3.1-2,6.9-2.7,10.5-2
		c7.6,1.6,12.4,9.1,10.8,16.7c-0.2,0.7,0.3,1.4,1,1.6c0.7,0.2,1.4-0.3,1.6-1c1.5-7-1.7-13.9-7.4-17.6c3.8-1.3,6.9-4.4,7.8-8.7
		C408,241.5,404,235.3,397.7,233.9z M357.6,246.6c-4.8-1-8-5.8-6.9-10.7s5.8-8,10.7-6.9c4.8,1,7.9,5.8,6.9,10.7
		C367.2,244.5,362.4,247.6,357.6,246.6z M379.9,262.9c-0.8,3.7-4.5,6.1-8.2,5.3c-3.7-0.8-6.1-4.5-5.3-8.2s4.5-6.1,8.2-5.3
		C378.3,255.5,380.7,259.2,379.9,262.9z M404,247.3c-1,4.9-5.8,8-10.7,6.9s-8-5.8-6.9-10.7c1-4.9,5.8-8,10.7-6.9
		C402,237.6,405.1,242.4,404,247.3z"/>
	<path class="st1" d="M520.7,215.8l4.6-1.8c0.7-0.3,1.1-1.1,0.8-1.8l-5.7-14.1c-0.3-0.7-1.1-1.1-1.8-0.8l-12.5,5.1
		c0.7-1.2,1.1-2.5,1.2-3.9c0.2-2.4-0.5-4.7-2.1-6.2c-3.2-3.2-8.9-2.7-12.6,1.1c-3,3.1-4.6,9.1-5.3,12.9c-3.2-2.2-8.5-5.5-12.8-5.6
		c-5.3-0.1-9.8,3.4-9.9,8c-0.1,2.2,0.9,4.4,2.8,6c1,0.9,2.2,1.5,3.6,1.9l-12,4.9c-0.7,0.3-1.1,1.1-0.8,1.8l5.7,14.1
		c0.3,0.7,1.1,1.1,1.8,0.8l4.6-1.8l13.6,33.6c0.3,0.7,1.1,1.1,1.8,0.8l48-19.4c0.7-0.3,1.1-1.1,0.8-1.8L520.7,215.8z M518.3,200.3
		l4.7,11.5l-20.4,8.3l-4.7-11.5L518.3,200.3z M494.5,195.3c2.7-2.7,6.6-3.2,8.7-1.1c1,1,1.5,2.4,1.3,4c-0.2,1.7-1,3.4-2.3,4.7
		c-2.8,2.8-9.4,4.3-12.4,4.9C490.2,204.8,491.6,198.1,494.5,195.3z M488.1,208.3L488.1,208.3L488.1,208.3L488.1,208.3L488.1,208.3z
		 M469.1,212.4c-1.2-1-1.9-2.4-1.8-3.8c0.1-2,1.5-3.8,3.7-4.7c1-0.4,2.1-0.6,3.3-0.6c4,0.1,9.7,4,12.1,5.7
		c-2.5,1.6-8.3,5.2-12.4,5.1C472.2,214.2,470.4,213.5,469.1,212.4z M465.8,234.9l-4.7-11.5l20-8.1l4.7,11.5L465.8,234.9z
		 M485.8,267.5l-13.1-32.3l14.1-5.7l13.1,32.3L485.8,267.5z M502.5,260.7l-18.8-46.4l11.5-4.7l18.8,46.4L502.5,260.7z M516.6,255
		l-13.1-32.3l14.6-5.9l13.1,32.3L516.6,255z"/>
	<path class="st1" d="M280.9,181.3l8.8,2.5c0.4,0.1,0.8,0.1,1.2-0.1l37-20.5c3.9-2.2,5.3-7.1,3.1-11s-7.1-5.3-11-3.2l-37,20.5
		c-0.4,0.2-0.6,0.5-0.7,0.9l-2.5,8.8c-0.1,0.4-0.1,0.8,0.1,1.2C280.1,180.9,280.5,181.2,280.9,181.3z M285.1,172l36.5-20.2
		c2.4-1.3,5.4-0.4,6.7,1.9c1.3,2.4,0.5,5.4-1.9,6.7l-36.5,20.2l-6.7-1.9L285.1,172z"/>
	<path class="st1" d="M339.3,183.7c3.9-2.2,5.3-7.1,3.1-11s-7.1-5.3-11-3.2l-37,20.5c-0.4,0.2-0.6,0.5-0.7,0.9l-2.5,8.8
		c-0.2,0.8,0.2,1.7,1.1,2l8.8,2.5c0.4,0.1,0.8,0.1,1.2-0.1L339.3,183.7z M301.3,201.1l-6.7-1.9l1.9-6.7l36.5-20.2
		c2.4-1.3,5.4-0.4,6.7,1.9c1.3,2.4,0.5,5.4-1.9,6.7L301.3,201.1z"/>
	<path class="st1" d="M294,230.9c1.9-1.9,2.4-4.8,1.1-7.2s-4.1-3.6-6.7-2.9l-3.9-7c2.8-2.4,3.6-6.5,1.7-9.8
		c-1.9-3.3-5.8-4.8-9.3-3.7l-2.9-5.2c3.7-2.9,4.9-8.2,2.5-12.6c-2.4-4.3-7.5-6.1-12-4.5l-3.4-6.1c-0.4-0.8-1.4-1-2.1-0.6
		s-1,1.4-0.6,2.1l3.4,6.1c-3.7,2.9-4.9,8.2-2.5,12.6c2.4,4.3,7.5,6.1,12,4.5l2.9,5.2c-2.8,2.4-3.6,6.5-1.8,9.8
		c1.9,3.3,5.8,4.8,9.3,3.7l3.9,7c-1.9,1.9-2.4,4.8-1.1,7.3c1.4,2.4,4.2,3.6,6.7,2.9l2.5,4.6c0.4,0.8,1.4,1,2.1,0.6
		c0.8-0.4,1-1.4,0.6-2.1L294,230.9z M271.2,193.1c-3.2,1.8-7.3,0.6-9.2-2.6c-1.8-3.3-0.6-7.4,2.6-9.2c3.2-1.8,7.3-0.6,9.2,2.6
		C275.6,187.2,274.5,191.3,271.2,193.1z M281.6,211.8c-2.3,1.3-5.2,0.4-6.4-1.9c-1.3-2.3-0.4-5.2,1.8-6.4c2.3-1.3,5.2-0.4,6.4,1.9
		C284.7,207.7,283.9,210.6,281.6,211.8z M291.2,229.1c-1.4,0.8-3.2,0.3-3.9-1.1s-0.3-3.2,1.1-3.9s3.2-0.3,3.9,1.1
		S292.6,228.3,291.2,229.1z"/>
	<path class="st1" d="M352.9,191.6c-2.2-3.9-7.1-5.3-11-3.2l-37,20.5c-0.4,0.2-0.6,0.5-0.7,0.9l-2.5,8.8c-0.2,0.8,0.2,1.7,1.1,2
		l8.8,2.5c0.4,0.1,0.8,0.1,1.2-0.1l37-20.5C353.6,200.4,355,195.5,352.9,191.6z M348.2,199.8L311.7,220l-6.7-1.9l1.9-6.7l36.5-20.2
		c2.4-1.3,5.4-0.4,6.7,1.9C351.4,195.5,350.6,198.5,348.2,199.8z"/>
	<path class="st1" d="M87.2,86.4c0.4,0.4,1,0.5,1.5,0.3l15.7-4.8c-0.7,2.1-1.3,4.3-1.7,6.6L96,91.2c-0.5,0.2-0.9,0.6-1,1.2
		c-0.1,0.5,0.1,1.1,0.5,1.5l3.2,2.9l-5,2.5c-0.5,0.2-0.8,0.7-0.8,1.2c-0.1,0.5,0.1,1,0.5,1.4l19.3,17.4c0.4,0.3,0.9,0.5,1.4,0.4
		c0.5-0.1,0.9-0.5,1.1-1l2-5.3l3.2,2.9c0.4,0.4,1,0.5,1.5,0.3c0.5-0.2,0.9-0.6,1.1-1.1l1.9-7.1c2.3-0.7,4.4-1.5,6.4-2.4l-3.1,16.2
		c-0.1,0.6,0.1,1.1,0.5,1.5c0.1,0.1,0.2,0.2,0.4,0.2c0.6,0.3,1.4,0.2,1.9-0.3l12.7-14.1c3.2-3.6,4.1-8.6,2.3-13.1l-0.2-0.5
		c9.6-10,13.8-22.9,15.5-33.1c0,0,0-0.1,0.1-0.1c0-0.2,0-0.3,0-0.5c1.5-9,1.1-15.7,1.1-15.9c-0.1-0.9-0.8-1.5-1.6-1.5
		c-0.2,0-6.9,0.3-15.7,2.7c-0.1,0-0.3,0-0.4,0.1c0,0-0.1,0.1-0.1,0.1c-9.9,2.8-22.4,8.3-31.3,18.9l-0.5-0.2
		c-4.7-1.3-9.6,0.1-12.8,3.7L87.1,84.2c-0.5,0.5-0.5,1.3-0.2,1.9C87,86.2,87.1,86.3,87.2,86.4z M113,115.3L97.1,101l4.1-2l13.4,12.1
		L113,115.3z M120.5,112.1l-3-2.7l-15-13.5l-3-2.7l4.4-1.7l17.8,16.1L120.5,112.1z M141.1,107.3l-8.9,9.9l2.4-12.6
		c0-0.1,0-0.3,0-0.4c3.2-1.8,5.9-3.8,8.4-6C144.1,101.4,143.4,104.8,141.1,107.3z M159.2,48.1c0,2.2-0.1,6.6-0.8,12
		c-4.8-1.8-8.7-5.3-11-9.9C152.6,48.8,157,48.3,159.2,48.1z M144.3,51c1.4,2.9,3.2,5.4,5.5,7.5c2.3,2.1,5,3.7,8.1,4.7
		c-2.7,14.8-10.7,35-33.9,42.2l-18.1-16.3C110.6,65.3,129.9,55.2,144.3,51z M102.2,72.2c2.2-2.5,5.6-3.6,8.8-2.9
		c-1.9,2.7-3.7,5.7-5.1,9c-0.1,0-0.3,0-0.4,0.1l-12.2,3.7L102.2,72.2z"/>
	<path class="st1" d="M125.2,85.9c6,5.4,15.2,4.9,20.5-1c5.3-5.9,4.8-15.1-1.1-20.5c-6-5.4-15.2-4.9-20.5,1
		C118.7,71.3,119.2,80.5,125.2,85.9z M126.4,67.5c4.2-4.6,11.4-5,16-0.8c4.7,4.2,5.1,11.4,0.9,16c-4.2,4.6-11.4,5-16,0.8
		C122.6,79.3,122.2,72.1,126.4,67.5z"/>
	<path class="st1" d="M206,82.6L206,82.6C206,82.6,206,82.6,206,82.6c8.8,7.1,20.2,10.2,31.4,8.4c11.3-1.8,21.2-8.3,27.4-17.9
		c5.3-8.3,7.4-18.1,5.8-27.8c-3.5-21.8-24-36.7-45.8-33.3c-21.8,3.5-36.7,24-33.3,45.8C193.2,67.6,198.3,76.4,206,82.6z M236.9,88
		c-10,1.6-20.3-1.1-28.3-7.3l1-10c0.2-3.4,3.1-6.3,6.8-6.9l8.4-1.3c2.5-0.4,4.2-2.7,3.8-5.4c-0.2-1.4-1.2-2.7-2.5-3.4
		c-6.7-3.5-8.6-12.1-9-14.7c-1.3-8.2,1.9-12.8,9.8-14.1c10-1.6,13.2,4.7,14.1,10.3c0.8,5.2,0.2,12.4-4.1,16.8
		c-1.1,1.1-1.6,2.6-1.3,4.2c0.4,2.5,2.7,4.2,5.2,3.8l9.1-1.4c3.8-0.6,7.3,1.2,8.6,4.4l0,0l3.6,9C256.1,80.6,247.1,86.4,236.9,88z
		 M225.4,15.1c20.1-3.2,39.1,10.6,42.2,30.7c1.3,7.9-0.1,16-3.8,23l-2.7-6.8c-1.8-4.6-6.7-7.2-11.9-6.3l-9.1,1.4
		c-0.8,0.1-1.6-0.4-1.7-1.4c-0.1-0.5,0.1-1,0.5-1.4c6.4-6.5,5.4-16.5,4.9-19.4c-1.5-9.7-7.9-14.4-17.6-12.9
		c-9.5,1.5-13.9,7.8-12.4,17.6c0.5,2.9,2.6,12.8,10.6,17c0.5,0.3,0.9,0.7,1,1.3c0.1,0.8-0.4,1.6-1.2,1.7l-8.4,1.3
		c-5.2,0.8-9.1,4.8-9.4,9.7l-0.8,7.8c-5.9-5.6-9.8-12.9-11.1-21C191.5,37.2,205.3,18.3,225.4,15.1z"/>
	<path class="st1" d="M214.4,187.4l-1.3-8.5c-0.2-1.3-1-2.4-2-3.1l-0.2-14.4c5.4-4.6,8.5-12.9,7.3-20c-1.6-9.8-11-16.5-21-14.9
		c-2.3,0.4-4.5,1.1-6.5,2.3c-4.1-3.7-9.7-5.4-15.3-4.5c-5.6,0.9-10.4,4.2-13.1,9c-2.2-0.5-4.5-0.5-6.8-0.2
		c-10,1.6-16.9,10.8-15.3,20.6c1.1,7.1,6.6,14,13.1,16.7l4.2,13.8c-0.8,1-1.2,2.2-0.9,3.5l1.3,8.5c0.4,2.5,2.7,4.2,5.2,3.8l47.5-7.5
		C213.1,192.2,214.8,189.9,214.4,187.4z M156,168.9c-0.1-0.5-0.5-0.8-1-1c-5.9-2.2-10.9-8.3-11.9-14.6c-1.3-8.1,4.5-15.8,12.8-17.2
		c2.3-0.4,4.5-0.2,6.7,0.4c0.4,0.1,0.8,0,1.2-0.2c0.3-0.2,0.5-0.4,0.6-0.7c2.2-4.4,6.5-7.5,11.4-8.3c5-0.8,10,0.9,13.5,4.4
		c0.5,0.5,1.3,0.6,1.9,0.2c1.9-1.3,4-2.1,6.3-2.5c8.3-1.3,16.2,4.2,17.5,12.4c1,6.3-1.8,13.7-6.8,17.6c-0.4,0.3-0.6,0.7-0.6,1.2
		l0.2,14.4c-0.1,0-0.1,0-0.2,0l-9.1,1.4l-1.8-11.1c-0.1-0.8-0.9-1.4-1.7-1.3s-1.4,0.9-1.3,1.7l1.8,11.1l-11,1.7l-1.8-11.1
		c-0.1-0.8-0.9-1.4-1.7-1.3c-0.8,0.1-1.4,0.9-1.3,1.7l1.8,11.1l-11,1.7l-1.8-11.1c-0.1-0.8-0.9-1.4-1.7-1.3
		c-0.8,0.1-1.4,0.9-1.3,1.7l1.8,11.1l-7.3,1.2c-0.1,0-0.1,0-0.2,0L156,168.9z M162.7,197.1c-0.8,0.1-1.6-0.4-1.7-1.3l-1.3-8.5
		c-0.1-0.8,0.4-1.6,1.3-1.7l47.5-7.5c0.8-0.1,1.6,0.4,1.7,1.3l1.3,8.5c0.1,0.8-0.4,1.6-1.3,1.7L162.7,197.1z"/>
	<path class="st1" d="M608.3,123.2c0.8,1.2,2.1,2,3.5,2.2c1.4,0.2,2.8-0.3,3.9-1.2c0,0,0.2-0.2,0.2-0.2c8.5-7.6,28.5-27.2,30.5-43.4
		c2-16-9.3-30.6-25.1-32.6c-15.8-1.9-30.3,9.5-32.3,25.5c-2,16.2,12.7,40,19.1,49.5L608.3,123.2z M592.3,74
		c1.7-14.2,14.6-24.4,28.7-22.7c14.1,1.7,24.1,14.7,22.3,29c-1.9,15.5-23,35.5-29.4,41.3c0,0-0.2,0.2-0.2,0.2
		c-0.8,0.7-2.1,0.5-2.6-0.4l-0.1-0.2c0,0,0,0,0,0C606,114.1,590.4,89.5,592.3,74z"/>
	<path class="st1" d="M628.4,78.4c0.7-5.9-3.4-11.3-9.3-12.1c-5.9-0.7-11.2,3.5-12,9.5c-0.7,5.9,3.4,11.3,9.3,12.1
		C622.3,88.6,627.7,84.4,628.4,78.4z M610.4,76.2c0.5-4.2,4.3-7.1,8.4-6.6c4.1,0.5,7,4.3,6.5,8.4c-0.5,4.2-4.3,7.1-8.4,6.6
		C612.8,84.1,609.8,80.4,610.4,76.2z"/>
	<path class="st1" d="M330.4,85.4c8.5-2.1,13.7-10.8,11.6-19.3c-2.1-8.5-10.8-13.7-19.3-11.6c-8.5,2.1-13.7,10.8-11.6,19.3
		S321.9,87.5,330.4,85.4z M323.5,57.6c6.8-1.7,13.7,2.5,15.4,9.3s-2.5,13.7-9.3,15.4c-6.8,1.7-13.7-2.5-15.4-9.3
		S316.7,59.3,323.5,57.6z"/>
	<path class="st1" d="M303.5,75.7l-0.1,6.6c0,0.6,0.3,1.1,0.8,1.4l5.2,3.1l2.9,5.3c0.3,0.5,0.8,0.8,1.4,0.8l1.4,0l1.7,33.4
		c0,0.6,0.4,1.2,1,1.4c0.6,0.2,1.2,0.1,1.7-0.3l6.9-6.1l7.5,5.4c0.4,0.3,0.9,0.4,1.3,0.3c0.1,0,0.3-0.1,0.4-0.2
		c0.5-0.3,0.9-0.9,0.8-1.5l-1.1-21.3l-0.3-5.8l10,21.4c0.3,0.6,0.8,0.9,1.4,0.9c0.1,0,0.3,0,0.4,0c0.4-0.1,0.8-0.4,1-0.8l4.1-8.3
		l9,2.2c0.6,0.1,1.2-0.1,1.6-0.5c0.4-0.5,0.5-1.1,0.2-1.7l-13.2-28.4c0,0,0,0,0,0l0.1-6l3.1-5.2c0.3-0.5,0.3-1.1,0-1.6l-3.2-5.8
		l-0.1-6.6c0-0.6-0.3-1.1-0.8-1.3l-5.2-3.1l-2.9-5.3c-0.3-0.5-0.8-0.8-1.4-0.8l-6-0.1l-5.2-3.1c-0.5-0.3-1.1-0.3-1.6,0l-5.8,3.1
		l-6.5,0c-0.6,0-1.1,0.3-1.4,0.8l-3.1,5.2l-5.3,2.9c-0.5,0.3-0.8,0.8-0.8,1.4l-0.1,6l-3.1,5.2c-0.3,0.5-0.3,1.1,0,1.6L303.5,75.7z
		 M327.3,118c-0.6-0.4-1.4-0.4-2,0.1l-5.4,4.8L318.4,93l1.3,0l5.2,3.1c0.4,0.2,0.8,0.3,1.2,0.2c0.1,0,0.2-0.1,0.4-0.1l5.2-2.8
		l1.4,28.7L327.3,118z M358.5,109.7l-7-1.7c-0.7-0.2-1.5,0.2-1.8,0.8l-3.2,6.4l-10.3-22.2l2.8,0c0.6,0,1.1-0.3,1.4-0.8l3.1-5.2
		l3.6-2L358.5,109.7z M306.6,64.4c0.1-0.2,0.2-0.5,0.2-0.8l0.1-5.5l4.8-2.7c0.2-0.1,0.5-0.3,0.6-0.6l2.8-4.8l6,0
		c0.3,0,0.5-0.1,0.8-0.2l5.3-2.8l4.8,2.9c0.2,0.1,0.5,0.2,0.8,0.2l5.5,0.1L341,55c0.1,0.2,0.3,0.5,0.6,0.6l4.8,2.9l0.1,6.1
		c0,0.3,0.1,0.5,0.2,0.7l2.9,5.4l-2.8,4.8c-0.1,0.2-0.2,0.5-0.2,0.8l-0.1,5.5l-4.8,2.7c-0.2,0.1-0.4,0.3-0.6,0.6l-2.9,4.8l-6.2,0
		c-0.3,0-0.5,0.1-0.7,0.2l-5.4,2.9l-4.8-2.9c-0.2-0.1-0.5-0.2-0.8-0.2l-3.9-0.1c0,0,0,0,0,0l-1.6,0l-2.7-4.8
		c-0.1-0.2-0.3-0.4-0.6-0.6l-4.8-2.9l0-6.1c0-0.3-0.1-0.5-0.2-0.7l-2.8-5.4L306.6,64.4z"/>
	<path class="st1" d="M514.1,68.1c0.4,0.7,0.9,1.2,1.3,1.7c0.4,0.4,0.9,0.6,1.4,0.6c0.3,0,0.6-0.2,0.9-0.4c0.7-0.6,0.8-1.6,0.2-2.3
		c-0.3-0.4-0.7-0.8-1-1.4c-0.3-0.5-0.6-1.1-0.9-1.8c-0.3-0.7-0.5-1.4-0.6-2.2c-0.2-0.8-0.2-1.7-0.2-2.6c0-1.2,0.3-2.4,0.7-3.6
		c0.3-0.8-0.1-1.8-0.9-2.1c-0.8-0.3-1.8,0.1-2.1,0.9c-0.6,1.5-0.9,3.1-1,4.7c0,1.1,0,2.3,0.2,3.3c0.2,1,0.5,1.9,0.8,2.8
		C513.2,66.6,513.6,67.4,514.1,68.1z"/>
	<path class="st1" d="M538.6,103.7l-13.1,1.6c-0.9,0.1-1.5,0.9-1.4,1.8c0.1,0.9,0.9,1.5,1.8,1.4L539,107c0.9-0.1,1.5-0.9,1.4-1.8
		C540.3,104.3,539.5,103.6,538.6,103.7z"/>
	<path class="st1" d="M557.7,60.1l3.4-0.4c0.9-0.1,1.5-0.9,1.4-1.8c-0.1-0.9-0.9-1.5-1.8-1.4l-3.4,0.4c-0.9,0.1-1.5,0.9-1.4,1.8
		C556,59.5,556.8,60.2,557.7,60.1z"/>
	<path class="st1" d="M504.7,90.6c0.4,0.3,0.8,0.4,1.2,0.3c0.4-0.1,0.8-0.3,1.1-0.6l2.1-2.7c0.6-0.7,0.4-1.7-0.3-2.3
		c-0.7-0.6-1.7-0.4-2.3,0.3l-2.1,2.7C503.9,89,504,90,504.7,90.6z"/>
	<path class="st1" d="M493,68l3.4-0.4c0.9-0.1,1.5-0.9,1.4-1.8c-0.1-0.9-0.9-1.5-1.8-1.4l-3.4,0.4c-0.9,0.1-1.5,0.9-1.4,1.8
		C491.2,67.5,492.1,68.1,493,68z"/>
	<path class="st1" d="M542.9,98.2c-0.1-0.9-0.9-1.5-1.8-1.4l-19.6,2.4c-0.9,0.1-1.5,0.9-1.4,1.8c0.1,0.9,0.9,1.5,1.8,1.4l19.6-2.4
		C542.4,99.9,543,99.1,542.9,98.2z"/>
	<path class="st1" d="M498.8,42.3l2.7,2.1c0.4,0.3,0.8,0.4,1.2,0.3c0.4-0.1,0.8-0.3,1.1-0.6c0.6-0.7,0.4-1.7-0.3-2.3l-2.7-2.1
		c-0.7-0.6-1.7-0.4-2.3,0.3C497.9,40.7,498.1,41.7,498.8,42.3z"/>
	<path class="st1" d="M550.2,82.6l2.7,2.1c0.4,0.3,0.8,0.4,1.2,0.3c0.4-0.1,0.8-0.3,1.1-0.6c0.6-0.7,0.4-1.7-0.3-2.3l-2.7-2.1
		c-0.7-0.6-1.7-0.4-2.3,0.3C549.3,81,549.5,82,550.2,82.6z"/>
	<path class="st1" d="M521.4,31.7c0.1,0.9,0.9,1.5,1.8,1.4c0.9-0.1,1.5-0.9,1.4-1.8l-0.4-3.4c-0.1-0.9-0.9-1.5-1.8-1.4
		c-0.9,0.1-1.5,0.9-1.4,1.8L521.4,31.7z"/>
	<path class="st1" d="M517.6,52.5c0.3,0,0.7-0.2,1-0.5c0.6-0.6,1.2-1.1,1.9-1.5c0.8-0.5,1-1.5,0.5-2.3c-0.5-0.8-1.5-1-2.3-0.5
		c-0.9,0.6-1.7,1.2-2.4,2c-0.6,0.6-0.6,1.7,0,2.3C516.6,52.4,517.1,52.6,517.6,52.5z"/>
	<path class="st1" d="M544.8,39.1c0.4,0.3,0.8,0.4,1.2,0.3c0.4-0.1,0.8-0.3,1.1-0.6l2.1-2.7c0.6-0.7,0.4-1.7-0.3-2.3
		c-0.7-0.6-1.7-0.4-2.3,0.3l-2.1,2.7C544,37.5,544.1,38.5,544.8,39.1z"/>
	<path class="st1" d="M519,92.8l0.2,1.7c0.1,0.9,0.9,1.5,1.8,1.4l19.6-2.4c0.9-0.1,1.5-0.9,1.4-1.8c-0.9-7.4,0.4-15,3.8-22
		c1.8-3.7,2.5-7.8,2-12c-0.7-6.1-4.1-11.5-9.1-15c-5-3.5-11.3-4.6-17.3-3.2c-9.1,2.2-15.9,10.6-16.2,20c-0.2,5.4,1.6,10.6,5.1,14.7
		C515.3,80,518.2,86.3,519,92.8z M522.3,42.7c5.2-1.3,10.4-0.3,14.7,2.7c4.3,3,7.1,7.6,7.7,12.7c0.4,3.5-0.2,7-1.7,10.1
		c-3.4,7.1-4.9,14.7-4.3,22.2l-16.4,2l0,0c-0.9-7.2-4.1-14-9.5-20.4c-2.9-3.4-4.4-7.8-4.3-12.4C508.8,51.7,514.5,44.6,522.3,42.7z"
		/>
	<path class="st1" d="M679.4,118.9c-1.9,0.8-3.7,2-5.2,3.4c-1.5,1.5-2.7,3.2-3.6,5c-0.9,2-1.3,4-1.3,6.1c0,0.8,0.6,1.4,1.4,1.4
		c0.8,0,1.4-0.6,1.4-1.4c0-1.7,0.4-3.4,1.1-5c0.7-1.6,1.7-3,3-4.2c1.3-1.2,2.7-2.2,4.3-2.9c0.7-0.3,1-1.1,0.7-1.8
		C680.9,119,680.1,118.6,679.4,118.9z"/>
	<path class="st1" d="M655.2,168.4H674c1.3,5.3,6.1,9.1,11.7,9.1c5.6,0,10.3-3.8,11.7-9.1h18.8c1.2,0,2.3-0.7,2.8-1.8
		c0.5-1.1,0.2-2.2-0.6-3.1l-8.1-8.5c-1.3-1.4-2.1-3.2-2.1-5.1v-17.2c0-5.6-2.3-10.9-6.6-15c-2.8-2.6-6.3-4.4-10-5.4
		c0-0.3,0.1-0.6,0.1-0.9c0-3.3-2.7-5.9-6-5.9c-3.3,0-6,2.7-6,5.9c0,0.3,0.1,0.6,0.1,0.9c-3.7,1-7,2.9-9.8,5.6
		c-4.3,4.1-6.8,9.8-6.8,15.5v16.4c0,1.9-0.7,3.7-2.1,5.1l-8.1,8.5c-0.8,0.8-1,2-0.6,3.1C652.9,167.7,654,168.4,655.2,168.4z
		 M685.6,174.7c-4,0-7.6-2.6-8.8-6.3h17.6C693.2,172.1,689.7,174.7,685.6,174.7z M685.6,108.3c1.8,0,3.2,1.4,3.2,3.2
		c0,0.1-0.1,0.2-0.1,0.3c-0.8-0.1-1.6-0.2-2.4-0.2c-1.3,0-2.5,0.1-3.8,0.2c0-0.1-0.1-0.2-0.1-0.4
		C682.5,109.7,683.9,108.3,685.6,108.3z M663.1,156.9c1.8-1.9,2.8-4.4,2.8-7v-16.4c0-5,2.2-9.9,5.9-13.5c3.8-3.6,8.6-5.6,13.8-5.6
		c0.2,0,0.4,0,0.6,0c5,0.1,9.8,2,13.4,5.4c3.7,3.5,5.7,8.1,5.7,12.9v17.2c0,2.6,1,5.1,2.8,7l7.9,8.7h-19.2l-41.9-0.2L663.1,156.9z"
		/>
	<path class="st2" d="M442.3,185.6l-3-8.2c-1.1-3-4-4.9-7.1-4.8l-0.8-2.3c-2.3-6.4-7-11.5-13.2-14.4c-6.2-2.9-13.1-3.2-19.5-0.8
		c-13.2,4.8-20,19.5-15.2,32.7l0.8,2.3c-2.4,1.9-3.4,5.2-2.3,8.2l3,8.2c1.4,3.8,5.6,5.8,9.4,4.4l4.1-1.5c0.9-0.3,1.4-1.3,1-2.2
		l-6.8-18.8c-0.3-0.9-1.3-1.4-2.2-1l-3,1.1l-0.7-1.9c-4.1-11.4,1.7-24,13.1-28.2c5.5-2,11.5-1.8,16.8,0.7c5.3,2.5,9.4,6.9,11.4,12.4
		l0.7,1.9l-3,1.1c-0.9,0.3-1.4,1.3-1,2.2l6.8,18.8c0.3,0.9,1.3,1.4,2.2,1l2.8-1c0.1,2.4-1.3,4.7-3.7,5.6L425,204l-0.3-0.7
		c-0.3-0.9-1.3-1.4-2.2-1l-9.4,3.4c-2.2,0.8-3.3,3.2-2.5,5.5c0.8,2.2,3.2,3.3,5.5,2.5l9.4-3.4c0.9-0.3,1.4-1.3,1-2.2l-0.3-0.7
		l7.7-2.8c4.4-1.6,6.8-6.1,5.9-10.5C442.3,192,443.4,188.7,442.3,185.6z M387.6,192.1l2.5-0.9l5.6,15.5l-2.5,0.9
		c-2,0.7-4.2-0.3-4.9-2.3l-3-8.2C384.5,195,385.6,192.8,387.6,192.1z M414.9,210.4c-0.4,0.1-0.8-0.1-1-0.4c-0.1-0.4,0.1-0.8,0.4-1
		l7.7-2.8l0.5,1.4L414.9,210.4z M436.7,191.8l-2.5,0.9l-5.6-15.5l2.5-0.9c2-0.7,4.2,0.3,4.9,2.3l3,8.2
		C439.7,188.8,438.7,191,436.7,191.8z"/>
	<path class="st1" d="M251.2,223.1l-15.8-0.8l0.1-1.3c0.1-2.5-1.8-4.5-4.2-4.7c-2.4-0.1-4.5,1.8-4.7,4.2l-0.1,1.3l-16.7-0.9l0.1-1.3
		c0.1-2.5-1.8-4.5-4.2-4.7c-2.4-0.1-4.5,1.8-4.7,4.2l-0.1,1.3l-0.8,0c-9-0.5-16.8,6.5-17.3,15.6l-2.4,45.4c0,0.8,0.6,1.5,1.4,1.5
		l43.9,2.3c0,0,0,0,0,0c0,0,0,0,0,0l7,0.4c9.1,0.5,16.8-6.5,17.3-15.6l2.4-45.4C252.6,223.8,252,223.1,251.2,223.1z M229.5,220.6
		c0-0.9,0.8-1.5,1.6-1.5c0.9,0,1.5,0.8,1.5,1.6l-0.3,6c0,0.9-0.8,1.5-1.6,1.5c-0.9,0-1.5-0.8-1.5-1.6L229.5,220.6z M203.9,219.3
		c0-0.9,0.8-1.5,1.6-1.5c0.9,0,1.5,0.8,1.5,1.6l-0.3,6c0,0.9-0.8,1.5-1.6,1.5c-0.9,0-1.5-0.8-1.5-1.6L203.9,219.3z M202.6,281.1
		l-19.1-1l0.9-17l19.1,1L202.6,281.1z M203.7,261.2l-19.1-1l0.8-16l19.1,1L203.7,261.2z M224.6,282.2l-19.1-1l0.9-17l19.1,1
		L224.6,282.2z M225.7,262.4l-19.1-1l0.8-16l19.1,1L225.7,262.4z M247.3,269.8c-0.4,7.5-6.8,13.3-14.3,12.9l-5.6-0.3l0.9-17l19.2,1
		L247.3,269.8z M247.7,263.5l-19.2-1l0.8-16l19.1,1L247.7,263.5z M248.7,244.6l-63.1-3.3l0.2-3.7l63.1,3.3L248.7,244.6z M249,238
		l-63-3.3c1.1-6.8,7.1-11.8,14-11.4l0.8,0l-0.1,1.8c-0.1,2.4,1.8,4.5,4.2,4.7s4.5-1.8,4.7-4.2l0.1-1.8l16.7,0.9l-0.1,1.8
		c-0.1,2.4,1.8,4.5,4.2,4.7c2.4,0.1,4.5-1.8,4.7-4.2l0.1-1.8l14.4,0.7L249,238z"/>
	<path class="st2" d="M601.7,149.2H599c-2.3-6.8-8.6-11.7-16.2-11.7c-7.5,0-13.8,4.8-16.1,11.5c-1.1-0.9-2.5-1.4-4.1-1.4
		s-2.9,0.5-4,1.4c-2.3-6.7-8.7-11.5-16.1-11.5c-7.5,0-13.9,4.9-16.2,11.7h-2.7c-1.4,0-2.5,1.1-2.5,2.5v1.3c0,1.4,1.1,2.5,2.5,2.5
		h1.8c0.5,9,7.9,16.1,17,16.1c2.8,0,5.4-0.7,7.7-1.9l8.8,5l-11.3,6.5c-2.7,1.5-4.3,4.4-4.3,7.4c0,1.8,0.6,3.6,1.7,5.2l0,0
		c0.3,0.4,0.8,0.6,1.4,0.6c0.4,0,0.8-0.1,1.1-0.4c0.8-0.6,0.9-1.7,0.3-2.5c-0.6-0.9-1-1.9-1-2.9c0-1.8,1-3.4,2.5-4.3l13.2-7.5
		l13.2,7.5c1.5,0.9,2.5,2.5,2.5,4.3c0,1.1-0.3,2.1-0.9,2.9l0,0l2.8,2.2c1.1-1.5,1.7-3.2,1.7-5.1c0-3.1-1.6-5.9-4.3-7.4l-11.3-6.4
		l8.8-5c2.3,1.2,4.9,1.9,7.7,1.9c9.1,0,16.5-7.2,17-16.1h1.8c1.4,0,2.5-1.1,2.5-2.5v-1.3C604.2,150.4,603,149.2,601.7,149.2z
		 M542.5,168.1c-6.2,0-11.4-4.3-13-10l16.6,9.5C545,167.9,543.8,168.1,542.5,168.1z M550.2,165.7l-21-12c0.5-7,6.3-12.6,13.4-12.6
		c7.4,0,13.5,6,13.5,13.5C556,159.2,553.7,163.2,550.2,165.7z M562.7,172.8l-9.1-5.2c3.7-3.1,6-7.8,6-13c0-0.1,0-0.2,0-0.3h0
		c0-1.7,1.4-3.1,3.1-3.1s3.1,1.4,3.1,3.1h0c0,0.1,0,0.2,0,0.3c0,5.2,2.3,9.8,6,13L562.7,172.8z M582.8,168.1c-1.3,0-2.5-0.2-3.7-0.6
		l16.6-9.5C594.2,163.8,589,168.1,582.8,168.1z M575.1,165.7c-3.5-2.4-5.8-6.5-5.8-11.1c0-7.4,6-13.5,13.5-13.5
		c7.1,0,12.9,5.6,13.4,12.6L575.1,165.7z"/>
	<path class="st1" d="M638.7,201.3c-4-0.9-8.1,1.6-9,5.6c-0.9,4,1.6,8.1,5.6,9c4,0.9,8.1-1.6,9-5.6
		C645.3,206.2,642.8,202.2,638.7,201.3z M634.6,212c-1.3-1-2-2.7-1.6-4.4c0.4-1.7,1.8-2.9,3.4-3.2L634.6,212z M641.1,209.5
		c-0.4,1.7-1.8,2.9-3.4,3.2l1.7-7.6C640.8,206.1,641.5,207.8,641.1,209.5z"/>
	<path class="st1" d="M662.8,203.7l-12.6-2.9c-2.1-2.9-5.1-5.1-8.9-6c-8.1-1.9-16.2,3.2-18,11.2c-0.3,1.2-0.4,2.4-0.4,3.5
		c-3.7-0.6-7.4-0.4-10.9,0.9c-0.6,0.2-1.2,0.5-1.9,0.8l-41,23.5c-0.8,0.4-1.4,1.1-1.6,2c-0.4,1.7,0.7,3.4,2.4,3.8l24.3,5.6l-1.3,5.5
		c-0.6,2.4,1,4.9,3.5,5.5c2.5,0.6,4.9-1,5.5-3.4l1.3-5.5l2.3,0.5l-1.3,5.5c-0.6,2.4,1,4.9,3.5,5.5c2.5,0.6,5-1,5.5-3.4l1.3-5.5
		l0.2,0.1c11.4,2.6,22.9-4.5,25.5-15.8c0.8-3.6,0.6-7.3-0.4-10.9c1.8-0.2,3.5-0.7,5.1-1.5l12.9,3c1.2,0.3,2.4-0.5,2.7-1.7
		c0.2-0.7,0-1.3-0.3-1.7l-6.2-9.1l9.4-5.4c0.6-0.3,1-0.8,1.2-1.5C664.7,205.1,664,203.9,662.8,203.7z M598.5,253
		c-0.2,0.7-0.9,1.1-1.5,1c-0.7-0.2-1.1-0.9-1-1.5l1.3-5.5l2.5,0.6L598.5,253z M609.8,255.6c-0.2,0.7-0.9,1.1-1.6,0.9
		c-0.7-0.2-1.1-0.9-1-1.5l1.3-5.5l2.5,0.6L609.8,255.6z M636.8,234.3c-2.2,9.6-11.9,15.6-21.5,13.4l-44.4-10.3l40.7-23.3
		c0.5-0.3,1-0.5,1.5-0.6c3.3-1.2,6.8-1.4,10.2-0.6c1.3,5.3,5.5,9.7,11.2,11c0.5,0.1,1.1,0.2,1.6,0.3
		C637.3,227.5,637.6,230.9,636.8,234.3z M635.3,220.7c-6.3-1.5-10.3-7.7-8.8-14c1.4-6.3,7.8-10.2,14.1-8.7c6.3,1.5,10.3,7.7,8.8,14
		l-0.2,0.1l0.1,0.2C647.7,218.4,641.5,222.2,635.3,220.7z M655.8,221.9l-7.4-1.7c1.3-1.3,2.4-2.8,3.2-4.5L655.8,221.9z M653,209.9
		c0.1-1.9-0.2-3.7-0.8-5.4l7.2,1.7L653,209.9z"/>
	<path class="st2" d="M78.3,189.8l-7.4-38.3c-0.5-2.6-3-4.3-5.6-3.8c-2.6,0.5-4.2,3-3.7,5.6l3.9,20.3l-17-14.9l0,0l-11-9.7
		l-10.2-8.9c0-0.2,0-0.3,0-0.5c-0.2-0.8-0.7-1.5-1.4-1.8l-0.8-4.3l1.8-0.3c0.3-0.1,0.5-0.2,0.8-0.2l0.5,2.4c0.2,1.3,1.5,2.1,2.8,1.9
		c1.3-0.2,2.1-1.5,1.9-2.8l-0.7-3.5c3.8-2.7,6-7.3,5.6-12.2l0-0.3c-0.3-1.4-1.6-2.3-3-2l-6.3,1.2c-1.5,0.3-3.4-0.4-3.8-2.3
		c-0.7-3.5-4.2-5.8-7.6-5.1l-11.6,2.2c-3.5,0.7-5.8,4.1-5.1,7.7l1.4,7.4c-0.7,3.3-1.1,6.8-0.7,9c0.4,2.3,1.8,4.2,3.5,5.4l0,0.2
		c-0.5,0.6-0.8,1.4-0.6,2.2c0.2,0.8,0.7,1.4,1.4,1.8l0,0.1c-1.5,3.6-2,7.6-1.2,11.5L15,214.5c0.6,3,3.4,4.9,6.4,4.4
		c2.9-0.6,4.9-3.5,4.3-6.5l-6.4-32.8c0.2,0.1,0.4,0.2,0.6,0.3l6.3,32.5c0.6,3,3.5,4.9,6.4,4.4c2.9-0.6,4.9-3.5,4.3-6.5l-4.9-25
		l11.6,5.1c-0.3,2-0.3,4.1,0.1,6.2c0.4,2.1,1.2,4.2,2.3,6l-4.4,0.9c-3.1,0.6-5.1,3.6-4.5,6.7c0.6,3.1,3.6,5.1,6.7,4.5l20.5-4
		C74,208.7,80.2,199.4,78.3,189.8z M42.9,157.9c-1.8,0-3.5-1.3-3.8-3.2c0-0.1,0-0.1,0-0.2L42.9,157.9z M3.2,119.6
		c-0.4-1.9,0.8-3.7,2.7-4l11.6-2.2c1.8-0.4,3.6,0.8,4,2.7c0.6,3.2,3.9,5.3,7.4,4.7l5.7-1.1c0.1,3.1-1.1,5.9-3.2,7.9l0-0.1l-4.6,0.9
		l0.3,1.6c-0.3,0.1-0.5,0.2-0.8,0.2l-4.8,0.9l1.3,6.8l-6.4,1.2c1-1.7,1.4-3.8,1-5.8c-0.9-4.5-7.4-13-9.6-14.8l0,0
		c-1.1-0.9-2.8-0.6-3.6,0.7c-0.2,0.4-0.5,1-0.8,1.7L3.2,119.6z M3.9,135.9c-0.6-3.1,1.3-11.2,2.6-14.4c2.4,2.3,7.2,9.2,7.8,12.3
		c0.6,2.9-1.3,5.7-4.2,6.3C7.2,140.7,4.4,138.8,3.9,135.9z M63.8,207.5l-20.5,4c-1.4,0.3-2.7-0.6-3-2c-0.3-1.4,0.6-2.8,2-3l9.4-1.8
		l-1.7-2c-1.6-1.9-2.7-4.2-3.2-6.6c-0.4-2.1-0.4-4.1,0.1-6.3l0.2-1.2L27.9,180l6,30.9c0.3,1.3-0.6,2.5-1.8,2.8
		c-1.3,0.2-2.5-0.6-2.8-1.9l-6.6-34.1l-0.8-0.3c0,0-1.6-0.7-3.8-2.2l-3.1-2.2l7.8,40c0.3,1.3-0.6,2.5-1.8,2.8
		c-1.3,0.2-2.5-0.6-2.8-1.9L7,157.1c-0.7-3.4-0.3-6.9,1.2-10.1l0.2-0.5l-0.1-0.5l17-3.3c0.1,0,0.1-0.1,0.2-0.1l10.7,9.4
		c-0.3,1.1-0.4,2.2-0.2,3.3c0.7,3.8,4.4,6.3,8.2,5.6c0.5-0.1,1-0.3,1.5-0.5l1.5,1.3c0.4,0.2,0.8,0.6,1.1,1l21.9,19.2l-5.7-29.2
		c-0.2-0.9,0.4-1.8,1.3-1.9s1.7,0.4,1.9,1.3l7.4,38.3C76.8,198.3,71.7,205.9,63.8,207.5z"/>
	<path class="st2" d="M66.8,184.6c-2.4,0.5-4,2.8-3.6,5.3s2.8,4,5.3,3.6c2.4-0.5,4-2.8,3.6-5.3C71.6,185.7,69.2,184.2,66.8,184.6z
		 M67.9,190.4c-0.7,0.1-1.4-0.3-1.6-1.1c-0.1-0.7,0.3-1.4,1.1-1.6c0.7-0.1,1.4,0.3,1.6,1.1C69.1,189.5,68.6,190.2,67.9,190.4z"/>
	<path class="st2" d="M44.9,161.4c-1.9,0.4-3.1,2.2-2.8,4.1s2.2,3.1,4.1,2.8c1.9-0.4,3.1-2.2,2.8-4.1c-0.1-0.5-0.3-1-0.6-1.4
		c-0.3-0.4-0.7-0.7-1.1-1C46.6,161.4,45.8,161.2,44.9,161.4z M46,164.7c0.1,0.4-0.7,0.6-0.8,0.2c0-0.2,0.1-0.4,0.3-0.5
		C45.7,164.4,45.9,164.5,46,164.7z"/>
	<path class="st2" d="M18.6,122.7c2.2-0.4,3.6-2.5,3.2-4.7s-2.5-3.6-4.7-3.2c-2.2,0.4-3.6,2.5-3.2,4.7
		C14.3,121.7,16.4,123.1,18.6,122.7z M17.7,118c0.4-0.1,0.8,0.2,0.9,0.6c0.1,0.4-0.2,0.8-0.6,0.9c-0.4,0.1-0.8-0.2-0.9-0.6
		C17,118.5,17.3,118.1,17.7,118z"/>
	<path class="st2" d="M12.6,157.5c-1.9,0.4-3.1,2.2-2.8,4.1c0.4,1.9,2.2,3.1,4.1,2.8c1.9-0.4,3.1-2.2,2.8-4.1
		C16.3,158.3,14.5,157.1,12.6,157.5z M13,161c0-0.2,0.1-0.3,0.2-0.4c0.2,0,0.3,0.1,0.4,0.2C13.6,161.2,13,161.3,13,161z"/>
</g>
</svg>
