<svg width="32" height="32" viewBox="0 0 32 32" xmlns="http://www.w3.org/2000/svg">
    <g fill="#333940" fill-rule="evenodd">
        <path d="M16 22.528c-.309 0-.606-.119-.83-.334L7.817 15.13a1.199 1.199 0 0 1 1.66-1.728l6.406 6.156L28.28 4.026A1.2 1.2 0 0 1 30.15 5.52L16.936 22.078a1.197 1.197 0 0 1-.936.45"/>
        <path d="M16 32C7.178 32 0 24.823 0 16S7.178 0 16 0c2.287 0 4.497.472 6.566 1.405a1.197 1.197 0 1 1-.984 2.184A13.498 13.498 0 0 0 16 2.395C8.499 2.395 2.395 8.498 2.395 16c0 7.502 6.104 13.605 13.605 13.605 7.502 0 13.605-6.103 13.605-13.605 0-.408-.019-.823-.055-1.233a1.197 1.197 0 0 1 1.087-1.3 1.204 1.204 0 0 1 1.299 1.088c.043.48.064.966.064 1.445 0 8.823-7.178 16-16 16"/>
    </g>
</svg>
