<svg width="55" height="54" viewBox="0 0 55 54" fill="none" xmlns="http://www.w3.org/2000/svg">
<path fill-rule="evenodd" clip-rule="evenodd" d="M8.17738 35.8202C8.11971 35.8202 8.06276 35.8274 8.00653 35.8404L2.99071 37.0752C2.80473 37.1214 2.6483 37.2374 2.5481 37.4032C2.44718 37.569 2.41762 37.7622 2.46304 37.9475L5.67812 51.0089C5.77399 51.3946 6.16975 51.6296 6.55109 51.5366L11.5662 50.3018C11.9526 50.2059 12.189 49.8152 12.0946 49.4295L8.87878 36.3688C8.83337 36.1828 8.71731 36.0256 8.55079 35.9254C8.43617 35.8562 8.30713 35.8202 8.17738 35.8202ZM6.3788 52.9993C5.40779 52.9993 4.52112 52.3382 4.27819 51.3542L1.06311 38.2928C0.925419 37.7327 1.01481 37.1524 1.31397 36.6571C1.61385 36.1619 2.08674 35.813 2.64614 35.676L7.66195 34.4412C8.22207 34.3035 8.80237 34.3922 9.29689 34.692C9.79285 34.9919 10.141 35.4648 10.2787 36.0235L13.4945 49.0849C13.7793 50.2419 13.0692 51.4155 11.9122 51.7017L6.89567 52.9366C6.72338 52.9791 6.54965 52.9993 6.3788 52.9993Z" fill="#404750" stroke="#373D45"/>
<path fill-rule="evenodd" clip-rule="evenodd" d="M37.8178 46.1358C37.2065 46.1358 36.5801 46.0948 35.9724 46.0407C35.2205 45.9736 34.4362 45.8533 33.6772 45.7372C31.7128 45.4366 29.6828 45.1252 28.3643 45.7848C28.0089 45.9621 27.575 45.8187 27.3969 45.4618C27.2189 45.1064 27.3631 44.6732 27.7192 44.4951C29.4485 43.6308 31.7092 43.9768 33.8956 44.3128C34.6316 44.4252 35.3943 44.5427 36.1 44.6047C36.9391 44.6804 39.4903 44.906 40.3567 44.1138C40.4988 43.984 40.6869 43.7534 40.6869 43.2488C40.6869 40.9672 37.7371 40.3862 35.9782 40.2442C32.709 39.9774 29.7772 40.1418 29.7484 40.1432C29.6179 40.1483 29.4824 40.1216 29.3656 40.0596C29.2971 40.0221 22.3833 36.3399 18.7032 36.3399C15.1356 36.3399 13.1972 37.8718 13.1778 37.8869C13.0977 37.9518 13.0011 38.0008 12.9009 38.026L10.2049 38.7152C9.81634 38.8125 9.42707 38.5804 9.32831 38.1947C9.23027 37.8091 9.46311 37.4169 9.84878 37.3182L12.4035 36.6658C12.9572 36.2657 15.1126 34.8982 18.7032 34.8982C22.4381 34.8982 28.7053 38.0859 29.8688 38.6936C30.6026 38.6597 33.1891 38.5703 36.095 38.8068C39.93 39.1174 42.1286 40.7365 42.1286 43.2488C42.1286 44.0432 41.8598 44.6927 41.3306 45.1771C40.5132 45.9246 39.2062 46.1358 37.8178 46.1358Z" fill="#404750" stroke="#373D45"/>
<path fill-rule="evenodd" clip-rule="evenodd" d="M31.9291 52.9681C30.6878 52.9681 29.1977 52.8484 27.8273 52.4195C24.9842 51.5314 18.1172 50.5013 18.048 50.4912C18.0228 50.4876 17.9975 50.4825 17.973 50.476C17.1008 50.2497 14.5179 49.7717 13.0553 50.2691C12.6768 50.396 12.2688 50.1971 12.1405 49.82C12.0114 49.443 12.2126 49.0336 12.5896 48.9045C14.665 48.1959 17.8858 48.9673 18.2974 49.0711C18.9058 49.1626 25.3872 50.1466 28.257 51.0441C30.7822 51.8334 33.8992 51.4305 34.3909 51.3598C34.9762 51.1414 39.0664 49.6117 41.2716 48.764C43.3268 47.9732 44.3482 47.1586 45.1686 46.5048L45.4187 46.3072C45.6422 46.1306 46.0582 45.7976 46.5757 45.3816C48.0586 44.1922 50.299 42.3936 51.4798 41.5286C52.2468 40.967 52.7954 40.0335 52.9136 39.0913C52.9749 38.6062 52.9432 37.8997 52.4458 37.2949C51.4553 36.0875 49.7137 37.057 49.6402 37.0988L45.79 39.8108C45.7583 39.8331 45.7244 39.8526 45.6891 39.8699C43.7752 40.7955 40.8549 41.7456 40.7316 41.7859C40.3517 41.9092 39.9459 41.7009 39.8233 41.3224C39.7008 40.944 39.9077 40.5367 40.2869 40.4141C40.3157 40.4055 43.1812 39.4727 45.0093 38.5968L48.8667 35.8835C49.9062 35.2794 52.1437 34.6565 53.5595 36.3794C54.2018 37.1601 54.4808 38.1874 54.3446 39.2715C54.1788 40.5929 53.4074 41.9034 52.3319 42.6921C51.1771 43.5377 48.951 45.324 47.4783 46.5055C46.9556 46.9258 46.5361 47.2624 46.309 47.4405L46.0675 47.6322C45.2169 48.3105 44.0513 49.239 41.7892 50.1098C39.406 51.0261 34.8248 52.7367 34.8248 52.7367C34.7801 52.7533 34.7354 52.7655 34.6879 52.7727C34.6035 52.7864 33.4545 52.9681 31.9291 52.9681Z" fill="#404750" stroke="#373D45"/>
<path fill-rule="evenodd" clip-rule="evenodd" d="M6.89354 47.5819C6.89354 46.8567 7.48105 46.2699 8.20552 46.2699C8.93072 46.2699 9.51823 46.8567 9.51823 47.5819C9.51823 48.3064 8.93072 48.8939 8.20552 48.8939C7.48105 48.8939 6.89354 48.3064 6.89354 47.5819Z" fill="#404750" stroke="#373D45"/>
<path fill-rule="evenodd" clip-rule="evenodd" d="M27.0505 6.48775C26.6518 6.48775 26.3296 6.16553 26.3296 5.76688V2.44223H23.0115V5.76688C23.0115 6.16553 22.6892 6.48775 22.2906 6.48775C21.8927 6.48775 21.5697 6.16553 21.5697 5.76688V1.72136C21.5697 1.32272 21.8927 1.00049 22.2906 1.00049H27.0505C27.4491 1.00049 27.7714 1.32272 27.7714 1.72136V5.76688C27.7714 6.16553 27.4491 6.48775 27.0505 6.48775Z" fill="#404750" stroke="#373D45"/>
<path fill-rule="evenodd" clip-rule="evenodd" d="M15.9447 36.6489C15.5461 36.6489 15.2238 36.3267 15.2238 35.928V18.4592C15.2238 18.0605 15.5461 17.7383 15.9447 17.7383C16.3433 17.7383 16.6656 18.0605 16.6656 18.4592V35.928C16.6656 36.3267 16.3433 36.6489 15.9447 36.6489Z" fill="#404750" stroke="#373D45"/>
<path fill-rule="evenodd" clip-rule="evenodd" d="M46.089 39.4395C45.6903 39.4395 45.3681 39.1173 45.3681 38.7186V18.4593C45.3681 18.0606 45.6903 17.7384 46.089 17.7384C46.4876 17.7384 46.8098 18.0606 46.8098 18.4593V38.7186C46.8098 39.1173 46.4876 39.4395 46.089 39.4395Z" fill="#404750" stroke="#373D45"/>
<path fill-rule="evenodd" clip-rule="evenodd" d="M13.8123 17.738H48.2209L44.0024 6.48813H18.0316L13.8123 17.738ZM49.2619 19.1798H12.7721C12.5357 19.1798 12.3144 19.0637 12.1789 18.8691C12.0448 18.6752 12.0138 18.4272 12.0967 18.2052L16.8566 5.51351C16.9618 5.23237 17.2307 5.04639 17.5313 5.04639H44.502C44.8026 5.04639 45.0715 5.23237 45.1774 5.51351L49.9366 18.2052C50.0202 18.4272 49.9892 18.6752 49.8544 18.8691C49.7196 19.0637 49.4983 19.1798 49.2619 19.1798Z" fill="#404750" stroke="#373D45"/>
<path fill-rule="evenodd" clip-rule="evenodd" d="M39.7425 41.2141C39.3439 41.2141 39.0216 40.8919 39.0216 40.4932V28.6991H34.1176V39.3881C34.1176 39.7868 33.7953 40.109 33.3967 40.109C32.9988 40.109 32.6758 39.7868 32.6758 39.3881V27.9782C32.6758 27.5796 32.9988 27.2573 33.3967 27.2573H39.7425C40.1412 27.2573 40.4634 27.5796 40.4634 27.9782V40.4932C40.4634 40.8919 40.1412 41.2141 39.7425 41.2141Z" fill="#404750" stroke="#373D45"/>
<path fill-rule="evenodd" clip-rule="evenodd" d="M21.4252 30.5218H27.9166V24.0304H21.4252V30.5218ZM28.6375 31.9636H20.7043C20.3057 31.9636 19.9834 31.6413 19.9834 31.2427V23.3102C19.9834 22.9116 20.3057 22.5894 20.7043 22.5894H28.6375C29.0361 22.5894 29.3584 22.9116 29.3584 23.3102V31.2427C29.3584 31.6413 29.0361 31.9636 28.6375 31.9636Z" fill="#404750" stroke="#373D45"/>
</svg>
