<svg width="51" height="54" viewBox="0 0 51 54" fill="none" xmlns="http://www.w3.org/2000/svg">
<path fill-rule="evenodd" clip-rule="evenodd" d="M17.0239 48.7912H1.71085C1.31775 48.7912 1 48.4748 1 48.0835V1.70768C1 1.31704 1.31775 1 1.71085 1H26.5556C26.7362 1 26.9103 1.06865 27.0418 1.19178L38.3343 11.732C38.4786 11.8665 38.5597 12.0526 38.5597 12.2486V26.565C38.5597 26.9563 38.2419 27.2727 37.8488 27.2727C37.4557 27.2727 37.138 26.9563 37.138 26.565V12.555L26.2748 2.41536H2.42169V47.3758H17.0239C17.417 47.3758 17.7347 47.6921 17.7347 48.0835C17.7347 48.4748 17.417 48.7912 17.0239 48.7912Z" fill="#404750" stroke="#373D45"/>
<path fill-rule="evenodd" clip-rule="evenodd" d="M27.2673 11.5402H36.0512L27.2673 3.34098V11.5402ZM37.8489 12.9555H26.5564C26.1633 12.9555 25.8456 12.6392 25.8456 12.2479V1.70695C25.8456 1.42529 26.0133 1.17053 26.2742 1.0573C26.5337 0.947605 26.8365 0.997143 27.0426 1.19105L38.3344 11.732C38.5477 11.9301 38.6174 12.238 38.5093 12.5083C38.4027 12.7779 38.1404 12.9555 37.8489 12.9555Z" fill="#404750" stroke="#373D45"/>
<path fill-rule="evenodd" clip-rule="evenodd" d="M19.7805 36.8993H8.48724C8.09486 36.8993 7.7764 36.5829 7.7764 36.1916C7.7764 35.8002 8.09486 35.4839 8.48724 35.4839H19.7805C20.1736 35.4839 20.4913 35.8002 20.4913 36.1916C20.4913 36.5829 20.1736 36.8993 19.7805 36.8993Z" fill="#404750" stroke="#373D45"/>
<path fill-rule="evenodd" clip-rule="evenodd" d="M30.9319 28.8529H8.48764C8.09454 28.8529 7.77679 28.5365 7.77679 28.1452C7.77679 27.7538 8.09454 27.4375 8.48764 27.4375H30.9319C31.325 27.4375 31.6427 27.7538 31.6427 28.1452C31.6427 28.5365 31.325 28.8529 30.9319 28.8529Z" fill="#404750" stroke="#373D45"/>
<path fill-rule="evenodd" clip-rule="evenodd" d="M31.0734 21.3711H8.48773C8.09463 21.3711 7.77689 21.0547 7.77689 20.6634C7.77689 20.272 8.09463 19.9557 8.48773 19.9557H31.0734C31.4665 19.9557 31.7843 20.272 31.7843 20.6634C31.7843 21.0547 31.4665 21.3711 31.0734 21.3711Z" fill="#404750" stroke="#373D45"/>
<path fill-rule="evenodd" clip-rule="evenodd" d="M45.7492 35.0823C45.5751 35.0823 45.4002 35.0186 45.263 34.8906L40.7463 30.6749C40.4598 30.4081 40.4449 29.9601 40.7136 29.6749C40.9809 29.3897 41.4323 29.3756 41.718 29.6424L46.2354 33.8588C46.5219 34.1255 46.5361 34.5735 46.2674 34.8587C46.1281 35.0073 45.939 35.0823 45.7492 35.0823Z" fill="#404750" stroke="#373D45"/>
<path fill-rule="evenodd" clip-rule="evenodd" d="M22.7454 51.5847H26.2704L48.0984 31.2127L44.6202 27.9666L22.7454 48.3839V51.5847ZM26.5512 53.0001H22.0345C21.6414 53.0001 21.3237 52.6838 21.3237 52.2924V48.0767C21.3237 47.8814 21.4047 47.6946 21.5483 47.5601L44.1347 26.4804C44.4084 26.225 44.8328 26.225 45.1064 26.4804L49.6239 30.6968C49.7675 30.8305 49.8485 31.0174 49.8485 31.2127C49.8485 31.4087 49.7675 31.5948 49.6239 31.7293L27.0374 52.8083C26.9067 52.9314 26.7318 53.0001 26.5512 53.0001Z" fill="#404750" stroke="#373D45"/>
</svg>
