<svg width="249" height="131" viewBox="0 0 249 131" xmlns="http://www.w3.org/2000/svg">
    <g fill="none" fill-rule="evenodd">
        <path stroke="#414751" stroke-width="1.47" fill="#FFF" fill-rule="nonzero" stroke-linecap="round" stroke-linejoin="round" d="M246.458 122.611H1"/>
        <g fill="#FFF" fill-rule="nonzero" stroke="#414751" stroke-linecap="round" stroke-linejoin="round" stroke-width="1.47">
            <path d="M231.852 122.611h-6.77v-16.607l3.385-2.577 3.385 2.577zM243.158 122.611h-6.766v-16.607l3.381-2.577 3.385 2.577z"/>
            <path d="M219.549 111.475h28.22v5.29h-28.22z"/>
        </g>
        <path d="M187.087 122.611c.24-.972.405-1.97.405-3.015 0-6.233-4.533-11.38-10.471-12.395-1.943-4.462-6.376-7.584-11.55-7.584-6.044 0-11.085 4.263-12.306 9.947-.1 0-.192-.03-.295-.03-6.96 0-12.6 5.648-12.6 12.61 0 .162.04.309.047.471h46.774l-.004-.004z" stroke="#414751" stroke-width="1.47" fill="#FFF" fill-rule="nonzero" stroke-linecap="round" stroke-linejoin="round"/>
        <g fill-rule="nonzero">
            <path stroke="#414751" stroke-width="1.47" fill="#FFF" stroke-linecap="round" stroke-linejoin="round" d="M16.38 65.987h48.23v56.625H16.38z"/>
            <path stroke="#414751" stroke-width="1.47" fill="#ECECEC" stroke-linecap="round" stroke-linejoin="round" d="M67.123 65.972H13.866l4.783-9.038h43.69z"/>
            <path stroke="#414751" stroke-width="1.47" fill="#FFF" stroke-linecap="round" stroke-linejoin="round" d="M22.681 74.796h5.986v9.553h-5.986zM37.501 74.796h5.986v9.553h-5.986zM52.321 74.796h5.986v9.553h-5.986z"/>
            <path fill="#ECECEC" d="M17.115 66.76H63.86v2.978H17.115zM23.417 79.57h4.518v4.305h-4.518zM38.222 79.57h4.533v4.305h-4.533zM53.05 79.57h4.533v4.305H53.05z"/>
            <path stroke="#414751" stroke-width="1.47" fill="#FFF" stroke-linecap="round" stroke-linejoin="round" d="M22.681 89.309h5.986v9.553h-5.986zM37.501 89.309h5.986v9.553h-5.986zM52.321 89.309h5.986v9.553h-5.986z"/>
            <path fill="#ECECEC" d="M23.417 94.087h4.518v4.304h-4.518zM38.222 94.087h4.533v4.304h-4.533zM53.05 94.087h4.533v4.304H53.05z"/>
            <path stroke="#414751" stroke-width="1.47" fill="#00B4D2" stroke-linecap="round" stroke-linejoin="round" d="M36.063 109.259h8.863v13.356h-8.863z"/>
        </g>
        <g transform="translate(172.102 77.819)">
            <path stroke="#414751" stroke-width="1.47" fill="#FFF" fill-rule="nonzero" stroke-linecap="round" stroke-linejoin="round" d="M47.686 15.908 25.836 0 3.95 15.908v28.884h43.735z"/>
            <path stroke="#414751" stroke-width="1.47" stroke-linecap="round" stroke-linejoin="round" d="M51.634 18.683 25.824 0 0 18.683"/>
            <path stroke="#414751" stroke-width="1.47" fill="#ECECEC" fill-rule="nonzero" stroke-linecap="round" stroke-linejoin="round" d="M28.492 27.979h11.707v16.375H28.492zM10.383 26.904H22.09v8.188H10.383z"/>
            <ellipse stroke="#414751" stroke-width="1.47" fill="#ECECEC" fill-rule="nonzero" stroke-linecap="round" stroke-linejoin="round" cx="25.817" cy="16.206" rx="3.731" ry="3.733"/>
            <path fill="#ECECEC" fill-rule="nonzero" d="m22.668 3.203 24.257 17.14v-4.137L25.81.884z"/>
        </g>
        <path d="M168.157 122.574a4.7 4.7 0 0 1-1.177-3.114 4.722 4.722 0 0 1 4.72-4.723 4.725 4.725 0 0 1 4.721 4.723c0 .1-.007.195-.015.294a4.668 4.668 0 0 1 1.626-.294c2.042 0 3.779 1.3 4.434 3.114h-14.312.003z" stroke="#414751" stroke-width="1.47" fill="#019EC6" fill-rule="nonzero" stroke-linecap="round" stroke-linejoin="round"/>
        <path d="M19.19 99.098c-1.067-1.33-1.442-3.118-.817-4.701.29-.733.45-1.532.45-2.368a6.377 6.377 0 0 0-1.263-3.825c-.79-1.071-.979-2.444-.747-3.755.078-.434.092-.894.033-1.362-.25-2.043-1.92-3.689-3.962-3.917a4.511 4.511 0 0 0-4.941 5.342c.25 1.285.022 2.636-.758 3.689a6.42 6.42 0 0 0-1.262 3.828c0 .836.158 1.635.449 2.368.614 1.55.301 3.339-.755 4.627a8.734 8.734 0 0 0-1.91 6.678c.501 3.943 3.706 7.098 7.65 7.544a8.74 8.74 0 0 0 9.746-8.681 8.698 8.698 0 0 0-1.92-5.467h.007z" fill="#ECECEC" fill-rule="nonzero"/>
        <path d="M16.887 102.746a8.698 8.698 0 0 0-1.92-5.467c-1.068-1.329-1.443-3.118-.818-4.701.291-.733.45-1.532.45-2.367a6.377 6.377 0 0 0-1.263-3.825c-.79-1.072-.978-2.445-.746-3.755.077-.435.091-.895.033-1.363a4.47 4.47 0 0 0-.832-2.087 4.512 4.512 0 0 0-3.848 5.33c.246 1.286.022 2.637-.758 3.69a6.42 6.42 0 0 0-1.262 3.828c0 .836.158 1.635.449 2.368.614 1.55.301 3.339-.755 4.627a8.734 8.734 0 0 0-1.91 6.678c.292 2.294 1.498 4.315 3.235 5.696.066.007.129.022.195.029a8.74 8.74 0 0 0 9.746-8.68h.004z" fill="#FFF" fill-rule="nonzero"/>
        <path d="M19.19 99.098c-1.067-1.33-1.442-3.118-.817-4.701.29-.733.45-1.532.45-2.368a6.377 6.377 0 0 0-1.263-3.825c-.79-1.071-.979-2.444-.747-3.755.078-.434.092-.894.033-1.362-.25-2.043-1.92-3.689-3.962-3.917a4.511 4.511 0 0 0-4.941 5.342c.25 1.285.022 2.636-.758 3.689a6.42 6.42 0 0 0-1.262 3.828c0 .836.158 1.635.449 2.368.614 1.55.301 3.339-.755 4.627a8.734 8.734 0 0 0-1.91 6.678c.501 3.943 3.706 7.098 7.65 7.544a8.74 8.74 0 0 0 9.746-8.681 8.698 8.698 0 0 0-1.92-5.467h.007z" stroke="#414751" stroke-width="1.47" stroke-linecap="round" stroke-linejoin="round"/>
        <path stroke="#414751" stroke-width="1.47" fill="#FFF" fill-rule="nonzero" stroke-linecap="round" stroke-linejoin="round" d="M12.744 97.82v24.21"/>
        <path stroke="#414751" stroke-width="1.47" stroke-linecap="round" stroke-linejoin="round" d="M12.744 106.578 9.55 103.38"/>
        <path stroke="#414751" stroke-width="1.47" fill="#FFF" fill-rule="nonzero" stroke-linecap="round" stroke-linejoin="round" d="M2.464 129.816h52.852M93.764 129.816h113.132M217.54 129.816H248"/>
        <g transform="translate(54.672 3.902)">
            <ellipse stroke="#414751" stroke-width="1.47" fill="#ECECEC" fill-rule="nonzero" stroke-linecap="round" stroke-linejoin="round" cx="77.16" cy="63.87" rx="56.148" ry="56.183"/>
            <path d="M30.626 63.87c0-25.715 20.835-46.563 46.534-46.563" stroke="#414751" stroke-width="1.47" stroke-linecap="round" stroke-linejoin="round"/>
            <g fill-rule="nonzero" stroke="#414751" stroke-linecap="round" stroke-linejoin="round" stroke-width="1.47">
                <path fill="#019EC6" d="M74.007 89.522H42.484V48.514l31.523-6.31"/>
                <path fill="#FFF" d="M48.786 67.441H67.7v22.081H48.786z"/>
                <path fill="#019EC6" d="M105.534 40.264v-7.521h-9.459v4.61l-22.068-7.765v59.934h37.83V42.204z"/>
                <path fill="#FFF" d="M67.7 80.057H48.787M67.7 73.751H48.787M80.314 54.824h25.22V73.75h-25.22zM80.314 64.286h25.22M92.922 54.824v18.927"/>
            </g>
            <ellipse stroke="#414751" stroke-width="1.47" fill="#019EC6" fill-rule="nonzero" stroke-linecap="round" stroke-linejoin="round" cx="131.646" cy="23.079" rx="23.065" ry="23.079"/>
            <ellipse stroke="#414751" stroke-width="1.47" fill="#019EC6" fill-rule="nonzero" stroke-linecap="round" stroke-linejoin="round" cx="21.016" cy="104.605" rx="21.016" ry="21.029"/>
            <path d="M5.368 104.642c0-8.791 7.123-15.915 15.905-15.915M114.412 23.455c0-9.646 7.815-17.469 17.458-17.469" stroke="#FFF" stroke-width="1.47" stroke-linecap="round" stroke-linejoin="round"/>
            <path d="M21.273 103.217c-1.633 0-2.965-1.152-2.965-2.566 0-1.413 1.328-2.566 2.965-2.566 1.637 0 2.966 1.153 2.966 2.566a1.348 1.348 0 0 0 2.693 0c0-2.47-1.84-4.546-4.312-5.11v-.699a1.348 1.348 0 0 0-2.693 0v.7c-2.473.563-4.312 2.64-4.312 5.11 0 2.9 2.538 5.26 5.658 5.26 1.634 0 2.966 1.152 2.966 2.566s-1.329 2.566-2.966 2.566c-1.637 0-2.965-1.152-2.965-2.566a1.348 1.348 0 0 0-2.693 0c0 2.47 1.84 4.547 4.312 5.11v.582a1.348 1.348 0 0 0 2.693 0v-.582c2.472-.563 4.312-2.64 4.312-5.11 0-2.9-2.539-5.264-5.659-5.264v.003z" fill="#FFF" fill-rule="nonzero"/>
            <g transform="translate(117.874 16.46)" stroke="#FFF" stroke-linecap="round" stroke-linejoin="round" stroke-width="1.47">
                <ellipse cx="7.178" cy="5.338" rx="5.335" ry="5.338"/>
                <path d="M12.513 5.242a1.71 1.71 0 1 1 3.422 0M19.864 18.669l.011-.011a2.354 2.354 0 0 0-.725-3.45L1.935 5.423M1.755 5.371H.423A.423.423 0 0 1 0 4.948v-.784c0-.232.188-.424.423-.424h1.332c.232 0 .423.188.423.424v.784a.423.423 0 0 1-.423.423z"/>
                <ellipse cx="21.273" cy="5.338" rx="5.335" ry="5.338"/>
                <path d="m8.587 18.669-.01-.011a2.354 2.354 0 0 1 .725-3.45l17.214-9.785M28.028 5.371h-1.332a.423.423 0 0 1-.423-.423v-.784c0-.232.188-.424.423-.424h1.332c.232 0 .423.188.423.424v.784a.423.423 0 0 1-.423.423z"/>
            </g>
        </g>
        <g fill-rule="nonzero">
            <path d="M102.204 47.833c2.476 0 3.054-3.434.725-4.281a7.588 7.588 0 0 0-4.43-.225c-1.446-3.368-4.794-5.732-8.69-5.732-.298 0-.596.015-.887.044-1.225-4.723-5.515-8.21-10.618-8.21-4.239 0-7.91 2.405-9.739 5.924a9.454 9.454 0 0 0-3.352-.059c-4.19.678-7.476 4.164-7.892 8.39 0 .033-.007.067-.007.1-.191 2.186 1.582 4.05 3.775 4.05h41.115zM36.806 22.328c.673 0 1.214-.548 1.214-1.222v-.011c0-3.273-2.38-5.975-5.5-6.509a6.615 6.615 0 0 0-6.064-3.983c-3.175 0-5.82 2.238-6.464 5.224-.051 0-.103-.015-.154-.015a6.62 6.62 0 0 0-6.487 5.305c-.136.681.405 1.314 1.1 1.31l22.351-.095.004-.004zM187.072 97.334a1.884 1.884 0 0 0 1.877-1.885v-.018c0-5.055-3.676-9.226-8.492-10.05-1.575-3.62-5.17-6.152-9.364-6.152-4.9 0-8.988 3.457-9.981 8.066-.081 0-.158-.026-.24-.026-4.948 0-9.076 3.52-10.018 8.191-.213 1.053.626 2.029 1.7 2.025 6.538-.03 28.024-.121 34.515-.15h.003z" stroke="#414751" stroke-width="1.47" fill="#FFF" stroke-linecap="round" stroke-linejoin="round"/>
            <path d="M78.937 9.115a.951.951 0 0 0 .945-.95v-.01c0-2.544-1.85-4.643-4.275-5.059a5.135 5.135 0 0 0-9.735.965c-.04 0-.077-.011-.122-.011a5.144 5.144 0 0 0-5.04 4.123c-.107.53.316 1.02.857 1.02 3.29-.015 14.106-.063 17.373-.074l-.003-.004zM245.27 75.198a1.47 1.47 0 0 0 1.464-1.473v-.015c0-3.946-2.87-7.204-6.63-7.849-1.228-2.823-4.036-4.804-7.31-4.804-3.827 0-7.016 2.699-7.793 6.295-.062 0-.121-.018-.187-.018a7.983 7.983 0 0 0-7.822 6.395c-.166.82.489 1.583 1.328 1.58l26.95-.119v.008z" fill="#ECECEC"/>
            <path d="M224.644 15.698c.894 0 1.49-.943 1.09-1.738a6.308 6.308 0 0 0-5.633-3.468h-.14a6.31 6.31 0 0 0-11.818-1.498 6.313 6.313 0 0 0-9.397 5.507v.011c0 .656.552 1.178 1.207 1.178h24.695l-.004.008z" stroke="#414751" stroke-width="1.47" fill="#FFF" stroke-linecap="round" stroke-linejoin="round"/>
        </g>
    </g>
</svg>
