<svg width="234" height="141" viewBox="0 0 234 141" xmlns="http://www.w3.org/2000/svg">
    <g fill="none" fill-rule="evenodd">
        <path stroke="#414751" stroke-width="1.382" fill="#FFF" fill-rule="nonzero" stroke-linecap="round" stroke-linejoin="round" d="M144.175 139.827H233M55.043 139.827h79.327M1 139.827h43.671M232.122 133.306H1.46"/>
        <path d="M226.393 133.33c.225-.912.38-1.849.38-2.83 0-5.851-4.26-10.683-9.84-11.637-1.825-4.188-5.991-7.119-10.852-7.119-5.681 0-10.418 4.002-11.566 9.338-.093 0-.18-.027-.276-.027-6.542 0-11.842 5.301-11.842 11.836 0 .152.038.29.045.442h43.954l-.003-.003zM167.592 133.289a5.318 5.318 0 0 0 1.335-3.522 5.342 5.342 0 0 0-10.683 0c0 .11.01.221.017.332a5.325 5.325 0 0 0-1.84-.332 5.337 5.337 0 0 0-5.016 3.522h16.19-.003z" stroke="#414751" stroke-width="1.382" fill="#019EC6" fill-rule="nonzero" stroke-linecap="round" stroke-linejoin="round"/>
        <g transform="translate(33.243 37.677)" fill-rule="nonzero" stroke="#414751" stroke-linecap="round" stroke-linejoin="round" stroke-width="1.382">
            <path d="M148.975 82.974H4.399c-3.247 0-5.373 3.4-3.948 6.317l3.066 6.283h146.336l3.066-6.283c1.425-2.917-.701-6.317-3.948-6.317h.004z" fill="#ECECEC"/>
            <path d="M14.138 0h125.097a3.458 3.458 0 0 1 3.457 3.456v79.58H10.682V3.456A3.458 3.458 0 0 1 14.137 0z" fill="#ECECEC"/>
            <rect fill="#FFF" x="19.615" y="8.768" width="114.14" height="65.5" rx="3.456"/>
            <path d="M49.556 83.036h54.258v2.125a3.458 3.458 0 0 1-3.458 3.456H53.014a3.458 3.458 0 0 1-3.458-3.456v-2.125h0z" fill="#FFF"/>
        </g>
        <g transform="translate(211.1 110.424)">
            <ellipse fill="#ECECEC" fill-rule="nonzero" cx="7.236" cy="7.233" rx="7.236" ry="7.233"/>
            <path d="M7.029.01C3.129.121 0 3.307 0 7.233a7.226 7.226 0 0 0 3.644 6.273c3.9-.11 7.03-3.297 7.03-7.223A7.226 7.226 0 0 0 7.028.01z" fill="#FFF" fill-rule="nonzero"/>
            <ellipse stroke="#414751" stroke-width="1.382" stroke-linecap="round" stroke-linejoin="round" cx="7.236" cy="7.233" rx="7.236" ry="7.233"/>
            <path stroke="#414751" stroke-width="1.382" fill="#FFF" fill-rule="nonzero" stroke-linecap="round" stroke-linejoin="round" d="M7.582 5.398v17.446"/>
            <path stroke="#414751" stroke-width="1.382" stroke-linecap="round" stroke-linejoin="round" d="M7.582 10.717 4.958 7.551"/>
        </g>
        <g transform="translate(162.58 63.403)" fill="#FFF" fill-rule="nonzero" stroke="#414751" stroke-linecap="round" stroke-linejoin="round" stroke-width="1.382">
            <rect width="39.629" height="70.079" rx=".346"/>
            <path d="M18.29 6.093h3.049M18.29 63.987h3.049M0 57.894h39.629M0 12.189h39.629"/>
        </g>
        <path stroke="#019EC6" stroke-width="1.728" fill="#FFF" fill-rule="nonzero" stroke-linecap="round" stroke-linejoin="round" d="M190.311 93.89v-3.714h-3.167v.964l-4.75-4.13-12.136 10.551h2.11v10.548h7.388v-6.328h5.276v6.328h7.388V97.56h2.113z"/>
        <path d="M44.73 132.736a4.778 4.778 0 0 0-4.747-5.312 4.753 4.753 0 0 0-2.95 1.023 4.767 4.767 0 0 0-4.584-3.463c-2.469 0-4.474 1.88-4.723 4.278a4.74 4.74 0 0 0-3.492-1.54 4.77 4.77 0 0 0-4.771 4.768 3 3 0 0 0 .013.25h25.257l-.004-.004z" stroke="#414751" stroke-width="1.382" fill="#019EC6" fill-rule="nonzero" stroke-linecap="round" stroke-linejoin="round"/>
        <g transform="translate(18.38 18.178)" stroke-linecap="round" stroke-linejoin="round" stroke-width="1.382">
            <ellipse stroke="#414751" fill="#019EC6" fill-rule="nonzero" cx="19.507" cy="19.498" rx="19.507" ry="19.498"/>
            <path d="M4.93 19.813c0-8.15 6.61-14.757 14.763-14.757" stroke="#FFF"/>
            <g transform="translate(7.859 13.903)" stroke="#FFF">
                <ellipse cx="6.068" cy="4.51" rx="4.512" ry="4.51"/>
                <path d="M10.583 4.427c0-.798.65-1.448 1.449-1.448.798 0 1.448.65 1.448 1.448M16.8 15.773l.007-.01a1.989 1.989 0 0 0-.616-2.914L1.631 4.583M1.483 4.538H.356A.356.356 0 0 1 0 4.182v-.66c0-.197.159-.356.356-.356h1.127c.197 0 .356.159.356.356v.66a.356.356 0 0 1-.356.356z"/>
                <ellipse cx="17.992" cy="4.51" rx="4.512" ry="4.51"/>
                <path d="m7.26 15.773-.006-.01a1.989 1.989 0 0 1 .615-2.914l14.56-8.266M23.704 4.538h-1.127a.356.356 0 0 1-.356-.356v-.66c0-.197.159-.356.356-.356h1.127c.197 0 .356.159.356.356v.66a.356.356 0 0 1-.356.356z"/>
            </g>
        </g>
        <g transform="translate(178.494 41.184)">
            <ellipse stroke="#414751" stroke-width="1.382" fill="#019EC6" fill-rule="nonzero" stroke-linecap="round" stroke-linejoin="round" cx="19.749" cy="19.74" rx="19.749" ry="19.74"/>
            <path d="M5.04 19.775c0-8.253 6.694-14.94 14.947-14.94" stroke="#FFF" stroke-width="1.382" stroke-linecap="round" stroke-linejoin="round"/>
            <path d="M19.99 18.44c-1.534 0-2.786-1.08-2.786-2.408 0-1.327 1.248-2.409 2.787-2.409 1.538 0 2.787 1.082 2.787 2.41a1.266 1.266 0 0 0 2.53 0c0-2.32-1.728-4.269-4.052-4.798v-.656a1.266 1.266 0 0 0-2.53 0v.656c-2.324.529-4.053 2.478-4.053 4.797 0 2.723 2.386 4.939 5.318 4.939 1.535 0 2.787 1.081 2.787 2.408s-1.249 2.41-2.787 2.41c-1.539 0-2.787-1.083-2.787-2.41a1.266 1.266 0 0 0-2.53 0c0 2.32 1.728 4.268 4.051 4.797v.546a1.266 1.266 0 0 0 2.531 0v-.546c2.324-.529 4.052-2.478 4.052-4.797 0-2.723-2.385-4.942-5.317-4.942v.004z" fill="#FFF" fill-rule="nonzero"/>
        </g>
        <g stroke="#414751" stroke-linecap="round" stroke-linejoin="round" stroke-width="1.382">
            <path d="m81.835 65.2 14.51 45.14"/>
            <path d="M81.876 65.328s11.8-12.186 23.649-6.1l10.656 33.15s-9.211-4.856-24.085 4.744l-10.22-31.791v-.003z" fill="#0986A7" fill-rule="nonzero"/>
            <path d="M113.632 84.442s-9.21-4.855-24.084 4.745M111.015 76.3s-9.21-4.855-24.084 4.745"/>
            <path d="M139.847 86.315s-11.8 12.186-23.65 6.1l-10.655-33.15s9.21 4.856 24.085-4.744l10.22 31.791v.003z" fill="#019EC6" fill-rule="nonzero"/>
            <path d="M108.764 69.298s9.211 4.856 24.085-4.745M111.568 78.025s9.211 4.855 24.085-4.745M113.96 85.465s9.211 4.856 24.085-4.745"/>
        </g>
        <path d="M34.36 95.608a8.511 8.511 0 0 0 .09-2.674c-.466-3.82-3.574-6.892-7.402-7.317-5.09-.566-9.4 3.401-9.4 8.374 0 .591.062 1.165.176 1.721.574 2.765.097 5.602-1.414 7.99a11.354 11.354 0 0 0-1.712 7.054c.453 5.363 4.727 9.766 10.079 10.357 6.89.764 12.726-4.61 12.726-11.346 0-2.274-.667-4.392-1.818-6.168-1.525-2.354-1.864-5.236-1.328-7.99h.004z" fill="#ECECEC" fill-rule="nonzero"/>
        <path d="M32.113 107.97c0-2.274-.667-4.392-1.818-6.168-1.525-2.354-1.864-5.236-1.328-7.99a8.53 8.53 0 0 0 .09-2.679c-.273-2.243-1.463-4.22-3.167-5.564-4.567.104-8.243 3.83-8.243 8.419 0 .59.063 1.164.177 1.717.574 2.765.097 5.602-1.414 7.99a11.348 11.348 0 0 0-1.712 7.054c.301 3.58 2.313 6.729 5.21 8.605 6.663.443 12.202-4.824 12.202-11.387l.003.003z" fill="#FFF" fill-rule="nonzero"/>
        <path d="M34.36 95.608a8.511 8.511 0 0 0 .09-2.674c-.466-3.82-3.574-6.892-7.402-7.317-5.09-.566-9.4 3.401-9.4 8.374 0 .591.062 1.165.176 1.721.574 2.765.097 5.602-1.414 7.99a11.354 11.354 0 0 0-1.712 7.054c.453 5.363 4.727 9.766 10.079 10.357 6.89.764 12.726-4.61 12.726-11.346 0-2.274-.667-4.392-1.818-6.168-1.525-2.354-1.864-5.236-1.328-7.99h.004z" stroke="#414751" stroke-width="1.382" stroke-linecap="round" stroke-linejoin="round"/>
        <path stroke="#414751" stroke-width="1.382" fill="#FFF" fill-rule="nonzero" stroke-linecap="round" stroke-linejoin="round" d="M26.083 108.184v24.842"/>
        <g fill-rule="nonzero">
            <path d="M32.826 10.51c.605 0 1.089-.491 1.089-1.096v-.01c0-2.934-2.137-5.357-4.934-5.834a5.934 5.934 0 0 0-11.244 1.113c-.048 0-.09-.014-.138-.014a5.942 5.942 0 0 0-5.822 4.755c-.125.612.363 1.179.989 1.175l20.056-.086.004-.003z" fill="#ECECEC"/>
            <path d="M105.39 25.695c.778 0 1.404-.636 1.407-1.414v-.013c0-3.785-2.755-6.909-6.365-7.527a7.655 7.655 0 0 0-14.504 1.434c-.062 0-.117-.018-.18-.018a7.663 7.663 0 0 0-7.51 6.135c-.158.788.471 1.52 1.277 1.517l25.875-.11v-.004zM201.472 30.986c.778 0 1.403-.636 1.407-1.414v-.013c0-3.785-2.756-6.909-6.365-7.527a7.655 7.655 0 0 0-14.504 1.434c-.062 0-.118-.017-.18-.017a7.663 7.663 0 0 0-7.51 6.134c-.158.788.47 1.52 1.276 1.517l25.876-.11v-.004zM66.926 65.967c1.473 0 2.458-1.552 1.795-2.865a10.416 10.416 0 0 0-9.297-5.716c-.077 0-.156.003-.232.007-1.006-4.7-5.183-8.229-10.186-8.229-4.08 0-7.61 2.347-9.317 5.761a10.367 10.367 0 0 0-5.097-1.33c-5.753 0-10.417 4.662-10.417 10.412v.021c0 1.082.913 1.946 1.995 1.946h40.76l-.004-.007z" stroke="#414751" stroke-width="1.382" fill="#FFF" stroke-linecap="round" stroke-linejoin="round"/>
            <path d="M230.514 96.172c.737 0 1.231-.778.899-1.434a5.204 5.204 0 0 0-4.65-2.858h-.114a5.211 5.211 0 0 0-9.753-1.234 5.208 5.208 0 0 0-7.758 4.541l-.001.01c0 .543.456.971.996.971h20.378l.003.004zM133.99 21.627c-.737 0-1.231-.777-.9-1.434a5.204 5.204 0 0 1 4.651-2.858h.114a5.211 5.211 0 0 1 9.753-1.234 5.208 5.208 0 0 1 7.758 4.541l.001.01c0 .543-.456.972-.996.972h-20.378l-.003.003z" fill="#ECECEC"/>
        </g>
    </g>
</svg>
