<svg width="202" height="52" viewBox="0 0 202 52" xmlns="http://www.w3.org/2000/svg" xmlns:xlink="http://www.w3.org/1999/xlink">
    <defs>
        <path id="sssc4hccia" d="M0 0h15.031v16.682H0z"/>
        <path id="ilujj2081c" d="M0 0h17.926v28.075H0z"/>
    </defs>
    <g fill="none" fill-rule="evenodd">
        <path fill="#003449" d="M53.068 19.964 59.1 10.83V24.79h4.684V3.404H58.7l-5.633 9.044-5.632-9.044h-5.082v21.387h4.623V10.92l5.97 9.043zM71.238 16.572c0-2.413 1.592-4.46 4.255-4.46 2.572 0 4.317 2.108 4.317 4.522v.06c0 2.414-1.592 4.461-4.255 4.461-2.572 0-4.317-2.108-4.317-4.521v-.062zm4.255 8.586c5.113 0 8.91-3.82 8.91-8.524v-.062c0-4.705-3.767-8.463-8.848-8.463-5.113 0-8.91 3.82-8.91 8.525v.06c0 4.706 3.766 8.464 8.848 8.464zM97.108 12.967h.245V8.11c-2.755-.122-4.286 1.345-5.235 3.606v-3.3h-4.654V24.79h4.654v-6.049c0-3.91 1.898-5.775 4.99-5.775M101.414 20.147c0 3.789 1.929 4.92 4.775 4.92 1.562 0 2.695-.367 3.674-.949v-3.726a4.744 4.744 0 0 1-2.295.58c-1.042 0-1.5-.519-1.5-1.588v-6.997h3.856V8.415h-3.857V4.229h-4.653v4.186h-1.96v3.972h1.96v7.76zM116.507 15.748c0-2.23 1.715-3.789 3.98-3.789 2.266 0 4.01 1.559 4.01 3.789v.06c0 2.23-1.744 3.79-4.01 3.79-2.265 0-3.98-1.528-3.98-3.79v-.06zm2.633 7.7c2.48 0 3.98-1.01 5.358-2.66v.795c0 2.934-1.5 4.46-4.684 4.46-2.173 0-3.857-.55-5.541-1.496l-1.592 3.482c2.081 1.1 4.592 1.712 7.255 1.712 3.184 0 5.542-.672 7.073-2.2 1.377-1.375 2.081-3.513 2.081-6.446V8.415h-4.653v2.14c-1.256-1.376-2.756-2.446-5.297-2.446-3.765 0-7.286 2.75-7.286 7.639v.06c0 4.859 3.46 7.64 7.286 7.64zM136.47 19.841c0-1.465 1.225-2.26 3.215-2.26 1.132 0 2.174.244 2.97.61v.826c0 1.68-1.47 2.872-3.644 2.872-1.5 0-2.54-.734-2.54-1.986v-.062zm1.133 5.256c2.265 0 3.826-.826 4.959-2.078v1.772h4.5V15.29c0-2.199-.55-4.002-1.775-5.224-1.164-1.161-3-1.833-5.54-1.833-2.787 0-4.562.519-6.37 1.314l1.164 3.544c1.5-.55 2.755-.886 4.531-.886 2.327 0 3.52 1.069 3.52 2.993v.276a11.662 11.662 0 0 0-4.01-.672c-3.888 0-6.612 1.65-6.612 5.224v.061c0 3.238 2.54 5.01 5.633 5.01zM154.41 15.748c0-2.23 1.715-3.789 3.98-3.789 2.265 0 4.01 1.559 4.01 3.789v.06c0 2.23-1.745 3.79-4.01 3.79-2.265 0-3.98-1.528-3.98-3.79v-.06zm2.633 7.7c2.48 0 3.98-1.01 5.357-2.66v.795c0 2.934-1.5 4.46-4.683 4.46-2.174 0-3.858-.55-5.541-1.496l-1.593 3.482c2.082 1.1 4.593 1.712 7.256 1.712 3.184 0 5.541-.672 7.072-2.2 1.378-1.375 2.082-3.513 2.082-6.446V8.415h-4.654v2.14c-1.255-1.376-2.755-2.446-5.296-2.446-3.766 0-7.286 2.75-7.286 7.639v.06c0 4.859 3.46 7.64 7.286 7.64zM174.617 15.32c.368-2.108 1.623-3.483 3.55-3.483 1.96 0 3.186 1.405 3.461 3.483h-7.011zm3.55-7.21c-4.775 0-8.111 3.849-8.111 8.524v.06c0 5.012 3.643 8.464 8.571 8.464 2.97 0 5.175-1.16 6.705-3.056l-2.664-2.352c-1.285 1.191-2.418 1.68-3.979 1.68-2.081 0-3.552-1.099-4.01-3.207h11.418c.031-.428.061-.856.061-1.222 0-4.644-2.51-8.892-7.99-8.892z"/>
        <path fill="#E67300" d="m60.709 39.29-5.632-9.043h-5.082v21.386h4.622v-13.87l5.97 9.044h.122l6.03-9.136v13.962h4.684V30.247h-5.082zM85.479 45.86c0 1.68-1.47 2.871-3.644 2.871-1.5 0-2.54-.734-2.54-1.986v-.061c0-1.467 1.224-2.26 3.215-2.26 1.132 0 2.173.243 2.969.61v.825zm-2.908-10.786c-2.786 0-4.562.52-6.369 1.314l1.164 3.544c1.5-.55 2.755-.886 4.531-.886 2.327 0 3.52 1.069 3.52 2.994v.275a11.67 11.67 0 0 0-4.01-.672c-3.888 0-6.612 1.65-6.612 5.224v.062c0 3.237 2.54 5.01 5.632 5.01 2.265 0 3.827-.826 4.96-2.078v1.773h4.5V42.13c0-2.199-.551-4.002-1.776-5.224-1.164-1.161-3-1.833-5.54-1.833zM97.983 38.557v-3.3H93.33v16.376h4.653v-6.048c0-3.912 1.898-5.776 4.99-5.776h.245v-4.858c-2.755-.122-4.286 1.345-5.235 3.606M121.495 35.257h-5.571l-5.45 5.958V30.249h-4.653v21.385h4.654v-4.98l1.653-1.742 4.194 6.722h5.388l-6.46-9.93zM134.587 43.476c0 2.719-1.806 4.522-3.98 4.522s-4.01-1.803-4.01-4.522v-.061c0-2.75 1.836-4.522 4.01-4.522 2.174 0 3.98 1.802 3.98 4.522v.061zm-.061-6.08c-1.103-1.314-2.633-2.444-5.112-2.444-3.889 0-7.471 2.994-7.471 8.463v.061c0 5.469 3.643 8.463 7.47 8.463 2.418 0 3.98-1.131 5.113-2.658v2.352h4.653V30.25h-4.653v7.147zM155.11 43.537c0 2.413-1.592 4.46-4.255 4.46-2.572 0-4.317-2.107-4.317-4.52v-.062c0-2.414 1.592-4.461 4.255-4.461 2.572 0 4.317 2.108 4.317 4.522v.061zm-4.255-8.585c-5.113 0-8.91 3.82-8.91 8.524v.061c0 4.705 3.766 8.463 8.848 8.463 5.113 0 8.91-3.819 8.91-8.524v-.061c0-4.705-3.767-8.463-8.848-8.463zM177.567 45.218l-3.123-10.022h-4.01l-3.092 9.99-2.633-9.93h-4.715l5.051 16.5h4.164l3.215-10.052 3.152 10.052h4.194l5.113-16.5h-4.622z"/>
        <g transform="translate(186.969 34.951)">
            <mask id="qs6oay9e8b" fill="#fff">
                <use xlink:href="#sssc4hccia"/>
            </mask>
            <path d="M9.46 0C7.102 0 5.724 1.253 4.653 2.628V.306H0v16.376h4.653V7.547c0-2.2 1.133-3.33 2.909-3.33 1.776 0 2.816 1.13 2.816 3.33v9.135h4.653V6.08C15.031 2.322 12.98 0 9.46 0" fill="#E67300" mask="url(#qs6oay9e8b)"/>
        </g>
        <path d="M16.96 6.822a1.618 1.618 0 0 1 1.235-.534c.475 0 .877.18 1.228.55.352.372.523.79.523 1.281 0 .53-.165.962-.505 1.317a1.642 1.642 0 0 1-1.246.527c-.477 0-.877-.179-1.224-.545a1.809 1.809 0 0 1-.516-1.299c0-.515.164-.94.504-1.297m1.236 5.248c1.09 0 2.031-.39 2.8-1.155a3.824 3.824 0 0 0 1.158-2.796c0-1.071-.392-2.006-1.164-2.776-.772-.771-1.712-1.162-2.794-1.162-1.075 0-2.011.39-2.784 1.162-.772.77-1.163 1.705-1.163 2.776a3.82 3.82 0 0 0 1.158 2.796 3.823 3.823 0 0 0 2.789 1.155M43.699 30.25H37.8a.565.565 0 0 1-.564-.562V3.966a.562.562 0 0 0-.562-.563H34.43l-5.564 8.247a6.1 6.1 0 0 1 2.213 1.42c1.179 1.175 1.802 2.668 1.802 4.314 0 1.673-.622 3.174-1.8 4.343a6.036 6.036 0 0 1-4.337 1.781 6.043 6.043 0 0 1-4.327-1.778c-.072-.072-.136-.149-.204-.222l-2.09 3.095v5.085c0 .31-.251.562-.562.562h-5.9a.563.563 0 0 0-.444.909l15.018 19.21c.227.29.665.29.889 0l15.018-19.211a.561.561 0 0 0-.444-.908" fill="#E67300"/>
        <path d="M25.5 16.085a1.627 1.627 0 0 1 1.24-.533c.478 0 .881.181 1.233.551.352.37.524.789.524 1.281 0 .53-.166.96-.505 1.317-.34.355-.75.527-1.252.527-.476 0-.878-.179-1.227-.546a1.804 1.804 0 0 1-.518-1.298c0-.516.165-.941.505-1.3m-1.55 4.101a3.855 3.855 0 0 0 2.795 1.15c1.09 0 2.034-.388 2.8-1.15.77-.762 1.158-1.705 1.158-2.8 0-1.073-.391-2.008-1.163-2.778-.773-.771-1.713-1.161-2.795-1.161-1.073 0-2.012.39-2.788 1.162-.776.77-1.17 1.704-1.17 2.776 0 1.095.392 2.038 1.164 2.801M18.043 21.015l2.572-3.737 3.826-5.56 5.722-8.315h-2.518L15.598 21.015z" fill="#E67300"/>
        <g>
            <mask id="5rv3ge5bnd" fill="#fff">
                <use xlink:href="#ilujj2081c"/>
            </mask>
            <path d="M17.926 27.804v-4.371a.27.27 0 0 0-.27-.27H13.18V0H8.119L0 5.971l1.939 2.566c.132.17.332.331.604.483a1.9 1.9 0 0 0 1.532.119c.21-.073.365-.176.632-.365L7.11 6.92a44.81 44.81 0 0 0-.06 2.23l.002 14.012H1.786a.27.27 0 0 0-.27.27v4.371c0 .149.121.27.27.27h15.87c.15 0 .27-.121.27-.27" fill="#E67300" mask="url(#5rv3ge5bnd)"/>
        </g>
    </g>
</svg>
