<svg width="159" height="40" viewBox="0 0 159 40" fill="none" xmlns="http://www.w3.org/2000/svg">
<path fill-rule="evenodd" clip-rule="evenodd" d="M41.7238 15.3562L46.4654 8.32903V19.0689H50.1477V2.61829H46.1521L41.7238 9.57431L37.2954 2.61829H33.2998V19.0689H36.9342V8.40018L41.6279 15.3562H41.7238Z" fill="white"/>
<path fill-rule="evenodd" clip-rule="evenodd" d="M56.0112 12.7475C56.0112 10.8911 57.263 9.31628 59.3566 9.31628C61.3787 9.31628 62.7506 10.9379 62.7506 12.7949V12.8417C62.7506 14.6981 61.4995 16.2729 59.4052 16.2729C57.3832 16.2729 56.0112 14.6513 56.0112 12.7949V12.7475ZM59.3551 19.3498C63.3749 19.3498 66.3598 16.4123 66.3598 12.7932V12.7458C66.3598 9.12672 63.3986 6.23608 59.4036 6.23608C55.3838 6.23608 52.3989 9.17415 52.3989 12.7932V12.84C52.3989 16.4591 55.3595 19.3498 59.3551 19.3498Z" fill="white"/>
<path fill-rule="evenodd" clip-rule="evenodd" d="M76.3501 9.97402H76.5431V6.23698C74.3766 6.14334 73.1728 7.27187 72.4267 9.01088V6.4723H68.7681V19.0691H72.4267V14.4164C72.4267 11.4078 73.9195 9.97402 76.3501 9.97402Z" fill="white"/>
<path fill-rule="evenodd" clip-rule="evenodd" d="M79.734 15.4994C79.734 18.4138 81.2504 19.2833 83.4886 19.2833C84.7161 19.2833 85.6072 19.0012 86.3769 18.5542V15.6879C85.8476 15.9694 85.246 16.1342 84.5722 16.1342C83.7533 16.1342 83.3927 15.7347 83.3927 14.9121V9.53026H86.4249V6.47484H83.3927V3.25525H79.734V6.47484H78.1934V9.53026H79.734V15.4994Z" fill="white"/>
<path fill-rule="evenodd" clip-rule="evenodd" d="M91.6025 12.1135C91.6025 10.3982 92.9508 9.1991 94.7312 9.1991C96.5129 9.1991 97.8849 10.3982 97.8849 12.1135V12.1603C97.8849 13.8756 96.5129 15.0746 94.7312 15.0746C92.9508 15.0746 91.6025 13.8999 91.6025 12.1603V12.1135ZM93.673 18.034C95.6229 18.034 96.8023 17.2581 97.8853 15.9891V16.6002C97.8853 18.8566 96.7058 20.0314 94.203 20.0314C92.4942 20.0314 91.1702 19.6082 89.8462 18.8797L88.5945 21.5588C90.2311 22.4052 92.2052 22.8752 94.2989 22.8752C96.8023 22.8752 98.6557 22.3584 99.8594 21.183C100.942 20.1256 101.496 18.4809 101.496 16.2244V6.4714H97.8374V8.11676C96.8503 7.05877 95.6708 6.23608 93.673 6.23608C90.7125 6.23608 87.9443 8.35086 87.9443 12.1116V12.1584C87.9443 15.8955 90.6645 18.034 93.673 18.034Z" fill="white"/>
<path fill-rule="evenodd" clip-rule="evenodd" d="M107.297 15.2606C107.297 14.1333 108.26 13.5222 109.825 13.5222C110.715 13.5222 111.534 13.7095 112.16 13.9916V14.6264C112.16 15.9191 111.004 16.8354 109.295 16.8354C108.115 16.8354 107.297 16.2712 107.297 15.308V15.2606ZM108.188 19.304C109.969 19.304 111.196 18.6692 112.087 17.7061V19.0693H115.625V11.76C115.625 10.0685 115.192 8.68151 114.229 7.74147C113.314 6.84826 111.871 6.33142 109.873 6.33142C107.682 6.33142 106.287 6.73091 104.866 7.3426L105.78 10.0685C106.96 9.64526 107.947 9.38684 109.343 9.38684C111.173 9.38684 112.111 10.2089 112.111 11.6895V11.9017C111.196 11.5959 110.258 11.3843 108.958 11.3843C105.901 11.3843 103.759 12.6533 103.759 15.4028V15.4503C103.759 17.9408 105.757 19.304 108.188 19.304Z" fill="white"/>
<path fill-rule="evenodd" clip-rule="evenodd" d="M121.403 12.1135C121.403 10.3982 122.751 9.1991 124.532 9.1991C126.313 9.1991 127.685 10.3982 127.685 12.1135V12.1603C127.685 13.8756 126.313 15.0746 124.532 15.0746C122.751 15.0746 121.403 13.8999 121.403 12.1603V12.1135ZM123.472 18.034C125.422 18.034 126.601 17.2581 127.684 15.9891V16.6002C127.684 18.8566 126.505 20.0314 124.002 20.0314C122.293 20.0314 120.969 19.6082 119.645 18.8797L118.393 21.5588C120.03 22.4052 122.004 22.8752 124.098 22.8752C126.601 22.8752 128.454 22.3584 129.658 21.183C130.741 20.1256 131.295 18.4809 131.295 16.2244V6.4714H127.636V8.11676C126.649 7.05877 125.47 6.23608 123.472 6.23608C120.511 6.23608 117.743 8.35086 117.743 12.1116V12.1584C117.743 15.8955 120.463 18.034 123.472 18.034Z" fill="white"/>
<path fill-rule="evenodd" clip-rule="evenodd" d="M137.291 11.7833C137.579 10.1616 138.567 9.10425 140.082 9.10425C141.623 9.10425 142.586 10.1847 142.803 11.7833H137.291ZM140.083 6.23608C136.328 6.23608 133.705 9.19726 133.705 12.7932V12.84C133.705 16.6944 136.569 19.3498 140.444 19.3498C142.779 19.3498 144.512 18.4572 145.716 16.9997L143.621 15.1901C142.611 16.1065 141.72 16.4822 140.493 16.4822C138.856 16.4822 137.7 15.6371 137.34 14.0154H146.317C146.341 13.6864 146.365 13.3575 146.365 13.0754C146.365 9.5031 144.392 6.23608 140.083 6.23608Z" fill="white"/>
<path fill-rule="evenodd" clip-rule="evenodd" d="M47.7311 30.2216L43.3027 23.2656H39.3071V39.7163H42.9415V29.0469L47.6352 36.0035H47.7311L52.4727 28.9764V39.7163H56.155V23.2656H52.1595L47.7311 30.2216Z" fill="#E67300"/>
<path fill-rule="evenodd" clip-rule="evenodd" d="M67.2052 35.276C67.2052 36.5687 66.05 37.485 64.3406 37.485C63.1611 37.485 62.3428 36.9208 62.3428 35.9576V35.9102C62.3428 34.7823 63.3055 34.1718 64.8705 34.1718C65.7611 34.1718 66.5793 34.3591 67.2052 34.6412V35.276ZM64.9187 26.9775C62.7285 26.9775 61.3323 27.377 59.9118 27.9887L60.8266 30.7146C62.0061 30.2914 62.9926 30.033 64.3894 30.033C66.2184 30.033 67.1569 30.855 67.1569 32.3356V32.5478C66.2421 32.242 65.3036 32.0304 64.0039 32.0304C60.9468 32.0304 58.8052 33.2994 58.8052 36.0489V36.0964C58.8052 38.5869 60.803 39.9502 63.2336 39.9502C65.0146 39.9502 66.2421 39.3154 67.1332 38.3516V39.7155H70.6711V32.4062C70.6711 30.7146 70.2376 29.3276 69.2749 28.3876C68.36 27.4944 66.9165 26.9775 64.9187 26.9775Z" fill="#E67300"/>
<path fill-rule="evenodd" clip-rule="evenodd" d="M77.0371 29.6582V27.1196H73.3784V39.7165H77.0371V35.0637C77.0371 32.0551 78.5292 30.6214 80.9604 30.6214H81.1528V26.8843C78.9869 26.7907 77.7831 27.9192 77.0371 29.6582Z" fill="#E67300"/>
<path fill-rule="evenodd" clip-rule="evenodd" d="M95.5228 27.1187H91.1424L86.8579 31.7015V23.2667H83.1992V39.7155H86.8579V35.8848L88.1576 34.5453L91.4556 39.7155H95.6916L90.6124 32.0773L95.5228 27.1187Z" fill="#E67300"/>
<path fill-rule="evenodd" clip-rule="evenodd" d="M105.817 33.4419C105.817 35.533 104.398 36.92 102.689 36.92C100.979 36.92 99.5352 35.533 99.5352 33.4419V33.3945C99.5352 31.2791 100.979 29.9165 102.689 29.9165C104.398 29.9165 105.817 31.3028 105.817 33.3945V33.4419ZM105.769 28.7645C104.902 27.7534 103.698 26.8839 101.749 26.8839C98.6922 26.8839 95.8755 29.1871 95.8755 33.3936V33.441C95.8755 37.6475 98.7401 39.9507 101.749 39.9507C103.65 39.9507 104.878 39.0806 105.769 37.9059V39.7154H109.427V23.2672H105.769V28.7645Z" fill="#E67300"/>
<path fill-rule="evenodd" clip-rule="evenodd" d="M121.954 33.4889C121.954 35.3452 120.702 36.9201 118.608 36.9201C116.586 36.9201 115.214 35.2984 115.214 33.4421V33.3946C115.214 31.5383 116.465 29.9634 118.56 29.9634C120.582 29.9634 121.954 31.5851 121.954 33.4421V33.4889ZM118.607 26.8864C114.587 26.8864 111.603 29.8244 111.603 33.4435V33.4903C111.603 37.1094 114.563 40 118.559 40C122.579 40 125.563 37.0626 125.563 33.4435V33.3961C125.563 29.777 122.602 26.8864 118.607 26.8864Z" fill="#E67300"/>
<path fill-rule="evenodd" clip-rule="evenodd" d="M139.608 34.7819L137.153 27.0731H134L131.569 34.7582L129.499 27.1199H125.792L129.763 39.811H133.037L135.565 32.0791L138.043 39.811H141.341L145.361 27.1199H141.726L139.608 34.7819Z" fill="#E67300"/>
<mask id="mask0_24_8996" style="mask-type:luminance" maskUnits="userSpaceOnUse" x="147" y="26" width="12" height="14">
<path fill-rule="evenodd" clip-rule="evenodd" d="M147.001 26.886H158.819V39.7181H147.001V26.886Z" fill="white"/>
</mask>
<g mask="url(#mask0_24_8996)">
<path fill-rule="evenodd" clip-rule="evenodd" d="M154.438 26.886C152.585 26.886 151.502 27.8497 150.66 28.9071V27.1213H147.001V39.7181H150.66V32.691C150.66 30.9994 151.55 30.1293 152.946 30.1293C154.343 30.1293 155.16 30.9994 155.16 32.691V39.7181H158.819V31.5625C158.819 28.6724 157.206 26.886 154.438 26.886Z" fill="#E67300"/>
</g>
<path fill-rule="evenodd" clip-rule="evenodd" d="M13.3327 5.24881C13.5986 4.97276 13.9162 4.83838 14.3042 4.83838C14.6779 4.83838 14.9942 4.97701 15.2701 5.26158C15.5466 5.54736 15.6811 5.86962 15.6811 6.24722C15.6811 6.65521 15.5516 6.9866 15.2844 7.26022C15.0185 7.53262 14.6972 7.66518 14.3042 7.66518C13.9293 7.66518 13.6148 7.52776 13.3421 7.24623C13.0687 6.96349 12.936 6.63697 12.936 6.24722C12.936 5.85077 13.0656 5.52425 13.3327 5.24881ZM14.3043 9.28557C15.1612 9.28557 15.9017 8.98641 16.5058 8.39722C17.1092 7.80741 17.4162 7.08384 17.4162 6.24717C17.4162 5.42266 17.108 4.70396 16.5014 4.11111C15.8942 3.51827 15.155 3.2179 14.3043 3.2179C13.4593 3.2179 12.7232 3.51827 12.116 4.11111C11.5088 4.70396 11.2012 5.42266 11.2012 6.24717C11.2012 7.08384 11.5076 7.80741 12.1116 8.39722C12.7157 8.98641 13.453 9.28557 14.3043 9.28557Z" fill="#E67300"/>
<path fill-rule="evenodd" clip-rule="evenodd" d="M34.3584 23.2693H29.7208C29.4767 23.2693 29.2774 23.0747 29.2774 22.8363V3.05121C29.2774 2.81164 29.0793 2.61829 28.8352 2.61829H27.0716L22.6968 8.9614C23.3382 9.19185 23.9267 9.55607 24.4374 10.0541C25.364 10.9582 25.8535 12.1062 25.8535 13.3728C25.8535 14.6594 25.3646 15.8141 24.4392 16.7127C23.5163 17.609 22.3368 18.0833 21.029 18.0833C19.73 18.0833 18.5536 17.6102 17.627 16.7152C17.5703 16.6598 17.5198 16.6009 17.4663 16.5443L15.8235 18.9254V22.8363C15.8235 23.0747 15.6254 23.2693 15.3813 23.2693H10.7424C10.3744 23.2693 10.1664 23.684 10.3931 23.9679L22.2011 38.7452C22.3792 38.9678 22.7235 38.9678 22.8998 38.7452L34.7078 23.9673C34.9357 23.684 34.7277 23.2693 34.3584 23.2693Z" fill="#E67300"/>
<path fill-rule="evenodd" clip-rule="evenodd" d="M20.0492 12.3708C20.3157 12.0953 20.6346 11.9609 21.0238 11.9609C21.3999 11.9609 21.7169 12.1002 21.9934 12.3847C22.2699 12.6693 22.405 12.9916 22.405 13.3704C22.405 13.7784 22.2749 14.1092 22.0083 14.3828C21.7406 14.6558 21.418 14.7883 21.0238 14.7883C20.6495 14.7883 20.3338 14.6509 20.0591 14.3688C19.7851 14.0867 19.6519 13.7601 19.6519 13.3704C19.6519 12.9733 19.782 12.6462 20.0492 12.3708ZM18.8313 15.5277C19.4391 16.1138 20.1777 16.4118 21.0284 16.4118C21.8859 16.4118 22.627 16.1138 23.2298 15.5277C23.8345 14.9415 24.1403 14.2161 24.1403 13.3734C24.1403 12.5483 23.8326 11.829 23.2261 11.2367C22.6183 10.6439 21.8791 10.3435 21.0284 10.3435C20.1846 10.3435 19.4466 10.6439 18.8363 11.2373C18.226 11.8296 17.9165 12.5483 17.9165 13.3734C17.9165 14.2155 18.2241 14.9409 18.8313 15.5277Z" fill="#E67300"/>
<path fill-rule="evenodd" clip-rule="evenodd" d="M14.1865 16.165L16.2085 13.2908L19.217 9.0132L23.7158 2.6178H21.7361L12.2646 16.165H14.1865Z" fill="#E67300"/>
<mask id="mask1_24_8996" style="mask-type:luminance" maskUnits="userSpaceOnUse" x="0" y="0" width="15" height="22">
<path fill-rule="evenodd" clip-rule="evenodd" d="M0 0H14.094V21.5953H0V0Z" fill="white"/>
</mask>
<g mask="url(#mask1_24_8996)">
<path fill-rule="evenodd" clip-rule="evenodd" d="M14.0939 21.3873V18.0249C14.0939 17.9105 13.9992 17.8175 13.8815 17.8175H10.363V0H6.38358L-0.000244141 4.59316L1.52363 6.56687C1.627 6.69821 1.78456 6.82165 1.99816 6.93839C2.2099 7.05453 2.4509 7.1129 2.72055 7.1129C2.87562 7.1129 3.03629 7.08493 3.20256 7.0296C3.36822 6.97366 3.49027 6.89461 3.70014 6.74868L5.59019 5.32342C5.55968 5.92113 5.54349 6.49269 5.54349 7.03933L5.54411 17.8175H1.40406C1.28698 17.8175 1.1917 17.9105 1.1917 18.0255V21.3873C1.1917 21.5017 1.28698 21.5953 1.40406 21.5953L13.8815 21.5947C13.9992 21.5947 14.0939 21.5017 14.0939 21.3873Z" fill="#E67300"/>
</g>
</svg>
