<svg width="123.81" height="40" viewBox="0 0 123.81 40" xmlns="http://www.w3.org/2000/svg">
    <g fill="#009FC7" fill-rule="nonzero">
        <path d="M0 22.597c0-5.617 3.978-9.568 9.5-9.568 4.441 0 7.222 2.866 7.222 5.346 0 1.898-.966 3.254-2.742 3.254-1.66 0-2.626-1.163-2.626-2.557 0-1.124.85-2.053 1.583-2.363-.54-.814-1.622-1.433-3.32-1.433-2.627 0-4.75 2.44-4.75 6.895 0 4.145 1.737 6.663 5.097 6.663 2.124 0 3.746-1.24 4.556-3.602h2.356c-.85 3.95-3.63 6.43-7.84 6.43C3.322 31.662 0 27.866 0 22.597M32.268 22.326c0-4.92-1.614-6.973-4.42-6.973-2.805 0-4.111 2.092-4.111 6.973 0 4.882 1.575 7.012 4.42 7.012 2.728 0 4.111-2.13 4.111-7.012m-13.45.078c0-5.501 3.804-9.375 9.184-9.375 5.573 0 9.186 3.719 9.186 9.22 0 5.5-3.805 9.413-9.186 9.413-5.61 0-9.184-3.757-9.184-9.258M53.177 22.326c0-4.92-1.614-6.973-4.42-6.973-2.805 0-4.111 2.092-4.111 6.973 0 4.882 1.575 7.012 4.419 7.012 2.728 0 4.112-2.13 4.112-7.012m-13.45.078c0-5.501 3.804-9.375 9.184-9.375 5.573 0 9.185 3.719 9.185 9.22 0 5.5-3.804 9.413-9.185 9.413-5.61 0-9.184-3.757-9.184-9.258M74.453 21.974c0-4.066-1.501-6.04-3.772-6.04-2.233 0-4.234 2.748-4.234 6.505 0 3.407 1.385 6.079 4.234 6.079 2.463 0 3.772-2.284 3.772-6.544M59.441 36.371h2.733V16.204H59.44v-2.866h7.006v4.183c1.232-3.02 3.349-4.492 5.966-4.492 1.886 0 3.388.696 4.542 1.858 1.617 1.627 2.349 4.183 2.349 7.126 0 3.059-.924 5.654-2.54 7.28-1.233 1.239-2.811 1.975-4.543 1.975-2.656 0-4.542-1.355-5.582-3.176v8.279h3.541v2.866H59.44v-2.866M86.623 20.7h7.65c-.23-3.488-1.3-5.386-3.71-5.386-2.18 0-3.634 1.434-3.94 5.385m-.038 2.053c.153 4.378 1.95 6.16 5.125 6.16 2.103 0 3.634-.93 4.59-3.215h2.294c-.88 3.796-3.518 5.965-7.879 5.965-5.583 0-8.872-3.873-8.872-9.142 0-5.424 3.786-9.491 8.949-9.491 5.584 0 8.108 4.532 7.917 9.723H86.585M101.109 28.218h2.665V16.135h-2.665v-2.838h6.928v4.334c.952-3.107 3.16-4.602 5.33-4.602 2.056 0 3.274 1.495 3.274 3.221 0 1.573-1.104 2.839-2.589 2.839-1.484 0-2.626-.883-2.626-2.455 0-.153.037-.345.076-.499-1.409 0-2.627 1.611-3.274 3.836v8.247h3.312v2.838h-10.431v-2.838M31.363 6.673c-.742 1.848-1.71 2.568-2.694 2.568-1.033 0-1.703-.672-1.703-1.787 0-1.921 1.263-3.823 1.263-5.13 0-.441-.191-.633-.516-.633-.842 0-2.506 1.46-4.036 7.358h-2.258l1.34-5.072c.171-.634.267-1.095.267-1.46 0-.461-.153-.826-.574-.826-.88 0-2.525 1.46-4.055 7.358H16.1l1.646-6.225c.286-1.095.229-1.402-.115-1.402-.355 0-.747.537-1.176 1.37l-.924-.373C16.29.89 17.168.02 18.301.02c.823 0 1.397.596 1.397 1.787 0 .557-.115 1.249-.402 2.133l.134.057C20.692 1.287 22.108 0 23.408 0c1.053 0 1.607.71 1.607 1.864 0 .537-.153 1.19-.44 2.075l.134.057C25.972 1.287 27.387 0 28.745 0c1.053 0 1.722.845 1.722 1.998 0 1.633-1.416 4.092-1.416 5.264 0 .288.115.423.326.423.34 0 .678-.439 1.087-1.374l.9.362M32.409 2.418C33.146.89 34.002.02 35.1.02c.807 0 1.37.608 1.37 1.824 0 .57-.112 1.256-.375 2.12l.15.058C37.337 1.432 38.237 0 39.552 0c.788 0 1.37.569 1.37 1.491 0 .981-.6 1.766-1.351 1.766-.658 0-1.165-.451-1.127-1.275-.544.235-1.896 1.903-3.248 7.26h-2.253l1.615-6.357c.281-1.119.225-1.432-.114-1.432-.34 0-.716.524-1.127 1.344l-.907-.379M38.98 8.005c0-.782.591-1.642 1.517-1.642.749 0 1.32.527 1.32 1.388 0 .781-.59 1.642-1.517 1.642-.749 0-1.32-.528-1.32-1.388M120.744 15.195h.326v-1.743h-.326v-.213l.942.007.58 1.662h.03l.6-1.662h.914v.206h-.334v1.743h.334v.213h-.973v-.213h.26V13.54h-.067l-.698 1.868h-.252l-.683-1.868h-.074v1.655h.282v.213h-.861v-.213zm-2.012-.515h.2c.208.405.423.566.743.566.252 0 .415-.117.415-.367 0-.265-.245-.331-.586-.412-.371-.096-.743-.213-.743-.655 0-.345.283-.632.713-.632a.72.72 0 0 1 .542.243l.074-.228h.2v.728h-.192c-.17-.398-.379-.537-.631-.537-.208 0-.386.11-.386.346 0 .279.26.338.564.411.408.096.757.199.757.64 0 .383-.304.67-.735.67a.842.842 0 0 1-.646-.265l-.074.257h-.215v-.765z"/>
    </g>
</svg>
