<?xml version="1.0" encoding="utf-8"?>
<!-- Generator: Adobe Illustrator 27.4.0, SVG Export Plug-In . SVG Version: 6.00 Build 0)  -->
<svg version="1.1" id="Layer_1" xmlns="http://www.w3.org/2000/svg" xmlns:xlink="http://www.w3.org/1999/xlink" x="0px" y="0px"
	 viewBox="0 0 1033 170" style="enable-background:new 0 0 1033 170;" xml:space="preserve">
<style type="text/css">
	.st0{fill:none;}
	.st1{fill:#EBEBEB;}
	.st2{fill:#009EC6;}
	.st3{fill:#FFFFFF;}
	.st4{fill:#404750;}
	.st5{fill:#393E46;}
	.st6{fill:#FAAC18;}
	.st7{fill:#E8E7E7;}
	.st8{fill:#EAEAEA;}
	.st9{fill:#087B9C;}
	.st10{fill:#FAAC1A;}
</style>
<g id="Clip-24">
</g>
<g>
	<path class="st0" d="M947,126.6c-0.2-0.1-0.5-0.2-0.7-0.3c-0.1-0.1-0.2-0.1-0.3-0.2c0.1,0.1,0.2,0.2,0.3,0.2
		C946.6,126.5,946.8,126.6,947,126.6c0.2,0.1,0.5,0.1,0.7,0.2c0.1,0,0.3,0.1,0.4,0.1c-0.1,0-0.2-0.1-0.4-0.1
		C947.5,126.8,947.2,126.7,947,126.6z"/>
	<path class="st0" d="M948.5,127.2c0.1,0.1,0.2,0.1,0.2,0.2c0.1,0.1,0.1,0.1,0.1,0.2c0-0.1-0.1-0.2-0.1-0.2
		C948.7,127.3,948.6,127.3,948.5,127.2z"/>
	<path class="st0" d="M945.3,123.4c0.1-0.2,0.2-0.4,0.4-0.6C945.6,123,945.4,123.2,945.3,123.4c-0.1,0.3-0.2,0.6-0.2,0.9
		c0,0.3,0,0.5,0.1,0.7c0-0.2-0.1-0.4-0.1-0.7C945.2,124,945.2,123.7,945.3,123.4z"/>
	<polygon class="st0" points="968,128.8 971.4,128.8 971.4,130.3 971.4,130.3 971.4,128.8 968,128.8 968,126.8 968,126.8 	"/>
	<path class="st0" d="M948,121.8c0.1,0,0.1,0,0.2,0C948.1,121.8,948.1,121.8,948,121.8c-0.5,0-0.9,0.1-1.2,0.2
		c-0.3,0.1-0.5,0.3-0.8,0.5c0.2-0.2,0.5-0.3,0.8-0.5C947.2,121.9,947.6,121.8,948,121.8z"/>
	<polygon class="st0" points="938.5,107.6 977.8,107.6 977.8,136 977.8,136 977.8,107.6 938.5,107.6 	"/>
	<path class="st0" d="M952.5,130.3C952.5,130.3,952.5,130.2,952.5,130.3C952.5,130.2,952.5,130.3,952.5,130.3l-1.5,0l0,0H952.5z"/>
	<path class="st0" d="M947.4,124.8c-0.1-0.1-0.2-0.1-0.3-0.2c-0.1-0.1-0.1-0.1-0.1-0.2c0,0.1,0.1,0.1,0.1,0.2
		C947.2,124.7,947.3,124.8,947.4,124.8z"/>
	<path class="st0" d="M947.2,123.7C947.2,123.6,947.2,123.6,947.2,123.7C947.2,123.6,947.2,123.6,947.2,123.7
		C947.2,123.6,947.2,123.6,947.2,123.7z"/>
	<rect x="941.6" y="100.1" class="st0" width="33.2" height="6"/>
	<path class="st0" d="M947.8,125c-0.1,0-0.2-0.1-0.3-0.1l0,0C947.6,124.9,947.7,125,947.8,125z"/>
	<path class="st0" d="M949.7,122.2c-0.1,0-0.2-0.1-0.3-0.1c-0.1,0-0.2,0-0.2-0.1c0.1,0,0.2,0,0.2,0.1
		C949.6,122.1,949.6,122.1,949.7,122.2z"/>
	<path class="st0" d="M950.1,123.6C950.1,123.6,950.1,123.6,950.1,123.6C950.1,123.6,950.1,123.6,950.1,123.6l0.5-0.9
		c-0.1-0.1-0.2-0.1-0.3-0.2c0.1,0.1,0.2,0.1,0.3,0.2L950.1,123.6z"/>
	<path class="st0" d="M948.6,123.4C948.6,123.4,948.6,123.4,948.6,123.4C948.6,123.4,948.6,123.4,948.6,123.4
		C948.6,123.4,948.6,123.4,948.6,123.4z"/>
	<path class="st0" d="M947.4,123.5c0.2-0.1,0.4-0.1,0.6-0.1c0.2,0,0.4,0,0.5,0.1c-0.2,0-0.3-0.1-0.5-0.1
		C947.8,123.3,947.6,123.4,947.4,123.5z"/>
	<rect x="415.2" y="141.5" class="st0" width="13.4" height="4.5"/>
	<rect x="61.1" y="134.5" class="st0" width="7.1" height="11.5"/>
	<polygon class="st0" points="956.3,127.1 954.1,127.1 954.3,126.2 954.1,127.1 956.3,127.1 955.9,125.7 	"/>
	<path class="st0" d="M960.4,117.7c0,0,0.1,0.1,0.1,0.1l0.3,0.5l-0.3-0.5C960.5,117.8,960.5,117.8,960.4,117.7z"/>
	<path class="st0" d="M948.8,125.3c0.2,0.1,0.4,0.2,0.6,0.2C949.2,125.5,949,125.4,948.8,125.3c-0.2-0.1-0.5-0.2-0.7-0.2
		c0,0,0,0,0,0C948.4,125.2,948.6,125.3,948.8,125.3z"/>
	<path class="st0" d="M585.6,138.3c-0.4,0-0.7,0-1.1-0.1c-2.1-0.2-4.1-1.2-5.6-2.6h-49.2c-0.4,0-0.7-0.3-0.7-0.7V97.1
		c0-0.4,0.3-0.7,0.7-0.7h3.3v-8.1h-11.1v54c0.5-0.2,1-0.3,1.5-0.3c0.9,0,1.7,0.2,2.4,0.7c0.6-1.7,2.3-2.9,4.2-2.9c1.7,0,3.2,1,4,2.4
		c0.6-0.3,1.3-0.5,2-0.5c2.4,0,4.3,1.9,4.5,4.3h45.1V138.3z"/>
	<rect x="534.3" y="88.3" class="st0" width="42.6" height="8.1"/>
	<polygon class="st0" points="285.1,31.7 278.3,43.2 285.1,53.5 	"/>
	<rect x="436.7" y="141.5" class="st0" width="4.2" height="4.5"/>
	<path class="st0" d="M957.9,130.3c-0.1,0-0.2,0-0.2,0C957.7,130.2,957.8,130.3,957.9,130.3l1.5,0l-1-2.5l1,2.5H957.9z"/>
	<rect x="931.8" y="92.5" class="st0" width="0" height="6.2"/>
	<polygon class="st0" points="953.6,128.4 953.4,129.1 953.6,128.4 956.8,128.4 957.1,129.3 956.8,128.4 	"/>
	<rect x="150.8" y="139.5" class="st0" width="20.3" height="6.5"/>
	<rect x="689.4" y="141.5" class="st0" width="6.7" height="4.5"/>
	<path class="st0" d="M953.1,129.8c0,0.1-0.1,0.2-0.2,0.3C953,130,953.1,129.9,953.1,129.8z"/>
	<path class="st0" d="M955.2,123.6C955.2,123.6,955.2,123.6,955.2,123.6c0,0.2,0.1,0.3,0.1,0.4C955.3,123.9,955.2,123.8,955.2,123.6
		z"/>
	<path class="st0" d="M953.8,113.2c-0.3,0-0.6,0-0.9,0.1C953.2,113.2,953.5,113.2,953.8,113.2C953.8,113.2,953.8,113.2,953.8,113.2z
		"/>
	<path class="st0" d="M951.7,119.6C951.7,119.6,951.7,119.6,951.7,119.6C951.7,119.6,951.7,119.6,951.7,119.6z"/>
	<path class="st0" d="M953.8,120.2C953.8,120.2,953.8,120.2,953.8,120.2c-0.3,0-0.6,0-0.9-0.1C953.2,120.2,953.5,120.2,953.8,120.2z
		"/>
	<path class="st0" d="M950.4,126.4c-0.1-0.1-0.2-0.2-0.2-0.3c-0.1-0.1-0.2-0.2-0.4-0.3c0.1,0.1,0.3,0.2,0.4,0.3
		C950.2,126.2,950.3,126.3,950.4,126.4z"/>
	<path class="st0" d="M951.7,113.8C951.7,113.8,951.7,113.8,951.7,113.8C951.7,113.8,951.7,113.8,951.7,113.8z"/>
	<path class="st0" d="M955.1,118.4c-0.1,0.1-0.2,0.2-0.4,0.3C954.9,118.6,955,118.5,955.1,118.4z"/>
	<path class="st0" d="M950.8,118.7C950.8,118.7,950.8,118.7,950.8,118.7C950.8,118.7,950.8,118.7,950.8,118.7z"/>
	<path class="st0" d="M957.3,116.7c0,0.5-0.1,1-0.3,1.4c-0.1,0.3-0.3,0.5-0.5,0.8c0.2-0.2,0.3-0.5,0.5-0.8
		C957.2,117.7,957.3,117.2,957.3,116.7c0-0.5-0.1-1-0.3-1.4c-0.1-0.2-0.1-0.3-0.2-0.4c0.1,0.1,0.2,0.3,0.2,0.4
		C957.2,115.8,957.3,116.2,957.3,116.7z"/>
	<path class="st0" d="M962.6,114c0,0-0.1-0.1-0.1-0.1c-0.1-0.1-0.2-0.1-0.2-0.2c0.1,0,0.2,0.1,0.2,0.2
		C962.5,113.9,962.5,114,962.6,114z"/>
	<path class="st0" d="M961.8,117.4c0,0-0.1-0.1-0.1-0.1c0,0,0,0,0,0C961.7,117.3,961.8,117.3,961.8,117.4z"/>
	<path class="st0" d="M962.6,116.6c0,0,0.1-0.1,0.1-0.1c0.1-0.2,0.2-0.3,0.3-0.5v0c-0.1,0.2-0.1,0.4-0.3,0.5
		C962.7,116.5,962.6,116.6,962.6,116.6z"/>
	<path class="st0" d="M961.8,120c0.1,0.1,0.2,0.1,0.4,0.1h1.4l0,0h-1.4C962.1,120.1,962,120.1,961.8,120z"/>
	<path class="st0" d="M952.7,118.6c-0.1,0-0.1-0.1-0.2-0.1C952.6,118.6,952.7,118.6,952.7,118.6z"/>
	<rect x="960.1" y="121.9" class="st0" width="1.9" height="0"/>
	<path class="st0" d="M959.7,117.6L959.7,117.6l0.4,0c0.1,0,0.1,0,0.1,0c0,0-0.1,0-0.1,0H959.7z"/>
	<path class="st0" d="M961.9,113.6c-0.1,0-0.2-0.1-0.3-0.1c-0.2-0.1-0.5-0.1-0.7-0.1c0.3,0,0.5,0.1,0.7,0.1
		C961.7,113.5,961.8,113.5,961.9,113.6z"/>
	<polygon class="st0" points="959.7,120.1 958.1,120.1 958.1,113.3 958.1,113.3 958.1,120.1 959.7,120.1 	"/>
	<path class="st0" d="M944.8,129.2l0.4-0.6L944.8,129.2c0.2,0.2,0.4,0.3,0.6,0.4c0,0,0.1,0,0.1,0c0,0-0.1,0-0.1,0
		C945.2,129.6,945,129.4,944.8,129.2z"/>
	<path class="st0" d="M945.8,128.1c0.1,0,0.2,0,0.3,0.1c0.1,0.1,0.2,0.1,0.3,0.2c-0.1-0.1-0.2-0.1-0.3-0.2
		C946.1,128.1,945.9,128.1,945.8,128.1c-0.1,0-0.2,0-0.2,0.1c-0.1,0-0.1,0.1-0.1,0.1c0,0,0.1-0.1,0.1-0.1
		C945.7,128.1,945.7,128.1,945.8,128.1z"/>
	<path class="st0" d="M949.4,123.8C949.4,123.8,949.4,123.8,949.4,123.8C949.4,123.8,949.3,123.8,949.4,123.8
		C949.3,123.8,949.4,123.8,949.4,123.8z"/>
	<path class="st0" d="M947.3,128.7c-0.1,0-0.1,0-0.2,0c-0.2-0.1-0.3-0.1-0.5-0.2c0.1,0.1,0.3,0.2,0.5,0.2
		C947.1,128.7,947.2,128.7,947.3,128.7z"/>
	<path class="st0" d="M946.9,130.3c-0.2,0-0.4-0.1-0.6-0.2C946.5,130.2,946.7,130.2,946.9,130.3c0.3,0.1,0.5,0.1,0.8,0.1
		c0.4,0,0.8-0.1,1.1-0.2c-0.3,0.1-0.7,0.2-1.1,0.2C947.4,130.3,947.2,130.3,946.9,130.3z"/>
	<path class="st0" d="M950.3,129c0.1-0.1,0.1-0.2,0.2-0.3c0-0.1,0.1-0.2,0.1-0.3c0,0.1-0.1,0.2-0.1,0.3
		C950.4,128.8,950.4,128.9,950.3,129z"/>
	<path class="st0" d="M949,130.1c0.4-0.1,0.7-0.3,0.9-0.6c0,0,0.1-0.1,0.1-0.1c0,0-0.1,0.1-0.1,0.1C949.7,129.8,949.3,130,949,130.1
		z"/>
	<rect x="945.3" y="113.3" class="st0" width="4.4" height="0"/>
	<path class="st0" d="M952.1,115.5c0.1-0.2,0.2-0.3,0.3-0.4c0.2-0.2,0.4-0.3,0.6-0.4c0.2-0.1,0.5-0.1,0.8-0.1c0.3,0,0.6,0,0.8,0.1
		c0.2,0.1,0.4,0.2,0.6,0.4s0.3,0.4,0.4,0.7c0.1,0.3,0.1,0.6,0.1,0.9c0,0.3,0,0.6-0.1,0.9c0,0.1-0.1,0.3-0.2,0.4
		c0.1-0.1,0.1-0.2,0.2-0.4c0.1-0.3,0.1-0.6,0.1-0.9c0-0.3,0-0.6-0.1-0.9s-0.2-0.5-0.4-0.7s-0.4-0.3-0.6-0.4
		c-0.2-0.1-0.5-0.2-0.8-0.2c-0.3,0-0.6,0.1-0.8,0.2c-0.2,0.1-0.4,0.2-0.6,0.4C952.2,115.2,952.2,115.4,952.1,115.5z"/>
	<rect x="965.1" y="128.7" class="st0" width="0" height="1.5"/>
	<polygon class="st0" points="971.4,123.4 971.4,123.4 971.4,121.9 966,121.9 966,121.9 971.4,121.9 	"/>
	<rect x="946.9" y="114.5" class="st0" width="2.8" height="0"/>
	<polygon class="st0" points="968,125.3 970.6,125.3 970.6,126.8 970.6,126.8 970.6,125.3 968,125.3 968,123.4 968,123.4 	"/>
	<path class="st0" d="M945.5,125.7C945.5,125.7,945.5,125.6,945.5,125.7C945.5,125.6,945.5,125.7,945.5,125.7z"/>
	<path class="st0" d="M951.9,117.2c0,0.2,0.1,0.3,0.1,0.4c0,0.1,0.1,0.2,0.1,0.3c0-0.1-0.1-0.2-0.1-0.3
		C951.9,117.5,951.9,117.3,951.9,117.2z"/>
	<path class="st0" d="M738.5,32.9c6.6,0,12-5.4,12-12c0-6.6-5.4-12-12-12s-12,5.4-12,12C726.5,27.5,731.9,32.9,738.5,32.9z"/>
	<path class="st0" d="M709.9,141.5h-5.7v4.5h5.7L709.9,141.5C709.9,141.5,709.9,141.5,709.9,141.5z"/>
	<polygon class="st0" points="268.5,147.3 268.5,158.5 293.1,158.5 301.7,147.3 286.9,147.3 	"/>
	<rect x="143.6" y="139.5" class="st1" width="5.9" height="6.4"/>
	<path class="st2" d="M486.5,146h10.7c-0.1-1.6-1.5-2.9-3.2-2.9c-0.7,0-1.4,0.2-2,0.7c-0.2,0.1-0.4,0.2-0.6,0.1
		c-0.2-0.1-0.4-0.2-0.4-0.4c-0.4-1.4-1.6-2.3-3-2.3c-0.6,0-1.1,0.2-1.6,0.4V146z"/>
	<path class="st3" d="M623.3,108.2v34.4c1.1,0.8,1.8,2,1.9,3.4h2.8v-20.4c0-0.4,0.3-0.7,0.7-0.7h18c0.4,0,0.7,0.3,0.7,0.7V146h4.7
		v-43.6L623.3,108.2z"/>
	<path class="st3" d="M629.3,138.6v7.4H646v-7.4H629.3z M629.4,145.9v-2.7h16.4v2.7H629.4z"/>
	<rect x="629.3" y="126.3" class="st3" width="16.7" height="5"/>
	<rect x="629.3" y="132.6" class="st3" width="16.7" height="4.7"/>
	<path class="st4" d="M623.3,142.6v-34.4l28.7-5.7V146h0.7h0.7V90.5l20.2,7.1c0.2,0.1,0.4,0,0.6-0.1c0.2-0.1,0.3-0.3,0.3-0.5v-3.7
		h7.7v6.5c0,0.3,0.2,0.5,0.5,0.6l5.5,1.7V146h1.3v-4.5H689c-0.4,0-0.7-0.3-0.7-0.7v-4.9c0-0.4,0.3-0.7,0.7-0.7h0.4v-33.7
		c0-0.3-0.2-0.5-0.5-0.6l-5.5-1.7v-6.7c0-0.4-0.3-0.7-0.7-0.7h-9c-0.4,0-0.7,0.3-0.7,0.7v3.5L652.9,89c-0.2-0.1-0.4,0-0.6,0.1
		c-0.2,0.1-0.3,0.3-0.3,0.5v11.5l-29.5,5.9c-0.3,0.1-0.5,0.3-0.5,0.6V142C622.4,142.1,622.9,142.3,623.3,142.6z"/>
	<path class="st4" d="M647.3,125.6c0-0.4-0.3-0.7-0.7-0.7h-18c-0.4,0-0.7,0.3-0.7,0.7V146h1.3v-7.4H646v7.4h1.3V125.6z M646,126.3v5
		h-16.7v-5H646z M629.3,137.3v-4.7H646v4.7H629.3z"/>
	<path class="st1" d="M682.5,100.4c-0.3-0.1-0.5-0.3-0.5-0.6v-6.5h-7.7V97c0,0.2-0.1,0.4-0.3,0.5c-0.2,0.1-0.4,0.2-0.6,0.1
		l-20.2-7.1V146H688v-43.9L682.5,100.4z M683.4,131.7c0,0.4-0.3,0.7-0.7,0.7h-11.8h-12.3c-0.4,0-0.7-0.3-0.7-0.7v-8.8v-9.3
		c0-0.4,0.3-0.7,0.7-0.7h12.3h11.8c0.4,0,0.7,0.3,0.7,0.7v9.3c0,0,0,0,0,0s0,0,0,0V131.7z"/>
	<rect x="671.6" y="114.3" class="st3" width="10.4" height="8"/>
	<rect x="659.3" y="114.3" class="st3" width="11" height="8"/>
	<rect x="659.3" y="123.6" class="st3" width="11" height="7.4"/>
	<rect x="671.6" y="123.6" class="st3" width="10.4" height="7.4"/>
	<path class="st5" d="M658.7,122.2h0.7v-8h11v-0.7c0-0.4,0.3-0.7,0.7-0.7h-12.3c-0.4,0-0.7,0.3-0.7,0.7v9.3
		C658,122.5,658.3,122.2,658.7,122.2z"/>
	<path class="st5" d="M670.3,131.7V131h-11v-7.4h-0.7c-0.4,0-0.7-0.3-0.7-0.7v8.8c0,0.4,0.3,0.7,0.7,0.7h12.3
		C670.6,132.3,670.3,132,670.3,131.7z"/>
	<path class="st5" d="M671.6,113.6v0.7H682v8h0.7c0.4,0,0.7,0.3,0.7,0.7v-9.3c0-0.4-0.3-0.7-0.7-0.7h-11.8
		C671.3,113,671.6,113.3,671.6,113.6z"/>
	<path class="st5" d="M682.7,123.6H682v7.4h-10.4v0.7c0,0.4-0.3,0.7-0.7,0.7h11.8c0.4,0,0.7-0.3,0.7-0.7v-8.7
		C683.4,123.3,683.1,123.6,682.7,123.6z"/>
	<path class="st4" d="M683.4,122.9c0-0.4-0.3-0.7-0.7-0.7H682h-10.4v-8v-0.7c0-0.4-0.3-0.7-0.7-0.7s-0.7,0.3-0.7,0.7v0.7v8h-11h-0.7
		c-0.4,0-0.7,0.3-0.7,0.7s0.3,0.7,0.7,0.7h0.7h11v7.4v0.7c0,0.4,0.3,0.7,0.7,0.7s0.7-0.3,0.7-0.7V131v-7.4H682h0.7
		C683.1,123.6,683.4,123.3,683.4,122.9C683.4,122.9,683.4,122.9,683.4,122.9C683.4,122.9,683.4,122.9,683.4,122.9z"/>
	<rect x="629.4" y="143.1" class="st1" width="16.4" height="2.7"/>
	<path class="st5" d="M1032.3,146h-16.3v-11.5h10c0.2,0,0.4-0.1,0.5-0.3c0.1-0.2,0.2-0.4,0.1-0.6L1015.8,96
		c-0.1-0.3-0.3-0.5-0.6-0.5c-0.3,0-0.5,0.2-0.6,0.5l-12.2,37.6c-0.1,0.2,0,0.4,0.1,0.6c0.1,0.2,0.3,0.3,0.5,0.3h11.8V146h-82.9
		v-45.9h8.3v6h-2.4c-0.4,0-0.8,0.3-0.8,0.8v29.9c0,0.4,0.3,0.8,0.8,0.8h40.8c0.4,0,0.8-0.3,0.8-0.8v-29.9c0-0.4-0.3-0.8-0.8-0.8
		h-2.2v-6h6.2c0.4,0,0.8-0.3,0.8-0.8v-7.7c0-0.4-0.3-0.8-0.8-0.8h-50.6v-6.2c0-0.4-0.3-0.8-0.8-0.8h-9.4c-0.4,0-0.8,0.3-0.8,0.8V91
		h-7.2c-0.4,0-0.8,0.3-0.8,0.8v7.7c0,0.4,0.3,0.8,0.8,0.8h7.2V146h-27c0-0.1,0-0.2,0-0.3c0-3.4-2.8-6.2-6.2-6.2
		c-1.1,0-2.2,0.3-3.1,0.8c-1-2.2-3.2-3.7-5.7-3.7c-2.8,0-5.1,1.8-5.9,4.4c-0.8-0.6-1.6-0.9-2.5-1.1c-0.8-2.6-2.3-5-4.1-7
		c2.9-2,4.9-5.4,4.9-9.2c0-6.1-5-11.1-11.1-11.1c-4.9,0-9.1,3.2-10.5,7.6c-2.5-3.4-6.2-5.9-10.3-7v-21c3.1-2.2,5.1-5.8,5.1-9.8
		c0-6.7-5.4-12.1-12.1-12.1c-5.1,0-9.5,3.2-11.3,7.8h-70.4c-3.3,0-5.9,2.7-5.9,5.9v50h-19v-4.1c0-0.2-0.1-0.4-0.3-0.5l-3.4-2.6
		c-0.2-0.2-0.6-0.2-0.8,0l-3.4,2.6c-0.2,0.1-0.3,0.3-0.3,0.5v4.1h-0.3c-1.4,0-2.7,0.4-3.8,1.1h-9.3v-5.2c0-0.2-0.1-0.4-0.3-0.5
		l-3.4-2.6c-0.2-0.2-0.6-0.2-0.8,0l-3.4,2.6c-0.2,0.1-0.3,0.3-0.3,0.5v5.2h-6.7H689c-0.4,0-0.7,0.3-0.7,0.7v4.9
		c0,0.4,0.3,0.7,0.7,0.7h0.4h6.7v4.5h-6.7H688h-34.7h-0.7H652h-4.7H646h-16.7H628h-2.8c-0.1-1.4-0.8-2.7-1.9-3.4
		c-0.4-0.3-0.8-0.5-1.3-0.6c-0.4-0.1-0.8-0.2-1.2-0.2c-0.7,0-1.4,0.2-2,0.5c-0.8-1.5-2.3-2.4-4-2.4c-1.9,0-3.5,1.2-4.2,2.9
		c-0.7-0.5-1.5-0.7-2.4-0.7c-2.3,0-4.2,1.8-4.4,4h-16.8v-7.8c1.9-0.3,3.7-1.1,5.2-2.4c2.1-1.8,3.2-4.5,3.2-7.2
		c0-2.2-0.8-4.4-2.1-6.1c-1-1.2-1.3-2.9-0.7-4.2c0.3-0.9,0.5-1.8,0.5-2.7c0-1.6-0.5-3.1-1.4-4.4c-0.7-0.9-0.9-2.1-0.7-3.4
		c0.1-0.5,0.1-1.1,0-1.6c-0.3-2.4-2.3-4.4-4.7-4.6c-1.5-0.2-3,0.3-4.1,1.3v-5.9c0-0.4-0.3-0.7-0.7-0.7h-3.1v-8.1h8.1
		c0.4,0,0.7-0.3,0.7-0.7v-9.7c0-0.4-0.3-0.7-0.7-0.7h-64.5v-8.2c0-0.4-0.3-0.7-0.7-0.7h-11.9c-0.4,0-0.7,0.3-0.7,0.7v8.2h-9.5
		c-0.4,0-0.7,0.3-0.7,0.7v9.7c0,0.4,0.3,0.7,0.7,0.7h9.5V146h-10.2c-0.1-2.4-2.1-4.3-4.5-4.3c-0.7,0-1.4,0.2-2,0.5
		c-0.8-1.5-2.3-2.4-4-2.4c-0.6,0-1.1,0.1-1.6,0.3v-19.7H441v14.8h-4.2v-5.2c0-0.2-0.1-0.4-0.3-0.5l-3.4-2.6c-0.2-0.2-0.6-0.2-0.8,0
		l-3.4,2.6c-0.2,0.1-0.3,0.3-0.3,0.5v5.2h-13.4v-5.2c0-0.2-0.1-0.4-0.3-0.5l-3.4-2.6c-0.2-0.2-0.6-0.2-0.8,0l-3.4,2.6
		c-0.2,0.1-0.3,0.3-0.3,0.5v5.2H400c-0.4,0-0.7,0.3-0.7,0.7v4.9c0,0.4,0.3,0.7,0.7,0.7h7.1v4.5h-25v-8.3c2-0.3,3.9-1.1,5.5-2.5
		c2.2-1.9,3.4-4.7,3.4-7.6c0-2.3-0.8-4.6-2.2-6.4c-1.1-1.3-1.4-3-0.8-4.5c0.4-0.9,0.5-1.8,0.5-2.8c0-1.7-0.5-3.2-1.5-4.6
		c-0.7-0.9-0.9-2.2-0.7-3.6c0.1-0.6,0.1-1.1,0-1.7c-0.3-2.5-2.4-4.6-4.9-4.8c-1.6-0.2-3.2,0.3-4.4,1.4c-1.2,1.1-1.9,2.6-1.9,4.2
		c0,0.4,0,0.7,0.1,1.1c0.2,1.3,0,2.6-0.7,3.5c-1,1.3-1.5,2.9-1.5,4.6c0,1,0.2,1.9,0.5,2.8c0.6,1.5,0.3,3.1-0.7,4.4
		c-1.8,2.2-2.6,4.9-2.2,7.8c0.6,4.6,4.3,8.3,8.9,8.8c0.4,0,0.8,0.1,1.2,0.1c0,0,0,0,0,0v8.2h-11.2c-0.1-2.4-2.1-4.3-4.5-4.3
		c-0.7,0-1.4,0.2-2,0.5c-0.8-1.5-2.3-2.4-4-2.4c-1.9,0-3.5,1.2-4.2,2.9c-0.2-0.1-0.4-0.2-0.7-0.3v-25h4.6c0.2,0,0.4-0.1,0.5-0.3
		c0.1-0.2,0.2-0.4,0.1-0.6l-7.9-25.2c-0.1-0.3-0.3-0.5-0.6-0.5H316l-4.4-3.9l-1.7-1.5c-0.1-0.1-0.3-0.2-0.4-0.2
		c-0.2,0-0.3,0.1-0.4,0.2l-6.2,5.4h-34.5c-0.3,0-0.5,0.2-0.6,0.5l-8.4,25.2c-0.1,0.2,0,0.4,0.1,0.6s0.3,0.3,0.5,0.3h4.6v20.5
		l-1.4-2.1c-2-2.9-4.8-2.7-5.2-2.6h-11.7c-0.4,0-0.9,0.1-1.2,0.3v-8.6c0-2.4-2-4.4-4.4-4.4H196c-2.4,0-4.4,2-4.4,4.4V146h-12v-6.5h6
		c0.4,0,0.7-0.3,0.7-0.7v-4.6c0-0.4-0.3-0.7-0.7-0.7h-49.4c-0.4,0-0.7,0.3-0.7,0.7v4.6c0,0.4,0.3,0.7,0.7,0.7h6v6.5h-12.8
		c-0.1-5-2.6-9.4-6.6-11.9v-9h1.9c0.2,0,0.3-0.1,0.5-0.2l4-4c0.1-0.1,0.2-0.3,0.2-0.5v-5.7c0-0.2-0.1-0.3-0.2-0.5l-4-4
		c-0.1-0.1-0.3-0.2-0.5-0.2h-5.7c-0.2,0-0.3,0.1-0.5,0.2l-4,4c-0.1,0.1-0.2,0.3-0.2,0.5v5.7c0,0.2,0.1,0.3,0.2,0.5l4,4
		c0.1,0.1,0.3,0.2,0.5,0.2h2.4v8.2c-1.9-1-4.1-1.6-6.4-1.6c-1-3.8-3.5-7-6.8-8.9V92.3h2.6c0.2,0,0.4-0.1,0.6-0.3
		c0.1-0.2,0.1-0.4,0-0.7l-4-7.3c-0.1-0.2-0.3-0.3-0.6-0.3h-38c-0.3,0-0.5,0.1-0.6,0.4l-3.6,7.3c-0.1,0.2-0.1,0.4,0,0.6
		s0.3,0.3,0.6,0.3h2.6v29.1L60.8,96c-0.1-0.3-0.3-0.5-0.6-0.5c-0.3,0-0.5,0.2-0.6,0.5l-12.2,37.6c-0.1,0.2,0,0.4,0.1,0.6
		c0.1,0.2,0.3,0.3,0.5,0.3h11.8V146h-5.4c0-3.2-2.7-5.9-5.9-5.9c-1,0-2,0.3-2.9,0.8c-0.9-2.1-3-3.5-5.4-3.5c-2.6,0-4.9,1.7-5.6,4.1
		c-1-0.7-2.2-1.1-3.4-1.1c-3.1,0-5.7,2.4-5.9,5.5H0.7c-0.4,0-0.7,0.3-0.7,0.7s0.3,0.7,0.7,0.7h25.2h27.8h15.2h8.9H84h8.6h15.2h21
		h62.8v9c0,0.8,0.2,1.5,0.6,2.2H80.1c-0.4,0-0.7,0.3-0.7,0.7s0.3,0.7,0.7,0.7h113.4c0.5,0.4,1.1,0.6,1.7,0.8v3.3
		c0,0.4,0.3,0.7,0.7,0.7l4.6,0c0.9,3,3.7,5.3,7,5.3c3.3,0,6.1-2.2,7-5.3l34.9,0c0.9,3,3.7,5.3,7,5.3c3.3,0,6.1-2.2,7-5.3l1.3,0
		c0,0,0.1,0,0.2,0c0.4,0,1.6-0.1,2.6-1c0.9-0.8,1.3-2,1.3-3.5v-0.2h24.9c0.1,0,0.2,0,0.3-0.1c0,0,0,0,0.1,0c0.1,0,0.1-0.1,0.2-0.1
		c0,0,0,0,0,0l9.5-12.2h12.3l8.6,11.9c0,0.3,0.3,0.6,0.6,0.6h175.8c0.4,0,0.7-0.3,0.7-0.7s-0.3-0.7-0.7-0.7H325.4l-8.1-11.2H332
		h16.8h4.9H369h38.8h6.8h14.8h6.8h5.6h36h8.2h12h11.2c0.1,0.1,0.2,0.1,0.3,0.1h11.9c0.1,0,0.2,0,0.3-0.1h18.2h64.5h18.3h1.9h28.1
		h36.1h8h6.8h6.4v8.9c0,0.8,0.1,1.6,0.4,2.3H583.1c-0.4,0-0.7,0.3-0.7,0.7s0.3,0.7,0.7,0.7h127.7c0.9,1.7,2.5,3,4.4,3.5
		c0.6,3.8,3.9,6.7,7.9,6.7c3.8,0,7.1-2.7,7.8-6.4h30.6c0.7,3.6,4,6.4,7.8,6.4c3.9,0,7.1-2.8,7.8-6.4c1.9-0.2,3.4-1.8,3.6-3.8h24.8
		c0.4,0,0.7-0.3,0.7-0.7s-0.3-0.7-0.7-0.7h-24.9c-0.4-5.5-4.4-10-9.8-11.2h261.4c0.4,0,0.7-0.3,0.7-0.7S1032.7,146,1032.3,146z
		 M1015.4,118.3c-0.4,0-0.7,0.3-0.7,0.7v7.2l-3.2-3.2c-0.3-0.3-0.7-0.3-0.9,0s-0.3,0.7,0,0.9l4,4c0,0,0,0,0.1,0v3.2v1.9h-10.9
		l0.6-1.9l9.4-29l1.2-3.8l10.1,34.7h-9.1v-1.9v-12.3C1016.1,118.6,1015.8,118.3,1015.4,118.3z M977.8,107.6V136h0v0h-39.3v-28.4h0v0
		H977.8z M941.6,106.1v-6h33.2v6H941.6z M931.8,92.5L931.8,92.5h49.9v6.2h-49.9h0V92.5z M922.5,85.5h7.8v59.8h-7.8V85.5z
		 M914.5,98.6v-6.2h6.5v6.2H914.5z M381.5,119.6c-0.4,0-0.7,0.3-0.7,0.7v8.2l-2.6-2.6c-0.3-0.3-0.7-0.3-0.9,0
		c-0.3,0.3-0.3,0.7,0,0.9l3.5,3.5c0,0,0,0,0.1,0v3.6v2.5c-0.3,0-0.7,0-1-0.1c-1.3-0.1-2.5-0.6-3.6-1.3c-2.2-1.4-3.8-3.7-4.2-6.4
		c-0.3-2.5,0.4-4.9,1.9-6.8c1.3-1.6,1.7-3.8,0.9-5.7c-0.3-0.7-0.4-1.5-0.4-2.3c0-1.4,0.4-2.7,1.2-3.8c0.9-1.2,1.3-2.9,0.9-4.5
		c-0.1-0.3-0.1-0.5-0.1-0.8c0-1.2,0.5-2.4,1.4-3.2c0.7-0.7,1.6-1,2.6-1.1c0.1,0,0.2,0,0.2,0c0.2,0,0.3,0,0.5,0
		c1.9,0.2,3.5,1.8,3.7,3.7c0.1,0.4,0,0.9,0,1.3c-0.3,1.7,0,3.4,0.9,4.6c0.8,1.1,1.2,2.4,1.2,3.8c0,0.8-0.1,1.6-0.4,2.3
		c-0.7,1.9-0.4,4.1,1,5.8c1.3,1.6,1.9,3.5,1.9,5.5c0,2.5-1.1,4.9-3,6.6c-1.3,1.2-2.9,1.9-4.6,2.1v-3.3v-12.8
		C382.2,119.9,381.9,119.6,381.5,119.6z M122.3,120.6c-0.4,0-0.7,0.3-0.7,0.7v2.5h-2.2l-3.6-3.6v-5.1l3.6-3.6h5.1l3.6,3.6v5.1
		l-3.6,3.6H123v-2.5C123,120.9,122.7,120.6,122.3,120.6z M136.9,134.9H185v3.3h-6h-7.2h-21.6H143h-6V134.9z M178.4,145.9h-5.9v-6.4
		h5.9V145.9z M143.6,139.5h5.9v6.4h-5.9V139.5z M150.8,139.5h20.3v6.5h-20.3V139.5z M106.7,85l3.3,6H66.6l2.9-6H106.7z M107.2,92.3
		V146H93.3v-12.3c0-0.4-0.3-0.7-0.7-0.7H84c-0.4,0-0.7,0.3-0.7,0.7V146h-5.2h-8.7v-11.5h1.6c0.2,0,0.4-0.1,0.5-0.3
		c0.1-0.2,0.2-0.4,0.1-0.6l-2.2-7.7V92.3H107.2z M114.8,133.1c0.1,0,0.2,0,0.3,0c2.4,0,4.6,0.7,6.6,1.8V146h-13.1v-21.6
		c2.8,1.8,4.9,4.7,5.6,8.2C114.2,132.9,114.5,133.1,114.8,133.1z M123,135.7c3.1,2.4,5.2,6.1,5.2,10.3H123V135.7z M92,146h-7.3
		v-11.7H92V146z M60.4,118.3c-0.4,0-0.7,0.3-0.7,0.7v7.2l-3.2-3.2c-0.3-0.3-0.7-0.3-0.9,0s-0.3,0.7,0,0.9l4,4c0,0,0,0,0.1,0v3.2v1.9
		H48.9l0.6-1.9l9.4-29l1.2-3.8l10.1,34.7h-9.1v-1.9v-12.3C61.1,118.6,60.8,118.3,60.4,118.3z M61.1,134.5h7.1V146h-7.1V134.5z
		 M31.1,141.8c1.3,0,2.5,0.5,3.4,1.5c0.2,0.2,0.4,0.3,0.7,0.2c0.2-0.1,0.4-0.3,0.4-0.6c0.2-2.3,2.2-4.1,4.5-4.1c2,0,3.9,1.4,4.4,3.3
		c0.1,0.2,0.2,0.4,0.4,0.4c0.2,0.1,0.4,0,0.6-0.1c0.8-0.6,1.8-1,2.8-1c2.5,0,4.6,2,4.6,4.5H26.5C26.7,143.7,28.7,141.8,31.1,141.8z
		 M610.4,144.3c0.2,0.2,0.5,0.3,0.7,0.2c0.2-0.1,0.4-0.3,0.4-0.6c0.2-1.6,1.5-2.8,3.1-2.8c1.4,0,2.7,0.9,3,2.3
		c0.1,0.2,0.2,0.4,0.4,0.4c0.2,0.1,0.4,0,0.6-0.1c0.6-0.4,1.2-0.7,2-0.7c1.7,0,3,1.3,3.2,2.9h-0.6H605c0.2-1.5,1.5-2.7,3.1-2.7
		C609,143.3,609.8,143.7,610.4,144.3z M510.1,69.7h10.5V143c-0.9,0.7-1.5,1.8-1.6,3.1h-8.9V69.7z M499.9,78.5h8.8V87h-8.8V78.5z
		 M585.7,87h-63.8v-8.4h63.8V87z M520.3,146c0.2-1.5,1.5-2.7,3.1-2.7c0.9,0,1.7,0.4,2.3,1c0.2,0.2,0.5,0.3,0.7,0.2
		c0.2-0.1,0.4-0.3,0.4-0.6c0.2-1.6,1.5-2.8,3.1-2.8c1.4,0,2.7,0.9,3,2.3c0.1,0.2,0.2,0.4,0.4,0.4c0.2,0.1,0.4,0,0.6-0.1
		c0.6-0.4,1.2-0.7,2-0.7c1.7,0,3,1.3,3.2,2.9H520.3z M536,141.8c-0.7,0-1.4,0.2-2,0.5c-0.8-1.5-2.3-2.4-4-2.4
		c-1.9,0-3.5,1.2-4.2,2.9c-0.7-0.5-1.5-0.7-2.4-0.7c-0.5,0-1,0.1-1.5,0.3v-54H533v8.1h-3.3c-0.4,0-0.7,0.3-0.7,0.7v37.9
		c0,0.4,0.3,0.7,0.7,0.7h49.2c1.5,1.4,3.4,2.4,5.6,2.6c0.4,0,0.7,0.1,1.1,0.1v7.7h-45.1C540.3,143.7,538.4,141.8,536,141.8z
		 M589.5,107.6c-0.3,1.7,0,3.2,0.9,4.4c0.8,1,1.2,2.3,1.2,3.6c0,0.8-0.1,1.5-0.4,2.2c-0.7,1.8-0.4,3.9,0.9,5.5
		c1.2,1.5,1.8,3.3,1.8,5.2c0,2.4-1,4.7-2.8,6.3c-1.2,1.1-2.7,1.8-4.3,2v-3.1v-12.1c0-0.4-0.3-0.7-0.7-0.7s-0.7,0.3-0.7,0.7v7.7
		l-2.4-2.4c-0.3-0.3-0.7-0.3-0.9,0s-0.3,0.7,0,0.9l3.3,3.3c0,0,0,0,0.1,0v3.4v2.3c-0.3,0-0.6,0-1-0.1c-1.2-0.1-2.4-0.5-3.4-1.2
		c-2.1-1.3-3.6-3.5-4-6.1c-0.3-2.3,0.4-4.6,1.8-6.4c1.3-1.5,1.6-3.6,0.9-5.5c-0.3-0.7-0.4-1.4-0.4-2.2c0-1.3,0.4-2.5,1.2-3.6
		c0.9-1.2,1.2-2.8,0.9-4.3c0-0.3-0.1-0.5-0.1-0.8c0-1.1,0.5-2.2,1.3-3c0.7-0.6,1.5-1,2.5-1c0.1,0,0.1,0,0.2,0c0.2,0,0.3,0,0.5,0
		c1.8,0.2,3.3,1.7,3.5,3.5C589.6,106.8,589.6,107.2,589.5,107.6z M580.7,104.7c-0.3,0.7-0.5,1.4-0.5,2.2c0,0.3,0,0.7,0.1,1
		c0.2,1.2,0,2.4-0.7,3.3c-0.9,1.3-1.4,2.8-1.4,4.4c0,0.9,0.2,1.8,0.5,2.7c0.5,1.4,0.3,3-0.7,4.1c-1.7,2.1-2.5,4.7-2.1,7.4
		c0.2,1.6,0.8,3.1,1.8,4.4h-47.4V97.7h50.4V104.7z M577,96.4h-42.6v-8.1H577V96.4z M408.4,141.5h5.4v4.5h-5.4V141.5z M400.7,136.6
		H441v3.6h-40.3V136.6z M411.2,128.3l2.7,2.1v4.8h-5.4v-4.8L411.2,128.3z M432.7,128.3l2.7,2.1v4.8H430v-4.8L432.7,128.3z
		 M415.2,141.5h13.4v4.5h-13.4V141.5z M430,141.5h5.4v4.5H430V141.5z M436.7,141.5h4.2v4.5h-4.2V141.5z M478.1,145.9H470v-12.9h8.1
		V145.9z M491.1,143.4c0.1,0.2,0.2,0.4,0.4,0.4c0.2,0.1,0.4,0,0.6-0.1c0.6-0.4,1.2-0.7,2-0.7c1.7,0,3,1.3,3.2,2.9h-10.7v-4.5
		c0.5-0.3,1-0.4,1.6-0.4C489.4,141.1,490.7,142.1,491.1,143.4z M485.2,120.5V146h-5.7v-13.6c0-0.4-0.3-0.7-0.7-0.7h-9.4
		c-0.4,0-0.7,0.3-0.7,0.7V146h-26.4v-25.6H485.2z M250.3,162.5c0-3.3,2.7-5.9,5.9-5.9c3.3,0,5.9,2.7,5.9,5.9s-2.7,5.9-5.9,5.9
		C252.9,168.5,250.3,165.8,250.3,162.5z M207.4,168.5c-3.3,0-5.9-2.7-5.9-5.9s2.7-5.9,5.9-5.9c3.3,0,5.9,2.7,5.9,5.9
		S210.7,168.5,207.4,168.5z M196,121.8h44.1h0.5c1.7,0,3,1.4,3,3v10.9v20.7c0,1.7-1.4,3-3,3h-26.7c-1.2-2.4-3.6-4.1-6.5-4.1
		s-5.3,1.7-6.5,4.1H196c-1.7,0-3-1.4-3-3v-2.5v-29C193,123.1,194.4,121.8,196,121.8z M262,136.5l5,7.3c0.1,0.2,0.2,0.4,0.2,0.7v9.3
		v5.6h-4.5c-1.2-2.4-3.6-4.1-6.5-4.1s-5.3,1.7-6.5,4.1h-3.5c-0.7,0-1.2-0.5-1.2-1.2v-1.8v-20.7c0-0.7,0.5-1.2,1.2-1.2h4.6h7.1
		c0,0,0.1,0,0.1,0C258.1,134.4,260.4,134.1,262,136.5z M353,142c-0.1,0-0.3,0-0.4,0c-2.3,0-4.2,1.8-4.4,4h-15.5v-28.6H353V142z
		 M303.8,145.9v-17.5H315v17.5H303.8z M316.3,146v-18.3c0-0.4-0.3-0.7-0.7-0.7h-12.5c-0.4,0-0.7,0.3-0.7,0.7V146h-15v-39.8
		l21.9-19.3l1.4,1.2l20.5,18.1V146H316.3z M353.7,116.1h-21v-8.9l3.6,3.1c0.1,0.1,0.3,0.2,0.4,0.2c0.2,0,0.4-0.1,0.5-0.2
		c0.2-0.3,0.2-0.7-0.1-0.9l-19.6-17.1h32.9l7.5,23.8H353.7z M281.7,109.4c-0.3,0.2-0.3,0.7-0.1,0.9c0.2,0.3,0.7,0.3,0.9,0.1l3.6-3.2
		v8.9h-21h-4.3l7.9-23.8h32.5L281.7,109.4z M286.2,117.4V146h-17.7v-1.5c0-0.5-0.2-1-0.4-1.4l-2.2-3.3v-22.4H286.2z M353,146h-3.6
		c0.2-1.5,1.5-2.7,3.1-2.7c0.9,0,1.7,0.4,2.3,1c0.2,0.2,0.4,0.3,0.7,0.2c0.2-0.1,0.4-0.3,0.4-0.6c0.2-1.6,1.5-2.8,3.1-2.8
		c1.4,0,2.6,0.9,3,2.3c0.1,0.2,0.2,0.4,0.4,0.4c0.2,0.1,0.4,0,0.6-0.1c0.6-0.4,1.2-0.7,2-0.7c1.7,0,3,1.3,3.2,2.9H353z M293.1,158.5
		h-24.6v-11.2h18.4h14.8L293.1,158.5z M773.7,152.9h3.4c0.1,0,0.1,0,0.2,0c1.4,1.9,2.2,4.1,2.2,6.6c0,1.3-0.9,2.4-2.2,2.7
		c0-0.1,0-0.1,0-0.2c0-4.4-3.6-8-8-8c-0.8,0-1.6,0.1-2.3,0.4v-6.3l2.8,0.4c2.5,0.3,4.7,1.5,6.4,3.1h-2.5c-0.4,0-0.7,0.3-0.7,0.7
		S773.3,152.9,773.7,152.9z M762.7,162c0-3.7,3-6.6,6.6-6.6c3.7,0,6.6,3,6.6,6.6s-3,6.6-6.6,6.6C765.6,168.7,762.7,165.7,762.7,162z
		 M723.1,168.7c-3.7,0-6.6-3-6.6-6.6s3-6.6,6.6-6.6s6.6,3,6.6,6.6S726.8,168.7,723.1,168.7z M723.1,154.1c-4.4,0-7.9,3.5-8,7.8
		c-2.3-0.9-3.9-3.1-3.9-5.7v-14.6c0-3.4,2.7-6.1,6.1-6.1h33c1.5,0,3,0.6,4.1,1.6l11.3,10.6v7.3c-2.6,1.3-4.3,4-4.3,7.1
		c0,0.1,0,0.2,0,0.3h-30.3c0-0.1,0-0.2,0-0.3C731.1,157.6,727.5,154.1,723.1,154.1z M697.4,141.5h5.4v4.5h-5.4V141.5z M689.7,136.6
		h22.2c-0.9,1-1.6,2.2-1.8,3.6h-20.4V136.6z M700.1,128.3l2.7,2.1v4.8h-5.4v-4.8L700.1,128.3z M724.4,130.4v3.8h-5.4v-3.8l2.7-2.1
		L724.4,130.4z M750.6,79.5h70c-0.2,1-0.4,2-0.4,3c0,0.6,0.1,1.3,0.2,1.9h-23.5l-2.6-1.9l-1.9-1.4c-0.1-0.1-0.3-0.1-0.4-0.1
		c-0.1,0-0.3,0-0.4,0.1l-4.5,3.3h-30.1c-3.3,0-5.9,2.7-5.9,5.9v35.7c0,3.3,2.7,5.9,5.9,5.9H827c3.3,0,5.9-2.7,5.9-5.9V94.5
		c1.8-0.1,3.5-0.6,5-1.4v43.7h-26.8h-38.3h-16.6l-0.9-0.8c-1.4-1.2-3.1-1.9-5-1.9H746v-50C746,81.6,748.1,79.5,750.6,79.5z
		 M843,82.5c0,5.9-4.8,10.7-10.7,10.7c-5.9,0-10.7-4.8-10.7-10.7c0-5.9,4.8-10.7,10.7-10.7C838.2,71.8,843,76.6,843,82.5z
		 M752.3,125.7h18.5c0,0,0,0,0,0h42.4c0,0,0,0,0,0h18.5v0.4c0,2.5-2.1,4.6-4.6,4.6h-70.1c-2.5,0-4.6-2.1-4.6-4.6V125.7z M793.5,83.5
		l7.4,5.4l11.7,8.4v4l0,0v23h-5.9v-15.6c0-0.4-0.3-0.7-0.7-0.7h-11.3c-0.4,0-0.7,0.3-0.7,0.7v15.6h-22.5v-27L792,82.5L793.5,83.5z
		 M795.2,124v-14.5h10V124H795.2z M766.6,99.2c-0.3,0.2-0.4,0.6-0.1,0.9c0.2,0.3,0.6,0.4,0.9,0.1l2.8-2v26.1h-17.8v-34
		c0-2.5,2.1-4.6,4.6-4.6h28.3L766.6,99.2z M831.6,124.4h-17.8V98.3l2.8,2c0.1,0.1,0.3,0.1,0.4,0.1c0.2,0,0.4-0.1,0.5-0.3
		c0.2-0.3,0.1-0.7-0.1-0.9l-18.7-13.5h22c1.4,4.9,5.7,8.5,11,8.8V124.4z M873.6,143c0.2-0.1,0.4-0.3,0.4-0.6
		c0.3-2.5,2.3-4.4,4.9-4.4c2.2,0,4.1,1.5,4.7,3.6c0.1,0.2,0.2,0.4,0.4,0.4c0.2,0.1,0.4,0,0.6-0.1c0.9-0.7,1.9-1.1,3-1.1
		c2.7,0,4.9,2.2,4.9,4.9H870h-5.6c0.2-2.5,2.3-4.5,4.9-4.5c1.4,0,2.6,0.6,3.6,1.6C873.1,143,873.4,143,873.6,143z M810.4,138.2
		c-0.3,1.5-1.6,2.6-3.2,2.6h-30.4c-1.6,0-2.9-1.1-3.2-2.6H810.4z M772.2,138.2c0.3,2.2,2.2,3.9,4.5,3.9h30.4c2.3,0,4.2-1.7,4.5-3.9
		h26.9c0.1,0,0.1,0,0.2,0h4.2c0.8,0,1.6,0.4,2.1,1.1s0.5,1.6,0.1,2.4l-2,4.1h-77.7l-8-7.5H772.2z M863.1,145.7h-1.6v-10.9
		c1.3-0.2,2.5-0.6,3.7-1.1c1.7,1.8,3,3.9,3.8,6.2C865.9,140.1,863.3,142.6,863.1,145.7z M861.5,133.5v-3.2v-9.1
		c0-0.4-0.3-0.7-0.7-0.7s-0.7,0.3-0.7,0.7v6.2l-2.9-3.5c-0.2-0.3-0.6-0.3-0.9-0.1c-0.3,0.2-0.3,0.6-0.1,0.9l3.8,4.6
		c0,0,0.1,0.1,0.1,0.1v1.9v2.3c0,0-0.1,0-0.1,0c-1.4,0-2.7-0.3-4-0.8c-3.4-1.5-5.8-5-5.8-8.9c0-5.4,4.4-9.8,9.8-9.8
		c0.2,0,0.5,0,0.7,0c5.1,0.4,9.1,4.6,9.1,9.8C869.9,128.8,866.3,132.8,861.5,133.5z M860.1,134.9c0,0,0.1,0,0.1,0v10.8h-15.5
		l1.7-3.5c0.6-1.2,0.5-2.5-0.2-3.6c-0.7-1.1-1.9-1.8-3.2-1.8h-3.8v-22.1c4.1,1.2,7.6,3.8,9.9,7.3c-0.1,0.6-0.2,1.2-0.2,1.8
		C849,130,854,134.9,860.1,134.9z M704.2,146v-4.5h5.7c0,0,0,0,0,0.1v4.5H704.2z"/>
	<path class="st5" d="M1029,158.5H815.5c-0.4,0-0.7,0.3-0.7,0.7s0.3,0.7,0.7,0.7H1029c0.4,0,0.7-0.3,0.7-0.7
		S1029.3,158.5,1029,158.5z"/>
	<path class="st5" d="M573.3,158.5h-62.2c-0.4,0-0.7,0.3-0.7,0.7s0.3,0.7,0.7,0.7h62.2c0.4,0,0.7-0.3,0.7-0.7
		S573.6,158.5,573.3,158.5z"/>
	<path class="st5" d="M71.3,158.5H4.9c-0.4,0-0.7,0.3-0.7,0.7s0.3,0.7,0.7,0.7h66.4c0.4,0,0.7-0.3,0.7-0.7S71.7,158.5,71.3,158.5z"
		/>
	<path class="st1" d="M268,143.1c0.3,0.4,0.4,0.9,0.4,1.4v1.5h17.7v-28.6h-20.4v22.4L268,143.1z M271.7,124.5c0-0.4,0.3-0.7,0.7-0.7
		h9c0.4,0,0.7,0.3,0.7,0.7v14c0,0.4-0.3,0.7-0.7,0.7h-9c-0.4,0-0.7-0.3-0.7-0.7V124.5z"/>
	<path class="st1" d="M332.6,146h15.5c0.2-2.3,2.1-4,4.4-4c0.1,0,0.3,0,0.4,0v-24.6h-20.4V146z M338.4,123.8h9
		c0.4,0,0.7,0.3,0.7,0.7v14c0,0.4-0.3,0.7-0.7,0.7h-9c-0.4,0-0.7-0.3-0.7-0.7v-14C337.8,124.1,338.1,123.8,338.4,123.8z"/>
	<path class="st3" d="M260.8,116.1h4.3h21v-8.9l-3.6,3.2c-0.3,0.2-0.7,0.2-0.9-0.1c-0.2-0.3-0.2-0.7,0.1-0.9l19.5-17.1h-32.5
		L260.8,116.1z"/>
	<path class="st3" d="M317.5,92.2l19.6,17.1c0.3,0.2,0.3,0.7,0.1,0.9c-0.1,0.1-0.3,0.2-0.5,0.2c-0.2,0-0.3-0.1-0.4-0.2l-3.6-3.1v8.9
		h21h4.3l-7.5-23.8H317.5z"/>
	<path class="st2" d="M331.3,106.2l-20.5-18.1l-1.4-1.2l-21.9,19.3V146h15v-18.3c0-0.4,0.3-0.7,0.7-0.7h12.5c0.4,0,0.7,0.3,0.7,0.7
		V146h15V106.2z M309.4,103.5c4.7,0,8.6,3.9,8.6,8.6c0,0.4-0.3,0.7-0.7,0.7h-15.9c-0.4,0-0.7-0.3-0.7-0.7
		C300.8,107.4,304.7,103.5,309.4,103.5z"/>
	<rect x="303.8" y="128.4" class="st3" width="11.2" height="17.5"/>
	<path class="st3" d="M316.7,111.4c-0.3-3.7-3.5-6.6-7.3-6.6s-6.9,2.9-7.3,6.6H316.7z"/>
	<path class="st5" d="M301.5,112.8h15.9c0.4,0,0.7-0.3,0.7-0.7c0-4.7-3.9-8.6-8.6-8.6s-8.6,3.9-8.6,8.6
		C300.8,112.5,301.1,112.8,301.5,112.8z M309.4,104.8c3.8,0,6.9,2.9,7.3,6.6h-14.5C302.5,107.7,305.6,104.8,309.4,104.8z"/>
	<path class="st6" d="M280.7,125.2H273v12.7h7.6V125.2z M280.6,137.8h-7.5v-6.1h7.5V137.8z"/>
	<path class="st5" d="M272.4,139.1h9c0.4,0,0.7-0.3,0.7-0.7v-14c0-0.4-0.3-0.7-0.7-0.7h-9c-0.4,0-0.7,0.3-0.7,0.7v14
		C271.7,138.9,272,139.1,272.4,139.1z M273,125.2h7.6v12.7H273V125.2z"/>
	<path class="st6" d="M346.7,125.2h-7.6v12.7h7.6V125.2z M346.7,137.8h-7.5v-6.1h7.5V137.8z"/>
	<path class="st5" d="M338.4,139.1h9c0.4,0,0.7-0.3,0.7-0.7v-14c0-0.4-0.3-0.7-0.7-0.7h-9c-0.4,0-0.7,0.3-0.7,0.7v14
		C337.8,138.9,338.1,139.1,338.4,139.1z M339.1,125.2h7.6v12.7h-7.6V125.2z"/>
	<rect x="273.1" y="131.7" class="st3" width="7.5" height="6.1"/>
	<rect x="339.2" y="131.7" class="st3" width="7.5" height="6.1"/>
	<path class="st1" d="M861.5,134.8v10.9h1.6c0.2-3.2,2.7-5.7,5.9-5.8c-0.8-2.3-2.1-4.4-3.8-6.2C864.1,134.3,862.8,134.7,861.5,134.8
		z"/>
	<path class="st1" d="M839.3,114.7v22.1h3.8c1.3,0,2.5,0.7,3.2,1.8c0.7,1.1,0.8,2.5,0.2,3.6l-1.7,3.5h15.5v-10.8c0,0-0.1,0-0.1,0
		c-6.1,0-11.1-5-11.1-11.1c0-0.6,0.1-1.2,0.2-1.8C846.9,118.5,843.3,115.9,839.3,114.7z"/>
	<path class="st1" d="M123,135.7V146h5.2C128.2,141.8,126.1,138.1,123,135.7z"/>
	<path class="st1" d="M108.5,124.4V146h13.1v-11.2c-1.9-1.1-4.2-1.8-6.6-1.8c-0.1,0-0.2,0-0.3,0c-0.3,0-0.6-0.2-0.7-0.5
		C113.4,129.1,111.3,126.2,108.5,124.4z"/>
	<path class="st2" d="M869.4,141.2c-2.6,0-4.7,2-4.9,4.5h5.6h22.6c0-2.7-2.2-4.9-4.9-4.9c-1.1,0-2.2,0.4-3,1.1
		c-0.2,0.1-0.4,0.2-0.6,0.1c-0.2-0.1-0.4-0.2-0.4-0.4c-0.6-2.1-2.5-3.6-4.7-3.6c-2.5,0-4.6,1.9-4.9,4.4c0,0.3-0.2,0.5-0.4,0.6
		c-0.2,0.1-0.5,0-0.7-0.2C872,141.8,870.7,141.2,869.4,141.2z"/>
	<rect x="931.8" y="92.5" class="st2" width="49.9" height="6.2"/>
	<rect x="914.5" y="92.5" class="st2" width="6.5" height="6.2"/>
	<rect x="922.5" y="85.5" class="st2" width="7.8" height="59.8"/>
	<path class="st3" d="M956.3,127.1l-0.4-1.3l-0.3-1c-0.1-0.1-0.1-0.3-0.2-0.5c0-0.1,0-0.1-0.1-0.2c0-0.1-0.1-0.3-0.1-0.4
		c-0.1,0.2-0.1,0.4-0.2,0.6c-0.1,0.2-0.1,0.4-0.2,0.5l-0.5,1.4l-0.3,0.9H956.3z"/>
	<path class="st3" d="M938.5,107.6L938.5,107.6l0,28.4h39.3v0v-28.4H938.5z M951,130.3l3.2-8.3h2l2.2,5.8l1,2.5h-1.5
		c-0.1,0-0.2,0-0.2,0c-0.1,0-0.1,0-0.2-0.1c-0.1-0.1-0.2-0.2-0.2-0.3l-0.2-0.5l-0.3-1h-3.2l-0.2,0.7l-0.3,0.8c0,0,0,0,0,0
		c0,0.1-0.1,0.2-0.2,0.3c0,0,0,0,0,0c-0.1,0.1-0.2,0.1-0.3,0.1c0,0,0,0-0.1,0L951,130.3L951,130.3L951,130.3z M966,121.9L966,121.9
		L966,121.9l5.4,0v1.5h0v0H968v1.9h2.6v1.4h0v0H968v2h3.4v1.5h0v0H966V121.9z M965.1,128.7v1.5h0v0h-5v-8.3h0v0h1.9v0h0v6.8
		L965.1,128.7L965.1,128.7L965.1,128.7z M958.1,113.3L958.1,113.3L958.1,113.3l2.2,0c0.2,0,0.4,0,0.5,0c0.3,0,0.5,0.1,0.7,0.1
		c0.1,0,0.2,0.1,0.3,0.1c0.1,0,0.2,0.1,0.3,0.2c0.1,0,0.2,0.1,0.2,0.2c0.1,0,0.1,0.1,0.1,0.1c0.1,0.2,0.3,0.3,0.4,0.5
		c0.1,0.2,0.2,0.5,0.2,0.8c0,0.2,0,0.4-0.1,0.6c0,0,0,0,0,0v0c-0.1,0.2-0.1,0.4-0.3,0.5c0,0-0.1,0.1-0.1,0.1
		c-0.1,0.1-0.2,0.2-0.3,0.3c-0.2,0.1-0.4,0.2-0.6,0.3c0.1,0,0.1,0.1,0.1,0.1c0.1,0,0.1,0.1,0.2,0.1c0.1,0.1,0.2,0.2,0.2,0.3l1.5,2.4
		h0l0,0h-1.4c-0.2,0-0.3,0-0.4-0.1c-0.1,0-0.1-0.1-0.2-0.2l-0.8-1.5l-0.3-0.5c0-0.1-0.1-0.1-0.1-0.1c0,0,0-0.1-0.1-0.1
		c0,0-0.1,0-0.2,0c0,0-0.1,0-0.1,0h-0.4v2.5h0v0h-1.6V113.3z M950.5,115.3c0.2-0.4,0.4-0.8,0.7-1.1c0.1-0.1,0.3-0.3,0.5-0.4
		c0,0,0.1,0,0.1-0.1c0.2-0.1,0.4-0.2,0.6-0.3c0.2-0.1,0.4-0.1,0.6-0.2c0.3-0.1,0.6-0.1,0.9-0.1c0,0,0,0,0,0s0,0,0,0
		c0.5,0,1,0.1,1.5,0.3c0.4,0.2,0.8,0.4,1.1,0.7c0.2,0.2,0.4,0.4,0.5,0.7c0.1,0.1,0.2,0.3,0.2,0.4c0.2,0.4,0.3,0.9,0.3,1.4
		c0,0.5-0.1,1-0.3,1.4c-0.1,0.3-0.3,0.5-0.5,0.8c-0.1,0.1-0.2,0.2-0.3,0.3c-0.3,0.3-0.7,0.6-1.1,0.7c-0.4,0.2-0.9,0.3-1.5,0.3
		c0,0,0,0,0,0s0,0,0,0c-0.3,0-0.6,0-0.9-0.1c-0.2,0-0.4-0.1-0.6-0.2c-0.2-0.1-0.4-0.2-0.6-0.3c0,0-0.1,0-0.1-0.1
		c-0.2-0.1-0.3-0.2-0.5-0.4c-0.1-0.1-0.3-0.3-0.4-0.5c0,0,0-0.1-0.1-0.1c-0.1-0.2-0.2-0.4-0.3-0.6c-0.2-0.4-0.3-0.9-0.3-1.4
		C950.2,116.2,950.3,115.8,950.5,115.3z M945.3,120.1v-6.8v0h4.4v0v1.2v0h-2.8v1.7h2.3v0v1.2v0h-2.3v2.7v0L945.3,120.1L945.3,120.1z
		 M948.7,127.4c-0.1-0.1-0.1-0.1-0.2-0.2c-0.1,0-0.1-0.1-0.2-0.1c-0.1,0-0.1,0-0.2-0.1c-0.1,0-0.2-0.1-0.4-0.1
		c-0.2-0.1-0.4-0.1-0.7-0.2c-0.2-0.1-0.5-0.2-0.7-0.3c-0.1-0.1-0.2-0.1-0.3-0.2c-0.1-0.1-0.2-0.1-0.3-0.2c-0.1-0.1-0.1-0.2-0.2-0.3
		c0,0,0,0,0-0.1c-0.1-0.1-0.1-0.2-0.2-0.3c0-0.1-0.1-0.2-0.1-0.3c0-0.2-0.1-0.4-0.1-0.7c0-0.3,0.1-0.6,0.2-0.9
		c0.1-0.2,0.2-0.4,0.4-0.6c0.1-0.1,0.1-0.1,0.2-0.2c0,0,0.1-0.1,0.1-0.1c0.2-0.2,0.5-0.3,0.8-0.5c0.4-0.1,0.8-0.2,1.2-0.2
		c0.1,0,0.1,0,0.2,0c0.2,0,0.4,0,0.6,0c0.2,0,0.3,0.1,0.5,0.1c0.1,0,0.2,0,0.2,0.1c0.1,0,0.2,0.1,0.3,0.1c0.1,0.1,0.2,0.1,0.4,0.2
		c0.1,0.1,0.2,0.1,0.3,0.2c0.1,0.1,0.2,0.1,0.3,0.2l-0.5,0.9c0,0,0,0,0,0.1c0,0.1-0.1,0.1-0.1,0.2c-0.1,0-0.1,0.1-0.2,0.1
		c-0.1,0-0.2,0-0.3-0.1l0,0c0,0,0,0,0,0c0,0-0.1,0-0.1,0c-0.1,0-0.2-0.1-0.3-0.1c-0.1-0.1-0.2-0.1-0.4-0.2c0,0,0,0-0.1,0
		c0,0,0,0-0.1,0c-0.2,0-0.3-0.1-0.5-0.1c-0.3,0-0.5,0.1-0.6,0.1c-0.1,0-0.1,0-0.2,0.1c0,0,0,0.1-0.1,0.1c-0.1,0.1-0.2,0.3-0.2,0.5
		c0,0.1,0,0.2,0,0.2c0,0.1,0.1,0.1,0.1,0.2c0.1,0.1,0.2,0.1,0.3,0.2c0,0,0.1,0.1,0.1,0.1c0.1,0,0.2,0.1,0.3,0.1
		c0.1,0,0.2,0.1,0.3,0.1c0.2,0.1,0.5,0.1,0.7,0.2c0.2,0.1,0.4,0.2,0.6,0.2c0,0,0.1,0,0.1,0c0.1,0,0.1,0.1,0.2,0.2
		c0.1,0.1,0.3,0.2,0.4,0.3c0.1,0.1,0.2,0.2,0.2,0.3c0.1,0.1,0.1,0.2,0.2,0.3c0.1,0.2,0.2,0.5,0.2,0.9c0,0.3,0,0.5-0.1,0.8
		c0,0.1-0.1,0.2-0.1,0.3c0,0.1-0.1,0.2-0.2,0.3c-0.1,0.2-0.2,0.3-0.3,0.4c0,0-0.1,0.1-0.1,0.1c-0.3,0.2-0.6,0.4-0.9,0.6c0,0,0,0,0,0
		c-0.1,0-0.1,0-0.2,0c-0.3,0.1-0.7,0.2-1.1,0.2c-0.3,0-0.5,0-0.8-0.1c-0.2,0-0.4-0.1-0.6-0.2c-0.1,0-0.1,0-0.2-0.1
		c-0.2-0.1-0.4-0.2-0.6-0.3c0,0-0.1,0-0.1,0c-0.2-0.1-0.4-0.3-0.6-0.4l0.4-0.6l0.2-0.3c0,0,0,0,0,0c0,0,0.1-0.1,0.1-0.1
		c0.1,0,0.2-0.1,0.2-0.1c0.1,0,0.2,0,0.3,0.1c0.1,0.1,0.2,0.1,0.3,0.2c0,0,0.1,0,0.1,0.1c0,0,0,0,0.1,0c0.1,0.1,0.3,0.1,0.5,0.2
		c0,0,0.1,0,0.2,0c0.2,0,0.3,0.1,0.5,0.1c0.4,0,0.6-0.1,0.8-0.2c0.2-0.2,0.3-0.4,0.3-0.7c0-0.1,0-0.2,0-0.3
		C948.8,127.5,948.8,127.4,948.7,127.4z"/>
	<path class="st3" d="M959.7,114.5v2h0.6c0.2,0,0.4,0,0.6-0.1c0.2-0.1,0.3-0.1,0.4-0.2s0.2-0.2,0.2-0.3c0-0.1,0.1-0.3,0.1-0.4
		c0-0.3-0.1-0.5-0.3-0.7c-0.2-0.2-0.5-0.3-0.9-0.3H959.7z"/>
	<path class="st3" d="M955.7,116.7c0-0.3,0-0.6-0.1-0.9c-0.1-0.3-0.2-0.5-0.4-0.7s-0.4-0.3-0.6-0.4c-0.2-0.1-0.5-0.1-0.8-0.1
		c-0.3,0-0.6,0-0.8,0.1c-0.2,0.1-0.4,0.2-0.6,0.4c-0.1,0.1-0.2,0.3-0.3,0.4c0,0.1-0.1,0.2-0.1,0.3c-0.1,0.3-0.1,0.6-0.1,0.9
		c0,0.2,0,0.3,0,0.5c0,0.2,0.1,0.3,0.1,0.4c0,0.1,0.1,0.2,0.1,0.3c0.1,0.2,0.2,0.3,0.3,0.4c0.1,0.1,0.1,0.1,0.2,0.2
		c0,0,0.1,0.1,0.2,0.1c0.1,0,0.1,0.1,0.2,0.1c0.2,0.1,0.5,0.1,0.8,0.1c0.3,0,0.6,0,0.8-0.1c0,0,0.1,0,0.1-0.1
		c0.1-0.1,0.3-0.2,0.4-0.3c0,0,0.1,0,0.1-0.1c0.1-0.1,0.2-0.2,0.2-0.3c0.1-0.1,0.1-0.2,0.2-0.4C955.6,117.4,955.7,117,955.7,116.7z"
		/>
	<polygon class="st2" points="946.9,120.1 946.9,117.5 949.3,117.5 949.3,117.5 949.3,116.2 949.3,116.2 946.9,116.2 946.9,114.5 
		946.9,114.5 949.7,114.5 949.7,113.3 945.3,113.3 945.3,120.1 945.3,120.1 946.9,120.1 	"/>
	<path class="st2" d="M950.7,118.6C950.8,118.7,950.8,118.7,950.7,118.6c0.2,0.3,0.3,0.4,0.4,0.6c0.1,0.1,0.3,0.3,0.5,0.4
		c0,0,0.1,0,0.1,0.1c0.2,0.1,0.4,0.2,0.6,0.3c0.2,0.1,0.4,0.1,0.6,0.2c0.3,0.1,0.6,0.1,0.9,0.1c0,0,0,0,0,0c0.5,0,1-0.1,1.5-0.3
		c0.4-0.2,0.8-0.4,1.1-0.7c0.1-0.1,0.2-0.2,0.3-0.3c0.2-0.2,0.3-0.5,0.5-0.8c0.2-0.4,0.3-0.9,0.3-1.4c0-0.5-0.1-1-0.3-1.4
		c-0.1-0.2-0.1-0.3-0.2-0.4c-0.1-0.2-0.3-0.5-0.5-0.7c-0.3-0.3-0.7-0.6-1.1-0.7c-0.4-0.2-0.9-0.3-1.5-0.3c0,0,0,0,0,0
		c-0.3,0-0.6,0-0.9,0.1c-0.2,0-0.4,0.1-0.6,0.2c-0.2,0.1-0.4,0.2-0.6,0.3c0,0-0.1,0-0.1,0.1c-0.2,0.1-0.3,0.2-0.5,0.4
		c-0.3,0.3-0.6,0.7-0.7,1.1c-0.2,0.4-0.3,0.9-0.3,1.4c0,0.5,0.1,1,0.3,1.4C950.5,118.3,950.6,118.5,950.7,118.6z M953.8,114.5
		c0.3,0,0.6,0.1,0.8,0.2c0.2,0.1,0.4,0.2,0.6,0.4s0.3,0.4,0.4,0.7s0.1,0.6,0.1,0.9c0,0.3,0,0.6-0.1,0.9c0,0.1-0.1,0.3-0.2,0.4
		s-0.1,0.2-0.2,0.3c0,0-0.1,0.1-0.1,0.1c-0.1,0.1-0.2,0.2-0.4,0.3c0,0-0.1,0-0.1,0.1c-0.2,0.1-0.5,0.1-0.8,0.1c-0.3,0-0.6,0-0.8-0.1
		c-0.1,0-0.2-0.1-0.2-0.1c-0.1,0-0.1-0.1-0.2-0.1c-0.1-0.1-0.2-0.1-0.2-0.2c-0.1-0.1-0.2-0.3-0.3-0.4c0-0.1-0.1-0.2-0.1-0.3
		c0-0.1-0.1-0.3-0.1-0.4c0-0.2,0-0.3,0-0.5c0-0.3,0-0.6,0.1-0.9c0-0.1,0.1-0.2,0.1-0.3c0.1-0.2,0.2-0.3,0.3-0.4
		c0.2-0.2,0.4-0.3,0.6-0.4C953.2,114.6,953.5,114.5,953.8,114.5z"/>
	<path class="st2" d="M959.7,120.1L959.7,120.1l0-2.5v0h0.4c0.1,0,0.1,0,0.1,0c0.1,0,0.1,0,0.2,0c0,0,0,0,0.1,0.1
		c0,0,0.1,0.1,0.1,0.1l0.3,0.5l0.8,1.5c0,0.1,0.1,0.1,0.2,0.2c0.1,0.1,0.2,0.1,0.4,0.1h1.4h0l-1.5-2.4c-0.1-0.1-0.2-0.2-0.2-0.3
		c0,0-0.1-0.1-0.2-0.1c0,0-0.1-0.1-0.1-0.1c0,0,0,0,0,0c0.2-0.1,0.4-0.2,0.6-0.3c0.1-0.1,0.2-0.2,0.3-0.3c0,0,0.1-0.1,0.1-0.1
		c0.1-0.2,0.2-0.3,0.3-0.5c0,0,0,0,0,0c0.1-0.2,0.1-0.4,0.1-0.6c0-0.3-0.1-0.6-0.2-0.8c-0.1-0.2-0.2-0.4-0.4-0.5
		c0,0-0.1-0.1-0.1-0.1c-0.1-0.1-0.2-0.1-0.2-0.2c-0.1-0.1-0.2-0.1-0.3-0.2c-0.1,0-0.2-0.1-0.3-0.1c-0.2-0.1-0.5-0.1-0.7-0.1
		c-0.2,0-0.3,0-0.5,0h-2.2v0v6.8H959.7z M961.5,115.4c0,0.1,0,0.3-0.1,0.4c0,0.1-0.1,0.2-0.2,0.3s-0.2,0.2-0.4,0.2
		c-0.2,0.1-0.3,0.1-0.6,0.1h-0.6v-2h0.6c0.4,0,0.7,0.1,0.9,0.3C961.4,114.9,961.5,115.1,961.5,115.4z"/>
	<path class="st2" d="M948.6,128.6c-0.2,0.2-0.5,0.2-0.8,0.2c-0.2,0-0.3,0-0.5-0.1c-0.1,0-0.1,0-0.2,0c-0.2-0.1-0.3-0.1-0.5-0.2
		c0,0,0,0-0.1,0c0,0-0.1,0-0.1-0.1c-0.1-0.1-0.2-0.1-0.3-0.2c-0.1-0.1-0.2-0.1-0.3-0.1c-0.1,0-0.2,0-0.2,0.1c-0.1,0-0.1,0.1-0.1,0.1
		c0,0,0,0,0,0l-0.2,0.3l-0.4,0.6c0.2,0.2,0.4,0.3,0.6,0.4c0,0,0.1,0,0.1,0c0.2,0.1,0.4,0.2,0.6,0.3c0.1,0,0.1,0,0.2,0.1
		c0.2,0.1,0.4,0.1,0.6,0.2c0.3,0.1,0.5,0.1,0.8,0.1c0.4,0,0.8-0.1,1.1-0.2c0.1,0,0.1,0,0.2,0c0,0,0,0,0,0c0.4-0.1,0.7-0.3,0.9-0.6
		c0,0,0.1-0.1,0.1-0.1c0.1-0.1,0.2-0.3,0.3-0.4c0.1-0.1,0.1-0.2,0.2-0.3c0-0.1,0.1-0.2,0.1-0.3c0.1-0.2,0.1-0.5,0.1-0.8
		c0-0.3-0.1-0.6-0.2-0.9c-0.1-0.1-0.1-0.2-0.2-0.3c-0.1-0.1-0.2-0.2-0.2-0.3c-0.1-0.1-0.2-0.2-0.4-0.3c-0.1,0-0.1-0.1-0.2-0.2
		c0,0-0.1,0-0.1,0c-0.2-0.1-0.4-0.2-0.6-0.2c-0.2-0.1-0.5-0.2-0.7-0.2c0,0,0,0,0,0c-0.1,0-0.2-0.1-0.3-0.1c-0.1,0-0.2-0.1-0.3-0.1
		l0,0c0,0-0.1-0.1-0.1-0.1c-0.1-0.1-0.2-0.1-0.3-0.2c-0.1-0.1-0.1-0.1-0.1-0.2c0-0.1,0-0.1,0-0.2c0-0.2,0.1-0.4,0.2-0.5
		c0,0,0-0.1,0.1-0.1c0,0,0,0,0,0c0,0,0.1-0.1,0.2-0.1c0.2-0.1,0.4-0.1,0.6-0.1c0.2,0,0.4,0,0.5,0.1c0,0,0,0,0.1,0c0,0,0,0,0,0
		c0,0,0,0,0.1,0c0.1,0,0.3,0.1,0.4,0.2c0.1,0.1,0.2,0.1,0.3,0.1c0,0,0.1,0,0.1,0l0,0c0.1,0.1,0.2,0.1,0.3,0.1c0.1,0,0.2,0,0.2-0.1
		c0,0,0.1-0.1,0.1-0.2c0,0,0,0,0-0.1l0.5-0.9c-0.1-0.1-0.2-0.1-0.3-0.2c-0.1-0.1-0.2-0.1-0.3-0.2c-0.1-0.1-0.2-0.1-0.4-0.2
		c-0.1,0-0.2-0.1-0.3-0.1c-0.1,0-0.2,0-0.2-0.1c-0.1,0-0.3-0.1-0.5-0.1c-0.2,0-0.4,0-0.6,0c-0.1,0-0.1,0-0.2,0
		c-0.5,0-0.9,0.1-1.2,0.2c-0.3,0.1-0.5,0.3-0.8,0.5c0,0-0.1,0.1-0.1,0.1c-0.1,0.1-0.1,0.1-0.2,0.2c-0.2,0.2-0.3,0.4-0.4,0.6
		c-0.1,0.3-0.2,0.6-0.2,0.9c0,0.3,0,0.5,0.1,0.7c0,0.1,0,0.2,0.1,0.3c0.1,0.1,0.1,0.2,0.2,0.3c0,0,0,0,0,0.1
		c0.1,0.1,0.1,0.2,0.2,0.3c0.1,0.1,0.2,0.1,0.3,0.2c0.1,0.1,0.2,0.2,0.3,0.2c0.2,0.1,0.4,0.2,0.7,0.3c0.2,0.1,0.5,0.1,0.7,0.2
		c0.1,0,0.3,0.1,0.4,0.1c0.1,0,0.1,0,0.2,0.1c0.1,0,0.1,0.1,0.2,0.1c0.1,0.1,0.2,0.1,0.2,0.2c0.1,0.1,0.1,0.1,0.1,0.2
		c0,0.1,0,0.2,0,0.3C948.9,128.2,948.8,128.4,948.6,128.6z"/>
	<path class="st2" d="M952.6,130.2c0.1,0,0.2,0,0.3-0.1c0,0,0,0,0,0c0.1-0.1,0.2-0.2,0.2-0.3c0,0,0,0,0,0l0.3-0.8l0.2-0.7h3.2l0.3,1
		l0.2,0.5c0,0.1,0.1,0.2,0.2,0.3c0.1,0,0.1,0.1,0.2,0.1c0.1,0,0.2,0,0.2,0h1.5l-1-2.5l-2.2-5.8h-2l-3.2,8.3h0L952.6,130.2
		C952.5,130.3,952.5,130.2,952.6,130.2z M954.1,127.1l0.3-0.9l0.5-1.4c0.1-0.1,0.1-0.3,0.2-0.5c0.1-0.2,0.1-0.4,0.2-0.6c0,0,0,0,0,0
		c0,0.2,0.1,0.3,0.1,0.4c0,0.1,0,0.2,0.1,0.2c0.1,0.2,0.1,0.4,0.2,0.5l0.3,1l0.4,1.3H954.1z"/>
	<polygon class="st2" points="962,128.7 962,121.9 962,121.9 960.1,121.9 960.1,121.9 960.1,130.3 965.1,130.3 965.1,130.3 
		965.1,128.7 965.1,128.7 	"/>
	<polygon class="st2" points="971.4,130.3 971.4,128.8 968,128.8 968,126.8 968,126.8 970.6,126.8 970.6,126.8 970.6,125.3 
		968,125.3 968,123.4 968,123.4 971.4,123.4 971.4,123.4 971.4,121.9 966,121.9 966,121.9 966,130.3 971.4,130.3 	"/>
	<path class="st1" d="M379.8,136.5c0.3,0,0.7,0.1,1,0.1V134c-1.4,0.8-3,1.2-4.6,1.2C377.3,135.9,378.5,136.3,379.8,136.5z"/>
	<path class="st1" d="M381.1,103.7c-0.3,1.4-0.1,2.9,0.8,4.1c0.9,1.2,1.4,2.6,1.4,4.2c0,0.9-0.2,1.8-0.5,2.6
		c-0.7,1.7-0.3,3.7,0.9,5.1c1.3,1.6,2.1,3.7,2.1,6c0,3-1.4,5.7-3.6,7.4v3.3c1.7-0.3,3.3-1,4.6-2.1c1.9-1.7,3-4.1,3-6.6
		c0-2-0.7-4-1.9-5.5c-1.4-1.7-1.7-3.9-1-5.8c0.3-0.7,0.4-1.5,0.4-2.3c0-1.4-0.4-2.7-1.2-3.8c-0.9-1.2-1.2-2.9-0.9-4.6
		c0.1-0.4,0.1-0.9,0-1.3c-0.2-1.9-1.8-3.5-3.7-3.7c-0.2,0-0.3,0-0.5,0c-0.1,0-0.2,0-0.2,0c0.3,0.5,0.4,1.1,0.5,1.6
		C381.2,102.8,381.1,103.3,381.1,103.7z"/>
	<path class="st3" d="M385.7,125.7c0-2.3-0.8-4.3-2.1-6c-1.2-1.4-1.6-3.4-0.9-5.1c0.3-0.8,0.5-1.7,0.5-2.6c0-1.6-0.5-3-1.4-4.2
		c-0.9-1.2-1.1-2.7-0.8-4.1c0.1-0.5,0.1-1,0-1.5c-0.1-0.6-0.3-1.1-0.5-1.6c-1,0.1-1.9,0.4-2.6,1.1c-0.9,0.8-1.4,2-1.4,3.2
		c0,0.3,0,0.5,0.1,0.8c0.3,1.6,0,3.3-0.9,4.5c-0.8,1.1-1.2,2.4-1.2,3.8c0,0.8,0.1,1.6,0.4,2.3c0.8,1.9,0.4,4.1-0.9,5.7
		c-1.6,1.9-2.2,4.3-1.9,6.8c0.3,2.7,1.9,5,4.2,6.4c1.7,0,3.3-0.4,4.6-1.2v-3.6c0,0,0,0-0.1,0l-3.5-3.5c-0.3-0.3-0.3-0.7,0-0.9
		c0.3-0.3,0.7-0.3,0.9,0l2.6,2.6v-8.2c0-0.4,0.3-0.7,0.7-0.7s0.7,0.3,0.7,0.7v12.8C384.3,131.4,385.7,128.7,385.7,125.7z"/>
	<path class="st2" d="M124.6,123.8l3.6-3.6v-5.1l-3.6-3.6h-5.1l-3.6,3.6v5.1l3.6,3.6h2.2v-2.5c0-0.4,0.3-0.7,0.7-0.7
		s0.7,0.3,0.7,0.7v2.5H124.6z"/>
	<rect x="138.5" y="121.7" class="st1" width="45" height="8"/>
	<path class="st5" d="M137.8,131h46.4c0.4,0,0.7-0.3,0.7-0.7v-9.3c0-0.4-0.3-0.7-0.7-0.7h-46.4c-0.4,0-0.7,0.3-0.7,0.7v9.3
		C137.1,130.7,137.4,131,137.8,131z M138.5,121.7h45v8h-45V121.7z"/>
	<polygon class="st1" points="150.2,138.2 171.8,138.2 179,138.2 185,138.2 185,134.9 136.9,134.9 136.9,138.2 143,138.2 	"/>
	<rect x="172.5" y="139.5" class="st1" width="5.9" height="6.4"/>
	<path class="st3" d="M71.7,133.6c0.1,0.2,0,0.4-0.1,0.6c-0.1,0.2-0.3,0.3-0.5,0.3h-1.6V146h8.7h5.2v-12.3c0-0.4,0.3-0.7,0.7-0.7
		h8.6c0.4,0,0.7,0.3,0.7,0.7V146h13.9V92.3H69.4v33.6L71.7,133.6z M84.9,109.5c0,0.4-0.3,0.7-0.7,0.7h-5.8c-0.4,0-0.7-0.3-0.7-0.7
		v-9.3c0-0.4,0.3-0.7,0.7-0.7h5.8c0.4,0,0.7,0.3,0.7,0.7V109.5z M78.5,113.7h5.8c0.4,0,0.7,0.3,0.7,0.7v9.3c0,0.4-0.3,0.7-0.7,0.7
		h-5.8c-0.4,0-0.7-0.3-0.7-0.7v-9.3C77.8,114,78.1,113.7,78.5,113.7z M98.7,124.3h-5.8c-0.4,0-0.7-0.3-0.7-0.7v-9.3
		c0-0.4,0.3-0.7,0.7-0.7h5.8c0.4,0,0.7,0.3,0.7,0.7v9.3C99.3,124,99,124.3,98.7,124.3z M99.3,109.5c0,0.4-0.3,0.7-0.7,0.7h-5.8
		c-0.4,0-0.7-0.3-0.7-0.7v-9.3c0-0.4,0.3-0.7,0.7-0.7h5.8c0.4,0,0.7,0.3,0.7,0.7V109.5z M69.5,92.4h37.6v2.9H69.5V92.4z"/>
	<polygon class="st1" points="110,91 106.7,85 69.5,85 66.6,91 	"/>
	<polygon class="st6" points="79.1,108.9 79.2,108.9 79.2,104.9 83.6,104.9 83.6,108.9 83.6,108.9 83.6,100.9 79.1,100.9 	"/>
	<path class="st5" d="M84.3,99.6h-5.8c-0.4,0-0.7,0.3-0.7,0.7v9.3c0,0.4,0.3,0.7,0.7,0.7h5.8c0.4,0,0.7-0.3,0.7-0.7v-9.3
		C84.9,99.9,84.6,99.6,84.3,99.6z M83.6,108.9L83.6,108.9l-0.1,0.2h-4.4v-0.2h0v-8h4.5V108.9z"/>
	<polygon class="st3" points="93.5,108.9 93.6,108.9 93.6,104.9 98,104.9 98,108.9 98,108.9 98,100.9 93.5,100.9 	"/>
	<path class="st5" d="M98.7,99.6h-5.8c-0.4,0-0.7,0.3-0.7,0.7v9.3c0,0.4,0.3,0.7,0.7,0.7h5.8c0.4,0,0.7-0.3,0.7-0.7v-9.3
		C99.3,99.9,99,99.6,98.7,99.6z M98,108.9L98,108.9l0,0.2h-4.4v-0.2h0v-8H98V108.9z"/>
	<rect x="69.5" y="92.4" class="st1" width="37.6" height="2.9"/>
	<polygon class="st3" points="79.2,104.9 79.2,108.9 79.2,109.1 83.6,109.1 83.6,108.9 83.6,104.9 	"/>
	<polygon class="st1" points="93.6,104.9 93.6,108.9 93.6,109.1 98,109.1 98,108.9 98,104.9 	"/>
	<polygon class="st3" points="79.2,119 83.6,119 83.6,123 83.6,123 83.6,115 79.1,115 79.1,123 79.2,123 	"/>
	<path class="st5" d="M77.8,123.6c0,0.4,0.3,0.7,0.7,0.7h5.8c0.4,0,0.7-0.3,0.7-0.7v-9.3c0-0.4-0.3-0.7-0.7-0.7h-5.8
		c-0.4,0-0.7,0.3-0.7,0.7V123.6z M79.1,115h4.5v8h-0.1v0.2h-4.4V123h0V115z"/>
	<polygon class="st6" points="98,115 93.5,115 93.5,123 93.6,123 93.6,119 98,119 98,123 98,123 	"/>
	<path class="st5" d="M99.3,114.3c0-0.4-0.3-0.7-0.7-0.7h-5.8c-0.4,0-0.7,0.3-0.7,0.7v9.3c0,0.4,0.3,0.7,0.7,0.7h5.8
		c0.4,0,0.7-0.3,0.7-0.7V114.3z M98,123.2h-4.4V123h0v-8H98v8h0V123.2z"/>
	<polygon class="st1" points="79.2,119 79.2,123 79.2,123.2 83.6,123.2 83.6,123 83.6,119 	"/>
	<polygon class="st3" points="98,119 93.6,119 93.6,123 93.6,123.2 98,123.2 98,123 	"/>
	<rect x="84.7" y="134.4" class="st1" width="7.3" height="11.7"/>
	<rect x="408.4" y="141.5" class="st1" width="5.4" height="4.5"/>
	<polygon class="st1" points="413.9,135.3 413.9,130.4 411.2,128.3 408.4,130.4 408.4,135.3 	"/>
	<rect x="430" y="141.5" class="st1" width="5.4" height="4.5"/>
	<polygon class="st1" points="435.4,135.3 435.4,130.4 432.7,128.3 430,130.4 430,135.3 	"/>
	<rect x="400.7" y="136.6" class="st3" width="40.3" height="3.6"/>
	<polygon class="st1" points="702.9,135.3 702.9,130.4 700.1,128.3 697.4,130.4 697.4,135.3 	"/>
	<rect x="697.4" y="141.5" class="st1" width="5.4" height="4.5"/>
	<polygon class="st1" points="718.9,134.2 724.4,134.2 724.4,130.4 721.7,128.3 718.9,130.4 	"/>
	<path class="st3" d="M710,140.2c0.3-1.4,0.9-2.6,1.8-3.6h-22.2v3.6H710z"/>
	<path class="st1" d="M869.9,123.8c0-5.2-4-9.4-9.1-9.8c2.6,1.9,4.2,4.9,4.2,8.4c0,3.1-1.4,5.9-3.5,7.8v3.2
		C866.3,132.8,869.9,128.8,869.9,123.8z"/>
	<path class="st1" d="M860.1,133.6c0,0,0.1,0,0.1,0v-2.3c-1.2,0.8-2.6,1.3-4.1,1.5C857.4,133.3,858.7,133.6,860.1,133.6z"/>
	<path class="st3" d="M865.1,122.5c0-3.4-1.7-6.5-4.2-8.4c-0.2,0-0.5,0-0.7,0c-5.4,0-9.8,4.4-9.8,9.8c0,4,2.4,7.4,5.8,8.9
		c1.5-0.2,2.9-0.7,4.1-1.5v-1.9c0,0-0.1,0-0.1-0.1l-3.8-4.6c-0.2-0.3-0.2-0.7,0.1-0.9c0.3-0.2,0.7-0.2,0.9,0.1l2.9,3.5v-6.2
		c0-0.4,0.3-0.7,0.7-0.7s0.7,0.3,0.7,0.7v9.1C863.7,128.4,865.1,125.6,865.1,122.5z"/>
	<path class="st3" d="M442.3,146h26.4v-13.6c0-0.4,0.3-0.7,0.7-0.7h9.4c0.4,0,0.7,0.3,0.7,0.7V146h5.7v-25.6h-42.9V146z
		 M460.2,137.4c0,0.4-0.3,0.7-0.7,0.7h-11.9c-0.4,0-0.7-0.3-0.7-0.7v-11.9c0-0.4,0.3-0.7,0.7-0.7h11.9c0.4,0,0.7,0.3,0.7,0.7V137.4z
		 M442.5,120.5H485v3.2h-42.5V120.5z"/>
	<rect x="442.5" y="120.5" class="st7" width="42.5" height="3.2"/>
	<polygon class="st1" points="489.9,119.1 483.7,100.9 444.1,100.9 437.6,119.1 	"/>
	<path class="st4" d="M486.5,120.5h4.3c0.2,0,0.4-0.1,0.5-0.3c0.1-0.2,0.2-0.4,0.1-0.6l-6.6-19.6c-0.1-0.3-0.3-0.4-0.6-0.4h-28.7
		v-6.5c0-0.4-0.3-0.7-0.7-0.7h-7.1c-0.4,0-0.7,0.3-0.7,0.7v6.5h-3.4c-0.3,0-0.5,0.2-0.6,0.4l-7,19.6c-0.1,0.2,0,0.4,0.1,0.6
		c0.1,0.2,0.3,0.3,0.5,0.3h4.3H486.5z M448.3,93.7h5.8v5.8h-5.8V93.7z M483.7,100.9l6.2,18.2h-52.3l6.5-18.2H483.7z"/>
	<rect x="448.3" y="93.7" class="st3" width="5.8" height="5.8"/>
	<rect x="470" y="133.1" class="st1" width="8.1" height="12.9"/>
	<path class="st6" d="M448.3,136.7h10.6v-10.6h-10.6V136.7z M448.5,132.4h10.3v4.3h-10.3V132.4z"/>
	<path class="st5" d="M459.6,124.8h-11.9c-0.4,0-0.7,0.3-0.7,0.7v11.9c0,0.4,0.3,0.7,0.7,0.7h11.9c0.4,0,0.7-0.3,0.7-0.7v-11.9
		C460.2,125.1,459.9,124.8,459.6,124.8z M458.9,136.7h-10.6v-10.6h10.6V136.7z"/>
	<rect x="448.5" y="132.4" class="st3" width="10.3" height="4.3"/>
	<path class="st1" d="M843.2,145.8l2-4.1c0.4-0.8,0.3-1.6-0.1-2.4s-1.2-1.1-2.1-1.1h-4.2c-0.1,0-0.1,0-0.2,0h-26.9
		c-0.3,2.2-2.2,3.9-4.5,3.9h-30.4c-2.3,0-4.2-1.7-4.5-3.9h-14.6l8,7.5H843.2z"/>
	<path class="st1" d="M746,134.2h4.3c1.8,0,3.6,0.7,5,1.9l0.9,0.8h16.6h38.3h26.8V93.2c-1.5,0.8-3.2,1.3-5,1.4v31.5
		c0,3.3-2.7,5.9-5.9,5.9h-70.1c-3.3,0-5.9-2.7-5.9-5.9V90.3c0-3.3,2.7-5.9,5.9-5.9H787l4.5-3.3c0.1-0.1,0.3-0.1,0.4-0.1
		c0.1,0,0.3,0,0.4,0.1l1.9,1.4l2.6,1.9h23.5c-0.1-0.6-0.2-1.2-0.2-1.9c0-1,0.1-2,0.4-3h-70c-2.5,0-4.6,2.1-4.6,4.6V134.2z"/>
	<path class="st3" d="M752.3,90.3v34h17.8V98.3l-2.8,2c-0.3,0.2-0.7,0.1-0.9-0.1c-0.2-0.3-0.1-0.7,0.1-0.9l18.7-13.5h-28.3
		C754.4,85.7,752.3,87.8,752.3,90.3z"/>
	<path class="st3" d="M756.9,130.7H827c2.5,0,4.6-2.1,4.6-4.6v-0.4h-18.5c0,0,0,0,0,0h-42.4c0,0,0,0,0,0h-18.5v0.4
		C752.3,128.6,754.4,130.7,756.9,130.7z"/>
	<path class="st3" d="M831.6,94.5c-5.2-0.3-9.6-3.9-11-8.8h-22l18.7,13.5c0.3,0.2,0.4,0.6,0.1,0.9c-0.1,0.2-0.3,0.3-0.5,0.3
		c-0.1,0-0.3,0-0.4-0.1l-2.8-2v26.1h17.8V94.5z"/>
	<path class="st3" d="M773.5,138.2c0.3,1.5,1.6,2.6,3.2,2.6h30.4c1.6,0,2.9-1.1,3.2-2.6H773.5z"/>
	<path class="st3" d="M771.4,97.4v27h22.5v-15.6c0-0.4,0.3-0.7,0.7-0.7h11.3c0.4,0,0.7,0.3,0.7,0.7v15.6h5.9v-23l-23.6-16.6l3-2.2
		l8.9,6.4l-7.4-5.4l-1.5-1.1L771.4,97.4z M789,115.6c0,0.4-0.3,0.7-0.7,0.7H777c-0.4,0-0.7-0.3-0.7-0.7v-7.9c0-0.4,0.3-0.7,0.7-0.7
		h11.3c0.4,0,0.7,0.3,0.7,0.7V115.6z M796.2,97.4c0,2.4-1.9,4.3-4.3,4.3s-4.3-1.9-4.3-4.3s1.9-4.3,4.3-4.3S796.2,95,796.2,97.4z"/>
	<rect x="795.2" y="109.4" class="st2" width="10" height="14.5"/>
	<path class="st6" d="M777.7,115h10v-6.6h-10V115z M777.7,111.7h9.9v3.2h-9.9V111.7z"/>
	<path class="st5" d="M788.3,107.1H777c-0.4,0-0.7,0.3-0.7,0.7v7.9c0,0.4,0.3,0.7,0.7,0.7h11.3c0.4,0,0.7-0.3,0.7-0.7v-7.9
		C789,107.3,788.7,107.1,788.3,107.1z M787.7,115h-10v-6.6h10V115z"/>
	<path class="st2" d="M792,100.3c1.6,0,3-1.3,3-3s-1.3-3-3-3s-3,1.3-3,3S790.3,100.3,792,100.3z"/>
	<path class="st5" d="M787.7,97.4c0,2.4,1.9,4.3,4.3,4.3s4.3-1.9,4.3-4.3s-1.9-4.3-4.3-4.3S787.7,95,787.7,97.4z M792,94.4
		c1.6,0,3,1.3,3,3s-1.3,3-3,3s-3-1.3-3-3S790.3,94.4,792,94.4z"/>
	<polygon class="st8" points="792,82.5 788.9,84.8 812.5,101.3 812.5,101.4 812.5,97.4 800.8,88.9 	"/>
	<rect x="777.7" y="111.7" class="st3" width="9.9" height="3.2"/>
	<path class="st2" d="M821.5,82.5c0,5.9,4.8,10.7,10.7,10.7c5.9,0,10.7-4.8,10.7-10.7c0-5.9-4.8-10.7-10.7-10.7
		C826.4,71.8,821.5,76.6,821.5,82.5z M838.8,78.6c0.4,0.4,0.4,1,0,1.3l-7.6,7.6c-0.2,0.2-0.4,0.3-0.7,0.3c-0.3,0-0.5-0.1-0.7-0.3
		l-4.1-4.1c-0.4-0.4-0.4-1,0-1.3c0.4-0.4,1-0.4,1.3,0l3.4,3.4l6.9-6.9C837.8,78.3,838.4,78.3,838.8,78.6z"/>
	<path class="st3" d="M830.5,85.6l-3.4-3.4c-0.4-0.4-1-0.4-1.3,0c-0.4,0.4-0.4,1,0,1.3l4.1,4.1c0.2,0.2,0.4,0.3,0.7,0.3
		c0.3,0,0.5-0.1,0.7-0.3l7.6-7.6c0.4-0.4,0.4-1,0-1.3c-0.4-0.4-1-0.4-1.3,0L830.5,85.6z"/>
	<path class="st3" d="M67.3,131.3l-8.4-29l-9.4,29h10.3V128c0,0,0,0-0.1,0l-4-4c-0.3-0.3-0.3-0.7,0-0.9s0.7-0.3,0.9,0l3.2,3.2v-7.2
		c0-0.4,0.3-0.7,0.7-0.7s0.7,0.3,0.7,0.7v12.3H67.3z"/>
	<polygon class="st8" points="48.9,133.2 59.7,133.2 59.7,131.3 49.5,131.3 	"/>
	<polygon class="st8" points="61.1,131.3 61.1,133.2 70.2,133.2 60.1,98.5 58.9,102.3 67.3,131.3 	"/>
	<path class="st3" d="M1022.3,131.3l-8.4-29l-9.4,29h10.3V128c0,0-0.1,0-0.1,0l-4-4c-0.3-0.3-0.3-0.7,0-0.9s0.7-0.3,0.9,0l3.2,3.2
		v-7.2c0-0.4,0.3-0.7,0.7-0.7s0.7,0.3,0.7,0.7v12.3H1022.3z"/>
	<polygon class="st8" points="1016.1,131.3 1016.1,133.2 1025.2,133.2 1015.1,98.5 1013.9,102.3 1022.3,131.3 	"/>
	<polygon class="st8" points="1003.9,133.2 1014.7,133.2 1014.7,131.3 1004.5,131.3 	"/>
	<path class="st2" d="M53,146c0-2.5-2.1-4.5-4.6-4.5c-1,0-2,0.3-2.8,1c-0.2,0.1-0.4,0.2-0.6,0.1c-0.2-0.1-0.4-0.2-0.4-0.4
		c-0.6-2-2.4-3.3-4.4-3.3c-2.3,0-4.3,1.8-4.5,4.1c0,0.3-0.2,0.5-0.4,0.6c-0.2,0.1-0.5,0-0.7-0.2c-0.9-1-2.1-1.5-3.4-1.5
		c-2.4,0-4.4,1.9-4.6,4.2H53z"/>
	<path class="st2" d="M365.2,143.1c-0.7,0-1.4,0.2-2,0.7c-0.2,0.1-0.4,0.2-0.6,0.1c-0.2-0.1-0.4-0.2-0.4-0.4c-0.4-1.4-1.6-2.3-3-2.3
		c-1.6,0-3,1.2-3.1,2.8c0,0.3-0.2,0.5-0.4,0.6c-0.2,0.1-0.5,0-0.7-0.2c-0.6-0.7-1.4-1-2.3-1c-1.6,0-2.9,1.2-3.1,2.7h3.6h15.3
		C368.2,144.4,366.9,143.1,365.2,143.1z"/>
	<path class="st3" d="M250.8,134.5v3.7h7.9c0.2,0,0.4,0.1,0.5,0.3l4.7,6.7c0.1,0.1,0.1,0.2,0.1,0.4v3.8c0,0.4-0.3,0.7-0.7,0.7h-12.6
		v3.8h16.3v-9.3c0-0.2-0.1-0.5-0.2-0.7l-5-7.3c-1.6-2.4-3.9-2.1-4-2.1c0,0-0.1,0-0.1,0H250.8z"/>
	<path class="st2" d="M193,153.8h9.2c1.5-0.9,3.3-1.4,5.1-1.4s3.6,0.5,5.1,1.4h27c0.3,0,0.5-0.2,0.5-0.5v-31.5H196c-1.7,0-3,1.4-3,3
		V153.8z M214.6,150h-12.5c-0.4,0-0.7-0.3-0.7-0.7v-8.7c0-0.2,0.1-0.4,0.2-0.5l6.2-5.8c0.3-0.2,0.6-0.2,0.9,0l6.2,5.8
		c0.1,0.1,0.2,0.3,0.2,0.5v8.7C215.3,149.7,215,150,214.6,150z M223.6,138c0-0.9,0.7-1.5,1.5-1.5h4.4v-3c0-0.3,0.1-0.5,0.4-0.6
		c0.2-0.1,0.5-0.1,0.7,0.1l8.4,6.6c0.2,0.1,0.3,0.3,0.3,0.5s-0.1,0.4-0.3,0.5l-8.4,6.6c-0.1,0.1-0.3,0.1-0.4,0.1
		c-0.1,0-0.2,0-0.3-0.1c-0.2-0.1-0.4-0.3-0.4-0.6v-3.4h-4.4c-0.9,0-1.5-0.7-1.5-1.5V138z M198.6,138.6l9.3-8.6
		c0.3-0.2,0.6-0.2,0.9,0l9.3,8.6c0.3,0.2,0.3,0.7,0,0.9c-0.1,0.1-0.3,0.2-0.5,0.2c-0.2,0-0.3-0.1-0.4-0.2l-8.9-8.2l-8.9,8.2
		c-0.3,0.2-0.7,0.2-0.9,0C198.3,139.3,198.3,138.9,198.6,138.6z"/>
	<path class="st9" d="M240.1,153.3c0,0.3-0.2,0.5-0.5,0.5h-27c-1.5-0.9-3.3-1.4-5.1-1.4s-3.6,0.5-5.1,1.4H193v2.5c0,1.7,1.4,3,3,3
		h4.8c1.2-2.4,3.6-4.1,6.5-4.1s5.3,1.7,6.5,4.1h26.7c1.7,0,3-1.4,3-3v-20.7v-10.9c0-1.7-1.4-3-3-3h-0.5V153.3z"/>
	<path class="st1" d="M250.8,150h-2.2c-0.4,0-0.7-0.3-0.7-0.7v-10.5c0-0.4,0.3-0.7,0.7-0.7h2.2v-3.7h-4.6c-0.7,0-1.2,0.5-1.2,1.2
		v20.7v1.8c0,0.7,0.5,1.2,1.2,1.2h3.5c1.2-2.4,3.6-4.1,6.5-4.1s5.3,1.7,6.5,4.1h4.5v-5.6h-16.3V150z"/>
	<path class="st5" d="M199.5,139.6l8.9-8.2l8.9,8.2c0.1,0.1,0.3,0.2,0.4,0.2c0.2,0,0.4-0.1,0.5-0.2c0.2-0.3,0.2-0.7,0-0.9l-9.3-8.6
		c-0.3-0.2-0.6-0.2-0.9,0l-9.3,8.6c-0.3,0.2-0.3,0.7,0,0.9C198.8,139.8,199.2,139.8,199.5,139.6z"/>
	<path class="st3" d="M213.9,140.9l-5.6-5.2l-5.6,5.2v7.8h3v-3.7c0-0.9,0.7-1.5,1.5-1.5h2.1c0.9,0,1.5,0.7,1.5,1.5v3.7h3V140.9z"/>
	<path class="st2" d="M209.4,144.7h-2.1c-0.1,0-0.2,0.1-0.2,0.2v3.7h2.5v-3.7C209.6,144.8,209.5,144.7,209.4,144.7z"/>
	<path class="st3" d="M225.1,142h5.1c0.4,0,0.7,0.3,0.7,0.7v2.7l6.6-5.2l-6.6-5.2v2.3c0,0.4-0.3,0.7-0.7,0.7h-5.1
		c-0.1,0-0.2,0.1-0.2,0.2v3.8C224.9,141.9,225,142,225.1,142z"/>
	<path class="st5" d="M225.1,143.3h4.4v3.4c0,0.3,0.1,0.5,0.4,0.6c0.1,0,0.2,0.1,0.3,0.1c0.1,0,0.3,0,0.4-0.1l8.4-6.6
		c0.2-0.1,0.3-0.3,0.3-0.5s-0.1-0.4-0.3-0.5l-8.4-6.6c-0.2-0.2-0.5-0.2-0.7-0.1c-0.2,0.1-0.4,0.3-0.4,0.6v3h-4.4
		c-0.9,0-1.5,0.7-1.5,1.5v3.8C223.6,142.6,224.3,143.3,225.1,143.3z M224.9,138c0-0.1,0.1-0.2,0.2-0.2h5.1c0.4,0,0.7-0.3,0.7-0.7
		v-2.3l6.6,5.2l-6.6,5.2v-2.7c0-0.4-0.3-0.7-0.7-0.7h-5.1c-0.1,0-0.2-0.1-0.2-0.2V138z"/>
	<polygon class="st3" points="249.3,139.4 249.3,148.7 262.7,148.7 262.7,145.7 258.3,139.4 	"/>
	<path class="st5" d="M247.9,138.8v10.5c0,0.4,0.3,0.7,0.7,0.7h2.2h12.6c0.4,0,0.7-0.3,0.7-0.7v-3.8c0-0.1,0-0.3-0.1-0.4l-4.7-6.7
		c-0.1-0.2-0.3-0.3-0.5-0.3h-7.9h-2.2C248.2,138.1,247.9,138.4,247.9,138.8z M262.7,148.7h-13.4v-9.2h9.1l4.4,6.3V148.7z"/>
	<path class="st2" d="M213.3,162.5c0-3.3-2.7-5.9-5.9-5.9c-3.3,0-5.9,2.7-5.9,5.9s2.7,5.9,5.9,5.9
		C210.7,168.5,213.3,165.8,213.3,162.5z M207.4,165.7c-1.7,0-3.2-1.4-3.2-3.2s1.4-3.2,3.2-3.2s3.2,1.4,3.2,3.2
		S209.1,165.7,207.4,165.7z"/>
	<path class="st2" d="M262.1,162.5c0-3.3-2.7-5.9-5.9-5.9c-3.3,0-5.9,2.7-5.9,5.9s2.7,5.9,5.9,5.9
		C259.5,168.5,262.1,165.8,262.1,162.5z M256.2,165.7c-1.7,0-3.2-1.4-3.2-3.2s1.4-3.2,3.2-3.2c1.7,0,3.2,1.4,3.2,3.2
		S257.9,165.7,256.2,165.7z"/>
	<path class="st3" d="M209.2,162.5c0-1-0.8-1.9-1.8-1.9s-1.8,0.8-1.8,1.9c0,1,0.8,1.8,1.8,1.8S209.2,163.6,209.2,162.5z"/>
	<path class="st5" d="M210.6,162.5c0-1.7-1.4-3.2-3.2-3.2s-3.2,1.4-3.2,3.2s1.4,3.2,3.2,3.2S210.6,164.3,210.6,162.5z M205.5,162.5
		c0-1,0.8-1.9,1.8-1.9s1.8,0.8,1.8,1.9c0,1-0.8,1.8-1.8,1.8S205.5,163.6,205.5,162.5z"/>
	<path class="st3" d="M258,162.5c0-1-0.8-1.9-1.8-1.9c-1,0-1.8,0.8-1.8,1.9c0,1,0.8,1.8,1.8,1.8C257.2,164.4,258,163.6,258,162.5z"
		/>
	<path class="st5" d="M259.4,162.5c0-1.7-1.4-3.2-3.2-3.2c-1.7,0-3.2,1.4-3.2,3.2s1.4,3.2,3.2,3.2
		C257.9,165.7,259.4,164.3,259.4,162.5z M254.3,162.5c0-1,0.8-1.9,1.8-1.9c1,0,1.8,0.8,1.8,1.9c0,1-0.8,1.8-1.8,1.8
		C255.2,164.4,254.3,163.6,254.3,162.5z"/>
	<path class="st5" d="M215.3,140.6c0-0.2-0.1-0.4-0.2-0.5l-6.2-5.8c-0.3-0.2-0.6-0.2-0.9,0l-6.2,5.8c-0.1,0.1-0.2,0.3-0.2,0.5v8.7
		c0,0.4,0.3,0.7,0.7,0.7h12.5c0.4,0,0.7-0.3,0.7-0.7V140.6z M209.6,148.7h-2.5v-3.7c0-0.1,0.1-0.2,0.2-0.2h2.1
		c0.1,0,0.2,0.1,0.2,0.2V148.7z M211,148.7v-3.7c0-0.9-0.7-1.5-1.5-1.5h-2.1c-0.9,0-1.5,0.7-1.5,1.5v3.7h-3v-7.8l5.6-5.2l5.6,5.2
		v7.8H211z"/>
	<path class="st2" d="M605.7,78.6H632c0.2,0,0.5,0.1,0.6,0.4l5.1,10.2l5.1-10.2c0.1-0.2,0.3-0.4,0.6-0.4h26.2c2.1,0,3.9-1.7,3.9-3.9
		V51.1c0-2.1-1.7-3.9-3.9-3.9h-63.9c-2.1,0-3.9,1.7-3.9,3.9v23.6C601.8,76.8,603.6,78.6,605.7,78.6z M657.5,61.5
		c0.1-0.2,0.3-0.4,0.5-0.4l3.3-0.5l1.5-3c0.1-0.2,0.3-0.4,0.6-0.4s0.5,0.1,0.6,0.4l1.5,3l3.3,0.5c0.2,0,0.5,0.2,0.5,0.4
		c0.1,0.2,0,0.5-0.2,0.7l-2.4,2.3l0.6,3.3c0,0.2-0.1,0.5-0.3,0.6c-0.2,0.1-0.5,0.2-0.7,0.1l-3-1.6l-3,1.6c-0.1,0.1-0.2,0.1-0.3,0.1
		c-0.1,0-0.3,0-0.4-0.1c-0.2-0.1-0.3-0.4-0.3-0.6l0.6-3.3l-2.4-2.3C657.5,62,657.4,61.8,657.5,61.5z M644.6,61.5
		c0.1-0.2,0.3-0.4,0.5-0.4l3.3-0.5l1.5-3c0.2-0.5,1-0.5,1.2,0l1.5,3l3.3,0.5c0.2,0,0.5,0.2,0.5,0.4c0.1,0.2,0,0.5-0.2,0.7l-2.4,2.3
		l0.6,3.3c0,0.2-0.1,0.5-0.3,0.6c-0.1,0.1-0.3,0.1-0.4,0.1c-0.1,0-0.2,0-0.3-0.1l-3-1.6l-3,1.6c-0.2,0.1-0.5,0.1-0.7-0.1
		c-0.2-0.1-0.3-0.4-0.3-0.6l0.6-3.3l-2.4-2.3C644.6,62,644.5,61.8,644.6,61.5z M631.7,61.5c0.1-0.2,0.3-0.4,0.5-0.4l3.3-0.5l1.5-3
		c0.2-0.5,1-0.5,1.2,0l1.5,3l3.3,0.5c0.2,0,0.5,0.2,0.5,0.4c0.1,0.2,0,0.5-0.2,0.7l-2.4,2.3l0.6,3.3c0,0.2-0.1,0.5-0.3,0.6
		c-0.1,0.1-0.3,0.1-0.4,0.1c-0.1,0-0.2,0-0.3-0.1l-3-1.6l-3,1.6c-0.2,0.1-0.5,0.1-0.7-0.1c-0.2-0.1-0.3-0.4-0.3-0.6l0.6-3.3
		l-2.4-2.3C631.7,62,631.6,61.8,631.7,61.5z M618.8,61.5c0.1-0.2,0.3-0.4,0.5-0.4l3.3-0.5l1.5-3c0.1-0.2,0.3-0.4,0.6-0.4
		s0.5,0.1,0.6,0.4l1.5,3l3.3,0.5c0.2,0,0.5,0.2,0.5,0.4c0.1,0.2,0,0.5-0.2,0.7l-2.4,2.3l0.6,3.3c0,0.2-0.1,0.5-0.3,0.6
		c-0.2,0.1-0.5,0.2-0.7,0.1l-3-1.6l-3,1.6c-0.1,0.1-0.2,0.1-0.3,0.1c-0.1,0-0.3,0-0.4-0.1c-0.2-0.1-0.3-0.4-0.3-0.6l0.6-3.3
		l-2.4-2.3C618.8,62,618.8,61.8,618.8,61.5z M606,61.5c0.1-0.2,0.3-0.4,0.5-0.4l3.3-0.5l1.5-3c0.2-0.5,1-0.5,1.2,0l1.5,3l3.3,0.5
		c0.2,0,0.5,0.2,0.5,0.4c0.1,0.2,0,0.5-0.2,0.7l-2.4,2.3l0.6,3.3c0,0.2-0.1,0.5-0.3,0.6c-0.1,0.1-0.3,0.1-0.4,0.1
		c-0.1,0-0.2,0-0.3-0.1l-3-1.6l-3,1.6c-0.2,0.1-0.5,0.1-0.7-0.1c-0.2-0.1-0.3-0.4-0.3-0.6l0.6-3.3l-2.4-2.3
		C606,62,605.9,61.8,606,61.5z"/>
	<path class="st5" d="M605.7,79.9h25.9l5.5,11c0.1,0.2,0.3,0.4,0.6,0.4s0.5-0.1,0.6-0.4l5.5-11h25.8c2.9,0,5.2-2.3,5.2-5.2V51.1
		c0-2.9-2.3-5.2-5.2-5.2h-63.9c-2.9,0-5.2,2.3-5.2,5.2v23.6C600.5,77.6,602.8,79.9,605.7,79.9z M601.8,51.1c0-2.1,1.7-3.9,3.9-3.9
		h63.9c2.1,0,3.9,1.7,3.9,3.9v23.6c0,2.1-1.7,3.9-3.9,3.9h-26.2c-0.2,0-0.5,0.1-0.6,0.4l-5.1,10.2l-5.1-10.2
		c-0.1-0.2-0.3-0.4-0.6-0.4h-26.3c-2.1,0-3.9-1.7-3.9-3.9V51.1z"/>
	<path class="st6" d="M609.7,63.8c0.2,0.2,0.2,0.4,0.2,0.6l-0.4,2.3l2.1-1.1c0.1-0.1,0.2-0.1,0.3-0.1s0.2,0,0.3,0.1l2.1,1.1
		l-0.4-2.3c0-0.2,0-0.4,0.2-0.6l1.7-1.6l-2.3-0.3c-0.2,0-0.4-0.2-0.5-0.4l-1-2.1l-1,2.1c-0.1,0.2-0.3,0.3-0.5,0.4l-2.3,0.3
		L609.7,63.8z"/>
	<path class="st5" d="M608.5,64.6l-0.6,3.3c0,0.2,0.1,0.5,0.3,0.6c0.2,0.1,0.5,0.2,0.7,0.1l3-1.6l3,1.6c0.1,0.1,0.2,0.1,0.3,0.1
		c0.1,0,0.3,0,0.4-0.1c0.2-0.1,0.3-0.4,0.3-0.6l-0.6-3.3l2.4-2.3c0.2-0.2,0.2-0.4,0.2-0.7c-0.1-0.2-0.3-0.4-0.5-0.4l-3.3-0.5l-1.5-3
		c-0.2-0.5-1-0.5-1.2,0l-1.5,3l-3.3,0.5c-0.2,0-0.5,0.2-0.5,0.4c-0.1,0.2,0,0.5,0.2,0.7L608.5,64.6z M610.8,61.5l1-2.1l1,2.1
		c0.1,0.2,0.3,0.3,0.5,0.4l2.3,0.3l-1.7,1.6c-0.2,0.2-0.2,0.4-0.2,0.6l0.4,2.3l-2.1-1.1c-0.1-0.1-0.2-0.1-0.3-0.1s-0.2,0-0.3,0.1
		l-2.1,1.1l0.4-2.3c0-0.2,0-0.4-0.2-0.6l-1.7-1.6l2.3-0.3C610.6,61.8,610.7,61.7,610.8,61.5z"/>
	<path class="st6" d="M622.6,63.8c0.2,0.2,0.2,0.4,0.2,0.6l-0.4,2.3l2.1-1.1c0.2-0.1,0.4-0.1,0.6,0l2.1,1.1l-0.4-2.3
		c0-0.2,0-0.4,0.2-0.6l1.7-1.6l-2.3-0.3c-0.2,0-0.4-0.2-0.5-0.4l-1-2.1l-1,2.1c-0.1,0.2-0.3,0.3-0.5,0.4l-2.3,0.3L622.6,63.8z"/>
	<path class="st5" d="M621.4,64.6l-0.6,3.3c0,0.2,0.1,0.5,0.3,0.6c0.1,0.1,0.3,0.1,0.4,0.1c0.1,0,0.2,0,0.3-0.1l3-1.6l3,1.6
		c0.2,0.1,0.5,0.1,0.7-0.1c0.2-0.1,0.3-0.4,0.3-0.6l-0.6-3.3l2.4-2.3c0.2-0.2,0.2-0.4,0.2-0.7c-0.1-0.2-0.3-0.4-0.5-0.4l-3.3-0.5
		l-1.5-3c-0.1-0.2-0.3-0.4-0.6-0.4s-0.5,0.1-0.6,0.4l-1.5,3l-3.3,0.5c-0.2,0-0.5,0.2-0.5,0.4c-0.1,0.2,0,0.5,0.2,0.7L621.4,64.6z
		 M623.7,61.5l1-2.1l1,2.1c0.1,0.2,0.3,0.3,0.5,0.4l2.3,0.3l-1.7,1.6c-0.2,0.2-0.2,0.4-0.2,0.6l0.4,2.3l-2.1-1.1
		c-0.2-0.1-0.4-0.1-0.6,0l-2.1,1.1l0.4-2.3c0-0.2,0-0.4-0.2-0.6l-1.7-1.6l2.3-0.3C623.4,61.8,623.6,61.7,623.7,61.5z"/>
	<path class="st6" d="M635.4,63.8c0.2,0.2,0.2,0.4,0.2,0.6l-0.4,2.3l2.1-1.1c0.1-0.1,0.2-0.1,0.3-0.1s0.2,0,0.3,0.1l2.1,1.1
		l-0.4-2.3c0-0.2,0-0.4,0.2-0.6l1.7-1.6l-2.3-0.3c-0.2,0-0.4-0.2-0.5-0.4l-1-2.1l-1,2.1c-0.1,0.2-0.3,0.3-0.5,0.4l-2.3,0.3
		L635.4,63.8z"/>
	<path class="st5" d="M634.3,64.6l-0.6,3.3c0,0.2,0.1,0.5,0.3,0.6c0.2,0.1,0.5,0.2,0.7,0.1l3-1.6l3,1.6c0.1,0.1,0.2,0.1,0.3,0.1
		c0.1,0,0.3,0,0.4-0.1c0.2-0.1,0.3-0.4,0.3-0.6l-0.6-3.3l2.4-2.3c0.2-0.2,0.2-0.4,0.2-0.7c-0.1-0.2-0.3-0.4-0.5-0.4l-3.3-0.5l-1.5-3
		c-0.2-0.5-1-0.5-1.2,0l-1.5,3l-3.3,0.5c-0.2,0-0.5,0.2-0.5,0.4c-0.1,0.2,0,0.5,0.2,0.7L634.3,64.6z M636.6,61.5l1-2.1l1,2.1
		c0.1,0.2,0.3,0.3,0.5,0.4l2.3,0.3l-1.7,1.6c-0.2,0.2-0.2,0.4-0.2,0.6l0.4,2.3l-2.1-1.1c-0.1-0.1-0.2-0.1-0.3-0.1s-0.2,0-0.3,0.1
		l-2.1,1.1l0.4-2.3c0-0.2,0-0.4-0.2-0.6l-1.7-1.6l2.3-0.3C636.3,61.8,636.5,61.7,636.6,61.5z"/>
	<path class="st6" d="M648.3,63.8c0.2,0.2,0.2,0.4,0.2,0.6l-0.4,2.3l2.1-1.1c0.1-0.1,0.2-0.1,0.3-0.1s0.2,0,0.3,0.1l2.1,1.1
		l-0.4-2.3c0-0.2,0-0.4,0.2-0.6l1.7-1.6l-2.3-0.3c-0.2,0-0.4-0.2-0.5-0.4l-1-2.1l-1,2.1c-0.1,0.2-0.3,0.3-0.5,0.4l-2.3,0.3
		L648.3,63.8z"/>
	<path class="st5" d="M647.2,64.6l-0.6,3.3c0,0.2,0.1,0.5,0.3,0.6c0.2,0.1,0.5,0.2,0.7,0.1l3-1.6l3,1.6c0.1,0.1,0.2,0.1,0.3,0.1
		c0.1,0,0.3,0,0.4-0.1c0.2-0.1,0.3-0.4,0.3-0.6l-0.6-3.3l2.4-2.3c0.2-0.2,0.2-0.4,0.2-0.7c-0.1-0.2-0.3-0.4-0.5-0.4l-3.3-0.5l-1.5-3
		c-0.2-0.5-1-0.5-1.2,0l-1.5,3l-3.3,0.5c-0.2,0-0.5,0.2-0.5,0.4c-0.1,0.2,0,0.5,0.2,0.7L647.2,64.6z M649.5,61.5l1-2.1l1,2.1
		c0.1,0.2,0.3,0.3,0.5,0.4l2.3,0.3l-1.7,1.6c-0.2,0.2-0.2,0.4-0.2,0.6l0.4,2.3l-2.1-1.1c-0.1-0.1-0.2-0.1-0.3-0.1s-0.2,0-0.3,0.1
		l-2.1,1.1l0.4-2.3c0-0.2,0-0.4-0.2-0.6l-1.7-1.6l2.3-0.3C649.2,61.8,649.4,61.7,649.5,61.5z"/>
	<path class="st6" d="M661.2,63.8c0.2,0.2,0.2,0.4,0.2,0.6l-0.4,2.3l2.1-1.1c0.1-0.1,0.2-0.1,0.3-0.1v-6.2l-1,2.1
		c-0.1,0.2-0.3,0.3-0.5,0.4l-2.3,0.3L661.2,63.8z"/>
	<path class="st3" d="M663.7,65.7l2.1,1.1l-0.4-2.3c0-0.2,0-0.4,0.2-0.6l1.7-1.6l-2.3-0.3c-0.2,0-0.4-0.2-0.5-0.4l-1-2.1l0,0v6.2
		C663.5,65.6,663.6,65.6,663.7,65.7z"/>
	<path class="st5" d="M660,64.6l-0.6,3.3c0,0.2,0.1,0.5,0.3,0.6c0.1,0.1,0.3,0.1,0.4,0.1c0.1,0,0.2,0,0.3-0.1l3-1.6l3,1.6
		c0.2,0.1,0.5,0.1,0.7-0.1c0.2-0.1,0.3-0.4,0.3-0.6l-0.6-3.3l2.4-2.3c0.2-0.2,0.2-0.4,0.2-0.7c-0.1-0.2-0.3-0.4-0.5-0.4l-3.3-0.5
		l-1.5-3c-0.1-0.2-0.3-0.4-0.6-0.4s-0.5,0.1-0.6,0.4l-1.5,3l-3.3,0.5c-0.2,0-0.5,0.2-0.5,0.4c-0.1,0.2,0,0.5,0.2,0.7L660,64.6z
		 M662.3,61.5l1-2.1l0,0l1,2.1c0.1,0.2,0.3,0.3,0.5,0.4l2.3,0.3l-1.7,1.6c-0.2,0.2-0.2,0.4-0.2,0.6l0.4,2.3l-2.1-1.1
		c-0.1-0.1-0.2-0.1-0.3-0.1c-0.1,0-0.2,0-0.3,0.1l-2.1,1.1l0.4-2.3c0-0.2,0-0.4-0.2-0.6l-1.7-1.6l2.3-0.3
		C662.1,61.8,662.2,61.7,662.3,61.5z"/>
	<path class="st1" d="M164.6,64.5H195c0.6,0,1.2-0.3,1.6-0.7c0.4-0.4,0.6-1,0.5-1.6c-0.3-2.9-2.5-5.2-5.3-5.7
		c-0.7-0.1-1.5-0.1-2.2,0c-0.3,0.1-0.6-0.1-0.7-0.3c-1.3-2.5-3.8-4-6.6-4c-3.4,0-6.3,2.3-7.2,5.6c-0.1,0.3-0.4,0.5-0.7,0.5
		c-0.2,0-0.4,0-0.6,0c-2.5,0-4.8,1.5-5.8,3.8c-0.1,0.3-0.5,0.5-0.8,0.4c-0.4-0.1-0.8-0.1-1.2-0.1c-0.6,0-1.1,0.1-1.7,0.3
		c-0.6,0.2-0.7,0.7-0.6,1.1C163.8,64.1,164,64.5,164.6,64.5z"/>
	<path class="st5" d="M164.6,65.8H195c1,0,1.9-0.4,2.6-1.1c0.7-0.7,1-1.6,0.9-2.7c-0.3-3.4-3-6.2-6.4-6.8c-0.7-0.1-1.5-0.1-2.2,0
		c-1.6-2.7-4.4-4.3-7.5-4.3c-3.8,0-7.2,2.5-8.3,6c-2.9-0.1-5.6,1.6-7,4.1c-1-0.2-2.1-0.1-3.1,0.3c-1.1,0.4-1.7,1.4-1.5,2.6
		C162.6,65.1,163.5,65.8,164.6,65.8z M164.3,62.6c0.5-0.2,1.1-0.3,1.7-0.3c0.4,0,0.8,0,1.2,0.1c0.3,0.1,0.6-0.1,0.8-0.4
		c1-2.3,3.3-3.8,5.8-3.8c0.2,0,0.4,0,0.6,0c0.3,0,0.6-0.2,0.7-0.5c0.9-3.3,3.8-5.6,7.2-5.6c2.8,0,5.3,1.5,6.6,4
		c0.1,0.3,0.4,0.4,0.7,0.3c0.7-0.1,1.5-0.2,2.2,0c2.8,0.5,5,2.8,5.3,5.7c0.1,0.6-0.1,1.1-0.5,1.6c-0.4,0.4-1,0.7-1.6,0.7h-30.3
		c-0.6,0-0.9-0.4-0.9-0.8C163.6,63.3,163.8,62.8,164.3,62.6z"/>
	<path class="st1" d="M714.7,70.6H745c0.6,0,1.2-0.3,1.6-0.7c0.4-0.4,0.6-1,0.5-1.6c-0.3-2.9-2.5-5.2-5.3-5.7
		c-0.7-0.1-1.5-0.1-2.2,0c-0.3,0.1-0.6-0.1-0.7-0.3c-1.3-2.5-3.8-4-6.6-4c-3.4,0-6.3,2.3-7.2,5.6c-0.1,0.3-0.4,0.5-0.7,0.5
		c-0.2,0-0.4,0-0.6,0c-2.5,0-4.8,1.5-5.8,3.8c-0.1,0.3-0.4,0.5-0.8,0.4c-0.4-0.1-0.8-0.1-1.2-0.1c-0.6,0-1.1,0.1-1.7,0.3
		c-0.6,0.2-0.7,0.7-0.6,1.1C713.8,70.2,714.1,70.6,714.7,70.6z"/>
	<path class="st5" d="M714.7,71.9H745c1,0,1.9-0.4,2.6-1.1c0.7-0.7,1-1.6,0.9-2.7c-0.3-3.4-3-6.2-6.4-6.8c-0.7-0.1-1.5-0.1-2.2,0
		c-1.6-2.7-4.4-4.3-7.5-4.3c-3.8,0-7.2,2.5-8.3,6c-0.1,0-0.1,0-0.2,0c-2.9,0-5.5,1.6-6.8,4.1c-1.1-0.2-2.1-0.1-3.1,0.3
		c-1.1,0.4-1.7,1.4-1.5,2.6C712.6,71.1,713.5,71.9,714.7,71.9z M714.4,68.7c0.5-0.2,1.1-0.3,1.7-0.3c0.4,0,0.8,0,1.2,0.1
		c0.3,0.1,0.6-0.1,0.8-0.4c1-2.3,3.3-3.8,5.8-3.8c0.2,0,0.4,0,0.6,0c0.3,0,0.6-0.2,0.7-0.5c0.9-3.3,3.8-5.6,7.2-5.6
		c2.8,0,5.3,1.5,6.6,4c0.1,0.3,0.4,0.4,0.7,0.3c0.7-0.1,1.5-0.2,2.2,0c2.8,0.5,5,2.8,5.3,5.7c0.1,0.6-0.1,1.1-0.5,1.6
		c-0.4,0.4-1,0.7-1.6,0.7h-30.3c-0.6,0-0.9-0.4-0.9-0.8C713.7,69.4,713.8,68.9,714.4,68.7z"/>
	<path class="st1" d="M47.8,64.8c0.1,0.1,0.2,0.1,0.3,0.1c0,0,0,0,0,0l20.4-0.1c0.2,0,0.5-0.2,0.5-0.5c0-2.6-1.9-4.8-4.5-5.3
		c-0.2,0-0.4-0.2-0.5-0.4c-0.9-2-2.8-3.2-4.9-3.2c-2.5,0-4.7,1.8-5.2,4.2c-0.1,0.3-0.3,0.5-0.7,0.5c0,0-0.1,0-0.1,0
		c-2.5,0-4.7,1.8-5.2,4.3C47.7,64.7,47.8,64.8,47.8,64.8z"/>
	<path class="st5" d="M48.1,66.3C48.1,66.3,48.1,66.3,48.1,66.3l20.4-0.1c1,0,1.8-0.8,1.8-1.8c0-3.1-2.2-5.8-5.2-6.5
		c-1.1-2.3-3.4-3.7-6-3.7c-2.9,0-5.6,2-6.4,4.8c-3,0.2-5.6,2.4-6.2,5.4c-0.1,0.5,0,1,0.3,1.4C47.1,66.1,47.6,66.3,48.1,66.3z
		 M53,60.3c0,0,0.1,0,0.1,0c0.3,0,0.6-0.2,0.7-0.5c0.5-2.5,2.7-4.2,5.2-4.2c2.1,0,4.1,1.3,4.9,3.2c0.1,0.2,0.3,0.3,0.5,0.4
		c2.6,0.4,4.5,2.7,4.5,5.3c0,0.2-0.2,0.5-0.5,0.5L48.1,65c0,0,0,0,0,0c-0.1,0-0.2,0-0.3-0.1c0,0-0.1-0.1-0.1-0.3
		C48.3,62.1,50.5,60.3,53,60.3z"/>
	<path class="st1" d="M452.3,45.8c0.1,0.1,0.2,0.2,0.3,0.2c0,0,0,0,0,0l22.1-0.1c0.3,0,0.5-0.2,0.5-0.5c0-2.9-2.1-5.3-4.9-5.8
		c-0.2,0-0.4-0.2-0.5-0.4c-0.9-2.1-3-3.5-5.4-3.5c-2.7,0-5.2,1.9-5.7,4.6c-0.1,0.3-0.4,0.5-0.7,0.5c0,0-0.1,0-0.2,0c0,0,0,0,0,0
		c-2.8,0-5.2,2-5.7,4.7C452.2,45.7,452.3,45.8,452.3,45.8z"/>
	<path class="st5" d="M452.6,47.3C452.6,47.3,452.7,47.3,452.6,47.3l22.1-0.1c1,0,1.9-0.8,1.9-1.9c0-3.4-2.3-6.3-5.6-7
		c-1.2-2.4-3.7-4-6.4-4c-3.2,0-6,2.1-6.9,5.1c-3.3,0.2-6,2.5-6.7,5.8c-0.1,0.5,0,1,0.4,1.4C451.6,47.1,452.1,47.3,452.6,47.3z
		 M458,40.8C458,40.8,458,40.8,458,40.8c0,0,0.1,0,0.2,0c0.3,0,0.6-0.2,0.7-0.5c0.6-2.7,3-4.6,5.7-4.6c2.3,0,4.4,1.4,5.4,3.5
		c0.1,0.2,0.3,0.3,0.5,0.4c2.8,0.5,4.9,2.9,4.9,5.8c0,0.3-0.2,0.5-0.5,0.5L452.6,46c0,0,0,0,0,0c-0.1,0-0.3-0.1-0.3-0.2
		c0-0.1-0.1-0.2-0.1-0.3C452.8,42.8,455.2,40.8,458,40.8z"/>
	<path class="st1" d="M867.5,28.8c0.1,0.2,0.3,0.2,0.5,0.2c0,0,0,0,0,0l26.2-0.1c0.4,0,0.8-0.3,0.8-0.8c0-3.5-2.5-6.4-5.9-7
		c-0.2,0-0.4-0.2-0.5-0.4c-1.1-2.6-3.7-4.3-6.5-4.3c-3.3,0-6.2,2.4-6.9,5.6c-0.1,0.3-0.3,0.5-0.7,0.5c0,0-0.1,0-0.2,0c0,0,0,0,0,0
		c-3.4,0-6.3,2.4-7,5.7C867.3,28.5,867.4,28.7,867.5,28.8z"/>
	<path class="st5" d="M868,30.3C868,30.3,868,30.3,868,30.3l26.2-0.1c1.1,0,2.1-0.9,2.1-2.1c0-4-2.8-7.4-6.7-8.2
		c-1.4-2.9-4.3-4.8-7.6-4.8c-3.8,0-7.1,2.5-8.1,6.1c-3.9,0.2-7.2,2.9-7.9,6.7c-0.1,0.6,0,1.2,0.4,1.6
		C866.8,30.1,867.4,30.3,868,30.3z M874.3,22.6C874.3,22.6,874.3,22.6,874.3,22.6c0,0,0.1,0,0.2,0c0.3,0,0.6-0.2,0.7-0.5
		c0.7-3.2,3.6-5.6,6.9-5.6c2.8,0,5.4,1.7,6.5,4.3c0.1,0.2,0.3,0.3,0.5,0.4c3.4,0.6,5.9,3.5,5.9,7c0,0.4-0.3,0.8-0.8,0.8L868,29
		c0,0,0,0,0,0c-0.2,0-0.4-0.1-0.5-0.2c-0.1-0.1-0.2-0.3-0.1-0.5C868,25,870.9,22.6,874.3,22.6z"/>
	<rect x="499.9" y="78.5" class="st2" width="8.8" height="8.4"/>
	<rect x="521.9" y="78.5" class="st2" width="63.8" height="8.4"/>
	<path class="st2" d="M520.6,143V69.7h-10.5v76.4h8.9C519.1,144.9,519.7,143.8,520.6,143z"/>
	<path class="st3" d="M530.3,97.7v36.5h47.4c-0.9-1.3-1.6-2.8-1.8-4.4c-0.3-2.7,0.4-5.3,2.1-7.4c1-1.2,1.2-2.8,0.7-4.1
		c-0.3-0.9-0.5-1.8-0.5-2.7c0-1.6,0.5-3.1,1.4-4.4c0.7-0.9,0.9-2.1,0.7-3.3c-0.1-0.3-0.1-0.7-0.1-1c0-0.8,0.2-1.5,0.5-2.2v-7H530.3z
		 M572,112c0,0.3-0.2,0.5-0.5,0.5h-1c0,3.7-3.1,6.8-6.8,6.8c-1.1,0-2.2-0.3-3.1-0.8l-3.7,2.1l4.7,2.7c1.1,0.6,1.7,1.7,1.7,2.9
		c0,0.7-0.2,1.4-0.7,2l-0.5-0.4l-0.5-0.4l0,0c0.2-0.3,0.4-0.7,0.4-1.2c0-0.7-0.4-1.4-1-1.8l-5.4-3l-5.4,3.1c-0.6,0.4-1,1.1-1,1.8
		c0,0.4,0.1,0.9,0.4,1.2c0.2,0.3,0.2,0.7-0.1,0.9c-0.1,0.1-0.3,0.1-0.4,0.1c-0.2,0-0.4-0.1-0.5-0.2l0,0c-0.5-0.6-0.7-1.3-0.7-2.1
		c0-1.2,0.7-2.3,1.7-2.9l4.7-2.7l-3.7-2.1c-0.9,0.5-2,0.8-3.1,0.8c-3.8,0-6.8-3-6.8-6.8h-1c-0.3,0-0.5-0.2-0.5-0.5v-0.9
		c0-0.3,0.2-0.5,0.5-0.5h1.2c0.8-2.9,3.4-5,6.6-5c3,0,5.6,2,6.5,4.7c0.5-0.4,1-0.6,1.7-0.6s1.2,0.2,1.7,0.6c0.9-2.7,3.5-4.7,6.5-4.7
		c3.1,0,5.8,2.1,6.6,5h1.2c0.3,0,0.5,0.2,0.5,0.5V112z"/>
	<path class="st3" d="M550.5,117c1.4-1,2.4-2.7,2.4-4.5c0-3-2.5-5.5-5.5-5.5c-2.9,0-5.3,2.3-5.5,5.2L550.5,117z"/>
	<path class="st3" d="M562,117.7c0.5,0.2,1.1,0.3,1.7,0.3c2.6,0,4.8-1.8,5.4-4.3L562,117.7z"/>
	<path class="st3" d="M556.9,112.4C556.9,112.4,556.9,112.4,556.9,112.4c0-0.1,0-0.1,0-0.1c0-0.7-0.6-1.3-1.3-1.3s-1.3,0.6-1.3,1.3
		c0,0,0,0,0,0c0,0,0,0.1,0,0.1c0,2.1-1,4-2.5,5.3l3.8,2.2l3.8-2.2C557.8,116.4,556.9,114.5,556.9,112.4z"/>
	<path class="st3" d="M547.4,117.9c0.6,0,1.1-0.1,1.7-0.3l-7-4C542.6,116.1,544.8,117.9,547.4,117.9z"/>
	<path class="st3" d="M560.6,117l8.6-4.9c-0.2-2.9-2.6-5.2-5.5-5.2c-3,0-5.5,2.5-5.5,5.5C558.2,114.3,559.1,116,560.6,117z"/>
	<path class="st2" d="M571.5,110.6h-1.2c-0.8-2.9-3.4-5-6.6-5c-3,0-5.6,2-6.5,4.7c-0.5-0.4-1-0.6-1.7-0.6s-1.2,0.2-1.7,0.6
		c-0.9-2.7-3.5-4.7-6.5-4.7c-3.1,0-5.8,2.1-6.6,5h-1.2c-0.3,0-0.5,0.2-0.5,0.5v0.9c0,0.3,0.2,0.5,0.5,0.5h1c0,3.7,3.1,6.8,6.8,6.8
		c1.1,0,2.2-0.3,3.1-0.8l3.7,2.1l-4.7,2.7c-1.1,0.6-1.7,1.7-1.7,2.9c0,0.7,0.2,1.4,0.7,2.1l0,0c0.1,0.2,0.3,0.2,0.5,0.2
		c0.1,0,0.3,0,0.4-0.1c0.3-0.2,0.3-0.6,0.1-0.9c-0.3-0.4-0.4-0.8-0.4-1.2c0-0.7,0.4-1.4,1-1.8l5.4-3.1l5.4,3c0.6,0.4,1,1.1,1,1.8
		c0,0.4-0.1,0.9-0.4,1.2l0,0l0.5,0.4l0.5,0.4c0.4-0.6,0.7-1.3,0.7-2c0-1.2-0.7-2.3-1.7-2.9l-4.7-2.7l3.7-2.1c0.9,0.5,2,0.8,3.1,0.8
		c3.8,0,6.8-3,6.8-6.8h1c0.3,0,0.5-0.2,0.5-0.5v-0.9C572,110.8,571.8,110.6,571.5,110.6z M563.7,106.9c2.9,0,5.3,2.3,5.5,5.2
		l-8.6,4.9c-1.4-1-2.4-2.7-2.4-4.5C558.2,109.4,560.6,106.9,563.7,106.9z M547.4,106.9c3,0,5.5,2.5,5.5,5.5c0,1.9-1,3.6-2.4,4.5
		l-8.6-4.9C542.1,109.2,544.5,106.9,547.4,106.9z M547.4,117.9c-2.6,0-4.8-1.8-5.4-4.3l7,4C548.5,117.8,548,117.9,547.4,117.9z
		 M555.5,119.8l-3.8-2.2c1.5-1.3,2.5-3.1,2.5-5.3c0,0,0-0.1,0-0.1c0,0,0,0,0,0c0-0.7,0.6-1.3,1.3-1.3s1.3,0.6,1.3,1.3c0,0,0,0,0,0
		c0,0,0,0.1,0,0.1c0,2.1,1,4,2.5,5.3L555.5,119.8z M563.7,117.9c-0.6,0-1.1-0.1-1.7-0.3l7-4C568.5,116.1,566.3,117.9,563.7,117.9z"
		/>
	<path class="st1" d="M586,102.9c-0.2,0-0.3,0-0.5,0c-0.1,0-0.1,0-0.2,0c0.2,0.5,0.4,1,0.5,1.5c0.1,0.5,0,1,0,1.4
		c-0.2,1.4,0,2.8,0.8,3.9c0.8,1.1,1.3,2.5,1.3,4c0,0.9-0.2,1.7-0.5,2.5c-0.7,1.6-0.3,3.5,0.8,4.9c1.2,1.6,2,3.5,2,5.7
		c0,2.8-1.3,5.4-3.4,7v3.1c1.6-0.2,3.1-0.9,4.3-2c1.8-1.6,2.8-3.9,2.8-6.3c0-1.9-0.6-3.7-1.8-5.2c-1.3-1.6-1.7-3.7-0.9-5.5
		c0.3-0.7,0.4-1.4,0.4-2.2c0-1.3-0.4-2.5-1.2-3.6c-0.9-1.2-1.2-2.7-0.9-4.4c0.1-0.4,0.1-0.8,0-1.2
		C589.3,104.6,587.9,103.1,586,102.9z"/>
	<path class="st1" d="M584.6,136.9c0.3,0,0.6,0.1,1,0.1v-2.3c-1.3,0.7-2.8,1.1-4.3,1.1C582.2,136.4,583.4,136.8,584.6,136.9z"/>
	<path class="st3" d="M590.2,126.7c0-2.1-0.7-4.1-2-5.7c-1.1-1.4-1.5-3.2-0.8-4.9c0.3-0.8,0.5-1.6,0.5-2.5c0-1.5-0.5-2.9-1.3-4
		c-0.8-1.1-1-2.5-0.8-3.9c0.1-0.5,0.1-0.9,0-1.4c-0.1-0.5-0.2-1.1-0.5-1.5c-0.9,0-1.8,0.4-2.5,1c-0.8,0.8-1.3,1.9-1.3,3
		c0,0.3,0,0.5,0.1,0.8c0.3,1.6,0,3.2-0.9,4.3c-0.8,1-1.2,2.3-1.2,3.6c0,0.8,0.1,1.5,0.4,2.2c0.7,1.8,0.4,3.9-0.9,5.5
		c-1.5,1.8-2.1,4.1-1.8,6.4c0.3,2.6,1.8,4.8,4,6.1c1.6,0,3-0.4,4.3-1.1v-3.4c0,0,0,0-0.1,0l-3.3-3.3c-0.3-0.3-0.3-0.7,0-0.9
		s0.7-0.3,0.9,0l2.4,2.4v-7.7c0-0.4,0.3-0.7,0.7-0.7s0.7,0.3,0.7,0.7v12.1C588.9,132.1,590.2,129.6,590.2,126.7z"/>
	<path class="st1" d="M536,143.1c-0.7,0-1.4,0.2-2,0.7c-0.2,0.1-0.4,0.2-0.6,0.1c-0.2-0.1-0.4-0.2-0.4-0.4c-0.4-1.4-1.6-2.3-3-2.3
		c-1.6,0-3,1.2-3.1,2.8c0,0.3-0.2,0.5-0.4,0.6c-0.2,0.1-0.5,0-0.7-0.2c-0.6-0.7-1.4-1-2.3-1c-1.6,0-2.9,1.2-3.1,2.7h18.9
		C539,144.4,537.7,143.1,536,143.1z"/>
	<path class="st1" d="M605,146h18.3h0.6c-0.1-1.6-1.5-2.9-3.2-2.9c-0.7,0-1.4,0.2-2,0.7c-0.2,0.1-0.4,0.2-0.6,0.1
		c-0.2-0.1-0.4-0.2-0.4-0.4c-0.4-1.4-1.6-2.3-3-2.3c-1.6,0-3,1.2-3.1,2.8c0,0.3-0.2,0.5-0.4,0.6c-0.2,0.1-0.5,0-0.7-0.2
		c-0.6-0.7-1.4-1-2.3-1C606.5,143.3,605.2,144.5,605,146z"/>
	<path class="st2" d="M773.7,151.6h2.5c-1.7-1.7-3.9-2.8-6.4-3.1l-2.8-0.4v6.3c0.7-0.2,1.5-0.4,2.3-0.4c4.4,0,8,3.6,8,8
		c0,0.1,0,0.1,0,0.2c1.2-0.3,2.2-1.4,2.2-2.7c0-2.5-0.8-4.7-2.2-6.6c-0.1,0-0.1,0-0.2,0h-3.4c-0.4,0-0.7-0.3-0.7-0.7
		S773.3,151.6,773.7,151.6z"/>
	<path class="st2" d="M761.4,162.3c0-0.1,0-0.2,0-0.3c0-3.1,1.7-5.7,4.3-7.1v-7.3L754.4,137c-1.1-1-2.6-1.6-4.1-1.6h-33
		c-3.4,0-6.1,2.7-6.1,6.1v14.6c0,2.6,1.6,4.8,3.9,5.7c0.1-4.3,3.6-7.8,8-7.8c4.4,0,8,3.6,8,8c0,0.1,0,0.2,0,0.3H761.4z M731.5,155
		c0-0.4,0.3-0.7,0.7-0.7h27.4c0.4,0,0.7,0.3,0.7,0.7s-0.3,0.7-0.7,0.7h-27.4C731.8,155.6,731.5,155.4,731.5,155z M761.3,146.9
		c0.1,0.1,0.2,0.3,0.2,0.5v1.9c0,0.4-0.3,0.7-0.7,0.7H745c-0.4,0-0.7-0.3-0.7-0.7v-11c0-0.4,0.3-0.7,0.7-0.7h6.4
		c0.2,0,0.3,0.1,0.5,0.2L761.3,146.9z M715.1,149.6c-0.4,0-0.7-0.3-0.7-0.7v-10.6c0-0.4,0.3-0.7,0.7-0.7h25.4c0.4,0,0.7,0.3,0.7,0.7
		v10.6c0,0.4-0.3,0.7-0.7,0.7H715.1z"/>
	<rect x="715.8" y="139" class="st3" width="24.1" height="9.3"/>
	<path class="st5" d="M741.2,148.9v-10.6c0-0.4-0.3-0.7-0.7-0.7h-25.4c-0.4,0-0.7,0.3-0.7,0.7v10.6c0,0.4,0.3,0.7,0.7,0.7h25.4
		C740.9,149.6,741.2,149.3,741.2,148.9z M715.8,148.2V139h24.1v9.3H715.8z"/>
	<polygon class="st3" points="751.2,139 745.7,139 745.7,148.6 760.1,148.6 760.1,147.7 	"/>
	<path class="st5" d="M751.4,137.6H745c-0.4,0-0.7,0.3-0.7,0.7v11c0,0.4,0.3,0.7,0.7,0.7h15.8c0.4,0,0.7-0.3,0.7-0.7v-1.9
		c0-0.2-0.1-0.3-0.2-0.5l-9.4-9.1C751.8,137.7,751.6,137.6,751.4,137.6z M760.1,147.7v0.9h-14.5V139h5.5L760.1,147.7z"/>
	<path class="st5" d="M759.5,155.6c0.4,0,0.7-0.3,0.7-0.7s-0.3-0.7-0.7-0.7h-27.4c-0.4,0-0.7,0.3-0.7,0.7s0.3,0.7,0.7,0.7H759.5z"/>
	<path class="st1" d="M729.8,162c0-3.7-3-6.6-6.6-6.6s-6.6,3-6.6,6.6s3,6.6,6.6,6.6S729.8,165.7,729.8,162z M723.1,166.5
		c-2.4,0-4.4-2-4.4-4.4s2-4.4,4.4-4.4c2.4,0,4.4,2,4.4,4.4S725.6,166.5,723.1,166.5z"/>
	<path class="st3" d="M726.2,162c0-1.7-1.4-3.1-3.1-3.1c-1.7,0-3.1,1.4-3.1,3.1s1.4,3.1,3.1,3.1C724.8,165.1,726.2,163.8,726.2,162z
		"/>
	<path class="st5" d="M727.6,162c0-2.4-2-4.4-4.4-4.4c-2.4,0-4.4,2-4.4,4.4s2,4.4,4.4,4.4C725.6,166.5,727.6,164.5,727.6,162z
		 M723.1,165.1c-1.7,0-3.1-1.4-3.1-3.1s1.4-3.1,3.1-3.1c1.7,0,3.1,1.4,3.1,3.1S724.8,165.1,723.1,165.1z"/>
	<path class="st1" d="M776,162c0-3.7-3-6.6-6.6-6.6c-3.7,0-6.6,3-6.6,6.6s3,6.6,6.6,6.6C773,168.7,776,165.7,776,162z M769.3,166.5
		c-2.4,0-4.4-2-4.4-4.4s2-4.4,4.4-4.4c2.4,0,4.4,2,4.4,4.4S771.8,166.5,769.3,166.5z"/>
	<path class="st3" d="M772.4,162c0-1.7-1.4-3.1-3.1-3.1c-1.7,0-3.1,1.4-3.1,3.1s1.4,3.1,3.1,3.1C771,165.1,772.4,163.8,772.4,162z"
		/>
	<path class="st5" d="M773.7,162c0-2.4-2-4.4-4.4-4.4c-2.4,0-4.4,2-4.4,4.4s2,4.4,4.4,4.4C771.8,166.5,773.7,164.5,773.7,162z
		 M766.2,162c0-1.7,1.4-3.1,3.1-3.1c1.7,0,3.1,1.4,3.1,3.1s-1.4,3.1-3.1,3.1C767.6,165.1,766.2,163.8,766.2,162z"/>
	<path class="st3" d="M360.6,55.7c0,0.4-0.3,0.7-0.7,0.7h-4.2v3h11.9l-5-10.1c-0.1-0.2-0.1-0.4,0-0.6l5-10.1h-7.1V55.7z"/>
	<path class="st3" d="M286.4,55.1h72.8V29.9h-72.8V55.1z M308,48.2c-2.5,0-4.1-1.7-4.1-4.1c0-2.5,1.7-4.2,4.1-4.2
		c2.5,0,4.1,1.7,4.1,4.1C312.1,46.4,310.4,48.2,308,48.2z M349,39.8c0.4,0,0.7,0.3,0.7,0.7c0,0.4-0.3,0.7-0.7,0.7
		c-0.4,0-0.7-0.3-0.7-0.7C348.3,40.1,348.6,39.8,349,39.8z M341,46.7h1.2v-5.4H341V40h3.1v2c0.4-1.4,1.4-2.1,2.4-2.1
		c0.9,0,1.5,0.7,1.5,1.5c0,0.7-0.5,1.3-1.2,1.3c-0.7,0-1.2-0.4-1.2-1.1c0-0.1,0-0.2,0-0.2c-0.6,0-1.2,0.7-1.5,1.7v3.7h1.5V48H341
		V46.7z M336.2,39.9c2.5,0,3.7,2,3.6,4.3h-5.5c0.1,2,0.9,2.7,2.3,2.7c1,0,1.6-0.4,2.1-1.4h1c-0.4,1.7-1.6,2.7-3.6,2.7
		c-2.5,0-4-1.7-4-4.1C332.2,41.7,333.9,39.9,336.2,39.9z M322.1,50.3h1.2v-9h-1.2V40h3.1v1.9c0.6-1.3,1.5-2,2.7-2
		c0.8,0,1.5,0.3,2,0.8c0.7,0.7,1.1,1.9,1.1,3.2c0,1.4-0.4,2.5-1.1,3.2c-0.6,0.6-1.3,0.9-2,0.9c-1.2,0-2-0.6-2.5-1.4v3.7h1.6v1.3
		h-4.8V50.3z M317.4,39.9c2.5,0,4.1,1.7,4.1,4.1c0,2.5-1.7,4.2-4.1,4.2c-2.5,0-4.1-1.7-4.1-4.1C313.3,41.6,315,39.9,317.4,39.9z
		 M314.2,37.5c0,0.3-0.3,0.7-0.7,0.7c-0.3,0-0.6-0.2-0.6-0.6c0-0.3,0.3-0.7,0.7-0.7C313.9,36.9,314.2,37.1,314.2,37.5z M311.2,34.1
		c0.4,0,0.6,0.3,0.6,0.8c0,0.2-0.1,0.5-0.2,0.9l0.1,0c0.5-1.1,0.9-1.8,1.5-1.8c0.4,0,0.6,0.2,0.6,0.7c0,0.4-0.3,0.8-0.6,0.8
		c-0.3,0-0.5-0.2-0.5-0.6c-0.2,0.1-0.9,0.8-1.5,3.2h-1l0.7-2.8c0.1-0.5,0.1-0.6-0.1-0.6c-0.2,0-0.3,0.2-0.5,0.6l-0.4-0.2
		C310.3,34.4,310.7,34.1,311.2,34.1z M303.7,34.1c0.4,0,0.6,0.3,0.6,0.8c0,0.2-0.1,0.6-0.2,1l0.1,0c0.6-1.2,1.2-1.8,1.8-1.8
		c0.5,0,0.7,0.3,0.7,0.8c0,0.2-0.1,0.5-0.2,0.9l0.1,0c0.6-1.2,1.2-1.8,1.8-1.8c0.5,0,0.8,0.4,0.8,0.9c0,0.7-0.6,1.8-0.6,2.4
		c0,0.1,0.1,0.2,0.1,0.2c0.2,0,0.3-0.2,0.5-0.6l0.4,0.2c-0.3,0.8-0.8,1.1-1.2,1.1c-0.5,0-0.8-0.3-0.8-0.8c0-0.9,0.6-1.7,0.6-2.3
		c0-0.2-0.1-0.3-0.2-0.3c-0.4,0-1.1,0.7-1.8,3.3h-1l0.6-2.3c0.1-0.3,0.1-0.5,0.1-0.7c0-0.2-0.1-0.4-0.3-0.4c-0.4,0-1.1,0.7-1.8,3.3
		h-1l0.7-2.8c0.1-0.5,0.1-0.6-0.1-0.6c-0.2,0-0.3,0.2-0.5,0.6l-0.4-0.2C302.8,34.5,303.2,34.1,303.7,34.1z M299.7,39.9
		c2,0,3.2,1.3,3.2,2.4c0,0.8-0.4,1.5-1.2,1.5c-0.7,0-1.2-0.5-1.2-1.1c0-0.5,0.4-0.9,0.7-1.1c-0.2-0.4-0.7-0.6-1.5-0.6
		c-1.2,0-2.1,1.1-2.1,3.1c0,1.8,0.8,3,2.3,3c1,0,1.7-0.6,2-1.6h1.1c-0.4,1.8-1.6,2.9-3.5,2.9c-2.6,0-4-1.7-4-4
		C295.4,41.6,297.2,39.9,299.7,39.9z"/>
	<path class="st3" d="M307.9,40.9c-1.3,0-1.8,0.9-1.8,3.1c0,2.2,0.7,3.1,2,3.1c1.2,0,1.8-1,1.8-3.1
		C309.9,41.8,309.2,40.9,307.9,40.9z"/>
	<path class="st3" d="M336.1,40.9c-1,0-1.6,0.6-1.8,2.4h3.5C337.7,41.7,337.2,40.9,336.1,40.9z"/>
	<path class="st3" d="M349,41.1c0.3,0,0.6-0.3,0.6-0.6c0-0.3-0.3-0.6-0.6-0.6c-0.3,0-0.6,0.3-0.6,0.6
		C348.4,40.8,348.7,41.1,349,41.1z M348.7,40.2C348.7,40.1,348.7,40.1,348.7,40.2l0.3,0c0.1,0,0.2,0.1,0.2,0.2
		c0,0.1-0.1,0.2-0.1,0.2c0,0.1,0.1,0.1,0.1,0.2c0,0,0,0.1,0,0.1h-0.1c0,0,0,0,0,0l-0.1-0.2h-0.1v0.2c0,0,0,0,0,0h-0.1c0,0,0,0,0,0
		V40.2z"/>
	<path class="st3" d="M349.1,40.4C349.1,40.3,349.1,40.3,349.1,40.4l-0.3-0.1v0.2L349.1,40.4C349.1,40.5,349.1,40.4,349.1,40.4z"/>
	<path class="st3" d="M317.5,47.1c1.2,0,1.8-1,1.8-3.1c0-2.2-0.7-3.1-2-3.1c-1.3,0-1.8,0.9-1.8,3.1
		C315.5,46.2,316.2,47.1,317.5,47.1z"/>
	<path class="st3" d="M327.1,46.8c1.1,0,1.7-1,1.7-2.9c0-1.8-0.7-2.7-1.7-2.7c-1,0-1.9,1.2-1.9,2.9
		C325.2,45.6,325.8,46.8,327.1,46.8z"/>
	<path class="st2" d="M299.5,48.2c1.9,0,3.1-1.1,3.5-2.9h-1.1c-0.4,1.1-1.1,1.6-2,1.6c-1.5,0-2.3-1.1-2.3-3c0-2,1-3.1,2.1-3.1
		c0.8,0,1.2,0.3,1.5,0.6c-0.3,0.1-0.7,0.6-0.7,1.1c0,0.6,0.4,1.1,1.2,1.1c0.8,0,1.2-0.6,1.2-1.5c0-1.1-1.2-2.4-3.2-2.4
		c-2.5,0-4.3,1.8-4.3,4.3C295.4,46.5,296.9,48.2,299.5,48.2z"/>
	<path class="st2" d="M308,39.9c-2.4,0-4.1,1.7-4.1,4.2c0,2.5,1.6,4.1,4.1,4.1c2.4,0,4.1-1.7,4.1-4.2
		C312.1,41.5,310.5,39.9,308,39.9z M308.1,47.1c-1.3,0-2-1-2-3.1c0-2.2,0.6-3.1,1.8-3.1c1.3,0,2,0.9,2,3.1
		C309.9,46.2,309.3,47.1,308.1,47.1z"/>
	<path class="st2" d="M317.4,48.2c2.4,0,4.1-1.7,4.1-4.2c0-2.5-1.6-4.1-4.1-4.1c-2.4,0-4.1,1.7-4.1,4.2
		C313.3,46.5,314.9,48.2,317.4,48.2z M317.3,40.9c1.3,0,2,0.9,2,3.1c0,2.2-0.6,3.1-1.8,3.1c-1.3,0-2-1-2-3.1
		C315.5,41.8,316.1,40.9,317.3,40.9z"/>
	<path class="st2" d="M326.9,50.3h-1.6v-3.7c0.5,0.8,1.3,1.4,2.5,1.4c0.8,0,1.5-0.3,2-0.9c0.7-0.7,1.1-1.9,1.1-3.2
		c0-1.3-0.3-2.5-1.1-3.2c-0.5-0.5-1.2-0.8-2-0.8c-1.2,0-2.1,0.7-2.7,2V40h-3.1v1.3h1.2v9h-1.2v1.3h4.8V50.3z M327.1,41.2
		c1,0,1.7,0.9,1.7,2.7c0,1.9-0.6,2.9-1.7,2.9c-1.3,0-1.9-1.2-1.9-2.7C325.2,42.4,326.1,41.2,327.1,41.2z"/>
	<path class="st2" d="M336.2,48.2c2,0,3.2-1,3.6-2.7h-1c-0.4,1-1.1,1.4-2.1,1.4c-1.4,0-2.2-0.8-2.3-2.7h5.5c0.1-2.3-1.1-4.3-3.6-4.3
		c-2.3,0-4,1.8-4,4.2C332.2,46.5,333.7,48.2,336.2,48.2z M336.1,40.9c1.1,0,1.6,0.8,1.7,2.4h-3.5C334.5,41.5,335.2,40.9,336.1,40.9z
		"/>
	<path class="st2" d="M345.7,46.7h-1.5V43c0.3-1,0.8-1.7,1.5-1.7c0,0.1,0,0.2,0,0.2c0,0.7,0.5,1.1,1.2,1.1c0.7,0,1.2-0.6,1.2-1.3
		c0-0.8-0.6-1.5-1.5-1.5c-1,0-2,0.7-2.4,2.1v-2H341v1.3h1.2v5.4H341V48h4.7V46.7z"/>
	<path class="st2" d="M303.4,34.7c0.2,0,0.2,0.1,0.1,0.6l-0.7,2.8h1c0.7-2.6,1.4-3.3,1.8-3.3c0.2,0,0.3,0.2,0.3,0.4
		c0,0.2,0,0.4-0.1,0.7l-0.6,2.3h1c0.7-2.6,1.4-3.3,1.8-3.3c0.1,0,0.2,0.1,0.2,0.3c0,0.6-0.6,1.4-0.6,2.3c0,0.5,0.3,0.8,0.8,0.8
		c0.4,0,0.9-0.3,1.2-1.1l-0.4-0.2c-0.2,0.4-0.3,0.6-0.5,0.6c-0.1,0-0.1-0.1-0.1-0.2c0-0.5,0.6-1.6,0.6-2.4c0-0.5-0.3-0.9-0.8-0.9
		c-0.6,0-1.2,0.6-1.8,1.8l-0.1,0c0.1-0.4,0.2-0.7,0.2-0.9c0-0.5-0.2-0.8-0.7-0.8c-0.6,0-1.2,0.6-1.8,1.8l-0.1,0
		c0.1-0.4,0.2-0.7,0.2-1c0-0.5-0.3-0.8-0.6-0.8c-0.5,0-0.9,0.4-1.2,1.1l0.4,0.2C303,34.9,303.2,34.7,303.4,34.7z"/>
	<path class="st2" d="M310.9,34.7c0.2,0,0.2,0.1,0.1,0.6l-0.7,2.8h1c0.6-2.3,1.2-3.1,1.5-3.2c0,0.4,0.2,0.6,0.5,0.6
		c0.3,0,0.6-0.3,0.6-0.8c0-0.4-0.3-0.7-0.6-0.7c-0.6,0-1,0.6-1.5,1.8l-0.1,0c0.1-0.4,0.2-0.7,0.2-0.9c0-0.5-0.3-0.8-0.6-0.8
		c-0.5,0-0.9,0.4-1.2,1.1l0.4,0.2C310.6,34.9,310.8,34.7,310.9,34.7z"/>
	<path class="st2" d="M312.9,37.6c0,0.4,0.2,0.6,0.6,0.6c0.4,0,0.7-0.4,0.7-0.7c0-0.4-0.2-0.6-0.6-0.6
		C313.2,36.9,312.9,37.3,312.9,37.6z"/>
	<path class="st2" d="M348.8,40.8C348.9,40.8,348.9,40.8,348.8,40.8l0-0.3h0.1l0.1,0.2c0,0,0,0,0,0h0.1c0,0,0,0,0-0.1
		c0-0.1-0.1-0.1-0.1-0.2c0.1,0,0.1-0.1,0.1-0.2c0-0.1-0.1-0.2-0.2-0.2h-0.3c0,0,0,0,0,0v0.6C348.7,40.8,348.7,40.8,348.8,40.8
		L348.8,40.8z M348.9,40.3h0.2c0.1,0,0.1,0,0.1,0.1c0,0.1,0,0.1-0.1,0.1h-0.2V40.3z"/>
	<path class="st2" d="M349,41.2c0.4,0,0.7-0.3,0.7-0.7c0-0.4-0.3-0.7-0.7-0.7c-0.4,0-0.7,0.3-0.7,0.7
		C348.3,40.9,348.6,41.2,349,41.2z M349,39.9c0.3,0,0.6,0.3,0.6,0.6c0,0.3-0.3,0.6-0.6,0.6c-0.3,0-0.6-0.3-0.6-0.6
		C348.4,40.2,348.7,39.9,349,39.9z"/>
	<path class="st1" d="M264.4,39.1l1.4-3.2h-3.6l-0.2,0.6C262.9,37.3,263.8,38.2,264.4,39.1z"/>
	<path class="st1" d="M262,50.4l0.2,0.5h3.6l-1.3-3.1C263.8,48.8,263,49.6,262,50.4z"/>
	<path class="st1" d="M250.8,53.9c-0.6,0-1.2,0-1.8-0.1l0.2,1.3h3.2l0.2-1.3C252,53.9,251.4,53.9,250.8,53.9z"/>
	<path class="st1" d="M250.8,52.6c6.8,0,12.5-3.3,13.5-7.7h-3.7c-0.9,0-1.7-0.8-1.7-1.7v-0.1c0-0.9,0.8-1.7,1.7-1.7h3.5
		c-1.4-4-6.9-7-13.3-7c-7.6,0-13.7,4.1-13.7,9.1C237.1,48.5,243.2,52.6,250.8,52.6z M239.9,39.3c2.9-2.1,6.7-3.2,10.9-3.2
		c0.4,0,0.7,0.3,0.7,0.7s-0.3,0.7-0.7,0.7c-3.8,0-7.5,1.1-10.1,3c-0.1,0.1-0.3,0.1-0.4,0.1c-0.2,0-0.4-0.1-0.5-0.3
		C239.5,40,239.6,39.5,239.9,39.3z"/>
	<path class="st5" d="M247.7,53.7l0.3,2.2c0,0.3,0.3,0.6,0.7,0.6h4.3c0.3,0,0.6-0.2,0.7-0.6l0.3-2.2c2.7-0.4,5-1.3,7-2.5l0.3,0.6
		c0.1,0.2,0.3,0.4,0.6,0.4h5c0.2,0,0.4-0.1,0.6-0.3c0.1-0.2,0.1-0.4,0.1-0.6l-2.1-5c0.2-0.5,0.3-0.9,0.4-1.4h2.7
		c0.6,0,1.1-0.3,1.4-0.7h7.6l7.9,11.9c0,0,0,0,0,0c0,0.1,0.1,0.1,0.2,0.1c0,0,0,0,0.1,0c0.1,0,0.2,0.1,0.3,0.1h68.6V60
		c0,0.4,0.3,0.7,0.7,0.7h13.7c0.2,0,0.4-0.1,0.6-0.3s0.1-0.4,0-0.6L363.9,49l5.3-10.7c0.1-0.2,0.1-0.4,0-0.6s-0.3-0.3-0.6-0.3h-8.1
		v-8.1c0-0.4-0.3-0.7-0.7-0.7h-74.1c0,0,0,0-0.1,0c0,0-0.1,0-0.1,0c0,0-0.1,0-0.1,0.1c0,0-0.1,0-0.1,0.1c0,0-0.1,0.1-0.1,0.1
		c0,0,0,0-0.1,0.1L277,42.8h-7c-0.1-0.8-0.8-1.4-1.6-1.4h-2.8c-0.1-0.3-0.2-0.6-0.3-0.8l2.2-5c0.1-0.2,0.1-0.4-0.1-0.6
		c-0.1-0.2-0.3-0.3-0.6-0.3h-5c-0.3,0-0.5,0.2-0.6,0.4l-0.3,0.7c-2.7-1.7-6.2-2.7-10-2.7c-8.3,0-15,4.7-15,10.4
		C235.8,48.5,240.9,52.7,247.7,53.7z M250.8,34.4c6.5,0,11.9,3,13.3,7h-3.5c-0.9,0-1.7,0.8-1.7,1.7v0.1c0,0.9,0.8,1.7,1.7,1.7h3.7
		c-1,4.3-6.7,7.7-13.5,7.7c-7.6,0-13.7-4.1-13.7-9.1C237.1,38.5,243.2,34.4,250.8,34.4z M265.8,36l-1.4,3.2
		c-0.6-0.9-1.5-1.8-2.5-2.6l0.2-0.6H265.8z M268.7,43.1v0.1c0,0.2-0.2,0.4-0.4,0.4h-7.8c-0.2,0-0.4-0.2-0.4-0.4v-0.1
		c0-0.2,0.2-0.4,0.4-0.4h7.8C268.6,42.7,268.7,42.9,268.7,43.1z M262.2,50.9l-0.2-0.5c1-0.8,1.8-1.7,2.5-2.6l1.3,3.1H262.2z
		 M249.2,55.1l-0.2-1.3c0.6,0,1.2,0.1,1.8,0.1s1.2,0,1.8-0.1l-0.2,1.3H249.2z M359.2,55.1h-72.8V29.9h72.8V55.1z M362.6,48.7
		c-0.1,0.2-0.1,0.4,0,0.6l5,10.1h-11.9v-3h4.2c0.4,0,0.7-0.3,0.7-0.7V38.6h7.1L362.6,48.7z M285.1,31.7v21.9l-6.8-10.3L285.1,31.7z"
		/>
	<path class="st5" d="M240.3,40.5c0.1,0,0.3,0,0.4-0.1c2.6-1.9,6.3-3,10.1-3c0.4,0,0.7-0.3,0.7-0.7s-0.3-0.7-0.7-0.7
		c-4.2,0-8,1.1-10.9,3.2c-0.3,0.2-0.4,0.6-0.1,0.9C239.9,40.4,240.1,40.5,240.3,40.5z"/>
	<path class="st1" d="M260.6,42.7c-0.2,0-0.4,0.2-0.4,0.4v0.1c0,0.2,0.2,0.4,0.4,0.4h7.8c0.2,0,0.4-0.2,0.4-0.4v-0.1
		c0-0.2-0.2-0.4-0.4-0.4H260.6z"/>
	<path class="st10" d="M738.5,34.2c7.3,0,13.3-6,13.3-13.3c0-7.3-6-13.3-13.3-13.3s-13.3,6-13.3,13.3
		C725.2,28.2,731.2,34.2,738.5,34.2z M738.5,8.9c6.6,0,12,5.4,12,12c0,6.6-5.4,12-12,12s-12-5.4-12-12
		C726.5,14.3,731.9,8.9,738.5,8.9z"/>
	<path class="st10" d="M738.5,4.7c0.4,0,0.7-0.3,0.7-0.7V0.7c0-0.4-0.3-0.7-0.7-0.7s-0.7,0.3-0.7,0.7V4
		C737.8,4.4,738.1,4.7,738.5,4.7z"/>
	<path class="st10" d="M737.8,37.7v3.4c0,0.4,0.3,0.7,0.7,0.7s0.7-0.3,0.7-0.7v-3.4c0-0.4-0.3-0.7-0.7-0.7S737.8,37.4,737.8,37.7z"
		/>
	<path class="st10" d="M729.4,6.5c0.1,0.3,0.3,0.4,0.6,0.4c0.1,0,0.2,0,0.2,0v0c0,0,0.1,0,0.1-0.1c0,0,0.1,0,0.1-0.1
		c0.1-0.1,0.1-0.2,0.2-0.3c0.1-0.2,0-0.4-0.1-0.6l-1.7-3c-0.1-0.1-0.3-0.3-0.4-0.3c-0.2,0-0.3,0-0.5,0.1c-0.3,0.2-0.4,0.6-0.2,0.9
		L729.4,6.5z"/>
	<path class="st10" d="M746.6,34.9C746.5,34.9,746.5,34.9,746.6,34.9c-0.2,0.1-0.3,0.2-0.3,0.4c-0.1,0.2,0,0.4,0.1,0.5l1.7,3
		c0.1,0.2,0.3,0.3,0.5,0.3c0.1,0,0.2,0,0.3-0.1c0.2-0.1,0.3-0.2,0.3-0.4c0-0.2,0-0.4-0.1-0.5l-1.7-2.9c0-0.1-0.1-0.1-0.1-0.1
		C747.2,34.8,746.9,34.8,746.6,34.9L746.6,34.9C746.6,34.9,746.6,34.9,746.6,34.9z"/>
	<path class="st10" d="M720.6,11.4l3,1.7c0.1,0,0.2,0.1,0.3,0.1c0.2,0,0.4-0.1,0.5-0.3c0,0,0.1-0.1,0.1-0.1c0.1-0.3,0-0.7-0.3-0.9
		l-3-1.7c-0.3-0.1-0.6-0.1-0.8,0.2c0,0-0.1,0.1-0.1,0.2C720.2,10.8,720.4,11.2,720.6,11.4z"/>
	<path class="st10" d="M752.7,29.9l3,1.7c0.1,0,0.2,0.1,0.3,0.1c0.3,0,0.5-0.2,0.6-0.4c0.1-0.3,0-0.7-0.3-0.9l-2.9-1.7
		c-0.3-0.2-0.6-0.1-0.8,0.1c-0.1,0.1-0.1,0.1-0.1,0.2C752.3,29.3,752.4,29.7,752.7,29.9z"/>
	<path class="st10" d="M718.3,21.6h3.4c0.4,0,0.7-0.3,0.7-0.7s-0.3-0.7-0.7-0.7h-3.4c-0.4,0-0.7,0.3-0.7,0.7S717.9,21.6,718.3,21.6z
		"/>
	<path class="st10" d="M754.7,20.9c0,0.4,0.3,0.7,0.7,0.7h3.4c0.4,0,0.7-0.3,0.7-0.7s-0.3-0.7-0.7-0.7h-3.4
		C755,20.2,754.7,20.5,754.7,20.9z"/>
	<path class="st10" d="M720.6,30.5c-0.2,0.2-0.3,0.5-0.2,0.8c0,0,0,0.1,0.1,0.1c0.1,0.2,0.3,0.3,0.6,0.3c0.1,0,0.2,0,0.3-0.1
		l2.9-1.7c0.2-0.1,0.3-0.2,0.3-0.4c0.1-0.2,0-0.4-0.1-0.5c-0.1-0.2-0.3-0.3-0.5-0.3c-0.1,0-0.3,0-0.4,0.1v0L720.6,30.5z"/>
	<path class="st10" d="M752.5,12.9c0.1,0.2,0.3,0.3,0.5,0.3c0.1,0,0.2,0,0.3-0.1l2.9-1.7c0.3-0.2,0.4-0.5,0.3-0.8
		c0-0.1-0.1-0.1-0.1-0.2c-0.2-0.2-0.6-0.3-0.8-0.1l-2.9,1.7c-0.3,0.2-0.4,0.5-0.3,0.8C752.5,12.8,752.5,12.8,752.5,12.9z"/>
	<path class="st10" d="M730.4,34.9L730.4,34.9c-0.2-0.1-0.5-0.1-0.7,0c-0.1,0.1-0.2,0.1-0.2,0.2l-1.7,3c-0.1,0.3,0,0.7,0.3,0.9
		c0.1,0,0.2,0.1,0.3,0.1c0.2,0,0.5-0.1,0.6-0.3l1.7-3c0.1-0.3,0-0.6-0.2-0.8C730.4,34.9,730.4,34.9,730.4,34.9
		C730.4,34.9,730.4,34.9,730.4,34.9z"/>
	<path class="st10" d="M746.4,6.8C746.5,6.8,746.5,6.8,746.4,6.8c0.1,0.1,0.2,0.1,0.2,0.1v0c0.1,0,0.2,0,0.2,0
		c0.2,0,0.5-0.1,0.6-0.3l1.7-3c0.1-0.3,0-0.7-0.3-0.8c-0.3-0.2-0.6-0.1-0.8,0.1c0,0-0.1,0.1-0.1,0.1L746.3,6
		c-0.1,0.2-0.1,0.4-0.1,0.6C746.3,6.6,746.4,6.7,746.4,6.8z"/>
</g>
</svg>
