<svg width="342" height="48" viewBox="0 0 342 48" xmlns="http://www.w3.org/2000/svg" xmlns:xlink="http://www.w3.org/1999/xlink">
    <defs>
        <path id="uru5df1sda" d="M0 0h46.604v46.613H0z"/>
        <path id="2i5zcni2vc" d="M0 48h342V0H0z"/>
    </defs>
    <g fill="none" fill-rule="evenodd">
        <mask id="y1augz3qgb" fill="#fff">
            <use xlink:href="#uru5df1sda"/>
        </mask>
        <path d="M24.552 46.605c-3.341.066-5.742-.28-8.084-.998a23.028 23.028 0 0 1-5.121-2.288 23.17 23.17 0 0 1-5.616-4.697c-2.31-2.663-3.954-5.692-4.89-9.097-.46-1.67-.724-3.37-.81-5.102a22.72 22.72 0 0 1 .265-4.836c.483-2.949 1.477-5.72 3.048-8.266.482-.782 1.03-1.521 1.565-2.27.747-1.043 1.63-1.97 2.567-2.837a23.12 23.12 0 0 1 8.584-5.066A22.502 22.502 0 0 1 20.565.16 23.578 23.578 0 0 1 25.81.133c2.446.267 4.787.898 7.025 1.916a2.683 2.683 0 0 1 1.548 2.514 2.721 2.721 0 0 1-1.746 2.435c-.815.305-1.582.162-2.355-.184-1.526-.682-3.133-1.099-4.79-1.299a18.283 18.283 0 0 0-4.053-.025c-1.973.2-3.854.72-5.65 1.551a17.825 17.825 0 0 0-4.741 3.21 17.99 17.99 0 0 0-3.776 5.061c-.794 1.579-1.364 3.24-1.626 4.99-.137.92-.252 1.85-.264 2.777-.025 1.856.22 3.687.774 5.463.827 2.654 2.18 5.002 4.09 7.03a17.881 17.881 0 0 0 7.229 4.691 17.566 17.566 0 0 0 6.212.967 17.779 17.779 0 0 0 7.601-1.872 18.04 18.04 0 0 0 2.749-1.706 17.418 17.418 0 0 0 3.016-2.865 17.853 17.853 0 0 0 3.282-5.948c.35-1.07.596-2.162.738-3.275.153-1.197.19-2.404.077-3.605-.11-1.167.212-2.124 1.208-2.798 1.538-1.039 3.78-.103 4.084 1.726.193 1.166.181 2.35.128 3.53a22.622 22.622 0 0 1-.605 4.295 23.289 23.289 0 0 1-1.38 4.056 23.604 23.604 0 0 1-3.61 5.708 23.2 23.2 0 0 1-11.956 7.436c-1.758.448-3.544.67-4.467.693" fill="#003449" mask="url(#y1augz3qgb)"/>
        <path d="m22.974 26.344 2.219-2.786c1.124-1.414 2.245-2.829 3.37-4.242 1.805-2.267 3.614-4.531 5.417-6.8 1.293-1.624 2.575-3.258 3.87-4.882.356-.446.708-.908 1.12-1.3 1.052-.998 2.82-1.001 3.946-.087 1.34 1.088 1.5 3.053.45 4.355-1.668 2.07-3.312 4.161-4.967 6.241-.892 1.121-1.786 2.242-2.677 3.363-.49.616-.975 1.235-1.467 1.85-1.048 1.312-2.1 2.62-3.144 3.934-1.079 1.358-2.149 2.724-3.228 4.083-.78.985-1.55 1.981-2.358 2.942-1.1 1.31-3.207 1.387-4.436.169-1.919-1.902-3.82-3.823-5.73-5.734-1.39-1.393-2.778-2.79-4.179-4.173-.713-.704-1.079-1.527-1.041-2.542.045-1.242 1.097-2.52 2.314-2.78 1.19-.255 2.19.06 3.044.923 1.329 1.342 2.67 2.67 4.005 4.008 1.098 1.098 2.194 2.2 3.292 3.3.05.05.105.092.18.158M69.018 23.236c3.758 0 5.953-2.247 5.953-5.175v-.1c0-3.37-2.342-5.177-6.1-5.177h-5.807v10.452h5.954zM55.549 5.997h13.956c8.15 0 13.079 4.835 13.079 11.817v.1c0 7.91-6.148 12.011-13.81 12.011h-5.71v10.257H55.55V5.997zM85.633 14.005h7.418v5.277c1.513-3.615 3.952-5.96 8.344-5.764v7.766h-.39c-4.928 0-7.954 2.977-7.954 9.228v9.67h-7.418V14.005zM121.016 25.043c-.439-3.32-2.39-5.567-5.513-5.567-3.076 0-5.076 2.196-5.661 5.567h11.174zM102.57 27.24v-.096c0-7.471 5.319-13.626 12.933-13.626 8.734 0 12.736 6.789 12.736 14.21 0 .586-.049 1.271-.098 1.954H109.94c.733 3.37 3.074 5.129 6.393 5.129 2.49 0 4.294-.782 6.344-2.687l4.246 3.76c-2.44 3.028-5.954 4.884-10.688 4.884-7.856 0-13.664-5.518-13.664-13.528z" fill="#003449"/>
        <path d="m151.481 25.874-4.54-11.088-4.538 11.088h9.078zm-7.906-20.122h6.93l14.643 34.433h-7.858l-3.124-7.667H139.72l-3.124 7.667h-7.663l14.642-34.433zM187.7 27.145v-.099c0-4.346-2.93-7.228-6.394-7.228-3.465 0-6.345 2.882-6.345 7.228v.099c0 4.346 2.88 7.228 6.345 7.228s6.394-2.833 6.394-7.228zm-20.06-13.14h7.419v3.762c1.805-2.444 4.294-4.25 8.15-4.25 6.101 0 11.91 4.787 11.91 13.53v.098c0 8.742-5.71 13.53-11.91 13.53-3.954 0-6.393-1.808-8.15-3.908V48h-7.42V14.005zM219.125 27.145v-.099c0-4.346-2.929-7.228-6.393-7.228-3.466 0-6.346 2.882-6.346 7.228v.099c0 4.346 2.88 7.228 6.346 7.228 3.464 0 6.393-2.833 6.393-7.228zm-20.06-13.14h7.42v3.762c1.804-2.444 4.294-4.25 8.15-4.25 6.1 0 11.91 4.787 11.91 13.53v.098c0 8.742-5.712 13.53-11.91 13.53-3.954 0-6.394-1.808-8.15-3.908V48h-7.42V14.005zM231.285 14.005h7.42v5.276c1.513-3.615 3.953-5.96 8.345-5.763v7.766h-.389c-4.93 0-7.956 2.978-7.956 9.23v9.671h-7.42v-26.18zM270.138 27.242v-.098c0-3.86-2.782-7.228-6.882-7.228-4.247 0-6.784 3.272-6.784 7.131v.097c0 3.859 2.783 7.229 6.881 7.229 4.247 0 6.785-3.272 6.785-7.13m-20.987 0v-.099c0-7.521 6.05-13.626 14.202-13.626 8.103 0 14.106 6.006 14.106 13.53v.096c0 7.522-6.052 13.628-14.203 13.628-8.102 0-14.105-6.008-14.105-13.53M277.459 14.005h7.858l5.856 17.535 5.906-17.535h7.712l-10.298 26.377h-6.736zM322.679 30.954v-1.32c-1.269-.584-2.929-.975-4.735-.975-3.171 0-5.123 1.269-5.123 3.615v.098c0 2 1.659 3.174 4.05 3.174 3.465 0 5.808-1.906 5.808-4.592m-17.034 1.709v-.097c0-5.715 4.345-8.351 10.543-8.351 2.635 0 4.54.439 6.394 1.073v-.44c0-3.077-1.903-4.786-5.612-4.786-2.832 0-4.833.537-7.225 1.416l-1.855-5.666c2.88-1.269 5.71-2.1 10.152-2.1 4.052 0 6.98 1.074 8.834 2.932 1.953 1.953 2.831 4.834 2.831 8.35v15.191h-7.174v-2.832c-1.806 2.003-4.296 3.32-7.906 3.32-4.93 0-8.982-2.832-8.982-8.01" fill="#009FC7"/>
        <mask id="mxe1xu9jud" fill="#fff">
            <use xlink:href="#2i5zcni2vc"/>
        </mask>
        <path fill="#009FC7" mask="url(#mxe1xu9jud)" d="M334.58 40.185H342V4.53h-7.42z"/>
    </g>
</svg>
