<svg width="188" height="32" viewBox="0 0 188 32" xmlns="http://www.w3.org/2000/svg" xmlns:xlink="http://www.w3.org/1999/xlink">
    <defs>
        <path id="pipm4u4maa" d="M0 0h17.188v21.5H0z"/>
    </defs>
    <g fill="none" fill-rule="evenodd">
        <path d="M20.931 22.317a1.154 1.154 0 0 0-.15 1.633 1.15 1.15 0 0 0 .895.418c.272 0 .531-.094.742-.269l3.81-3.164a1.15 1.15 0 0 0 .418-.866 1.145 1.145 0 0 0-.62-1.088l-3.596-3.07a1.166 1.166 0 0 0-1.639.128c-.416.486-.36 1.22.127 1.634l1.386 1.183H3.09a.806.806 0 0 1-.806-.805V3.082c0-.443.362-.804.806-.804h15.005c.445 0 .807.36.807.804v2.921a1.141 1.141 0 0 0 2.283 0v-2.92A3.09 3.09 0 0 0 18.095 0H3.09A3.09 3.09 0 0 0 0 3.082v14.969a3.09 3.09 0 0 0 3.09 3.083h19.264l-1.423 1.183z" fill="#00AB84"/>
        <path d="M29.467 9.802H10.202l1.425-1.183a1.16 1.16 0 0 0 .15-1.632 1.165 1.165 0 0 0-1.638-.15l-3.81 3.165a1.145 1.145 0 0 0-.417.865 1.145 1.145 0 0 0 .62 1.089l3.595 3.07a1.166 1.166 0 0 0 1.64-.128c.415-.486.358-1.22-.128-1.634l-1.385-1.183h19.213c.444 0 .806.36.806.804v14.969a.806.806 0 0 1-.806.804H14.462a.806.806 0 0 1-.807-.804v-2.92a1.141 1.141 0 0 0-2.283 0v2.92a3.09 3.09 0 0 0 3.09 3.082h15.005a3.09 3.09 0 0 0 3.09-3.082V12.885a3.09 3.09 0 0 0-3.09-3.083" fill="#00AB84"/>
        <path d="M49.844 16.164c2.289 0 3.602-1.218 3.602-3.015v-.061c0-2.01-1.405-3.045-3.694-3.045h-4.67v6.121h4.762zM40.38 5.81h9.769c2.716 0 4.822.762 6.227 2.163 1.19 1.187 1.831 2.862 1.831 4.873v.06c0 3.441-1.862 5.604-4.58 6.609l5.22 7.614h-5.494l-4.579-6.822h-3.693v6.822H40.38V5.809zM70.784 21.372v-.823c-.794-.365-1.832-.608-2.962-.608-1.984 0-3.205.791-3.205 2.253v.061c0 1.248 1.038 1.98 2.534 1.98 2.168 0 3.633-1.188 3.633-2.863M60.13 22.438v-.061c0-3.563 2.716-5.208 6.593-5.208 1.649 0 2.84.274 4 .67v-.274c0-1.919-1.19-2.984-3.51-2.984-1.772 0-3.023.335-4.52.883l-1.16-3.532c1.802-.793 3.573-1.31 6.35-1.31 2.535 0 4.365.669 5.526 1.826 1.22 1.219 1.77 3.016 1.77 5.208v9.472h-4.487V25.36c-1.13 1.248-2.687 2.071-4.946 2.071-3.082 0-5.616-1.767-5.616-4.994M79.487 22.498v-7.735h-1.954v-3.96h1.954V6.633h4.64v4.172h3.846v3.96h-3.846v6.973c0 1.066.458 1.584 1.496 1.584.855 0 1.618-.213 2.29-.578v3.714c-.977.58-2.107.945-3.664.945-2.839 0-4.762-1.127-4.762-4.904M101.376 17.687c-.275-2.072-1.497-3.472-3.45-3.472-1.923 0-3.175 1.37-3.542 3.472h6.992zm-11.54 1.37v-.06c0-4.66 3.328-8.498 8.09-8.498 5.465 0 7.968 4.234 7.968 8.863 0 .366-.03.792-.06 1.218H94.446c.457 2.102 1.922 3.197 3.998 3.197 1.557 0 2.686-.487 3.968-1.674l2.657 2.345c-1.527 1.888-3.725 3.045-6.686 3.045-4.915 0-8.548-3.441-8.548-8.436z" fill="#003449"/>
        <path d="m108.617 24.021 2.778-3.32c1.924 1.584 3.939 2.59 6.38 2.59 1.924 0 3.084-.762 3.084-2.011v-.06c0-1.188-.733-1.797-4.304-2.711-4.304-1.096-7.083-2.284-7.083-6.517v-.06c0-3.869 3.114-6.427 7.48-6.427 3.114 0 5.769.974 7.937 2.71l-2.442 3.533c-1.893-1.31-3.755-2.101-5.557-2.101-1.801 0-2.748.822-2.748 1.857v.061c0 1.401.917 1.858 4.61 2.802 4.335 1.127 6.778 2.68 6.778 6.395v.061c0 4.234-3.236 6.61-7.846 6.61-3.236 0-6.503-1.128-9.067-3.412M126.82 10.804h4.7l2.626 9.898 3.083-9.959h4l3.114 9.99 2.686-9.929h4.61l-5.099 16.445h-4.182l-3.144-10.02-3.206 10.02h-4.152zM162.916 21.372v-.823c-.794-.365-1.831-.608-2.962-.608-1.984 0-3.205.791-3.205 2.253v.061c0 1.248 1.038 1.98 2.534 1.98 2.168 0 3.633-1.188 3.633-2.863m-10.654 1.066v-.061c0-3.563 2.716-5.208 6.594-5.208 1.648 0 2.838.274 3.999.67v-.274c0-1.919-1.19-2.984-3.51-2.984-1.772 0-3.023.335-4.52.883l-1.16-3.532c1.802-.793 3.573-1.31 6.35-1.31 2.535 0 4.366.669 5.526 1.826 1.221 1.219 1.77 3.016 1.77 5.208v9.472h-4.486V25.36c-1.13 1.248-2.687 2.071-4.946 2.071-3.083 0-5.617-1.767-5.617-4.994" fill="#00AB84"/>
        <g transform="translate(170.812 10.5)">
            <mask id="zfpqe4i8yb" fill="#fff">
                <use xlink:href="#pipm4u4maa"/>
            </mask>
            <path d="M12.548 8.497v-.061c0-2.71-1.832-4.507-4-4.507S4.58 5.725 4.58 8.436v.061c0 2.71 1.8 4.507 3.969 4.507 2.167 0 3.999-1.766 3.999-4.507zM0 .305h4.64V2.65C5.77 1.127 7.327 0 9.74 0c3.816 0 7.449 2.985 7.449 8.436v.061c0 5.451-3.572 8.436-7.45 8.436-2.472 0-3.998-1.128-5.098-2.436V21.5H0V.305z" fill="#00AB84" mask="url(#zfpqe4i8yb)"/>
        </g>
    </g>
</svg>
