<svg width="19" height="19" viewBox="0 0 19 19" version="1.1" xmlns="http://www.w3.org/2000/svg" xmlns:xlink="http://www.w3.org/1999/xlink"><title>Triangle 1 + !</title><desc>Created with Sketch.</desc><g id="Icons" stroke="none" stroke-width="1" fill="none" fill-rule="evenodd"><g id="Desktop-HD" transform="translate(-453.000000, -806.000000)"><g id="Triangle-1-+-!" transform="translate(452.000000, 806.000000)"><polygon id="Triangle-1" fill="#E4002B" points="10.5 -1.84087376 21 18.4850771 -1.33226763e-15 18.4850771"/><path d="M10.1684211,11.7578947 L10.8315789,11.7578947 C10.9736842,11.7578947 11.1157895,11.6315789 11.1315789,11.5052632 L11.9052632,7.06842105 L11.9052632,5.3 C11.9052632,5.14210526 11.7631579,5 11.6052632,5 L9.39473684,5 C9.23684211,5 9.09473684,5.14210526 9.09473684,5.3 L9.09473684,7.1 L9.86842105,11.5052632 C9.88421053,11.6315789 10.0263158,11.7578947 10.1684211,11.7578947 L10.1684211,11.7578947 Z M9,14.7263158 C9,15.5315789 9.67894737,16.2105263 10.4842105,16.2105263 C11.3052632,16.2105263 12,15.5315789 12,14.7263158 C12,13.9052632 11.3052632,13.2105263 10.4842105,13.2105263 C9.67894737,13.2105263 9,13.9052632 9,14.7263158 L9,14.7263158 Z" id="!" fill="#FBFBFB"/></g></g></g></svg>