<svg width="40" height="40" viewBox="0 0 40 40" version="1.1" xmlns="http://www.w3.org/2000/svg" xmlns:xlink="http://www.w3.org/1999/xlink"><title>key</title><desc>Created with Sketch.</desc><g id="Style-Guide-Elements" stroke="none" stroke-width="1" fill="none" fill-rule="evenodd"><g id="ICONS-CUSTOM" transform="translate(-396.000000, -316.000000)" fill="#FFF"><path d="M405.906,327.421359 C404.197,327.421359 402.812,326.036359 402.812,324.327359 C402.812,322.618359 404.197,321.234359 405.906,321.234359 C407.615,321.234359 409,322.618359 409,324.327359 C409,326.036359 407.615,327.421359 405.906,327.421359 L405.906,327.421359 Z M434.339,345.648359 C434.323,345.631359 434.309,345.605359 434.293,345.589359 L428.476,339.773359 C428.428,339.711359 428.385,339.639359 428.334,339.589359 L420.909,332.164359 C421.176,331.139359 421.333,330.070359 421.333,328.962359 C421.333,321.967359 415.662,316.296359 408.666,316.296359 C401.671,316.296359 396,321.967359 396,328.962359 C396,335.958359 401.671,341.629359 408.666,341.629359 C410.412,341.629359 412.076,341.275359 413.59,340.636359 C414.624,341.795359 415.619,342.891359 416.041,343.296359 L416.482,343.296359 L420,343.296359 C420.549,343.296359 421,343.746359 421,344.296359 L421,348.296359 C421,348.846359 421.45,349.296359 422,349.296359 L422.041,349.296359 L426,349.296359 C426.549,349.296359 427,349.746359 427,350.296359 L427,354.296359 C427,354.846359 427.45,355.296359 428,355.296359 L429.876,355.296359 L434,355.296359 L436,355.296359 L436,347.317359 L434.339,345.648359 Z" id="key"/></g></g></svg>