<svg width="29" height="33" viewBox="0 0 29 33" version="1.1" xmlns="http://www.w3.org/2000/svg" xmlns:xlink="http://www.w3.org/1999/xlink"><title>hammer</title><desc>Created with Sketch.</desc><g id="Style-Guide-Elements" stroke="none" stroke-width="1" fill="none" fill-rule="evenodd"><g id="ICONS-CUSTOM" transform="translate(-60.000000, -471.000000)" fill="#FFF"><g id="hammer" transform="translate(60.000000, 471.296359)"><path d="M2.25,8.332 L3.983,8.332 L3.983,3.25 L2.25,3.25 L2.25,8.332 Z M4.15,10.582 L2.085,10.582 C0.936,10.582 0,9.647 0,8.498 L0,3.084 C0,1.934 0.936,1 2.085,1 L4.15,1 C5.299,1 6.234,1.934 6.234,3.084 L6.234,8.498 C6.234,9.647 5.299,10.582 4.15,10.582 L4.15,10.582 Z" id="Fill-14"/><path d="M10.321,2.25 C10.284,2.25 10.25,2.284 10.25,2.321 L10.25,9.243 C10.25,9.28 10.284,9.314 10.321,9.314 L17.811,9.314 C17.848,9.314 17.882,9.28 17.882,9.243 L17.882,2.321 C17.882,2.284 17.848,2.25 17.811,2.25 L10.321,2.25 L10.321,2.25 Z M8.02210903,2 C8.17885328,0.871410771 9.14989438,0 10.321,0 L17.811,0 C19.091,0 20.132,1.041 20.132,2.321 L20.132,9.243 C20.132,10.523 19.091,11.564 17.811,11.564 L10.321,11.564 C9.40161449,11.564 8.60553188,11.0269359 8.22994437,10.25 L5,10.25 L5,8 L8,8 L8,4.25 L5,4.25 L5,2 L8.02210903,2 Z" id="Fill-15"/><path d="M21.323,8.042 C22.017,8.097 22.912,8.218 23.668,8.49 C24.418,8.762 25.024,9.128 25.512,9.421 C25.726,9.551 26.004,9.719 26.179,9.797 C26.181,9.783 26.182,9.767 26.184,9.752 C26.181,9.426 25.671,6.709 23.485,5.43 C22.628,4.929 21.863,4.642 21.28,4.478 L21.323,8.042 L21.323,8.042 Z M26.269,12.087 C25.575,12.087 24.954,11.713 24.349,11.347 C23.904,11.08 23.444,10.803 22.903,10.606 C22.042,10.296 20.665,10.257 20.226,10.251 L19.099,10.267 L19,2 L20.151,2.013 C20.354,2.015 22.205,2.075 24.621,3.487 C27.763,5.325 28.506,9.114 28.424,9.967 C28.284,11.415 27.384,11.898 26.653,12.048 C26.522,12.075 26.394,12.087 26.269,12.087 L26.269,12.087 Z" id="Fill-18"/><path d="M13.105,12.25 L12.249,29.904 C12.25,30.094 12.375,30.239 12.425,30.256 L16.764,30.255 C16.815,30.234 16.936,30.089 16.936,29.849 L16.127,12.25 L13.105,12.25 L13.105,12.25 Z M16.769,32.505 L12.416,32.505 C11.084,32.505 10,31.314 10,29.849 L10.963,10 L18.275,10 L19.184,29.797 C19.186,31.314 18.101,32.505 16.769,32.505 L16.769,32.505 Z" id="Fill-61"/></g></g></g></svg>