<svg width="9" height="33" viewBox="0 0 9 33" version="1.1" xmlns="http://www.w3.org/2000/svg" xmlns:xlink="http://www.w3.org/1999/xlink"><title>up_down_arrows</title><desc>Created with Sketch.</desc><g id="Style-Guide-Elements" stroke="none" stroke-width="1" fill="none" fill-rule="evenodd"><g id="ICONS-CUSTOM" transform="translate(-654.000000, -544.000000)" fill="#FFF"><path d="M662.713,548.654359 L658.355,544.296359 L654,548.652359 L655.504,550.396359 L656.997,548.902359 L656.997,553.609359 L659.485,553.609359 L659.485,548.945359 L660.954,550.413359 L662.713,548.654359 Z M654,572.250359 L658.359,576.608359 L662.714,572.253359 L661.21,570.508359 L659.717,572.002359 L659.717,567.296359 L657.229,567.296359 L657.229,571.960359 L655.76,570.491359 L654,572.250359 Z M657,557.202359 L659.516,557.202359 L659.516,555.296359 L657,555.296359 L657,557.202359 Z M657,561.202359 L659.516,561.202359 L659.516,559.296359 L657,559.296359 L657,561.202359 Z M657,565.202359 L659.516,565.202359 L659.516,563.296359 L657,563.296359 L657,565.202359 Z" id="up_down_arrows"/></g></g></svg>