<svg width="31" height="31" viewBox="0 0 31 31" version="1.1" xmlns="http://www.w3.org/2000/svg" xmlns:xlink="http://www.w3.org/1999/xlink"><title>sold</title><desc>Created with Sketch.</desc><g id="Style-Guide-Elements" stroke="none" stroke-width="1" fill="none" fill-rule="evenodd"><g id="ICONS-CUSTOM" transform="translate(-144.000000, -616.000000)" fill="#FFF"><path d="M146.997,637.667359 L167.582,637.667359 L167.582,623.219359 L146.997,623.219359 L146.997,637.667359 Z M149.986,621.155359 L164.388,621.155359 L164.388,618.360359 L149.986,618.360359 L149.986,621.155359 Z M145.032,616.296359 C144.462,616.296359 144,616.758359 144,617.328359 C144,617.898359 144.462,618.360359 145.032,618.360359 L147.923,618.360359 L147.923,621.155359 L144.933,621.155359 L144.933,639.730359 L169.645,639.730359 L169.645,621.155359 L166.451,621.155359 L166.451,618.360359 L172.316,618.360359 L172.316,645.664359 C172.316,646.234359 172.778,646.696359 173.347,646.696359 C173.917,646.696359 174.379,646.234359 174.379,645.664359 L174.379,616.296359 L145.032,616.296359 L145.032,616.296359 Z M162.94,631.142359 L162.94,628.852359 L163.244,628.852359 C163.832,628.852359 164.184,629.276359 164.184,630.015359 C164.184,630.720359 163.832,631.142359 163.244,631.142359 L162.94,631.142359 L162.94,631.142359 Z M165.446,630.021359 L165.446,629.967359 C165.446,628.614359 164.564,627.704359 163.25,627.704359 L161.707,627.704359 L161.707,632.289359 L163.25,632.289359 C164.564,632.289359 165.446,631.378359 165.446,630.021359 L165.446,630.021359 Z M161.017,631.130359 L159.307,631.130359 L159.307,627.704359 L158.075,627.704359 L158.075,632.289359 L161.017,632.289359 L161.017,631.130359 L161.017,631.130359 Z M155.151,628.798359 C155.648,628.798359 155.981,629.273359 155.981,629.979359 L155.981,630.021359 C155.981,630.734359 155.658,631.195359 155.157,631.195359 C154.657,631.195359 154.321,630.721359 154.321,629.973359 C154.321,629.260359 154.646,628.798359 155.151,628.798359 L155.151,628.798359 Z M155.151,632.362359 C156.364,632.362359 157.244,631.380359 157.244,630.027359 L157.244,629.955359 C157.244,628.587359 156.386,627.632359 155.157,627.632359 C153.944,627.632359 153.064,628.614359 153.064,629.967359 L153.064,630.040359 C153.064,631.408359 153.922,632.362359 155.151,632.362359 L155.151,632.362359 Z M150.845,631.195359 C150.458,631.195359 150.144,630.963359 149.913,630.762359 L149.772,630.640359 L149.032,631.560359 L149.154,631.674359 C149.616,632.106359 150.215,632.344359 150.839,632.344359 C151.796,632.344359 152.437,631.762359 152.437,630.885359 C152.437,630.107359 151.938,629.751359 151.191,629.457359 C150.531,629.184359 150.499,629.107359 150.499,628.989359 C150.499,628.848359 150.659,628.798359 150.81,628.798359 C151.047,628.798359 151.311,628.917359 151.596,629.151359 L151.741,629.270359 L152.437,628.324359 L152.318,628.215359 C151.91,627.846359 151.397,627.651359 150.833,627.651359 C149.914,627.651359 149.272,628.234359 149.272,629.079359 C149.272,629.957359 149.901,630.273359 150.601,630.545359 C151.211,630.776359 151.211,630.873359 151.211,630.957359 C151.211,631.179359 150.931,631.195359 150.845,631.195359 L150.845,631.195359 Z" id="sold"/></g></g></svg>