<svg width="33" height="32" viewBox="0 0 33 32" version="1.1" xmlns="http://www.w3.org/2000/svg" xmlns:xlink="http://www.w3.org/1999/xlink"><title>house dollar</title><desc>Created with Sketch.</desc><g id="Style-Guide-Elements" stroke="none" stroke-width="1" fill="none" fill-rule="evenodd"><g id="ICONS-CUSTOM" transform="translate(-580.000000, -398.000000)" fill="#FFF"><path d="M612.333266,413.410359 L607.484266,408.184359 L607.484266,399.110359 L600.153266,399.110359 L600.153266,401.156359 L597.501266,398.614359 C597.283266,398.402359 596.999266,398.296359 596.715266,398.296359 C596.430266,398.296359 596.146266,398.402359 595.929266,398.614359 L580.250266,413.410359 C579.817266,413.834359 579.961266,414.180359 580.565266,414.180359 L585.702266,414.180359 L585.702266,415.401359 L585.702266,428.434359 C585.702266,429.040359 585.911266,429.249359 586.517266,429.249359 L606.881266,429.249359 C607.485266,429.249359 607.696266,429.040359 607.696266,428.434359 L607.696266,415.401359 C607.696266,414.797359 607.696266,415.401359 607.696266,414.180359 L612.018266,414.180359 C612.623266,414.180359 612.765266,413.834359 612.333266,413.410359 Z M605.623266,411.737359 L605.623266,426.805359 L587.746266,426.805359 L587.746266,411.737359 L585.444266,411.737359 L596.726266,401.256359 L602.596266,406.884359 L602.596266,401.554359 L605.040266,401.554359 L605.040266,409.227359 L607.873266,411.737359 L605.623266,411.737359 Z M597.393496,414.647359 C595.834496,414.008359 595.007496,413.350359 595.007496,412.280359 C595.007496,411.585359 595.552496,410.589359 597.130496,410.589359 C598.219496,410.589359 599.534496,411.453359 599.666496,411.528359 C599.929496,411.697359 600.173496,411.585359 600.323496,411.340359 C600.473496,411.115359 600.643496,410.852359 600.793496,410.627359 C600.981496,410.345359 600.830496,410.082359 600.680496,409.988359 C600.527496,409.880359 599.547496,409.214359 598.169496,408.973359 L598.169496,407.720359 C598.169496,407.487359 597.978496,407.296359 597.744496,407.296359 L596.687496,407.296359 C596.453496,407.296359 596.262496,407.487359 596.262496,407.720359 L596.262496,408.957359 C593.980496,409.332359 593.091496,411.056359 593.091496,412.355359 C593.091496,414.534359 594.594496,415.530359 596.510496,416.337359 C598.370496,417.107359 599.346496,417.821359 599.346496,418.948359 C599.346496,419.906359 598.520496,420.695359 597.224496,420.695359 C595.778496,420.695359 594.331496,419.493359 594.218496,419.399359 C594.012496,419.230359 593.749496,419.305359 593.580496,419.549359 C593.411496,419.794359 593.260496,420.075359 593.091496,420.319359 C592.904496,420.639359 593.035496,420.770359 593.204496,420.921359 C593.459496,421.159359 594.544496,422.053359 596.262496,422.322359 L596.262496,423.674359 C596.262496,423.908359 596.453496,424.099359 596.687496,424.099359 L597.744496,424.099359 C597.978496,424.099359 598.169496,423.908359 598.169496,423.674359 L598.169496,422.323359 C600.114496,421.976359 601.432496,420.550359 601.432496,418.854359 C601.432496,416.563359 599.572496,415.530359 597.393496,414.647359 Z" id="house-dollar"/></g></g></svg>