<svg width="32" height="17" viewBox="0 0 32 17" version="1.1" xmlns="http://www.w3.org/2000/svg" xmlns:xlink="http://www.w3.org/1999/xlink"><title>credit_card</title><desc>Created with Sketch.</desc><g id="Style-Guide-Elements" stroke="none" stroke-width="1" fill="none" fill-rule="evenodd"><g id="ICONS-CUSTOM" transform="translate(-315.000000, -688.000000)" fill="#FFF"><path d="M344.404,700.646359 L344.404,702.552359 L325.35,702.552359 L325.35,700.646359 L344.404,700.646359 Z M344.404,698.296359 L344.404,690.646359 L325.35,690.646359 L325.35,698.296359 L344.404,698.296359 Z M318,702.646359 L321.972,702.646359 L321.972,700.296359 L318,700.296359 L318,702.646359 Z M318,693.646359 L321.972,693.646359 L321.972,691.296359 L318,691.296359 L318,693.646359 Z M315,697.646359 L321.898,697.646359 L321.898,695.296359 L315,695.296359 L315,697.646359 Z M345.377,688.296359 L324.376,688.296359 C323.619,688.296359 323,688.916359 323,689.673359 L323,703.526359 C323,704.283359 323.619,704.902359 324.376,704.902359 L345.377,704.902359 C346.134,704.902359 346.754,704.283359 346.754,703.526359 L346.754,689.673359 C346.754,688.916359 346.134,688.296359 345.377,688.296359 Z" id="credit_card"/></g></g></svg>