<svg width="33" height="33" viewBox="0 0 33 33" version="1.1" xmlns="http://www.w3.org/2000/svg" xmlns:xlink="http://www.w3.org/1999/xlink"><title>clock</title><desc>Created with Sketch.</desc><g id="Style-Guide-Elements" stroke="none" stroke-width="1" fill="none" fill-rule="evenodd"><g id="ICONS-CUSTOM" transform="translate(-488.000000, -398.000000)" fill="#FFF"><path d="M504.485,414.293359 L509.748,414.293359 L508.253,412.800359 L509.998,411.296359 L514.354,415.651359 L509.996,420.009359 L508.237,418.250359 L509.705,416.781359 L502,416.781359 L502,415.650359 L501.997,415.650359 L501.997,407.902359 L500.505,409.397359 L499,407.652359 L503.356,403.296359 L507.714,407.654359 L505.955,409.413359 L504.485,407.945359 L504.485,414.293359 Z M504.149,398.296359 C495.244,398.296359 488,405.541359 488,414.445359 C488,423.350359 495.244,430.594359 504.149,430.594359 C513.053,430.594359 520.298,423.350359 520.298,414.445359 C520.298,405.541359 513.053,398.296359 504.149,398.296359 Z M504.149,427.978359 C496.687,427.978359 490.616,421.907359 490.616,414.445359 C490.616,406.983359 496.687,400.912359 504.149,400.912359 C511.611,400.912359 517.682,406.983359 517.682,414.445359 C517.682,421.907359 511.611,427.978359 504.149,427.978359 Z" id="clock"/></g></g></svg>