<svg width="33" height="31" viewBox="0 0 33 31" version="1.1" xmlns="http://www.w3.org/2000/svg" xmlns:xlink="http://www.w3.org/1999/xlink"><title>alert_triangle</title><desc>Created with Sketch.</desc><g id="Style-Guide-Elements" stroke="none" stroke-width="1" fill="none" fill-rule="evenodd"><g id="ICONS-CUSTOM" transform="translate(-488.000000, -544.000000)" fill="#FFF"><path d="M504.845,568.891359 L503.75,568.891359 C503.337,568.891359 503,568.554359 503,568.141359 L503,567.046359 C503,566.633359 503.337,566.296359 503.75,566.296359 L504.845,566.296359 C505.258,566.296359 505.595,566.633359 505.595,567.046359 L505.595,568.141359 C505.595,568.554359 505.258,568.891359 504.845,568.891359 Z M504.845,565.510359 L503.75,565.510359 C503.337,565.510359 503,565.173359 503,564.760359 L503,557.046359 C503,556.633359 503.337,556.296359 503.75,556.296359 L504.845,556.296359 C505.258,556.296359 505.595,556.633359 505.595,557.046359 L505.595,564.760359 C505.595,565.173359 505.258,565.510359 504.845,565.510359 Z M491.647875,571.638359 L504.044875,548.414359 L516.439875,571.638359 L491.647875,571.638359 L491.647875,571.638359 Z M519.859875,571.805359 L505.681875,545.242359 C505.345875,544.658359 504.717875,544.296359 504.043875,544.296359 C503.370875,544.296359 502.742875,544.658359 502.405875,545.242359 L488.251875,571.762359 C487.915875,572.345359 487.915875,573.068359 488.252875,573.651359 C488.589875,574.234359 489.216875,574.597359 489.889875,574.597359 L518.197875,574.597359 C518.871875,574.597359 519.498875,574.234359 519.835875,573.651359 C520.172875,573.069359 520.172875,572.345359 519.859875,571.805359 L519.859875,571.805359 Z" id="alert_triangle"/></g></g></svg>