<svg width="27" height="9" viewBox="0 0 27 9" version="1.1" xmlns="http://www.w3.org/2000/svg" xmlns:xlink="http://www.w3.org/1999/xlink"><title>l_r_line</title><desc>Created with Sketch.</desc><g id="Style-Guide-Elements" stroke="none" stroke-width="1" fill="none" fill-rule="evenodd"><g id="ICONS-CUSTOM" transform="translate(-223.000000, -544.000000)" fill="#FFF"><path d="M228.2005,549.296359 L228.2005,549.352992 L228.1805,549.353965 L228.2005,551.893709 L228.2005,551.984171 C228.1965,552.262366 227.7895,552.401463 227.5505,552.203031 L223.1215,548.542725 C222.9595,548.408491 222.9595,548.190604 223.1215,548.056371 L227.5515,544.389256 C227.7895,544.191796 228.1965,544.329921 228.2005,544.608116 L228.2005,544.725814 L228.181218,547.296359 L244,547.296359 L244,549.296359 L228.2005,549.296359 Z M244,544.609056 L244,544.699519 L244.02,547.239274 L244,547.239274 L244,549.200264 L244.02,549.200264 L244,551.867444 L244,551.98417 C244.004,552.262366 244.411,552.401464 244.649,552.20303 L249.079,548.535901 C249.241,548.401666 249.241,548.183778 249.079,548.049544 L244.649,544.389223 C244.411,544.191762 244.003,544.329888 244,544.609056 Z" id="l_r_line"/></g></g></svg>