<svg width="27" height="33" viewBox="0 0 27 33" version="1.1" xmlns="http://www.w3.org/2000/svg" xmlns:xlink="http://www.w3.org/1999/xlink"><title>A_plus</title><desc>Created with Sketch.</desc><g id="Style-Guide-Elements" stroke="none" stroke-width="1" fill="none" fill-rule="evenodd"><g id="ICONS-CUSTOM" transform="translate(-223.000000, -471.000000)" fill="#FFF"><path d="M229.000404,498.599148 L229.621404,485.673148 C229.629404,485.556148 229.710404,485.429148 229.823404,485.383148 L229.984404,485.317148 C230.097404,485.271148 230.243404,485.305148 230.331404,485.383148 L239.816404,494.187148 C239.999404,494.357148 239.955404,494.619148 239.713404,494.718148 L237.921404,495.449148 C237.631404,495.567148 237.462404,495.524148 237.192404,495.276148 L236.090404,494.238148 L231.699404,496.029148 L231.645404,497.558148 C231.643404,497.785148 231.545404,498.050148 231.221404,498.182148 L229.446404,498.907148 C229.204404,499.005148 228.989404,498.848148 229.000404,498.599148 Z M240.715355,488.758067 L238.915355,489.493067 C238.753355,489.559067 238.549355,489.472067 238.483355,489.311067 L238.022355,488.181067 C237.956355,488.019067 238.042355,487.815067 238.203355,487.749067 L240.004355,487.014067 L239.263355,485.198067 C239.197355,485.036067 239.289355,484.848067 239.451355,484.782067 L240.581355,484.321067 C240.743355,484.255067 240.940355,484.325067 241.006355,484.486067 L241.747355,486.303067 L243.564355,485.562067 C243.725355,485.496067 243.914355,485.589067 243.980355,485.750067 L244.441355,486.880067 C244.507355,487.041067 244.437355,487.240067 244.275355,487.306067 L242.459355,488.047067 L243.193355,489.847067 C243.259355,490.008067 243.167355,490.197067 243.005355,490.263067 L241.875355,490.724067 C241.713355,490.790067 241.515355,490.720067 241.450355,490.558067 L240.715355,488.758067 Z M247.052,501.154359 L225.488,501.154359 L225.488,482.907359 L233.866,482.907359 L233.866,473.785359 L247.052,473.785359 L247.052,501.154359 L247.052,501.154359 Z M231.378,475.665359 L231.378,480.419359 L227.057,480.419359 L231.378,475.665359 L231.378,475.665359 Z M231.988,471.296359 L223,481.182359 L223,503.642359 L249.54,503.642359 L249.54,471.296359 L231.988,471.296359 Z M234.226404,492.437148 L231.912404,490.274148 L231.896404,490.280148 L231.772404,493.438148 L234.226404,492.437148 Z" id="A_plus"/></g></g></svg>