<svg width="28" height="33" viewBox="0 0 28 33" version="1.1" xmlns="http://www.w3.org/2000/svg" xmlns:xlink="http://www.w3.org/1999/xlink"><title>calendar</title><desc>Created with Sketch.</desc><g id="Style-Guide-Elements" stroke="none" stroke-width="1" fill="none" fill-rule="evenodd"><g id="ICONS-CUSTOM" transform="translate(-144.000000, -688.000000)" fill="#FFF"><path d="M158.066149,713.972359 L158.891149,713.147359 C158.983149,713.055359 159.114149,713.042359 159.219149,713.120359 C159.219149,713.120359 160.031149,713.723359 160.660149,713.723359 C161.223149,713.723359 161.799149,713.251359 161.799149,712.675359 C161.799149,712.099359 161.210149,711.614359 160.241149,711.614359 L159.507149,711.614359 C159.376149,711.614359 159.258149,711.497359 159.258149,711.366359 L159.258149,710.278359 C159.258149,710.134359 159.376149,710.029359 159.507149,710.029359 L160.241149,710.029359 C161.157149,710.029359 161.642149,709.584359 161.642149,709.020359 C161.642149,708.457359 161.157149,708.038359 160.594149,708.038359 C160.018149,708.038359 159.651149,708.340359 159.455149,708.563359 C159.363149,708.667359 159.206149,708.667359 159.101149,708.575359 L158.302149,707.789359 C158.197149,707.698359 158.210149,707.541359 158.302149,707.449359 C158.302149,707.449359 159.376149,706.296359 160.804149,706.296359 C162.323149,706.296359 163.633149,707.226359 163.633149,708.693359 C163.633149,709.702359 162.873149,710.448359 162.284149,710.723359 L162.284149,710.763359 C162.900149,711.024359 163.869149,711.837359 163.869149,712.963359 C163.869149,714.391359 162.624149,715.466359 160.817149,715.466359 C159.167149,715.466359 158.328149,714.653359 158.053149,714.300359 C157.974149,714.208359 157.987149,714.064359 158.066149,713.972359 M169.076,703.296359 L169.076,717.977359 L146.35,717.977359 L146.35,703.296359 L169.076,703.296359 Z M169.076,701.296359 L169.076,690.646359 L146.35,690.646359 L146.35,701.296359 L169.076,701.296359 Z M156.118073,698.3822 L158.443669,693.382359 C158.466669,693.336359 158.520669,693.296359 158.575669,693.296359 L158.652669,693.296359 C158.707669,693.296359 158.761669,693.336359 158.784669,693.382359 L161.212669,698.602359 C161.259669,698.703359 161.196669,698.804359 161.080669,698.804359 L160.219669,698.804359 C160.080669,698.804359 160.017669,698.757359 159.948669,698.610359 L159.669669,697.997359 L157.559669,697.997359 L157.279669,698.617359 C157.241669,698.711359 157.155669,698.804359 157.000669,698.804359 L156.147669,698.804359 C156.122326,698.804359 156.099513,698.799539 156.079824,698.79095 C156.059917,698.799664 156.037373,698.804359 156.013286,698.804359 L155.098286,698.804359 C155.028286,698.804359 154.958286,698.742359 154.951286,698.679359 L154.601286,696.283359 L154.586286,696.283359 L153.283286,698.796359 C153.260286,698.842359 153.190286,698.881359 153.151286,698.881359 L153.011286,698.881359 C152.965286,698.881359 152.903286,698.842359 152.879286,698.796359 L151.568286,696.283359 L151.553286,696.283359 L151.212286,698.679359 C151.204286,698.742359 151.142286,698.804359 151.065286,698.804359 L150.149286,698.804359 C150.056286,698.804359 149.986286,698.734359 150.002286,698.633359 L150.878286,693.421359 C150.886286,693.351359 150.956286,693.296359 151.018286,693.296359 L151.142286,693.296359 C151.181286,693.296359 151.251286,693.327359 151.274286,693.374359 L153.073286,696.725359 L153.089286,696.725359 L154.888286,693.374359 C154.912286,693.327359 154.982286,693.296359 155.020286,693.296359 L155.144286,693.296359 C155.206286,693.296359 155.276286,693.351359 155.284286,693.421359 L156.118073,698.3822 Z M169.738,688.296359 L145.688,688.296359 C144.76,688.296359 144,689.056359 144,689.985359 L144,718.639359 C144,719.568359 144.76,720.328359 145.688,720.328359 L169.738,720.328359 C170.666,720.328359 171.426,719.568359 171.426,718.639359 L171.426,689.985359 C171.426,689.056359 170.666,688.296359 169.738,688.296359 Z M152,714.823359 C152.76,713.828359 154.698,711.195359 155.471,710.016359 C155.641,709.754359 155.812,709.387359 155.812,709.020359 C155.812,708.523359 155.393,708.077359 154.659,708.077359 C154.122,708.077359 153.637,708.457359 153.389,708.732359 C153.283,708.838359 153.126,708.838359 153.022,708.732359 L152.223,707.921359 C152.131,707.842359 152.118,707.685359 152.209,707.579359 C152.209,707.579359 153.27,706.296359 154.829,706.296359 C156.702,706.296359 157.803,707.489359 157.803,708.942359 C157.803,709.637359 157.606,710.029359 157.292,710.645359 C156.873,711.391359 155.798,712.793359 155.183,713.658359 L157.488,713.658359 C157.619,713.658359 157.737,713.776359 157.737,713.906359 L157.737,715.086359 C157.737,715.216359 157.619,715.334359 157.488,715.334359 L152.249,715.334359 C152.104,715.334359 152,715.216359 152,715.086359 L152,714.823359 Z M162,693.443359 C162,693.366359 162.062,693.296359 162.147,693.296359 L164.466,693.296359 C165.397,693.296359 166.157,694.048359 166.157,694.972359 C166.157,695.685359 165.684,696.259359 165.009,696.530359 L166.072,698.501359 C166.126,698.601359 166.072,698.726359 165.94,698.726359 L164.908,698.726359 C164.846,698.726359 164.8,698.687359 164.784,698.656359 L163.753,696.600359 L163.218,696.600359 L163.218,698.579359 C163.218,698.656359 163.148,698.726359 163.07,698.726359 L162.147,698.726359 C162.062,698.726359 162,698.656359 162,698.579359 L162,693.443359 Z M164.365,695.615359 C164.683,695.615359 164.955,695.321359 164.955,694.995359 C164.955,694.669359 164.683,694.405359 164.365,694.405359 L163.218,694.405359 L163.218,695.615359 L164.365,695.615359 Z M159.203669,696.943359 L158.613669,695.662359 L158.606669,695.662359 L158.024669,696.943359 L159.203669,696.943359 Z" id="calendar"/></g></g></svg>