<svg width="28" height="33" viewBox="0 0 28 33" version="1.1" xmlns="http://www.w3.org/2000/svg" xmlns:xlink="http://www.w3.org/1999/xlink"><title>doc_good</title><desc>Created with Sketch.</desc><g id="Style-Guide-Elements" stroke="none" stroke-width="1" fill="none" fill-rule="evenodd"><g id="ICONS-CUSTOM" transform="translate(-60.000000, -544.000000)" fill="#FFF"><path d="M65.109,569.536359 L75.892,569.536359 C76.077,568.790359 76.381,568.092359 76.791,567.467359 L65.109,567.467359 L65.109,569.536359 L65.109,569.536359 Z M65.109,558.752359 L78.597,558.752359 L78.597,556.683359 L65.109,556.683359 L65.109,558.752359 Z M67.357,547.975359 L67.357,553.339359 L63.065,553.339359 L67.357,547.975359 L67.357,547.975359 Z M62.452,572.907359 L62.452,555.740359 L69.809,555.740359 L69.809,553.360359 L78.597,553.360359 L78.597,551.291359 L69.809,551.291359 L69.809,546.749359 L81.254,546.749359 L81.254,564.516359 C81.641,564.447359 82.038,564.405359 82.445,564.405359 C82.877,564.405359 83.297,564.449359 83.706,564.527359 L83.706,544.296359 L67.357,544.296359 L60.041,553.288359 L60,553.288359 L60,575.359359 L77.152,575.359359 C76.585,574.645359 76.164,573.813359 75.922,572.907359 L62.452,572.907359 L62.452,572.907359 Z M81.474,573.621359 L79.309,571.456359 L80.154,570.612359 L81.474,571.931359 L84.561,568.845359 L85.406,569.689359 L81.474,573.621359 L81.474,573.621359 Z M87.563,570.147359 C87.002,567.320359 84.255,565.484359 81.429,566.046359 C78.602,566.607359 76.766,569.354359 77.328,572.180359 C77.889,575.007359 80.636,576.843359 83.462,576.282359 C86.289,575.720359 88.125,572.973359 87.563,570.147359 L87.563,570.147359 Z M65.109,564.144359 L78.597,564.144359 L78.597,562.075359 L65.109,562.075359 L65.109,564.144359 Z" id="doc_good"/></g></g></svg>