<svg width="19" height="40" viewBox="0 0 19 40" version="1.1" xmlns="http://www.w3.org/2000/svg" xmlns:xlink="http://www.w3.org/1999/xlink"><title>Fill 1 Copy</title><desc>Created with Sketch.</desc><g id="Style-Guide-Elements" stroke="none" stroke-width="1" fill="none" fill-rule="evenodd"><g id="ICONS-CUSTOM" transform="translate(-144.000000, -316.000000)" fill="#FFF"><path d="M159.749555,351.969848 C159.631555,352.194848 159.534555,352.199848 159.475555,352.202848 C158.254555,352.263848 156.982555,352.286848 155.943555,352.200848 C154.712555,352.100848 153.575555,351.681848 152.565555,350.953848 L152.229555,350.715848 C151.937555,350.510848 151.661555,350.317848 151.443555,350.118848 C150.546555,349.300848 149.804555,348.324848 149.175555,347.137848 C148.553555,345.960848 148.095555,344.720848 147.811555,343.452848 C147.573555,342.385848 147.411555,341.523848 147.300555,340.738848 C147.137555,339.595848 147.054555,338.732848 147.029555,337.942848 C146.982555,336.337848 146.991555,335.046848 147.056555,333.884848 C147.142555,332.432848 147.291555,331.007848 147.502555,329.651848 C147.811555,327.652848 148.433555,325.804848 149.348555,324.158848 C149.603555,323.697848 149.926555,323.244848 150.269555,322.764848 C150.415555,322.558848 150.561555,322.353848 150.704555,322.146848 C151.622555,321.149848 152.718555,320.377848 153.961555,319.852848 C154.757555,319.517848 155.394555,319.353848 155.963555,319.339848 L156.470555,319.326848 C157.444555,319.299848 158.419555,319.271848 159.394555,319.332848 C159.660555,319.348848 159.891555,319.362848 159.975555,320.078848 C160.098555,321.119848 159.902555,322.209848 159.695555,323.363848 L159.669555,323.511848 C159.529555,324.293848 159.379555,324.909848 159.193555,325.454848 C158.772555,326.704848 158.065555,326.879848 157.239555,326.827848 L156.935555,326.807848 C156.293555,326.766848 155.649555,326.725848 155.008555,326.725848 L154.691555,326.729848 C153.327555,326.757848 152.216555,327.391848 151.479555,328.560848 C150.545555,330.034848 150.321555,331.621848 150.172555,333.119848 C150.007555,334.761848 149.996555,336.450848 150.138555,338.286848 C150.255555,339.756848 150.502555,340.930848 150.917555,341.983848 C151.397555,343.198848 152.147555,344.033848 153.143555,344.462848 C153.766555,344.732848 154.415555,344.772848 154.846555,344.779848 L155.154555,344.782848 C155.487555,344.782848 155.820555,344.773848 156.152555,344.764848 C156.713555,344.751848 157.270555,344.735848 157.829555,344.771848 C158.190555,344.795848 158.609555,344.930848 159.002555,345.758848 C159.395555,346.586848 159.553555,347.548848 159.664555,348.463848 C159.695555,348.720848 159.733555,348.978848 159.772555,349.235848 C159.837555,349.669848 159.897555,350.079848 159.916555,350.463848 C159.944555,351.083848 159.949555,351.589848 159.749555,351.969848 M162.739555,348.793848 C162.705555,348.563848 162.670555,348.334848 162.643555,348.101848 C162.500555,346.934848 162.289555,345.686848 161.713555,344.472848 C160.720555,342.380848 159.160555,341.852848 158.027555,341.778848 C157.379555,341.735848 156.729555,341.749848 156.076555,341.765848 C155.769555,341.773848 155.461555,341.781848 155.154555,341.781848 L154.895555,341.779848 C154.511555,341.773848 154.369555,341.724848 154.332555,341.708848 C154.179555,341.642848 153.946555,341.484848 153.708555,340.881848 C153.405555,340.113848 153.221555,339.213848 153.128555,338.051848 C153.001555,336.398848 153.010555,334.882848 153.156555,333.417848 C153.279555,332.184848 153.429555,331.087848 154.015555,330.162848 C154.213555,329.849848 154.406555,329.735848 154.755555,329.728848 L155.008555,329.725848 C155.585555,329.725848 156.163555,329.764848 156.741555,329.801848 L157.053555,329.821848 C159.501555,329.970848 161.249555,328.747848 162.036555,326.415848 C162.270555,325.727848 162.455555,324.972848 162.622555,324.039848 L162.648555,323.892848 C162.885555,322.573848 163.129555,321.209848 162.954555,319.727848 C162.718555,317.720848 161.456555,316.453848 159.579555,316.338848 C158.520555,316.270848 157.451555,316.297848 156.389555,316.327848 L155.888555,316.340848 C154.931555,316.364848 153.948555,316.602848 152.795555,317.089848 C151.113555,317.798848 149.639555,318.847848 148.411555,320.208848 L148.285555,320.369848 C148.136555,320.589848 147.981555,320.804848 147.827555,321.021848 C147.450555,321.549848 147.061555,322.094848 146.725555,322.702848 C145.638555,324.657848 144.901555,326.840848 144.537555,329.191848 C144.313555,330.642848 144.152555,332.162848 144.061555,333.713848 C143.990555,334.965848 143.981555,336.337848 144.031555,338.032848 C144.066555,339.194848 144.209555,340.314848 144.329555,341.159848 C144.452555,342.024848 144.628555,342.960848 144.884555,344.106848 C145.225555,345.633848 145.775555,347.125848 146.523555,348.540848 C147.307555,350.018848 148.281555,351.294848 149.421555,352.335848 C149.782555,352.664848 150.167555,352.933848 150.507555,353.172848 L150.811555,353.387848 C152.272555,354.439848 153.917555,355.046848 155.699555,355.190848 C156.265555,355.236848 156.859555,355.259848 157.516555,355.259848 C158.219555,355.259848 158.923555,355.233848 159.622555,355.198848 C160.807555,355.140848 161.820555,354.473848 162.403555,353.367848 C162.953555,352.323848 162.956555,351.292848 162.912555,350.323848 C162.887555,349.787848 162.812555,349.281848 162.739555,348.793848" id="Fill-1-Copy"/></g></g></svg>