<svg width="34" height="17" viewBox="0 0 34 17" version="1.1" xmlns="http://www.w3.org/2000/svg" xmlns:xlink="http://www.w3.org/1999/xlink"><title>credit_down</title><desc>Created with Sketch.</desc><g id="Style-Guide-Elements" stroke="none" stroke-width="1" fill="none" fill-rule="evenodd"><g id="ICONS-CUSTOM" transform="translate(-396.000000, -688.000000)" fill="#FFF"><path d="M427.404,700.646359 L427.404,702.552359 L408.35,702.552359 L408.35,700.646359 L427.404,700.646359 Z M427.404,698.296359 L427.404,690.646359 L408.35,690.646359 L408.35,698.296359 L427.404,698.296359 Z M428.377,688.296359 L407.377,688.296359 C406.619,688.296359 406,688.916359 406,689.673359 L406,703.526359 C406,704.283359 406.619,704.902359 407.377,704.902359 L428.377,704.902359 C429.135,704.902359 429.754,704.283359 429.754,703.526359 L429.754,689.673359 C429.754,688.916359 429.135,688.296359 428.377,688.296359 Z M396,700.221359 L400.058,704.278359 L404.112,700.223359 L402.712,698.599359 L401.322,699.990359 L401.322,690.296359 L399.006,690.296359 L399.006,699.950359 L397.638,698.583359 L396,700.221359 Z" id="credit_down"/></g></g></svg>