<svg width="28" height="33" viewBox="0 0 28 33" version="1.1" xmlns="http://www.w3.org/2000/svg" xmlns:xlink="http://www.w3.org/1999/xlink"><title>no_clue</title><desc>Created with Sketch.</desc><g id="Style-Guide-Elements" stroke="none" stroke-width="1" fill="none" fill-rule="evenodd"><g id="ICONS-CUSTOM" transform="translate(-223.000000, -688.000000)" fill="#FFF"><path d="M237.148512,709.633359 C236.207512,709.247359 236.207512,709.004359 236.207512,708.875359 C236.209512,708.815359 236.243512,708.519359 236.794512,708.519359 C236.908512,708.519359 237.244512,708.561359 237.862512,708.940359 C237.998512,709.026359 238.149512,709.072359 238.299512,709.072359 C238.356512,709.072359 238.414512,709.065359 238.470512,709.052359 C238.683512,709.003359 238.869512,708.868359 238.988512,708.674359 L239.240512,708.291359 C239.368512,708.100359 239.411512,707.878359 239.364512,707.667359 C239.320512,707.461359 239.194512,707.274359 239.034512,707.173359 C238.840512,707.039359 238.450512,706.801359 237.916512,706.639359 L237.916512,706.086359 C237.916512,705.651359 237.562512,705.296359 237.126512,705.296359 L236.555512,705.296359 C236.118512,705.296359 235.763512,705.651359 235.763512,706.086359 L235.763512,706.639359 C234.587512,707.032359 234.049512,708.078359 234.049512,708.913359 C234.049512,710.462359 235.222512,711.154359 236.244512,711.584359 C237.431512,712.075359 237.431512,712.357359 237.431512,712.477359 C237.431512,712.699359 237.184512,712.860359 236.844512,712.860359 C236.289512,712.860359 235.647512,712.346359 235.576512,712.288359 C235.438512,712.173359 235.265512,712.110359 235.090512,712.110359 C235.054512,712.110359 235.018512,712.113359 234.983512,712.118359 C234.756512,712.150359 234.554512,712.280359 234.412512,712.484359 C234.364512,712.554359 234.317512,712.629359 234.262512,712.720359 C234.226512,712.781359 234.188512,712.843359 234.127512,712.934359 C233.912512,713.299359 233.971512,713.672359 234.288512,713.951359 C234.387512,714.045359 234.907512,714.505359 235.763512,714.748359 L235.763512,715.447359 C235.763512,715.884359 236.118512,716.238359 236.555512,716.238359 L237.126512,716.238359 C237.562512,716.238359 237.916512,715.884359 237.916512,715.447359 L237.916512,714.734359 C238.993512,714.371359 239.679512,713.479359 239.679512,712.426359 C239.679512,710.657359 237.969512,709.965359 237.148512,709.633359 M248.076,690.691359 L240.671,701.429359 L237.216,701.429359 L244.627,690.646359 L248.076,690.646359 L248.076,690.691359 L248.076,690.691359 Z M248.076,701.429359 L243.531,701.429359 L248.076,694.874359 L248.076,701.429359 L248.076,701.429359 Z M225.35,717.977359 L248.076,717.977359 L248.076,703.778359 L225.35,703.778359 L225.35,717.977359 Z M225.35,700.286359 L231.96,690.646359 L235.444,690.646359 L228.035,701.429359 L225.35,701.429359 L225.35,700.286359 L225.35,700.286359 Z M225.35,690.646359 L229.111,690.646359 L225.35,696.126359 L225.35,690.646359 L225.35,690.646359 Z M241.777,690.646359 L234.366,701.429359 L230.885,701.429359 L238.294,690.646359 L241.777,690.646359 L241.777,690.646359 Z M248.738,688.296359 L224.688,688.296359 C223.759,688.296359 223,689.056359 223,689.984359 L223,718.639359 C223,719.568359 223.759,720.328359 224.688,720.328359 L248.738,720.328359 C249.666,720.328359 250.426,719.568359 250.426,718.639359 L250.426,689.984359 C250.426,689.056359 249.666,688.296359 248.738,688.296359 L248.738,688.296359 Z" id="no_clue"/></g></g></svg>