<svg width="33" height="33" viewBox="0 0 33 33" version="1.1" xmlns="http://www.w3.org/2000/svg" xmlns:xlink="http://www.w3.org/1999/xlink"><title>checkmark</title><desc>Created with Sketch.</desc><g id="Style-Guide-Elements" stroke="none" stroke-width="1" fill="none" fill-rule="evenodd"><g id="ICONS-CUSTOM" transform="translate(-396.000000, -398.000000)" fill="#FFF"><path d="M412.149,398.296359 C403.244,398.296359 396,405.540359 396,414.445359 C396,423.349359 403.244,430.594359 412.149,430.594359 C421.053,430.594359 428.298,423.349359 428.298,414.445359 C428.298,405.540359 421.053,398.296359 412.149,398.296359 Z M412.149,427.978359 C404.687,427.978359 398.616,421.907359 398.616,414.445359 C398.616,406.983359 404.687,400.912359 412.149,400.912359 C419.611,400.912359 425.682,406.983359 425.682,414.445359 C425.682,421.907359 419.611,427.978359 412.149,427.978359 Z M416.672,409.296359 L418.549,411.173359 L409.811,419.910359 L405,415.100359 L406.877,413.223359 L409.811,416.156359 L416.672,409.296359 Z" id="checkmark"/></g></g></svg>