<svg width="31" height="33" viewBox="0 0 31 33" version="1.1" xmlns="http://www.w3.org/2000/svg" xmlns:xlink="http://www.w3.org/1999/xlink"><title>light_bulb</title><desc>Created with Sketch.</desc><g id="Style-Guide-Elements" stroke="none" stroke-width="1" fill="none" fill-rule="evenodd"><g id="ICONS-CUSTOM" transform="translate(-144.000000, -398.000000)" fill="#FFF"><path d="M157.075,429.408359 C157.555,430.128359 158.581,430.823359 159.631,430.823359 C159.727,430.823359 159.824,430.817359 159.921,430.805359 C160.901,430.685359 161.67,430.215359 162.209,429.408359 L162.283,429.296359 L157,429.296359 L157.075,429.408359 Z M166.972899,411.489359 C165.892899,408.384359 162.798899,406.296359 159.274899,406.296359 C158.972899,406.296359 158.693899,406.319359 158.323899,406.350359 C156.167899,406.565359 154.338899,407.467359 152.885899,409.030359 C150.661899,411.463359 150.374899,415.216359 152.184899,418.155359 C152.584899,418.829359 153.047899,419.448359 153.494899,420.047359 L153.861899,420.542359 C154.551899,421.539359 154.901899,422.574359 154.901899,423.619359 C154.901899,424.385359 155.593899,425.009359 156.446899,425.009359 L161.895899,425.034359 C162.851899,425.034359 163.518899,424.410359 163.518899,423.515359 C163.518899,423.450359 163.524899,423.384359 163.530899,423.318359 C163.538899,423.227359 163.543899,423.138359 163.543899,423.088359 C163.630899,422.149359 164.019899,421.227359 164.733899,420.267359 L165.061899,419.828359 C165.381899,419.407359 165.744899,418.931359 166.044899,418.429359 C167.495899,416.197359 167.807899,413.861359 166.972899,411.489359 Z M164.139899,417.191359 L164.136899,417.196359 C163.934899,417.555359 163.667899,417.902359 163.384899,418.270359 L162.895899,418.927359 C161.935899,420.250359 161.420899,421.463359 161.279899,422.735359 L157.164899,422.735359 C156.995899,421.473359 156.513899,420.297359 155.734899,419.243359 C155.550899,418.954359 155.338899,418.688359 155.133899,418.433359 C154.778899,417.950359 154.410899,417.451359 154.126899,416.961359 C153.101899,415.270359 152.799899,412.556359 154.557899,410.594359 C155.655899,409.418359 156.963899,408.773359 158.556899,408.621359 L158.620899,408.614359 C158.824899,408.591359 159.017899,408.570359 159.248899,408.570359 C161.747899,408.570359 164.032899,410.063359 164.804899,412.201359 C165.424899,413.957359 165.207899,415.590359 164.139899,417.191359 Z M159.142,398.296359 C158.512,398.296359 158,398.809359 158,399.440359 L158,403.045359 C158,403.675359 158.512,404.187359 159.142,404.187359 C159.773,404.187359 160.286,403.675359 160.286,403.045359 L160.286,399.440359 C160.286,398.809359 159.773,398.296359 159.142,398.296359 Z M174.633751,408.067508 C174.428751,407.472508 173.777751,407.153508 173.180751,407.358508 L169.771751,408.530508 C169.175751,408.735508 168.857751,409.386508 169.061751,409.982508 C169.266751,410.578508 169.918751,410.897508 170.514751,410.692508 L173.923751,409.520508 C174.520751,409.315508 174.838751,408.664508 174.633751,408.067508 Z M144.06214,408.067508 C144.26714,407.472508 144.91914,407.153508 145.51514,407.358508 L148.92514,408.530508 C149.52014,408.735508 149.83914,409.386508 149.63414,409.982508 C149.42914,410.578508 148.77714,410.897508 148.18214,410.692508 L144.77214,409.520508 C144.17614,409.315508 143.85714,408.664508 144.06214,408.067508 Z M167.509036,400.448108 C166.963036,400.134108 166.263036,400.323108 165.949036,400.870108 L164.152036,403.995108 C163.838036,404.541108 164.026036,405.241108 164.572036,405.555108 C165.119036,405.870108 165.819036,405.681108 166.133036,405.135108 L167.931036,402.009108 C168.245036,401.462108 168.056036,400.763108 167.509036,400.448108 Z M150.573445,400.448108 C151.119445,400.134108 151.819445,400.323108 152.133445,400.870108 L153.931445,403.995108 C154.245445,404.541108 154.056445,405.241108 153.510445,405.555108 C152.963445,405.870108 152.263445,405.681108 151.949445,405.135108 L150.152445,402.009108 C149.837445,401.462108 150.026445,400.763108 150.573445,400.448108 Z M161.526,426.296359 L157.143,426.296359 C156.513,426.296359 156,426.808359 156,427.438359 C156,428.069359 156.513,428.582359 157.143,428.582359 L161.526,428.582359 C162.156,428.582359 162.669,428.069359 162.669,427.438359 C162.669,426.808359 162.156,426.296359 161.526,426.296359 Z" id="light_bulb"/></g></g></svg>