<svg width="32" height="31" viewBox="0 0 32 31" version="1.1" xmlns="http://www.w3.org/2000/svg" xmlns:xlink="http://www.w3.org/1999/xlink"><title>percent</title><desc>Created with Sketch.</desc><g id="Style-Guide-Elements" stroke="none" stroke-width="1" fill="none" fill-rule="evenodd"><g id="ICONS-CUSTOM" transform="translate(-60.000000, -398.000000)" fill="#FFF"><path d="M63.156,404.761359 C63.156,402.936359 64.641,401.451359 66.466,401.451359 C68.291,401.451359 69.776,402.936359 69.776,404.761359 C69.776,406.586359 68.291,408.071359 66.466,408.071359 C64.641,408.071359 63.156,406.586359 63.156,404.761359 L63.156,404.761359 Z M72.931,404.761359 C72.931,401.196359 70.031,398.296359 66.466,398.296359 C62.901,398.296359 60,401.196359 60,404.761359 C60,408.326359 62.901,411.226359 66.466,411.226359 C70.031,411.226359 72.931,408.326359 72.931,404.761359 Z M89.2051378,398.682998 C88.5481378,398.111998 87.5521378,398.180998 86.9801378,398.839998 L63.3871378,426.005998 C62.8151378,426.663998 62.8851378,427.659998 63.5431378,428.230998 C63.8421378,428.490998 64.2101378,428.617998 64.5771378,428.617998 C65.0181378,428.617998 65.4571378,428.433998 65.7691378,428.073998 L89.3621378,400.907998 C89.9331378,400.249998 89.8631378,399.253998 89.2051378,398.682998 Z M85.465,415.296359 C81.9,415.296359 79,418.197359 79,421.762359 C79,425.327359 81.9,428.227359 85.465,428.227359 C89.031,428.227359 91.931,425.327359 91.931,421.762359 C91.931,418.197359 89.031,415.296359 85.465,415.296359 Z M85.465,425.072359 C83.64,425.072359 82.155,423.587359 82.155,421.762359 C82.155,419.937359 83.64,418.451359 85.465,418.451359 C87.291,418.451359 88.776,419.937359 88.776,421.762359 C88.776,423.587359 87.291,425.072359 85.465,425.072359 Z" id="percent"/></g></g></svg>