<svg width="21" height="28" viewBox="0 0 21 28" version="1.1" xmlns="http://www.w3.org/2000/svg" xmlns:xlink="http://www.w3.org/1999/xlink"><title>document</title><desc>Created with Sketch.</desc><g id="Style-Guide-Elements" stroke="none" stroke-width="1" fill="none" fill-rule="evenodd"><g id="ICONS-CUSTOM" transform="translate(-396.000000, -616.000000)" fill="#FFF"><path d="M400.519,633.849359 L412.447,633.849359 L412.447,632.019359 L400.519,632.019359 L400.519,633.849359 Z M400.519,629.080359 L412.447,629.080359 L412.447,627.250359 L400.519,627.250359 L400.519,629.080359 Z M400.519,638.617359 L412.447,638.617359 L412.447,636.787359 L400.519,636.787359 L400.519,638.617359 Z M414.796,641.598359 L398.169,641.598359 L398.169,626.417359 L404.675,626.417359 L404.675,624.312359 L412.447,624.312359 L412.447,622.481359 L404.675,622.481359 L404.675,618.465359 L414.796,618.465359 L414.796,641.598359 L414.796,641.598359 Z M402.507,619.549359 L402.507,624.293359 L398.711,624.293359 L402.507,619.549359 L402.507,619.549359 Z M402.507,616.296359 L396.037,624.248359 L396,624.248359 L396,643.767359 L416.965,643.767359 L416.965,616.296359 L402.507,616.296359 L402.507,616.296359 Z" id="document"/></g></g></svg>