<svg width="18" height="30" viewBox="0 0 18 30" version="1.1" xmlns="http://www.w3.org/2000/svg" xmlns:xlink="http://www.w3.org/1999/xlink"><title>question_mark</title><desc>Created with Sketch.</desc><g id="Style-Guide-Elements" stroke="none" stroke-width="1" fill="none" fill-rule="evenodd"><g id="ICONS-CUSTOM" transform="translate(-315.000000, -471.000000)" fill="#FFF"><path d="M321.566127,491.335359 L321.566127,489.327359 C321.566127,483.396359 328.740127,483.874359 328.740127,478.470359 C328.740127,476.222359 327.114127,474.260359 324.005127,474.260359 C320.131127,474.260359 318.361127,476.508359 317.404127,477.513359 C316.974127,477.943359 316.591127,477.943359 316.161127,477.560359 L315.252127,476.747359 C314.870127,476.413359 314.965127,475.887359 315.252127,475.504359 C315.252127,475.504359 317.978127,471.296359 324.005127,471.296359 C328.979127,471.296359 332.326127,474.213359 332.326127,478.613359 C332.326127,484.878359 324.769127,485.405359 324.769127,489.327359 L324.769127,491.288359 C324.769127,491.957359 324.244127,492.244359 323.765127,492.244359 L322.474127,492.244359 C321.996127,492.244359 321.566127,491.861359 321.566127,491.335359 Z M323.063,496.296359 C324.221,496.296359 325.126,497.200359 325.126,498.359359 C325.126,499.481359 324.221,500.422359 323.063,500.422359 C321.941,500.422359 321,499.481359 321,498.359359 C321,497.200359 321.941,496.296359 323.063,496.296359 Z" id="question_mark"/></g></g></svg>