<svg width="33" height="20" viewBox="0 0 33 20" version="1.1" xmlns="http://www.w3.org/2000/svg" xmlns:xlink="http://www.w3.org/1999/xlink"><title>dollah_bill</title><desc>Created with Sketch.</desc><g id="Style-Guide-Elements" stroke="none" stroke-width="1" fill="none" fill-rule="evenodd"><g id="ICONS-CUSTOM" transform="translate(-488.000000, -471.000000)" fill="#FFF"><path d="M503.544803,480.178359 C502.484803,479.744359 502.484803,479.470359 502.484803,479.325359 C502.486803,479.257359 502.525803,478.925359 503.145803,478.925359 C503.274803,478.925359 503.651803,478.971359 504.348803,479.398359 C504.500803,479.494359 504.670803,479.546359 504.839803,479.546359 C504.904803,479.546359 504.968803,479.538359 505.031803,479.525359 C505.272803,479.469359 505.480803,479.317359 505.615803,479.099359 L505.898803,478.668359 C506.042803,478.452359 506.091803,478.202359 506.038803,477.966359 C505.988803,477.734359 505.847803,477.523359 505.666803,477.409359 C505.448803,477.258359 505.009803,476.991359 504.408803,476.808359 L504.408803,476.186359 C504.408803,475.695359 504.009803,475.296359 503.519803,475.296359 L502.876803,475.296359 C502.384803,475.296359 501.984803,475.695359 501.984803,476.186359 L501.984803,476.808359 C500.661803,477.250359 500.056803,478.427359 500.056803,479.368359 C500.056803,481.111359 501.375803,481.891359 502.526803,482.375359 C503.862803,482.927359 503.862803,483.244359 503.862803,483.380359 C503.862803,483.630359 503.584803,483.811359 503.201803,483.811359 C502.577803,483.811359 501.854803,483.232359 501.774803,483.167359 C501.618803,483.038359 501.423803,482.966359 501.227803,482.966359 C501.186803,482.966359 501.146803,482.970359 501.106803,482.976359 C500.851803,483.012359 500.624803,483.157359 500.463803,483.388359 C500.410803,483.466359 500.357803,483.551359 500.295803,483.653359 C500.254803,483.722359 500.212803,483.792359 500.143803,483.893359 C499.900803,484.306359 499.968803,484.724359 500.324803,485.039359 C500.436803,485.145359 501.021803,485.662359 501.984803,485.936359 L501.984803,486.723359 C501.984803,487.214359 502.384803,487.613359 502.876803,487.613359 L503.519803,487.613359 C504.009803,487.613359 504.408803,487.214359 504.408803,486.723359 L504.408803,485.921359 C505.620803,485.512359 506.393803,484.508359 506.393803,483.322359 C506.393803,481.331359 504.468803,480.552359 503.544803,480.178359 M490.515,488.359359 L517.75,488.359359 L517.75,473.811359 L490.515,473.811359 L490.515,488.359359 Z M488,490.873359 L520.265,490.873359 L520.265,471.296359 L488,471.296359 L488,490.873359 Z" id="dollah_bill"/></g></g></svg>