<svg width="30" height="25" viewBox="0 0 30 25" version="1.1" xmlns="http://www.w3.org/2000/svg" xmlns:xlink="http://www.w3.org/1999/xlink"><title>squiggle</title><desc>Created with Sketch.</desc><g id="Style-Guide-Elements" stroke="none" stroke-width="1" fill="none" fill-rule="evenodd"><g id="ICONS-CUSTOM" transform="translate(-144.000000, -544.000000)" fill="#FFF"><path d="M171.218197,560.235325 L166.896214,551.591359 C166.693214,551.185359 166.276214,550.943359 165.806214,550.988359 C165.353214,551.032359 164.974214,551.351359 164.852214,551.790359 L161.585214,563.597359 L156.917214,545.126359 C156.793214,544.640359 156.357214,544.298359 155.854214,544.296359 L155.850214,544.296359 C155.350214,544.296359 154.913214,544.633359 154.786214,545.117359 L151.100214,559.230359 L148.876712,554.841557 L150.389585,554.19279 L150.486585,554.15079 C150.713585,554.04679 150.685585,553.67179 150.439585,553.55279 L145.874585,551.32879 C145.707585,551.24679 145.528585,551.32579 145.474585,551.50379 L144.014585,556.36279 C143.935585,556.62479 144.192585,556.89979 144.422585,556.80279 L144.496585,556.77079 L146.577585,555.84079 L146.585585,555.85679 L146.862774,555.735563 L150.450214,562.814359 C150.658214,563.223359 151.101214,563.456359 151.548214,563.411359 C152.003214,563.362359 152.380214,563.038359 152.496214,562.596359 L155.833214,549.815359 L160.471214,568.165359 C160.593214,568.649359 161.026214,568.990359 161.525214,568.995359 L161.538214,568.995359 C162.032214,568.995359 162.465214,568.666359 162.598214,568.189359 L166.210214,555.136359 L169.200108,561.117041 L167.253381,561.951478 L167.156381,561.993478 C166.927381,562.098478 166.955381,562.476478 167.204381,562.597478 L171.811381,564.842478 C171.980381,564.924478 172.160381,564.845478 172.215381,564.666478 L173.688381,559.761478 C173.768381,559.496478 173.509381,559.218478 173.277381,559.316478 L173.202381,559.349478 L171.218197,560.235325 Z" id="squiggle"/></g></g></svg>