<svg width="27" height="33" viewBox="0 0 27 33" version="1.1" xmlns="http://www.w3.org/2000/svg" xmlns:xlink="http://www.w3.org/1999/xlink"><title>document_dollar</title><desc>Created with Sketch.</desc><g id="Style-Guide-Elements" stroke="none" stroke-width="1" fill="none" fill-rule="evenodd"><g id="ICONS-CUSTOM" transform="translate(-488.000000, -616.000000)" fill="#FFF"><path d="M502.048335,633.552359 C500.695335,632.998359 500.168335,632.495359 500.168335,631.759359 C500.168335,631.343359 500.495335,630.556359 501.736335,630.556359 C502.094335,630.556359 502.729335,630.683359 503.721335,631.291359 L503.763335,631.316359 C503.911335,631.411359 504.070335,631.443359 504.224335,631.407359 C504.389335,631.370359 504.539335,631.255359 504.640335,631.090359 L505.038335,630.485359 C505.166335,630.294359 505.163335,630.117359 505.138335,630.002359 C505.104335,629.844359 505.005335,629.700359 504.883335,629.624359 C504.633335,629.448359 503.881335,628.973359 502.850335,628.755359 L502.850335,627.889359 C502.850335,627.562359 502.585335,627.296359 502.258335,627.296359 L501.361335,627.296359 C501.034335,627.296359 500.768335,627.562359 500.768335,627.889359 L500.768335,628.746359 C498.816335,629.158359 498.077335,630.720359 498.077335,631.822359 C498.077335,633.853359 499.540335,634.749359 501.122335,635.416359 C502.751335,636.091359 503.385335,636.652359 503.385335,637.417359 C503.385335,638.142359 502.725335,638.668359 501.816335,638.668359 C500.701335,638.668359 499.543335,637.729359 499.413335,637.620359 C499.288335,637.518359 499.135335,637.473359 498.985335,637.496359 C498.810335,637.520359 498.650335,637.626359 498.533335,637.796359 C498.459335,637.902359 498.389335,638.017359 498.319335,638.132359 C498.253335,638.240359 498.188335,638.348359 498.118335,638.448359 L498.109335,638.463359 C497.848335,638.907359 498.120335,639.149359 498.246335,639.260359 C498.437335,639.440359 499.329335,640.194359 500.768335,640.472359 L500.768335,641.428359 C500.768335,641.755359 501.034335,642.020359 501.361335,642.020359 L502.258335,642.020359 C502.585335,642.020359 502.850335,641.755359 502.850335,641.428359 L502.850335,640.470359 C504.482335,640.107359 505.619335,638.882359 505.619335,637.338359 C505.619335,635.180359 503.775335,634.252359 502.048335,633.552359 M512.052,646.154359 L490.488,646.154359 L490.488,627.907359 L498.866,627.907359 L498.866,618.785359 L512.052,618.785359 L512.052,646.154359 L512.052,646.154359 Z M496.378,620.665359 L496.378,625.419359 L492.057,625.419359 L496.378,620.665359 L496.378,620.665359 Z M496.988,616.296359 L488,626.182359 L488,648.642359 L514.54,648.642359 L514.54,616.296359 L496.988,616.296359 L496.988,616.296359 Z" id="document_dollar"/></g></g></svg>