<svg width="185" height="38" viewBox="0 0 185 38" xmlns="http://www.w3.org/2000/svg" xmlns:xlink="http://www.w3.org/1999/xlink">
    <defs>
        <path id="1uakm3vm4a" d="M0 .391h16.81v21.847H0z"/>
        <path id="jw1p2q33oc" d="M.648.391h16.81v21.847H.648z"/>
        <path id="ars9txlgze" d="M.246.425H3.32V3.5H.246z"/>
    </defs>
    <g fill="none" fill-rule="evenodd">
        <g transform="translate(0 .409)">
            <mask id="jna443so8b" fill="#fff">
                <use xlink:href="#1uakm3vm4a"/>
            </mask>
            <path d="m0 18.84 2.762-3.308c1.91 1.578 3.913 2.578 6.341 2.578 1.91 0 3.064-.758 3.064-2.002v-.06c0-1.184-.728-1.791-4.278-2.7C3.61 12.253.849 11.071.849 6.853v-.06C.85 2.94 3.945.39 8.285.39c3.094 0 5.734.971 7.889 2.7l-2.428 3.52c-1.881-1.304-3.732-2.093-5.522-2.093s-2.731.819-2.731 1.85v.06c0 1.398.91 1.852 4.582 2.793 4.308 1.122 6.736 2.67 6.736 6.372v.06c0 4.217-3.217 6.585-7.799 6.585-3.216 0-6.462-1.124-9.011-3.399" fill="#003449" mask="url(#jna443so8b)"/>
        </g>
        <path d="M19.785 17.73v-7.706h-1.942V6.079h1.942V1.923h4.612v4.156h3.823v3.945h-3.823v6.948c0 1.061.455 1.577 1.486 1.577.85 0 1.608-.212 2.276-.576v3.701c-.971.578-2.093.941-3.64.941-2.822 0-4.734-1.122-4.734-4.885M30.406 6.08h4.612v3.277c.94-2.246 2.458-3.702 5.188-3.58V10.6h-.242c-3.064 0-4.946 1.85-4.946 5.733v6.008h-4.612V6.08zM52.1 12.937c-.272-2.064-1.486-3.459-3.428-3.459-1.912 0-3.156 1.365-3.519 3.459H52.1zm-11.468 1.365v-.06c0-4.643 3.307-8.465 8.04-8.465 5.43 0 7.919 4.216 7.919 8.828 0 .364-.03.79-.06 1.214H45.213c.455 2.094 1.911 3.186 3.975 3.186 1.548 0 2.67-.486 3.944-1.67l2.64 2.337c-1.517 1.881-3.701 3.034-6.644 3.034-4.886 0-8.496-3.429-8.496-8.404zM69.489 12.937c-.273-2.064-1.487-3.459-3.428-3.459-1.912 0-3.156 1.365-3.52 3.459h6.948zm-11.47 1.365v-.06c0-4.643 3.308-8.465 8.042-8.465 5.43 0 7.918 4.216 7.918 8.828 0 .364-.03.79-.06 1.214H62.601c.456 2.094 1.912 3.186 3.976 3.186 1.547 0 2.67-.486 3.944-1.67l2.639 2.337c-1.517 1.881-3.701 3.034-6.644 3.034-4.886 0-8.496-3.429-8.496-8.404zM76.955 17.73v-7.706h-1.942V6.079h1.942V1.923h4.612v4.156h3.823v3.945h-3.823v6.948c0 1.061.455 1.577 1.486 1.577.85 0 1.608-.212 2.276-.576v3.701c-.971.578-2.094.941-3.64.941-2.822 0-4.734-1.122-4.734-4.885" fill="#003449"/>
        <g transform="translate(86.4 .409)">
            <mask id="80jf0j6bod" fill="#fff">
                <use xlink:href="#jw1p2q33oc"/>
            </mask>
            <path d="m.648 18.84 2.762-3.308C5.32 17.11 7.323 18.11 9.75 18.11c1.91 0 3.064-.758 3.064-2.002v-.06c0-1.184-.728-1.791-4.278-2.7-4.278-1.094-7.04-2.276-7.04-6.494v-.06C1.498 2.94 4.593.39 8.933.39c3.094 0 5.734.971 7.889 2.7l-2.428 3.52C12.512 5.307 10.66 4.518 8.87 4.518s-2.731.819-2.731 1.85v.06c0 1.398.91 1.852 4.582 2.793 4.308 1.122 6.736 2.67 6.736 6.372v.06c0 4.217-3.217 6.585-7.799 6.585-3.216 0-6.462-1.124-9.011-3.399" fill="#009FC7" mask="url(#80jf0j6bod)"/>
        </g>
        <path d="M105.782 6.08h4.612v2.306c1.063-1.366 2.458-2.61 4.794-2.61 2.124 0 3.732.94 4.582 2.58 1.426-1.67 3.124-2.58 5.34-2.58 3.428 0 5.492 2.063 5.492 5.978v10.588h-4.612V13.27c0-2.184-.972-3.307-2.701-3.307-1.73 0-2.791 1.123-2.791 3.307v9.072h-4.612V13.27c0-2.184-.97-3.307-2.7-3.307-1.73 0-2.792 1.123-2.792 3.307v9.072h-4.612V6.08zM143.014 16.608v-.82c-.79-.363-1.821-.606-2.944-.606-1.972 0-3.184.789-3.184 2.246v.06c0 1.244 1.03 1.972 2.517 1.972 2.155 0 3.61-1.184 3.61-2.852m-10.588 1.061v-.06c0-3.55 2.7-5.188 6.553-5.188 1.639 0 2.822.273 3.976.667v-.272c0-1.912-1.184-2.975-3.49-2.975-1.76 0-3.004.335-4.49.88l-1.153-3.52c1.79-.788 3.55-1.304 6.31-1.304 2.52 0 4.34.668 5.492 1.82 1.215 1.215 1.76 3.004 1.76 5.189v9.437h-4.46v-1.76c-1.123 1.244-2.67 2.063-4.915 2.063-3.065 0-5.583-1.76-5.583-4.977M149.472 6.08h4.612v3.277c.94-2.246 2.457-3.702 5.188-3.58V10.6h-.243c-3.064 0-4.945 1.85-4.945 5.733v6.008h-4.612V6.08zM162.657 17.73v-7.706h-1.942V6.079h1.942V1.923h4.612v4.156h3.823v3.945h-3.823v6.948c0 1.061.455 1.577 1.486 1.577.85 0 1.608-.212 2.276-.576v3.701c-.97.578-2.093.941-3.64.941-2.822 0-4.734-1.122-4.734-4.885M171.722 20.188l1.972-3.034c1.759 1.274 3.61 1.942 5.127 1.942 1.335 0 1.942-.486 1.942-1.214v-.06c0-1.002-1.577-1.335-3.368-1.882-2.275-.668-4.854-1.73-4.854-4.884v-.061c0-3.307 2.67-5.158 5.947-5.158 2.063 0 4.307.698 6.067 1.881l-1.76 3.186c-1.607-.941-3.215-1.517-4.4-1.517-1.121 0-1.697.485-1.697 1.122v.061c0 .91 1.547 1.334 3.307 1.942 2.275.758 4.914 1.85 4.914 4.824v.06c0 3.612-2.7 5.25-6.22 5.25-2.274 0-4.824-.758-6.977-2.458" fill="#009FC7"/>
        <g transform="translate(181.6 26.809)">
            <mask id="ujmvwjt65f" fill="#fff">
                <use xlink:href="#ars9txlgze"/>
            </mask>
            <path d="M1.723 1.914c.155 0 .265-.029.328-.085.063-.057.095-.139.095-.245a.44.44 0 0 0-.02-.137.216.216 0 0 0-.066-.097.31.31 0 0 0-.12-.057.792.792 0 0 0-.184-.019H1.48v.64h.243zm.033-.892c.243 0 .422.044.538.132.116.087.174.217.174.388a.52.52 0 0 1-.112.336.57.57 0 0 1-.335.19.273.273 0 0 1 .063.054.536.536 0 0 1 .05.074l.478.703H2.3c-.046 0-.08-.018-.1-.053l-.426-.635a.135.135 0 0 0-.045-.042.173.173 0 0 0-.081-.015H1.48V2.9h-.328V1.022h.604zm.026 2.289a1.35 1.35 0 0 0 .676-.182 1.287 1.287 0 0 0 .477-.482 1.371 1.371 0 0 0 .18-.682 1.365 1.365 0 0 0-.387-.96 1.311 1.311 0 0 0-.946-.397 1.305 1.305 0 0 0-1.146.67 1.37 1.37 0 0 0-.178.687 1.405 1.405 0 0 0 .178.682 1.299 1.299 0 0 0 .79.617c.114.031.232.047.356.047zm0-2.886a1.537 1.537 0 0 1 .776.21 1.519 1.519 0 0 1 .706.92 1.505 1.505 0 0 1 0 .817 1.524 1.524 0 0 1-.706.918 1.505 1.505 0 0 1-.776.21 1.497 1.497 0 0 1-.774-.21A1.56 1.56 0 0 1 .3 2.372a1.495 1.495 0 0 1-.055-.407 1.505 1.505 0 0 1 .21-.777A1.547 1.547 0 0 1 1.782.425z" fill="#009FC7" mask="url(#ujmvwjt65f)"/>
        </g>
        <path d="M110.533 32.238v-.023c0-1.029-.693-1.71-1.514-1.71-.82 0-1.503.681-1.503 1.71v.023c0 1.029.683 1.711 1.503 1.711.82 0 1.514-.67 1.514-1.71m-2.993 2.277v.809h-1.757v-8.438h1.756v3.132c.429-.578 1.017-1.006 1.93-1.006 1.446 0 2.82 1.133 2.82 3.202v.023c.002 2.07-1.35 3.202-2.818 3.202-.937 0-1.515-.427-1.931-.924M116.901 29.13h1.826l-2.38 6.345c-.474 1.26-.983 1.734-2.035 1.734-.635 0-1.11-.162-1.56-.428l.59-1.272c.23.139.52.244.75.244.301 0 .464-.093.614-.405l-2.429-6.219h1.861l1.41 4.22 1.353-4.22zM122.494 27.233h1.92l2.126 3.422 2.127-3.422h1.918l.001 8.092h-1.769v-5.283L126.54 33.5h-.046l-2.254-3.422v5.248h-1.745zM131.88 29.13h1.756v1.247c.359-.855.936-1.41 1.977-1.363v1.838h-.093c-1.167-.001-1.884.705-1.884 2.184l.001 2.289h-1.757v-6.196zM135.139 33.476h1.872v1.85l-1.871-.002zM140.883 31.303v-.023c0-2.3 1.734-4.185 4.219-4.185 1.526 0 2.438.509 3.19 1.249l-1.133 1.306c-.624-.566-1.26-.913-2.068-.913-1.364 0-2.348 1.133-2.348 2.519v.024c0 1.386.96 2.542 2.348 2.542.924 0 1.49-.37 2.126-.947l1.133 1.144c-.832.89-1.756 1.445-3.317 1.445-2.38 0-4.15-1.838-4.15-4.16M153.677 32.262v-.023c0-.913-.658-1.71-1.63-1.71-1.005 0-1.606.774-1.606 1.687v.023c0 .913.659 1.711 1.63 1.711 1.005 0 1.606-.774 1.606-1.688m-4.97 0v-.023c0-1.78 1.433-3.225 3.364-3.225 1.918 0 3.34 1.422 3.34 3.202v.023c0 1.78-1.432 3.225-3.363 3.225-1.919 0-3.34-1.421-3.34-3.202M160.89 32.262v-.023c0-.913-.659-1.71-1.63-1.71-1.006 0-1.607.774-1.607 1.687v.023c0 .913.659 1.711 1.63 1.711 1.006 0 1.606-.774 1.606-1.688m-4.97 0v-.023c0-1.78 1.434-3.225 3.364-3.225 1.918 0 3.34 1.422 3.34 3.202v.023c0 1.78-1.432 3.225-3.362 3.225-1.92 0-3.341-1.421-3.341-3.202M168.182 32.239v-.023c0-1.03-.694-1.71-1.514-1.71-.821 0-1.503.68-1.503 1.71v.023c0 1.029.682 1.711 1.503 1.711.82 0 1.514-.67 1.514-1.711zm-4.75-3.109h1.756v.89c.428-.578 1.017-1.006 1.93-1.006 1.446 0 2.82 1.133 2.82 3.202v.023c.002 2.07-1.35 3.201-2.818 3.201-.937 0-1.515-.427-1.932-.924v2.658h-1.756V29.13zM174.84 31.743c-.104-.786-.567-1.318-1.306-1.318-.728 0-1.202.52-1.342 1.317h2.648zm-4.37.519v-.023c0-1.768 1.26-3.225 3.064-3.224 2.07 0 3.016 1.606 3.016 3.364 0 .138-.012.3-.023.462h-4.311c.173.797.728 1.213 1.514 1.214.59 0 1.017-.185 1.503-.636l1.006.89c-.578.717-1.41 1.155-2.531 1.155-1.862 0-3.237-1.306-3.238-3.202zM177.393 29.13h1.757v1.249c.358-.855.936-1.41 1.977-1.364v1.837h-.093c-1.167 0-1.884.706-1.884 2.185v2.289h-1.756V29.13z" fill="#009FC7"/>
    </g>
</svg>
