<svg width="133" height="63" viewBox="0 0 133 63" xmlns="http://www.w3.org/2000/svg" xmlns:xlink="http://www.w3.org/1999/xlink">
    <defs>
        <path id="kiytm29rea" d="M0 61.89h132.87V.492H0z"/>
    </defs>
    <g fill="none" fill-rule="evenodd">
        <path d="m19.986 48.985-2.69-6.564-2.689 6.564h5.38zm-4.684-11.914h4.107l8.675 20.388h-4.656l-1.851-4.54h-8.56l-1.85 4.54h-4.54l8.675-20.388z" fill="#003449"/>
        <g transform="translate(0 .195)">
            <path d="M41.446 49.542v-.058c0-2.574-1.735-4.28-3.788-4.28-2.054 0-3.76 1.706-3.76 4.28v.058c0 2.574 1.706 4.28 3.76 4.28 2.053 0 3.788-1.678 3.788-4.28zm-11.885-7.78h4.395v2.228c1.07-1.447 2.545-2.516 4.83-2.516 3.615 0 7.056 2.834 7.056 8.01v.058c0 5.176-3.384 8.01-7.056 8.01-2.343 0-3.789-1.07-4.83-2.313v6.65h-4.395V41.764zM60.066 49.542v-.058c0-2.574-1.735-4.28-3.788-4.28-2.054 0-3.76 1.706-3.76 4.28v.058c0 2.574 1.706 4.28 3.76 4.28 2.053 0 3.788-1.678 3.788-4.28zm-11.886-7.78h4.396v2.228c1.07-1.447 2.545-2.516 4.83-2.516 3.614 0 7.056 2.834 7.056 8.01v.058c0 5.176-3.384 8.01-7.057 8.01-2.343 0-3.788-1.07-4.83-2.313v6.65H48.18V41.764zM67.271 41.762h4.396v3.124c.896-2.14 2.343-3.528 4.945-3.412v4.598h-.23c-2.922 0-4.715 1.764-4.715 5.466v5.725h-4.396v-15.5zM90.292 49.6v-.058c0-2.285-1.648-4.28-4.078-4.28-2.516 0-4.02 1.937-4.02 4.223v.057c0 2.285 1.649 4.28 4.078 4.28 2.515 0 4.02-1.938 4.02-4.222m-12.436 0v-.058c0-4.454 3.586-8.068 8.416-8.068 4.8 0 8.357 3.556 8.357 8.01v.058c0 4.454-3.585 8.069-8.415 8.069-4.8 0-8.358-3.558-8.358-8.011M94.63 41.762h4.655l3.47 10.383 3.5-10.383h4.569l-6.102 15.617h-3.991zM121.423 51.797v-.78c-.752-.347-1.735-.579-2.805-.579-1.88 0-3.037.752-3.037 2.14v.059c0 1.185.983 1.88 2.4 1.88 2.054 0 3.442-1.13 3.442-2.72M111.33 52.81v-.058c0-3.384 2.574-4.945 6.246-4.945 1.562 0 2.69.26 3.79.636v-.26c0-1.822-1.128-2.835-3.327-2.835-1.677 0-2.863.319-4.28.839l-1.099-3.355c1.706-.75 3.384-1.243 6.015-1.243 2.401 0 4.136.636 5.235 1.736 1.157 1.156 1.677 2.862 1.677 4.944v8.995h-4.251v-1.678c-1.07 1.186-2.545 1.966-4.684 1.966-2.922 0-5.322-1.677-5.322-4.742" fill="#003449"/>
            <mask id="7qigl5i3zb" fill="#fff">
                <use xlink:href="#kiytm29rea"/>
            </mask>
            <path fill="#003449" mask="url(#7qigl5i3zb)" d="M128.474 57.263h4.397v-21.11h-4.397z"/>
            <path fill="#009FC7" mask="url(#7qigl5i3zb)" d="M0 15.357h4.916l5.292 14.258L15.5 15.357h4.801l-8.184 20.388H8.184zM29.872 26.636c-.26-1.967-1.417-3.297-3.267-3.297-1.823 0-3.009 1.301-3.355 3.297h6.622zM18.94 27.938v-.058c0-4.425 3.152-8.068 7.664-8.068 5.176 0 7.547 4.019 7.547 8.414 0 .347-.028.752-.058 1.157H23.307c.434 1.995 1.823 3.037 3.789 3.037 1.475 0 2.545-.463 3.759-1.59l2.516 2.225c-1.446 1.794-3.528 2.893-6.333 2.893-4.656 0-8.097-3.268-8.097-8.01zM36.844 20.1h4.396v3.124c.896-2.14 2.342-3.529 4.944-3.413v4.598h-.23c-2.921 0-4.714 1.764-4.714 5.466v5.726h-4.396V20.1zM48.558 35.6h4.396V20.1h-4.396zM72.266 16.196a2.307 2.307 0 1 1-4.614 0 2.307 2.307 0 0 1 4.614 0zM67.76 35.601h4.396V20.1h-4.396v15.5zM57.264 23.859H55.44v-3.614h1.823v-.984c0-1.705.433-2.95 1.242-3.76.81-.809 1.996-1.214 3.557-1.214 1.389 0 2.314.174 3.124.434v3.644c-.636-.232-1.243-.376-1.995-.376-1.012 0-1.591.521-1.591 1.677v.607h3.557v3.586h-3.499v11.742h-4.395V23.859zM85.895 26.636c-.26-1.967-1.417-3.297-3.267-3.297-1.823 0-3.009 1.301-3.355 3.297h6.622zm-10.931 1.302v-.058c0-4.425 3.152-8.068 7.664-8.068 5.176 0 7.547 4.019 7.547 8.414 0 .347-.028.752-.058 1.157H79.33c.434 1.995 1.823 3.037 3.789 3.037 1.475 0 2.545-.463 3.759-1.59l2.516 2.225c-1.446 1.794-3.528 2.893-6.333 2.893-4.656 0-8.097-3.268-8.097-8.01zM104.116 27.88v-.058c0-2.574-1.706-4.28-3.76-4.28-2.053 0-3.788 1.677-3.788 4.28v.058c0 2.574 1.735 4.279 3.788 4.279 2.054 0 3.76-1.705 3.76-4.28m-11.944 0v-.057c0-5.177 3.384-8.01 7.057-8.01 2.343 0 3.788 1.069 4.83 2.313v-7.636h4.395v21.112h-4.396v-2.227c-1.07 1.446-2.544 2.516-4.829 2.516-3.615 0-7.057-2.834-7.057-8.01M50.646 13.55l1.395-1.752c.708-.889 1.413-1.778 2.122-2.666 1.135-1.426 2.272-2.849 3.407-4.275.813-1.022 1.62-2.048 2.434-3.069.224-.281.445-.57.705-.818.662-.627 1.774-.629 2.482-.054.844.684.944 1.92.284 2.738-1.05 1.301-2.084 2.615-3.126 3.923-.56.705-1.123 1.409-1.684 2.114-.308.388-.614.777-.922 1.163-.66.825-1.322 1.647-1.978 2.474-.679.853-1.353 1.711-2.03 2.566-.493.619-.976 1.245-1.485 1.85-.692.822-2.017.872-2.79.106-1.207-1.196-2.403-2.404-3.605-3.605-.875-.875-1.748-1.753-2.628-2.623-.45-.443-.68-.96-.656-1.598.028-.781.69-1.584 1.456-1.748.748-.16 1.378.038 1.915.58.836.844 1.68 1.68 2.52 2.52l2.07 2.073c.031.032.066.06.114.1"/>
        </g>
    </g>
</svg>
