<svg width="32" height="32" viewBox="0 0 32 32" xmlns="http://www.w3.org/2000/svg" xmlns:xlink="http://www.w3.org/1999/xlink">
    <defs>
        <path d="M16 0c8.822 0 16 7.177 16 16 0 8.822-7.178 16-16 16-8.823 0-16-7.178-16-16C0 7.177 7.177 0 16 0zm0 1.936C8.245 1.936 1.936 8.245 1.936 16S8.246 30.064 16 30.064c7.755 0 14.064-6.309 14.064-14.064S23.754 1.936 16 1.936zm-5.214 6.987a2.13 2.13 0 0 1 2.028.097l8.978 5.556c.583.363.93.975.93 1.637 0 .664-.347 1.276-.929 1.637l-8.977 5.555a2.111 2.111 0 0 1-2.029.099c-.684-.336-1.107-1-1.107-1.735V10.658c0-.736.424-1.4 1.106-1.735zm.928 1.724a.192.192 0 0 0-.08.016l-.018 11.106c.093.014.14.016.182-.01l8.976-5.555-8.976-5.537a.17.17 0 0 0-.084-.02z" id="hboor1q14a"/>
    </defs>
    <g fill="none" fill-rule="evenodd">
        <mask id="lb3l9c71yb" fill="#fff">
            <use xlink:href="#hboor1q14a"/>
        </mask>
        <use fill="#545451" xlink:href="#hboor1q14a"/>
        <g mask="url(#lb3l9c71yb)" fill="#1B6C92">
            <path d="M-10.5-10.5H43V43h-53.5z"/>
        </g>
    </g>
</svg>
