<svg xmlns="http://www.w3.org/2000/svg" width="30" height="26" viewBox="0 0 30 26">
    <g fill="none" fill-rule="evenodd">
        <g fill="#FFF" stroke="#FFF">
            <path d="M320 985.64c-.609 0-1.182.32-1.497.833l-10.587 17.27c-.326.532-.337 1.198-.027 1.739.31.542.893.878 1.523.878h21.175c.631 0 1.215-.336 1.524-.878.31-.54.3-1.207-.026-1.738l-10.588-17.272c-.315-.513-.888-.832-1.497-.832M309.412 1008c-1.23 0-2.368-.656-2.972-1.712-.605-1.055-.585-2.355.052-3.393l10.587-17.27c.615-1.003 1.734-1.625 2.921-1.625 1.187 0 2.306.622 2.92 1.623l10.59 17.273c.635 1.037.654 2.337.05 3.392-.604 1.056-1.743 1.712-2.973 1.712h-21.175zm10.588-7c.552 0 1 .448 1 1s-.448 1-1 1-1-.448-1-1 .448-1 1-1zm0-2.26c-.46 0-.832-.367-.832-.82v-5.983c0-.452.373-.82.832-.82.46 0 .832.368.832.82v5.983c0 .453-.373.82-.832.82" transform="translate(-305 -983)"/>
        </g>
    </g>
</svg>
