<svg width="36" height="31" viewBox="0 0 36 31" xmlns="http://www.w3.org/2000/svg" xmlns:xlink="http://www.w3.org/1999/xlink">
    <defs>
        <path d="M92 413c1.538 0 2.988.81 3.784 2.113l13.58 22.244c.824 1.35.85 3.042.066 4.415A4.436 4.436 0 0 1 105.58 444H78.42a4.436 4.436 0 0 1-3.851-2.229 4.343 4.343 0 0 1 .067-4.414l13.578-22.243A4.459 4.459 0 0 1 92 413zm0 2.203c-.764 0-1.485.402-1.88 1.05L76.54 438.497a2.158 2.158 0 0 0-.034 2.192 2.205 2.205 0 0 0 1.914 1.108h27.158c.791 0 1.525-.424 1.914-1.107a2.159 2.159 0 0 0-.034-2.193l-13.58-22.245a2.214 2.214 0 0 0-1.88-1.05zm0 20.021c1.129 0 2.044.906 2.044 2.024A2.034 2.034 0 0 1 92 439.27a2.034 2.034 0 0 1-2.044-2.023c0-1.118.915-2.024 2.044-2.024zm0-14.709c.922 0 1.669.74 1.669 1.652v9.505A1.66 1.66 0 0 1 92 433.324a1.66 1.66 0 0 1-1.669-1.652v-9.505a1.66 1.66 0 0 1 1.67-1.652z" id="0g2izt4tja"/>
    </defs>
    <use fill="#E10C32" xlink:href="#0g2izt4tja" transform="translate(-74 -413)" fill-rule="evenodd"/>
</svg>
