<svg width="20" height="20" viewBox="0 0 20 20" xmlns="http://www.w3.org/2000/svg">
    <path d="M2.789 1.972a.814.814 0 0 0-.809.817l-.007 13.843 1.922-1.921a.985.985 0 0 1 .697-.288h12.62c.45 0 .816-.367.816-.817V2.789a.818.818 0 0 0-.817-.817H2.79zM.986 20A.985.985 0 0 1 0 19.014L.008 2.788A2.788 2.788 0 0 1 2.788 0h14.423A2.792 2.792 0 0 1 20 2.789v10.817a2.792 2.792 0 0 1-2.789 2.788H5l-3.317 3.317A.985.985 0 0 1 .986 20zM10 10.05a.986.986 0 0 1-.986-.986V4.267a.986.986 0 1 1 1.972 0v4.797a.986.986 0 0 1-.986.986m-1.126 2.112a1.126 1.126 0 1 1 2.252 0 1.126 1.126 0 0 1-2.252 0" fill="#009FC7" fill-rule="evenodd"/>
</svg>
