<svg xmlns="http://www.w3.org/2000/svg" width="33" height="28" viewBox="0 0 33 28">
    <g fill="none" fill-rule="evenodd">
        <g fill="#FFF">
            <g>
                <path d="M267.08 23.18c-.644 0-1.25.342-1.582.892l-12.052 19.944c-.345.57-.356 1.284-.029 1.863.328.58.944.941 1.61.941h24.105c.666 0 1.283-.36 1.61-.94.327-.58.316-1.294-.028-1.864L268.66 24.072c-.333-.55-.939-.892-1.582-.892M279.132 49h-24.106c-1.45 0-2.794-.786-3.507-2.05-.713-1.263-.69-2.82.061-4.061l12.052-19.944c.726-1.2 2.046-1.945 3.447-1.945 1.402 0 2.722.745 3.447 1.944L282.58 42.89c.75 1.242.773 2.798.06 4.061-.711 1.264-2.056 2.05-3.508 2.05m-13.867-6.157c0-1.002.813-1.814 1.814-1.814 1.003 0 1.815.812 1.815 1.814s-.812 1.815-1.815 1.815c-1.001 0-1.814-.813-1.814-1.815m1.814-3.691c-.722 0-1.307-.586-1.307-1.308v-8.522c0-.722.585-1.307 1.307-1.307.723 0 1.308.585 1.308 1.307v8.522c0 .722-.585 1.308-1.308 1.308" transform="translate(-251.000000, -140.000000) translate(0.000000, 119.000000)"/>
            </g>
        </g>
    </g>
</svg>
