<svg xmlns="http://www.w3.org/2000/svg" width="24" height="24" viewBox="0 0 24 24">
    <g fill="none" fill-rule="evenodd">
        <g fill="#E67300">
            <g>
                <path d="M27.346 26.366c-.534 0-.97.44-.97.98l-.008 16.613 2.306-2.306c.221-.222.522-.346.836-.346h15.144c.54 0 .98-.44.98-.98v-12.98c0-.541-.44-.98-.98-.98H27.346zM25.183 48c-.153 0-.306-.03-.453-.09-.442-.183-.73-.615-.73-1.094l.01-19.47c0-1.844 1.497-3.346 3.336-3.346h17.308C46.498 24 48 25.502 48 27.346v12.98c0 1.846-1.502 3.347-3.346 3.347H30l-3.98 3.98c-.227.227-.53.347-.837.347zM36 37.243c.746 0 1.35.605 1.35 1.352 0 .746-.604 1.35-1.35 1.35-.746 0-1.35-.604-1.35-1.35 0-.747.604-1.352 1.35-1.352zm0-9.306c.654 0 1.183.53 1.183 1.183v5.756c0 .654-.53 1.183-1.183 1.183-.654 0-1.183-.529-1.183-1.183V29.12c0-.653.53-1.183 1.183-1.183z" transform="translate(-628 -599) translate(604 575)"/>
            </g>
        </g>
    </g>
</svg>
