<svg xmlns="http://www.w3.org/2000/svg" width="20" height="20" viewBox="0 0 20 20">
    <g fill="none" fill-rule="evenodd">
        <g fill="#E67300">
            <g>
                <path d="M18.789 17.972c-.446 0-.809.366-.809.817l-.007 13.843 1.922-1.921c.184-.185.435-.288.697-.288h12.62c.45 0 .816-.367.816-.817V18.789c0-.451-.367-.817-.817-.817H18.79zM16.986 36c-.127 0-.255-.025-.378-.075-.368-.153-.608-.513-.608-.911l.008-16.226c0-1.537 1.248-2.788 2.78-2.788h14.423C34.75 16 36 17.251 36 18.789v10.817c0 1.538-1.251 2.788-2.789 2.788H21l-3.317 3.317c-.189.189-.44.289-.697.289zM26 27.036c.622 0 1.126.504 1.126 1.126 0 .622-.504 1.126-1.126 1.126-.622 0-1.126-.504-1.126-1.126 0-.622.504-1.126 1.126-1.126zm0-7.755c.545 0 .986.442.986.986v4.797c0 .544-.441.986-.986.986-.545 0-.986-.442-.986-.986v-4.797c0-.544.441-.986.986-.986z" transform="translate(-80 -1364) translate(64 1348)"/>
            </g>
        </g>
    </g>
</svg>
