<svg width="21" height="23" viewBox="0 0 21 23" xmlns="http://www.w3.org/2000/svg">
    <g fill="none" fill-rule="evenodd">
        <path d="m1.454 18.242 2.115-2.25a3.22 3.22 0 0 0 .896-2.213V8.756c0-2.586 1.942-4.824 4.444-5.366a.596.596 0 0 0 .17-.03c.321-.06.648-.096.983-.096h.094c.377 0 .747.04 1.105.115h.008c2.523.528 4.484 2.778 4.484 5.377v5.023c0 .815.319 1.601.896 2.212l2.115 2.251H1.454zm8.655 2.768a2.546 2.546 0 0 1-2.328-1.54h4.656c-.39.91-1.3 1.54-2.328 1.54zm0-19.544c.362 0 .661.262.723.606a6.736 6.736 0 0 0-.675-.036h-.097c-.227 0-.452.013-.674.036a.736.736 0 0 1 .723-.606zm9.82 16.222-2.387-2.54a1.995 1.995 0 0 1-.561-1.37V8.757c0-2.987-2.11-5.596-4.915-6.436.003-.04.007-.078.007-.118 0-1.083-.881-1.964-1.964-1.964a1.966 1.966 0 0 0-1.963 1.964c0 .04.004.079.006.118-2.804.84-4.914 3.449-4.914 6.436v5.023c0 .5-.2.987-.563 1.37L.297 17.683a1.029 1.029 0 0 0-.216 1.132c.169.398.564.656 1.008.656h5.398a3.777 3.777 0 0 0 3.622 2.768 3.777 3.777 0 0 0 3.623-2.768h5.398c.443 0 .839-.258 1.008-.656.165-.39.082-.824-.21-1.126zM8.165 4.231a5.133 5.133 0 0 0-1.6 1.057 4.985 4.985 0 0 0-1.091 1.56 4.658 4.658 0 0 0-.407 1.904.614.614 0 1 0 1.227 0c0-.483.101-.956.302-1.406.194-.438.472-.834.825-1.177a3.914 3.914 0 0 1 1.218-.806.614.614 0 0 0-.474-1.132" fill="#D21571"/>
        <path d="M13.47 8.064a4.48 4.48 0 0 0 3.023 1.174 4.5 4.5 0 0 0 0-9 4.49 4.49 0 0 0-3.685 1.924 4.465 4.465 0 0 0-.79 3.037c.04.39.134.765.267 1.12.123.326.278.636.47.921.203.304.446.579.716.824" fill="#EC008C"/>
        <path d="M16.494 6.238a.5.5 0 1 1 0 1 .5.5 0 0 1 0-1zm0-4c.276 0 .5.145.5.323v2.354c0 .179-.224.323-.5.323-.277 0-.5-.144-.5-.323V2.561c0-.178.223-.323.5-.323z" fill="#FFF"/>
    </g>
</svg>
