<svg xmlns="http://www.w3.org/2000/svg" width="19" height="19" viewBox="0 0 19 19">
    <g fill="none" fill-rule="evenodd">
        <g fill="#004261">
            <g>
                <path d="M696.914 33.5l7.792-7.793c.391-.39.391-1.023 0-1.414s-1.023-.391-1.415 0l-7.792 7.792-7.791-7.792c-.391-.391-1.025-.391-1.415 0-.39.391-.39 1.023 0 1.414l7.792 7.793-7.792 7.792c-.39.39-.39 1.023 0 1.415.195.195.451.293.708.293.256 0 .512-.098.707-.293l7.791-7.793 7.792 7.793c.196.195.452.293.708.293.256 0 .512-.098.707-.293.391-.392.391-1.025 0-1.415l-7.792-7.792z" transform="translate(-1040 -275) translate(354 251)"/>
            </g>
        </g>
    </g>
</svg>
