<svg xmlns="http://www.w3.org/2000/svg" width="25" height="24" viewBox="0 0 25 24">
    <g fill="none" fill-rule="evenodd">
        <g fill="#333940">
            <g>
                <path d="M35.498 119.435h18.004v-10.788c0-.432.351-.782.784-.782h.861l-3.307-2.872c-.17-.15-.269-.364-.269-.59v-2.948h-2.646c-.127.138-.3.225-.488.246-.216.025-.436-.043-.601-.187L44.5 98.62l-10.647 9.246h.861c.433 0 .784.35.784.782v10.788zM53.673 121H35.327c-.77 0-1.396-.626-1.396-1.395V109.43h-.536c-.576 0-1.102-.363-1.307-.902-.204-.546-.046-1.165.392-1.544l11.104-9.642c.524-.455 1.311-.454 1.833 0l3.01 2.614c.135-.042.276-.064.418-.064h2.897c.77 0 1.396.625 1.396 1.393v2.762l3.382 2.938c.44.38.596 1 .39 1.543-.2.538-.726.902-1.305.902h-.536v10.176c0 .77-.626 1.395-1.396 1.395zm-10.451-9.26h1.662l.414-1.856h-1.655l-.421 1.856zm3.105 1.197l-.624 2.743h-.916c-.163 0-.303-.053-.422-.16-.119-.109-.179-.24-.179-.398 0-.022.002-.043.005-.064.002-.02.006-.04.012-.064l.478-2.057H43.02l-.47 2.138c-.05.215-.16.37-.333.464-.173.094-.365.141-.576.141h-.884l.616-2.743h-.932c-.173 0-.305-.035-.397-.104-.092-.07-.138-.185-.138-.347 0-.062.008-.134.024-.215l.106-.53h1.54l.422-1.857H40.26l.155-.692c.038-.17.121-.297.25-.38.131-.083.342-.125.634-.125h.9l.502-2.165c.044-.18.144-.318.3-.417.157-.098.341-.148.552-.148h.908l-.616 2.73H45.5l.625-2.73h.892c.189 0 .343.045.462.135.119.09.178.204.178.342 0 .046-.003.08-.008.101l-.502 2.152h1.646l-.155.693c-.038.17-.123.297-.255.38-.132.083-.342.124-.628.124h-.811l-.414 1.856h1.152c.173 0 .304.035.393.104.089.07.134.188.134.353 0 .063-.009.135-.025.216l-.097.524h-1.76z" transform="translate(-256.000000, -1709.000000) translate(224.000000, 1612.000000)"/>
            </g>
        </g>
    </g>
</svg>
