<svg width="45" height="45" viewBox="0 0 45 45" xmlns="http://www.w3.org/2000/svg" xmlns:xlink="http://www.w3.org/1999/xlink">
    <defs>
        <path d="M22.497 42.371c-10.956 0-19.868-8.917-19.868-19.871 0-10.954 8.912-19.871 19.868-19.871 10.962 0 19.874 8.917 19.874 19.871 0 10.954-8.912 19.871-19.874 19.871m0-42.371C10.095 0 0 10.093 0 22.5S10.095 45 22.497 45C34.905 45 45 34.907 45 22.5S34.905 0 22.497 0" id="pe9rm67jha"/>
        <path d="M20.371 32.52c-.397 0-.783-.133-1.093-.38l-7.833-6.227a1.652 1.652 0 0 1-.244-2.368 1.763 1.763 0 0 1 2.432-.239l6.44 5.121L31.915 13.15a1.76 1.76 0 0 1 2.422-.33c.762.56.913 1.615.339 2.357L21.752 31.851a1.741 1.741 0 0 1-1.38.669" id="po0saipyqb"/>
    </defs>
    <g fill="#048767" fill-rule="evenodd">
        <use xlink:href="#pe9rm67jha"/>
        <use xlink:href="#po0saipyqb"/>
    </g>
</svg>
