<svg xmlns="http://www.w3.org/2000/svg" width="19" height="22" viewBox="0 0 19 22">
    <g fill="none" fill-rule="evenodd">
        <g fill="#333940">
            <path d="M698.889 1808.212c.197 0 .387.08.526.22l1.052 1.06.044-18.965-.026-.027h-15.97l-.026 18.973 1.096-1.04c.29-.294.761-.294 1.052 0l1.053 1.06 1.089-1.06c.14-.142.33-.22.527-.22s.386.078.526.22l1.053 1.06 1.088-1.06c.29-.294.762-.294 1.053 0l1.052 1.06 1.09-1.06c.29-.294.762-.294 1.052 0l1.052 1.06 1.09-1.06c.14-.142.33-.22.527-.22m-14.37 2.787c-.198 0-.396-.039-.585-.118-.567-.236-.934-.79-.934-1.409v-18.946c0-.842.68-1.527 1.515-1.527h15.97c.835 0 1.515.685 1.515 1.527v18.946c0 .62-.367 1.173-.936 1.41-.518.223-1.22.1-1.648-.328l-.527-.532-.526.53c-.592.594-1.553.593-2.142.001l-.528-.53-.525.53c-.587.592-1.548.596-2.141 0l-.527-.53-.527.53c-.59.593-1.551.593-2.14 0l-.526-.53-.527.53c-.59.593-1.552.592-2.142 0l-.527-.53-.526.53c-.29.291-.675.446-1.067.446m7.654-6.965h-4.045c-.41 0-.744-.336-.744-.75s.333-.75.744-.75h4.045c.41 0 .744.336.744.75s-.333.75-.744.75m4.766-4.203h-8.811c-.411 0-.744-.336-.744-.75s.333-.75.744-.75h8.811c.41 0 .744.336.744.75s-.333.75-.744.75m0-3.971h-8.811c-.411 0-.744-.336-.744-.75s.333-.75.744-.75h8.811c.41 0 .744.336.744.75s-.333.75-.744.75" transform="translate(-683.000000, -1789.000000)"/>
        </g>
    </g>
</svg>
