<svg xmlns="http://www.w3.org/2000/svg" width="24" height="24" viewBox="0 0 24 24">
    <g fill="none" fill-rule="evenodd">
        <g fill="#FFF">
            <g>
                <path d="M234 16c1.715 0 3.372.355 4.924 1.055.646.29.933 1.049.642 1.693-.29.644-1.049.932-1.693.642-1.22-.55-2.524-.828-3.874-.828-5.204 0-9.437 4.234-9.437 9.439 0 5.204 4.233 9.437 9.437 9.437 5.205 0 9.439-4.233 9.439-9.437 0-.289-.012-.576-.038-.855-.063-.705.457-1.328 1.16-1.391.713-.052 1.327.456 1.391 1.16.032.357.048.721.048 1.086C246 34.617 240.616 40 234 40 227.383 40 222 34.617 222 28c0-6.616 5.383-12 12-12zm10.368 2.87c.554.44.643 1.247.203 1.8L235 32.66c-.225.282-.558.456-.917.48l-.085.002c-.33 0-.648-.128-.887-.357l-5.325-5.117c-.51-.49-.525-1.3-.036-1.81.49-.51 1.301-.526 1.811-.037l4.312 4.144 8.694-10.894c.443-.552 1.248-.642 1.8-.201z" transform="translate(-222 -984) translate(0 968)"/>
            </g>
        </g>
    </g>
</svg>
