<svg xmlns="http://www.w3.org/2000/svg" width="27" height="28" viewBox="0 0 27 28">
    <g fill="none" fill-rule="evenodd">
        <g>
            <g>
                <g>
                    <path fill="#FFF" d="M10.88 27.352H.977c-.54 0-.977-.438-.977-.977V.977C0 .437.438 0 .977 0h19.806c.54 0 .977.438.977.977v9.967c0 .54-.438.978-.977.978-.54 0-.977-.438-.977-.978v-8.99H1.955v23.443h8.925c.54 0 .977.438.977.978s-.437.977-.977.977m14.436-11.164c.421.336.49.951.154 1.373l-5.113 6.407c-.171.214-.425.347-.7.366l-.064.001c-.252 0-.494-.097-.677-.272l-2.845-2.734c-.39-.375-.402-.993-.028-1.382.375-.391.994-.402 1.382-.028l2.073 1.992 4.445-5.57c.336-.42.95-.49 1.373-.153zm-15.49 1.754c.54 0 .977.437.977.977s-.438.977-.977.977H4.672c-.54 0-.977-.438-.977-.977 0-.54.437-.977.977-.977h5.154zm1.054-4.407c.54 0 .977.437.977.977s-.437.977-.977.977H4.673c-.54 0-.978-.438-.978-.977 0-.54.437-.977.978-.977h6.207zm6.106-4.407c.54 0 .978.438.978.978s-.438.977-.978.977H4.672c-.54 0-.977-.438-.977-.977 0-.54.438-.978.977-.978h12.314zm0-4.407c.54 0 .978.438.978.978s-.438.977-.978.977H4.672c-.54 0-.977-.438-.977-.977 0-.54.438-.978.977-.978h12.314z" transform="translate(-254.000000, -140.000000) translate(0.000000, 119.000000) translate(254.000000, 21.000000)"/>
                    <path fill="#009974" d="M19.593 28c-3.697 0-6.705-3.008-6.705-6.705s3.008-6.705 6.705-6.705c.957 0 1.883.198 2.75.588.493.222.713.8.491 1.293-.221.492-.802.711-1.292.49-.614-.275-1.27-.416-1.949-.416-2.62 0-4.75 2.132-4.75 4.75 0 2.62 2.13 4.75 4.75 4.75s4.75-2.13 4.75-4.75c0-.145-.006-.29-.019-.431-.048-.538.35-1.013.886-1.06.539-.065 1.013.348 1.06.885.018.2.028.402.028.606 0 3.697-3.008 6.705-6.705 6.705" transform="translate(-254.000000, -140.000000) translate(0.000000, 119.000000) translate(254.000000, 21.000000)"/>
                </g>
            </g>
        </g>
    </g>
</svg>
