<svg xmlns="http://www.w3.org/2000/svg" xmlns:xlink="http://www.w3.org/1999/xlink" width="768" height="626" viewBox="0 0 768 626">
    <defs>
        <linearGradient id="b" x1="50%" x2="50%" y1="-21.088%" y2="116.944%">
            <stop offset="0%" stop-color="#00AFDA"/>
            <stop offset="29.123%" stop-color="#009FC7"/>
            <stop offset="100%" stop-color="#1B6C92"/>
        </linearGradient>
        <path id="a" d="M0 0h770v626H0z"/>
        <path id="d" d="M37.531 13.883a.83.83 0 0 1-.779.495h-4.435l-2.644-6.307h3.431l4.281 4.956a.77.77 0 0 1 .146.856zM32.74 34.394h-6.92V23.197a.748.748 0 0 0-.752-.748H14.08a.75.75 0 0 0-.753.748v11.197H6.41v-18.52h26.33v18.52zm-17.907 0h9.483v-10.45h-9.483v10.45zM1.576 13.884a.77.77 0 0 1 .146-.857l.016-.018L6.003 8.07h3.431l-2.643 6.307H2.355a.831.831 0 0 1-.78-.495zm24.31.494l-1.32-6.307h3.478l2.643 6.307h-4.8zm-5.58-6.307h2.724l1.32 6.307h-4.044V8.071zM8.42 14.378l2.643-6.307h3.478l-1.32 6.307h-4.8zm6.336 0l1.321-6.307h2.724v6.307h-4.045zM6.37 6.576h26.328v-5.08H6.369v5.08zm32.142 5.458L34.2 7.045V.748A.75.75 0 0 0 33.449 0H5.616a.748.748 0 0 0-.752.748v6.346l-4.26 4.932A2.247 2.247 0 0 0 .2 14.485a2.32 2.32 0 0 0 2.156 1.389h2.55v19.268a.75.75 0 0 0 .752.748h27.834a.75.75 0 0 0 .752-.748V15.874h2.51c.95 0 1.777-.531 2.156-1.39a2.243 2.243 0 0 0-.398-2.45z"/>
        <path id="f" d="M7.655 25.057l14.852 13.515 14.966-13.515c4.092-3.726 5.918-7.487 5.918-12.196 0-5.812-5.22-11.105-10.952-11.105-3.697 0-7.123 1.728-9.168 4.627-.325.462-1.088.462-1.413 0-2.044-2.899-5.474-4.627-9.171-4.627-5.73 0-10.95 5.293-10.95 11.103 0 4.71 1.825 8.472 5.918 12.198m14.91 15.3c-.459 0-.894-.174-1.231-.49L6.492 26.361C3.706 23.825 0 19.665 0 12.86 0 6.131 6.048.001 12.687.001c3.858 0 7.47 1.646 9.878 4.455 2.407-2.81 6.017-4.455 9.874-4.455 6.64 0 12.688 6.128 12.688 12.858 0 6.806-3.706 10.966-6.491 13.502L23.778 39.88c-.328.306-.76.476-1.213.476"/>
        <path id="h" d="M27.002 38.81a.787.787 0 0 1-.787.786H2.588a.788.788 0 0 1-.788-.786V21.15c0-6.946 5.654-12.6 12.602-12.6 6.946 0 12.6 5.654 12.6 12.6v17.66zM10.928 1.8h6.948L14.89 6.775c-.163-.005-.324-.025-.49-.025-.165 0-.327.02-.489.025L10.928 1.8zm5.94 5.177l3.368-5.614A.9.9 0 0 0 19.466 0H9.337a.9.9 0 1 0-.77 1.363l3.366 5.614C5.166 8.154 0 14.053 0 21.15v17.66a2.59 2.59 0 0 0 2.588 2.586h23.627a2.59 2.59 0 0 0 2.587-2.586V21.15c0-7.097-5.166-12.996-11.934-14.173zm-2.222 17.067c-.027-.007-2.57-.772-2.572-2.541 0-.607.24-1.178.675-1.61a2.334 2.334 0 0 1 1.647-.675c1.281 0 2.325 1.025 2.327 2.283a.9.9 0 0 0 .9.898h.002a.9.9 0 0 0 .898-.902c-.002-1.942-1.384-3.566-3.227-3.972l-.002-1.071a.9.9 0 1 0-1.8 0l.002 1.07a4.124 4.124 0 0 0-2.013 1.088 4.042 4.042 0 0 0-1.21 2.892c.003 3.145 3.727 4.229 3.885 4.274.025.007 2.567.772 2.569 2.541 0 .607-.24 1.177-.675 1.61a2.33 2.33 0 0 1-1.647.674c-1.282 0-2.326-1.024-2.328-2.282a.899.899 0 0 0-.9-.898h-.001a.901.901 0 0 0-.899.902c.002 1.94 1.386 3.564 3.228 3.972v1.356a.9.9 0 0 0 1.8 0v-1.356a4.105 4.105 0 0 0 2.012-1.089 4.03 4.03 0 0 0 1.21-2.89c-.002-3.145-3.723-4.23-3.88-4.274"/>
        <path id="j" d="M24.116 6.177c0-2.62 2.195-4.754 4.894-4.754 2.698 0 4.894 2.133 4.894 4.754 0 2.62-2.196 4.754-4.894 4.754-2.699 0-4.894-2.133-4.894-4.754m-5.063 14.377c-2.074 0-3.763-1.64-3.763-3.654 0-2.015 1.689-3.653 3.763-3.653s3.761 1.638 3.761 3.653c0 2.014-1.687 3.654-3.761 3.654M4.203 6.177c0-2.62 2.196-4.754 4.895-4.754 2.698 0 4.892 2.133 4.892 4.754 0 2.62-2.194 4.754-4.892 4.754-2.699 0-4.894-2.133-4.894-4.754m27.98 5.32c1.894-1.07 3.185-3.04 3.185-5.32C35.37 2.77 32.516 0 29.01 0s-6.36 2.77-6.36 6.177c0 2.28 1.292 4.25 3.187 5.32a9.139 9.139 0 0 0-3.062 1.845 5.288 5.288 0 0 0-3.721-1.519 5.276 5.276 0 0 0-3.72 1.52 9.174 9.174 0 0 0-3.063-1.846c1.895-1.07 3.186-3.04 3.186-5.32C15.456 2.77 12.604 0 9.098 0c-3.508 0-6.36 2.77-6.36 6.177 0 2.278 1.29 4.248 3.184 5.319C2.468 12.75 0 15.98 0 19.767c0 .393.328.712.733.712a.723.723 0 0 0 .733-.712c0-4.087 3.424-7.413 7.632-7.413 2.017 0 3.946.789 5.37 2.158-.397.715-.643 1.52-.643 2.388 0 1.762.93 3.314 2.336 4.225-2.654 1.098-4.523 3.655-4.523 6.63 0 .394.328.712.733.712a.721.721 0 0 0 .733-.712c0-3.186 2.669-5.777 5.949-5.777s5.948 2.591 5.948 5.777c0 .394.328.712.733.712a.721.721 0 0 0 .733-.712c0-2.975-1.868-5.532-4.522-6.63 1.405-.91 2.335-2.463 2.335-4.225 0-.867-.247-1.672-.64-2.388a7.75 7.75 0 0 1 5.367-2.158c4.206 0 7.629 3.324 7.629 7.41 0 .393.328.712.733.712a.723.723 0 0 0 .732-.712c0-3.784-2.466-7.011-5.917-8.267"/>
        <path id="l" d="M22.178 15.459h11.54v-6.5h-11.54v6.5zm0 19.71H30.4V16.923h-8.222v18.244zm-17.395 0h7.963V16.923H4.783v18.244zm-3.317-19.71h11.278v-6.5H1.466v6.5zM7.353 2.996c.426-.98 1.488-1.535 2.702-1.535.561 0 1.153.119 1.73.37 1.93.836 3.927 3.818 4.744 5.147-1.536.31-5.073.888-6.999.053-.907-.395-1.63-1.048-2.037-1.841-.38-.746-.431-1.525-.14-2.194zM23.136 1.83c1.824-.791 3.811-.268 4.434 1.166.29.67.24 1.448-.14 2.194-.407.793-1.13 1.446-2.038 1.84-1.914.83-5.414.269-6.999-.052.82-1.337 2.811-4.31 4.743-5.148zm-5.647 5.1l-.003-.003h.001l.003.001-.001.002zM14.21 35.168h6.502V8.958H14.21v26.21zM34.45 7.492h-7.062c.557-.463 1.026-1.01 1.346-1.635.585-1.142.65-2.366.182-3.445C27.972.237 25.12-.626 22.553.486c-2.067.896-4.001 3.522-5.092 5.224-1.093-1.703-3.03-4.33-5.092-5.224C9.803-.628 6.95.237 6.008 2.412c-.47 1.079-.405 2.303.182 3.445.318.626.787 1.172 1.345 1.635H.733A.733.733 0 0 0 0 8.225v7.966c0 .405.328.733.733.733h2.584v18.977c0 .404.327.733.733.733h27.083a.732.732 0 0 0 .733-.733V16.924h2.584a.733.733 0 0 0 .733-.733V8.225a.733.733 0 0 0-.733-.733z"/>
        <path id="n" d="M6.867 34.058c0 .858-.696 1.557-1.552 1.557a1.556 1.556 0 0 1-1.55-1.557c0-.858.695-1.556 1.55-1.556.856 0 1.552.698 1.552 1.556m-1.552-9.052a2.553 2.553 0 0 1-2.545-2.554 2.552 2.552 0 0 1 2.545-2.555 2.552 2.552 0 0 1 2.546 2.555 2.553 2.553 0 0 1-2.546 2.554M8.934 9.857a3.627 3.627 0 0 1-3.619 3.63 3.627 3.627 0 0 1-3.618-3.63 3.628 3.628 0 0 1 3.618-3.63 3.628 3.628 0 0 1 3.619 3.63m1.697 0A5.323 5.323 0 0 0 6.166 4.61L6.164.852A.85.85 0 0 0 5.315 0a.85.85 0 0 0-.848.852l.002 3.758C1.942 5.02 0 7.207 0 9.857s1.943 4.837 4.47 5.246v3.174a4.263 4.263 0 0 0 .002 8.347l.002 4.299a3.254 3.254 0 0 0-2.407 3.135 3.254 3.254 0 0 0 2.408 3.135v2.826a.85.85 0 1 0 1.698 0v-2.83a3.253 3.253 0 0 0 2.39-3.13c0-1.5-1.02-2.751-2.392-3.131l-.002-4.306a4.261 4.261 0 0 0-.002-8.343v-3.176c2.524-.412 4.464-2.597 4.464-5.246m29.16 15.238H17.36l-2.636-2.645 2.636-2.643h22.433a2.643 2.643 0 0 1 2.636 2.643 2.643 2.643 0 0 1-2.636 2.645m0-6.99H17.008a.84.84 0 0 0-.6.248l-3.484 3.496a.854.854 0 0 0 0 1.204l3.485 3.497a.846.846 0 0 0 .599.248h22.784c2.388 0 4.333-1.951 4.333-4.348 0-2.396-1.945-4.346-4.333-4.346m0 18.598H17.359l-2.636-2.644 2.636-2.644h22.433a2.643 2.643 0 0 1 2.636 2.644 2.643 2.643 0 0 1-2.636 2.644m0-6.99H17.008a.84.84 0 0 0-.6.248l-3.484 3.496a.854.854 0 0 0 0 1.205l3.485 3.496a.846.846 0 0 0 .599.249h22.784c2.388 0 4.333-1.952 4.333-4.348 0-2.397-1.945-4.347-4.333-4.347m2.635-19.854a2.643 2.643 0 0 1-2.636 2.644H17.36l-2.634-2.644 2.634-2.644H39.79a2.643 2.643 0 0 1 2.636 2.644zm-26.019 4.096c.16.16.375.25.6.25H39.79c2.388 0 4.333-1.95 4.333-4.346S42.18 5.51 39.791 5.51H17.007c-.224 0-.44.09-.599.25l-3.484 3.496a.852.852 0 0 0-.248.602c0 .227.088.443.248.603l3.484 3.493z"/>
        <path id="p" d="M30.427 38.608L26.81 32.83c-.036-.056-.092-.114-.131-.17a23.925 23.925 0 0 0 1.23-5.315c1.559.903 2.518 2.492 2.518 4.253v7.009zM21.6 40.77H8.346l1.165-2.23h13.133l1.163 2.23H21.6zm.314 3.881H10.24l.906-2.228h9.863l.905 2.228zM5.336 32.844l-3.608 5.764v-7.009c0-1.763.96-3.354 2.516-4.253a23.76 23.76 0 0 0 1.234 5.316c-.045.06-.1.12-.142.182zm5.746-24.409c1.608.65 3.298.996 4.995.996a13.3 13.3 0 0 0 5.001-1c4.301 6.731 8.455 17.468 1.664 28.457H9.411C2.628 25.91 6.782 15.169 11.08 8.435zm4.995-6.408c.826.86 2.394 2.604 4.06 4.996a11.49 11.49 0 0 1-8.114.001 42.284 42.284 0 0 1 4.054-4.997zm12.226 23.627l-.26-.12c.27-7.309-2.799-13.846-5.82-18.445-.008-.022-.006-.047-.016-.068a.841.841 0 0 0-.154-.19C19.353 2.786 16.75.303 16.68.236a.89.89 0 0 0-1.206 0C15.402.303 12.8 2.787 10.1 6.834c-.055.056-.114.113-.152.187-.01.021-.009.046-.019.068-3.02 4.599-6.09 11.136-5.818 18.444l-.266.124C1.472 26.792 0 29.067 0 31.6v9.999c0 .37.26.696.632.795a.869.869 0 0 0 .971-.372l4.65-7.427a27.617 27.617 0 0 0 1.72 3.193l-1.797 3.44a.789.789 0 0 0 .038.804.872.872 0 0 0 .734.393h2.345l-1.12 2.756a.794.794 0 0 0 .092.765.87.87 0 0 0 .712.36h14.2a.87.87 0 0 0 .713-.36.79.79 0 0 0 .093-.765l-1.12-2.756h2.343a.874.874 0 0 0 .735-.393.797.797 0 0 0 .038-.804l-1.8-3.441a27.356 27.356 0 0 0 1.722-3.192l4.648 7.427a.874.874 0 0 0 .971.372.833.833 0 0 0 .635-.795v-9.999c0-2.532-1.474-4.807-3.852-5.945zM16.077 15.245c3.439 0 6.236 2.678 6.236 5.967 0 3.291-2.797 5.968-6.236 5.968-3.439 0-6.235-2.677-6.235-5.968 0-3.29 2.796-5.967 6.235-5.967m0 13.59c-4.39 0-7.963-3.42-7.963-7.623 0-4.202 3.572-7.62 7.963-7.62 4.393 0 7.964 3.418 7.964 7.62s-3.571 7.622-7.964 7.622z"/>
        <path id="r" d="M21.561 41.464A19.908 19.908 0 0 1 7.1 35.214l1.355-5.235c.393-1.785 2.154-3.082 4.183-3.082h4.597c1.352 0 2.452-1.1 2.452-2.548 0-.78-.389-1.517-1.069-2.023-3.29-2.441-3.546-7.192-3.546-8.588 0-4.49 2.1-6.67 6.417-6.67 5.469 0 6.616 3.626 6.616 6.67 0 2.863-.945 6.623-3.6 8.588a2.569 2.569 0 0 0-1.068 2.118c0 1.353 1.1 2.453 2.451 2.453h4.94c2.062 0 3.782 1.267 4.184 3.083v-.001l1.134 5.116a19.932 19.932 0 0 1-14.584 6.37m0-39.806c10.975 0 19.903 8.928 19.903 19.902 0 4.321-1.406 8.492-3.977 11.92l-.856-3.86c-.572-2.58-2.957-4.383-5.803-4.383h-4.941c-.436 0-.793-.356-.793-.889 0-.252.146-.504.398-.691 3.964-2.932 4.271-8.334 4.271-9.92 0-5.294-3.015-8.33-8.275-8.33-5.207 0-8.075 2.958-8.075 8.33 0 1.592.305 7.017 4.214 9.92.254.187.4.44.4.788a.795.795 0 0 1-.793.792h-4.597c-2.848 0-5.233 1.803-5.797 4.354l-1.055 4.07a19.795 19.795 0 0 1-4.126-12.1c0-10.975 8.928-19.903 19.902-19.903m0-1.659C9.673 0 0 9.673 0 21.561c0 5.351 1.975 10.476 5.566 14.437v.001s.002 0 .002.002a21.578 21.578 0 0 0 15.993 7.122c6.14 0 12.01-2.637 16.105-7.236a21.502 21.502 0 0 0 5.457-14.326C43.123 9.673 33.45 0 21.56 0"/>
        <path id="t" d="M36.276 21.778a.833.833 0 0 0-.418.612l-1.095 7.77c-.032 0-.06-.01-.091-.01h-5.027v-6.137a.83.83 0 1 0-1.659 0v6.138H21.9v-6.138a.83.83 0 1 0-1.658 0v6.138h-6.09v-6.138a.83.83 0 1 0-1.658 0v6.138h-4.06c-.031 0-.061.008-.091.01l-1.095-7.773a.895.895 0 0 0-.446-.625c-2.979-1.666-5.143-5.408-5.143-8.895 0-4.503 3.753-8.167 8.366-8.167 1.259 0 2.47.266 3.6.791a.823.823 0 0 0 .652.012c.161-.062.3-.178.395-.323 1.566-2.203 4.137-3.519 6.881-3.519a8.44 8.44 0 0 1 6.907 3.556.823.823 0 0 0 1.026.272 8.465 8.465 0 0 1 3.595-.789c4.612 0 8.365 3.664 8.365 8.167 0 3.487-2.162 7.227-5.17 8.91zM35.5 37.357c0 .457-.371.83-.83.83H8.434a.831.831 0 0 1-.83-.83v-4.714c0-.457.372-.83.83-.83h26.239c.458 0 .83.373.83.83v4.714zM33.08 3.04c-1.273 0-2.507.227-3.674.68C27.51 1.38 24.62 0 21.552 0c-3.07 0-5.959 1.38-7.855 3.72a10.1 10.1 0 0 0-3.673-.68C4.497 3.04-.001 7.448-.001 12.868c0 3.914 2.352 8.108 5.661 10.15l1.098 7.794a2.486 2.486 0 0 0-.813 1.831v4.714a2.493 2.493 0 0 0 2.488 2.492h26.239a2.493 2.493 0 0 0 2.488-2.492v-4.714c0-.726-.317-1.374-.815-1.83l1.098-7.793c3.3-2.027 5.66-6.23 5.66-10.152 0-5.42-4.495-9.828-10.023-9.828z"/>
        <path id="v" d="M16.049 11.637c-2.296 0-4.163 1.827-4.163 4.074s1.867 4.074 4.163 4.074c2.293 0 4.16-1.827 4.16-4.074s-1.867-4.074-4.16-4.074zm0 9.892c-3.28 0-5.945-2.61-5.945-5.818 0-3.208 2.666-5.818 5.945-5.818 3.277 0 5.942 2.61 5.942 5.818 0 3.208-2.665 5.818-5.942 5.818zm0-19.784c-7.866 0-14.267 6.265-14.267 13.966 0 8.385 10.287 20.456 13.438 23.955l.003.004.079.087c.378.434 1.1.434 1.472.02l.121-.132c3.143-3.49 13.418-15.553 13.418-23.934 0-7.7-6.399-13.966-14.264-13.966zm-2.166 39.076C9.708 36.186 0 24.462 0 15.711 0 7.049 7.2.001 16.049.001c8.847 0 16.046 7.048 16.046 15.71 0 8.747-9.699 20.463-13.869 25.095l-.121.13a2.773 2.773 0 0 1-2.058.908c-.808 0-1.57-.346-2.094-.946l-.07-.077z"/>
        <path id="x" d="M21.325 35.539a.855.855 0 0 0-1.03.198l-2.448 2.842L15.4 26.103l1.438.35a.854.854 0 0 0 .796-.22l2.258-2.225 2.09-.55 2.705 13.82-3.362-1.74zm-11.219 4.84l-2.448-2.842a.844.844 0 0 0-1.03-.197l-3.361 1.737 3.015-15.25.687.18 2.26 2.227a.843.843 0 0 0 .793.218l3.017-.733-2.933 14.66zM3.838 18.578l-2.066-2.049.806-3.086a.837.837 0 0 0 .003-.398l-.749-3.09L3.92 7.9a.84.84 0 0 0 .219-.374l.747-2.78 2.818-.736a.837.837 0 0 0 .38-.217l2.064-2.047 3.078.762a.902.902 0 0 0 .41 0l3.077-.762 2.065 2.047a.851.851 0 0 0 .382.217l2.817.737.748 2.779a.81.81 0 0 0 .218.374l2.085 2.055-.746 3.092a.79.79 0 0 0 .003.396l.803 3.086-2.063 2.049a.8.8 0 0 0-.215.366l-.763 2.779-2.808.743a.863.863 0 0 0-.375.214l-2.083 2.053-3.152-.767a.866.866 0 0 0-.402.002l-3.144.765-2.085-2.053a.845.845 0 0 0-.375-.214l-1.998-.53-.005-.001-.804-.21-.763-2.781a.83.83 0 0 0-.215-.366zm19.703 4.042l.832-3.03 2.242-2.228a.819.819 0 0 0 .219-.788l-.87-3.345.806-3.342a.82.82 0 0 0-.223-.777l-2.255-2.225-.817-3.027a.83.83 0 0 0-.596-.588l-3.07-.803L17.57.244a.857.857 0 0 0-.802-.22L13.431.85 10.093.024a.855.855 0 0 0-.8.22l-2.24 2.223-3.069.803a.833.833 0 0 0-.598.588l-.815 3.027L.313 9.11a.822.822 0 0 0-.223.779l.81 3.34-.874 3.345a.819.819 0 0 0 .218.788L2.49 19.59l.832 3.03a.834.834 0 0 0 .598.585l.735.193-3.373 17.054a.825.825 0 0 0 .324.823.858.858 0 0 0 .892.07l4.316-2.231 3.145 3.651a.838.838 0 0 0 .854.265.83.83 0 0 0 .611-.642l2.135-10.883.609-2.956 2.363 12.039a.835.835 0 0 0 .825.67.838.838 0 0 0 .64-.293l3.145-3.651 4.316 2.229c.29.15.635.122.892-.068a.825.825 0 0 0 .325-.823L23.53 22.637c.002-.007.008-.01.01-.017zm-10.11-16c3.702 0 6.714 2.97 6.714 6.617 0 3.649-3.012 6.618-6.713 6.618-3.703 0-6.715-2.97-6.715-6.618S9.729 6.62 13.432 6.62m0 14.89c4.628 0 8.393-3.71 8.393-8.273 0-4.562-3.765-8.273-8.393-8.273-4.63 0-8.395 3.711-8.395 8.273 0 4.563 3.765 8.274 8.395 8.274"/>
        <path id="z" d="M14.888 33.901h8.858c.163-3.898 1.444-7.732 3.727-11.14a9.103 9.103 0 0 0 1.554-5.09c0-2.68-1.19-5.238-3.263-7.022-2.1-1.81-4.81-2.63-7.636-2.307-4.224.48-7.764 3.768-8.415 7.82a9.19 9.19 0 0 0 1.467 6.655c2.46 3.615 3.708 7.34 3.708 11.07v.014zm9.718 1.698H14.01c-.485 0-.878-.38-.878-.849v-.864c0-3.392-1.15-6.804-3.418-10.137a10.844 10.844 0 0 1-1.738-7.847c.77-4.791 4.955-8.678 9.948-9.246 3.278-.37 6.56.62 9.004 2.725 2.449 2.105 3.853 5.127 3.853 8.29 0 2.144-.636 4.223-1.836 6.014-2.266 3.38-3.463 7.206-3.463 11.065 0 .468-.393.849-.877.849zm0 3.415H14.011c-.484 0-.877-.38-.877-.848 0-.469.393-.849.877-.849h10.595c.484 0 .877.38.877.849 0 .468-.393.848-.877.848zM22.84 42.43h-7.064c-.484 0-.877-.38-.877-.849 0-.468.393-.849.877-.849h7.064c.484 0 .877.38.877.849 0 .468-.393.849-.877.849zm-9.443-20.176a.878.878 0 0 1-.733-.383 7.435 7.435 0 0 1-1.283-3.718 7.847 7.847 0 0 1 .088-1.725 7.15 7.15 0 0 1 .814-2.344.887.887 0 0 1 1.188-.35c.428.221.588.736.36 1.148a5.537 5.537 0 0 0-.628 1.806 6.187 6.187 0 0 0-.07 1.363c.024.393.089.782.192 1.162a5.952 5.952 0 0 0 .804 1.728.83.83 0 0 1-.253 1.174.88.88 0 0 1-.479.14zm24.307-2.75h-1.84c-.487 0-.878-.38-.878-.848 0-.468.391-.848.877-.848h1.841c.485 0 .878.38.878.848 0 .469-.393.849-.878.849zm-34.985 0H.878c-.486 0-.877-.38-.877-.848 0-.468.39-.848.877-.848h1.841c.484 0 .878.38.878.848 0 .469-.394.849-.878.849zm12.28-6.387a.89.89 0 0 1-.695-.327.832.832 0 0 1 .156-1.192c.444-.332.92-.619 1.416-.85a.888.888 0 0 1 1.173.394c.21.422.028.93-.41 1.134-.385.18-.757.404-1.103.663a.89.89 0 0 1-.537.178zm16.01-4.944a.897.897 0 0 1-.621-.247.831.831 0 0 1 0-1.202l1.302-1.26a.9.9 0 0 1 1.24 0 .827.827 0 0 1 0 1.2l-1.3 1.262a.897.897 0 0 1-.621.247zM6.27 32.095a.897.897 0 0 1-.621-.248.831.831 0 0 1 0-1.202l1.304-1.259a.9.9 0 0 1 1.24 0 .83.83 0 0 1 0 1.2l-1.301 1.261a.897.897 0 0 1-.622.248zM7.573 8.172a.897.897 0 0 1-.622-.247L5.65 6.664a.83.83 0 0 1 0-1.2.9.9 0 0 1 1.241 0l1.304 1.26a.831.831 0 0 1 0 1.2.897.897 0 0 1-.621.248zM32.31 32.095a.897.897 0 0 1-.622-.248l-1.3-1.26a.827.827 0 0 1 0-1.2.9.9 0 0 1 1.24 0l1.303 1.258a.831.831 0 0 1 0 1.202.897.897 0 0 1-.621.248zM19.29 3.479c-.485 0-.878-.38-.878-.849V.848c0-.468.393-.848.877-.848.485 0 .878.38.878.848V2.63c0 .469-.393.849-.878.849z"/>
        <path id="B" d="M23.944 32.64l-22.431-.1 4.348-4.635a5.54 5.54 0 0 0 1.523-3.797v-8.91c0-2.704 1.156-5.385 3.171-7.356 2.016-1.97 4.632-3.044 7.395-3.044.102 0 .204.001.305.004 2.693.075 5.236 1.113 7.153 2.915 1.981 1.891 3.07 4.387 3.07 7.027v9.364A5.54 5.54 0 0 0 30 27.905l4.242 4.735H23.944zM17.93 37.58c-2.164 0-4.057-1.428-4.72-3.434h9.438c-.663 2.006-2.556 3.434-4.718 3.434zM16.224 3.221c0-.946.766-1.716 1.707-1.716.94 0 1.706.77 1.706 1.716 0 .07-.034.12-.042.185a12.738 12.738 0 0 0-1.295-.108c-.69-.018-1.365.034-2.03.126-.01-.07-.046-.128-.046-.203zm19.21 28.285l-4.348-4.634a4.04 4.04 0 0 1-1.113-2.764v-9.364c0-3.057-1.256-5.94-3.54-8.122a12.242 12.242 0 0 0-5.356-2.921c.025-.158.055-.314.055-.48 0-1.775-1.437-3.22-3.201-3.22-1.766 0-3.202 1.445-3.202 3.22 0 .172.03.334.057.498a12.026 12.026 0 0 0-5.273 3.045C7.21 9.016 5.888 12.09 5.888 15.198v8.91c0 1.017-.396 2-1.112 2.764l-4.35 4.634a1.528 1.528 0 0 0-.3 1.668c.253.59.84.97 1.493.97h10.062c.71 2.853 3.272 4.94 6.25 4.94 2.976 0 5.539-2.087 6.247-4.94h10.064c.654 0 1.24-.38 1.493-.97a1.525 1.525 0 0 0-.3-1.668zM14.568 7.272a8.989 8.989 0 0 0-2.793 1.858 8.766 8.766 0 0 0-1.907 2.738 8.211 8.211 0 0 0-.707 3.332.75.75 0 0 0 .748.752.75.75 0 0 0 .747-.752c0-.934.196-1.85.58-2.723a7.286 7.286 0 0 1 1.581-2.268 7.473 7.473 0 0 1 2.33-1.55.751.751 0 0 0 .4-.983.744.744 0 0 0-.979-.404"/>
        <path id="D" d="M28.084 34.6l-3.003.001v-8.899h10.253l.001 1.8c0 3.915-3.252 7.098-7.251 7.098zM1.543 25.702h10.23v8.904l-10.227.003-.003-8.907zM8.786 4.514H9.2v.948c0 1.279 1.063 2.321 2.371 2.321s2.373-1.042 2.373-2.321v-.95l8.944-.002v.952c0 1.279 1.065 2.321 2.373 2.321 1.308 0 2.371-1.042 2.371-2.321v-.954l7.692-.003.004 6.353H1.614c.39-3.555 3.44-6.344 7.172-6.344zm2.785-3.01c.461 0 .836.367.836.818v3.14a.827.827 0 0 1-.836.817.827.827 0 0 1-.834-.817v-3.14c0-.45.375-.818.834-.818zm13.69 0c.46 0 .834.367.834.818v3.14a.827.827 0 0 1-.834.817.827.827 0 0 1-.836-.817v-3.14c0-.45.375-.818.836-.818zm-.18 14.3h10.248l.005 8.394H25.08v-8.394zm-23.543 0h10.235v8.394H1.54l-.003-8.394zM35.33 14.3H1.54l-.002-1.938h33.792V14.3zM23.544 25.702v8.9l-10.234.002v-8.902h10.234zM13.31 24.198h10.234v-8.394H13.31v8.394zM36.86 3.753a.76.76 0 0 0-.768-.752l-8.46.003v-.682C27.632 1.041 26.568 0 25.26 0c-1.308 0-2.373 1.04-2.373 2.322v.683l-8.944.003v-.686C13.944 1.041 12.88 0 11.571 0 10.263 0 9.2 1.04 9.2 2.322v.688h-.414C3.942 3.01 0 6.867 0 11.61L.01 35.36c0 .415.345.752.768.752l23.525-.007.01.001.009-.001 3.762-.002c4.846 0 8.788-3.858 8.788-8.601l-.01-23.75z"/>
        <path id="F" d="M20.559 1.581C10.094 1.581 1.58 10.094 1.58 20.56c0 10.464 8.513 18.977 18.978 18.977 10.464 0 18.977-8.513 18.977-18.977 0-10.465-8.513-18.978-18.977-18.978m0 39.536C9.223 41.117 0 31.894 0 20.56 0 9.223 9.223 0 20.559 0c11.335 0 20.558 9.223 20.558 20.559 0 11.335-9.223 20.558-20.558 20.558m0-8.594c-1.846 0-3.635-.362-5.322-1.079a13.616 13.616 0 0 1-4.349-2.932 13.643 13.643 0 0 1-2.935-4.349.79.79 0 0 1 1.456-.618 12.09 12.09 0 0 0 2.597 3.85 12.087 12.087 0 0 0 3.848 2.594 12.156 12.156 0 0 0 9.41 0 12.072 12.072 0 0 0 3.847-2.595 12.073 12.073 0 0 0 2.597-3.85.789.789 0 0 1 1.037-.417c.402.17.59.633.42 1.036a13.652 13.652 0 0 1-2.936 4.35 13.616 13.616 0 0 1-4.349 2.931 13.54 13.54 0 0 1-5.321 1.079m4.538-16.598l3.204 2.883 3.203-2.883c.781-.702 1.235-1.31 1.235-2.35 0-1.06-1.001-2.065-2.058-2.065-.703 0-1.352.321-1.736.859-.297.417-.99.417-1.287 0-.385-.538-1.033-.859-1.737-.859-1.056 0-2.057 1.004-2.057 2.065 0 1.038.452 1.648 1.233 2.35zm3.559 3.201l.02.02-.02-.02zm-.728.02c-.005.002-.008.006-.01.009l.01-.01zm.373 1.44c-.264 0-.512-.1-.702-.282l-3.56-3.202c-.912-.82-1.757-1.817-1.757-3.527 0-1.943 1.7-3.646 3.64-3.646a3.76 3.76 0 0 1 2.38.836 3.758 3.758 0 0 1 2.38-.836c1.937 0 3.638 1.703 3.638 3.646 0 1.712-.846 2.706-1.758 3.527l-3.579 3.221a1.005 1.005 0 0 1-.682.263zM10.437 11.51c-1.058 0-2.058 1.004-2.058 2.065 0 1.038.453 1.648 1.234 2.35l3.204 2.883 3.202-2.883c.781-.702 1.235-1.312 1.235-2.35 0-1.06-1-2.065-2.059-2.065-.702 0-1.35.321-1.735.859-.295.416-.99.417-1.287.001-.384-.539-1.034-.86-1.736-.86zm2.737 7.621l.018.014-.018-.014zm-.73.014l-.011.01.01-.01zm.371 1.44c-.26 0-.506-.097-.696-.277l-3.564-3.206c-.913-.82-1.757-1.817-1.757-3.527 0-1.943 1.7-3.646 3.639-3.646.884 0 1.725.302 2.38.836a3.756 3.756 0 0 1 2.378-.836c1.94 0 3.64 1.703 3.64 3.646 0 1.71-.845 2.706-1.758 3.527l-3.579 3.221a1.01 1.01 0 0 1-.683.263z"/>
        <path id="H" d="M6.867 34.058c0 .858-.696 1.557-1.552 1.557a1.556 1.556 0 0 1-1.55-1.557c0-.858.695-1.556 1.55-1.556.856 0 1.552.698 1.552 1.556m-1.552-9.052a2.553 2.553 0 0 1-2.545-2.554 2.552 2.552 0 0 1 2.545-2.555 2.552 2.552 0 0 1 2.546 2.555 2.553 2.553 0 0 1-2.546 2.554M8.934 9.857a3.627 3.627 0 0 1-3.619 3.63 3.627 3.627 0 0 1-3.618-3.63 3.628 3.628 0 0 1 3.618-3.63 3.628 3.628 0 0 1 3.619 3.63m1.697 0A5.323 5.323 0 0 0 6.166 4.61L6.164.852A.85.85 0 0 0 5.315 0a.85.85 0 0 0-.848.852l.002 3.758C1.942 5.02 0 7.207 0 9.857s1.943 4.837 4.47 5.246v3.174a4.263 4.263 0 0 0 .002 8.347l.002 4.299a3.254 3.254 0 0 0-2.407 3.135 3.254 3.254 0 0 0 2.408 3.135v2.826a.85.85 0 1 0 1.698 0v-2.83a3.253 3.253 0 0 0 2.39-3.13c0-1.5-1.02-2.751-2.392-3.131l-.002-4.306a4.261 4.261 0 0 0-.002-8.343v-3.176c2.524-.412 4.464-2.597 4.464-5.246m29.16 15.238H17.36l-2.636-2.645 2.636-2.643h22.433a2.643 2.643 0 0 1 2.636 2.643 2.643 2.643 0 0 1-2.636 2.645m0-6.99H17.008a.84.84 0 0 0-.6.248l-3.484 3.496a.854.854 0 0 0 0 1.204l3.485 3.497a.846.846 0 0 0 .599.248h22.784c2.388 0 4.333-1.951 4.333-4.348 0-2.396-1.945-4.346-4.333-4.346m0 18.598H17.359l-2.636-2.644 2.636-2.644h22.433a2.643 2.643 0 0 1 2.636 2.644 2.643 2.643 0 0 1-2.636 2.644m0-6.99H17.008a.84.84 0 0 0-.6.248l-3.484 3.496a.854.854 0 0 0 0 1.205l3.485 3.496a.846.846 0 0 0 .599.249h22.784c2.388 0 4.333-1.952 4.333-4.348 0-2.397-1.945-4.347-4.333-4.347m2.635-19.854a2.643 2.643 0 0 1-2.636 2.644H17.36l-2.634-2.644 2.634-2.644H39.79a2.643 2.643 0 0 1 2.636 2.644zm-26.019 4.096c.16.16.375.25.6.25H39.79c2.388 0 4.333-1.95 4.333-4.346S42.18 5.51 39.791 5.51H17.007c-.224 0-.44.09-.599.25l-3.484 3.496a.852.852 0 0 0-.248.602c0 .227.088.443.248.603l3.484 3.493z"/>
        <path id="J" d="M30.427 38.608L26.81 32.83c-.036-.056-.092-.114-.131-.17a23.925 23.925 0 0 0 1.23-5.315c1.559.903 2.518 2.492 2.518 4.253v7.009zM21.6 40.77H8.346l1.165-2.23h13.133l1.163 2.23H21.6zm.314 3.881H10.24l.906-2.228h9.863l.905 2.228zM5.336 32.844l-3.608 5.764v-7.009c0-1.763.96-3.354 2.516-4.253a23.76 23.76 0 0 0 1.234 5.316c-.045.06-.1.12-.142.182zm5.746-24.409c1.608.65 3.298.996 4.995.996a13.3 13.3 0 0 0 5.001-1c4.301 6.731 8.455 17.468 1.664 28.457H9.411C2.628 25.91 6.782 15.169 11.08 8.435zm4.995-6.408c.826.86 2.394 2.604 4.06 4.996a11.49 11.49 0 0 1-8.114.001 42.284 42.284 0 0 1 4.054-4.997zm12.226 23.627l-.26-.12c.27-7.309-2.799-13.846-5.82-18.445-.008-.022-.006-.047-.016-.068a.841.841 0 0 0-.154-.19C19.353 2.786 16.75.303 16.68.236a.89.89 0 0 0-1.206 0C15.402.303 12.8 2.787 10.1 6.834c-.055.056-.114.113-.152.187-.01.021-.009.046-.019.068-3.02 4.599-6.09 11.136-5.818 18.444l-.266.124C1.472 26.792 0 29.067 0 31.6v9.999c0 .37.26.696.632.795a.869.869 0 0 0 .971-.372l4.65-7.427a27.617 27.617 0 0 0 1.72 3.193l-1.797 3.44a.789.789 0 0 0 .038.804.872.872 0 0 0 .734.393h2.345l-1.12 2.756a.794.794 0 0 0 .092.765.87.87 0 0 0 .712.36h14.2a.87.87 0 0 0 .713-.36.79.79 0 0 0 .093-.765l-1.12-2.756h2.343a.874.874 0 0 0 .735-.393.797.797 0 0 0 .038-.804l-1.8-3.441a27.356 27.356 0 0 0 1.722-3.192l4.648 7.427a.874.874 0 0 0 .971.372.833.833 0 0 0 .635-.795v-9.999c0-2.532-1.474-4.807-3.852-5.945zM16.077 15.245c3.439 0 6.236 2.678 6.236 5.967 0 3.291-2.797 5.968-6.236 5.968-3.439 0-6.235-2.677-6.235-5.968 0-3.29 2.796-5.967 6.235-5.967m0 13.59c-4.39 0-7.963-3.42-7.963-7.623 0-4.202 3.572-7.62 7.963-7.62 4.393 0 7.964 3.418 7.964 7.62s-3.571 7.622-7.964 7.622z"/>
        <path id="L" d="M21.561 41.464A19.908 19.908 0 0 1 7.1 35.214l1.355-5.235c.393-1.785 2.154-3.082 4.183-3.082h4.597c1.352 0 2.452-1.1 2.452-2.548 0-.78-.389-1.517-1.069-2.023-3.29-2.441-3.546-7.192-3.546-8.588 0-4.49 2.1-6.67 6.417-6.67 5.469 0 6.616 3.626 6.616 6.67 0 2.863-.945 6.623-3.6 8.588a2.569 2.569 0 0 0-1.068 2.118c0 1.353 1.1 2.453 2.451 2.453h4.94c2.062 0 3.782 1.267 4.184 3.083v-.001l1.134 5.116a19.932 19.932 0 0 1-14.584 6.37m0-39.806c10.975 0 19.903 8.928 19.903 19.902 0 4.321-1.406 8.492-3.977 11.92l-.856-3.86c-.572-2.58-2.957-4.383-5.803-4.383h-4.941c-.436 0-.793-.356-.793-.889 0-.252.146-.504.398-.691 3.964-2.932 4.271-8.334 4.271-9.92 0-5.294-3.015-8.33-8.275-8.33-5.207 0-8.075 2.958-8.075 8.33 0 1.592.305 7.017 4.214 9.92.254.187.4.44.4.788a.795.795 0 0 1-.793.792h-4.597c-2.848 0-5.233 1.803-5.797 4.354l-1.055 4.07a19.795 19.795 0 0 1-4.126-12.1c0-10.975 8.928-19.903 19.902-19.903m0-1.659C9.673 0 0 9.673 0 21.561c0 5.351 1.975 10.476 5.566 14.437v.001s.002 0 .002.002a21.578 21.578 0 0 0 15.993 7.122c6.14 0 12.01-2.637 16.105-7.236a21.502 21.502 0 0 0 5.457-14.326C43.123 9.673 33.45 0 21.56 0"/>
        <path id="N" d="M36.276 21.778a.833.833 0 0 0-.418.612l-1.095 7.77c-.032 0-.06-.01-.091-.01h-5.027v-6.137a.83.83 0 1 0-1.659 0v6.138H21.9v-6.138a.83.83 0 1 0-1.658 0v6.138h-6.09v-6.138a.83.83 0 1 0-1.658 0v6.138h-4.06c-.031 0-.061.008-.091.01l-1.095-7.773a.895.895 0 0 0-.446-.625c-2.979-1.666-5.143-5.408-5.143-8.895 0-4.503 3.753-8.167 8.366-8.167 1.259 0 2.47.266 3.6.791a.823.823 0 0 0 .652.012c.161-.062.3-.178.395-.323 1.566-2.203 4.137-3.519 6.881-3.519a8.44 8.44 0 0 1 6.907 3.556.823.823 0 0 0 1.026.272 8.465 8.465 0 0 1 3.595-.789c4.612 0 8.365 3.664 8.365 8.167 0 3.487-2.162 7.227-5.17 8.91zM35.5 37.357c0 .457-.371.83-.83.83H8.434a.831.831 0 0 1-.83-.83v-4.714c0-.457.372-.83.83-.83h26.239c.458 0 .83.373.83.83v4.714zM33.08 3.04c-1.273 0-2.507.227-3.674.68C27.51 1.38 24.62 0 21.552 0c-3.07 0-5.959 1.38-7.855 3.72a10.1 10.1 0 0 0-3.673-.68C4.497 3.04-.001 7.448-.001 12.868c0 3.914 2.352 8.108 5.661 10.15l1.098 7.794a2.486 2.486 0 0 0-.813 1.831v4.714a2.493 2.493 0 0 0 2.488 2.492h26.239a2.493 2.493 0 0 0 2.488-2.492v-4.714c0-.726-.317-1.374-.815-1.83l1.098-7.793c3.3-2.027 5.66-6.23 5.66-10.152 0-5.42-4.495-9.828-10.023-9.828z"/>
        <path id="P" d="M28.084 34.6l-3.003.001v-8.899h10.253l.001 1.8c0 3.915-3.252 7.098-7.251 7.098zM1.543 25.702h10.23v8.904l-10.227.003-.003-8.907zM8.786 4.514H9.2v.948c0 1.279 1.063 2.321 2.371 2.321s2.373-1.042 2.373-2.321v-.95l8.944-.002v.952c0 1.279 1.065 2.321 2.373 2.321 1.308 0 2.371-1.042 2.371-2.321v-.954l7.692-.003.004 6.353H1.614c.39-3.555 3.44-6.344 7.172-6.344zm2.785-3.01c.461 0 .836.367.836.818v3.14a.827.827 0 0 1-.836.817.827.827 0 0 1-.834-.817v-3.14c0-.45.375-.818.834-.818zm13.69 0c.46 0 .834.367.834.818v3.14a.827.827 0 0 1-.834.817.827.827 0 0 1-.836-.817v-3.14c0-.45.375-.818.836-.818zm-.18 14.3h10.248l.005 8.394H25.08v-8.394zm-23.543 0h10.235v8.394H1.54l-.003-8.394zM35.33 14.3H1.54l-.002-1.938h33.792V14.3zM23.544 25.702v8.9l-10.234.002v-8.902h10.234zM13.31 24.198h10.234v-8.394H13.31v8.394zM36.86 3.753a.76.76 0 0 0-.768-.752l-8.46.003v-.682C27.632 1.041 26.568 0 25.26 0c-1.308 0-2.373 1.04-2.373 2.322v.683l-8.944.003v-.686C13.944 1.041 12.88 0 11.571 0 10.263 0 9.2 1.04 9.2 2.322v.688h-.414C3.942 3.01 0 6.867 0 11.61L.01 35.36c0 .415.345.752.768.752l23.525-.007.01.001.009-.001 3.762-.002c4.846 0 8.788-3.858 8.788-8.601l-.01-23.75z"/>
        <path id="R" d="M37.531 13.883a.83.83 0 0 1-.779.495h-4.435l-2.644-6.307h3.431l4.281 4.956a.77.77 0 0 1 .146.856zM32.74 34.394h-6.92V23.197a.748.748 0 0 0-.752-.748H14.08a.75.75 0 0 0-.753.748v11.197H6.41v-18.52h26.33v18.52zm-17.907 0h9.483v-10.45h-9.483v10.45zM1.576 13.884a.77.77 0 0 1 .146-.857l.016-.018L6.003 8.07h3.431l-2.643 6.307H2.355a.831.831 0 0 1-.78-.495zm24.31.494l-1.32-6.307h3.478l2.643 6.307h-4.8zm-5.58-6.307h2.724l1.32 6.307h-4.044V8.071zM8.42 14.378l2.643-6.307h3.478l-1.32 6.307h-4.8zm6.336 0l1.321-6.307h2.724v6.307h-4.045zM6.37 6.576h26.328v-5.08H6.369v5.08zm32.142 5.458L34.2 7.045V.748A.75.75 0 0 0 33.449 0H5.616a.748.748 0 0 0-.752.748v6.346l-4.26 4.932A2.247 2.247 0 0 0 .2 14.485a2.32 2.32 0 0 0 2.156 1.389h2.55v19.268a.75.75 0 0 0 .752.748h27.834a.75.75 0 0 0 .752-.748V15.874h2.51c.95 0 1.777-.531 2.156-1.39a2.243 2.243 0 0 0-.398-2.45z"/>
        <path id="T" d="M7.655 25.057l14.852 13.515 14.966-13.515c4.092-3.726 5.918-7.487 5.918-12.196 0-5.812-5.22-11.105-10.952-11.105-3.697 0-7.123 1.728-9.168 4.627-.325.462-1.088.462-1.413 0-2.044-2.899-5.474-4.627-9.171-4.627-5.73 0-10.95 5.293-10.95 11.103 0 4.71 1.825 8.472 5.918 12.198m14.91 15.3c-.459 0-.894-.174-1.231-.49L6.492 26.361C3.706 23.825 0 19.665 0 12.86 0 6.131 6.048.001 12.687.001c3.858 0 7.47 1.646 9.878 4.455 2.407-2.81 6.017-4.455 9.874-4.455 6.64 0 12.688 6.128 12.688 12.858 0 6.806-3.706 10.966-6.491 13.502L23.778 39.88c-.328.306-.76.476-1.213.476"/>
        <path id="V" d="M20.559 1.581C10.094 1.581 1.58 10.094 1.58 20.56c0 10.464 8.513 18.977 18.978 18.977 10.464 0 18.977-8.513 18.977-18.977 0-10.465-8.513-18.978-18.977-18.978m0 39.536C9.223 41.117 0 31.894 0 20.56 0 9.223 9.223 0 20.559 0c11.335 0 20.558 9.223 20.558 20.559 0 11.335-9.223 20.558-20.558 20.558m0-8.594c-1.846 0-3.635-.362-5.322-1.079a13.616 13.616 0 0 1-4.349-2.932 13.643 13.643 0 0 1-2.935-4.349.79.79 0 0 1 1.456-.618 12.09 12.09 0 0 0 2.597 3.85 12.087 12.087 0 0 0 3.848 2.594 12.156 12.156 0 0 0 9.41 0 12.072 12.072 0 0 0 3.847-2.595 12.073 12.073 0 0 0 2.597-3.85.789.789 0 0 1 1.037-.417c.402.17.59.633.42 1.036a13.652 13.652 0 0 1-2.936 4.35 13.616 13.616 0 0 1-4.349 2.931 13.54 13.54 0 0 1-5.321 1.079m4.538-16.598l3.204 2.883 3.203-2.883c.781-.702 1.235-1.31 1.235-2.35 0-1.06-1.001-2.065-2.058-2.065-.703 0-1.352.321-1.736.859-.297.417-.99.417-1.287 0-.385-.538-1.033-.859-1.737-.859-1.056 0-2.057 1.004-2.057 2.065 0 1.038.452 1.648 1.233 2.35zm3.559 3.201l.02.02-.02-.02zm-.728.02c-.005.002-.008.006-.01.009l.01-.01zm.373 1.44c-.264 0-.512-.1-.702-.282l-3.56-3.202c-.912-.82-1.757-1.817-1.757-3.527 0-1.943 1.7-3.646 3.64-3.646a3.76 3.76 0 0 1 2.38.836 3.758 3.758 0 0 1 2.38-.836c1.937 0 3.638 1.703 3.638 3.646 0 1.712-.846 2.706-1.758 3.527l-3.579 3.221a1.005 1.005 0 0 1-.682.263zM10.437 11.51c-1.058 0-2.058 1.004-2.058 2.065 0 1.038.453 1.648 1.234 2.35l3.204 2.883 3.202-2.883c.781-.702 1.235-1.312 1.235-2.35 0-1.06-1-2.065-2.059-2.065-.702 0-1.35.321-1.735.859-.295.416-.99.417-1.287.001-.384-.539-1.034-.86-1.736-.86zm2.737 7.621l.018.014-.018-.014zm-.73.014l-.011.01.01-.01zm.371 1.44c-.26 0-.506-.097-.696-.277l-3.564-3.206c-.913-.82-1.757-1.817-1.757-3.527 0-1.943 1.7-3.646 3.639-3.646.884 0 1.725.302 2.38.836a3.756 3.756 0 0 1 2.378-.836c1.94 0 3.64 1.703 3.64 3.646 0 1.71-.845 2.706-1.758 3.527l-3.579 3.221a1.01 1.01 0 0 1-.683.263z"/>
        <path id="X" d="M24.116 6.177c0-2.62 2.195-4.754 4.894-4.754 2.698 0 4.894 2.133 4.894 4.754 0 2.62-2.196 4.754-4.894 4.754-2.699 0-4.894-2.133-4.894-4.754m-5.063 14.377c-2.074 0-3.763-1.64-3.763-3.654 0-2.015 1.689-3.653 3.763-3.653s3.761 1.638 3.761 3.653c0 2.014-1.687 3.654-3.761 3.654M4.203 6.177c0-2.62 2.196-4.754 4.895-4.754 2.698 0 4.892 2.133 4.892 4.754 0 2.62-2.194 4.754-4.892 4.754-2.699 0-4.894-2.133-4.894-4.754m27.98 5.32c1.894-1.07 3.185-3.04 3.185-5.32C35.37 2.77 32.516 0 29.01 0s-6.36 2.77-6.36 6.177c0 2.28 1.292 4.25 3.187 5.32a9.139 9.139 0 0 0-3.062 1.845 5.288 5.288 0 0 0-3.721-1.519 5.276 5.276 0 0 0-3.72 1.52 9.174 9.174 0 0 0-3.063-1.846c1.895-1.07 3.186-3.04 3.186-5.32C15.456 2.77 12.604 0 9.098 0c-3.508 0-6.36 2.77-6.36 6.177 0 2.278 1.29 4.248 3.184 5.319C2.468 12.75 0 15.98 0 19.767c0 .393.328.712.733.712a.723.723 0 0 0 .733-.712c0-4.087 3.424-7.413 7.632-7.413 2.017 0 3.946.789 5.37 2.158-.397.715-.643 1.52-.643 2.388 0 1.762.93 3.314 2.336 4.225-2.654 1.098-4.523 3.655-4.523 6.63 0 .394.328.712.733.712a.721.721 0 0 0 .733-.712c0-3.186 2.669-5.777 5.949-5.777s5.948 2.591 5.948 5.777c0 .394.328.712.733.712a.721.721 0 0 0 .733-.712c0-2.975-1.868-5.532-4.522-6.63 1.405-.91 2.335-2.463 2.335-4.225 0-.867-.247-1.672-.64-2.388a7.75 7.75 0 0 1 5.367-2.158c4.206 0 7.629 3.324 7.629 7.41 0 .393.328.712.733.712a.723.723 0 0 0 .732-.712c0-3.784-2.466-7.011-5.917-8.267"/>
        <path id="Z" d="M22.178 15.459h11.54v-6.5h-11.54v6.5zm0 19.71H30.4V16.923h-8.222v18.244zm-17.395 0h7.963V16.923H4.783v18.244zm-3.317-19.71h11.278v-6.5H1.466v6.5zM7.353 2.996c.426-.98 1.488-1.535 2.702-1.535.561 0 1.153.119 1.73.37 1.93.836 3.927 3.818 4.744 5.147-1.536.31-5.073.888-6.999.053-.907-.395-1.63-1.048-2.037-1.841-.38-.746-.431-1.525-.14-2.194zM23.136 1.83c1.824-.791 3.811-.268 4.434 1.166.29.67.24 1.448-.14 2.194-.407.793-1.13 1.446-2.038 1.84-1.914.83-5.414.269-6.999-.052.82-1.337 2.811-4.31 4.743-5.148zm-5.647 5.1l-.003-.003h.001l.003.001-.001.002zM14.21 35.168h6.502V8.958H14.21v26.21zM34.45 7.492h-7.062c.557-.463 1.026-1.01 1.346-1.635.585-1.142.65-2.366.182-3.445C27.972.237 25.12-.626 22.553.486c-2.067.896-4.001 3.522-5.092 5.224-1.093-1.703-3.03-4.33-5.092-5.224C9.803-.628 6.95.237 6.008 2.412c-.47 1.079-.405 2.303.182 3.445.318.626.787 1.172 1.345 1.635H.733A.733.733 0 0 0 0 8.225v7.966c0 .405.328.733.733.733h2.584v18.977c0 .404.327.733.733.733h27.083a.732.732 0 0 0 .733-.733V16.924h2.584a.733.733 0 0 0 .733-.733V8.225a.733.733 0 0 0-.733-.733z"/>
        <path id="ab" d="M6.867 34.058c0 .858-.696 1.557-1.552 1.557a1.556 1.556 0 0 1-1.55-1.557c0-.858.695-1.556 1.55-1.556.856 0 1.552.698 1.552 1.556m-1.552-9.052a2.553 2.553 0 0 1-2.545-2.554 2.552 2.552 0 0 1 2.545-2.555 2.552 2.552 0 0 1 2.546 2.555 2.553 2.553 0 0 1-2.546 2.554M8.934 9.857a3.627 3.627 0 0 1-3.619 3.63 3.627 3.627 0 0 1-3.618-3.63 3.628 3.628 0 0 1 3.618-3.63 3.628 3.628 0 0 1 3.619 3.63m1.697 0A5.323 5.323 0 0 0 6.166 4.61L6.164.852A.85.85 0 0 0 5.315 0a.85.85 0 0 0-.848.852l.002 3.758C1.942 5.02 0 7.207 0 9.857s1.943 4.837 4.47 5.246v3.174a4.263 4.263 0 0 0 .002 8.347l.002 4.299a3.254 3.254 0 0 0-2.407 3.135 3.254 3.254 0 0 0 2.408 3.135v2.826a.85.85 0 1 0 1.698 0v-2.83a3.253 3.253 0 0 0 2.39-3.13c0-1.5-1.02-2.751-2.392-3.131l-.002-4.306a4.261 4.261 0 0 0-.002-8.343v-3.176c2.524-.412 4.464-2.597 4.464-5.246m29.16 15.238H17.36l-2.636-2.645 2.636-2.643h22.433a2.643 2.643 0 0 1 2.636 2.643 2.643 2.643 0 0 1-2.636 2.645m0-6.99H17.008a.84.84 0 0 0-.6.248l-3.484 3.496a.854.854 0 0 0 0 1.204l3.485 3.497a.846.846 0 0 0 .599.248h22.784c2.388 0 4.333-1.951 4.333-4.348 0-2.396-1.945-4.346-4.333-4.346m0 18.598H17.359l-2.636-2.644 2.636-2.644h22.433a2.643 2.643 0 0 1 2.636 2.644 2.643 2.643 0 0 1-2.636 2.644m0-6.99H17.008a.84.84 0 0 0-.6.248l-3.484 3.496a.854.854 0 0 0 0 1.205l3.485 3.496a.846.846 0 0 0 .599.249h22.784c2.388 0 4.333-1.952 4.333-4.348 0-2.397-1.945-4.347-4.333-4.347m2.635-19.854a2.643 2.643 0 0 1-2.636 2.644H17.36l-2.634-2.644 2.634-2.644H39.79a2.643 2.643 0 0 1 2.636 2.644zm-26.019 4.096c.16.16.375.25.6.25H39.79c2.388 0 4.333-1.95 4.333-4.346S42.18 5.51 39.791 5.51H17.007c-.224 0-.44.09-.599.25l-3.484 3.496a.852.852 0 0 0-.248.602c0 .227.088.443.248.603l3.484 3.493z"/>
        <path id="ad" d="M30.427 38.608L26.81 32.83c-.036-.056-.092-.114-.131-.17a23.925 23.925 0 0 0 1.23-5.315c1.559.903 2.518 2.492 2.518 4.253v7.009zM21.6 40.77H8.346l1.165-2.23h13.133l1.163 2.23H21.6zm.314 3.881H10.24l.906-2.228h9.863l.905 2.228zM5.336 32.844l-3.608 5.764v-7.009c0-1.763.96-3.354 2.516-4.253a23.76 23.76 0 0 0 1.234 5.316c-.045.06-.1.12-.142.182zm5.746-24.409c1.608.65 3.298.996 4.995.996a13.3 13.3 0 0 0 5.001-1c4.301 6.731 8.455 17.468 1.664 28.457H9.411C2.628 25.91 6.782 15.169 11.08 8.435zm4.995-6.408c.826.86 2.394 2.604 4.06 4.996a11.49 11.49 0 0 1-8.114.001 42.284 42.284 0 0 1 4.054-4.997zm12.226 23.627l-.26-.12c.27-7.309-2.799-13.846-5.82-18.445-.008-.022-.006-.047-.016-.068a.841.841 0 0 0-.154-.19C19.353 2.786 16.75.303 16.68.236a.89.89 0 0 0-1.206 0C15.402.303 12.8 2.787 10.1 6.834c-.055.056-.114.113-.152.187-.01.021-.009.046-.019.068-3.02 4.599-6.09 11.136-5.818 18.444l-.266.124C1.472 26.792 0 29.067 0 31.6v9.999c0 .37.26.696.632.795a.869.869 0 0 0 .971-.372l4.65-7.427a27.617 27.617 0 0 0 1.72 3.193l-1.797 3.44a.789.789 0 0 0 .038.804.872.872 0 0 0 .734.393h2.345l-1.12 2.756a.794.794 0 0 0 .092.765.87.87 0 0 0 .712.36h14.2a.87.87 0 0 0 .713-.36.79.79 0 0 0 .093-.765l-1.12-2.756h2.343a.874.874 0 0 0 .735-.393.797.797 0 0 0 .038-.804l-1.8-3.441a27.356 27.356 0 0 0 1.722-3.192l4.648 7.427a.874.874 0 0 0 .971.372.833.833 0 0 0 .635-.795v-9.999c0-2.532-1.474-4.807-3.852-5.945zM16.077 15.245c3.439 0 6.236 2.678 6.236 5.967 0 3.291-2.797 5.968-6.236 5.968-3.439 0-6.235-2.677-6.235-5.968 0-3.29 2.796-5.967 6.235-5.967m0 13.59c-4.39 0-7.963-3.42-7.963-7.623 0-4.202 3.572-7.62 7.963-7.62 4.393 0 7.964 3.418 7.964 7.62s-3.571 7.622-7.964 7.622z"/>
        <path id="af" d="M21.561 41.464A19.908 19.908 0 0 1 7.1 35.214l1.355-5.235c.393-1.785 2.154-3.082 4.183-3.082h4.597c1.352 0 2.452-1.1 2.452-2.548 0-.78-.389-1.517-1.069-2.023-3.29-2.441-3.546-7.192-3.546-8.588 0-4.49 2.1-6.67 6.417-6.67 5.469 0 6.616 3.626 6.616 6.67 0 2.863-.945 6.623-3.6 8.588a2.569 2.569 0 0 0-1.068 2.118c0 1.353 1.1 2.453 2.451 2.453h4.94c2.062 0 3.782 1.267 4.184 3.083v-.001l1.134 5.116a19.932 19.932 0 0 1-14.584 6.37m0-39.806c10.975 0 19.903 8.928 19.903 19.902 0 4.321-1.406 8.492-3.977 11.92l-.856-3.86c-.572-2.58-2.957-4.383-5.803-4.383h-4.941c-.436 0-.793-.356-.793-.889 0-.252.146-.504.398-.691 3.964-2.932 4.271-8.334 4.271-9.92 0-5.294-3.015-8.33-8.275-8.33-5.207 0-8.075 2.958-8.075 8.33 0 1.592.305 7.017 4.214 9.92.254.187.4.44.4.788a.795.795 0 0 1-.793.792h-4.597c-2.848 0-5.233 1.803-5.797 4.354l-1.055 4.07a19.795 19.795 0 0 1-4.126-12.1c0-10.975 8.928-19.903 19.902-19.903m0-1.659C9.673 0 0 9.673 0 21.561c0 5.351 1.975 10.476 5.566 14.437v.001s.002 0 .002.002a21.578 21.578 0 0 0 15.993 7.122c6.14 0 12.01-2.637 16.105-7.236a21.502 21.502 0 0 0 5.457-14.326C43.123 9.673 33.45 0 21.56 0"/>
        <path id="ah" d="M36.276 21.778a.833.833 0 0 0-.418.612l-1.095 7.77c-.032 0-.06-.01-.091-.01h-5.027v-6.137a.83.83 0 1 0-1.659 0v6.138H21.9v-6.138a.83.83 0 1 0-1.658 0v6.138h-6.09v-6.138a.83.83 0 1 0-1.658 0v6.138h-4.06c-.031 0-.061.008-.091.01l-1.095-7.773a.895.895 0 0 0-.446-.625c-2.979-1.666-5.143-5.408-5.143-8.895 0-4.503 3.753-8.167 8.366-8.167 1.259 0 2.47.266 3.6.791a.823.823 0 0 0 .652.012c.161-.062.3-.178.395-.323 1.566-2.203 4.137-3.519 6.881-3.519a8.44 8.44 0 0 1 6.907 3.556.823.823 0 0 0 1.026.272 8.465 8.465 0 0 1 3.595-.789c4.612 0 8.365 3.664 8.365 8.167 0 3.487-2.162 7.227-5.17 8.91zM35.5 37.357c0 .457-.371.83-.83.83H8.434a.831.831 0 0 1-.83-.83v-4.714c0-.457.372-.83.83-.83h26.239c.458 0 .83.373.83.83v4.714zM33.08 3.04c-1.273 0-2.507.227-3.674.68C27.51 1.38 24.62 0 21.552 0c-3.07 0-5.959 1.38-7.855 3.72a10.1 10.1 0 0 0-3.673-.68C4.497 3.04-.001 7.448-.001 12.868c0 3.914 2.352 8.108 5.661 10.15l1.098 7.794a2.486 2.486 0 0 0-.813 1.831v4.714a2.493 2.493 0 0 0 2.488 2.492h26.239a2.493 2.493 0 0 0 2.488-2.492v-4.714c0-.726-.317-1.374-.815-1.83l1.098-7.793c3.3-2.027 5.66-6.23 5.66-10.152 0-5.42-4.495-9.828-10.023-9.828z"/>
        <path id="aj" d="M16.049 11.637c-2.296 0-4.163 1.827-4.163 4.074s1.867 4.074 4.163 4.074c2.293 0 4.16-1.827 4.16-4.074s-1.867-4.074-4.16-4.074zm0 9.892c-3.28 0-5.945-2.61-5.945-5.818 0-3.208 2.666-5.818 5.945-5.818 3.277 0 5.942 2.61 5.942 5.818 0 3.208-2.665 5.818-5.942 5.818zm0-19.784c-7.866 0-14.267 6.265-14.267 13.966 0 8.385 10.287 20.456 13.438 23.955l.003.004.079.087c.378.434 1.1.434 1.472.02l.121-.132c3.143-3.49 13.418-15.553 13.418-23.934 0-7.7-6.399-13.966-14.264-13.966zm-2.166 39.076C9.708 36.186 0 24.462 0 15.711 0 7.049 7.2.001 16.049.001c8.847 0 16.046 7.048 16.046 15.71 0 8.747-9.699 20.463-13.869 25.095l-.121.13a2.773 2.773 0 0 1-2.058.908c-.808 0-1.57-.346-2.094-.946l-.07-.077z"/>
        <path id="al" d="M21.325 35.539a.855.855 0 0 0-1.03.198l-2.448 2.842L15.4 26.103l1.438.35a.854.854 0 0 0 .796-.22l2.258-2.225 2.09-.55 2.705 13.82-3.362-1.74zm-11.219 4.84l-2.448-2.842a.844.844 0 0 0-1.03-.197l-3.361 1.737 3.015-15.25.687.18 2.26 2.227a.843.843 0 0 0 .793.218l3.017-.733-2.933 14.66zM3.838 18.578l-2.066-2.049.806-3.086a.837.837 0 0 0 .003-.398l-.749-3.09L3.92 7.9a.84.84 0 0 0 .219-.374l.747-2.78 2.818-.736a.837.837 0 0 0 .38-.217l2.064-2.047 3.078.762a.902.902 0 0 0 .41 0l3.077-.762 2.065 2.047a.851.851 0 0 0 .382.217l2.817.737.748 2.779a.81.81 0 0 0 .218.374l2.085 2.055-.746 3.092a.79.79 0 0 0 .003.396l.803 3.086-2.063 2.049a.8.8 0 0 0-.215.366l-.763 2.779-2.808.743a.863.863 0 0 0-.375.214l-2.083 2.053-3.152-.767a.866.866 0 0 0-.402.002l-3.144.765-2.085-2.053a.845.845 0 0 0-.375-.214l-1.998-.53-.005-.001-.804-.21-.763-2.781a.83.83 0 0 0-.215-.366zm19.703 4.042l.832-3.03 2.242-2.228a.819.819 0 0 0 .219-.788l-.87-3.345.806-3.342a.82.82 0 0 0-.223-.777l-2.255-2.225-.817-3.027a.83.83 0 0 0-.596-.588l-3.07-.803L17.57.244a.857.857 0 0 0-.802-.22L13.431.85 10.093.024a.855.855 0 0 0-.8.22l-2.24 2.223-3.069.803a.833.833 0 0 0-.598.588l-.815 3.027L.313 9.11a.822.822 0 0 0-.223.779l.81 3.34-.874 3.345a.819.819 0 0 0 .218.788L2.49 19.59l.832 3.03a.834.834 0 0 0 .598.585l.735.193-3.373 17.054a.825.825 0 0 0 .324.823.858.858 0 0 0 .892.07l4.316-2.231 3.145 3.651a.838.838 0 0 0 .854.265.83.83 0 0 0 .611-.642l2.135-10.883.609-2.956 2.363 12.039a.835.835 0 0 0 .825.67.838.838 0 0 0 .64-.293l3.145-3.651 4.316 2.229c.29.15.635.122.892-.068a.825.825 0 0 0 .325-.823L23.53 22.637c.002-.007.008-.01.01-.017zm-10.11-16c3.702 0 6.714 2.97 6.714 6.617 0 3.649-3.012 6.618-6.713 6.618-3.703 0-6.715-2.97-6.715-6.618S9.729 6.62 13.432 6.62m0 14.89c4.628 0 8.393-3.71 8.393-8.273 0-4.562-3.765-8.273-8.393-8.273-4.63 0-8.395 3.711-8.395 8.273 0 4.563 3.765 8.274 8.395 8.274"/>
        <path id="an" d="M14.888 33.901h8.858c.163-3.898 1.444-7.732 3.727-11.14a9.103 9.103 0 0 0 1.554-5.09c0-2.68-1.19-5.238-3.263-7.022-2.1-1.81-4.81-2.63-7.636-2.307-4.224.48-7.764 3.768-8.415 7.82a9.19 9.19 0 0 0 1.467 6.655c2.46 3.615 3.708 7.34 3.708 11.07v.014zm9.718 1.698H14.01c-.485 0-.878-.38-.878-.849v-.864c0-3.392-1.15-6.804-3.418-10.137a10.844 10.844 0 0 1-1.738-7.847c.77-4.791 4.955-8.678 9.948-9.246 3.278-.37 6.56.62 9.004 2.725 2.449 2.105 3.853 5.127 3.853 8.29 0 2.144-.636 4.223-1.836 6.014-2.266 3.38-3.463 7.206-3.463 11.065 0 .468-.393.849-.877.849zm0 3.415H14.011c-.484 0-.877-.38-.877-.848 0-.469.393-.849.877-.849h10.595c.484 0 .877.38.877.849 0 .468-.393.848-.877.848zM22.84 42.43h-7.064c-.484 0-.877-.38-.877-.849 0-.468.393-.849.877-.849h7.064c.484 0 .877.38.877.849 0 .468-.393.849-.877.849zm-9.443-20.176a.878.878 0 0 1-.733-.383 7.435 7.435 0 0 1-1.283-3.718 7.847 7.847 0 0 1 .088-1.725 7.15 7.15 0 0 1 .814-2.344.887.887 0 0 1 1.188-.35c.428.221.588.736.36 1.148a5.537 5.537 0 0 0-.628 1.806 6.187 6.187 0 0 0-.07 1.363c.024.393.089.782.192 1.162a5.952 5.952 0 0 0 .804 1.728.83.83 0 0 1-.253 1.174.88.88 0 0 1-.479.14zm24.307-2.75h-1.84c-.487 0-.878-.38-.878-.848 0-.468.391-.848.877-.848h1.841c.485 0 .878.38.878.848 0 .469-.393.849-.878.849zm-34.985 0H.878c-.486 0-.877-.38-.877-.848 0-.468.39-.848.877-.848h1.841c.484 0 .878.38.878.848 0 .469-.394.849-.878.849zm12.28-6.387a.89.89 0 0 1-.695-.327.832.832 0 0 1 .156-1.192c.444-.332.92-.619 1.416-.85a.888.888 0 0 1 1.173.394c.21.422.028.93-.41 1.134-.385.18-.757.404-1.103.663a.89.89 0 0 1-.537.178zm16.01-4.944a.897.897 0 0 1-.621-.247.831.831 0 0 1 0-1.202l1.302-1.26a.9.9 0 0 1 1.24 0 .827.827 0 0 1 0 1.2l-1.3 1.262a.897.897 0 0 1-.621.247zM6.27 32.095a.897.897 0 0 1-.621-.248.831.831 0 0 1 0-1.202l1.304-1.259a.9.9 0 0 1 1.24 0 .83.83 0 0 1 0 1.2l-1.301 1.261a.897.897 0 0 1-.622.248zM7.573 8.172a.897.897 0 0 1-.622-.247L5.65 6.664a.83.83 0 0 1 0-1.2.9.9 0 0 1 1.241 0l1.304 1.26a.831.831 0 0 1 0 1.2.897.897 0 0 1-.621.248zM32.31 32.095a.897.897 0 0 1-.622-.248l-1.3-1.26a.827.827 0 0 1 0-1.2.9.9 0 0 1 1.24 0l1.303 1.258a.831.831 0 0 1 0 1.202.897.897 0 0 1-.621.248zM19.29 3.479c-.485 0-.878-.38-.878-.849V.848c0-.468.393-.848.877-.848.485 0 .878.38.878.848V2.63c0 .469-.393.849-.878.849z"/>
        <path id="ap" d="M28.084 34.6l-3.003.001v-8.899h10.253l.001 1.8c0 3.915-3.252 7.098-7.251 7.098zM1.543 25.702h10.23v8.904l-10.227.003-.003-8.907zM8.786 4.514H9.2v.948c0 1.279 1.063 2.321 2.371 2.321s2.373-1.042 2.373-2.321v-.95l8.944-.002v.952c0 1.279 1.065 2.321 2.373 2.321 1.308 0 2.371-1.042 2.371-2.321v-.954l7.692-.003.004 6.353H1.614c.39-3.555 3.44-6.344 7.172-6.344zm2.785-3.01c.461 0 .836.367.836.818v3.14a.827.827 0 0 1-.836.817.827.827 0 0 1-.834-.817v-3.14c0-.45.375-.818.834-.818zm13.69 0c.46 0 .834.367.834.818v3.14a.827.827 0 0 1-.834.817.827.827 0 0 1-.836-.817v-3.14c0-.45.375-.818.836-.818zm-.18 14.3h10.248l.005 8.394H25.08v-8.394zm-23.543 0h10.235v8.394H1.54l-.003-8.394zM35.33 14.3H1.54l-.002-1.938h33.792V14.3zM23.544 25.702v8.9l-10.234.002v-8.902h10.234zM13.31 24.198h10.234v-8.394H13.31v8.394zM36.86 3.753a.76.76 0 0 0-.768-.752l-8.46.003v-.682C27.632 1.041 26.568 0 25.26 0c-1.308 0-2.373 1.04-2.373 2.322v.683l-8.944.003v-.686C13.944 1.041 12.88 0 11.571 0 10.263 0 9.2 1.04 9.2 2.322v.688h-.414C3.942 3.01 0 6.867 0 11.61L.01 35.36c0 .415.345.752.768.752l23.525-.007.01.001.009-.001 3.762-.002c4.846 0 8.788-3.858 8.788-8.601l-.01-23.75z"/>
    </defs>
    <g fill="none" fill-rule="evenodd" transform="translate(-2)">
        <mask id="c" fill="#fff">
            <use xlink:href="#a"/>
        </mask>
        <use fill="url(#b)" xlink:href="#a"/>
        <g mask="url(#c)" opacity=".6">
            <g opacity=".2" transform="rotate(8 -3343.482 2137.126)">
                <mask id="e" fill="#fff">
                    <use xlink:href="#d"/>
                </mask>
                <use fill="#484848" xlink:href="#d"/>
                <g fill="#FFF" mask="url(#e)">
                    <path d="M-103.796-104.677h245.78v243.79h-245.78z"/>
                </g>
            </g>
            <g opacity=".2" transform="translate(467.952 504.36)">
                <mask id="g" fill="#fff">
                    <use xlink:href="#f"/>
                </mask>
                <use fill="#484848" xlink:href="#f"/>
                <g fill="#FFF" mask="url(#g)">
                    <path d="M-119.764-122.85h283.59v286.576h-283.59z"/>
                </g>
            </g>
            <g opacity=".2" transform="rotate(-16 2032.057 -1939.187)">
                <mask id="i" fill="#fff">
                    <use xlink:href="#h"/>
                </mask>
                <use fill="#484848" xlink:href="#h"/>
                <g fill="#FFF" mask="url(#i)">
                    <path d="M-131.4-126h293.542v293.542H-131.4z"/>
                </g>
            </g>
            <g opacity=".2" transform="rotate(12 -2649.339 2431.461)">
                <mask id="k" fill="#fff">
                    <use xlink:href="#j"/>
                </mask>
                <use fill="#484848" xlink:href="#j"/>
                <g fill="#FFF" mask="url(#k)">
                    <path d="M-101.134-102.502h238.813v231.848h-238.813z"/>
                </g>
            </g>
            <g opacity=".2" transform="rotate(-22 1786.312 -1001.427)">
                <mask id="m" fill="#fff">
                    <use xlink:href="#l"/>
                </mask>
                <use fill="#5A5A5A" xlink:href="#l"/>
                <g fill="#FFF" mask="url(#m)">
                    <path d="M-101.134-101.134h238.813v238.813h-238.813z"/>
                </g>
            </g>
            <g opacity=".2" transform="rotate(-29 1316.785 -476.81)">
                <mask id="o" fill="#fff">
                    <use xlink:href="#n"/>
                </mask>
                <use fill="#484848" xlink:href="#n"/>
                <g fill="#FFF" mask="url(#o)">
                    <path d="M-117.103-119.215h276.626v277.62h-276.626z"/>
                </g>
            </g>
            <g opacity=".2" transform="rotate(42 -479.51 687.1)">
                <mask id="q" fill="#fff">
                    <use xlink:href="#p"/>
                </mask>
                <use fill="#484848" xlink:href="#p"/>
                <g fill="#FFF" mask="url(#q)">
                    <path d="M-124.416-110.801h281.601v269.66h-281.601z"/>
                </g>
            </g>
            <g opacity=".2" transform="rotate(-9 3315.285 -2047.656)">
                <mask id="s" fill="#fff">
                    <use xlink:href="#r"/>
                </mask>
                <use fill="#484848" xlink:href="#r"/>
                <g fill="#FFF" mask="url(#s)">
                    <path d="M-114.441-114.441h270.655v270.655h-270.655z"/>
                </g>
            </g>
            <g opacity=".2" transform="rotate(-9 3685.822 -1869.107)">
                <mask id="u" fill="#fff">
                    <use xlink:href="#t"/>
                </mask>
                <use fill="#484848" xlink:href="#t"/>
                <g fill="#FFF" mask="url(#u)">
                    <path d="M-114.441-116.308h270.655v270.655h-270.655z"/>
                </g>
            </g>
            <g opacity=".2" transform="rotate(7 -3859.066 5004.282)">
                <mask id="w" fill="#fff">
                    <use xlink:href="#v"/>
                </mask>
                <use fill="#484848" xlink:href="#v"/>
                <g fill="#FFF" mask="url(#w)">
                    <path d="M-128.304-122.123h290.556v284.586h-290.556z"/>
                </g>
            </g>
            <g opacity=".2" transform="rotate(-14 2292.504 -1457.571)">
                <mask id="y" fill="#fff">
                    <use xlink:href="#x"/>
                </mask>
                <use fill="#484848" xlink:href="#x"/>
                <g fill="#FFF" mask="url(#y)">
                    <path d="M-124.32-112.608h274.636v270.655H-124.32z"/>
                </g>
            </g>
            <g opacity=".2" transform="rotate(-7 4350.772 -4032.663)">
                <mask id="A" fill="#fff">
                    <use xlink:href="#z"/>
                </mask>
                <use fill="#484848" xlink:href="#z"/>
                <g fill="#FFF" mask="url(#A)">
                    <path d="M-124.605-117.103h286.576v276.626h-286.576z"/>
                </g>
            </g>
            <g opacity=".2" transform="translate(613.234 540.565)">
                <mask id="C" fill="#fff">
                    <use xlink:href="#B"/>
                </mask>
                <use fill="#484848" xlink:href="#B"/>
                <g fill="#FFF" mask="url(#C)">
                    <path d="M-104.677-103.796h243.79v245.78h-243.79z"/>
                </g>
            </g>
            <path fill="#FFF" fill-opacity=".2" d="M498.113 584.487a2.086 2.086 0 0 1-1.244 2.67l-1.338.488-3.048-8.375 1.338-.487a2.085 2.085 0 0 1 2.67 1.246l1.622 4.458zm-8.857 11.191l-4.185 1.523a.404.404 0 1 1-.276-.757l4.185-1.523.276.757zm-14.535-.46l-1.338.488a2.086 2.086 0 0 1-2.67-1.246l-1.622-4.458a2.085 2.085 0 0 1 1.245-2.67l1.337-.487 3.048 8.374zm19.729-18.436l-.447-1.229a13.69 13.69 0 0 0-7.122-7.78 13.676 13.676 0 0 0-10.533-.46c-7.137 2.598-10.827 10.52-8.228 17.66l.447 1.23c-1.287 1.037-1.852 2.807-1.255 4.447l1.622 4.457a3.983 3.983 0 0 0 5.097 2.379l2.228-.811a.947.947 0 0 0 .566-1.214l-3.696-10.154a.946.946 0 0 0-1.214-.566l-1.647.599-.369-1.014c-2.242-6.16.942-12.992 7.097-15.232a11.794 11.794 0 0 1 9.085.394 11.814 11.814 0 0 1 6.142 6.713l.37 1.014-1.647.599a.945.945 0 0 0-.566 1.214l3.696 10.154a.946.946 0 0 0 1.213.567l1.493-.544a3.097 3.097 0 0 1-2.024 3.034l-4.185 1.523-.138-.38a.947.947 0 0 0-1.213-.565l-5.075 1.846a2.3 2.3 0 0 0-1.373 2.945 2.3 2.3 0 0 0 2.945 1.374l5.074-1.847a.946.946 0 0 0 .566-1.214l-.138-.38 4.185-1.522c2.351-.856 3.652-3.302 3.17-5.686 1.33-1.03 1.923-2.829 1.317-4.494l-1.623-4.457c-.597-1.64-2.167-2.632-3.82-2.6z"/>
            <g opacity=".2" transform="rotate(3 -11271.352 6685.474)">
                <mask id="E" fill="#fff">
                    <use xlink:href="#D"/>
                </mask>
                <use fill="#484848" xlink:href="#D"/>
                <g fill="#FFF" mask="url(#E)">
                    <path d="M-107.585-103.796H143.17v245.78h-250.754z"/>
                </g>
            </g>
            <path fill="#FFF" fill-opacity=".2" d="M575.782 574.37c-.691 0-1.348-.129-1.98-.309l8.982-5.112c-.83 3.112-3.64 5.42-7.002 5.42zm-10.884 2.526l-4.92-2.798a9.21 9.21 0 0 0 3.244-7.014c0-.05-.006-.098-.008-.15h.008c0-.924.751-1.677 1.675-1.677a1.68 1.68 0 0 1 1.676 1.678h.009c-.002.05-.008.099-.008.149 0 2.807 1.261 5.32 3.24 7.013l-4.916 2.8zm-10.887-2.526c-3.363 0-6.171-2.31-6.998-5.42l8.981 5.111c-.637.18-1.29.309-1.983.309zm0-14.572c4.01 0 7.275 3.268 7.275 7.286a7.275 7.275 0 0 1-3.132 5.974l-11.364-6.466c.257-3.784 3.38-6.794 7.221-6.794zm21.77 0c3.843 0 6.967 3.009 7.224 6.794l-11.365 6.466a7.278 7.278 0 0 1-3.13-5.974c0-4.018 3.261-7.286 7.272-7.286zm10.174 4.376h-1.44c-1.22-3.664-4.67-6.316-8.733-6.316-4.026 0-7.448 2.607-8.697 6.22a3.565 3.565 0 0 0-2.188-.76c-.828 0-1.579.29-2.188.758-1.248-3.613-4.672-6.218-8.698-6.218-4.061 0-7.51 2.652-8.73 6.316h-1.442c-.749 0-1.356.61-1.356 1.358v.695c0 .75.607 1.358 1.356 1.358h.991c.262 4.854 4.274 8.725 9.181 8.725 1.5 0 2.911-.368 4.164-1.008l4.762 2.71-6.127 3.486a4.63 4.63 0 0 0-2.32 4.007c0 .999.313 1.949.939 2.791l.015.02a.945.945 0 0 0 .731.344.97.97 0 0 0 .604-.213.981.981 0 0 0 .172-1.349 2.657 2.657 0 0 1-.525-1.593c0-.956.516-1.847 1.343-2.322l7.13-4.057 7.122 4.055a2.686 2.686 0 0 1 1.346 2.324c0 .578-.181 1.13-.491 1.55l-.016.019 1.537 1.18c.593-.8.906-1.75.906-2.75a4.63 4.63 0 0 0-2.323-4.008l-6.124-3.484 4.762-2.71a9.13 9.13 0 0 0 4.164 1.008c4.909 0 8.922-3.87 9.184-8.725h.989c.748 0 1.355-.608 1.355-1.358v-.695c0-.748-.607-1.358-1.355-1.358zM606.538 595.776l.943-4.088a2.28 2.28 0 0 1-.943 4.088m-2.61-2.756a2.28 2.28 0 0 1 1.825-1.731l-.944 4.088a2.28 2.28 0 0 1-.882-2.357m3.13-3.437a4.056 4.056 0 0 1 3.035 4.86 4.057 4.057 0 0 1-4.859 3.038 4.057 4.057 0 0 1-3.034-4.86 4.056 4.056 0 0 1 4.858-3.038zm5.2 10.211l4.002.924-2.265-3.333a8.018 8.018 0 0 1-1.738 2.41zm-7.057.315c3.353.774 6.692-1.267 7.548-4.556l-.07-.102.127-.072c.776-3.386-1.36-6.777-4.767-7.564-3.409-.787-6.819 1.331-7.601 4.72-.783 3.389 1.354 6.787 4.763 7.574zm.837 7.342c.424-1.836.273-3.71-.385-5.463a8.139 8.139 0 0 1-6.919-6.117 9.767 9.767 0 0 0-5.51.33c-.263.1-.543.208-.817.346l-21.971 12.595 23.979 5.536c5.21 1.203 10.426-2.04 11.623-7.227zm-14.582 11.495l.685-2.97-1.366-.316-.686 2.97a.703.703 0 0 0 1.367.316zm-6.102-1.409l.686-2.97-1.365-.315-.686 2.97a.699.699 0 0 0 .535.83.702.702 0 0 0 .83-.515zm29.39-23.272l3.465-1.993-3.906-.902c.318.918.474 1.895.44 2.895zm.489 1.774l3.329 4.901c.185.228.26.581.177.941a1.199 1.199 0 0 1-1.433.902l-6.992-1.614c-.859.436-1.8.713-2.776.821.59 1.901.695 3.9.241 5.863-1.418 6.142-7.593 9.98-13.764 8.555l-.132-.03-.686 2.97c-.306 1.323-1.645 2.15-2.985 1.84a2.477 2.477 0 0 1-1.864-2.96l.686-2.97-1.253-.289-.685 2.97a2.476 2.476 0 0 1-2.972 1.845c-1.34-.31-2.181-1.64-1.876-2.964l.686-2.97-13.115-3.028a1.705 1.705 0 0 1-1.283-2.039c.11-.479.426-.88.861-1.099l22.16-12.7c.37-.188.7-.319 1.034-.446 1.905-.69 3.927-.838 5.909-.497-.01-.63.049-1.27.196-1.907 1.003-4.345 5.374-7.058 9.743-6.05a8.125 8.125 0 0 1 4.799 3.217l6.817 1.574c.64.148 1.042.794.893 1.439-.082.354-.31.646-.63.798l-5.085 2.927z"/>
            <g opacity=".2">
                <g transform="rotate(14 -2095.753 2967.201)">
                    <mask id="G" fill="#fff">
                        <use xlink:href="#F"/>
                    </mask>
                    <use fill="#484848" xlink:href="#F"/>
                    <g fill="#FFF" mask="url(#G)">
                        <path d="M-109.119-109.119h257.72v257.72h-257.72z"/>
                    </g>
                </g>
                <g transform="rotate(-29 1492.585 -1156.577)">
                    <mask id="I" fill="#fff">
                        <use xlink:href="#H"/>
                    </mask>
                    <use fill="#484848" xlink:href="#H"/>
                    <g fill="#FFF" mask="url(#I)">
                        <path d="M-117.103-119.215h276.626v277.62h-276.626z"/>
                    </g>
                </g>
                <g transform="rotate(42 -303.71 1145.075)">
                    <mask id="K" fill="#fff">
                        <use xlink:href="#J"/>
                    </mask>
                    <use fill="#484848" xlink:href="#J"/>
                    <g fill="#FFF" mask="url(#K)">
                        <path d="M-124.416-110.801h281.601v269.66h-281.601z"/>
                    </g>
                </g>
                <g transform="rotate(-9 3491.085 -4281.407)">
                    <mask id="M" fill="#fff">
                        <use xlink:href="#L"/>
                    </mask>
                    <use fill="#484848" xlink:href="#L"/>
                    <g fill="#FFF" mask="url(#M)">
                        <path d="M-114.441-114.441h270.655v270.655h-270.655z"/>
                    </g>
                </g>
                <g transform="rotate(-9 3863.064 -4083.199)">
                    <mask id="O" fill="#fff">
                        <use xlink:href="#N"/>
                    </mask>
                    <use fill="#484848" xlink:href="#N"/>
                    <g fill="#FFF" mask="url(#O)">
                        <path d="M-114.441-116.308h270.655v270.655h-270.655z"/>
                    </g>
                </g>
                <g transform="rotate(3 -11082.554 13895.366)">
                    <mask id="Q" fill="#fff">
                        <use xlink:href="#P"/>
                    </mask>
                    <use fill="#484848" xlink:href="#P"/>
                    <g fill="#FFF" mask="url(#Q)">
                        <path d="M-107.585-103.796H143.17v245.78h-250.754z"/>
                    </g>
                </g>
            </g>
            <g>
                <g opacity=".2" transform="scale(-1 1) rotate(8 -3636.382 -2051.54)">
                    <mask id="S" fill="#fff">
                        <use xlink:href="#R"/>
                    </mask>
                    <use fill="#484848" xlink:href="#R"/>
                    <g fill="#FFF" mask="url(#S)">
                        <path d="M-103.796-104.677h245.78v243.79h-245.78z"/>
                    </g>
                </g>
                <g opacity=".2" transform="matrix(-1 0 0 1 117.848 504.36)">
                    <mask id="U" fill="#fff">
                        <use xlink:href="#T"/>
                    </mask>
                    <use fill="#484848" xlink:href="#T"/>
                    <g fill="#FFF" mask="url(#U)">
                        <path d="M-119.764-122.85h283.59v286.576h-283.59z"/>
                    </g>
                </g>
                <g opacity=".2" transform="scale(-1 1) rotate(14 -2564.453 -850.054)">
                    <mask id="W" fill="#fff">
                        <use xlink:href="#V"/>
                    </mask>
                    <use fill="#484848" xlink:href="#V"/>
                    <g fill="#FFF" mask="url(#W)">
                        <path d="M-109.119-109.119h257.72v257.72h-257.72z"/>
                    </g>
                </g>
                <g opacity=".2" transform="scale(-1 1) rotate(12 -2942.239 -355.296)">
                    <mask id="Y" fill="#fff">
                        <use xlink:href="#X"/>
                    </mask>
                    <use fill="#484848" xlink:href="#X"/>
                    <g fill="#FFF" mask="url(#Y)">
                        <path d="M-101.134-102.502h238.813v231.848h-238.813z"/>
                    </g>
                </g>
                <g opacity=".2" transform="scale(-1 1) rotate(-22 1493.412 505.413)">
                    <mask id="aa" fill="#fff">
                        <use xlink:href="#Z"/>
                    </mask>
                    <use fill="#5A5A5A" xlink:href="#Z"/>
                    <g fill="#FFF" mask="url(#aa)">
                        <path d="M-101.134-101.134h238.813v238.813h-238.813z"/>
                    </g>
                </g>
                <g opacity=".2" transform="scale(-1 1) rotate(-29 1023.885 655.751)">
                    <mask id="ac" fill="#fff">
                        <use xlink:href="#ab"/>
                    </mask>
                    <use fill="#484848" xlink:href="#ab"/>
                    <g fill="#FFF" mask="url(#ac)">
                        <path d="M-117.103-119.215h276.626v277.62h-276.626z"/>
                    </g>
                </g>
                <g opacity=".2" transform="scale(-1 1) rotate(42 -772.41 -75.93)">
                    <mask id="ae" fill="#fff">
                        <use xlink:href="#ad"/>
                    </mask>
                    <use fill="#484848" xlink:href="#ad"/>
                    <g fill="#FFF" mask="url(#ae)">
                        <path d="M-124.416-110.801h281.601v269.66h-281.601z"/>
                    </g>
                </g>
                <g opacity=".2" transform="scale(-1 1) rotate(-9 3022.385 1673.991)">
                    <mask id="ag" fill="#fff">
                        <use xlink:href="#af"/>
                    </mask>
                    <use fill="#484848" xlink:href="#af"/>
                    <g fill="#FFF" mask="url(#ag)">
                        <path d="M-114.441-114.441h270.655v270.655h-270.655z"/>
                    </g>
                </g>
                <g opacity=".2" transform="scale(-1 1) rotate(-9 3394.364 1872.2)">
                    <mask id="ai" fill="#fff">
                        <use xlink:href="#ah"/>
                    </mask>
                    <use fill="#484848" xlink:href="#ah"/>
                    <g fill="#FFF" mask="url(#ai)">
                        <path d="M-114.441-116.308h270.655v270.655h-270.655z"/>
                    </g>
                </g>
                <g opacity=".2" transform="scale(-1 1) rotate(7 -4151.966 215.409)">
                    <mask id="ak" fill="#fff">
                        <use xlink:href="#aj"/>
                    </mask>
                    <use fill="#484848" xlink:href="#aj"/>
                    <g fill="#FFF" mask="url(#ak)">
                        <path d="M-128.304-122.123h290.556v284.586h-290.556z"/>
                    </g>
                </g>
                <g opacity=".2" transform="scale(-1 1) rotate(-14 1999.604 927.908)">
                    <mask id="am" fill="#fff">
                        <use xlink:href="#al"/>
                    </mask>
                    <use fill="#484848" xlink:href="#al"/>
                    <g fill="#FFF" mask="url(#am)">
                        <path d="M-124.32-112.608h274.636v270.655H-124.32z"/>
                    </g>
                </g>
                <g opacity=".2" transform="scale(-1 1) rotate(-7 4057.872 756.21)">
                    <mask id="ao" fill="#fff">
                        <use xlink:href="#an"/>
                    </mask>
                    <use fill="#484848" xlink:href="#an"/>
                    <g fill="#FFF" mask="url(#ao)">
                        <path d="M-124.605-117.103h286.576v276.626h-286.576z"/>
                    </g>
                </g>
                <path fill="#FFF" fill-opacity=".2" d="M87.687 584.487a2.086 2.086 0 0 0 1.244 2.67l1.338.488 3.048-8.375-1.338-.487a2.085 2.085 0 0 0-2.67 1.246l-1.622 4.458zm8.857 11.191l4.185 1.523a.404.404 0 1 0 .276-.757l-4.185-1.523-.276.757zm14.535-.46l1.338.488a2.086 2.086 0 0 0 2.67-1.246l1.622-4.458a2.085 2.085 0 0 0-1.245-2.67l-1.337-.487-3.048 8.374zM91.35 576.783l.447-1.229a13.69 13.69 0 0 1 7.122-7.78 13.676 13.676 0 0 1 10.533-.46c7.137 2.598 10.827 10.52 8.228 17.66l-.447 1.23c1.287 1.037 1.852 2.807 1.255 4.447l-1.622 4.457a3.983 3.983 0 0 1-5.097 2.379l-2.228-.811a.947.947 0 0 1-.566-1.214l3.696-10.154a.946.946 0 0 1 1.214-.566l1.647.599.369-1.014c2.242-6.16-.942-12.992-7.097-15.232a11.794 11.794 0 0 0-9.085.394 11.814 11.814 0 0 0-6.142 6.713l-.37 1.014 1.647.599c.493.18.745.721.566 1.214l-3.696 10.154a.946.946 0 0 1-1.213.567l-1.493-.544a3.097 3.097 0 0 0 2.024 3.034l4.185 1.523.138-.38a.947.947 0 0 1 1.213-.565l5.075 1.846a2.3 2.3 0 0 1 1.373 2.945 2.3 2.3 0 0 1-2.945 1.374l-5.074-1.847a.946.946 0 0 1-.566-1.214l.138-.38-4.185-1.522c-2.351-.856-3.652-3.302-3.17-5.686-1.33-1.03-1.923-2.829-1.317-4.494l1.623-4.457c.597-1.64 2.167-2.632 3.82-2.6z"/>
                <g opacity=".2" transform="scale(-1 1) rotate(3 -11551.254 -4003.565)">
                    <mask id="aq" fill="#fff">
                        <use xlink:href="#ap"/>
                    </mask>
                    <use fill="#484848" xlink:href="#ap"/>
                    <g fill="#FFF" mask="url(#aq)">
                        <path d="M-107.585-103.796H143.17v245.78h-250.754z"/>
                    </g>
                </g>
                <path fill="#FFF" fill-opacity=".2" d="M10.018 574.37c.691 0 1.348-.129 1.98-.309l-8.982-5.112c.83 3.112 3.64 5.42 7.002 5.42zm10.884 2.526l4.92-2.798a9.21 9.21 0 0 1-3.244-7.014c0-.05.006-.098.008-.15h-.008c0-.924-.751-1.677-1.675-1.677a1.68 1.68 0 0 0-1.676 1.678h-.009c.002.05.008.099.008.149 0 2.807-1.261 5.32-3.24 7.013l4.916 2.8zm10.887-2.526c3.363 0 6.171-2.31 6.998-5.42l-8.981 5.111c.637.18 1.29.309 1.983.309zm0-14.572c-4.01 0-7.275 3.268-7.275 7.286a7.275 7.275 0 0 0 3.132 5.974l11.364-6.466c-.257-3.784-3.38-6.794-7.221-6.794zm-21.77 0c-3.843 0-6.967 3.009-7.224 6.794l11.365 6.466a7.278 7.278 0 0 0 3.13-5.974c0-4.018-3.261-7.286-7.272-7.286zm-10.174 4.376h1.44c1.22-3.664 4.67-6.316 8.733-6.316 4.026 0 7.448 2.607 8.697 6.22a3.565 3.565 0 0 1 2.188-.76c.828 0 1.579.29 2.188.758 1.248-3.613 4.672-6.218 8.698-6.218 4.061 0 7.51 2.652 8.73 6.316h1.442c.749 0 1.356.61 1.356 1.358v.695c0 .75-.607 1.358-1.356 1.358h-.991c-.262 4.854-4.274 8.725-9.181 8.725a9.13 9.13 0 0 1-4.164-1.008l-4.762 2.71 6.127 3.486a4.63 4.63 0 0 1 2.32 4.007c0 .999-.313 1.949-.939 2.791l-.015.02a.945.945 0 0 1-.731.344.97.97 0 0 1-.604-.213.981.981 0 0 1-.172-1.349 2.657 2.657 0 0 0 .525-1.593c0-.956-.516-1.847-1.343-2.322l-7.13-4.057-7.122 4.055a2.686 2.686 0 0 0-1.346 2.324c0 .578.181 1.13.491 1.55l.016.019-1.537 1.18a4.584 4.584 0 0 1-.906-2.75 4.63 4.63 0 0 1 2.323-4.008l6.124-3.484-4.762-2.71a9.13 9.13 0 0 1-4.164 1.008c-4.909 0-8.922-3.87-9.184-8.725h-.989a1.357 1.357 0 0 1-1.355-1.358v-.695c0-.748.607-1.358 1.355-1.358zM-20.738 595.776l-.943-4.088a2.28 2.28 0 0 0 .943 4.088m2.61-2.756a2.28 2.28 0 0 0-1.825-1.731l.944 4.088a2.28 2.28 0 0 0 .882-2.357m-3.13-3.437a4.056 4.056 0 0 0-3.035 4.86 4.057 4.057 0 0 0 4.859 3.038 4.057 4.057 0 0 0 3.034-4.86 4.056 4.056 0 0 0-4.858-3.038zm-5.2 10.211l-4.002.924 2.265-3.333a8.018 8.018 0 0 0 1.738 2.41zm7.057.315c-3.353.774-6.692-1.267-7.548-4.556l.07-.102-.127-.072c-.776-3.386 1.36-6.777 4.767-7.564 3.409-.787 6.819 1.331 7.601 4.72.783 3.389-1.354 6.787-4.763 7.574zm-.837 7.342c-.424-1.836-.273-3.71.385-5.463a8.139 8.139 0 0 0 6.919-6.117 9.767 9.767 0 0 1 5.51.33c.263.1.543.208.817.346l21.971 12.595-23.979 5.536c-5.21 1.203-10.426-2.04-11.623-7.227zm14.582 11.495l-.685-2.97 1.366-.316.686 2.97a.703.703 0 0 1-1.367.316zm6.102-1.409l-.686-2.97 1.365-.315.686 2.97a.699.699 0 0 1-.535.83.702.702 0 0 1-.83-.515zm-29.39-23.272l-3.465-1.993 3.906-.902a7.995 7.995 0 0 0-.44 2.895zm-.489 1.774l-3.329 4.901c-.185.228-.26.581-.177.941.149.645.792 1.05 1.433.902l6.992-1.614c.859.436 1.8.713 2.776.821-.59 1.901-.695 3.9-.241 5.863 1.418 6.142 7.593 9.98 13.764 8.555l.132-.03.686 2.97c.306 1.323 1.645 2.15 2.985 1.84a2.477 2.477 0 0 0 1.864-2.96l-.686-2.97 1.253-.289.685 2.97a2.476 2.476 0 0 0 2.972 1.845c1.34-.31 2.181-1.64 1.876-2.964l-.686-2.97 13.115-3.028a1.705 1.705 0 0 0 1.283-2.039c-.11-.479-.426-.88-.861-1.099l-22.16-12.7c-.37-.188-.7-.319-1.034-.446-1.905-.69-3.927-.838-5.909-.497.01-.63-.049-1.27-.196-1.907-1.003-4.345-5.374-7.058-9.743-6.05a8.125 8.125 0 0 0-4.799 3.217l-6.817 1.574a1.199 1.199 0 0 0-.893 1.439c.082.354.31.646.63.798l5.085 2.927z"/>
                <g fill="#FFF" fill-opacity=".2">
                    <path d="M284.124 586.401c-.83 4.273 1.942 8.42 6.18 9.243l11.096 2.157a1.393 1.393 0 0 0 1.628-1.107 1.394 1.394 0 0 0-1.094-1.637l-5.061-.984.92-1.1a7.937 7.937 0 0 0 1.706-3.583 8.016 8.016 0 0 0-.075-3.398l-.093-.64 10.391-4.551-3.242 16.679a1.28 1.28 0 0 0 .997 1.508 1.288 1.288 0 0 0 1.504-1.022l3.583-18.427.43-.17c.008-.003.881-.351 2.049-1.167l1.695-1.182-4.206 21.636a1.28 1.28 0 0 0 .997 1.508 1.28 1.28 0 0 0 1.49-1.025l5.976-30.727a9.017 9.017 0 0 0-.633-5.464l-.11-.246.047-.247-9.166-1.782c-.044-.008-.078-.037-.122-.05l-5.787 5.074c.169.58.2 1.184.085 1.777-.402 2.067-2.397 3.425-4.448 3.026a3.71 3.71 0 0 1-.811-.265l-13.244 11.613 3.068-15.785a.887.887 0 0 0-.696-1.042.887.887 0 0 0-1.035.706l-4.019 20.674zm37.146-37.19c-1.269 1.27-3.9 4.991-4.226 6.663-.305 1.572.713 3.096 2.273 3.4 1.56.303 3.075-.73 3.38-2.3.324-1.668-.71-6.07-1.427-7.762zm1.81-1.066a1.852 1.852 0 0 0-1.454-2.175l-6.242-1.214c-.98-.19-1.95.455-2.164 1.473-.34 1.75-2.13 2.877-3.99 2.515l-3.105-.603a5.548 5.548 0 0 0 1.714 4.268l.006-.034 2.5.486-.168.861c.142.038.276.093.423.122l2.609.507-.717 3.69 3.445.67a4.575 4.575 0 0 1-.537-3.156c.474-2.442 3.98-7.044 5.176-7.973l.51.668-.497-.68c.587-.471 1.52-.33 1.943.394.12.206.259.526.406.915l.143-.734zm-19.398 18.904l-2.087 1.832a2.13 2.13 0 0 0 2.07-1.727l.017-.105zm-14.182-3.686c1.384.27 2.29 1.624 2.018 3.02l-2.132 10.968 9.176-8.044-.002-.001 5.952-5.218 5.51-4.832c0-.082-.019-.163-.002-.248.087-.448.389-.787.767-.98l.455-2.339-.964-.187c-.148-.029-.28-.086-.423-.124l-.248 1.277a1.282 1.282 0 0 1-1.496 1.016 1.282 1.282 0 0 1-1.004-1.501l.368-1.893a7.2 7.2 0 0 1-2.997-6.594l.02-.168c.146-.75.87-1.242 1.64-1.092l3.414.664c.831.161 1.842-.242 2.036-1.238.398-1.881 2.246-3.114 4.118-2.75l6.242 1.213c1.904.37 3.15 2.232 2.777 4.152l-.774 3.981c.386 1.793.618 3.68.39 4.848a4.592 4.592 0 0 1-1.896 2.904l-.021.107c.268.318.413.738.328 1.179a1.404 1.404 0 0 1-.746.97l-.008.043c.832 1.97 1.053 4.12.642 6.236l-5.977 30.727c-.313 1.611-1.863 2.672-3.456 2.363-1.593-.31-2.633-1.875-2.32-3.486l3.448-17.738c-.11.058-.213.107-.3.15l-3.41 17.537c-.313 1.612-1.87 2.671-3.47 2.36-1.592-.31-2.632-1.874-2.32-3.485l2.631-13.532-6.26 2.743a9.672 9.672 0 0 1-1.323 6.568l2.373.46c1.658.323 2.742 1.944 2.417 3.615-.325 1.67-1.937 2.767-3.595 2.445l-11.096-2.157c-5.145-1-8.51-6.034-7.503-11.22l4.02-20.675c.27-1.396 1.617-2.313 3.001-2.044z"/>
                    <path d="M288.12 586.398a.725.725 0 1 0 .276-1.424.725.725 0 0 0-.276 1.424m.603-3.098a2.434 2.434 0 0 1 1.921 2.85 2.434 2.434 0 0 1-2.85 1.924 2.434 2.434 0 0 1-1.921-2.851 2.434 2.434 0 0 1 2.85-1.923M300.368 572.626a.213.213 0 1 0-.419-.081c-.045.232.374.313.419.081m.151-1.897a1.893 1.893 0 0 1 1.495 2.217 1.893 1.893 0 0 1-2.216 1.496 1.892 1.892 0 0 1 .721-3.713M315.25 547.312a.4.4 0 1 0-.152.785.4.4 0 0 0 .152-.785m-.489 2.514a2.163 2.163 0 0 1-1.708-2.534 2.163 2.163 0 0 1 2.533-1.71 2.163 2.163 0 0 1 1.708 2.534 2.163 2.163 0 0 1-2.533 1.71M317.784 570.507a.163.163 0 0 0-.32-.062c-.034.176.286.238.32.062m.201-1.888a1.893 1.893 0 0 1 1.495 2.217 1.893 1.893 0 0 1-2.216 1.496 1.893 1.893 0 0 1-1.495-2.217 1.893 1.893 0 0 1 2.216-1.496"/>
                </g>
            </g>
        </g>
    </g>
</svg>
