<svg width="19" height="22" viewBox="0 0 19 22" fill="none" xmlns="http://www.w3.org/2000/svg">
    <path d="M15.945 7.43H2.672C1.748 7.43 1 8.178 1 9.1v10.227C1 20.251 1.748 21 2.672 21h13.273c.923 0 1.672-.749 1.672-1.672V9.101c0-.923-.749-1.671-1.672-1.671zM13.564 7.195V5.169a4.169 4.169 0 0 0-8.337 0v2.026" stroke="#fff" stroke-width="1.75" stroke-linecap="round" stroke-linejoin="round"/>
    <path d="M9.28 14.328a1.85 1.85 0 1 0 0-3.699 1.85 1.85 0 0 0 0 3.699zM9.281 14.86v2.495" stroke="#fff" stroke-width="1.75" stroke-linecap="round" stroke-linejoin="round"/>
</svg>
