<svg xmlns="http://www.w3.org/2000/svg" width="57" height="57" viewBox="0 0 57 57">
    <g fill="none" fill-rule="evenodd">
        <rect width="57" height="57" fill="#009FC7" rx="12"/>
        <path fill="#FFF" fill-rule="nonzero" d="M33.016 25.313c.782 0 1.404.284 1.883.758.67.663.973 1.705.973 2.905 0 1.248-.383 2.306-1.053 2.969-.51.505-1.165.805-1.883.805-1.1 0-1.882-.552-2.313-1.295v3.376h1.468V36h-4.452v-1.169h1.133v-8.223h-1.133v-1.169h2.904v1.706c.51-1.232 1.388-1.832 2.473-1.832zm-26.078 0c1.84 0 2.994 1.169 2.994 2.18 0 .774-.4 1.327-1.137 1.327-.688 0-1.088-.474-1.088-1.043 0-.458.352-.837.656-.963-.225-.332-.673-.585-1.377-.585-1.089 0-1.969.995-1.969 2.812 0 1.69.72 2.717 2.113 2.717.88 0 1.553-.505 1.889-1.469h.976c-.352 1.611-1.504 2.622-3.25 2.622C4.378 32.911 3 31.363 3 29.215c0-2.29 1.649-3.902 3.938-3.902zm16.336 0c2.31 0 3.808 1.516 3.808 3.76 0 2.243-1.577 3.838-3.808 3.838-2.325 0-3.807-1.532-3.807-3.775 0-2.244 1.577-3.823 3.807-3.823zm-8.667 0c2.31 0 3.808 1.516 3.808 3.76 0 2.243-1.577 3.838-3.808 3.838-2.325 0-3.807-1.532-3.807-3.775 0-2.244 1.577-3.823 3.807-3.823zm26.027 0c2.315 0 3.361 1.848 3.282 3.965H38.89c.064 1.785.81 2.512 2.125 2.512.872 0 1.506-.38 1.902-1.311h.951c-.364 1.548-1.458 2.432-3.265 2.432-2.315 0-3.678-1.58-3.678-3.728 0-2.211 1.57-3.87 3.71-3.87zm9.358 0c.852 0 1.357.61 1.357 1.313 0 .642-.458 1.158-1.073 1.158s-1.089-.36-1.089-1c0-.064.016-.142.032-.204-.584 0-1.089.657-1.357 1.564v3.363h1.372v1.157h-4.323v-1.157h1.104V26.58h-1.104v-1.158h2.872v1.768c.394-1.267 1.31-1.877 2.209-1.877zm-35.448.948c-1.163 0-1.705.853-1.705 2.843s.653 2.86 1.832 2.86c1.131 0 1.705-.87 1.705-2.86 0-2.006-.67-2.843-1.832-2.843zm8.667 0c-1.163 0-1.705.853-1.705 2.843s.653 2.86 1.832 2.86c1.13 0 1.705-.87 1.705-2.86 0-2.006-.67-2.843-1.832-2.843zm9.087.236c-.925 0-1.755 1.121-1.755 2.653 0 1.39.574 2.479 1.755 2.479 1.021 0 1.564-.931 1.564-2.668 0-1.658-.623-2.464-1.564-2.464zm8.241-.252c-.904 0-1.506.584-1.633 2.196h3.171c-.095-1.422-.539-2.196-1.538-2.196zm12.752-1.185c.087 0 .17.01.25.033.08.022.155.054.224.095.07.04.132.09.19.146.057.057.106.12.147.19.04.07.072.144.094.224.022.08.033.163.033.249 0 .085-.01.168-.033.248-.022.08-.054.154-.094.223-.041.07-.09.132-.147.189-.058.057-.12.106-.19.147-.07.04-.144.072-.224.094-.08.022-.163.034-.25.034-.086 0-.169-.012-.248-.034-.08-.022-.154-.053-.224-.094-.069-.041-.132-.09-.19-.147-.057-.057-.106-.12-.147-.189-.04-.069-.072-.143-.094-.223-.022-.079-.033-.162-.033-.248s.01-.17.033-.25c.022-.079.054-.154.094-.223.041-.07.09-.133.147-.19.058-.056.121-.105.19-.146.07-.041.144-.073.224-.095.08-.022.162-.033.248-.033zm0 .111c-.112 0-.218.022-.316.065-.099.043-.184.102-.257.177-.073.074-.13.162-.172.262-.042.1-.063.208-.063.322 0 .076.01.149.028.219.02.07.046.135.081.196s.077.117.126.166c.049.05.103.092.163.128.06.035.124.062.194.082.069.019.141.028.216.028.113 0 .22-.021.318-.064.099-.042.185-.1.258-.174.073-.074.13-.16.173-.26.042-.1.064-.207.064-.321 0-.076-.01-.15-.03-.22-.019-.071-.046-.137-.08-.198-.036-.061-.078-.117-.127-.167-.05-.05-.104-.093-.164-.129-.06-.035-.124-.063-.194-.082-.07-.02-.142-.03-.218-.03zm-.015.252c.147 0 .256.027.327.08.071.054.107.132.107.237 0 .08-.023.148-.069.204-.046.057-.114.096-.205.117.015.009.028.02.038.032.01.013.021.028.03.045l.293.427h-.19c-.028 0-.05-.01-.063-.032l-.258-.386c-.007-.011-.017-.02-.027-.026-.011-.006-.027-.009-.05-.009h-.102v.453h-.2v-1.142h.369zm0 .154h-.17v.39h.15c.047 0 .087-.005.12-.014.032-.01.059-.022.079-.04.02-.016.035-.037.044-.062.009-.025.013-.053.013-.086 0-.031-.004-.06-.012-.083-.008-.024-.021-.044-.04-.059-.018-.015-.042-.027-.072-.034-.03-.008-.067-.012-.112-.012zm-33.49-2.982c.31 0 .548.215.548.566 0 .318-.245.67-.63.67-.31 0-.546-.216-.546-.567 0-.319.245-.67.628-.67zM19.394 20c.327 0 .568.232.568.608 0 .4-.249.72-.56.72-.272 0-.483-.184-.467-.52-.226.096-.786.776-1.346 2.96h-.934l.67-2.592c.116-.456.093-.584-.048-.584-.14 0-.297.214-.467.549l-.376-.155c.305-.623.66-.978 1.116-.978.334 0 .568.248.568.744 0 .232-.047.512-.156.864l.063.024c.45-1.056.824-1.64 1.37-1.64zm-4.479 0c.437 0 .714.345.714.815 0 .666-.587 1.668-.587 2.146 0 .118.048.173.135.173.14 0 .281-.18.45-.56l.373.147c-.307.754-.708 1.047-1.116 1.047-.429 0-.706-.274-.706-.728 0-.784.523-1.56.523-2.092 0-.18-.079-.258-.214-.258-.349 0-1.039.595-1.673 3h-.935l.555-2.068c.07-.259.11-.447.11-.596 0-.188-.063-.336-.237-.336-.365 0-1.047.595-1.681 3h-.952l.682-2.538c.119-.447.095-.572-.048-.572-.147 0-.309.219-.487.558l-.383-.151c.314-.624.678-.98 1.148-.98.341 0 .579.244.579.73 0 .227-.048.509-.167.87l.056.022c.523-1.104 1.11-1.629 1.649-1.629.436 0 .666.29.666.76 0 .22-.063.486-.182.846l.055.023c.524-1.104 1.11-1.629 1.673-1.629z"/>
    </g>
</svg>
