<svg xmlns="http://www.w3.org/2000/svg" xmlns:xlink="http://www.w3.org/1999/xlink" width="135" height="135" viewBox="0 0 135 135">
    <defs>
        <rect id="b" width="109.67" height="109.67" rx="17.741"/>
        <filter id="a" width="139.2%" height="139.2%" x="-19.6%" y="-16%" filterUnits="objectBoundingBox">
            <feOffset dy="4" in="SourceAlpha" result="shadowOffsetOuter1"/>
            <feGaussianBlur in="shadowOffsetOuter1" result="shadowBlurOuter1" stdDeviation="6.5"/>
            <feComposite in="shadowBlurOuter1" in2="SourceAlpha" operator="out" result="shadowBlurOuter1"/>
            <feColorMatrix in="shadowBlurOuter1" values="0 0 0 0 0 0 0 0 0 0 0 0 0 0 0 0 0 0 0.12 0"/>
        </filter>
    </defs>
    <g fill="none" fill-rule="evenodd">
        <g transform="translate(13 9)">
            <use fill="#000" filter="url(#a)" xlink:href="#b"/>
            <rect width="108.83" height="108.83" x=".42" y=".42" fill="#FFF" stroke="#3AA5C0" stroke-linejoin="square" stroke-width=".84" rx="17.741"/>
        </g>
        <g fill="#009FC7" fill-rule="nonzero">
            <path d="M21.064 65.2c0-4.348 3.08-7.407 7.354-7.407 3.439 0 5.591 2.22 5.591 4.139 0 1.47-.748 2.519-2.122 2.519-1.286 0-2.033-.9-2.033-1.98 0-.87.658-1.589 1.225-1.829-.418-.63-1.255-1.11-2.57-1.11-2.034 0-3.678 1.89-3.678 5.339 0 3.209 1.345 5.158 3.946 5.158 1.645 0 2.9-.96 3.528-2.789h1.824c-.658 3.059-2.81 4.978-6.07 4.978-4.424 0-6.995-2.939-6.995-7.017M46.044 64.99c0-3.808-1.25-5.397-3.42-5.397-2.173 0-3.184 1.62-3.184 5.398 0 3.779 1.22 5.428 3.42 5.428 2.113 0 3.184-1.649 3.184-5.428m-10.412.06c0-4.259 2.945-7.258 7.11-7.258 4.314 0 7.11 2.88 7.11 7.138 0 4.259-2.945 7.287-7.11 7.287-4.344 0-7.11-2.909-7.11-7.167M62.23 64.99c0-3.808-1.249-5.397-3.42-5.397-2.172 0-3.184 1.62-3.184 5.398 0 3.779 1.22 5.428 3.421 5.428 2.113 0 3.184-1.649 3.184-5.428m-10.413.06c0-4.259 2.945-7.258 7.11-7.258 4.314 0 7.111 2.88 7.111 7.138 0 4.259-2.945 7.287-7.111 7.287-4.343 0-7.11-2.909-7.11-7.167M78.702 64.718c0-3.147-1.163-4.676-2.92-4.676-1.73 0-3.279 2.128-3.279 5.036 0 2.638 1.073 4.706 3.278 4.706 1.907 0 2.92-1.768 2.92-5.066M67.08 75.864h2.115V60.25H67.08v-2.218h5.423v3.238c.954-2.339 2.593-3.478 4.619-3.478 1.46 0 2.623.54 3.517 1.44 1.251 1.258 1.818 3.237 1.818 5.515 0 2.368-.716 4.377-1.967 5.636-.954.96-2.176 1.529-3.517 1.529-2.056 0-3.516-1.05-4.32-2.458v6.409h2.74v2.218H67.08v-2.218M88.123 63.731h5.921c-.177-2.699-1.006-4.168-2.871-4.168-1.688 0-2.813 1.11-3.05 4.168m-.03 1.59c.119 3.389 1.51 4.768 3.968 4.768 1.628 0 2.813-.72 3.553-2.489h1.776c-.68 2.94-2.724 4.618-6.1 4.618-4.321 0-6.868-2.998-6.868-7.077 0-4.199 2.931-7.348 6.928-7.348 4.323 0 6.277 3.509 6.129 7.528h-9.386M99.337 69.552h2.063v-9.354h-2.063v-2.197h5.364v3.355c.736-2.405 2.446-3.563 4.125-3.563 1.592 0 2.535 1.158 2.535 2.494 0 1.218-.855 2.198-2.004 2.198-1.15 0-2.033-.683-2.033-1.9 0-.12.029-.268.058-.387-1.09 0-2.033 1.247-2.534 2.97v6.384h2.564v2.197h-8.075v-2.197M45.344 52.873c-.575 1.43-1.324 1.988-2.086 1.988-.8 0-1.318-.52-1.318-1.383 0-1.487.978-2.96.978-3.971 0-.342-.149-.49-.4-.49-.652 0-1.94 1.13-3.125 5.695h-1.747l1.036-3.926c.133-.49.207-.848.207-1.13 0-.357-.118-.64-.444-.64-.68 0-1.955 1.13-3.14 5.696H33.53l1.274-4.818c.221-.848.177-1.086-.09-1.086-.274 0-.577.416-.91 1.06l-.715-.288c.586-1.183 1.267-1.858 2.144-1.858.636 0 1.08.461 1.08 1.383 0 .432-.088.967-.31 1.651l.103.045c.978-2.097 2.074-3.094 3.08-3.094.815 0 1.245.55 1.245 1.443 0 .416-.119.922-.34 1.606l.103.045c.977-2.097 2.073-3.094 3.124-3.094.815 0 1.333.655 1.333 1.547 0 1.264-1.096 3.168-1.096 4.075 0 .223.089.328.252.328.263 0 .525-.34.842-1.064l.696.28M46.153 49.58c.57-1.185 1.233-1.857 2.084-1.857.625 0 1.061.47 1.061 1.412 0 .44-.087.972-.29 1.64l.116.046c.843-2.005 1.54-3.114 2.558-3.114.61 0 1.061.44 1.061 1.155 0 .76-.465 1.367-1.046 1.367-.51 0-.902-.35-.873-.988-.421.183-1.468 1.474-2.514 5.62h-1.744l1.25-4.92c.218-.867.174-1.11-.088-1.11-.263 0-.554.407-.872 1.042l-.703-.294M51.24 53.904c0-.605.458-1.271 1.174-1.271.58 0 1.023.408 1.023 1.074 0 .606-.458 1.271-1.175 1.271-.58 0-1.022-.408-1.022-1.074M114.537 59.47h.253v-1.349h-.253v-.165l.73.005.448 1.287h.023l.465-1.287h.707v.16h-.258v1.35h.258v.164h-.752v-.165h.2v-1.28h-.051l-.54 1.445h-.195l-.53-1.446h-.057v1.281h.219v.165h-.667v-.165zm-1.558-.398h.156c.16.313.327.438.574.438.196 0 .322-.09.322-.285 0-.204-.19-.256-.454-.318-.287-.074-.575-.165-.575-.507 0-.268.219-.49.552-.49.167 0 .322.074.42.188l.057-.176h.155v.563h-.149c-.132-.307-.293-.415-.489-.415-.16 0-.298.085-.298.267 0 .217.2.262.436.32.317.073.587.153.587.494 0 .297-.236.519-.57.519a.652.652 0 0 1-.5-.205l-.057.199h-.167v-.592z"/>
        </g>
    </g>
</svg>
