<?xml version="1.0" encoding="UTF-8"?> <svg xmlns="http://www.w3.org/2000/svg" id="Layer_2" data-name="Layer 2" viewBox="0 0 258.16 40.14"><defs><style> .cls-1 { fill: #003449; } .cls-2 { fill: #fff; } .cls-3 { fill: #11e9b7; } </style></defs><g id="Layer_1-2" data-name="Layer 1"><g><g><path class="cls-3" d="M0,20.17v-.09C0,11.32,6.6,4.15,16.07,4.15c5.81,0,9.29,1.94,12.15,4.75l-4.31,4.97c-2.38-2.16-4.8-3.48-7.88-3.48-5.19,0-8.94,4.31-8.94,9.6v.09c0,5.28,3.65,9.69,8.94,9.69,3.52,0,5.68-1.41,8.1-3.61l4.31,4.36c-3.17,3.39-6.69,5.5-12.64,5.5-9.07,0-15.81-7-15.81-15.85Z"></path><path class="cls-3" d="M32.13,3.35h6.69v32.14h-6.69V3.35Z"></path><path class="cls-3" d="M42.65,23.82v-.09c0-6.78,5.46-12.28,12.81-12.28s12.72,5.42,12.72,12.19v.09c0,6.78-5.46,12.28-12.81,12.28s-12.72-5.42-12.72-12.2ZM61.58,23.82v-.09c0-3.48-2.51-6.52-6.21-6.52s-6.12,2.95-6.12,6.43v.09c0,3.48,2.51,6.52,6.21,6.52s6.12-2.95,6.12-6.43Z"></path><path class="cls-3" d="M69.86,32.37l2.86-4.4c2.55,1.85,5.24,2.82,7.44,2.82,1.94,0,2.82-.7,2.82-1.76v-.09c0-1.45-2.29-1.94-4.89-2.73-3.3-.97-7.04-2.51-7.04-7.09v-.09c0-4.8,3.87-7.48,8.63-7.48,2.99,0,6.25,1.01,8.8,2.73l-2.55,4.62c-2.33-1.36-4.67-2.2-6.38-2.2-1.63,0-2.46.7-2.46,1.63v.09c0,1.32,2.25,1.94,4.8,2.82,3.3,1.1,7.13,2.69,7.13,7v.09c0,5.24-3.92,7.62-9.03,7.62-3.3,0-7-1.1-10.13-3.57Z"></path><path class="cls-3" d="M91.34,23.82v-.09c0-6.74,4.8-12.28,11.67-12.28,7.88,0,11.49,6.12,11.49,12.81,0,.53-.04,1.15-.09,1.76h-16.42c.66,3.04,2.77,4.62,5.77,4.62,2.25,0,3.87-.7,5.72-2.42l3.83,3.39c-2.2,2.73-5.37,4.4-9.64,4.4-7.09,0-12.33-4.97-12.33-12.2ZM107.98,21.84c-.4-2.99-2.16-5.02-4.97-5.02s-4.58,1.98-5.11,5.02h10.08Z"></path></g><g><circle class="cls-2" cx="137.55" cy="22.62" r="16.95"></circle><path class="cls-1" d="M141.35,30.58c-1.61,1.33-3.51,2.21-5.81,2.21-3.8,0-6.66-2.21-6.66-5.72v-.06c0-2.52,1.36-4.31,3.85-5.44-.96-1.36-1.39-2.61-1.39-3.97v-.06c0-2.72,2.18-5.21,6-5.21,3.37,0,5.58,2.21,5.58,4.98v.06c0,2.66-1.7,4.22-4.16,5.18l2.63,2.63c.65-1.02,1.3-2.18,1.93-3.4l3.2,1.76c-.76,1.39-1.61,2.86-2.61,4.19l2.92,2.92-3.2,2.24-2.29-2.32ZM138.92,28.09l-3.79-3.85c-1.3.68-1.84,1.64-1.84,2.61v.06c0,1.39,1.16,2.32,2.78,2.32.99,0,1.95-.42,2.86-1.13ZM139.14,17.64v-.06c0-1.13-.76-1.84-1.87-1.84-1.16,0-1.93.82-1.93,2.01v.06c0,.88.34,1.53,1.16,2.46,1.73-.65,2.63-1.39,2.63-2.63Z"></path></g><g><path class="cls-3" d="M187.32,28.71v-.09c0-5.15,3.92-7.53,9.51-7.53,2.38,0,4.09.4,5.77.97v-.4c0-2.77-1.72-4.31-5.06-4.31-2.55,0-4.36.48-6.52,1.28l-1.67-5.11c2.6-1.15,5.15-1.89,9.16-1.89,3.65,0,6.3.97,7.97,2.64,1.76,1.76,2.55,4.36,2.55,7.53v13.69h-6.47v-2.55c-1.63,1.81-3.87,2.99-7.13,2.99-4.45,0-8.1-2.55-8.1-7.22ZM202.68,27.17v-1.19c-1.15-.53-2.64-.88-4.27-.88-2.86,0-4.62,1.15-4.62,3.26v.09c0,1.81,1.5,2.86,3.65,2.86,3.13,0,5.24-1.72,5.24-4.14Z"></path><path class="cls-3" d="M210.27,11.89h7.09l5.28,15.81,5.33-15.81h6.96l-9.29,23.77h-6.08l-9.29-23.77Z"></path><path class="cls-3" d="M235,23.82v-.09c0-6.74,4.8-12.28,11.67-12.28,7.88,0,11.49,6.12,11.49,12.81,0,.53-.04,1.15-.09,1.76h-16.42c.66,3.04,2.77,4.62,5.77,4.62,2.25,0,3.87-.7,5.72-2.42l3.83,3.39c-2.2,2.73-5.37,4.4-9.64,4.4-7.09,0-12.33-4.97-12.33-12.2ZM251.65,21.84c-.4-2.99-2.16-5.02-4.97-5.02s-4.58,1.98-5.11,5.02h10.08Z"></path><path class="cls-3" d="M175.14,16.81c-3.32-1.15-6.24-1.95-6.24-3.66v-.11c0-1.2,1.09-2.12,3.2-2.12,2.23,0,5.27,1.09,8.3,2.86l3.32-6.01c-2.28-1.53-4.99-2.62-7.73-3.16V0h-6.49v4.47c-4.84.9-8.45,4.2-8.45,9.47v.11c0,5.95,4.86,7.95,9.16,9.21,3.38,1.03,6.35,1.66,6.35,3.55v.11c0,1.37-1.14,2.29-3.66,2.29-2.86,0-6.35-1.26-9.67-3.66l-3.72,5.72c3.09,2.43,6.6,3.84,9.99,4.38v4.47h6.49v-4.51c4.94-.91,8.42-3.99,8.42-9.61v-.11c0-5.61-4.98-7.67-9.27-9.1Z"></path></g></g></g></svg> 